<svg viewBox="-30 -5 235 225" height="100%" width="100%" xmlns:xlink="http://www.w3.org/1999/xlink" xmlns="http://www.w3.org/2000/svg" id="id0000000028" >
<g id="id0000000029" >
<g clip-path="url(#id0000000029clipper)" style="pointer-events: all; " vector-effect="non-scaling-stroke" fill="none" class="area" id="id0000000030" >
<g stroke-width="0.000000" id="id0000000032" >
<polygon points="0,200 0,133.333 66.6667,133.333 66.6667,200 " fill="rgb( 255, 0, 0 )" stroke-width="0.000000" id="id0000000033" class="rectangle" />
<polygon points="66.6667,200 66.6667,133.333 133.333,133.333 133.333,200 " fill="rgb( 0, 255, 0 )" stroke-width="0.000000" id="id0000000034" class="rectangle" />
<polygon points="133.333,200 133.333,133.333 200,133.333 200,200 " fill="rgb( 0, 0, 255 )" stroke-width="0.000000" id="id0000000035" class="rectangle" />
<polygon points="0,133.333 0,66.6667 66.6667,66.6667 66.6667,133.333 " fill="rgb( 0, 255, 0 )" stroke-width="0.000000" id="id0000000036" class="rectangle" />
<polygon points="66.6667,133.333 66.6667,66.6667 133.333,66.6667 133.333,133.333 " fill="rgb( 0, 0, 255 )" stroke-width="0.000000" id="id0000000037" class="rectangle" />
<polygon points="133.333,133.333 133.333,66.6667 200,66.6667 200,133.333 " fill="rgb( 255, 0, 0 )" stroke-width="0.000000" id="id0000000038" class="rectangle" />
<polygon points="0,66.6667 0,0 66.6667,0 66.6667,66.6667 " fill="rgb( 0, 0, 255 )" stroke-width="0.000000" id="id0000000039" class="rectangle" />
<polygon points="66.6667,66.6667 66.6667,0 133.333,0 133.333,66.6667 " fill="rgb( 255, 0, 0 )" stroke-width="0.000000" id="id0000000040" class="rectangle" />
<polygon points="133.333,66.6667 133.333,0 200,0 200,66.6667 " fill="rgb( 0, 255, 0 )" stroke-width="0.000000" id="id0000000041" class="rectangle" />
</g>

</g>

<clipPath id="id0000000029clipper" >
<polygon points="0,0 0,200 200,200 200,0 " id="id0000000042" class="rectangle" />
</clipPath>

<polyline points="33.3333,200 33.3333,203 " fill="none" stroke-width="1.000000" stroke="black" id="id0000000043" class="line" />
<text id="id0000000044" transform="matrix(1 0 0 1 0 0)" x="33.333332" y="205.000000" dominant-baseline="hanging" text-anchor="middle" font-size="10.000000px" >
0
</text>

<polyline points="100,200 100,203 " fill="none" stroke-width="1.000000" stroke="black" id="id0000000045" class="line" />
<text id="id0000000046" transform="matrix(1 0 0 1 0 0)" x="100.000000" y="205.000000" dominant-baseline="hanging" text-anchor="middle" font-size="10.000000px" >
1
</text>

<polyline points="166.667,200 166.667,203 " fill="none" stroke-width="1.000000" stroke="black" id="id0000000047" class="line" />
<text id="id0000000048" transform="matrix(1 0 0 1 0 0)" x="166.666672" y="205.000000" dominant-baseline="hanging" text-anchor="middle" font-size="10.000000px" >
2
</text>

<polyline points="-3,166.667 0,166.667 " fill="none" stroke-width="1.000000" stroke="black" id="id0000000049" class="line" />
<text id="id0000000050" transform="matrix(1 0 0 1 0 0)" x="-5.000000" y="166.666672" dominant-baseline="middle" text-anchor="end" font-size="10.000000px" >
0
</text>

<polyline points="-3,100 0,100 " fill="none" stroke-width="1.000000" stroke="black" id="id0000000051" class="line" />
<text id="id0000000052" transform="matrix(1 0 0 1 0 0)" x="-5.000000" y="100.000000" dominant-baseline="middle" text-anchor="end" font-size="10.000000px" >
1
</text>

<polyline points="-3,33.3333 0,33.3333 " fill="none" stroke-width="1.000000" stroke="black" id="id0000000053" class="line" />
<text id="id0000000054" transform="matrix(1 0 0 1 0 0)" x="-5.000000" y="33.333328" dominant-baseline="middle" text-anchor="end" font-size="10.000000px" >
2
</text>

<polygon points="0,0 0,200 200,200 200,0 " stroke="black" stroke-width="1.000000" fill="none" id="id0000000055" pointer-events="none" class="border" />

</g>

</svg>
