<svg viewBox="0 0 200 200" height="100%" width="100%" xmlns:xlink="http://www.w3.org/1999/xlink" xmlns="http://www.w3.org/2000/svg" id="id0000000060" >
<g id="id0000000061" >
<clipPath id="id0000000061clipper" >
<polygon points="36,1 36,178 199,178 199,1 " id="id0000000065" class="rectangle" />
</clipPath>

<g clip-path="url(#id0000000061clipper)" id="id0000000063" >
<g stroke-width="0.000000" id="id0000000064" >
<polygon points="36,178 36,160.3 52.3,160.3 52.3,178 " fill="rgb( 68, 1, 84 )" stroke-width="0.000000" id="id0000000066" class="rectangle" />
<polygon points="52.3,178 52.3,160.3 68.6,160.3 68.6,178 " fill="rgb( 67, 19, 98 )" stroke-width="0.000000" id="id0000000067" class="rectangle" />
<polygon points="68.6,178 68.6,160.3 84.9,160.3 84.9,178 " fill="rgb( 66, 38, 112 )" stroke-width="0.000000" id="id0000000068" class="rectangle" />
<polygon points="84.9,178 84.9,160.3 101.2,160.3 101.2,178 " fill="rgb( 65, 56, 126 )" stroke-width="0.000000" id="id0000000069" class="rectangle" />
<polygon points="101.2,178 101.2,160.3 117.5,160.3 117.5,178 " fill="rgb( 62, 73, 135 )" stroke-width="0.000000" id="id0000000070" class="rectangle" />
<polygon points="117.5,178 117.5,160.3 133.8,160.3 133.8,178 " fill="rgb( 56, 88, 137 )" stroke-width="0.000000" id="id0000000071" class="rectangle" />
<polygon points="133.8,178 133.8,160.3 150.1,160.3 150.1,178 " fill="rgb( 49, 102, 139 )" stroke-width="0.000000" id="id0000000072" class="rectangle" />
<polygon points="150.1,178 150.1,160.3 166.4,160.3 166.4,178 " fill="rgb( 43, 117, 141 )" stroke-width="0.000000" id="id0000000073" class="rectangle" />
<polygon points="166.4,178 166.4,160.3 182.7,160.3 182.7,178 " fill="rgb( 40, 130, 139 )" stroke-width="0.000000" id="id0000000074" class="rectangle" />
<polygon points="182.7,178 182.7,160.3 199,160.3 199,178 " fill="rgb( 38, 144, 137 )" stroke-width="0.000000" id="id0000000075" class="rectangle" />
<polygon points="36,160.3 36,142.6 52.3,142.6 52.3,160.3 " fill="rgb( 66, 38, 112 )" stroke-width="0.000000" id="id0000000076" class="rectangle" />
<polygon points="52.3,160.3 52.3,142.6 68.6,142.6 68.6,160.3 " fill="rgb( 65, 56, 126 )" stroke-width="0.000000" id="id0000000077" class="rectangle" />
<polygon points="68.6,160.3 68.6,142.6 84.9,142.6 84.9,160.3 " fill="rgb( 62, 73, 135 )" stroke-width="0.000000" id="id0000000078" class="rectangle" />
<polygon points="84.9,160.3 84.9,142.6 101.2,142.6 101.2,160.3 " fill="rgb( 56, 88, 137 )" stroke-width="0.000000" id="id0000000079" class="rectangle" />
<polygon points="101.2,160.3 101.2,142.6 117.5,142.6 117.5,160.3 " fill="rgb( 49, 102, 139 )" stroke-width="0.000000" id="id0000000080" class="rectangle" />
<polygon points="117.5,160.3 117.5,142.6 133.8,142.6 133.8,160.3 " fill="rgb( 43, 117, 141 )" stroke-width="0.000000" id="id0000000081" class="rectangle" />
<polygon points="133.8,160.3 133.8,142.6 150.1,142.6 150.1,160.3 " fill="rgb( 40, 130, 139 )" stroke-width="0.000000" id="id0000000082" class="rectangle" />
<polygon points="150.1,160.3 150.1,142.6 166.4,142.6 166.4,160.3 " fill="rgb( 38, 144, 137 )" stroke-width="0.000000" id="id0000000083" class="rectangle" />
<polygon points="166.4,160.3 166.4,142.6 182.7,142.6 182.7,160.3 " fill="rgb( 35, 157, 134 )" stroke-width="0.000000" id="id0000000084" class="rectangle" />
<polygon points="36,142.6 36,124.9 52.3,124.9 52.3,142.6 " fill="rgb( 62, 73, 135 )" stroke-width="0.000000" id="id0000000085" class="rectangle" />
<polygon points="52.3,142.6 52.3,124.9 68.6,124.9 68.6,142.6 " fill="rgb( 56, 88, 137 )" stroke-width="0.000000" id="id0000000086" class="rectangle" />
<polygon points="68.6,142.6 68.6,124.9 84.9,124.9 84.9,142.6 " fill="rgb( 49, 102, 139 )" stroke-width="0.000000" id="id0000000087" class="rectangle" />
<polygon points="84.9,142.6 84.9,124.9 101.2,124.9 101.2,142.6 " fill="rgb( 43, 117, 141 )" stroke-width="0.000000" id="id0000000088" class="rectangle" />
<polygon points="101.2,142.6 101.2,124.9 117.5,124.9 117.5,142.6 " fill="rgb( 40, 130, 139 )" stroke-width="0.000000" id="id0000000089" class="rectangle" />
<polygon points="117.5,142.6 117.5,124.9 133.8,124.9 133.8,142.6 " fill="rgb( 38, 143, 137 )" stroke-width="0.000000" id="id0000000090" class="rectangle" />
<polygon points="133.8,142.6 133.8,124.9 150.1,124.9 150.1,142.6 " fill="rgb( 35, 157, 134 )" stroke-width="0.000000" id="id0000000091" class="rectangle" />
<polygon points="150.1,142.6 150.1,124.9 166.4,124.9 166.4,142.6 " fill="rgb( 38, 170, 129 )" stroke-width="0.000000" id="id0000000092" class="rectangle" />
<polygon points="36,124.9 36,107.2 52.3,107.2 52.3,124.9 " fill="rgb( 49, 102, 139 )" stroke-width="0.000000" id="id0000000093" class="rectangle" />
<polygon points="52.3,124.9 52.3,107.2 68.6,107.2 68.6,124.9 " fill="rgb( 43, 117, 141 )" stroke-width="0.000000" id="id0000000094" class="rectangle" />
<polygon points="68.6,124.9 68.6,107.2 84.9,107.2 84.9,124.9 " fill="rgb( 40, 130, 139 )" stroke-width="0.000000" id="id0000000095" class="rectangle" />
<polygon points="84.9,124.9 84.9,107.2 101.2,107.2 101.2,124.9 " fill="rgb( 38, 143, 137 )" stroke-width="0.000000" id="id0000000096" class="rectangle" />
<polygon points="101.2,124.9 101.2,107.2 117.5,107.2 117.5,124.9 " fill="rgb( 35, 157, 134 )" stroke-width="0.000000" id="id0000000097" class="rectangle" />
<polygon points="117.5,124.9 117.5,107.2 133.8,107.2 133.8,124.9 " fill="rgb( 38, 170, 129 )" stroke-width="0.000000" id="id0000000098" class="rectangle" />
<polygon points="133.8,124.9 133.8,107.2 150.1,107.2 150.1,124.9 " fill="rgb( 63, 181, 115 )" stroke-width="0.000000" id="id0000000099" class="rectangle" />
<polygon points="36,107.2 36,89.5 52.3,89.5 52.3,107.2 " fill="rgb( 40, 130, 139 )" stroke-width="0.000000" id="id0000000100" class="rectangle" />
<polygon points="52.3,107.2 52.3,89.5 68.6,89.5 68.6,107.2 " fill="rgb( 38, 143, 137 )" stroke-width="0.000000" id="id0000000101" class="rectangle" />
<polygon points="68.6,107.2 68.6,89.5 84.9,89.5 84.9,107.2 " fill="rgb( 35, 157, 134 )" stroke-width="0.000000" id="id0000000102" class="rectangle" />
<polygon points="84.9,107.2 84.9,89.5 101.2,89.5 101.2,107.2 " fill="rgb( 38, 170, 129 )" stroke-width="0.000000" id="id0000000103" class="rectangle" />
<polygon points="101.2,107.2 101.2,89.5 117.5,89.5 117.5,107.2 " fill="rgb( 63, 181, 115 )" stroke-width="0.000000" id="id0000000104" class="rectangle" />
<polygon points="117.5,107.2 117.5,89.5 133.8,89.5 133.8,107.2 " fill="rgb( 87, 193, 100 )" stroke-width="0.000000" id="id0000000105" class="rectangle" />
<polygon points="36,89.5 36,71.8 52.3,71.8 52.3,89.5 " fill="rgb( 35, 157, 134 )" stroke-width="0.000000" id="id0000000106" class="rectangle" />
<polygon points="52.3,89.5 52.3,71.8 68.6,71.8 68.6,89.5 " fill="rgb( 38, 170, 129 )" stroke-width="0.000000" id="id0000000107" class="rectangle" />
<polygon points="68.6,89.5 68.6,71.8 84.9,71.8 84.9,89.5 " fill="rgb( 63, 181, 115 )" stroke-width="0.000000" id="id0000000108" class="rectangle" />
<polygon points="84.9,89.5 84.9,71.8 101.2,71.8 101.2,89.5 " fill="rgb( 87, 193, 100 )" stroke-width="0.000000" id="id0000000109" class="rectangle" />
<polygon points="101.2,89.5 101.2,71.8 117.5,71.8 117.5,89.5 " fill="rgb( 112, 204, 86 )" stroke-width="0.000000" id="id0000000110" class="rectangle" />
<polygon points="36,71.8 36,54.1 52.3,54.1 52.3,71.8 " fill="rgb( 63, 181, 115 )" stroke-width="0.000000" id="id0000000111" class="rectangle" />
<polygon points="52.3,71.8 52.3,54.1 68.6,54.1 68.6,71.8 " fill="rgb( 87, 193, 100 )" stroke-width="0.000000" id="id0000000112" class="rectangle" />
<polygon points="68.6,71.8 68.6,54.1 84.9,54.1 84.9,71.8 " fill="rgb( 112, 204, 86 )" stroke-width="0.000000" id="id0000000113" class="rectangle" />
<polygon points="84.9,71.8 84.9,54.1 101.2,54.1 101.2,71.8 " fill="rgb( 143, 212, 73 )" stroke-width="0.000000" id="id0000000114" class="rectangle" />
<polygon points="36,54.1 36,36.4 52.3,36.4 52.3,54.1 " fill="rgb( 112, 204, 86 )" stroke-width="0.000000" id="id0000000115" class="rectangle" />
<polygon points="52.3,54.1 52.3,36.4 68.6,36.4 68.6,54.1 " fill="rgb( 143, 212, 73 )" stroke-width="0.000000" id="id0000000116" class="rectangle" />
<polygon points="68.6,54.1 68.6,36.4 84.9,36.4 84.9,54.1 " fill="rgb( 180, 218, 61 )" stroke-width="0.000000" id="id0000000117" class="rectangle" />
<polygon points="36,36.4 36,18.7 52.3,18.7 52.3,36.4 " fill="rgb( 180, 218, 61 )" stroke-width="0.000000" id="id0000000118" class="rectangle" />
<polygon points="52.3,36.4 52.3,18.7 68.6,18.7 68.6,36.4 " fill="rgb( 216, 224, 49 )" stroke-width="0.000000" id="id0000000119" class="rectangle" />
<polygon points="36,18.7 36,1 52.3,1 52.3,18.7 " fill="rgb( 253, 231, 37 )" stroke-width="0.000000" id="id0000000120" class="rectangle" />
</g>

</g>

<polygon points="36,1 36,178 199,178 199,1 " stroke="black" stroke-width="1.000000" fill="none" id="id0000000121" pointer-events="none" class="rectangle" />
<polyline points="44.15,178 44.15,181 " fill="none" stroke-width="1.000000" stroke="black" id="id0000000122" class="line" />
<text id="id0000000123" transform="matrix(1 0 0 1 36 1)" x="8.150000" y="182.000000" dominant-baseline="hanging" text-anchor="middle" font-size="14.000000px" >
0
</text>

<polyline points="76.75,178 76.75,181 " fill="none" stroke-width="1.000000" stroke="black" id="id0000000124" class="line" />
<text id="id0000000125" transform="matrix(1 0 0 1 36 1)" x="40.750000" y="182.000000" dominant-baseline="hanging" text-anchor="middle" font-size="14.000000px" >
2
</text>

<polyline points="109.35,178 109.35,181 " fill="none" stroke-width="1.000000" stroke="black" id="id0000000126" class="line" />
<text id="id0000000127" transform="matrix(1 0 0 1 36 1)" x="73.349998" y="182.000000" dominant-baseline="hanging" text-anchor="middle" font-size="14.000000px" >
4
</text>

<polyline points="141.95,178 141.95,181 " fill="none" stroke-width="1.000000" stroke="black" id="id0000000128" class="line" />
<text id="id0000000129" transform="matrix(1 0 0 1 36 1)" x="105.949997" y="182.000000" dominant-baseline="hanging" text-anchor="middle" font-size="14.000000px" >
6
</text>

<polyline points="174.55,178 174.55,181 " fill="none" stroke-width="1.000000" stroke="black" id="id0000000130" class="line" />
<text id="id0000000131" transform="matrix(1 0 0 1 36 1)" x="138.550003" y="182.000000" dominant-baseline="hanging" text-anchor="middle" font-size="14.000000px" >
8
</text>

<polyline points="33,169.15 36,169.15 " fill="none" stroke-width="1.000000" stroke="black" id="id0000000132" class="line" />
<text id="id0000000133" transform="matrix(1 0 0 1 36 1)" x="-5.000000" y="168.149994" dominant-baseline="middle" text-anchor="end" font-size="14.000000px" >
0
</text>

<polyline points="33,133.75 36,133.75 " fill="none" stroke-width="1.000000" stroke="black" id="id0000000134" class="line" />
<text id="id0000000135" transform="matrix(1 0 0 1 36 1)" x="-5.000000" y="132.750000" dominant-baseline="middle" text-anchor="end" font-size="14.000000px" >
2
</text>

<polyline points="33,98.35 36,98.35 " fill="none" stroke-width="1.000000" stroke="black" id="id0000000136" class="line" />
<text id="id0000000137" transform="matrix(1 0 0 1 36 1)" x="-5.000000" y="97.349998" dominant-baseline="middle" text-anchor="end" font-size="14.000000px" >
4
</text>

<polyline points="33,62.95 36,62.95 " fill="none" stroke-width="1.000000" stroke="black" id="id0000000138" class="line" />
<text id="id0000000139" transform="matrix(1 0 0 1 36 1)" x="-5.000000" y="61.949997" dominant-baseline="middle" text-anchor="end" font-size="14.000000px" >
6
</text>

<polyline points="33,27.55 36,27.55 " fill="none" stroke-width="1.000000" stroke="black" id="id0000000140" class="line" />
<text id="id0000000141" transform="matrix(1 0 0 1 36 1)" x="-5.000000" y="26.550003" dominant-baseline="middle" text-anchor="end" font-size="14.000000px" >
8
</text>


</g>

</svg>
