<svg viewBox="-26 -1 227 167" height="100%" width="100%" xmlns:xlink="http://www.w3.org/1999/xlink" xmlns="http://www.w3.org/2000/svg" id="id0000000088" >
<g id="id0000000089" >
<g clip-path="url(#id0000000089clipper)" style="pointer-events: all; " vector-effect="non-scaling-stroke" fill="none" class="area" id="id0000000090" >
<g stroke-width="0.000000" id="id0000000092" >
<polygon points="0,150 0,100 66.6667,100 66.6667,150 " opacity="0.500000" fill="rgb( 0, 0, 0 )" stroke-width="0.000000" id="id0000000093" class="rectangle" />
<polygon points="66.6667,150 66.6667,100 133.333,100 133.333,150 " opacity="1.000000" fill="rgb( 0, 255, 0 )" stroke-width="0.000000" id="id0000000094" class="rectangle" />
<polygon points="133.333,150 133.333,100 200,100 200,150 " opacity="0.500000" fill="rgb( 0, 0, 0 )" stroke-width="0.000000" id="id0000000095" class="rectangle" />
<polygon points="0,100 0,50 66.6667,50 66.6667,100 " opacity="1.000000" fill="rgb( 0, 255, 0 )" stroke-width="0.000000" id="id0000000096" class="rectangle" />
<polygon points="66.6667,100 66.6667,50 133.333,50 133.333,100 " opacity="0.500000" fill="rgb( 0, 0, 0 )" stroke-width="0.000000" id="id0000000097" class="rectangle" />
<polygon points="133.333,100 133.333,50 200,50 200,100 " opacity="1.000000" fill="rgb( 255, 0, 0 )" stroke-width="0.000000" id="id0000000098" class="rectangle" />
<polygon points="0,50 0,0 66.6667,0 66.6667,50 " opacity="0.500000" fill="rgb( 0, 0, 0 )" stroke-width="0.000000" id="id0000000099" class="rectangle" />
<polygon points="66.6667,50 66.6667,0 133.333,0 133.333,50 " opacity="1.000000" fill="rgb( 255, 0, 0 )" stroke-width="0.000000" id="id0000000100" class="rectangle" />
<polygon points="133.333,50 133.333,0 200,0 200,50 " opacity="0.500000" fill="rgb( 0, 0, 0 )" stroke-width="0.000000" id="id0000000101" class="rectangle" />
</g>

</g>

<clipPath id="id0000000089clipper" >
<polygon points="0,0 0,150 200,150 200,0 " id="id0000000102" class="rectangle" />
</clipPath>

<polyline points="0,150 0,153 " fill="none" stroke-width="1.000000" stroke="black" id="id0000000103" class="line" />
<text id="id0000000104" transform="matrix(1 0 0 1 0 0)" x="0.000000" y="155.000000" dominant-baseline="hanging" text-anchor="middle" font-size="10.000000px" >
-0.5
</text>

<polyline points="33.3333,150 33.3333,153 " fill="none" stroke-width="1.000000" stroke="black" id="id0000000105" class="line" />
<text id="id0000000106" transform="matrix(1 0 0 1 0 0)" x="33.333332" y="155.000000" dominant-baseline="hanging" text-anchor="middle" font-size="10.000000px" >
0
</text>

<polyline points="66.6667,150 66.6667,153 " fill="none" stroke-width="1.000000" stroke="black" id="id0000000107" class="line" />
<text id="id0000000108" transform="matrix(1 0 0 1 0 0)" x="66.666664" y="155.000000" dominant-baseline="hanging" text-anchor="middle" font-size="10.000000px" >
0.5
</text>

<polyline points="100,150 100,153 " fill="none" stroke-width="1.000000" stroke="black" id="id0000000109" class="line" />
<text id="id0000000110" transform="matrix(1 0 0 1 0 0)" x="100.000000" y="155.000000" dominant-baseline="hanging" text-anchor="middle" font-size="10.000000px" >
1
</text>

<polyline points="133.333,150 133.333,153 " fill="none" stroke-width="1.000000" stroke="black" id="id0000000111" class="line" />
<text id="id0000000112" transform="matrix(1 0 0 1 0 0)" x="133.333328" y="155.000000" dominant-baseline="hanging" text-anchor="middle" font-size="10.000000px" >
1.5
</text>

<polyline points="166.667,150 166.667,153 " fill="none" stroke-width="1.000000" stroke="black" id="id0000000113" class="line" />
<text id="id0000000114" transform="matrix(1 0 0 1 0 0)" x="166.666672" y="155.000000" dominant-baseline="hanging" text-anchor="middle" font-size="10.000000px" >
2
</text>

<polyline points="200,150 200,153 " fill="none" stroke-width="1.000000" stroke="black" id="id0000000115" class="line" />
<text id="id0000000116" transform="matrix(1 0 0 1 0 0)" x="200.000000" y="155.000000" dominant-baseline="hanging" text-anchor="middle" font-size="10.000000px" >
2.5
</text>

<polyline points="-3,150 0,150 " fill="none" stroke-width="1.000000" stroke="black" id="id0000000117" class="line" />
<text id="id0000000118" transform="matrix(1 0 0 1 0 0)" x="-5.000000" y="150.000000" dominant-baseline="middle" text-anchor="end" font-size="10.000000px" >
-0.5
</text>

<polyline points="-3,125 0,125 " fill="none" stroke-width="1.000000" stroke="black" id="id0000000119" class="line" />
<text id="id0000000120" transform="matrix(1 0 0 1 0 0)" x="-5.000000" y="125.000000" dominant-baseline="middle" text-anchor="end" font-size="10.000000px" >
0
</text>

<polyline points="-3,100 0,100 " fill="none" stroke-width="1.000000" stroke="black" id="id0000000121" class="line" />
<text id="id0000000122" transform="matrix(1 0 0 1 0 0)" x="-5.000000" y="100.000000" dominant-baseline="middle" text-anchor="end" font-size="10.000000px" >
0.5
</text>

<polyline points="-3,75 0,75 " fill="none" stroke-width="1.000000" stroke="black" id="id0000000123" class="line" />
<text id="id0000000124" transform="matrix(1 0 0 1 0 0)" x="-5.000000" y="75.000000" dominant-baseline="middle" text-anchor="end" font-size="10.000000px" >
1
</text>

<polyline points="-3,50 0,50 " fill="none" stroke-width="1.000000" stroke="black" id="id0000000125" class="line" />
<text id="id0000000126" transform="matrix(1 0 0 1 0 0)" x="-5.000000" y="50.000000" dominant-baseline="middle" text-anchor="end" font-size="10.000000px" >
1.5
</text>

<polyline points="-3,25 0,25 " fill="none" stroke-width="1.000000" stroke="black" id="id0000000127" class="line" />
<text id="id0000000128" transform="matrix(1 0 0 1 0 0)" x="-5.000000" y="25.000000" dominant-baseline="middle" text-anchor="end" font-size="10.000000px" >
2
</text>

<polyline points="-3,0 0,0 " fill="none" stroke-width="1.000000" stroke="black" id="id0000000129" class="line" />
<text id="id0000000130" transform="matrix(1 0 0 1 0 0)" x="-5.000000" y="0.000000" dominant-baseline="middle" text-anchor="end" font-size="10.000000px" >
2.5
</text>

<polygon points="0,0 0,150 200,150 200,0 " stroke="black" stroke-width="1.000000" fill="none" id="id0000000131" pointer-events="none" class="border" />

</g>

</svg>
