<svg viewBox="0 0 200 200" height="100%" width="100%" xmlns:xlink="http://www.w3.org/1999/xlink" xmlns="http://www.w3.org/2000/svg" id="id0000001822" >
<g id="id0000001823" >
<g id="id0000001824" >
<g clip-path="url(#id0000001824clipper)" style="pointer-events: all; " vector-effect="non-scaling-stroke" fill="none" class="area" id="id0000001825" >
<g stroke-width="0.000000" id="id0000001827" >
<polygon points="96,75 96,86.6667 107,86.6667 107,75 " fill="rgb( 255, 0, 0 )" stroke-width="0.000000" id="id0000001828" class="rectangle" />
<polygon points="107,75 107,86.6667 118,86.6667 118,75 " fill="rgb( 0, 255, 0 )" stroke-width="0.000000" id="id0000001829" class="rectangle" />
<polygon points="118,75 118,86.6667 129,86.6667 129,75 " fill="rgb( 0, 0, 255 )" stroke-width="0.000000" id="id0000001830" class="rectangle" />
<polygon points="96,86.6667 96,98.3333 107,98.3333 107,86.6667 " fill="rgb( 0, 255, 0 )" stroke-width="0.000000" id="id0000001831" class="rectangle" />
<polygon points="107,86.6667 107,98.3333 118,98.3333 118,86.6667 " fill="rgb( 0, 0, 255 )" stroke-width="0.000000" id="id0000001832" class="rectangle" />
<polygon points="118,86.6667 118,98.3333 129,98.3333 129,86.6667 " fill="rgb( 255, 0, 0 )" stroke-width="0.000000" id="id0000001833" class="rectangle" />
<polygon points="96,98.3333 96,110 107,110 107,98.3333 " fill="rgb( 0, 0, 255 )" stroke-width="0.000000" id="id0000001834" class="rectangle" />
<polygon points="107,98.3333 107,110 118,110 118,98.3333 " fill="rgb( 255, 0, 0 )" stroke-width="0.000000" id="id0000001835" class="rectangle" />
<polygon points="118,98.3333 118,110 129,110 129,98.3333 " fill="rgb( 0, 255, 0 )" stroke-width="0.000000" id="id0000001836" class="rectangle" />
</g>

</g>

<clipPath id="id0000001824clipper" >
<polygon points="30,5 30,180 195,180 195,5 " id="id0000001837" class="rectangle" />
</clipPath>

<polyline points="30,180 30,183 " fill="none" stroke-width="1.000000" stroke="black" id="id0000001838" class="line" />
<text id="id0000001839" transform="matrix(1 0 0 1 30 5)" x="0.000000" y="180.000000" dominant-baseline="hanging" text-anchor="middle" font-size="10.000000px" >
-5
</text>

<polyline points="112.5,180 112.5,183 " fill="none" stroke-width="1.000000" stroke="black" id="id0000001840" class="line" />
<text id="id0000001841" transform="matrix(1 0 0 1 30 5)" x="82.500000" y="180.000000" dominant-baseline="hanging" text-anchor="middle" font-size="10.000000px" >
0
</text>

<polyline points="195,180 195,183 " fill="none" stroke-width="1.000000" stroke="black" id="id0000001842" class="line" />
<text id="id0000001843" transform="matrix(1 0 0 1 30 5)" x="165.000000" y="180.000000" dominant-baseline="hanging" text-anchor="middle" font-size="10.000000px" >
5
</text>

<polyline points="27,180 30,180 " fill="none" stroke-width="1.000000" stroke="black" id="id0000001844" class="line" />
<text id="id0000001845" transform="matrix(1 0 0 1 30 5)" x="-5.000000" y="175.000000" dominant-baseline="middle" text-anchor="end" font-size="10.000000px" >
-5
</text>

<polyline points="27,92.5 30,92.5 " fill="none" stroke-width="1.000000" stroke="black" id="id0000001846" class="line" />
<text id="id0000001847" transform="matrix(1 0 0 1 30 5)" x="-5.000000" y="87.500000" dominant-baseline="middle" text-anchor="end" font-size="10.000000px" >
0
</text>

<polyline points="27,5 30,5 " fill="none" stroke-width="1.000000" stroke="black" id="id0000001848" class="line" />
<text id="id0000001849" transform="matrix(1 0 0 1 30 5)" x="-5.000000" y="0.000000" dominant-baseline="middle" text-anchor="end" font-size="10.000000px" >
5
</text>

<polygon points="30,5 30,180 195,180 195,5 " stroke="black" stroke-width="1.000000" fill="none" id="id0000001850" pointer-events="none" class="border" />
</g>


</g>

</svg>
