<svg viewBox="-26 -1 227 167" height="100%" width="100%" xmlns:xlink="http://www.w3.org/1999/xlink" xmlns="http://www.w3.org/2000/svg" id="id0000000132" >
<g id="id0000000133" >
<g clip-path="url(#id0000000133clipper)" style="pointer-events: all; " vector-effect="non-scaling-stroke" fill="none" class="area" id="id0000000134" >
<g stroke-width="0.000000" id="id0000000136" >
<polygon points="0,150 0,135 20,135 20,150 " fill="rgb( 68, 1, 84 )" stroke-width="0.000000" id="id0000000137" class="rectangle" />
<polygon points="20,150 20,135 40,135 40,150 " fill="rgb( 67, 19, 98 )" stroke-width="0.000000" id="id0000000138" class="rectangle" />
<polygon points="40,150 40,135 60,135 60,150 " fill="rgb( 66, 38, 112 )" stroke-width="0.000000" id="id0000000139" class="rectangle" />
<polygon points="60,150 60,135 80,135 80,150 " fill="rgb( 65, 56, 126 )" stroke-width="0.000000" id="id0000000140" class="rectangle" />
<polygon points="80,150 80,135 100,135 100,150 " fill="rgb( 62, 73, 135 )" stroke-width="0.000000" id="id0000000141" class="rectangle" />
<polygon points="100,150 100,135 120,135 120,150 " fill="rgb( 56, 88, 137 )" stroke-width="0.000000" id="id0000000142" class="rectangle" />
<polygon points="120,150 120,135 140,135 140,150 " fill="rgb( 49, 102, 139 )" stroke-width="0.000000" id="id0000000143" class="rectangle" />
<polygon points="140,150 140,135 160,135 160,150 " fill="rgb( 43, 117, 141 )" stroke-width="0.000000" id="id0000000144" class="rectangle" />
<polygon points="160,150 160,135 180,135 180,150 " fill="rgb( 40, 130, 139 )" stroke-width="0.000000" id="id0000000145" class="rectangle" />
<polygon points="180,150 180,135 200,135 200,150 " fill="rgb( 38, 144, 137 )" stroke-width="0.000000" id="id0000000146" class="rectangle" />
<polygon points="0,135 0,120 20,120 20,135 " fill="rgb( 66, 38, 112 )" stroke-width="0.000000" id="id0000000147" class="rectangle" />
<polygon points="20,135 20,120 40,120 40,135 " fill="rgb( 65, 56, 126 )" stroke-width="0.000000" id="id0000000148" class="rectangle" />
<polygon points="40,135 40,120 60,120 60,135 " fill="rgb( 62, 73, 135 )" stroke-width="0.000000" id="id0000000149" class="rectangle" />
<polygon points="60,135 60,120 80,120 80,135 " fill="rgb( 56, 88, 137 )" stroke-width="0.000000" id="id0000000150" class="rectangle" />
<polygon points="80,135 80,120 100,120 100,135 " fill="rgb( 49, 102, 139 )" stroke-width="0.000000" id="id0000000151" class="rectangle" />
<polygon points="100,135 100,120 120,120 120,135 " fill="rgb( 43, 117, 141 )" stroke-width="0.000000" id="id0000000152" class="rectangle" />
<polygon points="120,135 120,120 140,120 140,135 " fill="rgb( 40, 130, 139 )" stroke-width="0.000000" id="id0000000153" class="rectangle" />
<polygon points="140,135 140,120 160,120 160,135 " fill="rgb( 38, 144, 137 )" stroke-width="0.000000" id="id0000000154" class="rectangle" />
<polygon points="160,135 160,120 180,120 180,135 " fill="rgb( 35, 157, 134 )" stroke-width="0.000000" id="id0000000155" class="rectangle" />
<polygon points="0,120 0,105 20,105 20,120 " fill="rgb( 62, 73, 135 )" stroke-width="0.000000" id="id0000000156" class="rectangle" />
<polygon points="20,120 20,105 40,105 40,120 " fill="rgb( 56, 88, 137 )" stroke-width="0.000000" id="id0000000157" class="rectangle" />
<polygon points="40,120 40,105 60,105 60,120 " fill="rgb( 49, 102, 139 )" stroke-width="0.000000" id="id0000000158" class="rectangle" />
<polygon points="60,120 60,105 80,105 80,120 " fill="rgb( 43, 117, 141 )" stroke-width="0.000000" id="id0000000159" class="rectangle" />
<polygon points="80,120 80,105 100,105 100,120 " fill="rgb( 40, 130, 139 )" stroke-width="0.000000" id="id0000000160" class="rectangle" />
<polygon points="100,120 100,105 120,105 120,120 " fill="rgb( 38, 143, 137 )" stroke-width="0.000000" id="id0000000161" class="rectangle" />
<polygon points="120,120 120,105 140,105 140,120 " fill="rgb( 35, 157, 134 )" stroke-width="0.000000" id="id0000000162" class="rectangle" />
<polygon points="140,120 140,105 160,105 160,120 " fill="rgb( 38, 170, 129 )" stroke-width="0.000000" id="id0000000163" class="rectangle" />
<polygon points="0,105 0,90 20,90 20,105 " fill="rgb( 49, 102, 139 )" stroke-width="0.000000" id="id0000000164" class="rectangle" />
<polygon points="20,105 20,90 40,90 40,105 " fill="rgb( 43, 117, 141 )" stroke-width="0.000000" id="id0000000165" class="rectangle" />
<polygon points="40,105 40,90 60,90 60,105 " fill="rgb( 40, 130, 139 )" stroke-width="0.000000" id="id0000000166" class="rectangle" />
<polygon points="60,105 60,90 80,90 80,105 " fill="rgb( 38, 143, 137 )" stroke-width="0.000000" id="id0000000167" class="rectangle" />
<polygon points="80,105 80,90 100,90 100,105 " fill="rgb( 35, 157, 134 )" stroke-width="0.000000" id="id0000000168" class="rectangle" />
<polygon points="100,105 100,90 120,90 120,105 " fill="rgb( 38, 170, 129 )" stroke-width="0.000000" id="id0000000169" class="rectangle" />
<polygon points="120,105 120,90 140,90 140,105 " fill="rgb( 63, 181, 115 )" stroke-width="0.000000" id="id0000000170" class="rectangle" />
<polygon points="0,90 0,75 20,75 20,90 " fill="rgb( 40, 130, 139 )" stroke-width="0.000000" id="id0000000171" class="rectangle" />
<polygon points="20,90 20,75 40,75 40,90 " fill="rgb( 38, 143, 137 )" stroke-width="0.000000" id="id0000000172" class="rectangle" />
<polygon points="40,90 40,75 60,75 60,90 " fill="rgb( 35, 157, 134 )" stroke-width="0.000000" id="id0000000173" class="rectangle" />
<polygon points="60,90 60,75 80,75 80,90 " fill="rgb( 38, 170, 129 )" stroke-width="0.000000" id="id0000000174" class="rectangle" />
<polygon points="80,90 80,75 100,75 100,90 " fill="rgb( 63, 181, 115 )" stroke-width="0.000000" id="id0000000175" class="rectangle" />
<polygon points="100,90 100,75 120,75 120,90 " fill="rgb( 87, 193, 100 )" stroke-width="0.000000" id="id0000000176" class="rectangle" />
<polygon points="0,75 0,60 20,60 20,75 " fill="rgb( 35, 157, 134 )" stroke-width="0.000000" id="id0000000177" class="rectangle" />
<polygon points="20,75 20,60 40,60 40,75 " fill="rgb( 38, 170, 129 )" stroke-width="0.000000" id="id0000000178" class="rectangle" />
<polygon points="40,75 40,60 60,60 60,75 " fill="rgb( 63, 181, 115 )" stroke-width="0.000000" id="id0000000179" class="rectangle" />
<polygon points="60,75 60,60 80,60 80,75 " fill="rgb( 87, 193, 100 )" stroke-width="0.000000" id="id0000000180" class="rectangle" />
<polygon points="80,75 80,60 100,60 100,75 " fill="rgb( 112, 204, 86 )" stroke-width="0.000000" id="id0000000181" class="rectangle" />
<polygon points="0,60 0,45 20,45 20,60 " fill="rgb( 63, 181, 115 )" stroke-width="0.000000" id="id0000000182" class="rectangle" />
<polygon points="20,60 20,45 40,45 40,60 " fill="rgb( 87, 193, 100 )" stroke-width="0.000000" id="id0000000183" class="rectangle" />
<polygon points="40,60 40,45 60,45 60,60 " fill="rgb( 112, 204, 86 )" stroke-width="0.000000" id="id0000000184" class="rectangle" />
<polygon points="60,60 60,45 80,45 80,60 " fill="rgb( 143, 212, 73 )" stroke-width="0.000000" id="id0000000185" class="rectangle" />
<polygon points="0,45 0,30 20,30 20,45 " fill="rgb( 112, 204, 86 )" stroke-width="0.000000" id="id0000000186" class="rectangle" />
<polygon points="20,45 20,30 40,30 40,45 " fill="rgb( 143, 212, 73 )" stroke-width="0.000000" id="id0000000187" class="rectangle" />
<polygon points="40,45 40,30 60,30 60,45 " fill="rgb( 180, 218, 61 )" stroke-width="0.000000" id="id0000000188" class="rectangle" />
<polygon points="0,30 0,15 20,15 20,30 " fill="rgb( 180, 218, 61 )" stroke-width="0.000000" id="id0000000189" class="rectangle" />
<polygon points="20,30 20,15 40,15 40,30 " fill="rgb( 216, 224, 49 )" stroke-width="0.000000" id="id0000000190" class="rectangle" />
<polygon points="0,15 0,0 20,0 20,15 " fill="rgb( 253, 231, 37 )" stroke-width="0.000000" id="id0000000191" class="rectangle" />
</g>

</g>

<clipPath id="id0000000133clipper" >
<polygon points="0,0 0,150 200,150 200,0 " id="id0000000192" class="rectangle" />
</clipPath>

<polyline points="10,150 10,153 " fill="none" stroke-width="1.000000" stroke="black" id="id0000000193" class="line" />
<text id="id0000000194" transform="matrix(1 0 0 1 0 0)" x="10.000000" y="155.000000" dominant-baseline="hanging" text-anchor="middle" font-size="10.000000px" >
0
</text>

<polyline points="50,150 50,153 " fill="none" stroke-width="1.000000" stroke="black" id="id0000000195" class="line" />
<text id="id0000000196" transform="matrix(1 0 0 1 0 0)" x="50.000000" y="155.000000" dominant-baseline="hanging" text-anchor="middle" font-size="10.000000px" >
2
</text>

<polyline points="90,150 90,153 " fill="none" stroke-width="1.000000" stroke="black" id="id0000000197" class="line" />
<text id="id0000000198" transform="matrix(1 0 0 1 0 0)" x="90.000000" y="155.000000" dominant-baseline="hanging" text-anchor="middle" font-size="10.000000px" >
4
</text>

<polyline points="130,150 130,153 " fill="none" stroke-width="1.000000" stroke="black" id="id0000000199" class="line" />
<text id="id0000000200" transform="matrix(1 0 0 1 0 0)" x="130.000000" y="155.000000" dominant-baseline="hanging" text-anchor="middle" font-size="10.000000px" >
6
</text>

<polyline points="170,150 170,153 " fill="none" stroke-width="1.000000" stroke="black" id="id0000000201" class="line" />
<text id="id0000000202" transform="matrix(1 0 0 1 0 0)" x="170.000000" y="155.000000" dominant-baseline="hanging" text-anchor="middle" font-size="10.000000px" >
8
</text>

<polyline points="-3,142.5 0,142.5 " fill="none" stroke-width="1.000000" stroke="black" id="id0000000203" class="line" />
<text id="id0000000204" transform="matrix(1 0 0 1 0 0)" x="-5.000000" y="142.500000" dominant-baseline="middle" text-anchor="end" font-size="10.000000px" >
0
</text>

<polyline points="-3,112.5 0,112.5 " fill="none" stroke-width="1.000000" stroke="black" id="id0000000205" class="line" />
<text id="id0000000206" transform="matrix(1 0 0 1 0 0)" x="-5.000000" y="112.500000" dominant-baseline="middle" text-anchor="end" font-size="10.000000px" >
2
</text>

<polyline points="-3,82.5 0,82.5 " fill="none" stroke-width="1.000000" stroke="black" id="id0000000207" class="line" />
<text id="id0000000208" transform="matrix(1 0 0 1 0 0)" x="-5.000000" y="82.500000" dominant-baseline="middle" text-anchor="end" font-size="10.000000px" >
4
</text>

<polyline points="-3,52.5 0,52.5 " fill="none" stroke-width="1.000000" stroke="black" id="id0000000209" class="line" />
<text id="id0000000210" transform="matrix(1 0 0 1 0 0)" x="-5.000000" y="52.500000" dominant-baseline="middle" text-anchor="end" font-size="10.000000px" >
6
</text>

<polyline points="-3,22.5 0,22.5 " fill="none" stroke-width="1.000000" stroke="black" id="id0000000211" class="line" />
<text id="id0000000212" transform="matrix(1 0 0 1 0 0)" x="-5.000000" y="22.500000" dominant-baseline="middle" text-anchor="end" font-size="10.000000px" >
8
</text>

<polygon points="0,0 0,150 200,150 200,0 " stroke="black" stroke-width="1.000000" fill="none" id="id0000000213" pointer-events="none" class="border" />

</g>

</svg>
