<svg viewBox="0 0 200 200" height="100%" width="100%" xmlns:xlink="http://www.w3.org/1999/xlink" xmlns="http://www.w3.org/2000/svg" id="id0000001789" >
<g id="id0000001790" >
<clipPath id="id0000001790clipper" >
<polygon points="36,1 36,178 199,178 199,1 " id="id0000001794" class="rectangle" />
</clipPath>

<g clip-path="url(#id0000001790clipper)" id="id0000001792" >
<g stroke-width="0.000000" id="id0000001793" >
<polygon points="101.2,71.8 101.2,83.6 112.067,83.6 112.067,71.8 " fill="rgb( 255, 0, 0 )" stroke-width="0.000000" id="id0000001795" class="rectangle" />
<polygon points="112.067,71.8 112.067,83.6 122.933,83.6 122.933,71.8 " fill="rgb( 0, 255, 0 )" stroke-width="0.000000" id="id0000001796" class="rectangle" />
<polygon points="122.933,71.8 122.933,83.6 133.8,83.6 133.8,71.8 " fill="rgb( 0, 0, 255 )" stroke-width="0.000000" id="id0000001797" class="rectangle" />
<polygon points="101.2,83.6 101.2,95.4 112.067,95.4 112.067,83.6 " fill="rgb( 0, 255, 0 )" stroke-width="0.000000" id="id0000001798" class="rectangle" />
<polygon points="112.067,83.6 112.067,95.4 122.933,95.4 122.933,83.6 " fill="rgb( 0, 0, 255 )" stroke-width="0.000000" id="id0000001799" class="rectangle" />
<polygon points="122.933,83.6 122.933,95.4 133.8,95.4 133.8,83.6 " fill="rgb( 255, 0, 0 )" stroke-width="0.000000" id="id0000001800" class="rectangle" />
<polygon points="101.2,95.4 101.2,107.2 112.067,107.2 112.067,95.4 " fill="rgb( 0, 0, 255 )" stroke-width="0.000000" id="id0000001801" class="rectangle" />
<polygon points="112.067,95.4 112.067,107.2 122.933,107.2 122.933,95.4 " fill="rgb( 255, 0, 0 )" stroke-width="0.000000" id="id0000001802" class="rectangle" />
<polygon points="122.933,95.4 122.933,107.2 133.8,107.2 133.8,95.4 " fill="rgb( 0, 255, 0 )" stroke-width="0.000000" id="id0000001803" class="rectangle" />
</g>

</g>

<polygon points="36,1 36,178 199,178 199,1 " stroke="black" stroke-width="1.000000" fill="none" id="id0000001804" pointer-events="none" class="rectangle" />
<polyline points="117.5,178 117.5,181 " fill="none" stroke-width="1.000000" stroke="black" id="id0000001805" class="line" />
<text id="id0000001806" transform="matrix(1 0 0 1 36 1)" x="81.500000" y="182.000000" dominant-baseline="hanging" text-anchor="middle" font-size="14.000000px" >
0
</text>

<polyline points="33,89.5 36,89.5 " fill="none" stroke-width="1.000000" stroke="black" id="id0000001807" class="line" />
<text id="id0000001808" transform="matrix(1 0 0 1 36 1)" x="-5.000000" y="88.500000" dominant-baseline="middle" text-anchor="end" font-size="14.000000px" >
0
</text>


</g>

</svg>
