<svg viewBox="0 0 200 200" height="100%" width="100%" xmlns:xlink="http://www.w3.org/1999/xlink" xmlns="http://www.w3.org/2000/svg" id="id0000000000" >
<g id="id0000000001" >
<g id="id0000000002" >
<g clip-path="url(#id0000000002clipper)" style="pointer-events: all; " vector-effect="non-scaling-stroke" fill="none" class="area" id="id0000000003" >
<g stroke-width="0.000000" id="id0000000005" >
<polygon points="30,180 30,121.667 85,121.667 85,180 " fill="rgb( 68, 1, 84 )" stroke-width="0.000000" id="id0000000006" class="rectangle" />
<polygon points="85,180 85,121.667 140,121.667 140,180 " fill="rgb( 66, 42, 115 )" stroke-width="0.000000" id="id0000000007" class="rectangle" />
<polygon points="140,180 140,121.667 195,121.667 195,180 " fill="rgb( 59, 81, 136 )" stroke-width="0.000000" id="id0000000008" class="rectangle" />
<polygon points="30,121.667 30,63.3333 85,63.3333 85,121.667 " fill="rgb( 44, 113, 141 )" stroke-width="0.000000" id="id0000000009" class="rectangle" />
<polygon points="85,121.667 85,63.3333 140,63.3333 140,121.667 " fill="rgb( 38, 144, 137 )" stroke-width="0.000000" id="id0000000010" class="rectangle" />
<polygon points="140,121.667 140,63.3333 195,63.3333 195,121.667 " fill="rgb( 45, 173, 125 )" stroke-width="0.000000" id="id0000000011" class="rectangle" />
<polygon points="30,63.3333 30,5 85,5 85,63.3333 " fill="rgb( 100, 198, 93 )" stroke-width="0.000000" id="id0000000012" class="rectangle" />
<polygon points="85,63.3333 85,5 140,5 140,63.3333 " fill="rgb( 171, 217, 64 )" stroke-width="0.000000" id="id0000000013" class="rectangle" />
<polygon points="140,63.3333 140,5 195,5 195,63.3333 " fill="rgb( 253, 231, 37 )" stroke-width="0.000000" id="id0000000014" class="rectangle" />
</g>

</g>

<clipPath id="id0000000002clipper" >
<polygon points="30,5 30,180 195,180 195,5 " id="id0000000015" class="rectangle" />
</clipPath>

<polyline points="57.5,180 57.5,183 " fill="none" stroke-width="1.000000" stroke="black" id="id0000000016" class="line" />
<text id="id0000000017" transform="matrix(1 0 0 1 30 5)" x="27.500000" y="180.000000" dominant-baseline="hanging" text-anchor="middle" font-size="10.000000px" >
0
</text>

<polyline points="112.5,180 112.5,183 " fill="none" stroke-width="1.000000" stroke="black" id="id0000000018" class="line" />
<text id="id0000000019" transform="matrix(1 0 0 1 30 5)" x="82.500000" y="180.000000" dominant-baseline="hanging" text-anchor="middle" font-size="10.000000px" >
1
</text>

<polyline points="167.5,180 167.5,183 " fill="none" stroke-width="1.000000" stroke="black" id="id0000000020" class="line" />
<text id="id0000000021" transform="matrix(1 0 0 1 30 5)" x="137.500000" y="180.000000" dominant-baseline="hanging" text-anchor="middle" font-size="10.000000px" >
2
</text>

<polyline points="27,150.833 30,150.833 " fill="none" stroke-width="1.000000" stroke="black" id="id0000000022" class="line" />
<text id="id0000000023" transform="matrix(1 0 0 1 30 5)" x="-5.000000" y="145.833328" dominant-baseline="middle" text-anchor="end" font-size="10.000000px" >
0
</text>

<polyline points="27,92.5 30,92.5 " fill="none" stroke-width="1.000000" stroke="black" id="id0000000024" class="line" />
<text id="id0000000025" transform="matrix(1 0 0 1 30 5)" x="-5.000000" y="87.500000" dominant-baseline="middle" text-anchor="end" font-size="10.000000px" >
1
</text>

<polyline points="27,34.1667 30,34.1667 " fill="none" stroke-width="1.000000" stroke="black" id="id0000000026" class="line" />
<text id="id0000000027" transform="matrix(1 0 0 1 30 5)" x="-5.000000" y="29.166672" dominant-baseline="middle" text-anchor="end" font-size="10.000000px" >
2
</text>

<polygon points="30,5 30,180 195,180 195,5 " stroke="black" stroke-width="1.000000" fill="none" id="id0000000028" pointer-events="none" class="border" />
</g>


</g>

</svg>
