<svg viewBox="0 0 200 200" height="100%" width="100%" xmlns:xlink="http://www.w3.org/1999/xlink" xmlns="http://www.w3.org/2000/svg" id="id0000001815" >
<g id="id0000001816" >
<clipPath id="id0000001816clipper" >
<polygon points="36,1 36,178 199,178 199,1 " id="id0000001819" class="rectangle" />
</clipPath>

<g clip-path="url(#id0000001816clipper)" id="id0000001818" >
<g stroke-width="0.000000" id="id0000001820" >
<polygon points="101.2,71.8 101.2,83.6 112.067,83.6 112.067,71.8 " fill="rgb( 255, 0, 0 )" stroke-width="0.000000" id="id0000001821" class="rectangle" />
<polygon points="112.067,71.8 112.067,83.6 122.933,83.6 122.933,71.8 " fill="rgb( 0, 255, 0 )" stroke-width="0.000000" id="id0000001822" class="rectangle" />
<polygon points="122.933,71.8 122.933,83.6 133.8,83.6 133.8,71.8 " fill="rgb( 0, 0, 255 )" stroke-width="0.000000" id="id0000001823" class="rectangle" />
<polygon points="101.2,83.6 101.2,95.4 112.067,95.4 112.067,83.6 " fill="rgb( 0, 255, 0 )" stroke-width="0.000000" id="id0000001824" class="rectangle" />
<polygon points="112.067,83.6 112.067,95.4 122.933,95.4 122.933,83.6 " fill="rgb( 0, 0, 255 )" stroke-width="0.000000" id="id0000001825" class="rectangle" />
<polygon points="122.933,83.6 122.933,95.4 133.8,95.4 133.8,83.6 " fill="rgb( 255, 0, 0 )" stroke-width="0.000000" id="id0000001826" class="rectangle" />
<polygon points="101.2,95.4 101.2,107.2 112.067,107.2 112.067,95.4 " fill="rgb( 0, 0, 255 )" stroke-width="0.000000" id="id0000001827" class="rectangle" />
<polygon points="112.067,95.4 112.067,107.2 122.933,107.2 122.933,95.4 " fill="rgb( 255, 0, 0 )" stroke-width="0.000000" id="id0000001828" class="rectangle" />
<polygon points="122.933,95.4 122.933,107.2 133.8,107.2 133.8,95.4 " fill="rgb( 0, 255, 0 )" stroke-width="0.000000" id="id0000001829" class="rectangle" />
</g>

</g>

<polygon points="36,1 36,178 199,178 199,1 " stroke="black" stroke-width="1.000000" fill="none" id="id0000001830" pointer-events="none" class="rectangle" />
<polyline points="36,178 36,181 " fill="none" stroke-width="1.000000" stroke="black" id="id0000001831" class="line" />
<text id="id0000001832" transform="matrix(1 0 0 1 36 1)" x="0.000000" y="182.000000" dominant-baseline="hanging" text-anchor="middle" font-size="14.000000px" >
-5
</text>

<polyline points="117.5,178 117.5,181 " fill="none" stroke-width="1.000000" stroke="black" id="id0000001833" class="line" />
<text id="id0000001834" transform="matrix(1 0 0 1 36 1)" x="81.500000" y="182.000000" dominant-baseline="hanging" text-anchor="middle" font-size="14.000000px" >
0
</text>

<polyline points="199,178 199,181 " fill="none" stroke-width="1.000000" stroke="black" id="id0000001835" class="line" />
<text id="id0000001836" transform="matrix(1 0 0 1 36 1)" x="163.000000" y="182.000000" dominant-baseline="hanging" text-anchor="middle" font-size="14.000000px" >
5
</text>

<polyline points="33,178 36,178 " fill="none" stroke-width="1.000000" stroke="black" id="id0000001837" class="line" />
<text id="id0000001838" transform="matrix(1 0 0 1 36 1)" x="-5.000000" y="177.000000" dominant-baseline="middle" text-anchor="end" font-size="14.000000px" >
-5
</text>

<polyline points="33,89.5 36,89.5 " fill="none" stroke-width="1.000000" stroke="black" id="id0000001839" class="line" />
<text id="id0000001840" transform="matrix(1 0 0 1 36 1)" x="-5.000000" y="88.500000" dominant-baseline="middle" text-anchor="end" font-size="14.000000px" >
0
</text>

<polyline points="33,1 36,1 " fill="none" stroke-width="1.000000" stroke="black" id="id0000001841" class="line" />
<text id="id0000001842" transform="matrix(1 0 0 1 36 1)" x="-5.000000" y="0.000000" dominant-baseline="middle" text-anchor="end" font-size="14.000000px" >
5
</text>


</g>

</svg>
