<svg viewBox="0 0 640 480" height="100%" width="100%" xmlns:xlink="http://www.w3.org/1999/xlink" xmlns="http://www.w3.org/2000/svg" id="id0000000128" >
<g id="id0000000129" >
<clipPath id="id0000000129clipper" >
<polygon points="36,1 36,458 639,458 639,1 " id="id0000000134" class="rectangle" />
</clipPath>

<g clip-path="url(#id0000000129clipper)" id="id0000000131" >
<g id="id0000000132" >
<polygon points="45.5211,458 45.5211,319.515 83.6053,319.515 83.6053,458 " fill="#1f77b4" stroke-width="0.000000" id="id0000000135" fill-opacity="1.000000" class="rectangle" />
<polygon points="172.468,458 172.468,181.03 210.553,181.03 210.553,458 " fill="#1f77b4" stroke-width="0.000000" id="id0000000136" fill-opacity="1.000000" class="rectangle" />
<polygon points="299.416,458 299.416,42.5455 337.5,42.5455 337.5,458 " fill="#1f77b4" stroke-width="0.000000" id="id0000000137" fill-opacity="1.000000" class="rectangle" />
<polygon points="426.363,458 426.363,181.03 464.447,181.03 464.447,458 " fill="#1f77b4" stroke-width="0.000000" id="id0000000138" fill-opacity="1.000000" class="rectangle" />
<polygon points="553.31,458 553.31,319.515 591.395,319.515 591.395,458 " fill="#1f77b4" stroke-width="0.000000" id="id0000000139" fill-opacity="1.000000" class="rectangle" />
</g>

<g id="id0000000133" >
<polygon points="83.6053,458 83.6053,181.03 121.689,181.03 121.689,458 " fill="#ff7f0e" stroke-width="0.000000" id="id0000000140" fill-opacity="1.000000" class="rectangle" />
<polygon points="210.553,458 210.553,319.515 248.637,319.515 248.637,458 " fill="#ff7f0e" stroke-width="0.000000" id="id0000000141" fill-opacity="1.000000" class="rectangle" />
<polygon points="337.5,458 337.5,181.03 375.584,181.03 375.584,458 " fill="#ff7f0e" stroke-width="0.000000" id="id0000000142" fill-opacity="1.000000" class="rectangle" />
<polygon points="464.447,458 464.447,319.515 502.532,319.515 502.532,458 " fill="#ff7f0e" stroke-width="0.000000" id="id0000000143" fill-opacity="1.000000" class="rectangle" />
<polygon points="591.395,458 591.395,181.03 629.479,181.03 629.479,458 " fill="#ff7f0e" stroke-width="0.000000" id="id0000000144" fill-opacity="1.000000" class="rectangle" />
</g>

</g>

<polygon points="36,1 36,458 639,458 639,1 " stroke="black" stroke-width="1.000000" fill="none" id="id0000000145" pointer-events="none" class="rectangle" />
<polyline points="83.6053,458 83.6053,461 " fill="none" stroke-width="1.000000" stroke="black" id="id0000000146" class="line" />
<text id="id0000000147" transform="matrix(1 0 0 1 36 1)" x="47.605263" y="462.000000" dominant-baseline="hanging" text-anchor="middle" font-size="14.000000px" >
0
</text>

<polyline points="210.553,458 210.553,461 " fill="none" stroke-width="1.000000" stroke="black" id="id0000000148" class="line" />
<text id="id0000000149" transform="matrix(1 0 0 1 36 1)" x="174.552628" y="462.000000" dominant-baseline="hanging" text-anchor="middle" font-size="14.000000px" >
1
</text>

<polyline points="337.5,458 337.5,461 " fill="none" stroke-width="1.000000" stroke="black" id="id0000000150" class="line" />
<text id="id0000000151" transform="matrix(1 0 0 1 36 1)" x="301.500000" y="462.000000" dominant-baseline="hanging" text-anchor="middle" font-size="14.000000px" >
2
</text>

<polyline points="464.447,458 464.447,461 " fill="none" stroke-width="1.000000" stroke="black" id="id0000000152" class="line" />
<text id="id0000000153" transform="matrix(1 0 0 1 36 1)" x="428.447357" y="462.000000" dominant-baseline="hanging" text-anchor="middle" font-size="14.000000px" >
3
</text>

<polyline points="591.395,458 591.395,461 " fill="none" stroke-width="1.000000" stroke="black" id="id0000000154" class="line" />
<text id="id0000000155" transform="matrix(1 0 0 1 36 1)" x="555.394714" y="462.000000" dominant-baseline="hanging" text-anchor="middle" font-size="14.000000px" >
4
</text>

<polyline points="33,458 36,458 " fill="none" stroke-width="1.000000" stroke="black" id="id0000000156" class="line" />
<text id="id0000000157" transform="matrix(1 0 0 1 36 1)" x="-5.000000" y="457.000000" dominant-baseline="middle" text-anchor="end" font-size="14.000000px" >
0
</text>

<polyline points="33,388.758 36,388.758 " fill="none" stroke-width="1.000000" stroke="black" id="id0000000158" class="line" />
<text id="id0000000159" transform="matrix(1 0 0 1 36 1)" x="-5.000000" y="387.757568" dominant-baseline="middle" text-anchor="end" font-size="14.000000px" >
0.5
</text>

<polyline points="33,319.515 36,319.515 " fill="none" stroke-width="1.000000" stroke="black" id="id0000000160" class="line" />
<text id="id0000000161" transform="matrix(1 0 0 1 36 1)" x="-5.000000" y="318.515137" dominant-baseline="middle" text-anchor="end" font-size="14.000000px" >
1
</text>

<polyline points="33,250.273 36,250.273 " fill="none" stroke-width="1.000000" stroke="black" id="id0000000162" class="line" />
<text id="id0000000163" transform="matrix(1 0 0 1 36 1)" x="-5.000000" y="249.272736" dominant-baseline="middle" text-anchor="end" font-size="14.000000px" >
1.5
</text>

<polyline points="33,181.03 36,181.03 " fill="none" stroke-width="1.000000" stroke="black" id="id0000000164" class="line" />
<text id="id0000000165" transform="matrix(1 0 0 1 36 1)" x="-5.000000" y="180.030304" dominant-baseline="middle" text-anchor="end" font-size="14.000000px" >
2
</text>

<polyline points="33,111.788 36,111.788 " fill="none" stroke-width="1.000000" stroke="black" id="id0000000166" class="line" />
<text id="id0000000167" transform="matrix(1 0 0 1 36 1)" x="-5.000000" y="110.787903" dominant-baseline="middle" text-anchor="end" font-size="14.000000px" >
2.5
</text>

<polyline points="33,42.5455 36,42.5455 " fill="none" stroke-width="1.000000" stroke="black" id="id0000000168" class="line" />
<text id="id0000000169" transform="matrix(1 0 0 1 36 1)" x="-5.000000" y="41.545471" dominant-baseline="middle" text-anchor="end" font-size="14.000000px" >
3
</text>


</g>

</svg>
