<svg viewBox="0 0 200 150" height="100%" width="100%" xmlns:xlink="http://www.w3.org/1999/xlink" xmlns="http://www.w3.org/2000/svg" id="id0000000215" >
<g id="id0000000216" >
<g id="id0000000217" >
<g clip-path="url(#id0000000217clipper)" style="pointer-events: all; " vector-effect="non-scaling-stroke" fill="none" class="area" id="id0000000218" >
<g id="id0000000220" >
<polygon points="30.8168,130 30.8168,106.121 34.0842,106.121 34.0842,130 " fill="#1f77b4" stroke-width="0.000000" id="id0000000221" fill-opacity="0.500000" class="rectangle" />
<polygon points="34.0842,130 34.0842,99.6437 37.3515,99.6437 37.3515,130 " fill="#1f77b4" stroke-width="0.000000" id="id0000000222" fill-opacity="0.500000" class="rectangle" />
<polygon points="37.3515,130 37.3515,92.1737 40.6188,92.1737 40.6188,130 " fill="#1f77b4" stroke-width="0.000000" id="id0000000223" fill-opacity="0.500000" class="rectangle" />
<polygon points="40.6188,130 40.6188,83.7989 43.8861,83.7989 43.8861,130 " fill="#1f77b4" stroke-width="0.000000" id="id0000000224" fill-opacity="0.500000" class="rectangle" />
<polygon points="43.8861,130 43.8861,74.6872 47.1535,74.6872 47.1535,130 " fill="#1f77b4" stroke-width="0.000000" id="id0000000225" fill-opacity="0.500000" class="rectangle" />
<polygon points="47.1535,130 47.1535,65.0899 50.4208,65.0899 50.4208,130 " fill="#1f77b4" stroke-width="0.000000" id="id0000000226" fill-opacity="0.500000" class="rectangle" />
<polygon points="50.4208,130 50.4208,55.3356 53.6881,55.3356 53.6881,130 " fill="#1f77b4" stroke-width="0.000000" id="id0000000227" fill-opacity="0.500000" class="rectangle" />
<polygon points="53.6881,130 53.6881,45.8161 56.9554,45.8161 56.9554,130 " fill="#1f77b4" stroke-width="0.000000" id="id0000000228" fill-opacity="0.500000" class="rectangle" />
<polygon points="56.9554,130 56.9554,36.9624 60.2228,36.9624 60.2228,130 " fill="#1f77b4" stroke-width="0.000000" id="id0000000229" fill-opacity="0.500000" class="rectangle" />
<polygon points="60.2228,130 60.2228,29.2136 63.4901,29.2136 63.4901,130 " fill="#1f77b4" stroke-width="0.000000" id="id0000000230" fill-opacity="0.500000" class="rectangle" />
<polygon points="63.4901,130 63.4901,22.9813 66.7574,22.9813 66.7574,130 " fill="#1f77b4" stroke-width="0.000000" id="id0000000231" fill-opacity="0.500000" class="rectangle" />
<polygon points="66.7574,130 66.7574,18.6138 70.0247,18.6138 70.0247,130 " fill="#1f77b4" stroke-width="0.000000" id="id0000000232" fill-opacity="0.500000" class="rectangle" />
<polygon points="70.0247,130 70.0247,16.3636 73.2921,16.3636 73.2921,130 " fill="#1f77b4" stroke-width="0.000000" id="id0000000233" fill-opacity="0.500000" class="rectangle" />
<polygon points="73.2921,130 73.2921,16.3636 76.5594,16.3636 76.5594,130 " fill="#1f77b4" stroke-width="0.000000" id="id0000000234" fill-opacity="0.500000" class="rectangle" />
<polygon points="76.5594,130 76.5594,18.6138 79.8267,18.6138 79.8267,130 " fill="#1f77b4" stroke-width="0.000000" id="id0000000235" fill-opacity="0.500000" class="rectangle" />
<polygon points="79.8267,130 79.8267,22.9813 83.0941,22.9813 83.0941,130 " fill="#1f77b4" stroke-width="0.000000" id="id0000000236" fill-opacity="0.500000" class="rectangle" />
<polygon points="83.0941,130 83.0941,29.2136 86.3614,29.2136 86.3614,130 " fill="#1f77b4" stroke-width="0.000000" id="id0000000237" fill-opacity="0.500000" class="rectangle" />
<polygon points="86.3614,130 86.3614,36.9624 89.6287,36.9624 89.6287,130 " fill="#1f77b4" stroke-width="0.000000" id="id0000000238" fill-opacity="0.500000" class="rectangle" />
<polygon points="89.6287,130 89.6287,45.8161 92.896,45.8161 92.896,130 " fill="#1f77b4" stroke-width="0.000000" id="id0000000239" fill-opacity="0.500000" class="rectangle" />
<polygon points="92.896,130 92.896,55.3356 96.1634,55.3356 96.1634,130 " fill="#1f77b4" stroke-width="0.000000" id="id0000000240" fill-opacity="0.500000" class="rectangle" />
<polygon points="96.1634,130 96.1634,65.0899 99.4307,65.0899 99.4307,130 " fill="#1f77b4" stroke-width="0.000000" id="id0000000241" fill-opacity="0.500000" class="rectangle" />
<polygon points="99.4307,130 99.4307,74.6872 102.698,74.6872 102.698,130 " fill="#1f77b4" stroke-width="0.000000" id="id0000000242" fill-opacity="0.500000" class="rectangle" />
<polygon points="102.698,130 102.698,83.7989 105.965,83.7989 105.965,130 " fill="#1f77b4" stroke-width="0.000000" id="id0000000243" fill-opacity="0.500000" class="rectangle" />
<polygon points="105.965,130 105.965,92.1737 109.233,92.1737 109.233,130 " fill="#1f77b4" stroke-width="0.000000" id="id0000000244" fill-opacity="0.500000" class="rectangle" />
<polygon points="109.233,130 109.233,99.6437 112.5,99.6437 112.5,130 " fill="#1f77b4" stroke-width="0.000000" id="id0000000245" fill-opacity="0.500000" class="rectangle" />
<polygon points="112.5,130 112.5,106.121 115.767,106.121 115.767,130 " fill="#1f77b4" stroke-width="0.000000" id="id0000000246" fill-opacity="0.500000" class="rectangle" />
<polygon points="115.767,130 115.767,111.588 119.035,111.588 119.035,130 " fill="#1f77b4" stroke-width="0.000000" id="id0000000247" fill-opacity="0.500000" class="rectangle" />
<polygon points="119.035,130 119.035,116.084 122.302,116.084 122.302,130 " fill="#1f77b4" stroke-width="0.000000" id="id0000000248" fill-opacity="0.500000" class="rectangle" />
<polygon points="122.302,130 122.302,119.691 125.569,119.691 125.569,130 " fill="#1f77b4" stroke-width="0.000000" id="id0000000249" fill-opacity="0.500000" class="rectangle" />
<polygon points="125.569,130 125.569,122.514 128.837,122.514 128.837,130 " fill="#1f77b4" stroke-width="0.000000" id="id0000000250" fill-opacity="0.500000" class="rectangle" />
<polygon points="128.837,130 128.837,124.672 132.104,124.672 132.104,130 " fill="#1f77b4" stroke-width="0.000000" id="id0000000251" fill-opacity="0.500000" class="rectangle" />
<polygon points="132.104,130 132.104,126.283 135.371,126.283 135.371,130 " fill="#1f77b4" stroke-width="0.000000" id="id0000000252" fill-opacity="0.500000" class="rectangle" />
<polygon points="135.371,130 135.371,127.458 138.639,127.458 138.639,130 " fill="#1f77b4" stroke-width="0.000000" id="id0000000253" fill-opacity="0.500000" class="rectangle" />
<polygon points="138.639,130 138.639,128.296 141.906,128.296 141.906,130 " fill="#1f77b4" stroke-width="0.000000" id="id0000000254" fill-opacity="0.500000" class="rectangle" />
<polygon points="141.906,130 141.906,128.88 145.173,128.88 145.173,130 " fill="#1f77b4" stroke-width="0.000000" id="id0000000255" fill-opacity="0.500000" class="rectangle" />
<polygon points="145.173,130 145.173,129.279 148.441,129.279 148.441,130 " fill="#1f77b4" stroke-width="0.000000" id="id0000000256" fill-opacity="0.500000" class="rectangle" />
<polygon points="148.441,130 148.441,129.545 151.708,129.545 151.708,130 " fill="#1f77b4" stroke-width="0.000000" id="id0000000257" fill-opacity="0.500000" class="rectangle" />
<polygon points="151.708,130 151.708,129.718 154.975,129.718 154.975,130 " fill="#1f77b4" stroke-width="0.000000" id="id0000000258" fill-opacity="0.500000" class="rectangle" />
<polygon points="154.975,130 154.975,129.829 158.243,129.829 158.243,130 " fill="#1f77b4" stroke-width="0.000000" id="id0000000259" fill-opacity="0.500000" class="rectangle" />
<polygon points="158.243,130 158.243,129.898 161.51,129.898 161.51,130 " fill="#1f77b4" stroke-width="0.000000" id="id0000000260" fill-opacity="0.500000" class="rectangle" />
<polygon points="161.51,130 161.51,129.941 164.777,129.941 164.777,130 " fill="#1f77b4" stroke-width="0.000000" id="id0000000261" fill-opacity="0.500000" class="rectangle" />
<polygon points="164.777,130 164.777,129.966 168.045,129.966 168.045,130 " fill="#1f77b4" stroke-width="0.000000" id="id0000000262" fill-opacity="0.500000" class="rectangle" />
<polygon points="168.045,130 168.045,129.981 171.312,129.981 171.312,130 " fill="#1f77b4" stroke-width="0.000000" id="id0000000263" fill-opacity="0.500000" class="rectangle" />
<polygon points="171.312,130 171.312,129.99 174.579,129.99 174.579,130 " fill="#1f77b4" stroke-width="0.000000" id="id0000000264" fill-opacity="0.500000" class="rectangle" />
<polygon points="174.579,130 174.579,129.994 177.847,129.994 177.847,130 " fill="#1f77b4" stroke-width="0.000000" id="id0000000265" fill-opacity="0.500000" class="rectangle" />
<polygon points="177.847,130 177.847,129.997 181.114,129.997 181.114,130 " fill="#1f77b4" stroke-width="0.000000" id="id0000000266" fill-opacity="0.500000" class="rectangle" />
<polygon points="181.114,130 181.114,129.998 184.381,129.998 184.381,130 " fill="#1f77b4" stroke-width="0.000000" id="id0000000267" fill-opacity="0.500000" class="rectangle" />
<polygon points="184.381,130 184.381,129.999 187.649,129.999 187.649,130 " fill="#1f77b4" stroke-width="0.000000" id="id0000000268" fill-opacity="0.500000" class="rectangle" />
<polygon points="187.649,130 187.649,130 190.916,130 190.916,130 " fill="#1f77b4" stroke-width="0.000000" id="id0000000269" fill-opacity="0.500000" class="rectangle" />
<polygon points="190.916,130 190.916,130 194.183,130 194.183,130 " fill="#1f77b4" stroke-width="0.000000" id="id0000000270" fill-opacity="0.500000" class="rectangle" />
</g>

<g id="id0000000271" >
<polygon points="30.8168,130 30.8168,130 34.0842,130 34.0842,130 " fill="#ff7f0e" stroke-width="0.000000" id="id0000000272" fill-opacity="0.500000" class="rectangle" />
<polygon points="34.0842,130 34.0842,130 37.3515,130 37.3515,130 " fill="#ff7f0e" stroke-width="0.000000" id="id0000000273" fill-opacity="0.500000" class="rectangle" />
<polygon points="37.3515,130 37.3515,130 40.6188,130 40.6188,130 " fill="#ff7f0e" stroke-width="0.000000" id="id0000000274" fill-opacity="0.500000" class="rectangle" />
<polygon points="40.6188,130 40.6188,129.999 43.8861,129.999 43.8861,130 " fill="#ff7f0e" stroke-width="0.000000" id="id0000000275" fill-opacity="0.500000" class="rectangle" />
<polygon points="43.8861,130 43.8861,129.999 47.1535,129.999 47.1535,130 " fill="#ff7f0e" stroke-width="0.000000" id="id0000000276" fill-opacity="0.500000" class="rectangle" />
<polygon points="47.1535,130 47.1535,129.998 50.4208,129.998 50.4208,130 " fill="#ff7f0e" stroke-width="0.000000" id="id0000000277" fill-opacity="0.500000" class="rectangle" />
<polygon points="50.4208,130 50.4208,129.996 53.6881,129.996 53.6881,130 " fill="#ff7f0e" stroke-width="0.000000" id="id0000000278" fill-opacity="0.500000" class="rectangle" />
<polygon points="53.6881,130 53.6881,129.993 56.9554,129.993 56.9554,130 " fill="#ff7f0e" stroke-width="0.000000" id="id0000000279" fill-opacity="0.500000" class="rectangle" />
<polygon points="56.9554,130 56.9554,129.987 60.2228,129.987 60.2228,130 " fill="#ff7f0e" stroke-width="0.000000" id="id0000000280" fill-opacity="0.500000" class="rectangle" />
<polygon points="60.2228,130 60.2228,129.976 63.4901,129.976 63.4901,130 " fill="#ff7f0e" stroke-width="0.000000" id="id0000000281" fill-opacity="0.500000" class="rectangle" />
<polygon points="63.4901,130 63.4901,129.959 66.7574,129.959 66.7574,130 " fill="#ff7f0e" stroke-width="0.000000" id="id0000000282" fill-opacity="0.500000" class="rectangle" />
<polygon points="66.7574,130 66.7574,129.929 70.0247,129.929 70.0247,130 " fill="#ff7f0e" stroke-width="0.000000" id="id0000000283" fill-opacity="0.500000" class="rectangle" />
<polygon points="70.0247,130 70.0247,129.88 73.2921,129.88 73.2921,130 " fill="#ff7f0e" stroke-width="0.000000" id="id0000000284" fill-opacity="0.500000" class="rectangle" />
<polygon points="73.2921,130 73.2921,129.803 76.5594,129.803 76.5594,130 " fill="#ff7f0e" stroke-width="0.000000" id="id0000000285" fill-opacity="0.500000" class="rectangle" />
<polygon points="76.5594,130 76.5594,129.681 79.8267,129.681 79.8267,130 " fill="#ff7f0e" stroke-width="0.000000" id="id0000000286" fill-opacity="0.500000" class="rectangle" />
<polygon points="79.8267,130 79.8267,129.495 83.0941,129.495 83.0941,130 " fill="#ff7f0e" stroke-width="0.000000" id="id0000000287" fill-opacity="0.500000" class="rectangle" />
<polygon points="83.0941,130 83.0941,129.216 86.3614,129.216 86.3614,130 " fill="#ff7f0e" stroke-width="0.000000" id="id0000000288" fill-opacity="0.500000" class="rectangle" />
<polygon points="86.3614,130 86.3614,128.807 89.6287,128.807 89.6287,130 " fill="#ff7f0e" stroke-width="0.000000" id="id0000000289" fill-opacity="0.500000" class="rectangle" />
<polygon points="89.6287,130 89.6287,128.221 92.896,128.221 92.896,130 " fill="#ff7f0e" stroke-width="0.000000" id="id0000000290" fill-opacity="0.500000" class="rectangle" />
<polygon points="92.896,130 92.896,127.398 96.1634,127.398 96.1634,130 " fill="#ff7f0e" stroke-width="0.000000" id="id0000000291" fill-opacity="0.500000" class="rectangle" />
<polygon points="96.1634,130 96.1634,126.27 99.4307,126.27 99.4307,130 " fill="#ff7f0e" stroke-width="0.000000" id="id0000000292" fill-opacity="0.500000" class="rectangle" />
<polygon points="99.4307,130 99.4307,124.76 102.698,124.76 102.698,130 " fill="#ff7f0e" stroke-width="0.000000" id="id0000000293" fill-opacity="0.500000" class="rectangle" />
<polygon points="102.698,130 102.698,122.784 105.965,122.784 105.965,130 " fill="#ff7f0e" stroke-width="0.000000" id="id0000000294" fill-opacity="0.500000" class="rectangle" />
<polygon points="105.965,130 105.965,120.259 109.233,120.259 109.233,130 " fill="#ff7f0e" stroke-width="0.000000" id="id0000000295" fill-opacity="0.500000" class="rectangle" />
<polygon points="109.233,130 109.233,117.112 112.5,117.112 112.5,130 " fill="#ff7f0e" stroke-width="0.000000" id="id0000000296" fill-opacity="0.500000" class="rectangle" />
<polygon points="112.5,130 112.5,113.285 115.767,113.285 115.767,130 " fill="#ff7f0e" stroke-width="0.000000" id="id0000000297" fill-opacity="0.500000" class="rectangle" />
<polygon points="115.767,130 115.767,108.751 119.035,108.751 119.035,130 " fill="#ff7f0e" stroke-width="0.000000" id="id0000000298" fill-opacity="0.500000" class="rectangle" />
<polygon points="119.035,130 119.035,103.522 122.302,103.522 122.302,130 " fill="#ff7f0e" stroke-width="0.000000" id="id0000000299" fill-opacity="0.500000" class="rectangle" />
<polygon points="122.302,130 122.302,97.6592 125.569,97.6592 125.569,130 " fill="#ff7f0e" stroke-width="0.000000" id="id0000000300" fill-opacity="0.500000" class="rectangle" />
<polygon points="125.569,130 125.569,91.2811 128.837,91.2811 128.837,130 " fill="#ff7f0e" stroke-width="0.000000" id="id0000000301" fill-opacity="0.500000" class="rectangle" />
<polygon points="128.837,130 128.837,84.5629 132.104,84.5629 132.104,130 " fill="#ff7f0e" stroke-width="0.000000" id="id0000000302" fill-opacity="0.500000" class="rectangle" />
<polygon points="132.104,130 132.104,77.7349 135.371,77.7349 135.371,130 " fill="#ff7f0e" stroke-width="0.000000" id="id0000000303" fill-opacity="0.500000" class="rectangle" />
<polygon points="135.371,130 135.371,71.0713 138.639,71.0713 138.639,130 " fill="#ff7f0e" stroke-width="0.000000" id="id0000000304" fill-opacity="0.500000" class="rectangle" />
<polygon points="138.639,130 138.639,64.8737 141.906,64.8737 141.906,130 " fill="#ff7f0e" stroke-width="0.000000" id="id0000000305" fill-opacity="0.500000" class="rectangle" />
<polygon points="141.906,130 141.906,59.4495 145.173,59.4495 145.173,130 " fill="#ff7f0e" stroke-width="0.000000" id="id0000000306" fill-opacity="0.500000" class="rectangle" />
<polygon points="145.173,130 145.173,55.0869 148.441,55.0869 148.441,130 " fill="#ff7f0e" stroke-width="0.000000" id="id0000000307" fill-opacity="0.500000" class="rectangle" />
<polygon points="148.441,130 148.441,52.0296 151.708,52.0296 151.708,130 " fill="#ff7f0e" stroke-width="0.000000" id="id0000000308" fill-opacity="0.500000" class="rectangle" />
<polygon points="151.708,130 151.708,50.4545 154.975,50.4545 154.975,130 " fill="#ff7f0e" stroke-width="0.000000" id="id0000000309" fill-opacity="0.500000" class="rectangle" />
<polygon points="154.975,130 154.975,50.4545 158.243,50.4545 158.243,130 " fill="#ff7f0e" stroke-width="0.000000" id="id0000000310" fill-opacity="0.500000" class="rectangle" />
<polygon points="158.243,130 158.243,52.0296 161.51,52.0296 161.51,130 " fill="#ff7f0e" stroke-width="0.000000" id="id0000000311" fill-opacity="0.500000" class="rectangle" />
<polygon points="161.51,130 161.51,55.0869 164.777,55.0869 164.777,130 " fill="#ff7f0e" stroke-width="0.000000" id="id0000000312" fill-opacity="0.500000" class="rectangle" />
<polygon points="164.777,130 164.777,59.4495 168.045,59.4495 168.045,130 " fill="#ff7f0e" stroke-width="0.000000" id="id0000000313" fill-opacity="0.500000" class="rectangle" />
<polygon points="168.045,130 168.045,64.8737 171.312,64.8737 171.312,130 " fill="#ff7f0e" stroke-width="0.000000" id="id0000000314" fill-opacity="0.500000" class="rectangle" />
<polygon points="171.312,130 171.312,71.0713 174.579,71.0713 174.579,130 " fill="#ff7f0e" stroke-width="0.000000" id="id0000000315" fill-opacity="0.500000" class="rectangle" />
<polygon points="174.579,130 174.579,77.7349 177.847,77.7349 177.847,130 " fill="#ff7f0e" stroke-width="0.000000" id="id0000000316" fill-opacity="0.500000" class="rectangle" />
<polygon points="177.847,130 177.847,84.5629 181.114,84.5629 181.114,130 " fill="#ff7f0e" stroke-width="0.000000" id="id0000000317" fill-opacity="0.500000" class="rectangle" />
<polygon points="181.114,130 181.114,91.2811 184.381,91.2811 184.381,130 " fill="#ff7f0e" stroke-width="0.000000" id="id0000000318" fill-opacity="0.500000" class="rectangle" />
<polygon points="184.381,130 184.381,97.6592 187.649,97.6592 187.649,130 " fill="#ff7f0e" stroke-width="0.000000" id="id0000000319" fill-opacity="0.500000" class="rectangle" />
<polygon points="187.649,130 187.649,103.522 190.916,103.522 190.916,130 " fill="#ff7f0e" stroke-width="0.000000" id="id0000000320" fill-opacity="0.500000" class="rectangle" />
<polygon points="190.916,130 190.916,108.751 194.183,108.751 194.183,130 " fill="#ff7f0e" stroke-width="0.000000" id="id0000000321" fill-opacity="0.500000" class="rectangle" />
</g>

</g>

<clipPath id="id0000000217clipper" >
<polygon points="30,5 30,130 195,130 195,5 " id="id0000000322" class="rectangle" />
</clipPath>

<polyline points="32.4505,130 32.4505,133 " fill="none" stroke-width="1.000000" stroke="black" id="id0000000323" class="line" />
<text id="id0000000324" transform="matrix(1 0 0 1 30 5)" x="2.450495" y="130.000000" dominant-baseline="hanging" text-anchor="middle" font-size="10.000000px" >
0
</text>

<polyline points="65.1238,130 65.1238,133 " fill="none" stroke-width="1.000000" stroke="black" id="id0000000325" class="line" />
<text id="id0000000326" transform="matrix(1 0 0 1 30 5)" x="35.123764" y="130.000000" dominant-baseline="hanging" text-anchor="middle" font-size="10.000000px" >
10
</text>

<polyline points="97.797,130 97.797,133 " fill="none" stroke-width="1.000000" stroke="black" id="id0000000327" class="line" />
<text id="id0000000328" transform="matrix(1 0 0 1 30 5)" x="67.797028" y="130.000000" dominant-baseline="hanging" text-anchor="middle" font-size="10.000000px" >
20
</text>

<polyline points="130.47,130 130.47,133 " fill="none" stroke-width="1.000000" stroke="black" id="id0000000329" class="line" />
<text id="id0000000330" transform="matrix(1 0 0 1 30 5)" x="100.470299" y="130.000000" dominant-baseline="hanging" text-anchor="middle" font-size="10.000000px" >
30
</text>

<polyline points="163.144,130 163.144,133 " fill="none" stroke-width="1.000000" stroke="black" id="id0000000331" class="line" />
<text id="id0000000332" transform="matrix(1 0 0 1 30 5)" x="133.143570" y="130.000000" dominant-baseline="hanging" text-anchor="middle" font-size="10.000000px" >
40
</text>

<polyline points="27,130 30,130 " fill="none" stroke-width="1.000000" stroke="black" id="id0000000333" class="line" />
<text id="id0000000334" transform="matrix(1 0 0 1 30 5)" x="-5.000000" y="125.000000" dominant-baseline="middle" text-anchor="end" font-size="10.000000px" >
0
</text>

<polyline points="27,107.216 30,107.216 " fill="none" stroke-width="1.000000" stroke="black" id="id0000000335" class="line" />
<text id="id0000000336" transform="matrix(1 0 0 1 30 5)" x="-5.000000" y="102.215836" dominant-baseline="middle" text-anchor="end" font-size="10.000000px" >
0.2
</text>

<polyline points="27,84.4317 30,84.4317 " fill="none" stroke-width="1.000000" stroke="black" id="id0000000337" class="line" />
<text id="id0000000338" transform="matrix(1 0 0 1 30 5)" x="-5.000000" y="79.431671" dominant-baseline="middle" text-anchor="end" font-size="10.000000px" >
0.4
</text>

<polyline points="27,61.6475 30,61.6475 " fill="none" stroke-width="1.000000" stroke="black" id="id0000000339" class="line" />
<text id="id0000000340" transform="matrix(1 0 0 1 30 5)" x="-5.000000" y="56.647514" dominant-baseline="middle" text-anchor="end" font-size="10.000000px" >
0.6
</text>

<polyline points="27,38.8633 30,38.8633 " fill="none" stroke-width="1.000000" stroke="black" id="id0000000341" class="line" />
<text id="id0000000342" transform="matrix(1 0 0 1 30 5)" x="-5.000000" y="33.863350" dominant-baseline="middle" text-anchor="end" font-size="10.000000px" >
0.8
</text>

<polyline points="27,16.0792 30,16.0792 " fill="none" stroke-width="1.000000" stroke="black" id="id0000000343" class="line" />
<text id="id0000000344" transform="matrix(1 0 0 1 30 5)" x="-5.000000" y="11.079193" dominant-baseline="middle" text-anchor="end" font-size="10.000000px" >
1
</text>

<polygon points="30,5 30,130 195,130 195,5 " stroke="black" stroke-width="1.000000" fill="none" id="id0000000345" pointer-events="none" class="border" />
</g>


</g>

</svg>
