<svg viewBox="0 0 640 480" height="100%" width="100%" xmlns:xlink="http://www.w3.org/1999/xlink" xmlns="http://www.w3.org/2000/svg" id="id0000000210" >
<g id="id0000000211" >
<clipPath id="id0000000211clipper" >
<polygon points="36,1 36,458 639,458 639,1 " id="id0000000216" class="rectangle" />
</clipPath>

<g clip-path="url(#id0000000211clipper)" id="id0000000213" >
<g id="id0000000214" >
<polygon points="38.9851,458 38.9851,370.698 50.9257,370.698 50.9257,458 " fill="#1f77b4" stroke-width="0.000000" id="id0000000217" fill-opacity="0.500000" class="rectangle" />
<polygon points="50.9257,458 50.9257,347.017 62.8663,347.017 62.8663,458 " fill="#1f77b4" stroke-width="0.000000" id="id0000000218" fill-opacity="0.500000" class="rectangle" />
<polygon points="62.8663,458 62.8663,319.707 74.8069,319.707 74.8069,458 " fill="#1f77b4" stroke-width="0.000000" id="id0000000219" fill-opacity="0.500000" class="rectangle" />
<polygon points="74.8069,458 74.8069,289.089 86.7475,289.089 86.7475,458 " fill="#1f77b4" stroke-width="0.000000" id="id0000000220" fill-opacity="0.500000" class="rectangle" />
<polygon points="86.7475,458 86.7475,255.777 98.6881,255.777 98.6881,458 " fill="#1f77b4" stroke-width="0.000000" id="id0000000221" fill-opacity="0.500000" class="rectangle" />
<polygon points="98.6881,458 98.6881,220.689 110.629,220.689 110.629,458 " fill="#1f77b4" stroke-width="0.000000" id="id0000000222" fill-opacity="0.500000" class="rectangle" />
<polygon points="110.629,458 110.629,185.027 122.569,185.027 122.569,458 " fill="#1f77b4" stroke-width="0.000000" id="id0000000223" fill-opacity="0.500000" class="rectangle" />
<polygon points="122.569,458 122.569,150.224 134.51,150.224 134.51,458 " fill="#1f77b4" stroke-width="0.000000" id="id0000000224" fill-opacity="0.500000" class="rectangle" />
<polygon points="134.51,458 134.51,117.855 146.451,117.855 146.451,458 " fill="#1f77b4" stroke-width="0.000000" id="id0000000225" fill-opacity="0.500000" class="rectangle" />
<polygon points="146.451,458 146.451,89.5249 158.391,89.5249 158.391,458 " fill="#1f77b4" stroke-width="0.000000" id="id0000000226" fill-opacity="0.500000" class="rectangle" />
<polygon points="158.391,458 158.391,66.7397 170.332,66.7397 170.332,458 " fill="#1f77b4" stroke-width="0.000000" id="id0000000227" fill-opacity="0.500000" class="rectangle" />
<polygon points="170.332,458 170.332,50.772 182.272,50.772 182.272,458 " fill="#1f77b4" stroke-width="0.000000" id="id0000000228" fill-opacity="0.500000" class="rectangle" />
<polygon points="182.272,458 182.272,42.5455 194.213,42.5455 194.213,458 " fill="#1f77b4" stroke-width="0.000000" id="id0000000229" fill-opacity="0.500000" class="rectangle" />
<polygon points="194.213,458 194.213,42.5455 206.153,42.5455 206.153,458 " fill="#1f77b4" stroke-width="0.000000" id="id0000000230" fill-opacity="0.500000" class="rectangle" />
<polygon points="206.153,458 206.153,50.772 218.094,50.772 218.094,458 " fill="#1f77b4" stroke-width="0.000000" id="id0000000231" fill-opacity="0.500000" class="rectangle" />
<polygon points="218.094,458 218.094,66.7397 230.035,66.7397 230.035,458 " fill="#1f77b4" stroke-width="0.000000" id="id0000000232" fill-opacity="0.500000" class="rectangle" />
<polygon points="230.035,458 230.035,89.5249 241.975,89.5249 241.975,458 " fill="#1f77b4" stroke-width="0.000000" id="id0000000233" fill-opacity="0.500000" class="rectangle" />
<polygon points="241.975,458 241.975,117.855 253.916,117.855 253.916,458 " fill="#1f77b4" stroke-width="0.000000" id="id0000000234" fill-opacity="0.500000" class="rectangle" />
<polygon points="253.916,458 253.916,150.224 265.856,150.224 265.856,458 " fill="#1f77b4" stroke-width="0.000000" id="id0000000235" fill-opacity="0.500000" class="rectangle" />
<polygon points="265.856,458 265.856,185.027 277.797,185.027 277.797,458 " fill="#1f77b4" stroke-width="0.000000" id="id0000000236" fill-opacity="0.500000" class="rectangle" />
<polygon points="277.797,458 277.797,220.689 289.738,220.689 289.738,458 " fill="#1f77b4" stroke-width="0.000000" id="id0000000237" fill-opacity="0.500000" class="rectangle" />
<polygon points="289.738,458 289.738,255.777 301.678,255.777 301.678,458 " fill="#1f77b4" stroke-width="0.000000" id="id0000000238" fill-opacity="0.500000" class="rectangle" />
<polygon points="301.678,458 301.678,289.089 313.619,289.089 313.619,458 " fill="#1f77b4" stroke-width="0.000000" id="id0000000239" fill-opacity="0.500000" class="rectangle" />
<polygon points="313.619,458 313.619,319.707 325.559,319.707 325.559,458 " fill="#1f77b4" stroke-width="0.000000" id="id0000000240" fill-opacity="0.500000" class="rectangle" />
<polygon points="325.559,458 325.559,347.017 337.5,347.017 337.5,458 " fill="#1f77b4" stroke-width="0.000000" id="id0000000241" fill-opacity="0.500000" class="rectangle" />
<polygon points="337.5,458 337.5,370.698 349.441,370.698 349.441,458 " fill="#1f77b4" stroke-width="0.000000" id="id0000000242" fill-opacity="0.500000" class="rectangle" />
<polygon points="349.441,458 349.441,390.686 361.381,390.686 361.381,458 " fill="#1f77b4" stroke-width="0.000000" id="id0000000243" fill-opacity="0.500000" class="rectangle" />
<polygon points="361.381,458 361.381,407.125 373.322,407.125 373.322,458 " fill="#1f77b4" stroke-width="0.000000" id="id0000000244" fill-opacity="0.500000" class="rectangle" />
<polygon points="373.322,458 373.322,420.311 385.262,420.311 385.262,458 " fill="#1f77b4" stroke-width="0.000000" id="id0000000245" fill-opacity="0.500000" class="rectangle" />
<polygon points="385.262,458 385.262,430.632 397.203,430.632 397.203,458 " fill="#1f77b4" stroke-width="0.000000" id="id0000000246" fill-opacity="0.500000" class="rectangle" />
<polygon points="397.203,458 397.203,438.52 409.144,438.52 409.144,458 " fill="#1f77b4" stroke-width="0.000000" id="id0000000247" fill-opacity="0.500000" class="rectangle" />
<polygon points="409.144,458 409.144,444.409 421.084,444.409 421.084,458 " fill="#1f77b4" stroke-width="0.000000" id="id0000000248" fill-opacity="0.500000" class="rectangle" />
<polygon points="421.084,458 421.084,448.706 433.025,448.706 433.025,458 " fill="#1f77b4" stroke-width="0.000000" id="id0000000249" fill-opacity="0.500000" class="rectangle" />
<polygon points="433.025,458 433.025,451.77 444.965,451.77 444.965,458 " fill="#1f77b4" stroke-width="0.000000" id="id0000000250" fill-opacity="0.500000" class="rectangle" />
<polygon points="444.965,458 444.965,453.907 456.906,453.907 456.906,458 " fill="#1f77b4" stroke-width="0.000000" id="id0000000251" fill-opacity="0.500000" class="rectangle" />
<polygon points="456.906,458 456.906,455.364 468.847,455.364 468.847,458 " fill="#1f77b4" stroke-width="0.000000" id="id0000000252" fill-opacity="0.500000" class="rectangle" />
<polygon points="468.847,458 468.847,456.336 480.787,456.336 480.787,458 " fill="#1f77b4" stroke-width="0.000000" id="id0000000253" fill-opacity="0.500000" class="rectangle" />
<polygon points="480.787,458 480.787,456.97 492.728,456.97 492.728,458 " fill="#1f77b4" stroke-width="0.000000" id="id0000000254" fill-opacity="0.500000" class="rectangle" />
<polygon points="492.728,458 492.728,457.375 504.668,457.375 504.668,458 " fill="#1f77b4" stroke-width="0.000000" id="id0000000255" fill-opacity="0.500000" class="rectangle" />
<polygon points="504.668,458 504.668,457.629 516.609,457.629 516.609,458 " fill="#1f77b4" stroke-width="0.000000" id="id0000000256" fill-opacity="0.500000" class="rectangle" />
<polygon points="516.609,458 516.609,457.784 528.549,457.784 528.549,458 " fill="#1f77b4" stroke-width="0.000000" id="id0000000257" fill-opacity="0.500000" class="rectangle" />
<polygon points="528.549,458 528.549,457.876 540.49,457.876 540.49,458 " fill="#1f77b4" stroke-width="0.000000" id="id0000000258" fill-opacity="0.500000" class="rectangle" />
<polygon points="540.49,458 540.49,457.931 552.431,457.931 552.431,458 " fill="#1f77b4" stroke-width="0.000000" id="id0000000259" fill-opacity="0.500000" class="rectangle" />
<polygon points="552.431,458 552.431,457.962 564.371,457.962 564.371,458 " fill="#1f77b4" stroke-width="0.000000" id="id0000000260" fill-opacity="0.500000" class="rectangle" />
<polygon points="564.371,458 564.371,457.98 576.312,457.98 576.312,458 " fill="#1f77b4" stroke-width="0.000000" id="id0000000261" fill-opacity="0.500000" class="rectangle" />
<polygon points="576.312,458 576.312,457.989 588.252,457.989 588.252,458 " fill="#1f77b4" stroke-width="0.000000" id="id0000000262" fill-opacity="0.500000" class="rectangle" />
<polygon points="588.252,458 588.252,457.994 600.193,457.994 600.193,458 " fill="#1f77b4" stroke-width="0.000000" id="id0000000263" fill-opacity="0.500000" class="rectangle" />
<polygon points="600.193,458 600.193,457.997 612.134,457.997 612.134,458 " fill="#1f77b4" stroke-width="0.000000" id="id0000000264" fill-opacity="0.500000" class="rectangle" />
<polygon points="612.134,458 612.134,457.999 624.074,457.999 624.074,458 " fill="#1f77b4" stroke-width="0.000000" id="id0000000265" fill-opacity="0.500000" class="rectangle" />
<polygon points="624.074,458 624.074,457.999 636.015,457.999 636.015,458 " fill="#1f77b4" stroke-width="0.000000" id="id0000000266" fill-opacity="0.500000" class="rectangle" />
</g>

<g id="id0000000215" >
<polygon points="38.9851,458 38.9851,458 50.9257,458 50.9257,458 " fill="#ff7f0e" stroke-width="0.000000" id="id0000000267" fill-opacity="0.500000" class="rectangle" />
<polygon points="50.9257,458 50.9257,458 62.8663,458 62.8663,458 " fill="#ff7f0e" stroke-width="0.000000" id="id0000000268" fill-opacity="0.500000" class="rectangle" />
<polygon points="62.8663,458 62.8663,457.999 74.8069,457.999 74.8069,458 " fill="#ff7f0e" stroke-width="0.000000" id="id0000000269" fill-opacity="0.500000" class="rectangle" />
<polygon points="74.8069,458 74.8069,457.998 86.7475,457.998 86.7475,458 " fill="#ff7f0e" stroke-width="0.000000" id="id0000000270" fill-opacity="0.500000" class="rectangle" />
<polygon points="86.7475,458 86.7475,457.996 98.6881,457.996 98.6881,458 " fill="#ff7f0e" stroke-width="0.000000" id="id0000000271" fill-opacity="0.500000" class="rectangle" />
<polygon points="98.6881,458 98.6881,457.992 110.629,457.992 110.629,458 " fill="#ff7f0e" stroke-width="0.000000" id="id0000000272" fill-opacity="0.500000" class="rectangle" />
<polygon points="110.629,458 110.629,457.986 122.569,457.986 122.569,458 " fill="#ff7f0e" stroke-width="0.000000" id="id0000000273" fill-opacity="0.500000" class="rectangle" />
<polygon points="122.569,458 122.569,457.973 134.51,457.973 134.51,458 " fill="#ff7f0e" stroke-width="0.000000" id="id0000000274" fill-opacity="0.500000" class="rectangle" />
<polygon points="134.51,458 134.51,457.952 146.451,457.952 146.451,458 " fill="#ff7f0e" stroke-width="0.000000" id="id0000000275" fill-opacity="0.500000" class="rectangle" />
<polygon points="146.451,458 146.451,457.913 158.391,457.913 158.391,458 " fill="#ff7f0e" stroke-width="0.000000" id="id0000000276" fill-opacity="0.500000" class="rectangle" />
<polygon points="158.391,458 158.391,457.849 170.332,457.849 170.332,458 " fill="#ff7f0e" stroke-width="0.000000" id="id0000000277" fill-opacity="0.500000" class="rectangle" />
<polygon points="170.332,458 170.332,457.74 182.272,457.74 182.272,458 " fill="#ff7f0e" stroke-width="0.000000" id="id0000000278" fill-opacity="0.500000" class="rectangle" />
<polygon points="182.272,458 182.272,457.563 194.213,457.563 194.213,458 " fill="#ff7f0e" stroke-width="0.000000" id="id0000000279" fill-opacity="0.500000" class="rectangle" />
<polygon points="194.213,458 194.213,457.279 206.153,457.279 206.153,458 " fill="#ff7f0e" stroke-width="0.000000" id="id0000000280" fill-opacity="0.500000" class="rectangle" />
<polygon points="206.153,458 206.153,456.835 218.094,456.835 218.094,458 " fill="#ff7f0e" stroke-width="0.000000" id="id0000000281" fill-opacity="0.500000" class="rectangle" />
<polygon points="218.094,458 218.094,456.155 230.035,456.155 230.035,458 " fill="#ff7f0e" stroke-width="0.000000" id="id0000000282" fill-opacity="0.500000" class="rectangle" />
<polygon points="230.035,458 230.035,455.135 241.975,455.135 241.975,458 " fill="#ff7f0e" stroke-width="0.000000" id="id0000000283" fill-opacity="0.500000" class="rectangle" />
<polygon points="241.975,458 241.975,453.639 253.916,453.639 253.916,458 " fill="#ff7f0e" stroke-width="0.000000" id="id0000000284" fill-opacity="0.500000" class="rectangle" />
<polygon points="253.916,458 253.916,451.494 265.856,451.494 265.856,458 " fill="#ff7f0e" stroke-width="0.000000" id="id0000000285" fill-opacity="0.500000" class="rectangle" />
<polygon points="265.856,458 265.856,448.487 277.797,448.487 277.797,458 " fill="#ff7f0e" stroke-width="0.000000" id="id0000000286" fill-opacity="0.500000" class="rectangle" />
<polygon points="277.797,458 277.797,444.364 289.738,444.364 289.738,458 " fill="#ff7f0e" stroke-width="0.000000" id="id0000000287" fill-opacity="0.500000" class="rectangle" />
<polygon points="289.738,458 289.738,438.842 301.678,438.842 301.678,458 " fill="#ff7f0e" stroke-width="0.000000" id="id0000000288" fill-opacity="0.500000" class="rectangle" />
<polygon points="301.678,458 301.678,431.618 313.619,431.618 313.619,458 " fill="#ff7f0e" stroke-width="0.000000" id="id0000000289" fill-opacity="0.500000" class="rectangle" />
<polygon points="313.619,458 313.619,422.387 325.559,422.387 325.559,458 " fill="#ff7f0e" stroke-width="0.000000" id="id0000000290" fill-opacity="0.500000" class="rectangle" />
<polygon points="325.559,458 325.559,410.88 337.5,410.88 337.5,458 " fill="#ff7f0e" stroke-width="0.000000" id="id0000000291" fill-opacity="0.500000" class="rectangle" />
<polygon points="337.5,458 337.5,396.889 349.441,396.889 349.441,458 " fill="#ff7f0e" stroke-width="0.000000" id="id0000000292" fill-opacity="0.500000" class="rectangle" />
<polygon points="349.441,458 349.441,380.312 361.381,380.312 361.381,458 " fill="#ff7f0e" stroke-width="0.000000" id="id0000000293" fill-opacity="0.500000" class="rectangle" />
<polygon points="361.381,458 361.381,361.195 373.322,361.195 373.322,458 " fill="#ff7f0e" stroke-width="0.000000" id="id0000000294" fill-opacity="0.500000" class="rectangle" />
<polygon points="373.322,458 373.322,339.762 385.262,339.762 385.262,458 " fill="#ff7f0e" stroke-width="0.000000" id="id0000000295" fill-opacity="0.500000" class="rectangle" />
<polygon points="385.262,458 385.262,316.444 397.203,316.444 397.203,458 " fill="#ff7f0e" stroke-width="0.000000" id="id0000000296" fill-opacity="0.500000" class="rectangle" />
<polygon points="397.203,458 397.203,291.882 409.144,291.882 409.144,458 " fill="#ff7f0e" stroke-width="0.000000" id="id0000000297" fill-opacity="0.500000" class="rectangle" />
<polygon points="409.144,458 409.144,266.919 421.084,266.919 421.084,458 " fill="#ff7f0e" stroke-width="0.000000" id="id0000000298" fill-opacity="0.500000" class="rectangle" />
<polygon points="421.084,458 421.084,242.557 433.025,242.557 433.025,458 " fill="#ff7f0e" stroke-width="0.000000" id="id0000000299" fill-opacity="0.500000" class="rectangle" />
<polygon points="433.025,458 433.025,219.898 444.965,219.898 444.965,458 " fill="#ff7f0e" stroke-width="0.000000" id="id0000000300" fill-opacity="0.500000" class="rectangle" />
<polygon points="444.965,458 444.965,200.067 456.906,200.067 456.906,458 " fill="#ff7f0e" stroke-width="0.000000" id="id0000000301" fill-opacity="0.500000" class="rectangle" />
<polygon points="456.906,458 456.906,184.118 468.847,184.118 468.847,458 " fill="#ff7f0e" stroke-width="0.000000" id="id0000000302" fill-opacity="0.500000" class="rectangle" />
<polygon points="468.847,458 468.847,172.94 480.787,172.94 480.787,458 " fill="#ff7f0e" stroke-width="0.000000" id="id0000000303" fill-opacity="0.500000" class="rectangle" />
<polygon points="480.787,458 480.787,167.182 492.728,167.182 492.728,458 " fill="#ff7f0e" stroke-width="0.000000" id="id0000000304" fill-opacity="0.500000" class="rectangle" />
<polygon points="492.728,458 492.728,167.182 504.668,167.182 504.668,458 " fill="#ff7f0e" stroke-width="0.000000" id="id0000000305" fill-opacity="0.500000" class="rectangle" />
<polygon points="504.668,458 504.668,172.94 516.609,172.94 516.609,458 " fill="#ff7f0e" stroke-width="0.000000" id="id0000000306" fill-opacity="0.500000" class="rectangle" />
<polygon points="516.609,458 516.609,184.118 528.549,184.118 528.549,458 " fill="#ff7f0e" stroke-width="0.000000" id="id0000000307" fill-opacity="0.500000" class="rectangle" />
<polygon points="528.549,458 528.549,200.067 540.49,200.067 540.49,458 " fill="#ff7f0e" stroke-width="0.000000" id="id0000000308" fill-opacity="0.500000" class="rectangle" />
<polygon points="540.49,458 540.49,219.898 552.431,219.898 552.431,458 " fill="#ff7f0e" stroke-width="0.000000" id="id0000000309" fill-opacity="0.500000" class="rectangle" />
<polygon points="552.431,458 552.431,242.557 564.371,242.557 564.371,458 " fill="#ff7f0e" stroke-width="0.000000" id="id0000000310" fill-opacity="0.500000" class="rectangle" />
<polygon points="564.371,458 564.371,266.919 576.312,266.919 576.312,458 " fill="#ff7f0e" stroke-width="0.000000" id="id0000000311" fill-opacity="0.500000" class="rectangle" />
<polygon points="576.312,458 576.312,291.882 588.252,291.882 588.252,458 " fill="#ff7f0e" stroke-width="0.000000" id="id0000000312" fill-opacity="0.500000" class="rectangle" />
<polygon points="588.252,458 588.252,316.444 600.193,316.444 600.193,458 " fill="#ff7f0e" stroke-width="0.000000" id="id0000000313" fill-opacity="0.500000" class="rectangle" />
<polygon points="600.193,458 600.193,339.762 612.134,339.762 612.134,458 " fill="#ff7f0e" stroke-width="0.000000" id="id0000000314" fill-opacity="0.500000" class="rectangle" />
<polygon points="612.134,458 612.134,361.195 624.074,361.195 624.074,458 " fill="#ff7f0e" stroke-width="0.000000" id="id0000000315" fill-opacity="0.500000" class="rectangle" />
<polygon points="624.074,458 624.074,380.312 636.015,380.312 636.015,458 " fill="#ff7f0e" stroke-width="0.000000" id="id0000000316" fill-opacity="0.500000" class="rectangle" />
</g>

</g>

<polygon points="36,1 36,458 639,458 639,1 " stroke="black" stroke-width="1.000000" fill="none" id="id0000000317" pointer-events="none" class="rectangle" />
<polyline points="44.9554,458 44.9554,461 " fill="none" stroke-width="1.000000" stroke="black" id="id0000000318" class="line" />
<text id="id0000000319" transform="matrix(1 0 0 1 36 1)" x="8.955445" y="462.000000" dominant-baseline="hanging" text-anchor="middle" font-size="14.000000px" >
0
</text>

<polyline points="164.361,458 164.361,461 " fill="none" stroke-width="1.000000" stroke="black" id="id0000000320" class="line" />
<text id="id0000000321" transform="matrix(1 0 0 1 36 1)" x="128.361389" y="462.000000" dominant-baseline="hanging" text-anchor="middle" font-size="14.000000px" >
10
</text>

<polyline points="283.767,458 283.767,461 " fill="none" stroke-width="1.000000" stroke="black" id="id0000000322" class="line" />
<text id="id0000000323" transform="matrix(1 0 0 1 36 1)" x="247.767334" y="462.000000" dominant-baseline="hanging" text-anchor="middle" font-size="14.000000px" >
20
</text>

<polyline points="403.173,458 403.173,461 " fill="none" stroke-width="1.000000" stroke="black" id="id0000000324" class="line" />
<text id="id0000000325" transform="matrix(1 0 0 1 36 1)" x="367.173279" y="462.000000" dominant-baseline="hanging" text-anchor="middle" font-size="14.000000px" >
30
</text>

<polyline points="522.579,458 522.579,461 " fill="none" stroke-width="1.000000" stroke="black" id="id0000000326" class="line" />
<text id="id0000000327" transform="matrix(1 0 0 1 36 1)" x="486.579193" y="462.000000" dominant-baseline="hanging" text-anchor="middle" font-size="14.000000px" >
40
</text>

<polyline points="33,458 36,458 " fill="none" stroke-width="1.000000" stroke="black" id="id0000000328" class="line" />
<text id="id0000000329" transform="matrix(1 0 0 1 36 1)" x="-5.000000" y="457.000000" dominant-baseline="middle" text-anchor="end" font-size="14.000000px" >
0
</text>

<polyline points="33,374.701 36,374.701 " fill="none" stroke-width="1.000000" stroke="black" id="id0000000330" class="line" />
<text id="id0000000331" transform="matrix(1 0 0 1 36 1)" x="-5.000000" y="373.701111" dominant-baseline="middle" text-anchor="end" font-size="14.000000px" >
0.2
</text>

<polyline points="33,291.402 36,291.402 " fill="none" stroke-width="1.000000" stroke="black" id="id0000000332" class="line" />
<text id="id0000000333" transform="matrix(1 0 0 1 36 1)" x="-5.000000" y="290.402222" dominant-baseline="middle" text-anchor="end" font-size="14.000000px" >
0.4
</text>

<polyline points="33,208.103 36,208.103 " fill="none" stroke-width="1.000000" stroke="black" id="id0000000334" class="line" />
<text id="id0000000335" transform="matrix(1 0 0 1 36 1)" x="-5.000000" y="207.103302" dominant-baseline="middle" text-anchor="end" font-size="14.000000px" >
0.6
</text>

<polyline points="33,124.804 36,124.804 " fill="none" stroke-width="1.000000" stroke="black" id="id0000000336" class="line" />
<text id="id0000000337" transform="matrix(1 0 0 1 36 1)" x="-5.000000" y="123.804413" dominant-baseline="middle" text-anchor="end" font-size="14.000000px" >
0.8
</text>

<polyline points="33,41.5055 36,41.5055 " fill="none" stroke-width="1.000000" stroke="black" id="id0000000338" class="line" />
<text id="id0000000339" transform="matrix(1 0 0 1 36 1)" x="-5.000000" y="40.505524" dominant-baseline="middle" text-anchor="end" font-size="14.000000px" >
1
</text>


</g>

</svg>
