<svg viewBox="0 0 200 150" height="100%" width="100%" xmlns:xlink="http://www.w3.org/1999/xlink" xmlns="http://www.w3.org/2000/svg" id="id0000000000" >
<g id="id0000000001" >
<g id="id0000000002" >
<g clip-path="url(#id0000000002clipper)" style="pointer-events: all; " vector-effect="non-scaling-stroke" fill="none" class="area" id="id0000000003" >
<g id="id0000000005" >
<polygon points="37.8571,130 37.8571,101.591 69.2857,101.591 69.2857,130 " fill="#1f77b4" stroke-width="0.000000" id="id0000000006" class="rectangle" />
<polygon points="77.1429,130 77.1429,73.1818 108.571,73.1818 108.571,130 " fill="#1f77b4" stroke-width="0.000000" id="id0000000007" class="rectangle" />
<polygon points="116.429,130 116.429,44.7727 147.857,44.7727 147.857,130 " fill="#1f77b4" stroke-width="0.000000" id="id0000000008" class="rectangle" />
<polygon points="155.714,130 155.714,16.3636 187.143,16.3636 187.143,130 " fill="#1f77b4" stroke-width="0.000000" id="id0000000009" class="rectangle" />
</g>

</g>

<clipPath id="id0000000002clipper" >
<polygon points="30,5 30,130 195,130 195,5 " id="id0000000010" class="rectangle" />
</clipPath>

<polyline points="53.5714,130 53.5714,133 " fill="none" stroke-width="1.000000" stroke="black" id="id0000000011" class="line" />
<text id="id0000000012" transform="matrix(1 0 0 1 30 5)" x="23.571432" y="130.000000" dominant-baseline="hanging" text-anchor="middle" font-size="10.000000px" >
G1
</text>

<polyline points="92.8571,130 92.8571,133 " fill="none" stroke-width="1.000000" stroke="black" id="id0000000013" class="line" />
<text id="id0000000014" transform="matrix(1 0 0 1 30 5)" x="62.857147" y="130.000000" dominant-baseline="hanging" text-anchor="middle" font-size="10.000000px" >
G2
</text>

<polyline points="132.143,130 132.143,133 " fill="none" stroke-width="1.000000" stroke="black" id="id0000000015" class="line" />
<text id="id0000000016" transform="matrix(1 0 0 1 30 5)" x="102.142853" y="130.000000" dominant-baseline="hanging" text-anchor="middle" font-size="10.000000px" >
G3
</text>

<polyline points="171.429,130 171.429,133 " fill="none" stroke-width="1.000000" stroke="black" id="id0000000017" class="line" />
<text id="id0000000018" transform="matrix(1 0 0 1 30 5)" x="141.428574" y="130.000000" dominant-baseline="hanging" text-anchor="middle" font-size="10.000000px" >
G4
</text>

<polyline points="27,130 30,130 " fill="none" stroke-width="1.000000" stroke="black" id="id0000000019" class="line" />
<text id="id0000000020" transform="matrix(1 0 0 1 30 5)" x="-5.000000" y="125.000000" dominant-baseline="middle" text-anchor="end" font-size="10.000000px" >
0
</text>

<polyline points="27,115.795 30,115.795 " fill="none" stroke-width="1.000000" stroke="black" id="id0000000021" class="line" />
<text id="id0000000022" transform="matrix(1 0 0 1 30 5)" x="-5.000000" y="110.795456" dominant-baseline="middle" text-anchor="end" font-size="10.000000px" >
0.5
</text>

<polyline points="27,101.591 30,101.591 " fill="none" stroke-width="1.000000" stroke="black" id="id0000000023" class="line" />
<text id="id0000000024" transform="matrix(1 0 0 1 30 5)" x="-5.000000" y="96.590912" dominant-baseline="middle" text-anchor="end" font-size="10.000000px" >
1
</text>

<polyline points="27,87.3864 30,87.3864 " fill="none" stroke-width="1.000000" stroke="black" id="id0000000025" class="line" />
<text id="id0000000026" transform="matrix(1 0 0 1 30 5)" x="-5.000000" y="82.386368" dominant-baseline="middle" text-anchor="end" font-size="10.000000px" >
1.5
</text>

<polyline points="27,73.1818 30,73.1818 " fill="none" stroke-width="1.000000" stroke="black" id="id0000000027" class="line" />
<text id="id0000000028" transform="matrix(1 0 0 1 30 5)" x="-5.000000" y="68.181824" dominant-baseline="middle" text-anchor="end" font-size="10.000000px" >
2
</text>

<polyline points="27,58.9773 30,58.9773 " fill="none" stroke-width="1.000000" stroke="black" id="id0000000029" class="line" />
<text id="id0000000030" transform="matrix(1 0 0 1 30 5)" x="-5.000000" y="53.977272" dominant-baseline="middle" text-anchor="end" font-size="10.000000px" >
2.5
</text>

<polyline points="27,44.7727 30,44.7727 " fill="none" stroke-width="1.000000" stroke="black" id="id0000000031" class="line" />
<text id="id0000000032" transform="matrix(1 0 0 1 30 5)" x="-5.000000" y="39.772728" dominant-baseline="middle" text-anchor="end" font-size="10.000000px" >
3
</text>

<polyline points="27,30.5682 30,30.5682 " fill="none" stroke-width="1.000000" stroke="black" id="id0000000033" class="line" />
<text id="id0000000034" transform="matrix(1 0 0 1 30 5)" x="-5.000000" y="25.568184" dominant-baseline="middle" text-anchor="end" font-size="10.000000px" >
3.5
</text>

<polyline points="27,16.3636 30,16.3636 " fill="none" stroke-width="1.000000" stroke="black" id="id0000000035" class="line" />
<text id="id0000000036" transform="matrix(1 0 0 1 30 5)" x="-5.000000" y="11.363640" dominant-baseline="middle" text-anchor="end" font-size="10.000000px" >
4
</text>

<polygon points="30,5 30,130 195,130 195,5 " stroke="black" stroke-width="1.000000" fill="none" id="id0000000037" pointer-events="none" class="border" />
</g>


</g>

</svg>
