<svg viewBox="0 0 640 480" height="100%" width="100%" xmlns:xlink="http://www.w3.org/1999/xlink" xmlns="http://www.w3.org/2000/svg" id="id0000000037" >
<g id="id0000000038" >
<clipPath id="id0000000038clipper" >
<polygon points="36,1 36,458 639,458 639,1 " id="id0000000042" class="rectangle" />
</clipPath>

<g clip-path="url(#id0000000038clipper)" id="id0000000040" >
<g id="id0000000041" >
<polygon points="64.7143,458 64.7143,354.136 179.571,354.136 179.571,458 " fill="#1f77b4" stroke-width="0.000000" id="id0000000043" fill-opacity="1.000000" class="rectangle" />
<polygon points="208.286,458 208.286,250.273 323.143,250.273 323.143,458 " fill="#1f77b4" stroke-width="0.000000" id="id0000000044" fill-opacity="1.000000" class="rectangle" />
<polygon points="351.857,458 351.857,146.409 466.714,146.409 466.714,458 " fill="#1f77b4" stroke-width="0.000000" id="id0000000045" fill-opacity="1.000000" class="rectangle" />
<polygon points="495.429,458 495.429,42.5455 610.286,42.5455 610.286,458 " fill="#1f77b4" stroke-width="0.000000" id="id0000000046" fill-opacity="1.000000" class="rectangle" />
</g>

</g>

<polygon points="36,1 36,458 639,458 639,1 " stroke="black" stroke-width="1.000000" fill="none" id="id0000000047" pointer-events="none" class="rectangle" />
<polyline points="122.143,458 122.143,461 " fill="none" stroke-width="1.000000" stroke="black" id="id0000000048" class="line" />
<text id="id0000000049" transform="matrix(1 0 0 1 36 1)" x="86.142868" y="462.000000" dominant-baseline="hanging" text-anchor="middle" font-size="14.000000px" >
G1
</text>

<polyline points="265.714,458 265.714,461 " fill="none" stroke-width="1.000000" stroke="black" id="id0000000050" class="line" />
<text id="id0000000051" transform="matrix(1 0 0 1 36 1)" x="229.714294" y="462.000000" dominant-baseline="hanging" text-anchor="middle" font-size="14.000000px" >
G2
</text>

<polyline points="409.286,458 409.286,461 " fill="none" stroke-width="1.000000" stroke="black" id="id0000000052" class="line" />
<text id="id0000000053" transform="matrix(1 0 0 1 36 1)" x="373.285706" y="462.000000" dominant-baseline="hanging" text-anchor="middle" font-size="14.000000px" >
G3
</text>

<polyline points="552.857,458 552.857,461 " fill="none" stroke-width="1.000000" stroke="black" id="id0000000054" class="line" />
<text id="id0000000055" transform="matrix(1 0 0 1 36 1)" x="516.857178" y="462.000000" dominant-baseline="hanging" text-anchor="middle" font-size="14.000000px" >
G4
</text>

<polyline points="33,458 36,458 " fill="none" stroke-width="1.000000" stroke="black" id="id0000000056" class="line" />
<text id="id0000000057" transform="matrix(1 0 0 1 36 1)" x="-5.000000" y="457.000000" dominant-baseline="middle" text-anchor="end" font-size="14.000000px" >
0
</text>

<polyline points="33,406.068 36,406.068 " fill="none" stroke-width="1.000000" stroke="black" id="id0000000058" class="line" />
<text id="id0000000059" transform="matrix(1 0 0 1 36 1)" x="-5.000000" y="405.068176" dominant-baseline="middle" text-anchor="end" font-size="14.000000px" >
0.5
</text>

<polyline points="33,354.136 36,354.136 " fill="none" stroke-width="1.000000" stroke="black" id="id0000000060" class="line" />
<text id="id0000000061" transform="matrix(1 0 0 1 36 1)" x="-5.000000" y="353.136353" dominant-baseline="middle" text-anchor="end" font-size="14.000000px" >
1
</text>

<polyline points="33,302.205 36,302.205 " fill="none" stroke-width="1.000000" stroke="black" id="id0000000062" class="line" />
<text id="id0000000063" transform="matrix(1 0 0 1 36 1)" x="-5.000000" y="301.204529" dominant-baseline="middle" text-anchor="end" font-size="14.000000px" >
1.5
</text>

<polyline points="33,250.273 36,250.273 " fill="none" stroke-width="1.000000" stroke="black" id="id0000000064" class="line" />
<text id="id0000000065" transform="matrix(1 0 0 1 36 1)" x="-5.000000" y="249.272736" dominant-baseline="middle" text-anchor="end" font-size="14.000000px" >
2
</text>

<polyline points="33,198.341 36,198.341 " fill="none" stroke-width="1.000000" stroke="black" id="id0000000066" class="line" />
<text id="id0000000067" transform="matrix(1 0 0 1 36 1)" x="-5.000000" y="197.340912" dominant-baseline="middle" text-anchor="end" font-size="14.000000px" >
2.5
</text>

<polyline points="33,146.409 36,146.409 " fill="none" stroke-width="1.000000" stroke="black" id="id0000000068" class="line" />
<text id="id0000000069" transform="matrix(1 0 0 1 36 1)" x="-5.000000" y="145.409088" dominant-baseline="middle" text-anchor="end" font-size="14.000000px" >
3
</text>

<polyline points="33,94.4773 36,94.4773 " fill="none" stroke-width="1.000000" stroke="black" id="id0000000070" class="line" />
<text id="id0000000071" transform="matrix(1 0 0 1 36 1)" x="-5.000000" y="93.477295" dominant-baseline="middle" text-anchor="end" font-size="14.000000px" >
3.5
</text>

<polyline points="33,42.5455 36,42.5455 " fill="none" stroke-width="1.000000" stroke="black" id="id0000000072" class="line" />
<text id="id0000000073" transform="matrix(1 0 0 1 36 1)" x="-5.000000" y="41.545471" dominant-baseline="middle" text-anchor="end" font-size="14.000000px" >
4
</text>


</g>

</svg>
