<svg viewBox="-1 -1 402 302" xmlns:xlink="http://www.w3.org/1999/xlink" height="100%" id="id0000000023" xmlns="http://www.w3.org/2000/svg" width="100%" >
<g id="id0000000024" >
<g clip-path="url(#id0000000024clipper)" fill="none" vector-effect="non-scaling-stroke" class="area" id="id0000000025" style="pointer-events: all; " >
<polyline points="11.7647,98.0701 15.5674,97.9699 19.3702,97.6696 23.1729,97.1709 26.9756,96.4762 30.7784,95.5891 34.5811,94.5138 38.3838,93.2559 42.1866,91.8217 45.9893,90.2185 49.792,88.4544 53.5948,86.5384 57.3975,84.4803 61.2002,82.2907 65.003,79.9809 68.8057,77.563 72.6084,75.0497 76.4112,72.4542 80.2139,69.7904 84.0166,67.0727 87.8194,64.3159 91.6221,61.5351 95.4248,58.7459 99.2276,55.964 103.03,53.2055 106.833,50.4864 110.636,47.8231 114.438,45.2317 118.241,42.7286 122.044,40.3296 125.847,38.0508 129.649,35.9079 133.452,33.9161 137.255,32.0906 141.058,30.4458 144.86,28.9959 148.663,27.7544 152.466,26.7342 156.269,25.9475 160.071,25.4059 163.874,25.1202 167.677,25.1002 171.479,25.355 175.282,25.8928 179.085,26.7208 182.888,27.8451 186.69,29.2708 190.493,31.0021 194.296,33.0418 198.099,35.392 201.901,38.0532 205.704,41.0251 209.507,44.306 213.309,47.893 217.112,51.7822 220.915,55.9683 224.718,60.445 228.52,65.2046 232.323,70.2384 236.126,75.5364 239.929,81.0875 243.731,86.8796 247.534,92.8993 251.337,99.1322 255.139,105.563 258.942,112.175 262.745,118.951 266.548,125.873 270.35,132.922 274.153,140.077 277.956,147.319 281.759,154.625 285.561,161.973 289.364,169.342 293.167,176.708 296.969,184.047 300.772,191.336 304.575,198.55 308.378,205.665 312.18,212.657 315.983,219.501 319.786,226.173 323.589,232.647 327.391,238.901 331.194,244.91 334.997,250.649 338.8,256.097 342.602,261.23 346.405,266.027 350.208,270.465 354.011,274.524 357.813,278.185 361.616,281.427 365.419,284.234 369.222,286.588 373.024,288.474 376.827,289.876 380.63,290.781 384.433,291.176 388.235,291.052 " id="id0000000027" stroke-width="1.000000" stroke-linecap="round" fill="none" stroke="#1f77b4" />
<polyline points="11.7647,98.0701 15.5674,89.1005 19.3702,85.3851 23.1729,82.5343 26.9756,80.1309 30.7784,78.0134 34.5811,76.0991 38.3838,74.3387 42.1866,72.7002 45.9893,71.1612 49.792,69.7057 53.5948,68.3212 57.3975,66.9984 61.2002,65.7297 65.003,64.5089 68.8057,63.3309 72.6084,62.1916 76.4112,61.0874 80.2139,60.0152 84.0166,58.9724 87.8194,57.9568 91.6221,56.9661 95.4248,55.9989 99.2276,55.0533 103.03,54.1281 106.833,53.222 110.636,52.3339 114.438,51.4626 118.241,50.6074 122.044,49.7672 125.847,48.9415 129.649,48.1294 133.452,47.3303 137.255,46.5436 141.058,45.7687 144.86,45.0051 148.663,44.2524 152.466,43.5101 156.269,42.7777 160.071,42.0549 163.874,41.3413 167.677,40.6365 171.479,39.9403 175.282,39.2524 179.085,38.5724 182.888,37.9001 186.69,37.2352 190.493,36.5775 194.296,35.9268 198.099,35.2828 201.901,34.6453 205.704,34.0142 209.507,33.3893 213.309,32.7703 217.112,32.1572 220.915,31.5497 224.718,30.9477 228.52,30.351 232.323,29.7596 236.126,29.1732 239.929,28.5918 243.731,28.0152 247.534,27.4433 251.337,26.876 255.139,26.3132 258.942,25.7548 262.745,25.2006 266.548,24.6506 270.35,24.1048 274.153,23.5629 277.956,23.0249 281.759,22.4908 285.561,21.9604 289.364,21.4337 293.167,20.9106 296.969,20.391 300.772,19.8748 304.575,19.3621 308.378,18.8526 312.18,18.3464 315.983,17.8434 319.786,17.3436 323.589,16.8468 327.391,16.353 331.194,15.8622 334.997,15.3743 338.8,14.8893 342.602,14.4071 346.405,13.9276 350.208,13.4509 354.011,12.9769 357.813,12.5054 361.616,12.0366 365.419,11.5703 369.222,11.1064 373.024,10.6451 376.827,10.1862 380.63,9.72961 384.433,9.27542 388.235,8.82353 " id="id0000000028" stroke-width="1.000000" stroke-linecap="round" fill="none" stroke="#ff7f0e" />
</g>

<clipPath id="id0000000024clipper" >
<polygon id="id0000000029" points="0,0 0,300 400,300 400,0 " />
</clipPath>

<polygon id="id0000000030" points="0,0 0,300 400,300 400,0 " pointer-events="none" class="border" stroke-width="1.000000" fill="none" stroke="black" />

</g>

</svg>
