<svg viewBox="-26 -1 227 167" xmlns:xlink="http://www.w3.org/1999/xlink" height="100%" id="id0000000137" xmlns="http://www.w3.org/2000/svg" width="100%" >
<g id="id0000000138" >
<g clip-path="url(#id0000000138clipper)" fill="none" vector-effect="non-scaling-stroke" class="area" id="id0000000139" style="pointer-events: all; " >
<polyline points="5.88235,77.1037 6.35412,77.0941 6.82589,77.0653 7.29766,77.0174 7.76943,76.9507 8.24119,76.8655 8.71296,76.7623 9.18473,76.6415 9.6565,76.5038 10.1283,76.3499 10.6,76.1806 11.0718,75.9966 11.5436,75.799 12.0153,75.5888 12.4871,75.3671 12.9589,75.1349 13.4306,74.8936 13.9024,74.6445 14.3742,74.3887 14.846,74.1278 15.3177,73.8632 15.7895,73.5962 16.2613,73.3284 16.733,73.0614 17.2048,72.7965 17.6766,72.5355 18.1483,72.2798 18.6201,72.031 19.0919,71.7907 19.5636,71.5604 20.0354,71.3416 20.5072,71.1359 20.9789,70.9447 21.4507,70.7694 21.9225,70.6115 22.3942,70.4723 22.866,70.3531 23.3378,70.2552 23.8095,70.1797 24.2813,70.1277 24.7531,70.1002 25.2248,70.0983 25.6966,70.1228 26.1684,70.1744 26.6401,70.2539 27.1119,70.3618 27.5837,70.4987 28.0554,70.6649 28.5272,70.8607 28.999,71.0864 29.4707,71.3419 29.9425,71.6272 30.4143,71.9421 30.8861,72.2865 31.3578,72.6599 31.8296,73.0618 32.3014,73.4915 32.7731,73.9485 33.2449,74.4317 33.7167,74.9404 34.1884,75.4733 34.6602,76.0294 35.132,76.6073 35.6037,77.2057 36.0755,77.823 36.5473,78.4578 37.019,79.1084 37.4908,79.7729 37.9626,80.4496 38.4343,81.1365 38.9061,81.8317 39.3779,82.5331 39.8496,83.2386 40.3214,83.9461 40.7932,84.6532 41.2649,85.3578 41.7367,86.0575 42.2085,86.7501 42.6802,87.4332 43.152,88.1045 43.6238,88.7616 44.0956,89.402 44.5673,90.0236 45.0391,90.624 45.5109,91.2008 45.9826,91.7519 46.4544,92.2749 46.9262,92.7677 47.3979,93.2281 47.8697,93.6542 48.3415,94.0439 48.8132,94.3954 49.285,94.7067 49.7568,94.9762 50.2286,95.2022 50.7003,95.3832 51.1721,95.5178 51.6439,95.6046 52.1156,95.6426 52.5874,95.6307 53.0592,95.5679 53.5309,95.4536 54.0027,95.2869 54.4745,95.0676 54.9463,94.7952 55.418,94.4696 55.8898,94.0907 56.3616,93.6586 56.8333,93.1738 57.3051,92.6365 57.7769,92.0475 58.2486,91.4075 58.7204,90.7174 59.1922,89.9784 59.664,89.1917 60.1357,88.3587 60.6075,87.481 61.0793,86.5603 61.551,85.5985 62.0228,84.5976 62.4946,83.5598 62.9663,82.4874 63.4381,81.3828 63.9099,80.2486 64.3817,79.0874 64.8534,77.9022 65.3252,76.6956 65.797,75.4709 66.2687,74.231 66.7405,72.9792 67.2123,71.7187 67.684,70.4529 68.1558,69.1851 68.6276,67.9189 69.0994,66.6576 69.5711,65.4049 70.0429,64.1641 70.5147,62.9391 70.9864,61.7331 71.4582,60.5499 71.93,59.393 72.4017,58.2658 72.8735,57.1718 73.3453,56.1145 73.8171,55.0971 74.2888,54.1231 74.7606,53.1956 75.2324,52.3177 75.7041,51.4925 76.1759,50.7228 76.6477,50.0115 77.1194,49.3613 77.5912,48.7747 78.063,48.254 78.5348,47.8015 79.0065,47.4193 79.4783,47.1093 79.9501,46.8733 80.4218,46.7127 80.8936,46.629 81.3654,46.6233 81.8371,46.6966 82.3089,46.8496 82.7807,47.083 83.2525,47.397 83.7242,47.7917 84.196,48.2672 84.6678,48.8231 85.1395,49.4587 85.6113,50.1735 86.0831,50.9664 86.5548,51.8363 87.0266,52.7816 87.4984,53.8008 87.9702,54.8919 88.4419,56.053 88.9137,57.2818 89.3855,58.5757 89.8572,59.9321 90.329,61.348 90.8008,62.8204 91.2725,64.3461 91.7443,65.9216 92.2161,67.5433 92.6879,69.2074 93.1596,70.91 93.6314,72.647 94.1032,74.4143 94.5749,76.2075 95.0467,78.0221 95.5185,79.8538 95.9902,81.6977 96.462,83.5492 96.9338,85.4036 97.4056,87.256 97.8773,89.1016 98.3491,90.9354 98.8209,92.7525 99.2926,94.5481 99.7644,96.3171 100.236,98.0548 100.708,99.7563 101.18,101.417 101.651,103.031 102.123,104.596 102.595,106.105 103.067,107.555 103.539,108.941 104.01,110.259 104.482,111.505 104.954,112.675 105.426,113.766 105.897,114.773 106.369,115.693 106.841,116.523 107.313,117.261 107.784,117.902 108.256,118.446 108.728,118.889 109.2,119.229 109.672,119.465 110.143,119.595 110.615,119.617 111.087,119.532 111.559,119.337 112.03,119.033 112.502,118.619 112.974,118.096 113.446,117.464 113.918,116.723 114.389,115.874 114.861,114.92 115.333,113.86 115.805,112.698 116.276,111.436 116.748,110.075 117.22,108.618 117.692,107.069 118.163,105.43 118.635,103.706 119.107,101.899 119.579,100.014 120.051,98.055 120.522,96.0265 120.994,93.933 121.466,91.7796 121.938,89.5711 122.409,87.3129 122.881,85.0104 123.353,82.6692 123.825,80.2949 124.296,77.8934 124.768,75.4707 125.24,73.0329 125.712,70.5861 126.184,68.1365 126.655,65.6903 127.127,63.254 127.599,60.8338 128.071,58.4361 128.542,56.0672 129.014,53.7334 129.486,51.441 129.958,49.1962 130.429,47.0051 130.901,44.8736 131.373,42.8079 131.845,40.8135 132.317,38.8962 132.788,37.0615 133.26,35.3147 133.732,33.6608 134.204,32.1049 134.675,30.6516 135.147,29.3054 135.619,28.0705 136.091,26.951 136.562,25.9504 137.034,25.0722 137.506,24.3195 137.978,23.6952 138.45,23.2018 138.921,22.8414 139.393,22.616 139.865,22.5269 140.337,22.5755 140.808,22.7626 141.28,23.0886 141.752,23.5537 142.224,24.1576 142.695,24.8998 143.167,25.7793 143.639,26.7948 144.111,27.9447 144.583,29.2268 145.054,30.639 145.526,32.1783 145.998,33.8417 146.47,35.6259 146.941,37.5271 147.413,39.5411 147.885,41.6637 148.357,43.8901 148.828,46.2153 149.3,48.634 149.772,51.1407 150.244,53.7295 150.716,56.3945 151.187,59.1292 151.659,61.9273 152.131,64.7818 152.603,67.686 153.074,70.6327 153.546,73.6148 154.018,76.6248 154.49,79.6552 154.961,82.6985 155.433,85.7469 155.905,88.7928 156.377,91.8284 156.849,94.8458 157.32,97.8373 157.792,100.795 158.264,103.712 158.736,106.579 159.207,109.389 159.679,112.136 160.151,114.81 160.623,117.406 161.094,119.916 161.566,122.334 162.038,124.651 162.51,126.863 162.981,128.962 163.453,130.943 163.925,132.8 164.397,134.528 164.868,136.121 165.34,137.574 165.812,138.883 166.284,140.045 166.756,141.054 167.227,141.907 167.699,142.602 168.171,143.136 168.643,143.507 169.114,143.712 169.586,143.75 170.058,143.62 170.53,143.321 171.001,142.854 171.473,142.218 171.945,141.414 172.417,140.444 172.888,139.308 173.36,138.009 173.832,136.549 174.304,134.93 174.775,133.157 175.247,131.232 175.719,129.161 176.191,126.946 176.663,124.593 177.134,122.108 177.606,119.495 178.078,116.761 178.55,113.912 179.021,110.955 179.493,107.896 179.965,104.743 180.437,101.503 180.908,98.1842 181.38,94.7941 181.852,91.3411 182.324,87.8337 182.795,84.2804 183.267,80.6901 183.739,77.0716 184.211,73.4339 184.682,69.7861 185.154,66.1375 185.626,62.4973 186.098,58.8747 186.569,55.279 187.041,51.7195 187.513,48.2054 187.985,44.7458 188.457,41.3497 188.928,38.0261 189.4,34.7838 189.872,31.6313 190.344,28.5772 190.815,25.6297 191.287,22.7967 191.759,20.0861 192.231,17.5053 192.702,15.0615 193.174,12.7615 193.646,10.612 194.118,8.61916 " id="id0000000141" stroke-width="1.000000" stroke-linecap="round" fill="none" stroke="green" />
<polyline points="5.88235,77.1037 6.35412,76.9114 6.82589,76.7205 7.29766,76.5325 7.76943,76.3488 8.24119,76.1709 8.71296,76 9.18473,75.8376 9.6565,75.6849 10.1283,75.5433 10.6,75.4139 11.0718,75.298 11.5436,75.1967 12.0153,75.111 12.4871,75.0419 12.9589,74.9904 13.4306,74.9573 13.9024,74.9433 14.3742,74.9492 14.846,74.9756 15.3177,75.023 15.7895,75.0917 16.2613,75.1822 16.733,75.2946 17.2048,75.4292 17.6766,75.5858 18.1483,75.7645 18.6201,75.9651 19.0919,76.1873 19.5636,76.4308 20.0354,76.6951 20.5072,76.9796 20.9789,77.2836 21.4507,77.6064 21.9225,77.9472 22.3942,78.3049 22.866,78.6786 23.3378,79.0671 23.8095,79.4692 24.2813,79.8836 24.7531,80.3089 25.2248,80.7437 25.6966,81.1865 26.1684,81.6357 26.6401,82.0896 27.1119,82.5467 27.5837,83.0051 28.0554,83.4632 28.5272,83.919 28.999,84.3708 29.4707,84.8168 29.9425,85.2549 30.4143,85.6834 30.8861,86.1004 31.3578,86.504 31.8296,86.8924 32.3014,87.2636 32.7731,87.6158 33.2449,87.9473 33.7167,88.2564 34.1884,88.5412 34.6602,88.8001 35.132,89.0316 35.6037,89.234 36.0755,89.406 36.5473,89.5461 37.019,89.653 37.4908,89.7255 37.9626,89.7625 38.4343,89.7629 38.9061,89.7258 39.3779,89.6505 39.8496,89.5361 40.3214,89.3821 40.7932,89.1881 41.2649,88.9537 41.7367,88.6787 42.2085,88.3629 42.6802,88.0065 43.152,87.6096 43.6238,87.1725 44.0956,86.6957 44.5673,86.1798 45.0391,85.6254 45.5109,85.0334 45.9826,84.4048 46.4544,83.7407 46.9262,83.0424 47.3979,82.3113 47.8697,81.5489 48.3415,80.7567 48.8132,79.9366 49.285,79.0905 49.7568,78.2202 50.2286,77.3279 50.7003,76.4159 51.1721,75.4863 51.6439,74.5416 52.1156,73.5842 52.5874,72.6167 53.0592,71.6417 53.5309,70.6619 54.0027,69.6801 54.4745,68.699 54.9463,67.7214 55.418,66.7504 55.8898,65.7886 56.3616,64.8391 56.8333,63.9049 57.3051,62.9887 57.7769,62.0935 58.2486,61.2223 58.7204,60.378 59.1922,59.5632 59.664,58.781 60.1357,58.0339 60.6075,57.3247 61.0793,56.656 61.551,56.0303 62.0228,55.4501 62.4946,54.9178 62.9663,54.4355 63.4381,54.0054 63.9099,53.6296 64.3817,53.3098 64.8534,53.048 65.3252,52.8456 65.797,52.7042 66.2687,52.6251 66.7405,52.6093 67.2123,52.6581 67.684,52.772 68.1558,52.9518 68.6276,53.1981 69.0994,53.5109 69.5711,53.8905 70.0429,54.3368 70.5147,54.8496 70.9864,55.4283 71.4582,56.0722 71.93,56.7807 72.4017,57.5526 72.8735,58.3868 73.3453,59.2817 73.8171,60.2359 74.2888,61.2475 74.7606,62.3145 75.2324,63.4349 75.7041,64.6064 76.1759,65.8263 76.6477,67.0922 77.1194,68.4011 77.5912,69.7502 78.063,71.1362 78.5348,72.556 79.0065,74.0062 79.4783,75.4833 79.9501,76.9837 80.4218,78.5036 80.8936,80.0392 81.3654,81.5867 81.8371,83.142 82.3089,84.7011 82.7807,86.2598 83.2525,87.8141 83.7242,89.3597 84.196,90.8925 84.6678,92.4081 85.1395,93.9024 85.6113,95.3712 86.0831,96.8102 86.5548,98.2154 87.0266,99.5825 87.4984,100.908 87.9702,102.187 88.4419,103.416 88.9137,104.591 89.3855,105.709 89.8572,106.766 90.329,107.759 90.8008,108.683 91.2725,109.537 91.7443,110.316 92.2161,111.019 92.6879,111.642 93.1596,112.183 93.6314,112.64 94.1032,113.01 94.5749,113.292 95.0467,113.484 95.5185,113.585 95.9902,113.593 96.462,113.507 96.9338,113.328 97.4056,113.053 97.8773,112.683 98.3491,112.218 98.8209,111.658 99.2926,111.004 99.7644,110.256 100.236,109.416 100.708,108.485 101.18,107.464 101.651,106.355 102.123,105.16 102.595,103.881 103.067,102.522 103.539,101.084 104.01,99.5709 104.482,97.9856 104.954,96.3317 105.426,94.6128 105.897,92.8328 106.369,90.9957 106.841,89.1057 107.313,87.1674 107.784,85.1852 108.256,83.1639 108.728,81.1085 109.2,79.0239 109.672,76.9152 110.143,74.7878 110.615,72.6469 111.087,70.4981 111.559,68.3467 112.03,66.1984 112.502,64.0587 112.974,61.9333 113.446,59.8277 113.918,57.7476 114.389,55.6986 114.861,53.6862 115.333,51.7161 115.805,49.7935 116.276,47.9239 116.748,46.1126 117.22,44.3647 117.692,42.6854 118.163,41.0794 118.635,39.5515 119.107,38.1064 119.579,36.7485 120.051,35.4818 120.522,34.3106 120.994,33.2386 121.466,32.2693 121.938,31.4061 122.409,30.652 122.881,30.0099 123.353,29.4823 123.825,29.0716 124.296,28.7796 124.768,28.6081 125.24,28.5584 125.712,28.6317 126.184,28.8287 126.655,29.1499 127.127,29.5954 127.599,30.165 128.071,30.8583 128.542,31.6744 129.014,32.6121 129.486,33.6699 129.958,34.8461 130.429,36.1386 130.901,37.5448 131.373,39.0621 131.845,40.6873 132.317,42.4171 132.788,44.2479 133.26,46.1757 133.732,48.1963 134.204,50.3051 134.675,52.4975 135.147,54.7684 135.619,57.1125 136.091,59.5245 136.562,61.9985 137.034,64.5288 137.506,67.1092 137.978,69.7335 138.45,72.3952 138.921,75.0879 139.393,77.8049 139.865,80.5394 140.337,83.2845 140.808,86.0333 141.28,88.7788 141.752,91.5138 142.224,94.2315 142.695,96.9247 143.167,99.5863 143.639,102.209 144.111,104.787 144.583,107.312 145.054,109.778 145.526,112.178 145.998,114.505 146.47,116.754 146.941,118.917 147.413,120.989 147.885,122.964 148.357,124.836 148.828,126.6 149.3,128.25 149.772,129.781 150.244,131.19 150.716,132.471 151.187,133.62 151.659,134.634 152.131,135.509 152.603,136.242 153.074,136.83 153.546,137.271 154.018,137.563 154.49,137.704 154.961,137.692 155.433,137.528 155.905,137.209 156.377,136.737 156.849,136.111 157.32,135.332 157.792,134.401 158.264,133.319 158.736,132.089 159.207,130.712 159.679,129.191 160.151,127.529 160.623,125.73 161.094,123.797 161.566,121.734 162.038,119.546 162.51,117.237 162.981,114.814 163.453,112.28 163.925,109.642 164.397,106.907 164.868,104.08 165.34,101.167 165.812,98.1773 166.284,95.1163 166.756,91.9918 167.227,88.8113 167.699,85.5826 168.171,82.3136 168.643,79.0124 169.114,75.6872 169.586,72.3463 170.058,68.9981 170.53,65.6511 171.001,62.3137 171.473,58.9945 171.945,55.702 172.417,52.4448 172.888,49.2312 173.36,46.0698 173.832,42.9687 174.304,39.9363 174.775,36.9806 175.247,34.1095 175.719,31.3309 176.191,28.6521 176.663,26.0807 177.134,23.6237 177.606,21.2879 178.078,19.0801 178.55,17.0063 179.021,15.0728 179.493,13.2851 179.965,11.6485 180.437,10.168 180.908,8.84821 181.38,7.69337 181.852,6.70724 182.324,5.89326 182.795,5.25438 183.267,4.79317 183.739,4.51175 184.211,4.41177 184.682,4.49445 185.154,4.76054 185.626,5.21032 186.098,5.84363 186.569,6.65981 187.041,7.65776 187.513,8.83589 187.985,10.1922 188.457,11.724 188.928,13.4286 189.4,15.3023 189.872,17.3414 190.344,19.5415 190.815,21.8979 191.287,24.4054 191.759,27.0584 192.231,29.8509 192.702,32.7767 193.174,35.8289 193.646,39.0005 194.118,42.284 " id="id0000000142" stroke-width="1.000000" stroke-linecap="round" fill="none" stroke="red" />
<polyline points="5.88235,77.1037 6.35412,77.1133 6.82589,77.1421 7.29766,77.19 7.76943,77.2567 8.24119,77.3419 8.71296,77.4451 9.18473,77.5659 9.6565,77.7036 10.1283,77.8575 10.6,78.0268 11.0718,78.2108 11.5436,78.4084 12.0153,78.6186 12.4871,78.8403 12.9589,79.0725 13.4306,79.3138 13.9024,79.5629 14.3742,79.8187 14.846,80.0796 15.3177,80.3442 15.7895,80.6112 16.2613,80.879 16.733,81.146 17.2048,81.4109 17.6766,81.6719 18.1483,81.9276 18.6201,82.1764 19.0919,82.4167 19.5636,82.647 20.0354,82.8658 20.5072,83.0715 20.9789,83.2627 21.4507,83.438 21.9225,83.5959 22.3942,83.7351 22.866,83.8543 23.3378,83.9522 23.8095,84.0277 24.2813,84.0797 24.7531,84.1072 25.2248,84.1091 25.6966,84.0846 26.1684,84.033 26.6401,83.9535 27.1119,83.8456 27.5837,83.7087 28.0554,83.5425 28.5272,83.3467 28.999,83.121 29.4707,82.8655 29.9425,82.5802 30.4143,82.2653 30.8861,81.9209 31.3578,81.5475 31.8296,81.1456 32.3014,80.7159 32.7731,80.2589 33.2449,79.7757 33.7167,79.267 34.1884,78.7341 34.6602,78.178 35.132,77.6001 35.6037,77.0017 36.0755,76.3844 36.5473,75.7496 37.019,75.099 37.4908,74.4345 37.9626,73.7578 38.4343,73.0709 38.9061,72.3757 39.3779,71.6742 39.8496,70.9688 40.3214,70.2613 40.7932,69.5542 41.2649,68.8496 41.7367,68.1498 42.2085,67.4573 42.6802,66.7742 43.152,66.1029 43.6238,65.4458 44.0956,64.8054 44.5673,64.1838 45.0391,63.5834 45.5109,63.0066 45.9826,62.4555 46.4544,61.9325 46.9262,61.4397 47.3979,60.9792 47.8697,60.5532 48.3415,60.1635 48.8132,59.812 49.285,59.5007 49.7568,59.2312 50.2286,59.0052 50.7003,58.8242 51.1721,58.6896 51.6439,58.6028 52.1156,58.5648 52.5874,58.5767 53.0592,58.6395 53.5309,58.7538 54.0027,58.9205 54.4745,59.1398 54.9463,59.4122 55.418,59.7378 55.8898,60.1167 56.3616,60.5488 56.8333,61.0336 57.3051,61.5709 57.7769,62.1599 58.2486,62.7999 58.7204,63.49 59.1922,64.229 59.664,65.0157 60.1357,65.8487 60.6075,66.7264 61.0793,67.6471 61.551,68.6089 62.0228,69.6098 62.4946,70.6476 62.9663,71.72 63.4381,72.8246 63.9099,73.9588 64.3817,75.1199 64.8534,76.3052 65.3252,77.5118 65.797,78.7365 66.2687,79.9764 66.7405,81.2282 67.2123,82.4887 67.684,83.7545 68.1558,85.0223 68.6276,86.2885 69.0994,87.5498 69.5711,88.8025 70.0429,90.0433 70.5147,91.2683 70.9864,92.4743 71.4582,93.6575 71.93,94.8144 72.4017,95.9416 72.8735,97.0356 73.3453,98.0929 73.8171,99.1103 74.2888,100.084 74.7606,101.012 75.2324,101.89 75.7041,102.715 76.1759,103.485 76.6477,104.196 77.1194,104.846 77.5912,105.433 78.063,105.953 78.5348,106.406 79.0065,106.788 79.4783,107.098 79.9501,107.334 80.4218,107.495 80.8936,107.578 81.3654,107.584 81.8371,107.511 82.3089,107.358 82.7807,107.124 83.2525,106.81 83.7242,106.416 84.196,105.94 84.6678,105.384 85.1395,104.749 85.6113,104.034 86.0831,103.241 86.5548,102.371 87.0266,101.426 87.4984,100.407 87.9702,99.3155 88.4419,98.1544 88.9137,96.9256 89.3855,95.6317 89.8572,94.2753 90.329,92.8594 90.8008,91.3869 91.2725,89.8613 91.7443,88.2858 92.2161,86.6641 92.6879,85 93.1596,83.2974 93.6314,81.5604 94.1032,79.7931 94.5749,77.9999 95.0467,76.1853 95.5185,74.3536 95.9902,72.5097 96.462,70.6582 96.9338,68.8038 97.4056,66.9514 97.8773,65.1058 98.3491,63.272 98.8209,61.4549 99.2926,59.6593 99.7644,57.8903 100.236,56.1526 100.708,54.4511 101.18,52.7906 101.651,51.1759 102.123,49.6116 102.595,48.1023 103.067,46.6524 103.539,45.2662 104.01,43.9481 104.482,42.702 104.954,41.532 105.426,40.4417 105.897,39.4347 106.369,38.5145 106.841,37.6842 107.313,36.9468 107.784,36.3052 108.256,35.7617 108.728,35.3188 109.2,34.9785 109.672,34.7427 110.143,34.6128 110.615,34.5901 111.087,34.6757 111.559,34.8704 112.03,35.1745 112.502,35.5882 112.974,36.1115 113.446,36.7439 113.918,37.4848 114.389,38.3331 114.861,39.2877 115.333,40.3469 115.805,41.5089 116.276,42.7716 116.748,44.1326 117.22,45.5892 117.692,47.1384 118.163,48.7771 118.635,50.5016 119.107,52.3084 119.579,54.1934 120.051,56.1524 120.522,58.1809 120.994,60.2744 121.466,62.4278 121.938,64.6363 122.409,66.8945 122.881,69.197 123.353,71.5382 123.825,73.9125 124.296,76.314 124.768,78.7366 125.24,81.1745 125.712,83.6213 126.184,86.0709 126.655,88.5171 127.127,90.9534 127.599,93.3736 128.071,95.7713 128.542,98.1402 129.014,100.474 129.486,102.766 129.958,105.011 130.429,107.202 130.901,109.334 131.373,111.4 131.845,113.394 132.317,115.311 132.788,117.146 133.26,118.893 133.732,120.547 134.204,122.102 134.675,123.556 135.147,124.902 135.619,126.137 136.091,127.256 136.562,128.257 137.034,129.135 137.506,129.888 137.978,130.512 138.45,131.006 138.921,131.366 139.393,131.591 139.865,131.68 140.337,131.632 140.808,131.445 141.28,131.119 141.752,130.654 142.224,130.05 142.695,129.308 143.167,128.428 143.639,127.413 144.111,126.263 144.583,124.981 145.054,123.568 145.526,122.029 145.998,120.366 146.47,118.581 146.941,116.68 147.413,114.666 147.885,112.544 148.357,110.317 148.828,107.992 149.3,105.573 149.772,103.067 150.244,100.478 150.716,97.8129 151.187,95.0782 151.659,92.2801 152.131,89.4256 152.603,86.5214 153.074,83.5747 153.546,80.5926 154.018,77.5826 154.49,74.5522 154.961,71.5089 155.433,68.4605 155.905,65.4146 156.377,62.379 156.849,59.3616 157.32,56.3701 157.792,53.4123 158.264,50.4959 158.736,47.6286 159.207,44.8181 159.679,42.0717 160.151,39.3969 160.623,36.801 161.094,34.291 161.566,31.8738 162.038,29.5561 162.51,27.3445 162.981,25.2451 163.453,23.264 163.925,21.407 164.397,19.6795 164.868,18.0866 165.34,16.6333 165.812,15.3239 166.284,14.1628 166.756,13.1537 167.227,12.3 167.699,11.6049 168.171,11.0711 168.643,10.7007 169.114,10.4958 169.586,10.4578 170.058,10.5877 170.53,10.8862 171.001,11.3535 171.473,11.9893 171.945,12.7931 172.417,13.7636 172.888,14.8995 173.36,16.1987 173.832,17.6588 174.304,19.2772 174.775,21.0504 175.247,22.975 175.719,25.0468 176.191,27.2615 176.663,29.6141 177.134,32.0995 177.606,34.7121 178.078,37.4461 178.55,40.295 179.021,43.2523 179.493,46.3111 179.965,49.4643 180.437,52.7042 180.908,56.0232 181.38,59.4133 181.852,62.8663 182.324,66.3737 182.795,69.9269 183.267,73.5173 183.739,77.1358 184.211,80.7735 184.682,84.4213 185.154,88.0699 185.626,91.7101 186.098,95.3327 186.569,98.9284 187.041,102.488 187.513,106.002 187.985,109.462 188.457,112.858 188.928,116.181 189.4,119.424 189.872,122.576 190.344,125.63 190.815,128.578 191.287,131.411 191.759,134.121 192.231,136.702 192.702,139.146 193.174,141.446 193.646,143.595 194.118,145.588 " id="id0000000143" stroke-width="0.500000" stroke-linecap="round" fill="none" stroke="blue" />
</g>

<clipPath id="id0000000138clipper" >
<polygon id="id0000000144" points="0,0 0,150 200,150 200,0 " />
</clipPath>

<polygon id="id0000000145" points="0,0 0,150 200,150 200,0 " pointer-events="none" class="border" stroke-width="1.000000" fill="none" stroke="black" />
<polyline points="5.88235,150 5.88235,153 " id="id0000000146" fill="none" stroke="black" class="line" stroke-width="1.000000" />
<text transform="matrix(1 0 0 1 0 0)" x="5.882353" y="155.000000" id="id0000000147" text-anchor="middle" font-size="10.000000px" dominant-baseline="hanging" >
0
</text>

<polyline points="43.6238,150 43.6238,153 " id="id0000000148" fill="none" stroke="black" class="line" stroke-width="1.000000" />
<text transform="matrix(1 0 0 1 0 0)" x="43.623802" y="155.000000" id="id0000000149" text-anchor="middle" font-size="10.000000px" dominant-baseline="hanging" >
4
</text>

<polyline points="81.3653,150 81.3653,153 " id="id0000000150" fill="none" stroke="black" class="line" stroke-width="1.000000" />
<text transform="matrix(1 0 0 1 0 0)" x="81.365257" y="155.000000" id="id0000000151" text-anchor="middle" font-size="10.000000px" dominant-baseline="hanging" >
8
</text>

<polyline points="119.107,150 119.107,153 " id="id0000000152" fill="none" stroke="black" class="line" stroke-width="1.000000" />
<text transform="matrix(1 0 0 1 0 0)" x="119.106712" y="155.000000" id="id0000000153" text-anchor="middle" font-size="10.000000px" dominant-baseline="hanging" >
12
</text>

<polyline points="156.848,150 156.848,153 " id="id0000000154" fill="none" stroke="black" class="line" stroke-width="1.000000" />
<text transform="matrix(1 0 0 1 0 0)" x="156.848145" y="155.000000" id="id0000000155" text-anchor="middle" font-size="10.000000px" dominant-baseline="hanging" >
16
</text>

<polyline points="194.59,150 194.59,153 " id="id0000000156" fill="none" stroke="black" class="line" stroke-width="1.000000" />
<text transform="matrix(1 0 0 1 0 0)" x="194.589584" y="155.000000" id="id0000000157" text-anchor="middle" font-size="10.000000px" dominant-baseline="hanging" >
20
</text>

<polyline points="-3,131.018 0,131.018 " id="id0000000158" fill="none" stroke="black" class="line" stroke-width="1.000000" />
<text transform="matrix(1 0 0 1 0 0)" x="-5.000000" y="131.018158" id="id0000000159" text-anchor="end" font-size="10.000000px" dominant-baseline="middle" >
-14
</text>

<polyline points="-3,104.061 0,104.061 " id="id0000000160" fill="none" stroke="black" class="line" stroke-width="1.000000" />
<text transform="matrix(1 0 0 1 0 0)" x="-5.000000" y="104.060928" id="id0000000161" text-anchor="end" font-size="10.000000px" dominant-baseline="middle" >
-7
</text>

<polyline points="-3,77.1037 0,77.1037 " id="id0000000162" fill="none" stroke="black" class="line" stroke-width="1.000000" />
<text transform="matrix(1 0 0 1 0 0)" x="-5.000000" y="77.103691" id="id0000000163" text-anchor="end" font-size="10.000000px" dominant-baseline="middle" >
0
</text>

<polyline points="-3,50.1465 0,50.1465 " id="id0000000164" fill="none" stroke="black" class="line" stroke-width="1.000000" />
<text transform="matrix(1 0 0 1 0 0)" x="-5.000000" y="50.146469" id="id0000000165" text-anchor="end" font-size="10.000000px" dominant-baseline="middle" >
7
</text>

<polyline points="-3,23.1892 0,23.1892 " id="id0000000166" fill="none" stroke="black" class="line" stroke-width="1.000000" />
<text transform="matrix(1 0 0 1 0 0)" x="-5.000000" y="23.189247" id="id0000000167" text-anchor="end" font-size="10.000000px" dominant-baseline="middle" >
14
</text>


</g>

</svg>
