<svg viewBox="-1 -1 402 302" xmlns:xlink="http://www.w3.org/1999/xlink" height="100%" id="id0000000016" xmlns="http://www.w3.org/2000/svg" width="100%" >
<g id="id0000000017" >
<g clip-path="url(#id0000000017clipper)" fill="none" vector-effect="non-scaling-stroke" class="area" id="id0000000018" style="pointer-events: all; " >
<polyline points="40,76.2793 43.2323,223.489 46.4646,75.5433 49.697,224.229 52.9293,74.7998 56.1616,224.976 59.3939,74.0489 62.6263,225.731 65.8586,73.2905 69.0909,226.493 72.3232,72.5245 75.5556,227.263 78.7879,71.7508 82.0202,228.04 85.2525,70.9694 88.4848,228.826 91.7172,70.1801 94.9495,229.619 98.1818,69.3829 101.414,230.42 104.646,68.5777 107.879,231.229 111.111,67.7645 114.343,232.047 117.576,66.9431 120.808,232.872 124.04,66.1134 127.273,233.706 130.505,65.2755 133.737,234.548 136.97,64.4291 140.202,235.399 143.434,63.5743 146.667,236.258 149.899,62.7108 153.131,237.126 156.364,61.8388 159.596,238.002 162.828,60.958 166.061,238.887 169.293,60.0683 172.525,239.781 175.758,59.1697 178.99,240.684 182.222,58.2622 185.454,241.597 188.687,57.3455 191.919,242.518 195.151,56.4196 198.384,243.448 201.616,55.4845 204.848,244.388 208.081,54.54 211.313,245.337 214.545,53.586 217.778,246.296 221.01,52.6224 224.242,247.264 227.475,51.6492 230.707,248.243 233.939,50.6663 237.172,249.23 240.404,49.6734 243.636,250.228 246.869,48.6707 250.101,251.236 253.333,47.6578 256.565,252.254 259.798,46.6349 263.03,253.282 266.262,45.6016 269.495,254.32 272.727,44.558 275.959,255.369 279.192,43.504 282.424,256.429 285.656,42.4394 288.889,257.498 292.121,41.3641 295.353,258.579 298.586,40.278 301.818,259.671 305.05,39.181 308.283,260.773 311.515,38.0731 314.747,261.887 317.98,36.954 321.212,263.011 324.444,35.8237 327.677,264.147 330.909,34.6821 334.141,265.295 337.374,33.529 340.606,266.453 343.838,32.3644 347.071,267.624 350.303,31.1881 353.535,268.806 356.768,30 360,270 " id="id0000000020" stroke-width="1.000000" stroke-linecap="round" fill="none" stroke="#1f77b4" />
</g>

<clipPath id="id0000000017clipper" >
<polygon id="id0000000021" points="0,0 0,300 400,300 400,0 " />
</clipPath>

<polygon id="id0000000022" points="0,0 0,300 400,300 400,0 " pointer-events="none" class="border" stroke-width="1.000000" fill="none" stroke="black" />

</g>

</svg>
