<svg viewBox="-26 -1 227 167" xmlns:xlink="http://www.w3.org/1999/xlink" height="100%" id="id0000000137" xmlns="http://www.w3.org/2000/svg" width="100%" >
<g id="id0000000138" >
<g clip-path="url(#id0000000138clipper)" fill="none" vector-effect="non-scaling-stroke" class="area" id="id0000000139" style="pointer-events: all; " >
<polyline points="5.88235,73.8611 6.35412,73.8521 6.82589,73.825 7.29766,73.78 7.76943,73.7173 8.24119,73.6372 8.71296,73.5402 9.18473,73.4267 9.6565,73.2973 10.1283,73.1526 10.6,72.9935 11.0718,72.8206 11.5436,72.6349 12.0153,72.4373 12.4871,72.2289 12.9589,72.0107 13.4306,71.7839 13.9024,71.5497 14.3742,71.3094 14.846,71.0641 15.3177,70.8154 15.7895,70.5645 16.2613,70.3128 16.733,70.0618 17.2048,69.8129 17.6766,69.5675 18.1483,69.3272 18.6201,69.0934 19.0919,68.8675 19.5636,68.651 20.0354,68.4454 20.5072,68.252 20.9789,68.0723 21.4507,67.9076 21.9225,67.7592 22.3942,67.6284 22.866,67.5163 23.3378,67.4243 23.8095,67.3533 24.2813,67.3044 24.7531,67.2786 25.2248,67.2768 25.6966,67.2998 26.1684,67.3484 26.6401,67.4231 27.1119,67.5245 27.5837,67.6532 28.0554,67.8094 28.5272,67.9934 28.999,68.2055 29.4707,68.4456 29.9425,68.7138 30.4143,69.0098 30.8861,69.3335 31.3578,69.6844 31.8296,70.0621 32.3014,70.4661 32.7731,70.8956 33.2449,71.3498 33.7167,71.8278 34.1884,72.3287 34.6602,72.8514 35.132,73.3945 35.6037,73.9569 36.0755,74.5372 36.5473,75.1338 37.019,75.7453 37.4908,76.3699 37.9626,77.0059 38.4343,77.6515 38.9061,78.3049 39.3779,78.9642 39.8496,79.6273 40.3214,80.2922 40.7932,80.9568 41.2649,81.619 41.7367,82.2767 42.2085,82.9277 42.6802,83.5697 43.152,84.2006 43.6238,84.8182 44.0956,85.4202 44.5673,86.0044 45.0391,86.5687 45.5109,87.1108 45.9826,87.6287 46.4544,88.1203 46.9262,88.5835 47.3979,89.0163 47.8697,89.4167 48.3415,89.783 48.8132,90.1133 49.285,90.4059 49.7568,90.6592 50.2286,90.8716 50.7003,91.0417 51.1721,91.1682 51.6439,91.2499 52.1156,91.2856 52.5874,91.2744 53.0592,91.2154 53.5309,91.1079 54.0027,90.9513 54.4745,90.7451 54.9463,90.4891 55.418,90.1831 55.8898,89.8269 56.3616,89.4209 56.8333,88.9651 57.3051,88.4602 57.7769,87.9066 58.2486,87.305 58.7204,86.6565 59.1922,85.9619 59.664,85.2224 60.1357,84.4395 60.6075,83.6146 61.0793,82.7492 61.551,81.8453 62.0228,80.9045 62.4946,79.9291 62.9663,78.9212 63.4381,77.883 63.9099,76.817 64.3817,75.7256 64.8534,74.6116 65.3252,73.4776 65.797,72.3264 66.2687,71.1611 66.7405,69.9845 67.2123,68.7998 67.684,67.6101 68.1558,66.4185 68.6276,65.2284 69.0994,64.043 69.5711,62.8655 70.0429,61.6994 70.5147,60.5479 70.9864,59.4145 71.4582,58.3024 71.93,57.215 72.4017,56.1556 72.8735,55.1274 73.3453,54.1336 73.8171,53.1774 74.2888,52.2619 74.7606,51.3902 75.2324,50.5651 75.7041,49.7895 76.1759,49.0661 76.6477,48.3975 77.1194,47.7864 77.5912,47.235 78.063,46.7456 78.5348,46.3203 79.0065,45.9611 79.4783,45.6698 79.9501,45.4479 80.4218,45.297 80.8936,45.2183 81.3654,45.213 81.8371,45.2819 82.3089,45.4257 82.7807,45.645 83.2525,45.9401 83.7242,46.3112 84.196,46.7581 84.6678,47.2805 85.1395,47.878 85.6113,48.5498 86.0831,49.295 86.5548,50.1126 87.0266,51.0011 87.4984,51.959 87.9702,52.9846 88.4419,54.0759 88.9137,55.2307 89.3855,56.4469 89.8572,57.7217 90.329,59.0525 90.8008,60.4365 91.2725,61.8704 91.7443,63.3512 92.2161,64.8754 92.6879,66.4395 93.1596,68.0397 93.6314,69.6723 94.1032,71.3334 94.5749,73.0188 95.0467,74.7243 95.5185,76.4458 95.9902,78.1789 96.462,79.9192 96.9338,81.6621 97.4056,83.4031 97.8773,85.1377 98.3491,86.8613 98.8209,88.5692 99.2926,90.2568 99.7644,91.9196 100.236,93.5528 100.708,95.152 101.18,96.7126 101.651,98.2303 102.123,99.7006 102.595,101.119 103.067,102.482 103.539,103.785 104.01,105.024 104.482,106.195 104.954,107.295 105.426,108.319 105.897,109.266 106.369,110.131 106.841,110.911 107.313,111.604 107.784,112.207 108.256,112.718 108.728,113.134 109.2,113.454 109.672,113.676 110.143,113.798 110.615,113.819 111.087,113.739 111.559,113.556 112.03,113.27 112.502,112.881 112.974,112.389 113.446,111.795 113.918,111.098 114.389,110.301 114.861,109.404 115.333,108.408 115.805,107.316 116.276,106.129 116.748,104.85 117.22,103.481 117.692,102.025 118.163,100.485 118.635,98.864 119.107,97.1659 119.579,95.3942 120.051,93.553 120.522,91.6464 120.994,89.6788 121.466,87.6548 121.938,85.5791 122.409,83.4566 122.881,81.2925 123.353,79.092 123.825,76.8605 124.296,74.6034 124.768,72.3263 125.24,70.035 125.712,67.7353 126.184,65.4329 126.655,63.1338 127.127,60.844 127.599,58.5693 128.071,56.3157 128.542,54.0892 129.014,51.8957 129.486,49.7411 129.958,47.6312 130.429,45.5718 130.901,43.5685 131.373,41.6269 131.845,39.7524 132.317,37.9504 132.788,36.226 133.26,34.5841 133.732,33.0297 134.204,31.5673 134.675,30.2014 135.147,28.9361 135.619,27.7755 136.091,26.7232 136.562,25.7828 137.034,24.9574 137.506,24.25 137.978,23.6632 138.45,23.1994 138.921,22.8607 139.393,22.6488 139.865,22.5651 140.337,22.6108 140.808,22.7866 141.28,23.093 141.752,23.5301 142.224,24.0977 142.695,24.7953 143.167,25.622 143.639,26.5764 144.111,27.6572 144.583,28.8623 145.054,30.1895 145.526,31.6363 145.998,33.1997 146.47,34.8767 146.941,36.6635 147.413,38.5565 147.885,40.5515 148.357,42.644 148.828,44.8295 149.3,47.1028 149.772,49.4588 150.244,51.892 150.716,54.3968 151.187,56.9671 151.659,59.597 152.131,62.2799 152.603,65.0095 153.074,67.7791 153.546,70.5819 154.018,73.411 154.49,76.2592 154.961,79.1196 155.433,81.9848 155.905,84.8476 156.377,87.7007 156.849,90.5367 157.32,93.3484 157.792,96.1284 158.264,98.8694 158.736,101.564 159.207,104.206 159.679,106.787 160.151,109.301 160.623,111.741 161.094,114.1 161.566,116.372 162.038,118.55 162.51,120.629 162.981,122.602 163.453,124.464 163.925,126.21 164.397,127.833 164.868,129.331 165.34,130.697 165.812,131.927 166.284,133.018 166.756,133.967 167.227,134.769 167.699,135.423 168.171,135.924 168.643,136.272 169.114,136.465 169.586,136.501 170.058,136.379 170.53,136.098 171.001,135.659 171.473,135.061 171.945,134.306 172.417,133.394 172.888,132.326 173.36,131.105 173.832,129.733 174.304,128.212 174.775,126.545 175.247,124.736 175.719,122.789 176.191,120.707 176.663,118.496 177.134,116.16 177.606,113.704 178.078,111.135 178.55,108.457 179.021,105.678 179.493,102.803 179.965,99.839 180.437,96.7939 180.908,93.6744 181.38,90.4881 181.852,87.2427 182.324,83.9461 182.795,80.6064 183.267,77.2319 183.739,73.8309 184.211,70.4119 184.682,66.9834 185.154,63.5541 185.626,60.1327 186.098,56.7279 186.569,53.3484 187.041,50.0029 187.513,46.7 187.985,43.4483 188.457,40.2564 188.928,37.1326 189.4,34.0851 189.872,31.1222 190.344,28.2517 190.815,25.4813 191.287,22.8187 191.759,20.271 192.231,17.8453 192.702,15.5484 193.174,13.3867 193.646,11.3665 194.118,9.49337 " id="id0000000141" fill="none" stroke="green" stroke-width="0.500000" stroke-linecap="round" />
<polyline points="5.88235,73.8611 6.35412,73.6864 6.82589,73.5074 7.29766,73.3255 7.76943,73.1419 8.24119,72.9581 8.71296,72.7754 9.18473,72.5951 9.6565,72.4186 10.1283,72.2473 10.6,72.0825 11.0718,71.9255 11.5436,71.7775 12.0153,71.6398 12.4871,71.5137 12.9589,71.4002 13.4306,71.3006 13.9024,71.2157 14.3742,71.1467 14.846,71.0945 15.3177,71.06 15.7895,71.0439 16.2613,71.047 16.733,71.0699 17.2048,71.1133 17.6766,71.1775 18.1483,71.263 18.6201,71.37 19.0919,71.4989 19.5636,71.6496 20.0354,71.8223 20.5072,72.0169 20.9789,72.2331 21.4507,72.4708 21.9225,72.7295 22.3942,73.0089 22.866,73.3083 23.3378,73.6271 23.8095,73.9646 24.2813,74.3199 24.7531,74.6921 25.2248,75.0802 25.6966,75.4831 26.1684,75.8996 26.6401,76.3285 27.1119,76.7684 27.5837,77.218 28.0554,77.6757 28.5272,78.14 28.999,78.6094 29.4707,79.0822 29.9425,79.5568 30.4143,80.0313 30.8861,80.5041 31.3578,80.9733 31.8296,81.4371 32.3014,81.8938 32.7731,82.3413 33.2449,82.778 33.7167,83.202 34.1884,83.6114 34.6602,84.0043 35.132,84.3791 35.6037,84.7338 36.0755,85.0669 36.5473,85.3765 37.019,85.661 37.4908,85.9188 37.9626,86.1484 38.4343,86.3483 38.9061,86.5171 39.3779,86.6534 39.8496,86.7561 40.3214,86.8239 40.7932,86.8559 41.2649,86.851 41.7367,86.8084 42.2085,86.7273 42.6802,86.6071 43.152,86.4473 43.6238,86.2474 44.0956,86.0072 44.5673,85.7265 45.0391,85.4053 45.5109,85.0437 45.9826,84.6419 46.4544,84.2002 46.9262,83.7191 47.3979,83.1993 47.8697,82.6415 48.3415,82.0466 48.8132,81.4156 49.285,80.7497 49.7568,80.05 50.2286,79.3181 50.7003,78.5554 51.1721,77.7635 51.6439,76.9443 52.1156,76.0995 52.5874,75.2312 53.0592,74.3415 53.5309,73.4325 54.0027,72.5064 54.4745,71.5657 54.9463,70.6128 55.418,69.6502 55.8898,68.6804 56.3616,67.7062 56.8333,66.7302 57.3051,65.7553 57.7769,64.784 58.2486,63.8194 58.7204,62.8642 59.1922,61.9213 59.664,60.9935 60.1357,60.0838 60.6075,59.1949 61.0793,58.3298 61.551,57.4912 62.0228,56.6818 62.4946,55.9045 62.9663,55.162 63.4381,54.4567 63.9099,53.7913 64.3817,53.1683 64.8534,52.5899 65.3252,52.0586 65.797,51.5765 66.2687,51.1456 66.7405,50.768 67.2123,50.4455 67.684,50.1797 68.1558,49.9722 68.6276,49.8245 69.0994,49.7379 69.5711,49.7134 70.0429,49.752 70.5147,49.8545 70.9864,50.0215 71.4582,50.2535 71.93,50.5508 72.4017,50.9134 72.8735,51.3412 73.3453,51.8341 73.8171,52.3916 74.2888,53.0129 74.7606,53.6974 75.2324,54.4439 75.7041,55.2514 76.1759,56.1183 76.6477,57.0433 77.1194,58.0245 77.5912,59.06 78.063,60.1477 78.5348,61.2855 79.0065,62.4708 79.4783,63.7011 79.9501,64.9737 80.4218,66.2857 80.8936,67.634 81.3654,69.0156 81.8371,70.4272 82.3089,71.8652 82.7807,73.3264 83.2525,74.8069 83.7242,76.3032 84.196,77.8114 84.6678,79.3276 85.1395,80.848 85.6113,82.3685 86.0831,83.8852 86.5548,85.3938 87.0266,86.8905 87.4984,88.371 87.9702,89.8313 88.4419,91.2672 88.9137,92.6747 89.3855,94.0499 89.8572,95.3886 90.329,96.6869 90.8008,97.9411 91.2725,99.1472 91.7443,100.302 92.2161,101.401 92.6879,102.441 93.1596,103.419 93.6314,104.332 94.1032,105.176 94.5749,105.949 95.0467,106.648 95.5185,107.27 95.9902,107.813 96.462,108.274 96.9338,108.652 97.4056,108.944 97.8773,109.149 98.3491,109.266 98.8209,109.294 99.2926,109.231 99.7644,109.076 100.236,108.83 100.708,108.492 101.18,108.061 101.651,107.539 102.123,106.925 102.595,106.221 103.067,105.426 103.539,104.544 104.01,103.574 104.482,102.519 104.954,101.38 105.426,100.16 105.897,98.8617 106.369,97.4868 106.841,96.0386 107.313,94.5201 107.784,92.9346 108.256,91.2857 108.728,89.577 109.2,87.8124 109.672,85.996 110.143,84.1321 110.615,82.225 111.087,80.2793 111.559,78.2997 112.03,76.291 112.502,74.2582 112.974,72.2063 113.446,70.1405 113.918,68.0659 114.389,65.988 114.861,63.9119 115.333,61.8431 115.805,59.7871 116.276,57.7492 116.748,55.7348 117.22,53.7493 117.692,51.7982 118.163,49.8867 118.635,48.0201 119.107,46.2036 119.579,44.4422 120.051,42.7411 120.522,41.1049 120.994,39.5386 121.466,38.0467 121.938,36.6337 122.409,35.3038 122.881,34.0611 123.353,32.9095 123.825,31.8527 124.296,30.8942 124.768,30.0373 125.24,29.2848 125.712,28.6397 126.184,28.1043 126.655,27.681 127.127,27.3716 127.599,27.1779 128.071,27.1012 128.542,27.1426 129.014,27.303 129.486,27.5828 129.958,27.9822 130.429,28.5011 130.901,29.139 131.373,29.8953 131.845,30.7688 132.317,31.7583 132.788,32.8619 133.26,34.0778 133.732,35.4036 134.204,36.8368 134.675,38.3744 135.147,40.0133 135.619,41.7501 136.091,43.5809 136.562,45.5018 137.034,47.5085 137.506,49.5965 137.978,51.7609 138.45,53.9969 138.921,56.2993 139.393,58.6625 139.865,61.0809 140.337,63.5488 140.808,66.0603 141.28,68.6091 141.752,71.189 142.224,73.7937 142.695,76.4166 143.167,79.0512 143.639,81.6909 144.111,84.3288 144.583,86.9584 145.054,89.5727 145.526,92.1651 145.998,94.7287 146.47,97.2568 146.941,99.7427 147.413,102.18 147.885,104.562 148.357,106.882 148.828,109.134 149.3,111.311 149.772,113.408 150.244,115.419 150.716,117.338 151.187,119.16 151.659,120.879 152.131,122.49 152.603,123.989 153.074,125.371 153.546,126.631 154.018,127.766 154.49,128.772 154.961,129.645 155.433,130.384 155.905,130.984 156.377,131.443 156.849,131.76 157.32,131.932 157.792,131.959 158.264,131.839 158.736,131.572 159.207,131.158 159.679,130.596 160.151,129.887 160.623,129.033 161.094,128.034 161.566,126.892 162.038,125.609 162.51,124.188 162.981,122.631 163.453,120.942 163.925,119.124 164.397,117.18 164.868,115.115 165.34,112.934 165.812,110.642 166.284,108.243 166.756,105.743 167.227,103.148 167.699,100.464 168.171,97.6968 168.643,94.8534 169.114,91.9406 169.586,88.9653 170.058,85.9346 170.53,82.8561 171.001,79.7371 171.473,76.5854 171.945,73.4089 172.417,70.2154 172.888,67.0129 173.36,63.8096 173.832,60.6136 174.304,57.4329 174.775,54.2758 175.247,51.1504 175.719,48.0649 176.191,45.0272 176.663,42.0453 177.134,39.1271 177.606,36.2804 178.078,33.5128 178.55,30.8317 179.021,28.2444 179.493,25.7579 179.965,23.3792 180.437,21.1148 180.908,18.9711 181.38,16.9542 181.852,15.0698 182.324,13.3235 182.795,11.7204 183.267,10.2654 183.739,8.96286 184.211,7.81696 184.682,6.8314 185.154,6.00954 185.626,5.35434 186.098,4.86829 186.569,4.55354 187.041,4.41177 187.513,4.44424 187.985,4.65176 188.457,5.03472 188.928,5.59306 189.4,6.32626 189.872,7.23337 190.344,8.31298 190.815,9.56323 191.287,10.9818 191.759,12.566 192.231,14.3127 192.702,16.2182 193.174,18.2785 193.646,20.4893 194.118,22.8455 " id="id0000000142" fill="none" stroke="red" stroke-width="1.000000" stroke-linecap="round" stroke-dasharray="3.000000 3.000000" />
<polyline points="5.88235,73.8611 6.35412,73.7622 6.82589,73.6786 7.29766,73.6112 7.76943,73.5604 8.24119,73.5269 8.71296,73.511 9.18473,73.5131 9.6565,73.5334 10.1283,73.5722 10.6,73.6295 11.0718,73.7054 11.5436,73.7996 12.0153,73.9121 12.4871,74.0426 12.9589,74.1906 13.4306,74.3558 13.9024,74.5376 14.3742,74.7353 14.846,74.9482 15.3177,75.1757 15.7895,75.4166 16.2613,75.6702 16.733,75.9354 17.2048,76.2111 17.6766,76.4961 18.1483,76.7893 18.6201,77.0893 19.0919,77.3948 19.5636,77.7044 20.0354,78.0168 20.5072,78.3304 20.9789,78.6437 21.4507,78.9553 21.9225,79.2637 22.3942,79.5671 22.866,79.8642 23.3378,80.1533 23.8095,80.4329 24.2813,80.7013 24.7531,80.9571 25.2248,81.1988 25.6966,81.4248 26.1684,81.6337 26.6401,81.8241 27.1119,81.9945 27.5837,82.1437 28.0554,82.2704 28.5272,82.3733 28.999,82.4513 29.4707,82.5034 29.9425,82.5285 30.4143,82.5258 30.8861,82.4943 31.3578,82.4333 31.8296,82.3423 32.3014,82.2206 32.7731,82.0677 33.2449,81.8834 33.7167,81.6674 34.1884,81.4195 34.6602,81.1397 35.132,80.8281 35.6037,80.485 36.0755,80.1105 36.5473,79.7053 37.019,79.2697 37.4908,78.8044 37.9626,78.3103 38.4343,77.7882 38.9061,77.2391 39.3779,76.6641 39.8496,76.0645 40.3214,75.4415 40.7932,74.7966 41.2649,74.1314 41.7367,73.4474 42.2085,72.7463 42.6802,72.03 43.152,71.3003 43.6238,70.5592 44.0956,69.8088 44.5673,69.0511 45.0391,68.2883 45.5109,67.5226 45.9826,66.7564 46.4544,65.9918 46.9262,65.2313 47.3979,64.4773 47.8697,63.7321 48.3415,62.9981 48.8132,62.2778 49.285,61.5737 49.7568,60.888 50.2286,60.2232 50.7003,59.5817 51.1721,58.9658 51.6439,58.3778 52.1156,57.82 52.5874,57.2946 53.0592,56.8037 53.5309,56.3494 54.0027,55.9337 54.4745,55.5584 54.9463,55.2255 55.418,54.9367 55.8898,54.6935 56.3616,54.4974 56.8333,54.35 57.3051,54.2523 57.7769,54.2057 58.2486,54.2111 58.7204,54.2693 59.1922,54.3811 59.664,54.5472 60.1357,54.7678 60.6075,55.0434 61.0793,55.3741 61.551,55.7598 62.0228,56.2003 62.4946,56.6953 62.9663,57.2443 63.4381,57.8466 63.9099,58.5014 64.3817,59.2077 64.8534,59.9643 65.3252,60.77 65.797,61.6231 66.2687,62.5222 66.7405,63.4654 67.2123,64.4507 67.684,65.4762 68.1558,66.5395 68.6276,67.6384 69.0994,68.7703 69.5711,69.9326 70.0429,71.1226 70.5147,72.3373 70.9864,73.574 71.4582,74.8295 71.93,76.1006 72.4017,77.3842 72.8735,78.6768 73.3453,79.9752 73.8171,81.2759 74.2888,82.5754 74.7606,83.8702 75.2324,85.1567 75.7041,86.4313 76.1759,87.6905 76.6477,88.9307 77.1194,90.1482 77.5912,91.3396 78.063,92.5013 78.5348,93.6297 79.0065,94.7215 79.4783,95.7732 79.9501,96.7815 80.4218,97.7433 80.8936,98.6553 81.3654,99.5146 81.8371,100.318 82.3089,101.063 82.7807,101.747 83.2525,102.367 83.7242,102.92 84.196,103.406 84.6678,103.82 85.1395,104.162 85.6113,104.43 86.0831,104.622 86.5548,104.737 87.0266,104.774 87.4984,104.731 87.9702,104.608 88.4419,104.404 88.9137,104.119 89.3855,103.753 89.8572,103.305 90.329,102.777 90.8008,102.168 91.2725,101.479 91.7443,100.712 92.2161,99.8672 92.6879,98.9462 93.1596,97.9505 93.6314,96.882 94.1032,95.7428 94.5749,94.5351 95.0467,93.2613 95.5185,91.9242 95.9902,90.5265 96.462,89.0714 96.9338,87.5619 97.4056,86.0015 97.8773,84.3939 98.3491,82.7426 98.8209,81.0517 99.2926,79.325 99.7644,77.5668 100.236,75.7813 100.708,73.973 101.18,72.1463 101.651,70.3058 102.123,68.4563 102.595,66.6023 103.067,64.7487 103.539,62.9004 104.01,61.0621 104.482,59.2388 104.954,57.4354 105.426,55.6568 105.897,53.9077 106.369,52.1931 106.841,50.5177 107.313,48.8861 107.784,47.3032 108.256,45.7733 108.728,44.301 109.2,42.8906 109.672,41.5463 110.143,40.2722 110.615,39.0723 111.087,37.9502 111.559,36.9097 112.03,35.9541 112.502,35.0866 112.974,34.3103 113.446,33.628 113.918,33.0422 114.389,32.5553 114.861,32.1694 115.333,31.8864 115.805,31.7078 116.276,31.6351 116.748,31.6693 117.22,31.8113 117.692,32.0615 118.163,32.4203 118.635,32.8875 119.107,33.463 119.579,34.1461 120.051,34.936 120.522,35.8314 120.994,36.831 121.466,37.933 121.938,39.1353 122.409,40.4359 122.881,41.8319 123.353,43.3207 123.825,44.8991 124.296,46.5639 124.768,48.3113 125.24,50.1375 125.712,52.0386 126.184,54.01 126.655,56.0475 127.127,58.1461 127.599,60.3011 128.071,62.5073 128.542,64.7594 129.014,67.052 129.486,69.3795 129.958,71.7363 130.429,74.1164 130.901,76.514 131.373,78.923 131.845,81.3373 132.317,83.7508 132.788,86.1573 133.26,88.5506 133.732,90.9245 134.204,93.2726 134.675,95.5888 135.147,97.867 135.619,100.101 136.091,102.285 136.562,104.412 137.034,106.478 137.506,108.476 137.978,110.4 138.45,112.246 138.921,114.008 139.393,115.68 139.865,117.259 140.337,118.738 140.808,120.114 141.28,121.383 141.752,122.541 142.224,123.583 142.695,124.506 143.167,125.308 143.639,125.985 144.111,126.534 144.583,126.955 145.054,127.243 145.526,127.398 145.998,127.419 146.47,127.305 146.941,127.054 147.413,126.668 147.885,126.145 148.357,125.486 148.828,124.692 149.3,123.765 149.772,122.705 150.244,121.515 150.716,120.196 151.187,118.751 151.659,117.184 152.131,115.497 152.603,113.693 153.074,111.778 153.546,109.754 154.018,107.626 154.49,105.4 154.961,103.079 155.433,100.67 155.905,98.1783 156.377,95.6091 156.849,92.9688 157.32,90.2637 157.792,87.5003 158.264,84.6852 158.736,81.8252 159.207,78.9275 159.679,75.999 160.151,73.0471 160.623,70.0792 161.094,67.1027 161.566,64.1251 162.038,61.1539 162.51,58.1969 162.981,55.2615 163.453,52.3554 163.925,49.4862 164.397,46.6613 164.868,43.8883 165.34,41.1744 165.812,38.5269 166.284,35.9529 166.756,33.4594 167.227,31.0533 167.699,28.741 168.171,26.5291 168.643,24.4238 169.114,22.431 169.586,20.5564 170.058,18.8054 170.53,17.1833 171.001,15.6949 171.473,14.3447 171.945,13.1369 172.417,12.0754 172.888,11.1638 173.36,10.4051 173.832,9.80222 174.304,9.35751 174.775,9.07298 175.247,8.95026 175.719,8.99056 176.191,9.19467 176.663,9.56299 177.134,10.0955 177.606,10.7917 178.078,11.6508 178.55,12.6714 179.021,13.8519 179.493,15.1902 179.965,16.6837 180.437,18.3294 180.908,20.124 181.38,22.0638 181.852,24.1445 182.324,26.3618 182.795,28.7107 183.267,31.186 183.739,33.782 184.211,36.4928 184.682,39.3122 185.154,42.2335 185.626,45.25 186.098,48.3544 186.569,51.5394 187.041,54.7973 187.513,58.1203 187.985,61.5002 188.457,64.9288 188.928,68.3977 189.4,71.8982 189.872,75.4218 190.344,78.9596 190.815,82.5026 191.287,86.042 191.759,89.5688 192.231,93.074 192.702,96.5485 193.174,99.9836 193.646,103.37 194.118,106.699 " id="id0000000143" fill="none" stroke="blue" stroke-width="1.000000" stroke-linecap="round" stroke-dasharray="3.000000 2.000000 1.000000 2.000000" />
<polyline points="5.88235,73.8611 6.35412,73.9747 6.82589,74.102 7.29766,74.2423 7.76943,74.3945 8.24119,74.5576 8.71296,74.7305 9.18473,74.912 9.6565,75.1011 10.1283,75.2963 10.6,75.4966 11.0718,75.7005 11.5436,75.9067 12.0153,76.1139 12.4871,76.3207 12.9589,76.5256 13.4306,76.7274 13.9024,76.9246 14.3742,77.1158 14.846,77.2996 15.3177,77.4747 15.7895,77.6397 16.2613,77.7933 16.733,77.9343 17.2048,78.0613 17.6766,78.1733 18.1483,78.269 18.6201,78.3473 19.0919,78.4073 19.5636,78.4479 20.0354,78.4682 20.5072,78.4675 20.9789,78.4449 21.4507,78.3999 21.9225,78.3317 22.3942,78.2399 22.866,78.1241 23.3378,77.9839 23.8095,77.8192 24.2813,77.6298 24.7531,77.4157 25.2248,77.177 25.6966,76.9138 26.1684,76.6263 26.6401,76.3151 27.1119,75.9805 27.5837,75.6232 28.0554,75.2437 28.5272,74.843 28.999,74.4219 29.4707,73.9812 29.9425,73.5222 30.4143,73.046 30.8861,72.5538 31.3578,72.0469 31.8296,71.5268 32.3014,70.9949 32.7731,70.4528 33.2449,69.9022 33.7167,69.3448 34.1884,68.7822 34.6602,68.2163 35.132,67.649 35.6037,67.0822 36.0755,66.5177 36.5473,65.9576 37.019,65.4039 37.4908,64.8585 37.9626,64.3236 38.4343,63.801 38.9061,63.2929 39.3779,62.8011 39.8496,62.3279 40.3214,61.875 40.7932,61.4445 41.2649,61.0383 41.7367,60.6581 42.2085,60.3059 42.6802,59.9834 43.152,59.6923 43.6238,59.4341 44.0956,59.2105 44.5673,59.0229 45.0391,58.8727 45.5109,58.7611 45.9826,58.6894 46.4544,58.6585 46.9262,58.6696 47.3979,58.7234 47.8697,58.8206 48.3415,58.9619 48.8132,59.1477 49.285,59.3785 49.7568,59.6544 50.2286,59.9754 50.7003,60.3417 51.1721,60.7529 51.6439,61.2087 52.1156,61.7087 52.5874,62.2523 53.0592,62.8387 53.5309,63.4669 54.0027,64.136 54.4745,64.8448 54.9463,65.592 55.418,66.3761 55.8898,67.1955 56.3616,68.0486 56.8333,68.9334 57.3051,69.8481 57.7769,70.7905 58.2486,71.7584 58.7204,72.7496 59.1922,73.7617 59.664,74.792 60.1357,75.8382 60.6075,76.8973 61.0793,77.9668 61.551,79.0438 62.0228,80.1254 62.4946,81.2086 62.9663,82.2905 63.4381,83.368 63.9099,84.4381 64.3817,85.4977 64.8534,86.5436 65.3252,87.5728 65.797,88.5822 66.2687,89.5687 66.7405,90.5293 67.2123,91.4608 67.684,92.3604 68.1558,93.225 68.6276,94.0518 69.0994,94.838 69.5711,95.5809 70.0429,96.2777 70.5147,96.926 70.9864,97.5233 71.4582,98.0672 71.93,98.5555 72.4017,98.9862 72.8735,99.3572 73.3453,99.6668 73.8171,99.9132 74.2888,100.095 74.7606,100.211 75.2324,100.259 75.7041,100.24 76.1759,100.151 76.6477,99.9924 77.1194,99.7637 77.5912,99.4646 78.063,99.0947 78.5348,98.6544 79.0065,98.1439 79.4783,97.5635 79.9501,96.9141 80.4218,96.1966 80.8936,95.4119 81.3654,94.5613 81.8371,93.6463 82.3089,92.6687 82.7807,91.6301 83.2525,90.5327 83.7242,89.3786 84.196,88.1703 84.6678,86.9103 85.1395,85.6014 85.6113,84.2465 86.0831,82.8486 86.5548,81.4109 87.0266,79.9368 87.4984,78.4298 87.9702,76.8934 88.4419,75.3315 88.9137,73.7478 89.3855,72.1464 89.8572,70.5311 90.329,68.9062 90.8008,67.2758 91.2725,65.6441 91.7443,64.0154 92.2161,62.3941 92.6879,60.7845 93.1596,59.191 93.6314,57.6178 94.1032,56.0694 94.5749,54.5501 95.0467,53.0641 95.5185,51.6158 95.9902,50.2093 96.462,48.8487 96.9338,47.5381 97.4056,46.2813 97.8773,45.0823 98.3491,43.9448 98.8209,42.8723 99.2926,41.8684 99.7644,40.9362 100.236,40.0791 100.708,39.2998 101.18,38.6013 101.651,37.9862 102.123,37.4568 102.595,37.0154 103.067,36.664 103.539,36.4044 104.01,36.2381 104.482,36.1664 104.954,36.1904 105.426,36.3109 105.897,36.5286 106.369,36.8438 106.841,37.2566 107.313,37.7668 107.784,38.3739 108.256,39.0773 108.728,39.8761 109.2,40.769 109.672,41.7546 110.143,42.8311 110.615,43.9966 111.087,45.2488 111.559,46.5853 112.03,48.0034 112.502,49.5001 112.974,51.0722 113.446,52.7163 113.918,54.4288 114.389,56.2058 114.861,58.0434 115.333,59.9372 115.805,61.883 116.276,63.876 116.748,65.9115 117.22,67.9847 117.692,70.0904 118.163,72.2237 118.635,74.3791 119.107,76.5513 119.579,78.7348 120.051,80.9241 120.522,83.1136 120.994,85.2977 121.466,87.4707 121.938,89.6268 122.409,91.7605 122.881,93.866 123.353,95.9377 123.825,97.97 124.296,99.9574 124.768,101.894 125.24,103.775 125.712,105.595 126.184,107.349 126.655,109.032 127.127,110.638 127.599,112.164 128.071,113.604 128.542,114.954 129.014,116.211 129.486,117.37 129.958,118.427 130.429,119.379 130.901,120.223 131.373,120.955 131.845,121.574 132.317,122.076 132.788,122.46 133.26,122.723 133.732,122.864 134.204,122.882 134.675,122.776 135.147,122.545 135.619,122.189 136.091,121.708 136.562,121.102 137.034,120.372 137.506,119.519 137.978,118.544 138.45,117.448 138.921,116.235 139.393,114.905 139.865,113.462 140.337,111.909 140.808,110.248 141.28,108.483 141.752,106.619 142.224,104.658 142.695,102.606 143.167,100.467 143.639,98.2456 144.111,95.9473 144.583,93.5774 145.054,91.1413 145.526,88.645 145.998,86.0943 146.47,83.4955 146.941,80.8547 147.413,78.1786 147.885,75.4736 148.357,72.7465 148.828,70.0041 149.3,67.2533 149.772,64.5011 150.244,61.7544 150.716,59.0203 151.187,56.3059 151.659,53.6182 152.131,50.9642 152.603,48.351 153.074,45.7854 153.546,43.2742 154.018,40.8243 154.49,38.4423 154.961,36.1346 155.433,33.9076 155.905,31.7675 156.377,29.7202 156.849,27.7717 157.32,25.9274 157.792,24.1927 158.264,22.5727 158.736,21.0722 159.207,19.6957 159.679,18.4476 160.151,17.3318 160.623,16.3519 161.094,15.5113 161.566,14.8129 162.038,14.2594 162.51,13.853 162.981,13.5957 163.453,13.4891 163.925,13.5342 164.397,13.7319 164.868,14.0826 165.34,14.5862 165.812,15.2425 166.284,16.0507 166.756,17.0095 167.227,18.1175 167.699,19.3727 168.171,20.7727 168.643,22.3148 169.114,23.996 169.586,25.8128 170.058,27.7613 170.53,29.8373 171.001,32.0364 171.473,34.3536 171.945,36.7837 172.417,39.3212 172.888,41.9602 173.36,44.6946 173.832,47.5181 174.304,50.4239 174.775,53.4051 175.247,56.4547 175.719,59.5651 176.191,62.729 176.663,65.9385 177.134,69.1858 177.606,72.4627 178.078,75.7613 178.55,79.0732 179.021,82.3901 179.493,85.7036 179.965,89.0054 180.437,92.2869 180.908,95.5397 181.38,98.7555 181.852,101.926 182.324,105.043 182.795,108.097 183.267,111.082 183.739,113.989 184.211,116.81 184.682,119.538 185.154,122.166 185.626,124.685 186.098,127.09 186.569,129.373 187.041,131.528 187.513,133.55 187.985,135.431 188.457,137.167 188.928,138.753 189.4,140.183 189.872,141.453 190.344,142.56 190.815,143.5 191.287,144.269 191.759,144.864 192.231,145.284 192.702,145.526 193.174,145.588 193.646,145.471 194.118,145.172 " id="id0000000144" fill="none" stroke="yellow" stroke-width="1.000000" stroke-linecap="round" stroke-dasharray="1.000000 2.000000" />
<polyline points="5.88235,73.8611 6.35412,74.0302 6.82589,74.1925 7.29766,74.3466 7.76943,74.4914 8.24119,74.6258 8.71296,74.7485 9.18473,74.8587 9.6565,74.9551 10.1283,75.037 10.6,75.1035 11.0718,75.1537 11.5436,75.1869 12.0153,75.2024 12.4871,75.1997 12.9589,75.1784 13.4306,75.1379 13.9024,75.078 14.3742,74.9984 14.846,74.899 15.3177,74.7799 15.7895,74.6409 16.2613,74.4822 16.733,74.3041 17.2048,74.107 17.6766,73.8911 18.1483,73.6571 18.6201,73.4056 19.0919,73.1371 19.5636,72.8526 20.0354,72.5528 20.5072,72.2388 20.9789,71.9115 21.4507,71.572 21.9225,71.2215 22.3942,70.8613 22.866,70.4927 23.3378,70.117 23.8095,69.7356 24.2813,69.3501 24.7531,68.9619 25.2248,68.5727 25.6966,68.184 26.1684,67.7975 26.6401,67.4148 27.1119,67.0376 27.5837,66.6675 28.0554,66.3064 28.5272,65.9558 28.999,65.6174 29.4707,65.293 29.9425,64.9842 30.4143,64.6927 30.8861,64.4199 31.3578,64.1676 31.8296,63.9372 32.3014,63.7302 32.7731,63.5481 33.2449,63.3921 33.7167,63.2636 34.1884,63.1638 34.6602,63.0938 35.132,63.0548 35.6037,63.0476 36.0755,63.0732 36.5473,63.1323 37.019,63.2257 37.4908,63.3539 37.9626,63.5174 38.4343,63.7165 38.9061,63.9516 39.3779,64.2227 39.8496,64.5298 40.3214,64.8729 40.7932,65.2517 41.2649,65.6659 41.7367,66.115 42.2085,66.5984 42.6802,67.1154 43.152,67.6651 43.6238,68.2466 44.0956,68.8589 44.5673,69.5006 45.0391,70.1706 45.5109,70.8673 45.9826,71.5892 46.4544,72.3347 46.9262,73.102 47.3979,73.8893 47.8697,74.6946 48.3415,75.5159 48.8132,76.351 49.285,77.1978 49.7568,78.054 50.2286,78.9172 50.7003,79.7851 51.1721,80.6551 51.6439,81.5248 52.1156,82.3916 52.5874,83.253 53.0592,84.1063 53.5309,84.9489 54.0027,85.7781 54.4745,86.5914 54.9463,87.3861 55.418,88.1596 55.8898,88.9092 56.3616,89.6325 56.8333,90.3268 57.3051,90.9897 57.7769,91.6188 58.2486,92.2116 58.7204,92.766 59.1922,93.2796 59.664,93.7504 60.1357,94.1763 60.6075,94.5553 61.0793,94.8856 61.551,95.1655 62.0228,95.3935 62.4946,95.5679 62.9663,95.6876 63.4381,95.7512 63.9099,95.7577 64.3817,95.7063 64.8534,95.5961 65.3252,95.4266 65.797,95.1972 66.2687,94.9079 66.7405,94.5583 67.2123,94.1487 67.684,93.6792 68.1558,93.1502 68.6276,92.5624 69.0994,91.9164 69.5711,91.2132 70.0429,90.4539 70.5147,89.6398 70.9864,88.7722 71.4582,87.8529 71.93,86.8836 72.4017,85.8662 72.8735,84.8029 73.3453,83.6958 73.8171,82.5474 74.2888,81.3603 74.7606,80.137 75.2324,78.8805 75.7041,77.5937 76.1759,76.2797 76.6477,74.9416 77.1194,73.5827 77.5912,72.2064 78.063,70.8162 78.5348,69.4156 79.0065,68.0083 79.4783,66.5979 79.9501,65.1882 80.4218,63.783 80.8936,62.386 81.3654,61.0011 81.8371,59.6321 82.3089,58.2829 82.7807,56.9573 83.2525,55.6592 83.7242,54.3922 84.196,53.1602 84.6678,51.9669 85.1395,50.8158 85.6113,49.7104 86.0831,48.6544 86.5548,47.651 87.0266,46.7034 87.4984,45.815 87.9702,44.9885 88.4419,44.2271 88.9137,43.5333 89.3855,42.9098 89.8572,42.3589 90.329,41.8831 90.8008,41.4843 91.2725,41.1644 91.7443,40.9251 92.2161,40.768 92.6879,40.6943 93.1596,40.7051 93.6314,40.8013 94.1032,40.9836 94.5749,41.2523 95.0467,41.6076 95.5185,42.0497 95.9902,42.5781 96.462,43.1923 96.9338,43.8918 97.4056,44.6754 97.8773,45.5421 98.3491,46.4903 98.8209,47.5185 99.2926,48.6246 99.7644,49.8067 100.236,51.0624 100.708,52.3892 101.18,53.7842 101.651,55.2445 102.123,56.7669 102.595,58.3481 103.067,59.9845 103.539,61.6723 104.01,63.4078 104.482,65.1867 104.954,67.005 105.426,68.8581 105.897,70.7417 106.369,72.6512 106.841,74.5817 107.313,76.5285 107.784,78.4868 108.256,80.4514 108.728,82.4173 109.2,84.3796 109.672,86.333 110.143,88.2724 110.615,90.1926 111.087,92.0886 111.559,93.9551 112.03,95.7872 112.502,97.5796 112.974,99.3276 113.446,101.026 113.918,102.67 114.389,104.255 114.861,105.777 115.333,107.23 115.805,108.611 116.276,109.916 116.748,111.14 117.22,112.279 117.692,113.33 118.163,114.29 118.635,115.155 119.107,115.922 119.579,116.588 120.051,117.151 120.522,117.609 120.994,117.959 121.466,118.2 121.938,118.331 122.409,118.349 122.881,118.254 123.353,118.046 123.825,117.723 124.296,117.287 124.768,116.736 125.24,116.073 125.712,115.297 126.184,114.409 126.655,113.411 127.127,112.306 127.599,111.093 128.071,109.777 128.542,108.36 129.014,106.844 129.486,105.232 129.958,103.529 130.429,101.737 130.901,99.8613 131.373,97.9051 131.845,95.8731 132.317,93.7699 132.788,91.6005 133.26,89.3699 133.732,87.0834 134.204,84.7465 134.675,82.3646 135.147,79.9437 135.619,77.4897 136.091,75.0085 136.562,72.5064 137.034,69.9896 137.506,67.4644 137.978,64.9373 138.45,62.4146 138.921,59.903 139.393,57.4088 139.865,54.9386 140.337,52.4989 140.808,50.0962 141.28,47.7367 141.752,45.427 142.224,43.1731 142.695,40.9813 143.167,38.8576 143.639,36.8078 144.111,34.8378 144.583,32.953 145.054,31.159 145.526,29.4608 145.998,27.8634 146.47,26.3717 146.941,24.9901 147.413,23.7229 147.885,22.5741 148.357,21.5474 148.828,20.6462 149.3,19.8736 149.772,19.2325 150.244,18.7253 150.716,18.3543 151.187,18.1212 151.659,18.0275 152.131,18.0745 152.603,18.2627 153.074,18.5928 153.546,19.0647 154.018,19.6781 154.49,20.4325 154.961,21.3267 155.433,22.3593 155.905,23.5287 156.377,24.8326 156.849,26.2686 157.32,27.8338 157.792,29.5252 158.264,31.3391 158.736,33.2716 159.207,35.3187 159.679,37.4758 160.151,39.7381 160.623,42.1004 161.094,44.5574 161.566,47.1034 162.038,49.7324 162.51,52.4383 162.981,55.2146 163.453,58.0548 163.925,60.9519 164.397,63.899 164.868,66.8888 165.34,69.914 165.812,72.9671 166.284,76.0405 166.756,79.1266 167.227,82.2175 167.699,85.3055 168.171,88.3826 168.643,91.4411 169.114,94.4729 169.586,97.4704 170.058,100.426 170.53,103.331 171.001,106.178 171.473,108.961 171.945,111.67 172.417,114.3 172.888,116.843 173.36,119.291 173.832,121.639 174.304,123.88 174.775,126.007 175.247,128.014 175.719,129.896 176.191,131.648 176.663,133.263 177.134,134.737 177.606,136.066 178.078,137.246 178.55,138.272 179.021,139.141 179.493,139.851 179.965,140.398 180.437,140.781 180.908,140.996 181.38,141.044 181.852,140.923 182.324,140.632 182.795,140.171 183.267,139.54 183.739,138.741 184.211,137.774 184.682,136.64 185.154,135.343 185.626,133.883 186.098,132.265 186.569,130.491 187.041,128.565 187.513,126.491 187.985,124.274 188.457,121.919 188.928,119.43 189.4,116.813 189.872,114.075 190.344,111.221 190.815,108.259 191.287,105.194 191.759,102.036 192.231,98.7898 192.702,95.4648 193.174,92.0685 193.646,88.6091 194.118,85.0953 " id="id0000000145" fill="none" stroke="black" stroke-width="1.000000" stroke-linecap="round" />
</g>

<clipPath id="id0000000138clipper" >
<polygon id="id0000000146" points="0,0 0,150 200,150 200,0 " />
</clipPath>

<polyline points="5.88235,150 5.88235,153 " id="id0000000147" fill="none" stroke="black" class="line" stroke-width="1.000000" />
<text transform="matrix(1 0 0 1 0 0)" x="5.882353" y="155.000000" id="id0000000148" text-anchor="middle" font-size="10.000000px" dominant-baseline="hanging" >
0
</text>

<polyline points="43.6238,150 43.6238,153 " id="id0000000149" fill="none" stroke="black" class="line" stroke-width="1.000000" />
<text transform="matrix(1 0 0 1 0 0)" x="43.623802" y="155.000000" id="id0000000150" text-anchor="middle" font-size="10.000000px" dominant-baseline="hanging" >
4
</text>

<polyline points="81.3653,150 81.3653,153 " id="id0000000151" fill="none" stroke="black" class="line" stroke-width="1.000000" />
<text transform="matrix(1 0 0 1 0 0)" x="81.365257" y="155.000000" id="id0000000152" text-anchor="middle" font-size="10.000000px" dominant-baseline="hanging" >
8
</text>

<polyline points="119.107,150 119.107,153 " id="id0000000153" fill="none" stroke="black" class="line" stroke-width="1.000000" />
<text transform="matrix(1 0 0 1 0 0)" x="119.106712" y="155.000000" id="id0000000154" text-anchor="middle" font-size="10.000000px" dominant-baseline="hanging" >
12
</text>

<polyline points="156.848,150 156.848,153 " id="id0000000155" fill="none" stroke="black" class="line" stroke-width="1.000000" />
<text transform="matrix(1 0 0 1 0 0)" x="156.848145" y="155.000000" id="id0000000156" text-anchor="middle" font-size="10.000000px" dominant-baseline="hanging" >
16
</text>

<polyline points="194.59,150 194.59,153 " id="id0000000157" fill="none" stroke="black" class="line" stroke-width="1.000000" />
<text transform="matrix(1 0 0 1 0 0)" x="194.589584" y="155.000000" id="id0000000158" text-anchor="middle" font-size="10.000000px" dominant-baseline="hanging" >
20
</text>

<polyline points="-3,131.774 0,131.774 " id="id0000000159" fill="none" stroke="black" class="line" stroke-width="1.000000" />
<text transform="matrix(1 0 0 1 0 0)" x="-5.000000" y="131.773682" id="id0000000160" text-anchor="end" font-size="10.000000px" dominant-baseline="middle" >
-16
</text>

<polyline points="-3,102.817 0,102.817 " id="id0000000161" fill="none" stroke="black" class="line" stroke-width="1.000000" />
<text transform="matrix(1 0 0 1 0 0)" x="-5.000000" y="102.817398" id="id0000000162" text-anchor="end" font-size="10.000000px" dominant-baseline="middle" >
-8
</text>

<polyline points="-3,73.8611 0,73.8611 " id="id0000000163" fill="none" stroke="black" class="line" stroke-width="1.000000" />
<text transform="matrix(1 0 0 1 0 0)" x="-5.000000" y="73.861107" id="id0000000164" text-anchor="end" font-size="10.000000px" dominant-baseline="middle" >
0
</text>

<polyline points="-3,44.9048 0,44.9048 " id="id0000000165" fill="none" stroke="black" class="line" stroke-width="1.000000" />
<text transform="matrix(1 0 0 1 0 0)" x="-5.000000" y="44.904816" id="id0000000166" text-anchor="end" font-size="10.000000px" dominant-baseline="middle" >
8
</text>

<polyline points="-3,15.9485 0,15.9485 " id="id0000000167" fill="none" stroke="black" class="line" stroke-width="1.000000" />
<text transform="matrix(1 0 0 1 0 0)" x="-5.000000" y="15.948547" id="id0000000168" text-anchor="end" font-size="10.000000px" dominant-baseline="middle" >
16
</text>

<polygon id="id0000000169" points="0,0 0,150 200,150 200,0 " pointer-events="none" class="border" stroke-width="1.000000" fill="none" stroke="black" />

</g>

</svg>
