<svg viewBox="0 0 412.04 412.04" height="100%" width="100%" xmlns:xlink="http://www.w3.org/1999/xlink" xmlns="http://www.w3.org/2000/svg" id="id0000000317" >
<g id="id0000000318" >
<g id="id0000000319" >
<g id="id0000000320" >
<clipPath id="id0000000320clipper" >
<polygon points="6.02,42.02 6.02,204.02 204.02,204.02 204.02,42.02 " id="id0000000335" class="rectangle" />
</clipPath>

<g clip-path="url(#id0000000320clipper)" id="id0000000322" >
<polyline id="id0000000336" points="6.02,204.02 8.02,187.738 10.02,180.994 12.02,175.819 14.02,171.457 16.02,167.613 18.02,164.138 20.02,160.943 22.02,157.969 24.02,155.175 26.02,152.533 28.02,150.02 30.02,147.619 32.02,145.316 34.02,143.1 36.02,140.962 38.02,138.894 40.02,136.889 42.02,134.943 44.02,133.05 46.02,131.206 48.02,129.408 50.02,127.652 52.02,125.936 54.02,124.257 56.02,122.612 58.02,121 60.02,119.418 62.02,117.866 64.02,116.341 66.02,114.842 68.02,113.368 70.02,111.917 72.02,110.489 74.02,109.083 76.02,107.697 78.02,106.33 80.02,104.983 82.02,103.653 84.02,102.341 86.02,101.046 88.02,99.7668 90.02,98.5031 92.02,97.2543 94.02,96.02 96.02,94.7996 98.02,93.5927 100.02,92.3989 102.02,91.2177 104.02,90.0487 106.02,88.8916 108.02,87.746 110.02,86.6116 112.02,85.4881 114.02,84.3751 116.02,83.2723 118.02,82.1796 120.02,81.0965 122.02,80.0229 124.02,78.9586 126.02,77.9032 128.02,76.8565 130.02,75.8185 132.02,74.7887 134.02,73.7671 136.02,72.7534 138.02,71.7476 140.02,70.7493 142.02,69.7584 144.02,68.7748 146.02,67.7983 148.02,66.8287 150.02,65.8659 152.02,64.9099 154.02,63.9603 156.02,63.0171 158.02,62.0802 160.02,61.1494 162.02,60.2247 164.02,59.3059 166.02,58.3928 168.02,57.4855 170.02,56.5837 172.02,55.6875 174.02,54.7966 176.02,53.9109 178.02,53.0305 180.02,52.1552 182.02,51.2849 184.02,50.4196 186.02,49.5591 188.02,48.7033 190.02,47.8522 192.02,47.0058 194.02,46.1639 196.02,45.3265 198.02,44.4934 200.02,43.6647 202.02,42.8403 204.02,42.02 " fill="none" stroke-opacity="1.000000" stroke-linecap="round" stroke="#1f77b4" stroke-width="1.000000" />
</g>

<polygon points="6.02,42.02 6.02,204.02 204.02,204.02 204.02,42.02 " stroke="black" stroke-width="1.000000" fill="none" id="id0000000337" pointer-events="none" class="rectangle" />
<text id="id0000000338" transform="matrix(1 0 0 1 6.02 42.02)" x="99.000000" y="-12.000000" text-anchor="middle" font-size="24.000000px" >
sqrt(x)
</text>

</g>

</g>

<g id="id0000000323" >
<g id="id0000000324" >
<clipPath id="id0000000324clipper" >
<polygon points="208.03,42.02 208.03,204.02 406.03,204.02 406.03,42.02 " id="id0000000339" class="rectangle" />
</clipPath>

<g clip-path="url(#id0000000324clipper)" id="id0000000326" >
<polyline id="id0000000340" points="208.03,204.02 210.03,204.003 212.03,203.954 214.03,203.871 216.03,203.756 218.03,203.607 220.03,203.425 222.03,203.21 224.03,202.962 226.03,202.681 228.03,202.367 230.03,202.02 232.03,201.64 234.03,201.227 236.03,200.78 238.03,200.301 240.03,199.789 242.03,199.243 244.03,198.665 246.03,198.053 248.03,197.408 250.03,196.731 252.03,196.02 254.03,195.276 256.03,194.499 258.03,193.689 260.03,192.846 262.03,191.97 264.03,191.061 266.03,190.119 268.03,189.144 270.03,188.136 272.03,187.094 274.03,186.02 276.03,184.913 278.03,183.772 280.03,182.599 282.03,181.392 284.03,180.152 286.03,178.88 288.03,177.574 290.03,176.235 292.03,174.863 294.03,173.458 296.03,172.02 298.03,170.549 300.03,169.045 302.03,167.508 304.03,165.937 306.03,164.334 308.03,162.698 310.03,161.028 312.03,159.326 314.03,157.59 316.03,155.822 318.03,154.02 320.03,152.185 322.03,150.318 324.03,148.417 326.03,146.483 328.03,144.516 330.03,142.516 332.03,140.483 334.03,138.417 336.03,136.318 338.03,134.185 340.03,132.02 342.03,129.822 344.03,127.59 346.03,125.326 348.03,123.028 350.03,120.698 352.03,118.334 354.03,115.937 356.03,113.508 358.03,111.045 360.03,108.549 362.03,106.02 364.03,103.458 366.03,100.863 368.03,98.2349 370.03,95.5737 372.03,92.8795 374.03,90.1522 376.03,87.3919 378.03,84.5985 380.03,81.7721 382.03,78.9126 384.03,76.02 386.03,73.0944 388.03,70.1357 390.03,67.144 392.03,64.1192 394.03,61.0613 396.03,57.9704 398.03,54.8464 400.03,51.6894 402.03,48.4993 404.03,45.2762 406.03,42.02 " fill="none" stroke-opacity="1.000000" stroke-linecap="round" stroke="#1f77b4" stroke-width="1.000000" />
</g>

<polygon points="208.03,42.02 208.03,204.02 406.03,204.02 406.03,42.02 " stroke="black" stroke-width="1.000000" fill="none" id="id0000000341" pointer-events="none" class="rectangle" />
<text id="id0000000342" transform="matrix(1 0 0 1 208.03 42.02)" x="99.000000" y="-12.000000" text-anchor="middle" font-size="24.000000px" >
sqr(x)
</text>

</g>

</g>

<g id="id0000000327" >
<g id="id0000000328" >
<clipPath id="id0000000328clipper" >
<polygon points="6.02,244.03 6.02,406.03 204.02,406.03 204.02,244.03 " id="id0000000343" class="rectangle" />
</clipPath>

<g clip-path="url(#id0000000328clipper)" id="id0000000330" >
<polyline id="id0000000344" points="6.02,406.03 8.02,403.681 10.02,401.355 12.02,399.053 14.02,396.773 16.02,394.515 18.02,392.278 20.02,390.063 22.02,387.868 24.02,385.694 26.02,383.54 28.02,381.405 30.02,379.29 32.02,377.194 34.02,375.117 36.02,373.058 38.02,371.016 40.02,368.993 42.02,366.987 44.02,364.998 46.02,363.025 48.02,361.069 50.02,359.13 52.02,357.206 54.02,355.298 56.02,353.406 58.02,351.529 60.02,349.666 62.02,347.819 64.02,345.986 66.02,344.167 68.02,342.362 70.02,340.571 72.02,338.794 74.02,337.03 76.02,335.279 78.02,333.542 80.02,331.817 82.02,330.105 84.02,328.405 86.02,326.717 88.02,325.042 90.02,323.378 92.02,321.727 94.02,320.087 96.02,318.458 98.02,316.84 100.02,315.234 102.02,313.639 104.02,312.054 106.02,310.48 108.02,308.917 110.02,307.364 112.02,305.822 114.02,304.289 116.02,302.766 118.02,301.254 120.02,299.751 122.02,298.257 124.02,296.773 126.02,295.299 128.02,293.833 130.02,292.377 132.02,290.93 134.02,289.492 136.02,288.062 138.02,286.642 140.02,285.229 142.02,283.826 144.02,282.43 146.02,281.043 148.02,279.664 150.02,278.294 152.02,276.931 154.02,275.576 156.02,274.229 158.02,272.89 160.02,271.558 162.02,270.234 164.02,268.917 166.02,267.608 168.02,266.306 170.02,265.011 172.02,263.723 174.02,262.442 176.02,261.169 178.02,259.902 180.02,258.642 182.02,257.389 184.02,256.142 186.02,254.902 188.02,253.669 190.02,252.442 192.02,251.222 194.02,250.008 196.02,248.8 198.02,247.598 200.02,246.403 202.02,245.213 204.02,244.03 " fill="none" stroke-opacity="1.000000" stroke-linecap="round" stroke="#1f77b4" stroke-width="1.000000" />
</g>

<polygon points="6.02,244.03 6.02,406.03 204.02,406.03 204.02,244.03 " stroke="black" stroke-width="1.000000" fill="none" id="id0000000345" pointer-events="none" class="rectangle" />
<text id="id0000000346" transform="matrix(1 0 0 1 6.02 244.03)" x="99.000000" y="-12.000000" text-anchor="middle" font-size="24.000000px" >
log(x+1)
</text>

</g>

</g>

<g id="id0000000331" >
<g id="id0000000332" >
<clipPath id="id0000000332clipper" >
<polygon points="208.03,244.03 208.03,406.03 406.03,406.03 406.03,244.03 " id="id0000000347" class="rectangle" />
</clipPath>

<g clip-path="url(#id0000000332clipper)" id="id0000000334" >
<polyline id="id0000000348" points="208.03,406.03 210.03,405.073 212.03,404.106 214.03,403.129 216.03,402.143 218.03,401.146 220.03,400.139 222.03,399.122 224.03,398.095 226.03,397.057 228.03,396.009 230.03,394.95 232.03,393.881 234.03,392.8 236.03,391.709 238.03,390.606 240.03,389.492 242.03,388.367 244.03,387.231 246.03,386.083 248.03,384.923 250.03,383.752 252.03,382.569 254.03,381.373 256.03,380.166 258.03,378.946 260.03,377.714 262.03,376.469 264.03,375.212 266.03,373.942 268.03,372.659 270.03,371.363 272.03,370.054 274.03,368.732 276.03,367.396 278.03,366.046 280.03,364.683 282.03,363.306 284.03,361.916 286.03,360.511 288.03,359.091 290.03,357.658 292.03,356.209 294.03,354.746 296.03,353.269 298.03,351.776 300.03,350.268 302.03,348.745 304.03,347.206 306.03,345.652 308.03,344.081 310.03,342.495 312.03,340.893 314.03,339.275 316.03,337.64 318.03,335.988 320.03,334.32 322.03,332.635 324.03,330.933 326.03,329.213 328.03,327.476 330.03,325.722 332.03,323.949 334.03,322.159 336.03,320.35 338.03,318.523 340.03,316.677 342.03,314.813 344.03,312.93 346.03,311.028 348.03,309.106 350.03,307.165 352.03,305.204 354.03,303.223 356.03,301.222 358.03,299.201 360.03,297.16 362.03,295.097 364.03,293.014 366.03,290.909 368.03,288.783 370.03,286.636 372.03,284.467 374.03,282.275 376.03,280.062 378.03,277.826 380.03,275.567 382.03,273.285 384.03,270.981 386.03,268.652 388.03,266.301 390.03,263.925 392.03,261.525 394.03,259.101 396.03,256.652 398.03,254.178 400.03,251.68 402.03,249.155 404.03,246.606 406.03,244.03 " fill="none" stroke-opacity="1.000000" stroke-linecap="round" stroke="#1f77b4" stroke-width="1.000000" />
</g>

<polygon points="208.03,244.03 208.03,406.03 406.03,406.03 406.03,244.03 " stroke="black" stroke-width="1.000000" fill="none" id="id0000000349" pointer-events="none" class="rectangle" />
<text id="id0000000350" transform="matrix(1 0 0 1 208.03 244.03)" x="99.000000" y="-12.000000" text-anchor="middle" font-size="24.000000px" >
exp(x)
</text>

</g>

</g>


</g>

</svg>
