<svg viewBox="0 0 200 200" height="100%" width="100%" xmlns:xlink="http://www.w3.org/1999/xlink" xmlns="http://www.w3.org/2000/svg" id="id0000000187" >
<g id="id0000000188" >
<clipPath id="id0000000188clipper" >
<polygon points="36,1 36,178 199,178 199,1 " id="id0000000344" class="rectangle" />
</clipPath>

<g clip-path="url(#id0000000188clipper)" id="id0000000190" >
<g id="id0000000191" >
<g id="id0000000193" >
<g opacity="1.000000" fill="#1f77b4" stroke="black" stroke-width="0.000000" id="id0000000192" >
<path id="id0000000345" d="M 48.8469 168.485 C 49.1461 168.485 49.4422 168.343 49.6287 168.109 C 49.8153 167.875 49.8884 167.555 49.8218 167.263 C 49.7552 166.971 49.5503 166.714 49.2808 166.584 C 49.0112 166.455 48.6826 166.455 48.413 166.584 C 48.1434 166.714 47.9385 166.971 47.8719 167.263 C 47.8054 167.555 47.8785 167.875 48.065 168.109 C 48.2516 168.343 48.5477 168.485 48.8469 168.485 " />
</g>

</g>

<g id="id0000000195" >
<g opacity="1.000000" fill="#1f77b4" stroke="black" stroke-width="0.000000" id="id0000000194" >
<path id="id0000000346" d="M 77.7477 161.709 C 78.0469 161.709 78.343 161.566 78.5296 161.332 C 78.7161 161.098 78.7892 160.778 78.7227 160.486 C 78.6561 160.195 78.4512 159.938 78.1816 159.808 C 77.9121 159.678 77.5834 159.678 77.3139 159.808 C 77.0443 159.938 76.8394 160.195 76.7728 160.486 C 76.7062 160.778 76.7794 161.098 76.9659 161.332 C 77.1525 161.566 77.4485 161.709 77.7477 161.709 " />
</g>

</g>

<g id="id0000000197" >
<g opacity="1.000000" fill="#1f77b4" stroke="black" stroke-width="0.000000" id="id0000000196" >
<path id="id0000000347" d="M 68.6887 173.764 C 68.9879 173.764 69.284 173.621 69.4706 173.387 C 69.6571 173.153 69.7302 172.833 69.6637 172.541 C 69.5971 172.249 69.3922 171.993 69.1226 171.863 C 68.8531 171.733 68.5244 171.733 68.2549 171.863 C 67.9853 171.993 67.7804 172.249 67.7138 172.541 C 67.6472 172.833 67.7204 173.153 67.9069 173.387 C 68.0935 173.621 68.3895 173.764 68.6887 173.764 " />
</g>

</g>

<g id="id0000000199" >
<g opacity="1.000000" fill="#1f77b4" stroke="black" stroke-width="0.000000" id="id0000000198" >
<path id="id0000000348" d="M 54.7966 147.943 C 55.0958 147.943 55.3918 147.8 55.5784 147.566 C 55.7649 147.332 55.8381 147.012 55.7715 146.72 C 55.7049 146.428 55.5 146.171 55.2304 146.042 C 54.9609 145.912 54.6322 145.912 54.3627 146.042 C 54.0931 146.171 53.8882 146.428 53.8216 146.72 C 53.755 147.012 53.8282 147.332 54.0147 147.566 C 54.2013 147.8 54.4974 147.943 54.7966 147.943 " />
</g>

</g>

<g id="id0000000201" >
<g opacity="1.000000" fill="#1f77b4" stroke="black" stroke-width="0.000000" id="id0000000200" >
<path id="id0000000349" d="M 86.2608 140.738 C 86.56 140.738 86.856 140.595 87.0426 140.362 C 87.2291 140.128 87.3023 139.807 87.2357 139.516 C 87.1691 139.224 86.9642 138.967 86.6946 138.837 C 86.4251 138.707 86.0964 138.707 85.8269 138.837 C 85.5573 138.967 85.3524 139.224 85.2858 139.516 C 85.2193 139.807 85.2924 140.128 85.4789 140.362 C 85.6655 140.595 85.9616 140.738 86.2608 140.738 " />
</g>

</g>

<g id="id0000000203" >
<g opacity="1.000000" fill="#1f77b4" stroke="black" stroke-width="0.000000" id="id0000000202" >
<path id="id0000000350" d="M 57.1624 161.271 C 57.4616 161.271 57.7577 161.128 57.9442 160.894 C 58.1308 160.66 58.2039 160.34 58.1373 160.048 C 58.0707 159.757 57.8658 159.5 57.5963 159.37 C 57.3267 159.24 56.9981 159.24 56.7285 159.37 C 56.4589 159.5 56.254 159.757 56.1875 160.048 C 56.1209 160.34 56.194 160.66 56.3806 160.894 C 56.5671 161.128 56.8632 161.271 57.1624 161.271 " />
</g>

</g>

<g id="id0000000205" >
<g opacity="1.000000" fill="#1f77b4" stroke="black" stroke-width="0.000000" id="id0000000204" >
<path id="id0000000351" d="M 97.5428 129.478 C 97.842 129.478 98.1381 129.335 98.3246 129.102 C 98.5112 128.868 98.5843 128.547 98.5177 128.256 C 98.4511 127.964 98.2463 127.707 97.9767 127.577 C 97.7071 127.447 97.3785 127.447 97.1089 127.577 C 96.8393 127.707 96.6345 127.964 96.5679 128.256 C 96.5013 128.547 96.5744 128.868 96.761 129.102 C 96.9475 129.335 97.2436 129.478 97.5428 129.478 " />
</g>

</g>

<g id="id0000000207" >
<g opacity="1.000000" fill="#1f77b4" stroke="black" stroke-width="0.000000" id="id0000000206" >
<path id="id0000000352" d="M 93.749 150.723 C 94.0482 150.723 94.3443 150.581 94.5308 150.347 C 94.7174 150.113 94.7905 149.793 94.7239 149.501 C 94.6573 149.209 94.4524 148.952 94.1829 148.822 C 93.9133 148.693 93.5847 148.693 93.3151 148.822 C 93.0455 148.952 92.8406 149.209 92.774 149.501 C 92.7075 149.793 92.7806 150.113 92.9671 150.347 C 93.1537 150.581 93.4498 150.723 93.749 150.723 " />
</g>

</g>

<g id="id0000000209" >
<g opacity="1.000000" fill="#1f77b4" stroke="black" stroke-width="0.000000" id="id0000000208" >
<path id="id0000000353" d="M 100.721 132.994 C 101.02 132.994 101.316 132.851 101.503 132.617 C 101.689 132.383 101.763 132.063 101.696 131.771 C 101.629 131.48 101.424 131.223 101.155 131.093 C 100.885 130.963 100.557 130.963 100.287 131.093 C 100.018 131.223 99.8127 131.48 99.7461 131.771 C 99.6795 132.063 99.7526 132.383 99.9392 132.617 C 100.126 132.851 100.422 132.994 100.721 132.994 " />
</g>

</g>

<g id="id0000000211" >
<g opacity="1.000000" fill="#1f77b4" stroke="black" stroke-width="0.000000" id="id0000000210" >
<path id="id0000000354" d="M 98.4092 122.883 C 98.7085 122.883 99.0045 122.741 99.1911 122.507 C 99.3776 122.273 99.4508 121.952 99.3842 121.661 C 99.3176 121.369 99.1127 121.112 98.8431 120.982 C 98.5736 120.853 98.2449 120.853 97.9754 120.982 C 97.7058 121.112 97.5009 121.369 97.4343 121.661 C 97.3677 121.952 97.4409 122.273 97.6274 122.507 C 97.814 122.741 98.11 122.883 98.4092 122.883 " />
</g>

</g>

<g id="id0000000213" >
<g opacity="1.000000" fill="#1f77b4" stroke="black" stroke-width="0.000000" id="id0000000212" >
<path id="id0000000355" d="M 111.656 139.468 C 111.955 139.468 112.251 139.325 112.438 139.091 C 112.624 138.857 112.697 138.537 112.631 138.245 C 112.564 137.953 112.359 137.697 112.09 137.567 C 111.82 137.437 111.491 137.437 111.222 137.567 C 110.952 137.697 110.747 137.953 110.681 138.245 C 110.614 138.537 110.687 138.857 110.874 139.091 C 111.06 139.325 111.357 139.468 111.656 139.468 " />
</g>

</g>

<g id="id0000000215" >
<g opacity="1.000000" fill="#1f77b4" stroke="black" stroke-width="0.000000" id="id0000000214" >
<path id="id0000000356" d="M 133.981 117.746 C 134.28 117.746 134.577 117.604 134.763 117.37 C 134.95 117.136 135.023 116.815 134.956 116.524 C 134.89 116.232 134.685 115.975 134.415 115.845 C 134.146 115.715 133.817 115.715 133.547 115.845 C 133.278 115.975 133.073 116.232 133.006 116.524 C 132.94 116.815 133.013 117.136 133.199 117.37 C 133.386 117.604 133.682 117.746 133.981 117.746 " />
</g>

</g>

<g id="id0000000217" >
<g opacity="1.000000" fill="#1f77b4" stroke="black" stroke-width="0.000000" id="id0000000216" >
<path id="id0000000357" d="M 106.428 135.585 C 106.727 135.585 107.023 135.442 107.21 135.208 C 107.396 134.974 107.469 134.654 107.403 134.362 C 107.336 134.071 107.131 133.814 106.862 133.684 C 106.592 133.554 106.263 133.554 105.994 133.684 C 105.724 133.814 105.519 134.071 105.453 134.362 C 105.386 134.654 105.459 134.974 105.646 135.208 C 105.833 135.442 106.129 135.585 106.428 135.585 " />
</g>

</g>

<g id="id0000000219" >
<g opacity="1.000000" fill="#1f77b4" stroke="black" stroke-width="0.000000" id="id0000000218" >
<path id="id0000000358" d="M 118.079 134.941 C 118.378 134.941 118.674 134.799 118.86 134.565 C 119.047 134.331 119.12 134.011 119.053 133.719 C 118.987 133.427 118.782 133.17 118.512 133.04 C 118.243 132.911 117.914 132.911 117.645 133.04 C 117.375 133.17 117.17 133.427 117.104 133.719 C 117.037 134.011 117.11 134.331 117.297 134.565 C 117.483 134.799 117.779 134.941 118.079 134.941 " />
</g>

</g>

<g id="id0000000221" >
<g opacity="1.000000" fill="#1f77b4" stroke="black" stroke-width="0.000000" id="id0000000220" >
<path id="id0000000359" d="M 127.05 106.538 C 127.349 106.538 127.645 106.395 127.832 106.161 C 128.018 105.927 128.091 105.607 128.025 105.315 C 127.958 105.024 127.753 104.767 127.484 104.637 C 127.214 104.507 126.886 104.507 126.616 104.637 C 126.346 104.767 126.142 105.024 126.075 105.315 C 126.008 105.607 126.082 105.927 126.268 106.161 C 126.455 106.395 126.751 106.538 127.05 106.538 " />
</g>

</g>

<g id="id0000000223" >
<g opacity="1.000000" fill="#1f77b4" stroke="black" stroke-width="0.000000" id="id0000000222" >
<path id="id0000000360" d="M 138.301 130.979 C 138.6 130.979 138.896 130.836 139.083 130.602 C 139.269 130.368 139.342 130.048 139.276 129.756 C 139.209 129.464 139.004 129.208 138.735 129.078 C 138.465 128.948 138.137 128.948 137.867 129.078 C 137.597 129.208 137.393 129.464 137.326 129.756 C 137.259 130.048 137.333 130.368 137.519 130.602 C 137.706 130.836 138.002 130.979 138.301 130.979 " />
</g>

</g>

<g id="id0000000225" >
<g opacity="1.000000" fill="#1f77b4" stroke="black" stroke-width="0.000000" id="id0000000224" >
<path id="id0000000361" d="M 128.732 109.002 C 129.031 109.002 129.327 108.859 129.514 108.625 C 129.701 108.391 129.774 108.071 129.707 107.779 C 129.641 107.488 129.436 107.231 129.166 107.101 C 128.896 106.971 128.568 106.971 128.298 107.101 C 128.029 107.231 127.824 107.488 127.757 107.779 C 127.691 108.071 127.764 108.391 127.95 108.625 C 128.137 108.859 128.433 109.002 128.732 109.002 " />
</g>

</g>

<g id="id0000000227" >
<g opacity="1.000000" fill="#1f77b4" stroke="black" stroke-width="0.000000" id="id0000000226" >
<path id="id0000000362" d="M 131.94 126.798 C 132.239 126.798 132.535 126.656 132.721 126.422 C 132.908 126.188 132.981 125.868 132.915 125.576 C 132.848 125.284 132.643 125.027 132.374 124.897 C 132.104 124.768 131.775 124.768 131.506 124.897 C 131.236 125.027 131.031 125.284 130.965 125.576 C 130.898 125.868 130.971 126.188 131.158 126.422 C 131.344 126.656 131.64 126.798 131.94 126.798 " />
</g>

</g>

<g id="id0000000229" >
<g opacity="1.000000" fill="#1f77b4" stroke="black" stroke-width="0.000000" id="id0000000228" >
<path id="id0000000363" d="M 153.065 132.735 C 153.364 132.735 153.66 132.593 153.847 132.359 C 154.033 132.125 154.106 131.804 154.04 131.513 C 153.973 131.221 153.768 130.964 153.499 130.834 C 153.229 130.704 152.901 130.704 152.631 130.834 C 152.361 130.964 152.156 131.221 152.09 131.513 C 152.023 131.804 152.096 132.125 152.283 132.359 C 152.47 132.593 152.766 132.735 153.065 132.735 " />
</g>

</g>

<g id="id0000000231" >
<g opacity="1.000000" fill="#1f77b4" stroke="black" stroke-width="0.000000" id="id0000000230" >
<path id="id0000000364" d="M 159.921 134.968 C 160.22 134.968 160.517 134.825 160.703 134.591 C 160.89 134.357 160.963 134.037 160.896 133.745 C 160.83 133.454 160.625 133.197 160.355 133.067 C 160.086 132.937 159.757 132.937 159.487 133.067 C 159.218 133.197 159.013 133.454 158.946 133.745 C 158.88 134.037 158.953 134.357 159.139 134.591 C 159.326 134.825 159.622 134.968 159.921 134.968 " />
</g>

</g>

<g id="id0000000233" >
<g opacity="1.000000" fill="#1f77b4" stroke="black" stroke-width="0.000000" id="id0000000232" >
<path id="id0000000365" d="M 161.772 110.138 C 162.072 110.138 162.368 109.995 162.554 109.761 C 162.741 109.527 162.814 109.207 162.747 108.915 C 162.681 108.624 162.476 108.367 162.206 108.237 C 161.937 108.107 161.608 108.107 161.339 108.237 C 161.069 108.367 160.864 108.624 160.797 108.915 C 160.731 109.207 160.804 109.527 160.991 109.761 C 161.177 109.995 161.473 110.138 161.772 110.138 " />
</g>

</g>

<g id="id0000000235" >
<g opacity="1.000000" fill="#1f77b4" stroke="black" stroke-width="0.000000" id="id0000000234" >
<path id="id0000000366" d="M 186.934 87.6578 C 187.234 87.6578 187.53 87.5152 187.716 87.2813 C 187.903 87.0474 187.976 86.727 187.909 86.4353 C 187.843 86.1436 187.638 85.8866 187.368 85.7568 C 187.099 85.627 186.77 85.627 186.501 85.7568 C 186.231 85.8866 186.026 86.1436 185.959 86.4353 C 185.893 86.727 185.966 87.0474 186.153 87.2813 C 186.339 87.5152 186.635 87.6578 186.934 87.6578 " />
</g>

</g>

<g id="id0000000237" >
<g opacity="1.000000" fill="#1f77b4" stroke="black" stroke-width="0.000000" id="id0000000236" >
<path id="id0000000367" d="M 180.896 113.379 C 181.195 113.379 181.491 113.236 181.677 113.002 C 181.864 112.768 181.937 112.448 181.87 112.156 C 181.804 111.864 181.599 111.608 181.329 111.478 C 181.06 111.348 180.731 111.348 180.462 111.478 C 180.192 111.608 179.987 111.864 179.921 112.156 C 179.854 112.448 179.927 112.768 180.114 113.002 C 180.3 113.236 180.596 113.379 180.896 113.379 " />
</g>

</g>

<g id="id0000000239" >
<g opacity="1.000000" fill="#1f77b4" stroke="black" stroke-width="0.000000" id="id0000000238" >
<path id="id0000000368" d="M 171.721 124.946 C 172.02 124.946 172.317 124.803 172.503 124.569 C 172.69 124.335 172.763 124.015 172.696 123.723 C 172.63 123.431 172.425 123.174 172.155 123.045 C 171.886 122.915 171.557 122.915 171.287 123.045 C 171.018 123.174 170.813 123.431 170.746 123.723 C 170.68 124.015 170.753 124.335 170.939 124.569 C 171.126 124.803 171.422 124.946 171.721 124.946 " />
</g>

</g>

<g id="id0000000241" >
<g opacity="1.000000" fill="#1f77b4" stroke="black" stroke-width="0.000000" id="id0000000240" >
<path id="id0000000369" d="M 193.643 111.481 C 193.942 111.481 194.238 111.338 194.425 111.104 C 194.611 110.871 194.684 110.55 194.618 110.258 C 194.551 109.967 194.346 109.71 194.077 109.58 C 193.807 109.45 193.478 109.45 193.209 109.58 C 192.939 109.71 192.734 109.967 192.668 110.258 C 192.601 110.55 192.674 110.871 192.861 111.104 C 193.047 111.338 193.344 111.481 193.643 111.481 " />
</g>

</g>

</g>

<g id="id0000000242" >
<g id="id0000000244" >
<g opacity="1.000000" fill="#ff7f0e" stroke="black" stroke-width="0.000000" id="id0000000243" >
<path id="id0000000370" d="M 89.0784 111.185 C 89.3776 111.185 89.6737 111.042 89.8603 110.808 C 90.0468 110.574 90.1199 110.254 90.0534 109.962 C 89.9868 109.67 89.7819 109.414 89.5123 109.284 C 89.2428 109.154 88.9141 109.154 88.6446 109.284 C 88.375 109.414 88.1701 109.67 88.1035 109.962 C 88.0369 110.254 88.1101 110.574 88.2966 110.808 C 88.4832 111.042 88.7792 111.185 89.0784 111.185 " />
</g>

</g>

<g id="id0000000246" >
<g opacity="1.000000" fill="#ff7f0e" stroke="black" stroke-width="0.000000" id="id0000000245" >
<path id="id0000000371" d="M 64.1655 108.121 C 64.4647 108.121 64.7608 107.978 64.9473 107.744 C 65.1339 107.51 65.207 107.19 65.1404 106.898 C 65.0738 106.607 64.8689 106.35 64.5994 106.22 C 64.3298 106.09 64.0012 106.09 63.7316 106.22 C 63.462 106.35 63.2571 106.607 63.1906 106.898 C 63.124 107.19 63.1971 107.51 63.3837 107.744 C 63.5702 107.978 63.8663 108.121 64.1655 108.121 " />
</g>

</g>

<g id="id0000000248" >
<g opacity="1.000000" fill="#ff7f0e" stroke="black" stroke-width="0.000000" id="id0000000247" >
<path id="id0000000372" d="M 41.2824 74.3524 C 41.5816 74.3524 41.8777 74.2098 42.0643 73.9759 C 42.2508 73.742 42.3239 73.4216 42.2574 73.1299 C 42.1908 72.8382 41.9859 72.5812 41.7163 72.4514 C 41.4467 72.3216 41.1181 72.3216 40.8485 72.4514 C 40.579 72.5812 40.3741 72.8382 40.3075 73.1299 C 40.2409 73.4216 40.314 73.742 40.5006 73.9759 C 40.6871 74.2098 40.9832 74.3524 41.2824 74.3524 " />
</g>

</g>

<g id="id0000000250" >
<g opacity="1.000000" fill="#ff7f0e" stroke="black" stroke-width="0.000000" id="id0000000249" >
<path id="id0000000373" d="M 68.4496 86.331 C 68.7488 86.331 69.0448 86.1884 69.2314 85.9545 C 69.4179 85.7206 69.4911 85.4002 69.4245 85.1085 C 69.3579 84.8168 69.153 84.5599 68.8834 84.43 C 68.6139 84.3002 68.2852 84.3002 68.0157 84.43 C 67.7461 84.5599 67.5412 84.8168 67.4746 85.1085 C 67.4081 85.4002 67.4812 85.7206 67.6677 85.9545 C 67.8543 86.1884 68.1504 86.331 68.4496 86.331 " />
</g>

</g>

<g id="id0000000252" >
<g opacity="1.000000" fill="#ff7f0e" stroke="black" stroke-width="0.000000" id="id0000000251" >
<path id="id0000000374" d="M 99.7484 89.5854 C 100.048 89.5854 100.344 89.4428 100.53 89.2088 C 100.717 88.9749 100.79 88.6545 100.723 88.3628 C 100.657 88.0711 100.452 87.8142 100.182 87.6844 C 99.9127 87.5546 99.5841 87.5546 99.3145 87.6844 C 99.045 87.8142 98.8401 88.0711 98.7735 88.3628 C 98.7069 88.6545 98.78 88.9749 98.9666 89.2088 C 99.1531 89.4428 99.4492 89.5854 99.7484 89.5854 " />
</g>

</g>

<g id="id0000000254" >
<g opacity="1.000000" fill="#ff7f0e" stroke="black" stroke-width="0.000000" id="id0000000253" >
<path id="id0000000375" d="M 93.1292 124.357 C 93.4284 124.357 93.7245 124.215 93.9111 123.981 C 94.0976 123.747 94.1707 123.426 94.1042 123.135 C 94.0376 122.843 93.8327 122.586 93.5631 122.456 C 93.2935 122.326 92.9649 122.326 92.6954 122.456 C 92.4258 122.586 92.2209 122.843 92.1543 123.135 C 92.0877 123.426 92.1609 123.747 92.3474 123.981 C 92.534 124.215 92.83 124.357 93.1292 124.357 " />
</g>

</g>

<g id="id0000000256" >
<g opacity="1.000000" fill="#ff7f0e" stroke="black" stroke-width="0.000000" id="id0000000255" >
<path id="id0000000376" d="M 77.9939 89.5323 C 78.2931 89.5323 78.5892 89.3897 78.7757 89.1558 C 78.9623 88.9219 79.0354 88.6015 78.9688 88.3098 C 78.9023 88.0181 78.6974 87.7611 78.4278 87.6313 C 78.1582 87.5015 77.8296 87.5015 77.56 87.6313 C 77.2905 87.7611 77.0856 88.0181 77.019 88.3098 C 76.9524 88.6015 77.0255 88.9219 77.2121 89.1558 C 77.3986 89.3897 77.6947 89.5323 77.9939 89.5323 " />
</g>

</g>

<g id="id0000000258" >
<g opacity="1.000000" fill="#ff7f0e" stroke="black" stroke-width="0.000000" id="id0000000257" >
<path id="id0000000377" d="M 104.819 72.9533 C 105.118 72.9533 105.414 72.8107 105.601 72.5768 C 105.787 72.3429 105.86 72.0225 105.794 71.7308 C 105.727 71.4391 105.522 71.1822 105.253 71.0523 C 104.983 70.9225 104.655 70.9225 104.385 71.0523 C 104.115 71.1822 103.911 71.4391 103.844 71.7308 C 103.777 72.0225 103.851 72.3429 104.037 72.5768 C 104.224 72.8107 104.52 72.9533 104.819 72.9533 " />
</g>

</g>

<g id="id0000000260" >
<g opacity="1.000000" fill="#ff7f0e" stroke="black" stroke-width="0.000000" id="id0000000259" >
<path id="id0000000378" d="M 112.472 101.691 C 112.771 101.691 113.067 101.548 113.254 101.314 C 113.44 101.08 113.513 100.76 113.447 100.468 C 113.38 100.177 113.175 99.9197 112.906 99.7898 C 112.636 99.66 112.308 99.66 112.038 99.7898 C 111.768 99.9197 111.564 100.177 111.497 100.468 C 111.43 100.76 111.503 101.08 111.69 101.314 C 111.877 101.548 112.173 101.691 112.472 101.691 " />
</g>

</g>

<g id="id0000000262" >
<g opacity="1.000000" fill="#ff7f0e" stroke="black" stroke-width="0.000000" id="id0000000261" >
<path id="id0000000379" d="M 118.35 100.741 C 118.649 100.741 118.945 100.599 119.132 100.365 C 119.318 100.131 119.391 99.8106 119.325 99.5189 C 119.258 99.2272 119.053 98.9703 118.784 98.8405 C 118.514 98.7106 118.185 98.7106 117.916 98.8405 C 117.646 98.9703 117.441 99.2272 117.375 99.5189 C 117.308 99.8106 117.381 100.131 117.568 100.365 C 117.754 100.599 118.051 100.741 118.35 100.741 " />
</g>

</g>

<g id="id0000000264" >
<g opacity="1.000000" fill="#ff7f0e" stroke="black" stroke-width="0.000000" id="id0000000263" >
<path id="id0000000380" d="M 101.001 88.5494 C 101.3 88.5494 101.596 88.4068 101.783 88.1729 C 101.969 87.9389 102.043 87.6185 101.976 87.3269 C 101.909 87.0351 101.705 86.7782 101.435 86.6484 C 101.165 86.5186 100.837 86.5186 100.567 86.6484 C 100.298 86.7782 100.093 87.0351 100.026 87.3269 C 99.9595 87.6185 100.033 87.9389 100.219 88.1729 C 100.406 88.4068 100.702 88.5494 101.001 88.5494 " />
</g>

</g>

<g id="id0000000266" >
<g opacity="1.000000" fill="#ff7f0e" stroke="black" stroke-width="0.000000" id="id0000000265" >
<path id="id0000000381" d="M 120.891 89.5015 C 121.191 89.5015 121.487 89.359 121.673 89.125 C 121.86 88.8911 121.933 88.5707 121.866 88.279 C 121.8 87.9873 121.595 87.7304 121.325 87.6006 C 121.056 87.4708 120.727 87.4708 120.458 87.6006 C 120.188 87.7304 119.983 87.9873 119.917 88.279 C 119.85 88.5707 119.923 88.8911 120.11 89.125 C 120.296 89.359 120.592 89.5015 120.891 89.5015 " />
</g>

</g>

<g id="id0000000268" >
<g opacity="1.000000" fill="#ff7f0e" stroke="black" stroke-width="0.000000" id="id0000000267" >
<path id="id0000000382" d="M 135.534 94.6482 C 135.833 94.6482 136.129 94.5056 136.316 94.2717 C 136.502 94.0377 136.575 93.7173 136.509 93.4256 C 136.442 93.1339 136.237 92.877 135.968 92.7472 C 135.698 92.6174 135.37 92.6174 135.1 92.7472 C 134.83 92.877 134.626 93.1339 134.559 93.4256 C 134.492 93.7173 134.566 94.0377 134.752 94.2717 C 134.939 94.5056 135.235 94.6482 135.534 94.6482 " />
</g>

</g>

<g id="id0000000270" >
<g opacity="1.000000" fill="#ff7f0e" stroke="black" stroke-width="0.000000" id="id0000000269" >
<path id="id0000000383" d="M 118.085 69.0147 C 118.384 69.0147 118.68 68.8721 118.867 68.6382 C 119.053 68.4042 119.127 68.0839 119.06 67.7922 C 118.993 67.5005 118.788 67.2435 118.519 67.1137 C 118.249 66.9839 117.921 66.9839 117.651 67.1137 C 117.382 67.2435 117.177 67.5005 117.11 67.7922 C 117.044 68.0839 117.117 68.4042 117.303 68.6382 C 117.49 68.8721 117.786 69.0147 118.085 69.0147 " />
</g>

</g>

<g id="id0000000272" >
<g opacity="1.000000" fill="#ff7f0e" stroke="black" stroke-width="0.000000" id="id0000000271" >
<path id="id0000000384" d="M 125.637 76.1162 C 125.936 76.1162 126.232 75.9736 126.419 75.7397 C 126.605 75.5058 126.678 75.1854 126.612 74.8937 C 126.545 74.602 126.34 74.3451 126.071 74.2152 C 125.801 74.0854 125.473 74.0854 125.203 74.2152 C 124.933 74.3451 124.729 74.602 124.662 74.8937 C 124.595 75.1854 124.669 75.5058 124.855 75.7397 C 125.042 75.9736 125.338 76.1162 125.637 76.1162 " />
</g>

</g>

<g id="id0000000274" >
<g opacity="1.000000" fill="#ff7f0e" stroke="black" stroke-width="0.000000" id="id0000000273" >
<path id="id0000000385" d="M 135.611 80.7467 C 135.91 80.7467 136.206 80.6041 136.392 80.3701 C 136.579 80.1362 136.652 79.8158 136.585 79.5241 C 136.519 79.2324 136.314 78.9755 136.044 78.8457 C 135.775 78.7159 135.446 78.7159 135.177 78.8457 C 134.907 78.9755 134.702 79.2324 134.636 79.5241 C 134.569 79.8158 134.642 80.1362 134.829 80.3701 C 135.015 80.6041 135.311 80.7467 135.611 80.7467 " />
</g>

</g>

<g id="id0000000276" >
<g opacity="1.000000" fill="#ff7f0e" stroke="black" stroke-width="0.000000" id="id0000000275" >
<path id="id0000000386" d="M 139.874 52.3856 C 140.174 52.3856 140.47 52.243 140.656 52.0091 C 140.843 51.7752 140.916 51.4548 140.849 51.1631 C 140.783 50.8714 140.578 50.6145 140.308 50.4846 C 140.039 50.3548 139.71 50.3548 139.441 50.4846 C 139.171 50.6145 138.966 50.8714 138.899 51.1631 C 138.833 51.4548 138.906 51.7752 139.093 52.0091 C 139.279 52.243 139.575 52.3856 139.874 52.3856 " />
</g>

</g>

<g id="id0000000278" >
<g opacity="1.000000" fill="#ff7f0e" stroke="black" stroke-width="0.000000" id="id0000000277" >
<path id="id0000000387" d="M 146.07 54.8288 C 146.369 54.8288 146.665 54.6862 146.852 54.4523 C 147.038 54.2183 147.111 53.8979 147.045 53.6062 C 146.978 53.3145 146.773 53.0576 146.504 52.9278 C 146.234 52.798 145.905 52.798 145.636 52.9278 C 145.366 53.0576 145.161 53.3145 145.095 53.6062 C 145.028 53.8979 145.101 54.2183 145.288 54.4523 C 145.474 54.6862 145.771 54.8288 146.07 54.8288 " />
</g>

</g>

<g id="id0000000280" >
<g opacity="1.000000" fill="#ff7f0e" stroke="black" stroke-width="0.000000" id="id0000000279" >
<path id="id0000000388" d="M 161.998 84.457 C 162.297 84.457 162.594 84.3144 162.78 84.0805 C 162.967 83.8466 163.04 83.5262 162.973 83.2345 C 162.907 82.9428 162.702 82.6859 162.432 82.556 C 162.163 82.4262 161.834 82.4262 161.564 82.556 C 161.295 82.6859 161.09 82.9428 161.023 83.2345 C 160.957 83.5262 161.03 83.8466 161.216 84.0805 C 161.403 84.3144 161.699 84.457 161.998 84.457 " />
</g>

</g>

<g id="id0000000282" >
<g opacity="1.000000" fill="#ff7f0e" stroke="black" stroke-width="0.000000" id="id0000000281" >
<path id="id0000000389" d="M 150.906 73.8409 C 151.206 73.8409 151.502 73.6983 151.688 73.4644 C 151.875 73.2305 151.948 72.9101 151.881 72.6184 C 151.815 72.3267 151.61 72.0697 151.34 71.9399 C 151.071 71.8101 150.742 71.8101 150.473 71.9399 C 150.203 72.0697 149.998 72.3267 149.931 72.6184 C 149.865 72.9101 149.938 73.2305 150.125 73.4644 C 150.311 73.6983 150.607 73.8409 150.906 73.8409 " />
</g>

</g>

<g id="id0000000284" >
<g opacity="1.000000" fill="#ff7f0e" stroke="black" stroke-width="0.000000" id="id0000000283" >
<path id="id0000000390" d="M 183.13 76.515 C 183.429 76.515 183.725 76.3724 183.912 76.1384 C 184.098 75.9045 184.171 75.5841 184.105 75.2924 C 184.038 75.0007 183.833 74.7438 183.564 74.614 C 183.294 74.4842 182.965 74.4842 182.696 74.614 C 182.426 74.7438 182.221 75.0007 182.155 75.2924 C 182.088 75.5841 182.161 75.9045 182.348 76.1384 C 182.535 76.3724 182.831 76.515 183.13 76.515 " />
</g>

</g>

<g id="id0000000286" >
<g opacity="1.000000" fill="#ff7f0e" stroke="black" stroke-width="0.000000" id="id0000000285" >
<path id="id0000000391" d="M 168.41 92.5405 C 168.709 92.5405 169.005 92.3979 169.192 92.164 C 169.378 91.9301 169.451 91.6097 169.385 91.318 C 169.318 91.0263 169.113 90.7694 168.844 90.6396 C 168.574 90.5098 168.246 90.5098 167.976 90.6396 C 167.706 90.7694 167.502 91.0263 167.435 91.318 C 167.368 91.6097 167.442 91.9301 167.628 92.164 C 167.815 92.3979 168.111 92.5405 168.41 92.5405 " />
</g>

</g>

<g id="id0000000288" >
<g opacity="1.000000" fill="#ff7f0e" stroke="black" stroke-width="0.000000" id="id0000000287" >
<path id="id0000000392" d="M 176.173 93.9796 C 176.472 93.9796 176.768 93.837 176.955 93.6031 C 177.141 93.3692 177.214 93.0488 177.148 92.7571 C 177.081 92.4654 176.876 92.2085 176.607 92.0786 C 176.337 91.9488 176.009 91.9488 175.739 92.0786 C 175.47 92.2085 175.265 92.4654 175.198 92.7571 C 175.131 93.0488 175.205 93.3692 175.391 93.6031 C 175.578 93.837 175.874 93.9796 176.173 93.9796 " />
</g>

</g>

<g id="id0000000290" >
<g opacity="1.000000" fill="#ff7f0e" stroke="black" stroke-width="0.000000" id="id0000000289" >
<path id="id0000000393" d="M 166.915 68.147 C 167.215 68.147 167.511 68.0044 167.697 67.7705 C 167.884 67.5365 167.957 67.2161 167.89 66.9244 C 167.824 66.6327 167.619 66.3758 167.349 66.246 C 167.08 66.1162 166.751 66.1162 166.481 66.246 C 166.212 66.3758 166.007 66.6327 165.94 66.9244 C 165.874 67.2161 165.947 67.5365 166.133 67.7705 C 166.32 68.0044 166.616 68.147 166.915 68.147 " />
</g>

</g>

<g id="id0000000292" >
<g opacity="1.000000" fill="#ff7f0e" stroke="black" stroke-width="0.000000" id="id0000000291" >
<path id="id0000000394" d="M 176.942 71.2183 C 177.241 71.2183 177.537 71.0757 177.723 70.8417 C 177.91 70.6078 177.983 70.2874 177.917 69.9957 C 177.85 69.704 177.645 69.4471 177.376 69.3173 C 177.106 69.1875 176.777 69.1875 176.508 69.3173 C 176.238 69.4471 176.033 69.704 175.967 69.9957 C 175.9 70.2874 175.973 70.6078 176.16 70.8417 C 176.346 71.0757 176.642 71.2183 176.942 71.2183 " />
</g>

</g>

</g>

<g id="id0000000293" >
<g id="id0000000295" >
<g opacity="1.000000" fill="#2ca02c" stroke="black" stroke-width="0.000000" id="id0000000294" >
<path id="id0000000395" d="M 44.3967 58.5386 C 44.6959 58.5386 44.992 58.396 45.1785 58.1621 C 45.3651 57.9281 45.4382 57.6078 45.3716 57.3161 C 45.3051 57.0244 45.1002 56.7674 44.8306 56.6376 C 44.561 56.5078 44.2324 56.5078 43.9628 56.6376 C 43.6933 56.7674 43.4884 57.0244 43.4218 57.3161 C 43.3552 57.6078 43.4283 57.9281 43.6149 58.1621 C 43.8014 58.396 44.0975 58.5386 44.3967 58.5386 " />
</g>

</g>

<g id="id0000000297" >
<g opacity="1.000000" fill="#2ca02c" stroke="black" stroke-width="0.000000" id="id0000000296" >
<path id="id0000000396" d="M 49.7193 68.7214 C 50.0185 68.7214 50.3145 68.5788 50.5011 68.3448 C 50.6876 68.1109 50.7608 67.7905 50.6942 67.4988 C 50.6276 67.2071 50.4227 66.9502 50.1531 66.8204 C 49.8836 66.6906 49.5549 66.6906 49.2854 66.8204 C 49.0158 66.9502 48.8109 67.2071 48.7443 67.4988 C 48.6777 67.7905 48.7509 68.1109 48.9374 68.3448 C 49.124 68.5788 49.4201 68.7214 49.7193 68.7214 " />
</g>

</g>

<g id="id0000000299" >
<g opacity="1.000000" fill="#2ca02c" stroke="black" stroke-width="0.000000" id="id0000000298" >
<path id="id0000000397" d="M 62.9499 58.4863 C 63.2491 58.4863 63.5451 58.3438 63.7317 58.1098 C 63.9182 57.8759 63.9914 57.5555 63.9248 57.2638 C 63.8582 56.9721 63.6533 56.7152 63.3837 56.5854 C 63.1142 56.4556 62.7855 56.4556 62.516 56.5854 C 62.2464 56.7152 62.0415 56.9721 61.9749 57.2638 C 61.9084 57.5555 61.9815 57.8759 62.168 58.1098 C 62.3546 58.3438 62.6507 58.4863 62.9499 58.4863 " />
</g>

</g>

<g id="id0000000301" >
<g opacity="1.000000" fill="#2ca02c" stroke="black" stroke-width="0.000000" id="id0000000300" >
<path id="id0000000398" d="M 50.672 30.6403 C 50.9712 30.6403 51.2673 30.4977 51.4538 30.2638 C 51.6404 30.0298 51.7135 29.7094 51.6469 29.4177 C 51.5803 29.126 51.3755 28.8691 51.1059 28.7393 C 50.8363 28.6095 50.5077 28.6095 50.2381 28.7393 C 49.9685 28.8691 49.7636 29.126 49.6971 29.4177 C 49.6305 29.7094 49.7036 30.0298 49.8902 30.2638 C 50.0767 30.4977 50.3728 30.6403 50.672 30.6403 " />
</g>

</g>

<g id="id0000000303" >
<g opacity="1.000000" fill="#2ca02c" stroke="black" stroke-width="0.000000" id="id0000000302" >
<path id="id0000000399" d="M 89.4129 60.1247 C 89.7121 60.1247 90.0082 59.9821 90.1948 59.7482 C 90.3813 59.5143 90.4544 59.1939 90.3879 58.9022 C 90.3213 58.6105 90.1164 58.3535 89.8468 58.2237 C 89.5773 58.0939 89.2486 58.0939 88.9791 58.2237 C 88.7095 58.3535 88.5046 58.6105 88.438 58.9022 C 88.3714 59.1939 88.4446 59.5143 88.6311 59.7482 C 88.8177 59.9821 89.1137 60.1247 89.4129 60.1247 " />
</g>

</g>

<g id="id0000000305" >
<g opacity="1.000000" fill="#2ca02c" stroke="black" stroke-width="0.000000" id="id0000000304" >
<path id="id0000000400" d="M 93.52 66.0804 C 93.8192 66.0804 94.1153 65.9378 94.3018 65.7039 C 94.4884 65.47 94.5615 65.1496 94.4949 64.8579 C 94.4283 64.5662 94.2234 64.3093 93.9539 64.1795 C 93.6843 64.0496 93.3557 64.0496 93.0861 64.1795 C 92.8165 64.3093 92.6116 64.5662 92.5451 64.8579 C 92.4785 65.1496 92.5516 65.47 92.7382 65.7039 C 92.9247 65.9378 93.2208 66.0804 93.52 66.0804 " />
</g>

</g>

<g id="id0000000307" >
<g opacity="1.000000" fill="#2ca02c" stroke="black" stroke-width="0.000000" id="id0000000306" >
<path id="id0000000401" d="M 74.15 21.5219 C 74.4492 21.5219 74.7453 21.3793 74.9318 21.1454 C 75.1184 20.9115 75.1915 20.5911 75.1249 20.2994 C 75.0583 20.0077 74.8534 19.7508 74.5839 19.6209 C 74.3143 19.4911 73.9857 19.4911 73.7161 19.6209 C 73.4465 19.7508 73.2416 20.0077 73.1751 20.2994 C 73.1085 20.5911 73.1816 20.9115 73.3682 21.1454 C 73.5547 21.3793 73.8508 21.5219 74.15 21.5219 " />
</g>

</g>

<g id="id0000000309" >
<g opacity="1.000000" fill="#2ca02c" stroke="black" stroke-width="0.000000" id="id0000000308" >
<path id="id0000000402" d="M 88.4441 25.6426 C 88.7433 25.6426 89.0393 25.5001 89.2259 25.2661 C 89.4124 25.0322 89.4856 24.7118 89.419 24.4201 C 89.3524 24.1284 89.1475 23.8715 88.8779 23.7417 C 88.6084 23.6119 88.2797 23.6119 88.0102 23.7417 C 87.7406 23.8715 87.5357 24.1284 87.4691 24.4201 C 87.4025 24.7118 87.4757 25.0322 87.6622 25.2661 C 87.8488 25.5001 88.1449 25.6426 88.4441 25.6426 " />
</g>

</g>

<g id="id0000000311" >
<g opacity="1.000000" fill="#2ca02c" stroke="black" stroke-width="0.000000" id="id0000000310" >
<path id="id0000000403" d="M 77.7347 61.773 C 78.0339 61.773 78.33 61.6304 78.5165 61.3965 C 78.7031 61.1625 78.7762 60.8421 78.7096 60.5504 C 78.643 60.2587 78.4381 60.0018 78.1686 59.872 C 77.899 59.7422 77.5704 59.7422 77.3008 59.872 C 77.0312 60.0018 76.8263 60.2587 76.7598 60.5504 C 76.6932 60.8421 76.7663 61.1625 76.9529 61.3965 C 77.1394 61.6304 77.4355 61.773 77.7347 61.773 " />
</g>

</g>

<g id="id0000000313" >
<g opacity="1.000000" fill="#2ca02c" stroke="black" stroke-width="0.000000" id="id0000000312" >
<path id="id0000000404" d="M 99.8057 44.0483 C 100.105 44.0483 100.401 43.9057 100.588 43.6718 C 100.774 43.4379 100.847 43.1175 100.781 42.8258 C 100.714 42.5341 100.509 42.2772 100.24 42.1474 C 99.97 42.0175 99.6414 42.0175 99.3718 42.1474 C 99.1022 42.2772 98.8973 42.5341 98.8307 42.8258 C 98.7642 43.1175 98.8373 43.4379 99.0238 43.6718 C 99.2104 43.9057 99.5065 44.0483 99.8057 44.0483 " />
</g>

</g>

<g id="id0000000315" >
<g opacity="1.000000" fill="#2ca02c" stroke="black" stroke-width="0.000000" id="id0000000314" >
<path id="id0000000405" d="M 100.261 38.7344 C 100.56 38.7344 100.856 38.5918 101.042 38.3579 C 101.229 38.1239 101.302 37.8036 101.235 37.5119 C 101.169 37.2202 100.964 36.9632 100.694 36.8334 C 100.425 36.7036 100.096 36.7036 99.8266 36.8334 C 99.5571 36.9632 99.3522 37.2202 99.2856 37.5119 C 99.219 37.8036 99.2921 38.1239 99.4787 38.3579 C 99.6652 38.5918 99.9613 38.7344 100.261 38.7344 " />
</g>

</g>

<g id="id0000000317" >
<g opacity="1.000000" fill="#2ca02c" stroke="black" stroke-width="0.000000" id="id0000000316" >
<path id="id0000000406" d="M 104.968 63.1163 C 105.267 63.1163 105.563 62.9737 105.749 62.7398 C 105.936 62.5059 106.009 62.1855 105.943 61.8938 C 105.876 61.6021 105.671 61.3452 105.402 61.2154 C 105.132 61.0855 104.803 61.0855 104.534 61.2154 C 104.264 61.3452 104.059 61.6021 103.993 61.8938 C 103.926 62.1855 103.999 62.5059 104.186 62.7398 C 104.372 62.9737 104.668 63.1163 104.968 63.1163 " />
</g>

</g>

<g id="id0000000319" >
<g opacity="1.000000" fill="#2ca02c" stroke="black" stroke-width="0.000000" id="id0000000318" >
<path id="id0000000407" d="M 117.033 43.7753 C 117.332 43.7753 117.628 43.6327 117.815 43.3988 C 118.001 43.1649 118.074 42.8445 118.008 42.5528 C 117.941 42.2611 117.736 42.0041 117.467 41.8743 C 117.197 41.7445 116.868 41.7445 116.599 41.8743 C 116.329 42.0041 116.124 42.2611 116.058 42.5528 C 115.991 42.8445 116.064 43.1649 116.251 43.3988 C 116.438 43.6327 116.734 43.7753 117.033 43.7753 " />
</g>

</g>

<g id="id0000000321" >
<g opacity="1.000000" fill="#2ca02c" stroke="black" stroke-width="0.000000" id="id0000000320" >
<path id="id0000000408" d="M 123.597 43.3081 C 123.896 43.3081 124.192 43.1655 124.379 42.9316 C 124.566 42.6977 124.639 42.3773 124.572 42.0856 C 124.506 41.7939 124.301 41.5369 124.031 41.4071 C 123.762 41.2773 123.433 41.2773 123.163 41.4071 C 122.894 41.5369 122.689 41.7939 122.622 42.0856 C 122.556 42.3773 122.629 42.6977 122.815 42.9316 C 123.002 43.1655 123.298 43.3081 123.597 43.3081 " />
</g>

</g>

<g id="id0000000323" >
<g opacity="1.000000" fill="#2ca02c" stroke="black" stroke-width="0.000000" id="id0000000322" >
<path id="id0000000409" d="M 129.882 29.6668 C 130.181 29.6668 130.477 29.5242 130.663 29.2903 C 130.85 29.0564 130.923 28.736 130.857 28.4443 C 130.79 28.1526 130.585 27.8957 130.315 27.7658 C 130.046 27.636 129.717 27.636 129.448 27.7658 C 129.178 27.8957 128.973 28.1526 128.907 28.4443 C 128.84 28.736 128.913 29.0564 129.1 29.2903 C 129.286 29.5242 129.582 29.6668 129.882 29.6668 " />
</g>

</g>

<g id="id0000000325" >
<g opacity="1.000000" fill="#2ca02c" stroke="black" stroke-width="0.000000" id="id0000000324" >
<path id="id0000000410" d="M 126.717 46.3257 C 127.016 46.3257 127.312 46.1831 127.499 45.9492 C 127.685 45.7152 127.759 45.3949 127.692 45.1032 C 127.625 44.8115 127.42 44.5545 127.151 44.4247 C 126.881 44.2949 126.553 44.2949 126.283 44.4247 C 126.014 44.5545 125.809 44.8115 125.742 45.1032 C 125.676 45.3949 125.749 45.7152 125.935 45.9492 C 126.122 46.1831 126.418 46.3257 126.717 46.3257 " />
</g>

</g>

<g id="id0000000327" >
<g opacity="1.000000" fill="#2ca02c" stroke="black" stroke-width="0.000000" id="id0000000326" >
<path id="id0000000411" d="M 150.607 16.9245 C 150.906 16.9245 151.202 16.7819 151.389 16.5479 C 151.575 16.314 151.648 15.9936 151.582 15.7019 C 151.515 15.4102 151.31 15.1533 151.041 15.0235 C 150.771 14.8937 150.442 14.8937 150.173 15.0235 C 149.903 15.1533 149.698 15.4102 149.632 15.7019 C 149.565 15.9936 149.638 16.314 149.825 16.5479 C 150.011 16.7819 150.308 16.9245 150.607 16.9245 " />
</g>

</g>

<g id="id0000000329" >
<g opacity="1.000000" fill="#2ca02c" stroke="black" stroke-width="0.000000" id="id0000000328" >
<path id="id0000000412" d="M 145.274 10.5547 C 145.573 10.5547 145.869 10.4121 146.056 10.1782 C 146.242 9.94424 146.316 9.62385 146.249 9.33215 C 146.182 9.04045 145.977 8.78352 145.708 8.6537 C 145.438 8.52389 145.11 8.52389 144.84 8.6537 C 144.571 8.78352 144.366 9.04045 144.299 9.33215 C 144.233 9.62385 144.306 9.94424 144.492 10.1782 C 144.679 10.4121 144.975 10.5547 145.274 10.5547 " />
</g>

</g>

<g id="id0000000331" >
<g opacity="1.000000" fill="#2ca02c" stroke="black" stroke-width="0.000000" id="id0000000330" >
<path id="id0000000413" d="M 142.891 31.0523 C 143.19 31.0523 143.486 30.9097 143.672 30.6758 C 143.859 30.4418 143.932 30.1214 143.866 29.8297 C 143.799 29.538 143.594 29.2811 143.325 29.1513 C 143.055 29.0215 142.726 29.0215 142.457 29.1513 C 142.187 29.2811 141.982 29.538 141.916 29.8297 C 141.849 30.1214 141.922 30.4418 142.109 30.6758 C 142.295 30.9097 142.591 31.0523 142.891 31.0523 " />
</g>

</g>

<g id="id0000000333" >
<g opacity="1.000000" fill="#2ca02c" stroke="black" stroke-width="0.000000" id="id0000000332" >
<path id="id0000000414" d="M 159.498 48.1469 C 159.797 48.1469 160.093 48.0043 160.28 47.7703 C 160.466 47.5364 160.54 47.216 160.473 46.9243 C 160.406 46.6326 160.202 46.3757 159.932 46.2459 C 159.662 46.1161 159.334 46.1161 159.064 46.2459 C 158.795 46.3757 158.59 46.6326 158.523 46.9243 C 158.457 47.216 158.53 47.5364 158.716 47.7703 C 158.903 48.0043 159.199 48.1469 159.498 48.1469 " />
</g>

</g>

<g id="id0000000335" >
<g opacity="1.000000" fill="#2ca02c" stroke="black" stroke-width="0.000000" id="id0000000334" >
<path id="id0000000415" d="M 152.665 30.9435 C 152.964 30.9435 153.26 30.8009 153.446 30.5669 C 153.633 30.333 153.706 30.0126 153.639 29.7209 C 153.573 29.4292 153.368 29.1723 153.098 29.0425 C 152.829 28.9127 152.5 28.9127 152.231 29.0425 C 151.961 29.1723 151.756 29.4292 151.69 29.7209 C 151.623 30.0126 151.696 30.333 151.883 30.5669 C 152.069 30.8009 152.365 30.9435 152.665 30.9435 " />
</g>

</g>

<g id="id0000000337" >
<g opacity="1.000000" fill="#2ca02c" stroke="black" stroke-width="0.000000" id="id0000000336" >
<path id="id0000000416" d="M 162.114 17.8214 C 162.414 17.8214 162.71 17.6788 162.896 17.4449 C 163.083 17.211 163.156 16.8906 163.089 16.5989 C 163.023 16.3072 162.818 16.0503 162.548 15.9205 C 162.279 15.7906 161.95 15.7906 161.68 15.9205 C 161.411 16.0503 161.206 16.3072 161.139 16.5989 C 161.073 16.8906 161.146 17.211 161.333 17.4449 C 161.519 17.6788 161.815 17.8214 162.114 17.8214 " />
</g>

</g>

<g id="id0000000339" >
<g opacity="1.000000" fill="#2ca02c" stroke="black" stroke-width="0.000000" id="id0000000338" >
<path id="id0000000417" d="M 170.871 41.4694 C 171.17 41.4694 171.466 41.3268 171.653 41.0929 C 171.839 40.859 171.913 40.5386 171.846 40.2469 C 171.779 39.9552 171.574 39.6983 171.305 39.5685 C 171.035 39.4386 170.707 39.4386 170.437 39.5685 C 170.168 39.6983 169.963 39.9552 169.896 40.2469 C 169.829 40.5386 169.903 40.859 170.089 41.0929 C 170.276 41.3268 170.572 41.4694 170.871 41.4694 " />
</g>

</g>

<g id="id0000000341" >
<g opacity="1.000000" fill="#2ca02c" stroke="black" stroke-width="0.000000" id="id0000000340" >
<path id="id0000000418" d="M 182.535 14.2071 C 182.835 14.2071 183.131 14.0646 183.317 13.8306 C 183.504 13.5967 183.577 13.2763 183.51 12.9846 C 183.444 12.6929 183.239 12.436 182.969 12.3062 C 182.7 12.1764 182.371 12.1764 182.102 12.3062 C 181.832 12.436 181.627 12.6929 181.56 12.9846 C 181.494 13.2763 181.567 13.5967 181.754 13.8306 C 181.94 14.0646 182.236 14.2071 182.535 14.2071 " />
</g>

</g>

<g id="id0000000343" >
<g opacity="1.000000" fill="#2ca02c" stroke="black" stroke-width="0.000000" id="id0000000342" >
<path id="id0000000419" d="M 190.894 7.49315 C 191.193 7.49315 191.489 7.35056 191.676 7.11664 C 191.862 6.88272 191.936 6.56233 191.869 6.27063 C 191.802 5.97893 191.598 5.722 191.328 5.59218 C 191.058 5.46236 190.73 5.46236 190.46 5.59218 C 190.191 5.722 189.986 5.97893 189.919 6.27063 C 189.853 6.56233 189.926 6.88272 190.112 7.11664 C 190.299 7.35056 190.595 7.49315 190.894 7.49315 " />
</g>

</g>

</g>

</g>

<polygon points="36,1 36,178 199,178 199,1 " stroke="black" stroke-width="1.000000" fill="none" id="id0000000420" pointer-events="none" class="rectangle" />
<polyline points="38.4145,178 38.4145,181 " fill="none" stroke-width="1.000000" stroke="black" id="id0000000421" class="line" />
<text id="id0000000422" transform="matrix(1 0 0 1 36 1)" x="2.414527" y="182.000000" dominant-baseline="hanging" text-anchor="middle" font-size="14.000000px" >
-14
</text>

<polyline points="60.3715,178 60.3715,181 " fill="none" stroke-width="1.000000" stroke="black" id="id0000000423" class="line" />
<text id="id0000000424" transform="matrix(1 0 0 1 36 1)" x="24.371506" y="182.000000" dominant-baseline="hanging" text-anchor="middle" font-size="14.000000px" >
-12
</text>

<polyline points="82.3285,178 82.3285,181 " fill="none" stroke-width="1.000000" stroke="black" id="id0000000425" class="line" />
<text id="id0000000426" transform="matrix(1 0 0 1 36 1)" x="46.328484" y="182.000000" dominant-baseline="hanging" text-anchor="middle" font-size="14.000000px" >
-10
</text>

<polyline points="104.285,178 104.285,181 " fill="none" stroke-width="1.000000" stroke="black" id="id0000000427" class="line" />
<text id="id0000000428" transform="matrix(1 0 0 1 36 1)" x="68.285461" y="182.000000" dominant-baseline="hanging" text-anchor="middle" font-size="14.000000px" >
-8
</text>

<polyline points="126.242,178 126.242,181 " fill="none" stroke-width="1.000000" stroke="black" id="id0000000429" class="line" />
<text id="id0000000430" transform="matrix(1 0 0 1 36 1)" x="90.242439" y="182.000000" dominant-baseline="hanging" text-anchor="middle" font-size="14.000000px" >
-6
</text>

<polyline points="148.199,178 148.199,181 " fill="none" stroke-width="1.000000" stroke="black" id="id0000000431" class="line" />
<text id="id0000000432" transform="matrix(1 0 0 1 36 1)" x="112.199425" y="182.000000" dominant-baseline="hanging" text-anchor="middle" font-size="14.000000px" >
-4
</text>

<polyline points="170.156,178 170.156,181 " fill="none" stroke-width="1.000000" stroke="black" id="id0000000433" class="line" />
<text id="id0000000434" transform="matrix(1 0 0 1 36 1)" x="134.156403" y="182.000000" dominant-baseline="hanging" text-anchor="middle" font-size="14.000000px" >
-2
</text>

<polyline points="192.113,178 192.113,181 " fill="none" stroke-width="1.000000" stroke="black" id="id0000000435" class="line" />
<text id="id0000000436" transform="matrix(1 0 0 1 36 1)" x="156.113388" y="182.000000" dominant-baseline="hanging" text-anchor="middle" font-size="14.000000px" >
0
</text>

<polyline points="33,176.326 36,176.326 " fill="none" stroke-width="1.000000" stroke="black" id="id0000000437" class="line" />
<text id="id0000000438" transform="matrix(1 0 0 1 36 1)" x="-5.000000" y="175.325806" dominant-baseline="middle" text-anchor="end" font-size="14.000000px" >
-2
</text>

<polyline points="33,146.716 36,146.716 " fill="none" stroke-width="1.000000" stroke="black" id="id0000000439" class="line" />
<text id="id0000000440" transform="matrix(1 0 0 1 36 1)" x="-5.000000" y="145.716171" dominant-baseline="middle" text-anchor="end" font-size="14.000000px" >
0
</text>

<polyline points="33,117.107 36,117.107 " fill="none" stroke-width="1.000000" stroke="black" id="id0000000441" class="line" />
<text id="id0000000442" transform="matrix(1 0 0 1 36 1)" x="-5.000000" y="116.106522" dominant-baseline="middle" text-anchor="end" font-size="14.000000px" >
2
</text>

<polyline points="33,87.4969 36,87.4969 " fill="none" stroke-width="1.000000" stroke="black" id="id0000000443" class="line" />
<text id="id0000000444" transform="matrix(1 0 0 1 36 1)" x="-5.000000" y="86.496872" dominant-baseline="middle" text-anchor="end" font-size="14.000000px" >
4
</text>

<polyline points="33,57.8872 36,57.8872 " fill="none" stroke-width="1.000000" stroke="black" id="id0000000445" class="line" />
<text id="id0000000446" transform="matrix(1 0 0 1 36 1)" x="-5.000000" y="56.887230" dominant-baseline="middle" text-anchor="end" font-size="14.000000px" >
6
</text>

<polyline points="33,28.2776 36,28.2776 " fill="none" stroke-width="1.000000" stroke="black" id="id0000000447" class="line" />
<text id="id0000000448" transform="matrix(1 0 0 1 36 1)" x="-5.000000" y="27.277588" dominant-baseline="middle" text-anchor="end" font-size="14.000000px" >
8
</text>


</g>

</svg>
