<svg viewBox="0 0 640 480" height="100%" width="100%" xmlns:xlink="http://www.w3.org/1999/xlink" xmlns="http://www.w3.org/2000/svg" id="id0000000449" >
<g id="id0000000450" >
<clipPath id="id0000000450clipper" >
<polygon points="36,1 36,458 639,458 639,1 " id="id0000000453" class="rectangle" />
</clipPath>

<g clip-path="url(#id0000000450clipper)" id="id0000000452" >
<g id="id0000000454" >
<g opacity="0.500000" fill="red" stroke-width="0.000000" id="id0000000455" >
<path id="id0000000555" d="M 260.677 379.792 C 261.275 379.792 261.867 379.507 262.241 379.039 C 262.614 378.571 262.76 377.931 262.627 377.347 C 262.494 376.764 262.084 376.25 261.545 375.99 C 261.005 375.731 260.348 375.731 259.809 375.99 C 259.27 376.25 258.86 376.764 258.727 377.347 C 258.594 377.931 258.74 378.571 259.113 379.039 C 259.486 379.507 260.078 379.792 260.677 379.792 " />
</g>

<g opacity="0.500000" fill="red" stroke-width="0.000000" id="id0000000457" >
<path id="id0000000556" d="M 442.35 398.382 C 442.948 398.382 443.541 398.097 443.914 397.629 C 444.287 397.161 444.433 396.52 444.3 395.937 C 444.167 395.353 443.757 394.839 443.218 394.58 C 442.679 394.32 442.021 394.32 441.482 394.58 C 440.943 394.839 440.533 395.353 440.4 395.937 C 440.267 396.52 440.413 397.161 440.786 397.629 C 441.159 398.097 441.752 398.382 442.35 398.382 " />
</g>

<g opacity="0.500000" fill="red" stroke-width="0.000000" id="id0000000459" >
<path id="id0000000557" d="M 198.755 354.323 C 199.353 354.323 199.945 354.038 200.319 353.57 C 200.692 353.102 200.838 352.461 200.705 351.878 C 200.572 351.295 200.162 350.781 199.623 350.521 C 199.084 350.262 198.426 350.262 197.887 350.521 C 197.348 350.781 196.938 351.295 196.805 351.878 C 196.672 352.461 196.818 353.102 197.191 353.57 C 197.564 354.038 198.157 354.323 198.755 354.323 " />
</g>

<g opacity="0.500000" fill="red" stroke-width="0.000000" id="id0000000461" >
<path id="id0000000558" d="M 115.422 409.51 C 116.02 409.51 116.613 409.225 116.986 408.757 C 117.359 408.289 117.505 407.648 117.372 407.065 C 117.239 406.481 116.829 405.968 116.29 405.708 C 115.751 405.448 115.093 405.448 114.554 405.708 C 114.015 405.968 113.605 406.481 113.472 407.065 C 113.339 407.648 113.485 408.289 113.858 408.757 C 114.231 409.225 114.824 409.51 115.422 409.51 " />
</g>

<g opacity="0.500000" fill="red" stroke-width="0.000000" id="id0000000463" >
<path id="id0000000559" d="M 99.268 383.634 C 99.8664 383.634 100.459 383.349 100.832 382.881 C 101.205 382.413 101.351 381.772 101.218 381.189 C 101.085 380.606 100.675 380.092 100.136 379.832 C 99.5966 379.573 98.9394 379.573 98.4002 379.832 C 97.8611 380.092 97.4513 380.606 97.3182 381.189 C 97.185 381.772 97.3313 382.413 97.7044 382.881 C 98.0774 383.349 98.6696 383.634 99.268 383.634 " />
</g>

<g opacity="0.500000" fill="red" stroke-width="0.000000" id="id0000000465" >
<path id="id0000000560" d="M 123.753 417.001 C 124.351 417.001 124.943 416.716 125.316 416.248 C 125.689 415.78 125.836 415.139 125.703 414.556 C 125.569 413.973 125.16 413.459 124.62 413.199 C 124.081 412.939 123.424 412.939 122.885 413.199 C 122.346 413.459 121.936 413.973 121.803 414.556 C 121.67 415.139 121.816 415.78 122.189 416.248 C 122.562 416.716 123.154 417.001 123.753 417.001 " />
</g>

<g opacity="0.500000" fill="red" stroke-width="0.000000" id="id0000000467" >
<path id="id0000000561" d="M 575.732 424.086 C 576.33 424.086 576.923 423.801 577.296 423.333 C 577.669 422.865 577.815 422.224 577.682 421.641 C 577.549 421.057 577.139 420.544 576.6 420.284 C 576.061 420.024 575.403 420.024 574.864 420.284 C 574.325 420.544 573.915 421.057 573.782 421.641 C 573.649 422.224 573.795 422.865 574.168 423.333 C 574.541 423.801 575.134 424.086 575.732 424.086 " />
</g>

<g opacity="0.500000" fill="red" stroke-width="0.000000" id="id0000000469" >
<path id="id0000000562" d="M 161.666 352.522 C 162.265 352.522 162.857 352.237 163.23 351.769 C 163.603 351.301 163.749 350.66 163.616 350.077 C 163.483 349.494 163.073 348.98 162.534 348.72 C 161.995 348.46 161.338 348.46 160.799 348.72 C 160.26 348.98 159.85 349.494 159.717 350.077 C 159.583 350.66 159.73 351.301 160.103 351.769 C 160.476 352.237 161.068 352.522 161.666 352.522 " />
</g>

<g opacity="0.500000" fill="red" stroke-width="0.000000" id="id0000000471" >
<path id="id0000000563" d="M 129.224 402.178 C 129.822 402.178 130.414 401.893 130.787 401.425 C 131.16 400.957 131.307 400.317 131.173 399.733 C 131.04 399.15 130.631 398.636 130.091 398.376 C 129.552 398.117 128.895 398.117 128.356 398.376 C 127.817 398.636 127.407 399.15 127.274 399.733 C 127.141 400.317 127.287 400.957 127.66 401.425 C 128.033 401.893 128.625 402.178 129.224 402.178 " />
</g>

<g opacity="0.500000" fill="red" stroke-width="0.000000" id="id0000000473" >
<path id="id0000000564" d="M 158.578 352.445 C 159.177 352.445 159.769 352.16 160.142 351.692 C 160.515 351.224 160.661 350.583 160.528 350 C 160.395 349.417 159.985 348.903 159.446 348.643 C 158.907 348.383 158.25 348.383 157.711 348.643 C 157.171 348.903 156.762 349.417 156.628 350 C 156.495 350.583 156.642 351.224 157.015 351.692 C 157.388 352.16 157.98 352.445 158.578 352.445 " />
</g>

<g opacity="0.500000" fill="red" stroke-width="0.000000" id="id0000000475" >
<path id="id0000000565" d="M 290.146 416.626 C 290.744 416.626 291.336 416.341 291.71 415.873 C 292.083 415.405 292.229 414.764 292.096 414.181 C 291.963 413.598 291.553 413.084 291.014 412.824 C 290.475 412.564 289.817 412.564 289.278 412.824 C 288.739 413.084 288.329 413.598 288.196 414.181 C 288.063 414.764 288.209 415.405 288.582 415.873 C 288.955 416.341 289.548 416.626 290.146 416.626 " />
</g>

<g opacity="0.500000" fill="red" stroke-width="0.000000" id="id0000000477" >
<path id="id0000000566" d="M 171.718 429.914 C 172.317 429.914 172.909 429.629 173.282 429.161 C 173.655 428.693 173.801 428.052 173.668 427.469 C 173.535 426.885 173.125 426.372 172.586 426.112 C 172.047 425.852 171.39 425.852 170.851 426.112 C 170.312 426.372 169.902 426.885 169.769 427.469 C 169.635 428.052 169.782 428.693 170.155 429.161 C 170.528 429.629 171.12 429.914 171.718 429.914 " />
</g>

<g opacity="0.500000" fill="red" stroke-width="0.000000" id="id0000000479" >
<path id="id0000000567" d="M 125.235 387.195 C 125.833 387.195 126.425 386.91 126.798 386.442 C 127.171 385.974 127.318 385.333 127.184 384.75 C 127.051 384.167 126.641 383.653 126.102 383.393 C 125.563 383.133 124.906 383.133 124.367 383.393 C 123.828 383.653 123.418 384.167 123.285 384.75 C 123.151 385.333 123.298 385.974 123.671 386.442 C 124.044 386.91 124.636 387.195 125.235 387.195 " />
</g>

<g opacity="0.500000" fill="red" stroke-width="0.000000" id="id0000000481" >
<path id="id0000000568" d="M 250.499 347.741 C 251.097 347.741 251.689 347.456 252.063 346.988 C 252.436 346.52 252.582 345.879 252.449 345.296 C 252.316 344.712 251.906 344.199 251.367 343.939 C 250.828 343.679 250.17 343.679 249.631 343.939 C 249.092 344.199 248.682 344.712 248.549 345.296 C 248.416 345.879 248.562 346.52 248.935 346.988 C 249.308 347.456 249.901 347.741 250.499 347.741 " />
</g>

<g opacity="0.500000" fill="red" stroke-width="0.000000" id="id0000000483" >
<path id="id0000000569" d="M 139.845 385.272 C 140.443 385.272 141.035 384.987 141.409 384.519 C 141.782 384.051 141.928 383.41 141.795 382.827 C 141.662 382.243 141.252 381.729 140.713 381.47 C 140.173 381.21 139.516 381.21 138.977 381.47 C 138.438 381.729 138.028 382.243 137.895 382.827 C 137.762 383.41 137.908 384.051 138.281 384.519 C 138.654 384.987 139.246 385.272 139.845 385.272 " />
</g>

<g opacity="0.500000" fill="red" stroke-width="0.000000" id="id0000000485" >
<path id="id0000000570" d="M 179.153 430.336 C 179.751 430.336 180.343 430.051 180.716 429.583 C 181.09 429.115 181.236 428.474 181.103 427.891 C 180.969 427.307 180.56 426.794 180.021 426.534 C 179.481 426.274 178.824 426.274 178.285 426.534 C 177.746 426.794 177.336 427.307 177.203 427.891 C 177.07 428.474 177.216 429.115 177.589 429.583 C 177.962 430.051 178.554 430.336 179.153 430.336 " />
</g>

<g opacity="0.500000" fill="red" stroke-width="0.000000" id="id0000000487" >
<path id="id0000000571" d="M 537.5 401.238 C 538.099 401.238 538.691 400.953 539.064 400.485 C 539.437 400.017 539.583 399.376 539.45 398.793 C 539.317 398.21 538.907 397.696 538.368 397.436 C 537.829 397.176 537.172 397.176 536.633 397.436 C 536.094 397.696 535.684 398.21 535.551 398.793 C 535.417 399.376 535.564 400.017 535.937 400.485 C 536.31 400.953 536.902 401.238 537.5 401.238 " />
</g>

<g opacity="0.500000" fill="red" stroke-width="0.000000" id="id0000000489" >
<path id="id0000000572" d="M 124.877 425.68 C 125.475 425.68 126.068 425.395 126.441 424.927 C 126.814 424.46 126.96 423.819 126.827 423.235 C 126.694 422.652 126.284 422.138 125.745 421.878 C 125.206 421.619 124.548 421.619 124.009 421.878 C 123.47 422.138 123.06 422.652 122.927 423.235 C 122.794 423.819 122.94 424.46 123.313 424.927 C 123.686 425.395 124.279 425.68 124.877 425.68 " />
</g>

<g opacity="0.500000" fill="red" stroke-width="0.000000" id="id0000000491" >
<path id="id0000000573" d="M 225.017 419.378 C 225.615 419.378 226.208 419.093 226.581 418.625 C 226.954 418.157 227.1 417.517 226.967 416.933 C 226.834 416.35 226.424 415.836 225.885 415.576 C 225.346 415.317 224.688 415.317 224.149 415.576 C 223.61 415.836 223.2 416.35 223.067 416.933 C 222.934 417.517 223.08 418.157 223.453 418.625 C 223.826 419.093 224.419 419.378 225.017 419.378 " />
</g>

<g opacity="0.500000" fill="red" stroke-width="0.000000" id="id0000000493" >
<path id="id0000000574" d="M 199.286 259.792 C 199.885 259.792 200.477 259.507 200.85 259.039 C 201.223 258.571 201.369 257.93 201.236 257.347 C 201.103 256.763 200.693 256.249 200.154 255.99 C 199.615 255.73 198.958 255.73 198.419 255.99 C 197.879 256.249 197.47 256.763 197.336 257.347 C 197.203 257.93 197.35 258.571 197.723 259.039 C 198.096 259.507 198.688 259.792 199.286 259.792 " />
</g>

<g opacity="0.500000" fill="red" stroke-width="0.000000" id="id0000000495" >
<path id="id0000000575" d="M 106.916 433.639 C 107.514 433.639 108.106 433.353 108.479 432.886 C 108.852 432.418 108.999 431.777 108.865 431.194 C 108.732 430.61 108.322 430.096 107.783 429.837 C 107.244 429.577 106.587 429.577 106.048 429.837 C 105.509 430.096 105.099 430.61 104.966 431.194 C 104.833 431.777 104.979 432.418 105.352 432.886 C 105.725 433.353 106.317 433.639 106.916 433.639 " />
</g>

<g opacity="0.500000" fill="red" stroke-width="0.000000" id="id0000000497" >
<path id="id0000000576" d="M 115.081 432.74 C 115.679 432.74 116.271 432.455 116.644 431.987 C 117.017 431.52 117.164 430.879 117.031 430.295 C 116.897 429.712 116.488 429.198 115.948 428.939 C 115.409 428.679 114.752 428.679 114.213 428.939 C 113.674 429.198 113.264 429.712 113.131 430.295 C 112.998 430.879 113.144 431.52 113.517 431.987 C 113.89 432.455 114.482 432.74 115.081 432.74 " />
</g>

<g opacity="0.500000" fill="red" stroke-width="0.000000" id="id0000000499" >
<path id="id0000000577" d="M 140.099 441.572 C 140.697 441.572 141.289 441.286 141.662 440.819 C 142.036 440.351 142.182 439.71 142.049 439.127 C 141.915 438.543 141.506 438.029 140.967 437.77 C 140.427 437.51 139.77 437.51 139.231 437.77 C 138.692 438.029 138.282 438.543 138.149 439.127 C 138.016 439.71 138.162 440.351 138.535 440.819 C 138.908 441.286 139.5 441.572 140.099 441.572 " />
</g>

<g opacity="0.500000" fill="red" stroke-width="0.000000" id="id0000000501" >
<path id="id0000000578" d="M 445.157 341.979 C 445.756 341.979 446.348 341.694 446.721 341.226 C 447.094 340.758 447.24 340.117 447.107 339.534 C 446.974 338.95 446.564 338.437 446.025 338.177 C 445.486 337.917 444.829 337.917 444.289 338.177 C 443.75 338.437 443.341 338.95 443.207 339.534 C 443.074 340.117 443.22 340.758 443.594 341.226 C 443.967 341.694 444.559 341.979 445.157 341.979 " />
</g>

<g opacity="0.500000" fill="red" stroke-width="0.000000" id="id0000000503" >
<path id="id0000000579" d="M 140.232 268.362 C 140.83 268.362 141.422 268.077 141.796 267.609 C 142.169 267.141 142.315 266.5 142.182 265.917 C 142.049 265.333 141.639 264.82 141.1 264.56 C 140.561 264.3 139.903 264.3 139.364 264.56 C 138.825 264.82 138.415 265.333 138.282 265.917 C 138.149 266.5 138.295 267.141 138.668 267.609 C 139.041 268.077 139.633 268.362 140.232 268.362 " />
</g>

<g opacity="0.500000" fill="red" stroke-width="0.000000" id="id0000000505" >
<path id="id0000000580" d="M 240.014 343.548 C 240.612 343.548 241.204 343.263 241.577 342.795 C 241.95 342.327 242.097 341.687 241.964 341.103 C 241.83 340.52 241.421 340.006 240.881 339.746 C 240.342 339.487 239.685 339.487 239.146 339.746 C 238.607 340.006 238.197 340.52 238.064 341.103 C 237.931 341.687 238.077 342.327 238.45 342.795 C 238.823 343.263 239.415 343.548 240.014 343.548 " />
</g>

<g opacity="0.500000" fill="red" stroke-width="0.000000" id="id0000000507" >
<path id="id0000000581" d="M 152.25 403.88 C 152.848 403.88 153.44 403.594 153.813 403.127 C 154.186 402.659 154.333 402.018 154.2 401.435 C 154.066 400.851 153.657 400.337 153.117 400.078 C 152.578 399.818 151.921 399.818 151.382 400.078 C 150.843 400.337 150.433 400.851 150.3 401.435 C 150.167 402.018 150.313 402.659 150.686 403.127 C 151.059 403.594 151.651 403.88 152.25 403.88 " />
</g>

<g opacity="0.500000" fill="red" stroke-width="0.000000" id="id0000000509" >
<path id="id0000000582" d="M 124.972 426.334 C 125.57 426.334 126.162 426.049 126.535 425.581 C 126.909 425.113 127.055 424.472 126.922 423.889 C 126.788 423.305 126.379 422.792 125.84 422.532 C 125.3 422.272 124.643 422.272 124.104 422.532 C 123.565 422.792 123.155 423.305 123.022 423.889 C 122.889 424.472 123.035 425.113 123.408 425.581 C 123.781 426.049 124.373 426.334 124.972 426.334 " />
</g>

<g opacity="0.500000" fill="red" stroke-width="0.000000" id="id0000000511" >
<path id="id0000000583" d="M 164.512 423.266 C 165.111 423.266 165.703 422.981 166.076 422.513 C 166.449 422.045 166.595 421.404 166.462 420.821 C 166.329 420.238 165.919 419.724 165.38 419.464 C 164.841 419.204 164.184 419.204 163.644 419.464 C 163.105 419.724 162.695 420.238 162.562 420.821 C 162.429 421.404 162.575 422.045 162.948 422.513 C 163.322 422.981 163.914 423.266 164.512 423.266 " />
</g>

<g opacity="0.500000" fill="red" stroke-width="0.000000" id="id0000000513" >
<path id="id0000000584" d="M 150.839 331.18 C 151.437 331.18 152.029 330.895 152.402 330.427 C 152.775 329.959 152.922 329.318 152.788 328.735 C 152.655 328.151 152.245 327.638 151.706 327.378 C 151.167 327.118 150.51 327.118 149.971 327.378 C 149.432 327.638 149.022 328.151 148.889 328.735 C 148.756 329.318 148.902 329.959 149.275 330.427 C 149.648 330.895 150.24 331.18 150.839 331.18 " />
</g>

<g opacity="0.500000" fill="red" stroke-width="0.000000" id="id0000000515" >
<path id="id0000000585" d="M 106.293 418.587 C 106.892 418.587 107.484 418.302 107.857 417.834 C 108.23 417.366 108.376 416.725 108.243 416.142 C 108.11 415.558 107.7 415.044 107.161 414.785 C 106.622 414.525 105.965 414.525 105.426 414.785 C 104.887 415.044 104.477 415.558 104.344 416.142 C 104.21 416.725 104.357 417.366 104.73 417.834 C 105.103 418.302 105.695 418.587 106.293 418.587 " />
</g>

<g opacity="0.500000" fill="red" stroke-width="0.000000" id="id0000000517" >
<path id="id0000000586" d="M 404.999 379.968 C 405.597 379.968 406.189 379.682 406.562 379.215 C 406.935 378.747 407.082 378.106 406.949 377.523 C 406.815 376.939 406.406 376.425 405.866 376.166 C 405.327 375.906 404.67 375.906 404.131 376.166 C 403.592 376.425 403.182 376.939 403.049 377.523 C 402.916 378.106 403.062 378.747 403.435 379.215 C 403.808 379.682 404.4 379.968 404.999 379.968 " />
</g>

<g opacity="0.500000" fill="red" stroke-width="0.000000" id="id0000000519" >
<path id="id0000000587" d="M 345.671 434.142 C 346.269 434.142 346.861 433.856 347.234 433.389 C 347.607 432.921 347.754 432.28 347.62 431.697 C 347.487 431.113 347.077 430.599 346.538 430.34 C 345.999 430.08 345.342 430.08 344.803 430.34 C 344.264 430.599 343.854 431.113 343.721 431.697 C 343.588 432.28 343.734 432.921 344.107 433.389 C 344.48 433.856 345.072 434.142 345.671 434.142 " />
</g>

<g opacity="0.500000" fill="red" stroke-width="0.000000" id="id0000000521" >
<path id="id0000000588" d="M 199.132 425.764 C 199.73 425.764 200.322 425.479 200.695 425.011 C 201.068 424.543 201.215 423.903 201.082 423.319 C 200.948 422.736 200.539 422.222 199.999 421.962 C 199.46 421.703 198.803 421.703 198.264 421.962 C 197.725 422.222 197.315 422.736 197.182 423.319 C 197.049 423.903 197.195 424.543 197.568 425.011 C 197.941 425.479 198.533 425.764 199.132 425.764 " />
</g>

<g opacity="0.500000" fill="red" stroke-width="0.000000" id="id0000000523" >
<path id="id0000000589" d="M 154.856 375.01 C 155.454 375.01 156.047 374.725 156.42 374.257 C 156.793 373.79 156.939 373.149 156.806 372.565 C 156.673 371.982 156.263 371.468 155.724 371.208 C 155.185 370.949 154.527 370.949 153.988 371.208 C 153.449 371.468 153.039 371.982 152.906 372.565 C 152.773 373.149 152.919 373.79 153.292 374.257 C 153.665 374.725 154.258 375.01 154.856 375.01 " />
</g>

<g opacity="0.500000" fill="red" stroke-width="0.000000" id="id0000000525" >
<path id="id0000000590" d="M 147.247 21.4285 C 147.845 21.4285 148.437 21.1433 148.811 20.6755 C 149.184 20.2076 149.33 19.5669 149.197 18.9835 C 149.064 18.4001 148.654 17.8862 148.115 17.6266 C 147.576 17.3669 146.918 17.3669 146.379 17.6266 C 145.84 17.8862 145.43 18.4001 145.297 18.9835 C 145.164 19.5669 145.31 20.2076 145.683 20.6755 C 146.056 21.1433 146.648 21.4285 147.247 21.4285 " />
</g>

<g opacity="0.500000" fill="red" stroke-width="0.000000" id="id0000000527" >
<path id="id0000000591" d="M 303.66 440.543 C 304.259 440.543 304.851 440.258 305.224 439.79 C 305.597 439.322 305.743 438.682 305.61 438.098 C 305.477 437.515 305.067 437.001 304.528 436.741 C 303.989 436.482 303.332 436.482 302.792 436.741 C 302.253 437.001 301.843 437.515 301.71 438.098 C 301.577 438.682 301.723 439.322 302.096 439.79 C 302.47 440.258 303.062 440.543 303.66 440.543 " />
</g>

<g opacity="0.500000" fill="red" stroke-width="0.000000" id="id0000000529" >
<path id="id0000000592" d="M 178.615 404.803 C 179.213 404.803 179.805 404.518 180.178 404.05 C 180.551 403.582 180.698 402.941 180.564 402.358 C 180.431 401.775 180.022 401.261 179.482 401.001 C 178.943 400.742 178.286 400.742 177.747 401.001 C 177.208 401.261 176.798 401.775 176.665 402.358 C 176.532 402.941 176.678 403.582 177.051 404.05 C 177.424 404.518 178.016 404.803 178.615 404.803 " />
</g>

<g opacity="0.500000" fill="red" stroke-width="0.000000" id="id0000000531" >
<path id="id0000000593" d="M 239.508 354.785 C 240.106 354.785 240.698 354.5 241.071 354.032 C 241.445 353.564 241.591 352.923 241.458 352.34 C 241.324 351.756 240.915 351.242 240.376 350.983 C 239.836 350.723 239.179 350.723 238.64 350.983 C 238.101 351.242 237.691 351.756 237.558 352.34 C 237.425 352.923 237.571 353.564 237.944 354.032 C 238.317 354.5 238.909 354.785 239.508 354.785 " />
</g>

<g opacity="0.500000" fill="red" stroke-width="0.000000" id="id0000000533" >
<path id="id0000000594" d="M 270.289 246.026 C 270.887 246.026 271.48 245.741 271.853 245.273 C 272.226 244.805 272.372 244.164 272.239 243.581 C 272.106 242.997 271.696 242.484 271.157 242.224 C 270.618 241.964 269.96 241.964 269.421 242.224 C 268.882 242.484 268.472 242.997 268.339 243.581 C 268.206 244.164 268.352 244.805 268.725 245.273 C 269.098 245.741 269.691 246.026 270.289 246.026 " />
</g>

<g opacity="0.500000" fill="red" stroke-width="0.000000" id="id0000000535" >
<path id="id0000000595" d="M 283.556 415.129 C 284.155 415.129 284.747 414.844 285.12 414.376 C 285.493 413.908 285.639 413.267 285.506 412.684 C 285.373 412.1 284.963 411.587 284.424 411.327 C 283.885 411.067 283.228 411.067 282.689 411.327 C 282.15 411.587 281.74 412.1 281.607 412.684 C 281.473 413.267 281.62 413.908 281.993 414.376 C 282.366 414.844 282.958 415.129 283.556 415.129 " />
</g>

<g opacity="0.500000" fill="red" stroke-width="0.000000" id="id0000000537" >
<path id="id0000000596" d="M 333.316 423.175 C 333.914 423.175 334.506 422.89 334.879 422.422 C 335.252 421.954 335.399 421.313 335.266 420.73 C 335.132 420.147 334.723 419.633 334.183 419.373 C 333.644 419.114 332.987 419.114 332.448 419.373 C 331.909 419.633 331.499 420.147 331.366 420.73 C 331.233 421.313 331.379 421.954 331.752 422.422 C 332.125 422.89 332.717 423.175 333.316 423.175 " />
</g>

<g opacity="0.500000" fill="red" stroke-width="0.000000" id="id0000000539" >
<path id="id0000000597" d="M 125.693 431.471 C 126.291 431.471 126.884 431.186 127.257 430.718 C 127.63 430.25 127.776 429.61 127.643 429.026 C 127.51 428.443 127.1 427.929 126.561 427.669 C 126.022 427.41 125.364 427.41 124.825 427.669 C 124.286 427.929 123.876 428.443 123.743 429.026 C 123.61 429.61 123.756 430.25 124.129 430.718 C 124.502 431.186 125.095 431.471 125.693 431.471 " />
</g>

<g opacity="0.500000" fill="red" stroke-width="0.000000" id="id0000000541" >
<path id="id0000000598" d="M 170.341 427.129 C 170.94 427.129 171.532 426.844 171.905 426.376 C 172.278 425.908 172.424 425.267 172.291 424.684 C 172.158 424.1 171.748 423.587 171.209 423.327 C 170.67 423.067 170.013 423.067 169.473 423.327 C 168.934 423.587 168.525 424.1 168.391 424.684 C 168.258 425.267 168.404 425.908 168.778 426.376 C 169.151 426.844 169.743 427.129 170.341 427.129 " />
</g>

<g opacity="0.500000" fill="red" stroke-width="0.000000" id="id0000000543" >
<path id="id0000000599" d="M 206.999 281.942 C 207.597 281.942 208.19 281.657 208.563 281.189 C 208.936 280.721 209.082 280.08 208.949 279.497 C 208.816 278.914 208.406 278.4 207.867 278.14 C 207.328 277.88 206.67 277.88 206.131 278.14 C 205.592 278.4 205.182 278.914 205.049 279.497 C 204.916 280.08 205.062 280.721 205.435 281.189 C 205.808 281.657 206.401 281.942 206.999 281.942 " />
</g>

<g opacity="0.500000" fill="red" stroke-width="0.000000" id="id0000000545" >
<path id="id0000000600" d="M 126.275 425.902 C 126.873 425.902 127.465 425.616 127.838 425.149 C 128.211 424.681 128.358 424.04 128.224 423.457 C 128.091 422.873 127.681 422.359 127.142 422.1 C 126.603 421.84 125.946 421.84 125.407 422.1 C 124.868 422.359 124.458 422.873 124.325 423.457 C 124.192 424.04 124.338 424.681 124.711 425.149 C 125.084 425.616 125.676 425.902 126.275 425.902 " />
</g>

<g opacity="0.500000" fill="red" stroke-width="0.000000" id="id0000000547" >
<path id="id0000000601" d="M 199.582 402.687 C 200.18 402.687 200.773 402.402 201.146 401.934 C 201.519 401.466 201.665 400.825 201.532 400.242 C 201.399 399.659 200.989 399.145 200.45 398.885 C 199.911 398.625 199.253 398.625 198.714 398.885 C 198.175 399.145 197.765 399.659 197.632 400.242 C 197.499 400.825 197.645 401.466 198.018 401.934 C 198.392 402.402 198.984 402.687 199.582 402.687 " />
</g>

<g opacity="0.500000" fill="red" stroke-width="0.000000" id="id0000000549" >
<path id="id0000000602" d="M 231.758 411.969 C 232.357 411.969 232.949 411.684 233.322 411.216 C 233.695 410.748 233.841 410.108 233.708 409.524 C 233.575 408.941 233.165 408.427 232.626 408.167 C 232.087 407.908 231.43 407.908 230.891 408.167 C 230.352 408.427 229.942 408.941 229.809 409.524 C 229.675 410.108 229.822 410.748 230.195 411.216 C 230.568 411.684 231.16 411.969 231.758 411.969 " />
</g>

<g opacity="0.500000" fill="red" stroke-width="0.000000" id="id0000000551" >
<path id="id0000000603" d="M 349.075 416.331 C 349.673 416.331 350.265 416.046 350.638 415.578 C 351.011 415.11 351.158 414.469 351.024 413.886 C 350.891 413.303 350.481 412.789 349.942 412.529 C 349.403 412.269 348.746 412.269 348.207 412.529 C 347.668 412.789 347.258 413.303 347.125 413.886 C 346.992 414.469 347.138 415.11 347.511 415.578 C 347.884 416.046 348.476 416.331 349.075 416.331 " />
</g>

<g opacity="0.500000" fill="red" stroke-width="0.000000" id="id0000000553" >
<path id="id0000000604" d="M 192.873 400.863 C 193.471 400.863 194.064 400.578 194.437 400.11 C 194.81 399.643 194.956 399.002 194.823 398.418 C 194.69 397.835 194.28 397.321 193.741 397.061 C 193.202 396.802 192.544 396.802 192.005 397.061 C 191.466 397.321 191.056 397.835 190.923 398.418 C 190.79 399.002 190.936 399.643 191.309 400.11 C 191.683 400.578 192.275 400.863 192.873 400.863 " />
</g>

</g>

</g>

<polygon points="36,1 36,458 639,458 639,1 " stroke="black" stroke-width="1.000000" fill="none" id="id0000000605" pointer-events="none" class="rectangle" />
<polyline points="87.5597,458 87.5597,461 " fill="none" stroke-width="1.000000" stroke="black" id="id0000000606" class="line" />
<text id="id0000000607" transform="matrix(1 0 0 1 36 1)" x="51.559708" y="462.000000" dominant-baseline="hanging" text-anchor="middle" font-size="14.000000px" >
0
</text>

<polyline points="194.916,458 194.916,461 " fill="none" stroke-width="1.000000" stroke="black" id="id0000000608" class="line" />
<text id="id0000000609" transform="matrix(1 0 0 1 36 1)" x="158.915695" y="462.000000" dominant-baseline="hanging" text-anchor="middle" font-size="14.000000px" >
1
</text>

<polyline points="302.272,458 302.272,461 " fill="none" stroke-width="1.000000" stroke="black" id="id0000000610" class="line" />
<text id="id0000000611" transform="matrix(1 0 0 1 36 1)" x="266.271698" y="462.000000" dominant-baseline="hanging" text-anchor="middle" font-size="14.000000px" >
2
</text>

<polyline points="409.628,458 409.628,461 " fill="none" stroke-width="1.000000" stroke="black" id="id0000000612" class="line" />
<text id="id0000000613" transform="matrix(1 0 0 1 36 1)" x="373.627655" y="462.000000" dominant-baseline="hanging" text-anchor="middle" font-size="14.000000px" >
3
</text>

<polyline points="516.984,458 516.984,461 " fill="none" stroke-width="1.000000" stroke="black" id="id0000000614" class="line" />
<text id="id0000000615" transform="matrix(1 0 0 1 36 1)" x="480.983673" y="462.000000" dominant-baseline="hanging" text-anchor="middle" font-size="14.000000px" >
4
</text>

<polyline points="624.34,458 624.34,461 " fill="none" stroke-width="1.000000" stroke="black" id="id0000000616" class="line" />
<text id="id0000000617" transform="matrix(1 0 0 1 36 1)" x="588.339661" y="462.000000" dominant-baseline="hanging" text-anchor="middle" font-size="14.000000px" >
5
</text>

<polyline points="33,441.55 36,441.55 " fill="none" stroke-width="1.000000" stroke="black" id="id0000000618" class="line" />
<text id="id0000000619" transform="matrix(1 0 0 1 36 1)" x="-5.000000" y="440.550446" dominant-baseline="middle" text-anchor="end" font-size="14.000000px" >
0
</text>

<polyline points="33,374.822 36,374.822 " fill="none" stroke-width="1.000000" stroke="black" id="id0000000620" class="line" />
<text id="id0000000621" transform="matrix(1 0 0 1 36 1)" x="-5.000000" y="373.822083" dominant-baseline="middle" text-anchor="end" font-size="14.000000px" >
2
</text>

<polyline points="33,308.094 36,308.094 " fill="none" stroke-width="1.000000" stroke="black" id="id0000000622" class="line" />
<text id="id0000000623" transform="matrix(1 0 0 1 36 1)" x="-5.000000" y="307.093750" dominant-baseline="middle" text-anchor="end" font-size="14.000000px" >
4
</text>

<polyline points="33,241.365 36,241.365 " fill="none" stroke-width="1.000000" stroke="black" id="id0000000624" class="line" />
<text id="id0000000625" transform="matrix(1 0 0 1 36 1)" x="-5.000000" y="240.365387" dominant-baseline="middle" text-anchor="end" font-size="14.000000px" >
6
</text>

<polyline points="33,174.637 36,174.637 " fill="none" stroke-width="1.000000" stroke="black" id="id0000000626" class="line" />
<text id="id0000000627" transform="matrix(1 0 0 1 36 1)" x="-5.000000" y="173.637054" dominant-baseline="middle" text-anchor="end" font-size="14.000000px" >
8
</text>

<polyline points="33,107.909 36,107.909 " fill="none" stroke-width="1.000000" stroke="black" id="id0000000628" class="line" />
<text id="id0000000629" transform="matrix(1 0 0 1 36 1)" x="-5.000000" y="106.908722" dominant-baseline="middle" text-anchor="end" font-size="14.000000px" >
10
</text>

<polyline points="33,41.1804 36,41.1804 " fill="none" stroke-width="1.000000" stroke="black" id="id0000000630" class="line" />
<text id="id0000000631" transform="matrix(1 0 0 1 36 1)" x="-5.000000" y="40.180389" dominant-baseline="middle" text-anchor="end" font-size="14.000000px" >
12
</text>


</g>

</svg>
