<svg viewBox="0 0 640 480" height="100%" width="100%" xmlns:xlink="http://www.w3.org/1999/xlink" xmlns="http://www.w3.org/2000/svg" id="id0000000000" >
<g id="id0000000001" >
<clipPath id="id0000000001clipper" >
<polygon points="36,1 36,458 639,458 639,1 " id="id0000000004" class="rectangle" />
</clipPath>

<g clip-path="url(#id0000000001clipper)" id="id0000000003" >
<g id="id0000000005" >
<g opacity="1.000000" fill="#1f77b4" stroke-width="0.000000" id="id0000000006" >
<path id="id0000000106" d="M 238.231 379.851 C 238.53 379.851 238.826 379.708 239.013 379.474 C 239.199 379.24 239.273 378.92 239.206 378.628 C 239.139 378.337 238.935 378.08 238.665 377.95 C 238.395 377.82 238.067 377.82 237.797 377.95 C 237.528 378.08 237.323 378.337 237.256 378.628 C 237.19 378.92 237.263 379.24 237.449 379.474 C 237.636 379.708 237.932 379.851 238.231 379.851 " />
</g>

<g opacity="1.000000" fill="#1f77b4" stroke-width="0.000000" id="id0000000008" >
<path id="id0000000107" d="M 458.511 341.73 C 458.81 341.73 459.106 341.588 459.293 341.354 C 459.479 341.12 459.552 340.799 459.486 340.508 C 459.419 340.216 459.214 339.959 458.945 339.829 C 458.675 339.699 458.347 339.699 458.077 339.829 C 457.807 339.959 457.603 340.216 457.536 340.508 C 457.469 340.799 457.543 341.12 457.729 341.354 C 457.916 341.588 458.212 341.73 458.511 341.73 " />
</g>

<g opacity="1.000000" fill="#1f77b4" stroke-width="0.000000" id="id0000000010" >
<path id="id0000000108" d="M 321.627 439.156 C 321.926 439.156 322.222 439.013 322.408 438.78 C 322.595 438.546 322.668 438.225 322.601 437.933 C 322.535 437.642 322.33 437.385 322.06 437.255 C 321.791 437.125 321.462 437.125 321.193 437.255 C 320.923 437.385 320.718 437.642 320.652 437.933 C 320.585 438.225 320.658 438.546 320.845 438.78 C 321.031 439.013 321.327 439.156 321.627 439.156 " />
</g>

<g opacity="1.000000" fill="#1f77b4" stroke-width="0.000000" id="id0000000012" >
<path id="id0000000109" d="M 139.267 263.954 C 139.566 263.954 139.862 263.811 140.048 263.577 C 140.235 263.344 140.308 263.023 140.242 262.731 C 140.175 262.44 139.97 262.183 139.701 262.053 C 139.431 261.923 139.102 261.923 138.833 262.053 C 138.563 262.183 138.358 262.44 138.292 262.731 C 138.225 263.023 138.298 263.344 138.485 263.577 C 138.671 263.811 138.967 263.954 139.267 263.954 " />
</g>

<g opacity="1.000000" fill="#1f77b4" stroke-width="0.000000" id="id0000000014" >
<path id="id0000000110" d="M 383.665 222.753 C 383.964 222.753 384.26 222.61 384.447 222.376 C 384.633 222.142 384.706 221.822 384.64 221.53 C 384.573 221.238 384.368 220.981 384.099 220.852 C 383.829 220.722 383.501 220.722 383.231 220.852 C 382.961 220.981 382.757 221.238 382.69 221.53 C 382.623 221.822 382.697 222.142 382.883 222.376 C 383.07 222.61 383.366 222.753 383.665 222.753 " />
</g>

<g opacity="1.000000" fill="#1f77b4" stroke-width="0.000000" id="id0000000016" >
<path id="id0000000111" d="M 58.2303 381.202 C 58.5295 381.202 58.8256 381.059 59.0121 380.826 C 59.1987 380.592 59.2718 380.271 59.2052 379.98 C 59.1386 379.688 58.9337 379.431 58.6642 379.301 C 58.3946 379.171 58.066 379.171 57.7964 379.301 C 57.5268 379.431 57.3219 379.688 57.2554 379.98 C 57.1888 380.271 57.2619 380.592 57.4485 380.826 C 57.635 381.059 57.9311 381.202 58.2303 381.202 " />
</g>

<g opacity="1.000000" fill="#1f77b4" stroke-width="0.000000" id="id0000000018" >
<path id="id0000000112" d="M 386.521 163.017 C 386.82 163.017 387.116 162.875 387.303 162.641 C 387.49 162.407 387.563 162.086 387.496 161.795 C 387.43 161.503 387.225 161.246 386.955 161.116 C 386.685 160.986 386.357 160.986 386.087 161.116 C 385.818 161.246 385.613 161.503 385.546 161.795 C 385.48 162.086 385.553 162.407 385.739 162.641 C 385.926 162.875 386.222 163.017 386.521 163.017 " />
</g>

<g opacity="1.000000" fill="#1f77b4" stroke-width="0.000000" id="id0000000020" >
<path id="id0000000113" d="M 299.177 326.596 C 299.476 326.596 299.772 326.453 299.959 326.219 C 300.145 325.985 300.218 325.665 300.152 325.373 C 300.085 325.081 299.88 324.824 299.611 324.695 C 299.341 324.565 299.012 324.565 298.743 324.695 C 298.473 324.824 298.268 325.081 298.202 325.373 C 298.135 325.665 298.208 325.985 298.395 326.219 C 298.581 326.453 298.878 326.596 299.177 326.596 " />
</g>

<g opacity="1.000000" fill="#1f77b4" stroke-width="0.000000" id="id0000000022" >
<path id="id0000000114" d="M 313.128 209.636 C 313.427 209.636 313.724 209.493 313.91 209.259 C 314.097 209.025 314.17 208.705 314.103 208.413 C 314.037 208.122 313.832 207.865 313.562 207.735 C 313.293 207.605 312.964 207.605 312.694 207.735 C 312.425 207.865 312.22 208.122 312.153 208.413 C 312.087 208.705 312.16 209.025 312.346 209.259 C 312.533 209.493 312.829 209.636 313.128 209.636 " />
</g>

<g opacity="1.000000" fill="#1f77b4" stroke-width="0.000000" id="id0000000024" >
<path id="id0000000115" d="M 239.729 147.518 C 240.028 147.518 240.324 147.375 240.51 147.141 C 240.697 146.907 240.77 146.587 240.704 146.295 C 240.637 146.003 240.432 145.746 240.162 145.617 C 239.893 145.487 239.564 145.487 239.295 145.617 C 239.025 145.746 238.82 146.003 238.754 146.295 C 238.687 146.587 238.76 146.907 238.947 147.141 C 239.133 147.375 239.429 147.518 239.729 147.518 " />
</g>

<g opacity="1.000000" fill="#1f77b4" stroke-width="0.000000" id="id0000000026" >
<path id="id0000000116" d="M 312.717 277.547 C 313.016 277.547 313.312 277.405 313.499 277.171 C 313.685 276.937 313.758 276.616 313.692 276.325 C 313.625 276.033 313.42 275.776 313.151 275.646 C 312.881 275.516 312.552 275.516 312.283 275.646 C 312.013 275.776 311.808 276.033 311.742 276.325 C 311.675 276.616 311.748 276.937 311.935 277.171 C 312.121 277.405 312.417 277.547 312.717 277.547 " />
</g>

<g opacity="1.000000" fill="#1f77b4" stroke-width="0.000000" id="id0000000028" >
<path id="id0000000117" d="M 471.129 131.853 C 471.428 131.853 471.724 131.711 471.911 131.477 C 472.097 131.243 472.17 130.922 472.104 130.631 C 472.037 130.339 471.832 130.082 471.563 129.952 C 471.293 129.822 470.964 129.822 470.695 129.952 C 470.425 130.082 470.22 130.339 470.154 130.631 C 470.087 130.922 470.16 131.243 470.347 131.477 C 470.533 131.711 470.83 131.853 471.129 131.853 " />
</g>

<g opacity="1.000000" fill="#1f77b4" stroke-width="0.000000" id="id0000000030" >
<path id="id0000000118" d="M 160.23 270.911 C 160.529 270.911 160.826 270.768 161.012 270.534 C 161.199 270.3 161.272 269.98 161.205 269.688 C 161.139 269.397 160.934 269.14 160.664 269.01 C 160.395 268.88 160.066 268.88 159.796 269.01 C 159.527 269.14 159.322 269.397 159.255 269.688 C 159.189 269.98 159.262 270.3 159.448 270.534 C 159.635 270.768 159.931 270.911 160.23 270.911 " />
</g>

<g opacity="1.000000" fill="#1f77b4" stroke-width="0.000000" id="id0000000032" >
<path id="id0000000119" d="M 218.204 276.937 C 218.503 276.937 218.799 276.794 218.986 276.56 C 219.172 276.326 219.245 276.006 219.179 275.714 C 219.112 275.422 218.907 275.165 218.638 275.036 C 218.368 274.906 218.04 274.906 217.77 275.036 C 217.5 275.165 217.296 275.422 217.229 275.714 C 217.162 276.006 217.235 276.326 217.422 276.56 C 217.609 276.794 217.905 276.937 218.204 276.937 " />
</g>

<g opacity="1.000000" fill="#1f77b4" stroke-width="0.000000" id="id0000000034" >
<path id="id0000000120" d="M 250.967 83.147 C 251.266 83.147 251.562 83.0044 251.749 82.7705 C 251.936 82.5366 252.009 82.2162 251.942 81.9245 C 251.876 81.6328 251.671 81.3758 251.401 81.246 C 251.131 81.1162 250.803 81.1162 250.533 81.246 C 250.264 81.3758 250.059 81.6328 249.992 81.9245 C 249.926 82.2162 249.999 82.5366 250.185 82.7705 C 250.372 83.0044 250.668 83.147 250.967 83.147 " />
</g>

<g opacity="1.000000" fill="#1f77b4" stroke-width="0.000000" id="id0000000036" >
<path id="id0000000121" d="M 305.179 269.726 C 305.479 269.726 305.775 269.583 305.961 269.35 C 306.148 269.116 306.221 268.795 306.154 268.504 C 306.088 268.212 305.883 267.955 305.613 267.825 C 305.344 267.695 305.015 267.695 304.745 267.825 C 304.476 267.955 304.271 268.212 304.204 268.504 C 304.138 268.795 304.211 269.116 304.398 269.35 C 304.584 269.583 304.88 269.726 305.179 269.726 " />
</g>

<g opacity="1.000000" fill="#1f77b4" stroke-width="0.000000" id="id0000000038" >
<path id="id0000000122" d="M 163.499 122.194 C 163.798 122.194 164.094 122.052 164.281 121.818 C 164.467 121.584 164.54 121.263 164.474 120.972 C 164.407 120.68 164.202 120.423 163.933 120.293 C 163.663 120.163 163.334 120.163 163.065 120.293 C 162.795 120.423 162.59 120.68 162.524 120.972 C 162.457 121.263 162.53 121.584 162.717 121.818 C 162.903 122.052 163.2 122.194 163.499 122.194 " />
</g>

<g opacity="1.000000" fill="#1f77b4" stroke-width="0.000000" id="id0000000040" >
<path id="id0000000123" d="M 142.03 260.95 C 142.329 260.95 142.625 260.807 142.811 260.573 C 142.998 260.339 143.071 260.019 143.005 259.727 C 142.938 259.435 142.733 259.179 142.463 259.049 C 142.194 258.919 141.865 258.919 141.596 259.049 C 141.326 259.179 141.121 259.435 141.055 259.727 C 140.988 260.019 141.061 260.339 141.248 260.573 C 141.434 260.807 141.73 260.95 142.03 260.95 " />
</g>

<g opacity="1.000000" fill="#1f77b4" stroke-width="0.000000" id="id0000000042" >
<path id="id0000000124" d="M 289.148 314.339 C 289.447 314.339 289.744 314.196 289.93 313.962 C 290.117 313.728 290.19 313.408 290.123 313.116 C 290.057 312.825 289.852 312.568 289.582 312.438 C 289.313 312.308 288.984 312.308 288.714 312.438 C 288.445 312.568 288.24 312.825 288.173 313.116 C 288.107 313.408 288.18 313.728 288.366 313.962 C 288.553 314.196 288.849 314.339 289.148 314.339 " />
</g>

<g opacity="1.000000" fill="#1f77b4" stroke-width="0.000000" id="id0000000044" >
<path id="id0000000125" d="M 302.012 341.065 C 302.311 341.065 302.607 340.923 302.794 340.689 C 302.981 340.455 303.054 340.134 302.987 339.843 C 302.921 339.551 302.716 339.294 302.446 339.164 C 302.177 339.034 301.848 339.034 301.578 339.164 C 301.309 339.294 301.104 339.551 301.037 339.843 C 300.971 340.134 301.044 340.455 301.23 340.689 C 301.417 340.923 301.713 341.065 302.012 341.065 " />
</g>

<g opacity="1.000000" fill="#1f77b4" stroke-width="0.000000" id="id0000000046" >
<path id="id0000000126" d="M 267.781 172.997 C 268.08 172.997 268.376 172.854 268.563 172.621 C 268.749 172.387 268.823 172.066 268.756 171.775 C 268.689 171.483 268.484 171.226 268.215 171.096 C 267.945 170.966 267.617 170.966 267.347 171.096 C 267.078 171.226 266.873 171.483 266.806 171.775 C 266.74 172.066 266.813 172.387 266.999 172.621 C 267.186 172.854 267.482 172.997 267.781 172.997 " />
</g>

<g opacity="1.000000" fill="#1f77b4" stroke-width="0.000000" id="id0000000048" >
<path id="id0000000127" d="M 452.882 21.844 C 453.181 21.844 453.477 21.7014 453.664 21.4675 C 453.85 21.2335 453.924 20.9132 453.857 20.6215 C 453.79 20.3298 453.586 20.0728 453.316 19.943 C 453.046 19.8132 452.718 19.8132 452.448 19.943 C 452.179 20.0728 451.974 20.3298 451.907 20.6215 C 451.841 20.9132 451.914 21.2335 452.1 21.4675 C 452.287 21.7014 452.583 21.844 452.882 21.844 " />
</g>

<g opacity="1.000000" fill="#1f77b4" stroke-width="0.000000" id="id0000000050" >
<path id="id0000000128" d="M 344.414 217.637 C 344.714 217.637 345.01 217.495 345.196 217.261 C 345.383 217.027 345.456 216.706 345.389 216.415 C 345.323 216.123 345.118 215.866 344.848 215.736 C 344.579 215.607 344.25 215.607 343.981 215.736 C 343.711 215.866 343.506 216.123 343.44 216.415 C 343.373 216.706 343.446 217.027 343.633 217.261 C 343.819 217.495 344.115 217.637 344.414 217.637 " />
</g>

<g opacity="1.000000" fill="#1f77b4" stroke-width="0.000000" id="id0000000052" >
<path id="id0000000129" d="M 206.445 311.551 C 206.744 311.551 207.04 311.409 207.227 311.175 C 207.413 310.941 207.486 310.621 207.42 310.329 C 207.353 310.037 207.148 309.78 206.879 309.65 C 206.609 309.521 206.28 309.521 206.011 309.65 C 205.741 309.78 205.536 310.037 205.47 310.329 C 205.403 310.621 205.476 310.941 205.663 311.175 C 205.849 311.409 206.146 311.551 206.445 311.551 " />
</g>

<g opacity="1.000000" fill="#1f77b4" stroke-width="0.000000" id="id0000000054" >
<path id="id0000000130" d="M 361.056 225.291 C 361.355 225.291 361.651 225.148 361.838 224.914 C 362.024 224.68 362.098 224.36 362.031 224.068 C 361.964 223.776 361.759 223.519 361.49 223.39 C 361.22 223.26 360.892 223.26 360.622 223.39 C 360.353 223.519 360.148 223.776 360.081 224.068 C 360.015 224.36 360.088 224.68 360.274 224.914 C 360.461 225.148 360.757 225.291 361.056 225.291 " />
</g>

<g opacity="1.000000" fill="#1f77b4" stroke-width="0.000000" id="id0000000056" >
<path id="id0000000131" d="M 616.77 287.096 C 617.069 287.096 617.365 286.954 617.552 286.72 C 617.738 286.486 617.811 286.166 617.745 285.874 C 617.678 285.582 617.473 285.325 617.204 285.195 C 616.934 285.066 616.605 285.066 616.336 285.195 C 616.066 285.325 615.861 285.582 615.795 285.874 C 615.728 286.166 615.801 286.486 615.988 286.72 C 616.174 286.954 616.47 287.096 616.77 287.096 " />
</g>

<g opacity="1.000000" fill="#1f77b4" stroke-width="0.000000" id="id0000000058" >
<path id="id0000000132" d="M 330.716 275.7 C 331.015 275.7 331.311 275.557 331.497 275.323 C 331.684 275.089 331.757 274.769 331.691 274.477 C 331.624 274.185 331.419 273.928 331.15 273.799 C 330.88 273.669 330.551 273.669 330.282 273.799 C 330.012 273.928 329.807 274.185 329.741 274.477 C 329.674 274.769 329.747 275.089 329.934 275.323 C 330.12 275.557 330.416 275.7 330.716 275.7 " />
</g>

<g opacity="1.000000" fill="#1f77b4" stroke-width="0.000000" id="id0000000060" >
<path id="id0000000133" d="M 63.7606 43.2932 C 64.0598 43.2932 64.3559 43.1506 64.5424 42.9166 C 64.729 42.6827 64.8021 42.3623 64.7355 42.0706 C 64.6689 41.7789 64.464 41.522 64.1945 41.3922 C 63.9249 41.2624 63.5963 41.2624 63.3267 41.3922 C 63.0571 41.522 62.8522 41.7789 62.7857 42.0706 C 62.7191 42.3623 62.7922 42.6827 62.9788 42.9166 C 63.1653 43.1506 63.4614 43.2932 63.7606 43.2932 " />
</g>

<g opacity="1.000000" fill="#1f77b4" stroke-width="0.000000" id="id0000000062" >
<path id="id0000000134" d="M 267.728 140.171 C 268.027 140.171 268.323 140.028 268.51 139.794 C 268.696 139.56 268.769 139.24 268.703 138.948 C 268.636 138.656 268.431 138.4 268.162 138.27 C 267.892 138.14 267.563 138.14 267.294 138.27 C 267.024 138.4 266.819 138.656 266.753 138.948 C 266.686 139.24 266.759 139.56 266.946 139.794 C 267.132 140.028 267.429 140.171 267.728 140.171 " />
</g>

<g opacity="1.000000" fill="#1f77b4" stroke-width="0.000000" id="id0000000064" >
<path id="id0000000135" d="M 510.57 174.252 C 510.87 174.252 511.166 174.109 511.352 173.875 C 511.539 173.641 511.612 173.321 511.545 173.029 C 511.479 172.737 511.274 172.48 511.004 172.351 C 510.735 172.221 510.406 172.221 510.136 172.351 C 509.867 172.48 509.662 172.737 509.595 173.029 C 509.529 173.321 509.602 173.641 509.789 173.875 C 509.975 174.109 510.271 174.252 510.57 174.252 " />
</g>

<g opacity="1.000000" fill="#1f77b4" stroke-width="0.000000" id="id0000000066" >
<path id="id0000000136" d="M 396.642 435.192 C 396.941 435.192 397.237 435.05 397.424 434.816 C 397.611 434.582 397.684 434.262 397.617 433.97 C 397.55 433.678 397.346 433.421 397.076 433.291 C 396.806 433.162 396.478 433.162 396.208 433.291 C 395.939 433.421 395.734 433.678 395.667 433.97 C 395.601 434.262 395.674 434.582 395.86 434.816 C 396.047 435.05 396.343 435.192 396.642 435.192 " />
</g>

<g opacity="1.000000" fill="#1f77b4" stroke-width="0.000000" id="id0000000068" >
<path id="id0000000137" d="M 202.586 195.182 C 202.885 195.182 203.181 195.04 203.367 194.806 C 203.554 194.572 203.627 194.252 203.561 193.96 C 203.494 193.668 203.289 193.411 203.02 193.281 C 202.75 193.152 202.421 193.152 202.152 193.281 C 201.882 193.411 201.677 193.668 201.611 193.96 C 201.544 194.252 201.617 194.572 201.804 194.806 C 201.99 195.04 202.286 195.182 202.586 195.182 " />
</g>

<g opacity="1.000000" fill="#1f77b4" stroke-width="0.000000" id="id0000000070" >
<path id="id0000000138" d="M 403.334 86.5046 C 403.633 86.5046 403.929 86.362 404.116 86.1281 C 404.302 85.8941 404.375 85.5738 404.309 85.2821 C 404.242 84.9904 404.037 84.7334 403.768 84.6036 C 403.498 84.4738 403.17 84.4738 402.9 84.6036 C 402.63 84.7334 402.426 84.9904 402.359 85.2821 C 402.292 85.5738 402.365 85.8941 402.552 86.1281 C 402.739 86.362 403.035 86.5046 403.334 86.5046 " />
</g>

<g opacity="1.000000" fill="#1f77b4" stroke-width="0.000000" id="id0000000072" >
<path id="id0000000139" d="M 423.692 304.011 C 423.991 304.011 424.287 303.869 424.474 303.635 C 424.66 303.401 424.733 303.08 424.667 302.789 C 424.6 302.497 424.395 302.24 424.126 302.11 C 423.856 301.98 423.528 301.98 423.258 302.11 C 422.989 302.24 422.784 302.497 422.717 302.789 C 422.65 303.08 422.724 303.401 422.91 303.635 C 423.097 303.869 423.393 304.011 423.692 304.011 " />
</g>

<g opacity="1.000000" fill="#1f77b4" stroke-width="0.000000" id="id0000000074" >
<path id="id0000000140" d="M 427.349 307.834 C 427.648 307.834 427.944 307.691 428.13 307.458 C 428.317 307.224 428.39 306.903 428.323 306.612 C 428.257 306.32 428.052 306.063 427.782 305.933 C 427.513 305.803 427.184 305.803 426.915 305.933 C 426.645 306.063 426.44 306.32 426.374 306.612 C 426.307 306.903 426.38 307.224 426.567 307.458 C 426.753 307.691 427.049 307.834 427.349 307.834 " />
</g>

<g opacity="1.000000" fill="#1f77b4" stroke-width="0.000000" id="id0000000076" >
<path id="id0000000141" d="M 212.467 230.733 C 212.766 230.733 213.062 230.59 213.248 230.357 C 213.435 230.123 213.508 229.802 213.442 229.511 C 213.375 229.219 213.17 228.962 212.9 228.832 C 212.631 228.702 212.302 228.702 212.033 228.832 C 211.763 228.962 211.558 229.219 211.492 229.511 C 211.425 229.802 211.498 230.123 211.685 230.357 C 211.871 230.59 212.167 230.733 212.467 230.733 " />
</g>

<g opacity="1.000000" fill="#1f77b4" stroke-width="0.000000" id="id0000000078" >
<path id="id0000000142" d="M 347.967 248.243 C 348.266 248.243 348.563 248.101 348.749 247.867 C 348.936 247.633 349.009 247.312 348.942 247.021 C 348.876 246.729 348.671 246.472 348.401 246.342 C 348.132 246.212 347.803 246.212 347.533 246.342 C 347.264 246.472 347.059 246.729 346.992 247.021 C 346.926 247.312 346.999 247.633 347.185 247.867 C 347.372 248.101 347.668 248.243 347.967 248.243 " />
</g>

<g opacity="1.000000" fill="#1f77b4" stroke-width="0.000000" id="id0000000080" >
<path id="id0000000143" d="M 434.09 295.944 C 434.389 295.944 434.685 295.802 434.872 295.568 C 435.058 295.334 435.131 295.014 435.065 294.722 C 434.998 294.43 434.793 294.173 434.524 294.043 C 434.254 293.914 433.926 293.914 433.656 294.043 C 433.387 294.173 433.182 294.43 433.115 294.722 C 433.048 295.014 433.122 295.334 433.308 295.568 C 433.495 295.802 433.791 295.944 434.09 295.944 " />
</g>

<g opacity="1.000000" fill="#1f77b4" stroke-width="0.000000" id="id0000000082" >
<path id="id0000000144" d="M 218.265 122.093 C 218.564 122.093 218.86 121.95 219.047 121.717 C 219.233 121.483 219.306 121.162 219.24 120.871 C 219.173 120.579 218.968 120.322 218.699 120.192 C 218.429 120.062 218.101 120.062 217.831 120.192 C 217.561 120.322 217.357 120.579 217.29 120.871 C 217.223 121.162 217.296 121.483 217.483 121.717 C 217.67 121.95 217.966 122.093 218.265 122.093 " />
</g>

<g opacity="1.000000" fill="#1f77b4" stroke-width="0.000000" id="id0000000084" >
<path id="id0000000145" d="M 237.672 183.866 C 237.972 183.866 238.268 183.723 238.454 183.489 C 238.641 183.255 238.714 182.935 238.647 182.643 C 238.581 182.351 238.376 182.095 238.106 181.965 C 237.837 181.835 237.508 181.835 237.238 181.965 C 236.969 182.095 236.764 182.351 236.697 182.643 C 236.631 182.935 236.704 183.255 236.891 183.489 C 237.077 183.723 237.373 183.866 237.672 183.866 " />
</g>

<g opacity="1.000000" fill="#1f77b4" stroke-width="0.000000" id="id0000000086" >
<path id="id0000000146" d="M 279.865 227.852 C 280.165 227.852 280.461 227.709 280.647 227.475 C 280.834 227.241 280.907 226.921 280.84 226.629 C 280.774 226.337 280.569 226.081 280.299 225.951 C 280.03 225.821 279.701 225.821 279.432 225.951 C 279.162 226.081 278.957 226.337 278.891 226.629 C 278.824 226.921 278.897 227.241 279.084 227.475 C 279.27 227.709 279.566 227.852 279.865 227.852 " />
</g>

<g opacity="1.000000" fill="#1f77b4" stroke-width="0.000000" id="id0000000088" >
<path id="id0000000147" d="M 268.336 34.3674 C 268.635 34.3674 268.932 34.2249 269.118 33.9909 C 269.305 33.757 269.378 33.4366 269.311 33.1449 C 269.245 32.8532 269.04 32.5963 268.77 32.4665 C 268.501 32.3367 268.172 32.3367 267.902 32.4665 C 267.633 32.5963 267.428 32.8532 267.361 33.1449 C 267.295 33.4366 267.368 33.757 267.554 33.9909 C 267.741 34.2249 268.037 34.3674 268.336 34.3674 " />
</g>

<g opacity="1.000000" fill="#1f77b4" stroke-width="0.000000" id="id0000000090" >
<path id="id0000000148" d="M 274.98 62.6095 C 275.279 62.6095 275.575 62.4669 275.761 62.233 C 275.948 61.9991 276.021 61.6787 275.954 61.387 C 275.888 61.0953 275.683 60.8384 275.413 60.7086 C 275.144 60.5787 274.815 60.5787 274.546 60.7086 C 274.276 60.8384 274.071 61.0953 274.005 61.387 C 273.938 61.6787 274.011 61.9991 274.198 62.233 C 274.384 62.4669 274.68 62.6095 274.98 62.6095 " />
</g>

<g opacity="1.000000" fill="#1f77b4" stroke-width="0.000000" id="id0000000092" >
<path id="id0000000149" d="M 373.203 286.528 C 373.502 286.528 373.799 286.385 373.985 286.151 C 374.172 285.917 374.245 285.597 374.178 285.305 C 374.112 285.013 373.907 284.757 373.637 284.627 C 373.368 284.497 373.039 284.497 372.769 284.627 C 372.5 284.757 372.295 285.013 372.228 285.305 C 372.162 285.597 372.235 285.917 372.421 286.151 C 372.608 286.385 372.904 286.528 373.203 286.528 " />
</g>

<g opacity="1.000000" fill="#1f77b4" stroke-width="0.000000" id="id0000000094" >
<path id="id0000000150" d="M 217.191 220.77 C 217.491 220.77 217.787 220.628 217.973 220.394 C 218.16 220.16 218.233 219.839 218.166 219.548 C 218.1 219.256 217.895 218.999 217.625 218.869 C 217.356 218.739 217.027 218.739 216.757 218.869 C 216.488 218.999 216.283 219.256 216.216 219.548 C 216.15 219.839 216.223 220.16 216.409 220.394 C 216.596 220.628 216.892 220.77 217.191 220.77 " />
</g>

<g opacity="1.000000" fill="#1f77b4" stroke-width="0.000000" id="id0000000096" >
<path id="id0000000151" d="M 468.733 250.674 C 469.032 250.674 469.328 250.532 469.515 250.298 C 469.702 250.064 469.775 249.743 469.708 249.452 C 469.642 249.16 469.437 248.903 469.167 248.773 C 468.897 248.643 468.569 248.643 468.299 248.773 C 468.03 248.903 467.825 249.16 467.758 249.452 C 467.692 249.743 467.765 250.064 467.951 250.298 C 468.138 250.532 468.434 250.674 468.733 250.674 " />
</g>

<g opacity="1.000000" fill="#1f77b4" stroke-width="0.000000" id="id0000000098" >
<path id="id0000000152" d="M 278.585 376.681 C 278.884 376.681 279.18 376.539 279.367 376.305 C 279.554 376.071 279.627 375.751 279.56 375.459 C 279.493 375.167 279.289 374.91 279.019 374.78 C 278.749 374.651 278.421 374.651 278.151 374.78 C 277.882 374.91 277.677 375.167 277.61 375.459 C 277.544 375.751 277.617 376.071 277.803 376.305 C 277.99 376.539 278.286 376.681 278.585 376.681 " />
</g>

<g opacity="1.000000" fill="#1f77b4" stroke-width="0.000000" id="id0000000100" >
<path id="id0000000153" d="M 299.98 397.696 C 300.279 397.696 300.575 397.553 300.761 397.32 C 300.948 397.086 301.021 396.765 300.955 396.474 C 300.888 396.182 300.683 395.925 300.413 395.795 C 300.144 395.665 299.815 395.665 299.546 395.795 C 299.276 395.925 299.071 396.182 299.005 396.474 C 298.938 396.765 299.011 397.086 299.198 397.32 C 299.384 397.553 299.68 397.696 299.98 397.696 " />
</g>

<g opacity="1.000000" fill="#1f77b4" stroke-width="0.000000" id="id0000000102" >
<path id="id0000000154" d="M 161.226 222.411 C 161.525 222.411 161.821 222.269 162.008 222.035 C 162.194 221.801 162.267 221.48 162.201 221.189 C 162.134 220.897 161.929 220.64 161.66 220.51 C 161.39 220.38 161.062 220.38 160.792 220.51 C 160.522 220.64 160.318 220.897 160.251 221.189 C 160.184 221.48 160.257 221.801 160.444 222.035 C 160.631 222.269 160.927 222.411 161.226 222.411 " />
</g>

<g opacity="1.000000" fill="#1f77b4" stroke-width="0.000000" id="id0000000104" >
<path id="id0000000155" d="M 203.915 255.175 C 204.214 255.175 204.511 255.032 204.697 254.798 C 204.884 254.564 204.957 254.244 204.89 253.952 C 204.824 253.66 204.619 253.403 204.349 253.274 C 204.08 253.144 203.751 253.144 203.481 253.274 C 203.212 253.403 203.007 253.66 202.94 253.952 C 202.874 254.244 202.947 254.564 203.133 254.798 C 203.32 255.032 203.616 255.175 203.915 255.175 " />
</g>

</g>

</g>

<polygon points="36,1 36,458 639,458 639,1 " stroke="black" stroke-width="1.000000" fill="none" id="id0000000156" pointer-events="none" class="rectangle" />
<polyline points="88.4248,458 88.4248,461 " fill="none" stroke-width="1.000000" stroke="black" id="id0000000157" class="line" />
<text id="id0000000158" transform="matrix(1 0 0 1 36 1)" x="52.424835" y="462.000000" dominant-baseline="hanging" text-anchor="middle" font-size="14.000000px" >
-4
</text>

<polyline points="191.721,458 191.721,461 " fill="none" stroke-width="1.000000" stroke="black" id="id0000000159" class="line" />
<text id="id0000000160" transform="matrix(1 0 0 1 36 1)" x="155.721420" y="462.000000" dominant-baseline="hanging" text-anchor="middle" font-size="14.000000px" >
-2
</text>

<polyline points="295.018,458 295.018,461 " fill="none" stroke-width="1.000000" stroke="black" id="id0000000161" class="line" />
<text id="id0000000162" transform="matrix(1 0 0 1 36 1)" x="259.018005" y="462.000000" dominant-baseline="hanging" text-anchor="middle" font-size="14.000000px" >
0
</text>

<polyline points="398.315,458 398.315,461 " fill="none" stroke-width="1.000000" stroke="black" id="id0000000163" class="line" />
<text id="id0000000164" transform="matrix(1 0 0 1 36 1)" x="362.314606" y="462.000000" dominant-baseline="hanging" text-anchor="middle" font-size="14.000000px" >
2
</text>

<polyline points="501.611,458 501.611,461 " fill="none" stroke-width="1.000000" stroke="black" id="id0000000165" class="line" />
<text id="id0000000166" transform="matrix(1 0 0 1 36 1)" x="465.611206" y="462.000000" dominant-baseline="hanging" text-anchor="middle" font-size="14.000000px" >
4
</text>

<polyline points="604.908,458 604.908,461 " fill="none" stroke-width="1.000000" stroke="black" id="id0000000167" class="line" />
<text id="id0000000168" transform="matrix(1 0 0 1 36 1)" x="568.907776" y="462.000000" dominant-baseline="hanging" text-anchor="middle" font-size="14.000000px" >
6
</text>

<polyline points="33,442.483 36,442.483 " fill="none" stroke-width="1.000000" stroke="black" id="id0000000169" class="line" />
<text id="id0000000170" transform="matrix(1 0 0 1 36 1)" x="-5.000000" y="441.483093" dominant-baseline="middle" text-anchor="end" font-size="14.000000px" >
-4
</text>

<polyline points="33,389.201 36,389.201 " fill="none" stroke-width="1.000000" stroke="black" id="id0000000171" class="line" />
<text id="id0000000172" transform="matrix(1 0 0 1 36 1)" x="-5.000000" y="388.201111" dominant-baseline="middle" text-anchor="end" font-size="14.000000px" >
-3
</text>

<polyline points="33,335.919 36,335.919 " fill="none" stroke-width="1.000000" stroke="black" id="id0000000173" class="line" />
<text id="id0000000174" transform="matrix(1 0 0 1 36 1)" x="-5.000000" y="334.919128" dominant-baseline="middle" text-anchor="end" font-size="14.000000px" >
-2
</text>

<polyline points="33,282.637 36,282.637 " fill="none" stroke-width="1.000000" stroke="black" id="id0000000175" class="line" />
<text id="id0000000176" transform="matrix(1 0 0 1 36 1)" x="-5.000000" y="281.637146" dominant-baseline="middle" text-anchor="end" font-size="14.000000px" >
-1
</text>

<polyline points="33,229.355 36,229.355 " fill="none" stroke-width="1.000000" stroke="black" id="id0000000177" class="line" />
<text id="id0000000178" transform="matrix(1 0 0 1 36 1)" x="-5.000000" y="228.355179" dominant-baseline="middle" text-anchor="end" font-size="14.000000px" >
0
</text>

<polyline points="33,176.073 36,176.073 " fill="none" stroke-width="1.000000" stroke="black" id="id0000000179" class="line" />
<text id="id0000000180" transform="matrix(1 0 0 1 36 1)" x="-5.000000" y="175.073212" dominant-baseline="middle" text-anchor="end" font-size="14.000000px" >
1
</text>

<polyline points="33,122.791 36,122.791 " fill="none" stroke-width="1.000000" stroke="black" id="id0000000181" class="line" />
<text id="id0000000182" transform="matrix(1 0 0 1 36 1)" x="-5.000000" y="121.791229" dominant-baseline="middle" text-anchor="end" font-size="14.000000px" >
2
</text>

<polyline points="33,69.5093 36,69.5093 " fill="none" stroke-width="1.000000" stroke="black" id="id0000000183" class="line" />
<text id="id0000000184" transform="matrix(1 0 0 1 36 1)" x="-5.000000" y="68.509277" dominant-baseline="middle" text-anchor="end" font-size="14.000000px" >
3
</text>

<polyline points="33,16.2273 36,16.2273 " fill="none" stroke-width="1.000000" stroke="black" id="id0000000185" class="line" />
<text id="id0000000186" transform="matrix(1 0 0 1 36 1)" x="-5.000000" y="15.227295" dominant-baseline="middle" text-anchor="end" font-size="14.000000px" >
4
</text>


</g>

</svg>
