<svg viewBox="0 0 200 200" height="100%" width="100%" xmlns:xlink="http://www.w3.org/1999/xlink" xmlns="http://www.w3.org/2000/svg" id="id0000000449" >
<g id="id0000000450" >
<clipPath id="id0000000450clipper" >
<polygon points="36,1 36,178 199,178 199,1 " id="id0000000554" class="rectangle" />
</clipPath>

<g clip-path="url(#id0000000450clipper)" id="id0000000452" >
<g id="id0000000453" >
<g id="id0000000455" >
<g opacity="0.500000" fill="red" stroke="black" stroke-width="0.500000" id="id0000000454" >
<path id="id0000000555" d="M 96.7335 148.935 C 97.3319 148.935 97.9241 148.65 98.2972 148.182 C 98.6703 147.714 98.8166 147.073 98.6834 146.49 C 98.5502 145.906 98.1404 145.393 97.6013 145.133 C 97.0622 144.873 96.4049 144.873 95.8658 145.133 C 95.3266 145.393 94.9168 145.906 94.7837 146.49 C 94.6505 147.073 94.7968 147.714 95.1699 148.182 C 95.543 148.65 96.1351 148.935 96.7335 148.935 " />
</g>

</g>

<g id="id0000000457" >
<g opacity="0.500000" fill="red" stroke="black" stroke-width="0.500000" id="id0000000456" >
<path id="id0000000556" d="M 145.843 156.135 C 146.441 156.135 147.033 155.85 147.406 155.382 C 147.779 154.914 147.926 154.273 147.792 153.69 C 147.659 153.106 147.249 152.592 146.71 152.333 C 146.171 152.073 145.514 152.073 144.975 152.333 C 144.436 152.592 144.026 153.106 143.893 153.69 C 143.76 154.273 143.906 154.914 144.279 155.382 C 144.652 155.85 145.244 156.135 145.843 156.135 " />
</g>

</g>

<g id="id0000000459" >
<g opacity="0.500000" fill="red" stroke="black" stroke-width="0.500000" id="id0000000458" >
<path id="id0000000557" d="M 79.9951 139.07 C 80.5935 139.07 81.1857 138.785 81.5588 138.317 C 81.9319 137.85 82.0781 137.209 81.945 136.625 C 81.8118 136.042 81.402 135.528 80.8629 135.268 C 80.3237 135.009 79.6665 135.009 79.1273 135.268 C 78.5882 135.528 78.1784 136.042 78.0453 136.625 C 77.9121 137.209 78.0583 137.85 78.4314 138.317 C 78.8045 138.785 79.3967 139.07 79.9951 139.07 " />
</g>

</g>

<g id="id0000000461" >
<g opacity="0.500000" fill="red" stroke="black" stroke-width="0.500000" id="id0000000460" >
<path id="id0000000558" d="M 57.469 160.445 C 58.0674 160.445 58.6595 160.16 59.0326 159.692 C 59.4057 159.224 59.552 158.583 59.4188 158 C 59.2857 157.416 58.8759 156.902 58.3367 156.643 C 57.7976 156.383 57.1403 156.383 56.6012 156.643 C 56.0621 156.902 55.6523 157.416 55.5191 158 C 55.386 158.583 55.5322 159.224 55.9053 159.692 C 56.2784 160.16 56.8706 160.445 57.469 160.445 " />
</g>

</g>

<g id="id0000000463" >
<g opacity="0.500000" fill="red" stroke="black" stroke-width="0.500000" id="id0000000462" >
<path id="id0000000559" d="M 53.1023 150.423 C 53.7007 150.423 54.2929 150.138 54.666 149.67 C 55.0391 149.202 55.1853 148.561 55.0522 147.978 C 54.919 147.394 54.5092 146.881 53.9701 146.621 C 53.4309 146.361 52.7737 146.361 52.2345 146.621 C 51.6954 146.881 51.2856 147.394 51.1524 147.978 C 51.0193 148.561 51.1655 149.202 51.5386 149.67 C 51.9117 150.138 52.5039 150.423 53.1023 150.423 " />
</g>

</g>

<g id="id0000000465" >
<g opacity="0.500000" fill="red" stroke="black" stroke-width="0.500000" id="id0000000464" >
<path id="id0000000560" d="M 59.7209 163.346 C 60.3193 163.346 60.9114 163.061 61.2845 162.593 C 61.6576 162.125 61.8039 161.484 61.6707 160.901 C 61.5376 160.318 61.1278 159.804 60.5886 159.544 C 60.0495 159.285 59.3923 159.285 58.8531 159.544 C 58.314 159.804 57.9042 160.318 57.771 160.901 C 57.6379 161.484 57.7841 162.125 58.1572 162.593 C 58.5303 163.061 59.1225 163.346 59.7209 163.346 " />
</g>

</g>

<g id="id0000000467" >
<g opacity="0.500000" fill="red" stroke="black" stroke-width="0.500000" id="id0000000466" >
<path id="id0000000561" d="M 181.898 166.09 C 182.496 166.09 183.088 165.805 183.461 165.337 C 183.834 164.869 183.981 164.229 183.848 163.645 C 183.714 163.062 183.305 162.548 182.765 162.288 C 182.226 162.029 181.569 162.029 181.03 162.288 C 180.491 162.548 180.081 163.062 179.948 163.645 C 179.815 164.229 179.961 164.869 180.334 165.337 C 180.707 165.805 181.299 166.09 181.898 166.09 " />
</g>

</g>

<g id="id0000000469" >
<g opacity="0.500000" fill="red" stroke="black" stroke-width="0.500000" id="id0000000468" >
<path id="id0000000562" d="M 69.9695 138.373 C 70.5679 138.373 71.1601 138.088 71.5332 137.62 C 71.9063 137.152 72.0525 136.511 71.9194 135.928 C 71.7862 135.344 71.3764 134.831 70.8373 134.571 C 70.2982 134.311 69.6409 134.311 69.1018 134.571 C 68.5626 134.831 68.1528 135.344 68.0197 135.928 C 67.8865 136.511 68.0328 137.152 68.4059 137.62 C 68.779 138.088 69.3711 138.373 69.9695 138.373 " />
</g>

</g>

<g id="id0000000471" >
<g opacity="0.500000" fill="red" stroke="black" stroke-width="0.500000" id="id0000000470" >
<path id="id0000000563" d="M 61.1997 157.605 C 61.7981 157.605 62.3903 157.32 62.7634 156.852 C 63.1365 156.384 63.2828 155.743 63.1496 155.16 C 63.0164 154.577 62.6067 154.063 62.0675 153.803 C 61.5284 153.544 60.8711 153.544 60.332 153.803 C 59.7928 154.063 59.383 154.577 59.2499 155.16 C 59.1167 155.743 59.263 156.384 59.6361 156.852 C 60.0092 157.32 60.6013 157.605 61.1997 157.605 " />
</g>

</g>

<g id="id0000000473" >
<g opacity="0.500000" fill="red" stroke="black" stroke-width="0.500000" id="id0000000472" >
<path id="id0000000564" d="M 69.1348 138.343 C 69.7331 138.343 70.3253 138.058 70.6984 137.59 C 71.0715 137.122 71.2178 136.481 71.0846 135.898 C 70.9514 135.315 70.5417 134.801 70.0025 134.541 C 69.4634 134.281 68.8061 134.281 68.267 134.541 C 67.7278 134.801 67.3181 135.315 67.1849 135.898 C 67.0517 136.481 67.198 137.122 67.5711 137.59 C 67.9442 138.058 68.5364 138.343 69.1348 138.343 " />
</g>

</g>

<g id="id0000000475" >
<g opacity="0.500000" fill="red" stroke="black" stroke-width="0.500000" id="id0000000474" >
<path id="id0000000565" d="M 104.699 163.201 C 105.298 163.201 105.89 162.916 106.263 162.448 C 106.636 161.98 106.782 161.339 106.649 160.756 C 106.516 160.172 106.106 159.659 105.567 159.399 C 105.028 159.139 104.371 159.139 103.832 159.399 C 103.293 159.659 102.883 160.172 102.75 160.756 C 102.616 161.339 102.763 161.98 103.136 162.448 C 103.509 162.916 104.101 163.201 104.699 163.201 " />
</g>

</g>

<g id="id0000000477" >
<g opacity="0.500000" fill="red" stroke="black" stroke-width="0.500000" id="id0000000476" >
<path id="id0000000566" d="M 72.6867 168.347 C 73.2851 168.347 73.8773 168.062 74.2504 167.594 C 74.6235 167.126 74.7698 166.486 74.6366 165.902 C 74.5034 165.319 74.0936 164.805 73.5545 164.545 C 73.0154 164.286 72.3581 164.286 71.819 164.545 C 71.2798 164.805 70.87 165.319 70.7369 165.902 C 70.6037 166.486 70.75 167.126 71.1231 167.594 C 71.4962 168.062 72.0883 168.347 72.6867 168.347 " />
</g>

</g>

<g id="id0000000479" >
<g opacity="0.500000" fill="red" stroke="black" stroke-width="0.500000" id="id0000000478" >
<path id="id0000000567" d="M 60.1214 151.802 C 60.7198 151.802 61.312 151.517 61.6851 151.049 C 62.0582 150.581 62.2044 149.94 62.0713 149.357 C 61.9381 148.774 61.5283 148.26 60.9892 148 C 60.4501 147.74 59.7928 147.74 59.2537 148 C 58.7145 148.26 58.3047 148.774 58.1716 149.357 C 58.0384 149.94 58.1847 150.581 58.5578 151.049 C 58.9309 151.517 59.523 151.802 60.1214 151.802 " />
</g>

</g>

<g id="id0000000481" >
<g opacity="0.500000" fill="red" stroke="black" stroke-width="0.500000" id="id0000000480" >
<path id="id0000000568" d="M 93.9823 136.521 C 94.5807 136.521 95.1729 136.236 95.546 135.768 C 95.9191 135.3 96.0653 134.659 95.9322 134.076 C 95.799 133.493 95.3892 132.979 94.8501 132.719 C 94.3109 132.46 93.6537 132.46 93.1145 132.719 C 92.5754 132.979 92.1656 133.493 92.0324 134.076 C 91.8993 134.659 92.0455 135.3 92.4186 135.768 C 92.7917 136.236 93.3839 136.521 93.9823 136.521 " />
</g>

</g>

<g id="id0000000483" >
<g opacity="0.500000" fill="red" stroke="black" stroke-width="0.500000" id="id0000000482" >
<path id="id0000000569" d="M 64.0708 151.057 C 64.6692 151.057 65.2614 150.772 65.6345 150.304 C 66.0076 149.836 66.1538 149.195 66.0207 148.612 C 65.8875 148.029 65.4777 147.515 64.9386 147.255 C 64.3995 146.996 63.7422 146.996 63.2031 147.255 C 62.6639 147.515 62.2541 148.029 62.121 148.612 C 61.9878 149.195 62.1341 149.836 62.5072 150.304 C 62.8803 150.772 63.4724 151.057 64.0708 151.057 " />
</g>

</g>

<g id="id0000000485" >
<g opacity="0.500000" fill="red" stroke="black" stroke-width="0.500000" id="id0000000484" >
<path id="id0000000570" d="M 74.6964 168.511 C 75.2948 168.511 75.8869 168.226 76.26 167.758 C 76.6331 167.29 76.7794 166.649 76.6462 166.066 C 76.5131 165.482 76.1033 164.969 75.5641 164.709 C 75.025 164.449 74.3677 164.449 73.8286 164.709 C 73.2895 164.969 72.8797 165.482 72.7465 166.066 C 72.6133 166.649 72.7596 167.29 73.1327 167.758 C 73.5058 168.226 74.098 168.511 74.6964 168.511 " />
</g>

</g>

<g id="id0000000487" >
<g opacity="0.500000" fill="red" stroke="black" stroke-width="0.500000" id="id0000000486" >
<path id="id0000000571" d="M 171.563 157.241 C 172.162 157.241 172.754 156.956 173.127 156.488 C 173.5 156.02 173.646 155.379 173.513 154.796 C 173.38 154.213 172.97 153.699 172.431 153.439 C 171.892 153.179 171.234 153.179 170.695 153.439 C 170.156 153.699 169.746 154.213 169.613 154.796 C 169.48 155.379 169.626 156.02 169.999 156.488 C 170.373 156.956 170.965 157.241 171.563 157.241 " />
</g>

</g>

<g id="id0000000489" >
<g opacity="0.500000" fill="red" stroke="black" stroke-width="0.500000" id="id0000000488" >
<path id="id0000000572" d="M 60.0248 166.708 C 60.6232 166.708 61.2153 166.423 61.5884 165.955 C 61.9615 165.487 62.1078 164.846 61.9746 164.263 C 61.8415 163.679 61.4317 163.165 60.8925 162.906 C 60.3534 162.646 59.6961 162.646 59.157 162.906 C 58.6179 163.165 58.2081 163.679 58.0749 164.263 C 57.9418 164.846 58.088 165.487 58.4611 165.955 C 58.8342 166.423 59.4264 166.708 60.0248 166.708 " />
</g>

</g>

<g id="id0000000491" >
<g opacity="0.500000" fill="red" stroke="black" stroke-width="0.500000" id="id0000000490" >
<path id="id0000000573" d="M 87.0942 164.267 C 87.6926 164.267 88.2847 163.982 88.6578 163.514 C 89.0309 163.046 89.1772 162.405 89.044 161.822 C 88.9109 161.238 88.5011 160.725 87.9619 160.465 C 87.4228 160.205 86.7655 160.205 86.2264 160.465 C 85.6872 160.725 85.2775 161.238 85.1443 161.822 C 85.0111 162.405 85.1574 163.046 85.5305 163.514 C 85.9036 163.982 86.4958 164.267 87.0942 164.267 " />
</g>

</g>

<g id="id0000000493" >
<g opacity="0.500000" fill="red" stroke="black" stroke-width="0.500000" id="id0000000492" >
<path id="id0000000574" d="M 80.1387 102.458 C 80.7371 102.458 81.3293 102.172 81.7024 101.705 C 82.0755 101.237 82.2218 100.596 82.0886 100.013 C 81.9554 99.4292 81.5457 98.9153 81.0065 98.6557 C 80.4674 98.396 79.8101 98.396 79.271 98.6557 C 78.7318 98.9153 78.3221 99.4292 78.1889 100.013 C 78.0557 100.596 78.202 101.237 78.5751 101.705 C 78.9482 102.172 79.5404 102.458 80.1387 102.458 " />
</g>

</g>

<g id="id0000000495" >
<g opacity="0.500000" fill="red" stroke="black" stroke-width="0.500000" id="id0000000494" >
<path id="id0000000575" d="M 55.1695 169.79 C 55.7679 169.79 56.3601 169.505 56.7332 169.037 C 57.1063 168.569 57.2525 167.928 57.1194 167.345 C 56.9862 166.762 56.5764 166.248 56.0373 165.988 C 55.4982 165.728 54.8409 165.728 54.3018 165.988 C 53.7626 166.248 53.3528 166.762 53.2197 167.345 C 53.0865 167.928 53.2328 168.569 53.6059 169.037 C 53.979 169.505 54.5711 169.79 55.1695 169.79 " />
</g>

</g>

<g id="id0000000497" >
<g opacity="0.500000" fill="red" stroke="black" stroke-width="0.500000" id="id0000000496" >
<path id="id0000000576" d="M 57.3767 169.442 C 57.9751 169.442 58.5673 169.157 58.9404 168.689 C 59.3135 168.221 59.4597 167.58 59.3265 166.997 C 59.1934 166.414 58.7836 165.9 58.2445 165.64 C 57.7053 165.381 57.0481 165.381 56.5089 165.64 C 55.9698 165.9 55.56 166.414 55.4268 166.997 C 55.2937 167.58 55.4399 168.221 55.813 168.689 C 56.1861 169.157 56.7783 169.442 57.3767 169.442 " />
</g>

</g>

<g id="id0000000499" >
<g opacity="0.500000" fill="red" stroke="black" stroke-width="0.500000" id="id0000000498" >
<path id="id0000000577" d="M 64.1395 172.863 C 64.7379 172.863 65.33 172.577 65.7031 172.109 C 66.0762 171.642 66.2225 171.001 66.0893 170.417 C 65.9562 169.834 65.5464 169.32 65.0072 169.061 C 64.4681 168.801 63.8108 168.801 63.2717 169.061 C 62.7326 169.32 62.3228 169.834 62.1896 170.417 C 62.0565 171.001 62.2027 171.642 62.5758 172.109 C 62.9489 172.577 63.5411 172.863 64.1395 172.863 " />
</g>

</g>

<g id="id0000000501" >
<g opacity="0.500000" fill="red" stroke="black" stroke-width="0.500000" id="id0000000500" >
<path id="id0000000578" d="M 146.601 134.289 C 147.2 134.289 147.792 134.004 148.165 133.536 C 148.538 133.069 148.684 132.428 148.551 131.844 C 148.418 131.261 148.008 130.747 147.469 130.487 C 146.93 130.228 146.273 130.228 145.734 130.487 C 145.194 130.747 144.785 131.261 144.652 131.844 C 144.518 132.428 144.665 133.069 145.038 133.536 C 145.411 134.004 146.003 134.289 146.601 134.289 " />
</g>

</g>

<g id="id0000000503" >
<g opacity="0.500000" fill="red" stroke="black" stroke-width="0.500000" id="id0000000502" >
<path id="id0000000579" d="M 64.1755 105.777 C 64.7739 105.777 65.366 105.492 65.7391 105.024 C 66.1122 104.556 66.2585 103.915 66.1253 103.332 C 65.9922 102.748 65.5824 102.235 65.0432 101.975 C 64.5041 101.715 63.8468 101.715 63.3077 101.975 C 62.7686 102.235 62.3588 102.748 62.2256 103.332 C 62.0924 103.915 62.2387 104.556 62.6118 105.024 C 62.9849 105.492 63.5771 105.777 64.1755 105.777 " />
</g>

</g>

<g id="id0000000505" >
<g opacity="0.500000" fill="red" stroke="black" stroke-width="0.500000" id="id0000000504" >
<path id="id0000000580" d="M 91.148 134.897 C 91.7464 134.897 92.3385 134.612 92.7116 134.144 C 93.0847 133.676 93.231 133.036 93.0978 132.452 C 92.9647 131.869 92.5549 131.355 92.0157 131.095 C 91.4766 130.836 90.8193 130.836 90.2802 131.095 C 89.7411 131.355 89.3313 131.869 89.1981 132.452 C 89.065 133.036 89.2112 133.676 89.5843 134.144 C 89.9574 134.612 90.5496 134.897 91.148 134.897 " />
</g>

</g>

<g id="id0000000507" >
<g opacity="0.500000" fill="red" stroke="black" stroke-width="0.500000" id="id0000000506" >
<path id="id0000000581" d="M 67.424 158.264 C 68.0224 158.264 68.6146 157.979 68.9877 157.511 C 69.3608 157.043 69.5071 156.402 69.3739 155.819 C 69.2407 155.236 68.8309 154.722 68.2918 154.462 C 67.7527 154.202 67.0954 154.202 66.5563 154.462 C 66.0171 154.722 65.6073 155.236 65.4742 155.819 C 65.341 156.402 65.4873 157.043 65.8604 157.511 C 66.2335 157.979 66.8256 158.264 67.424 158.264 " />
</g>

</g>

<g id="id0000000509" >
<g opacity="0.500000" fill="red" stroke="black" stroke-width="0.500000" id="id0000000508" >
<path id="id0000000582" d="M 60.0504 166.961 C 60.6488 166.961 61.241 166.676 61.6141 166.208 C 61.9872 165.74 62.1334 165.099 62.0003 164.516 C 61.8671 163.932 61.4573 163.419 60.9182 163.159 C 60.379 162.899 59.7218 162.899 59.1827 163.159 C 58.6435 163.419 58.2337 163.932 58.1006 164.516 C 57.9674 165.099 58.1137 165.74 58.4868 166.208 C 58.8599 166.676 59.452 166.961 60.0504 166.961 " />
</g>

</g>

<g id="id0000000511" >
<g opacity="0.500000" fill="red" stroke="black" stroke-width="0.500000" id="id0000000510" >
<path id="id0000000583" d="M 70.7388 165.773 C 71.3372 165.773 71.9293 165.487 72.3024 165.02 C 72.6755 164.552 72.8218 163.911 72.6886 163.328 C 72.5555 162.744 72.1457 162.23 71.6065 161.971 C 71.0674 161.711 70.4101 161.711 69.871 161.971 C 69.3319 162.23 68.9221 162.744 68.7889 163.328 C 68.6558 163.911 68.802 164.552 69.1751 165.02 C 69.5482 165.487 70.1404 165.773 70.7388 165.773 " />
</g>

</g>

<g id="id0000000513" >
<g opacity="0.500000" fill="red" stroke="black" stroke-width="0.500000" id="id0000000512" >
<path id="id0000000584" d="M 67.0426 130.107 C 67.641 130.107 68.2332 129.822 68.6062 129.354 C 68.9793 128.886 69.1256 128.245 68.9924 127.662 C 68.8593 127.078 68.4495 126.565 67.9104 126.305 C 67.3712 126.045 66.714 126.045 66.1748 126.305 C 65.6357 126.565 65.2259 127.078 65.0927 127.662 C 64.9596 128.245 65.1058 128.886 65.4789 129.354 C 65.852 129.822 66.4442 130.107 67.0426 130.107 " />
</g>

</g>

<g id="id0000000515" >
<g opacity="0.500000" fill="red" stroke="black" stroke-width="0.500000" id="id0000000514" >
<path id="id0000000585" d="M 55.0014 163.96 C 55.5998 163.96 56.192 163.675 56.565 163.207 C 56.9381 162.739 57.0844 162.099 56.9512 161.515 C 56.8181 160.932 56.4083 160.418 55.8692 160.158 C 55.33 159.899 54.6728 159.899 54.1336 160.158 C 53.5945 160.418 53.1847 160.932 53.0515 161.515 C 52.9184 162.099 53.0646 162.739 53.4377 163.207 C 53.8108 163.675 54.403 163.96 55.0014 163.96 " />
</g>

</g>

<g id="id0000000517" >
<g opacity="0.500000" fill="red" stroke="black" stroke-width="0.500000" id="id0000000516" >
<path id="id0000000586" d="M 135.746 149.003 C 136.344 149.003 136.936 148.718 137.31 148.25 C 137.683 147.782 137.829 147.141 137.696 146.558 C 137.563 145.974 137.153 145.46 136.614 145.201 C 136.075 144.941 135.417 144.941 134.878 145.201 C 134.339 145.46 133.929 145.974 133.796 146.558 C 133.663 147.141 133.809 147.782 134.182 148.25 C 134.555 148.718 135.148 149.003 135.746 149.003 " />
</g>

</g>

<g id="id0000000519" >
<g opacity="0.500000" fill="red" stroke="black" stroke-width="0.500000" id="id0000000518" >
<path id="id0000000587" d="M 119.709 169.985 C 120.307 169.985 120.899 169.7 121.272 169.232 C 121.645 168.764 121.792 168.123 121.658 167.54 C 121.525 166.956 121.116 166.443 120.576 166.183 C 120.037 165.923 119.38 165.923 118.841 166.183 C 118.302 166.443 117.892 166.956 117.759 167.54 C 117.626 168.123 117.772 168.764 118.145 169.232 C 118.518 169.7 119.11 169.985 119.709 169.985 " />
</g>

</g>

<g id="id0000000521" >
<g opacity="0.500000" fill="red" stroke="black" stroke-width="0.500000" id="id0000000520" >
<path id="id0000000588" d="M 80.097 166.74 C 80.6954 166.74 81.2875 166.455 81.6606 165.987 C 82.0337 165.519 82.18 164.879 82.0468 164.295 C 81.9137 163.712 81.5039 163.198 80.9647 162.938 C 80.4256 162.679 79.7683 162.679 79.2292 162.938 C 78.69 163.198 78.2803 163.712 78.1471 164.295 C 78.0139 164.879 78.1602 165.519 78.5333 165.987 C 78.9064 166.455 79.4986 166.74 80.097 166.74 " />
</g>

</g>

<g id="id0000000523" >
<g opacity="0.500000" fill="red" stroke="black" stroke-width="0.500000" id="id0000000522" >
<path id="id0000000589" d="M 68.1286 147.083 C 68.727 147.083 69.3191 146.798 69.6922 146.33 C 70.0653 145.862 70.2116 145.221 70.0784 144.638 C 69.9453 144.054 69.5355 143.541 68.9963 143.281 C 68.4572 143.021 67.7999 143.021 67.2608 143.281 C 66.7217 143.541 66.3119 144.054 66.1787 144.638 C 66.0456 145.221 66.1918 145.862 66.5649 146.33 C 66.938 146.798 67.5302 147.083 68.1286 147.083 " />
</g>

</g>

<g id="id0000000525" >
<g opacity="0.500000" fill="red" stroke="black" stroke-width="0.500000" id="id0000000524" >
<path id="id0000000590" d="M 66.0717 10.1375 C 66.6701 10.1375 67.2623 9.85234 67.6354 9.38449 C 68.0085 8.91665 68.1547 8.27587 68.0216 7.69247 C 67.8884 7.10907 67.4786 6.59521 66.9395 6.33557 C 66.4003 6.07594 65.7431 6.07594 65.2039 6.33557 C 64.6648 6.59521 64.255 7.10907 64.1219 7.69247 C 63.9887 8.27587 64.135 8.91665 64.5081 9.38449 C 64.8811 9.85234 65.4733 10.1375 66.0717 10.1375 " />
</g>

</g>

<g id="id0000000527" >
<g opacity="0.500000" fill="red" stroke="black" stroke-width="0.500000" id="id0000000526" >
<path id="id0000000591" d="M 108.353 172.464 C 108.951 172.464 109.543 172.179 109.916 171.711 C 110.289 171.243 110.436 170.603 110.302 170.019 C 110.169 169.436 109.759 168.922 109.22 168.662 C 108.681 168.403 108.024 168.403 107.485 168.662 C 106.946 168.922 106.536 169.436 106.403 170.019 C 106.27 170.603 106.416 171.243 106.789 171.711 C 107.162 172.179 107.754 172.464 108.353 172.464 " />
</g>

</g>

<g id="id0000000529" >
<g opacity="0.500000" fill="red" stroke="black" stroke-width="0.500000" id="id0000000528" >
<path id="id0000000592" d="M 74.5509 158.622 C 75.1493 158.622 75.7414 158.337 76.1145 157.869 C 76.4876 157.401 76.6339 156.76 76.5007 156.177 C 76.3676 155.593 75.9578 155.079 75.4186 154.82 C 74.8795 154.56 74.2223 154.56 73.6831 154.82 C 73.144 155.079 72.7342 155.593 72.601 156.177 C 72.4679 156.76 72.6141 157.401 72.9872 157.869 C 73.3603 158.337 73.9525 158.622 74.5509 158.622 " />
</g>

</g>

<g id="id0000000531" >
<g opacity="0.500000" fill="red" stroke="black" stroke-width="0.500000" id="id0000000530" >
<path id="id0000000593" d="M 91.0112 139.249 C 91.6096 139.249 92.2018 138.964 92.5749 138.496 C 92.948 138.028 93.0942 137.388 92.9611 136.804 C 92.8279 136.221 92.4181 135.707 91.879 135.447 C 91.3398 135.188 90.6826 135.188 90.1434 135.447 C 89.6043 135.707 89.1945 136.221 89.0614 136.804 C 88.9282 137.388 89.0745 138.028 89.4476 138.496 C 89.8206 138.964 90.4128 139.249 91.0112 139.249 " />
</g>

</g>

<g id="id0000000533" >
<g opacity="0.500000" fill="red" stroke="black" stroke-width="0.500000" id="id0000000532" >
<path id="id0000000594" d="M 99.3318 97.126 C 99.9302 97.126 100.522 96.8408 100.895 96.373 C 101.269 95.9051 101.415 95.2643 101.282 94.6809 C 101.149 94.0975 100.739 93.5837 100.2 93.324 C 99.6605 93.0644 99.0032 93.0644 98.4641 93.324 C 97.9249 93.5837 97.5151 94.0975 97.382 94.6809 C 97.2488 95.2643 97.3951 95.9051 97.7682 96.373 C 98.1413 96.8408 98.7334 97.126 99.3318 97.126 " />
</g>

</g>

<g id="id0000000535" >
<g opacity="0.500000" fill="red" stroke="black" stroke-width="0.500000" id="id0000000534" >
<path id="id0000000595" d="M 102.918 162.621 C 103.517 162.621 104.109 162.336 104.482 161.868 C 104.855 161.4 105.001 160.759 104.868 160.176 C 104.735 159.593 104.325 159.079 103.786 158.819 C 103.247 158.559 102.59 158.559 102.05 158.819 C 101.511 159.079 101.102 159.593 100.968 160.176 C 100.835 160.759 100.981 161.4 101.355 161.868 C 101.728 162.336 102.32 162.621 102.918 162.621 " />
</g>

</g>

<g id="id0000000537" >
<g opacity="0.500000" fill="red" stroke="black" stroke-width="0.500000" id="id0000000536" >
<path id="id0000000596" d="M 116.369 165.737 C 116.967 165.737 117.559 165.452 117.933 164.984 C 118.306 164.517 118.452 163.876 118.319 163.292 C 118.186 162.709 117.776 162.195 117.237 161.935 C 116.698 161.676 116.04 161.676 115.501 161.935 C 114.962 162.195 114.552 162.709 114.419 163.292 C 114.286 163.876 114.432 164.517 114.805 164.984 C 115.178 165.452 115.771 165.737 116.369 165.737 " />
</g>

</g>

<g id="id0000000539" >
<g opacity="0.500000" fill="red" stroke="black" stroke-width="0.500000" id="id0000000538" >
<path id="id0000000597" d="M 60.2454 168.951 C 60.8438 168.951 61.4359 168.665 61.809 168.198 C 62.1821 167.73 62.3284 167.089 62.1952 166.506 C 62.0621 165.922 61.6523 165.408 61.1131 165.149 C 60.574 164.889 59.9167 164.889 59.3776 165.149 C 58.8384 165.408 58.4287 165.922 58.2955 166.506 C 58.1623 167.089 58.3086 167.73 58.6817 168.198 C 59.0548 168.665 59.647 168.951 60.2454 168.951 " />
</g>

</g>

<g id="id0000000541" >
<g opacity="0.500000" fill="red" stroke="black" stroke-width="0.500000" id="id0000000540" >
<path id="id0000000598" d="M 72.3145 167.269 C 72.9129 167.269 73.505 166.984 73.8781 166.516 C 74.2512 166.048 74.3975 165.407 74.2643 164.824 C 74.1312 164.24 73.7214 163.726 73.1822 163.467 C 72.6431 163.207 71.9858 163.207 71.4467 163.467 C 70.9076 163.726 70.4978 164.24 70.3646 164.824 C 70.2315 165.407 70.3777 166.048 70.7508 166.516 C 71.1239 166.984 71.7161 167.269 72.3145 167.269 " />
</g>

</g>

<g id="id0000000543" >
<g opacity="0.500000" fill="red" stroke="black" stroke-width="0.500000" id="id0000000542" >
<path id="id0000000599" d="M 82.2236 111.037 C 82.822 111.037 83.4142 110.751 83.7873 110.284 C 84.1604 109.816 84.3066 109.175 84.1735 108.592 C 84.0403 108.008 83.6305 107.494 83.0914 107.235 C 82.5522 106.975 81.895 106.975 81.3559 107.235 C 80.8167 107.494 80.4069 108.008 80.2738 108.592 C 80.1406 109.175 80.2869 109.816 80.66 110.284 C 81.0331 110.751 81.6252 111.037 82.2236 111.037 " />
</g>

</g>

<g id="id0000000545" >
<g opacity="0.500000" fill="red" stroke="black" stroke-width="0.500000" id="id0000000544" >
<path id="id0000000600" d="M 60.4026 166.793 C 61.001 166.793 61.5931 166.508 61.9662 166.04 C 62.3393 165.573 62.4856 164.932 62.3524 164.348 C 62.2193 163.765 61.8095 163.251 61.2703 162.991 C 60.7312 162.732 60.0739 162.732 59.5348 162.991 C 58.9957 163.251 58.5859 163.765 58.4527 164.348 C 58.3196 164.932 58.4658 165.573 58.8389 166.04 C 59.212 166.508 59.8042 166.793 60.4026 166.793 " />
</g>

</g>

<g id="id0000000547" >
<g opacity="0.500000" fill="red" stroke="black" stroke-width="0.500000" id="id0000000546" >
<path id="id0000000601" d="M 80.2187 157.802 C 80.8171 157.802 81.4093 157.517 81.7824 157.049 C 82.1555 156.581 82.3017 155.941 82.1686 155.357 C 82.0354 154.774 81.6256 154.26 81.0865 154 C 80.5473 153.741 79.8901 153.741 79.3509 154 C 78.8118 154.26 78.402 154.774 78.2688 155.357 C 78.1357 155.941 78.2819 156.581 78.655 157.049 C 79.0281 157.517 79.6203 157.802 80.2187 157.802 " />
</g>

</g>

<g id="id0000000549" >
<g opacity="0.500000" fill="red" stroke="black" stroke-width="0.500000" id="id0000000548" >
<path id="id0000000602" d="M 88.9165 161.397 C 89.5149 161.397 90.107 161.112 90.4801 160.644 C 90.8532 160.176 90.9995 159.536 90.8663 158.952 C 90.7332 158.369 90.3234 157.855 89.7842 157.595 C 89.2451 157.336 88.5878 157.336 88.0487 157.595 C 87.5096 157.855 87.0998 158.369 86.9666 158.952 C 86.8335 159.536 86.9797 160.176 87.3528 160.644 C 87.7259 161.112 88.3181 161.397 88.9165 161.397 " />
</g>

</g>

<g id="id0000000551" >
<g opacity="0.500000" fill="red" stroke="black" stroke-width="0.500000" id="id0000000550" >
<path id="id0000000603" d="M 120.629 163.087 C 121.227 163.087 121.819 162.801 122.192 162.334 C 122.566 161.866 122.712 161.225 122.579 160.642 C 122.445 160.058 122.036 159.544 121.497 159.285 C 120.957 159.025 120.3 159.025 119.761 159.285 C 119.222 159.544 118.812 160.058 118.679 160.642 C 118.546 161.225 118.692 161.866 119.065 162.334 C 119.438 162.801 120.03 163.087 120.629 163.087 " />
</g>

</g>

<g id="id0000000553" >
<g opacity="0.500000" fill="red" stroke="black" stroke-width="0.500000" id="id0000000552" >
<path id="id0000000604" d="M 78.4052 157.096 C 79.0036 157.096 79.5957 156.811 79.9688 156.343 C 80.3419 155.875 80.4882 155.234 80.355 154.651 C 80.2219 154.067 79.8121 153.554 79.2729 153.294 C 78.7338 153.034 78.0765 153.034 77.5374 153.294 C 76.9983 153.554 76.5885 154.067 76.4553 154.651 C 76.3221 155.234 76.4684 155.875 76.8415 156.343 C 77.2146 156.811 77.8068 157.096 78.4052 157.096 " />
</g>

</g>

</g>

</g>

<polygon points="36,1 36,178 199,178 199,1 " stroke="black" stroke-width="1.000000" fill="none" id="id0000000605" pointer-events="none" class="rectangle" />
<polyline points="49.9374,178 49.9374,181 " fill="none" stroke-width="1.000000" stroke="black" id="id0000000606" class="line" />
<text id="id0000000607" transform="matrix(1 0 0 1 36 1)" x="13.937367" y="182.000000" dominant-baseline="hanging" text-anchor="middle" font-size="14.000000px" >
0
</text>

<polyline points="78.9573,178 78.9573,181 " fill="none" stroke-width="1.000000" stroke="black" id="id0000000608" class="line" />
<text id="id0000000609" transform="matrix(1 0 0 1 36 1)" x="42.957310" y="182.000000" dominant-baseline="hanging" text-anchor="middle" font-size="14.000000px" >
1
</text>

<polyline points="107.977,178 107.977,181 " fill="none" stroke-width="1.000000" stroke="black" id="id0000000610" class="line" />
<text id="id0000000611" transform="matrix(1 0 0 1 36 1)" x="71.977257" y="182.000000" dominant-baseline="hanging" text-anchor="middle" font-size="14.000000px" >
2
</text>

<polyline points="136.997,178 136.997,181 " fill="none" stroke-width="1.000000" stroke="black" id="id0000000612" class="line" />
<text id="id0000000613" transform="matrix(1 0 0 1 36 1)" x="100.997200" y="182.000000" dominant-baseline="hanging" text-anchor="middle" font-size="14.000000px" >
3
</text>

<polyline points="166.017,178 166.017,181 " fill="none" stroke-width="1.000000" stroke="black" id="id0000000614" class="line" />
<text id="id0000000615" transform="matrix(1 0 0 1 36 1)" x="130.017151" y="182.000000" dominant-baseline="hanging" text-anchor="middle" font-size="14.000000px" >
4
</text>

<polyline points="195.037,178 195.037,181 " fill="none" stroke-width="1.000000" stroke="black" id="id0000000616" class="line" />
<text id="id0000000617" transform="matrix(1 0 0 1 36 1)" x="159.037094" y="182.000000" dominant-baseline="hanging" text-anchor="middle" font-size="14.000000px" >
5
</text>

<polyline points="33,171.629 36,171.629 " fill="none" stroke-width="1.000000" stroke="black" id="id0000000618" class="line" />
<text id="id0000000619" transform="matrix(1 0 0 1 36 1)" x="-5.000000" y="170.628937" dominant-baseline="middle" text-anchor="end" font-size="14.000000px" >
0
</text>

<polyline points="33,145.784 36,145.784 " fill="none" stroke-width="1.000000" stroke="black" id="id0000000620" class="line" />
<text id="id0000000621" transform="matrix(1 0 0 1 36 1)" x="-5.000000" y="144.784485" dominant-baseline="middle" text-anchor="end" font-size="14.000000px" >
2
</text>

<polyline points="33,119.94 36,119.94 " fill="none" stroke-width="1.000000" stroke="black" id="id0000000622" class="line" />
<text id="id0000000623" transform="matrix(1 0 0 1 36 1)" x="-5.000000" y="118.940025" dominant-baseline="middle" text-anchor="end" font-size="14.000000px" >
4
</text>

<polyline points="33,94.0956 36,94.0956 " fill="none" stroke-width="1.000000" stroke="black" id="id0000000624" class="line" />
<text id="id0000000625" transform="matrix(1 0 0 1 36 1)" x="-5.000000" y="93.095566" dominant-baseline="middle" text-anchor="end" font-size="14.000000px" >
6
</text>

<polyline points="33,68.2511 36,68.2511 " fill="none" stroke-width="1.000000" stroke="black" id="id0000000626" class="line" />
<text id="id0000000627" transform="matrix(1 0 0 1 36 1)" x="-5.000000" y="67.251122" dominant-baseline="middle" text-anchor="end" font-size="14.000000px" >
8
</text>

<polyline points="33,42.4067 36,42.4067 " fill="none" stroke-width="1.000000" stroke="black" id="id0000000628" class="line" />
<text id="id0000000629" transform="matrix(1 0 0 1 36 1)" x="-5.000000" y="41.406662" dominant-baseline="middle" text-anchor="end" font-size="14.000000px" >
10
</text>

<polyline points="33,16.5622 36,16.5622 " fill="none" stroke-width="1.000000" stroke="black" id="id0000000630" class="line" />
<text id="id0000000631" transform="matrix(1 0 0 1 36 1)" x="-5.000000" y="15.562210" dominant-baseline="middle" text-anchor="end" font-size="14.000000px" >
12
</text>


</g>

</svg>
