<svg viewBox="0 0 640 480" height="100%" width="100%" xmlns:xlink="http://www.w3.org/1999/xlink" xmlns="http://www.w3.org/2000/svg" id="id0000000187" >
<g id="id0000000188" >
<clipPath id="id0000000188clipper" >
<polygon points="36,1 36,458 639,458 639,1 " id="id0000000191" class="rectangle" />
</clipPath>

<g clip-path="url(#id0000000188clipper)" id="id0000000190" >
<g id="id0000000192" >
<g opacity="1.000000" fill="#1f77b4" stroke-width="0.000000" id="id0000000193" >
<path id="id0000000243" d="M 83.5255 432.052 C 83.6931 432.052 83.8605 432.017 84.0136 431.948 C 84.1667 431.88 84.3052 431.78 84.4173 431.655 C 84.5294 431.531 84.615 431.382 84.6668 431.223 C 84.7186 431.064 84.7365 430.893 84.7189 430.727 C 84.7014 430.56 84.6485 430.397 84.5647 430.252 C 84.481 430.107 84.3664 429.98 84.2309 429.881 C 84.0953 429.783 83.9389 429.713 83.775 429.678 C 83.6111 429.644 83.4399 429.644 83.276 429.678 C 83.1121 429.713 82.9557 429.783 82.8202 429.881 C 82.6846 429.98 82.5701 430.107 82.4863 430.252 C 82.4025 430.397 82.3496 430.56 82.3321 430.727 C 82.3146 430.893 82.3325 431.064 82.3842 431.223 C 82.436 431.382 82.5216 431.531 82.6337 431.655 C 82.7458 431.78 82.8844 431.88 83.0374 431.948 " />
</g>

<g opacity="1.000000" fill="#1f77b4" stroke-width="0.000000" id="id0000000195" >
<path id="id0000000244" d="M 190.441 414.556 C 190.609 414.556 190.776 414.52 190.929 414.452 C 191.082 414.384 191.221 414.283 191.333 414.159 C 191.445 414.034 191.53 413.886 191.582 413.727 C 191.634 413.567 191.652 413.397 191.634 413.23 C 191.617 413.064 191.564 412.901 191.48 412.756 C 191.396 412.611 191.282 412.483 191.146 412.385 C 191.011 412.286 190.854 412.217 190.69 412.182 C 190.527 412.147 190.355 412.147 190.191 412.182 C 190.028 412.217 189.871 412.286 189.736 412.385 C 189.6 412.483 189.486 412.611 189.402 412.756 C 189.318 412.901 189.265 413.064 189.248 413.23 C 189.23 413.397 189.248 413.567 189.3 413.727 C 189.351 413.886 189.437 414.034 189.549 414.159 C 189.661 414.283 189.8 414.384 189.953 414.452 " />
</g>

<g opacity="1.000000" fill="#1f77b4" stroke-width="0.000000" id="id0000000197" >
<path id="id0000000245" d="M 156.928 445.68 C 157.096 445.68 157.263 445.645 157.416 445.577 C 157.569 445.508 157.708 445.408 157.82 445.283 C 157.932 445.159 158.018 445.01 158.069 444.851 C 158.121 444.692 158.139 444.521 158.122 444.355 C 158.104 444.188 158.051 444.025 157.967 443.88 C 157.884 443.735 157.769 443.608 157.634 443.509 C 157.498 443.411 157.342 443.341 157.178 443.306 C 157.014 443.272 156.843 443.272 156.679 443.306 C 156.515 443.341 156.358 443.411 156.223 443.509 C 156.087 443.608 155.973 443.735 155.889 443.88 C 155.805 444.025 155.752 444.188 155.735 444.355 C 155.717 444.521 155.735 444.692 155.787 444.851 C 155.839 445.01 155.924 445.159 156.036 445.283 C 156.149 445.408 156.287 445.508 156.44 445.577 " />
</g>

<g opacity="1.000000" fill="#1f77b4" stroke-width="0.000000" id="id0000000199" >
<path id="id0000000246" d="M 105.536 379.012 C 105.703 379.012 105.871 378.977 106.024 378.908 C 106.177 378.84 106.315 378.74 106.427 378.615 C 106.54 378.491 106.625 378.342 106.677 378.183 C 106.729 378.024 106.747 377.853 106.729 377.687 C 106.712 377.52 106.659 377.357 106.575 377.212 C 106.491 377.067 106.377 376.94 106.241 376.841 C 106.105 376.743 105.949 376.673 105.785 376.638 C 105.621 376.604 105.45 376.604 105.286 376.638 C 105.122 376.673 104.966 376.743 104.83 376.841 C 104.695 376.94 104.58 377.067 104.496 377.212 C 104.413 377.357 104.36 377.52 104.342 377.687 C 104.325 377.853 104.343 378.024 104.394 378.183 C 104.446 378.342 104.532 378.491 104.644 378.615 C 104.756 378.74 104.894 378.84 105.048 378.908 " />
</g>

<g opacity="1.000000" fill="#1f77b4" stroke-width="0.000000" id="id0000000201" >
<path id="id0000000247" d="M 221.934 360.411 C 222.101 360.411 222.269 360.375 222.422 360.307 C 222.575 360.239 222.714 360.138 222.826 360.014 C 222.938 359.889 223.023 359.741 223.075 359.581 C 223.127 359.422 223.145 359.252 223.127 359.085 C 223.11 358.919 223.057 358.756 222.973 358.611 C 222.889 358.465 222.775 358.338 222.639 358.24 C 222.504 358.141 222.347 358.072 222.183 358.037 C 222.02 358.002 221.848 358.002 221.684 358.037 C 221.521 358.072 221.364 358.141 221.229 358.24 C 221.093 358.338 220.978 358.465 220.895 358.611 C 220.811 358.756 220.758 358.919 220.74 359.085 C 220.723 359.252 220.741 359.422 220.793 359.581 C 220.844 359.741 220.93 359.889 221.042 360.014 C 221.154 360.138 221.293 360.239 221.446 360.307 " />
</g>

<g opacity="1.000000" fill="#1f77b4" stroke-width="0.000000" id="id0000000203" >
<path id="id0000000248" d="M 114.288 413.424 C 114.455 413.424 114.623 413.389 114.776 413.321 C 114.929 413.253 115.067 413.152 115.18 413.027 C 115.292 412.903 115.377 412.755 115.429 412.595 C 115.481 412.436 115.499 412.266 115.481 412.099 C 115.464 411.932 115.411 411.77 115.327 411.624 C 115.243 411.479 115.129 411.352 114.993 411.254 C 114.858 411.155 114.701 411.086 114.537 411.051 C 114.373 411.016 114.202 411.016 114.038 411.051 C 113.874 411.086 113.718 411.155 113.582 411.254 C 113.447 411.352 113.332 411.479 113.249 411.624 C 113.165 411.77 113.112 411.932 113.094 412.099 C 113.077 412.266 113.095 412.436 113.147 412.595 C 113.198 412.755 113.284 412.903 113.396 413.027 C 113.508 413.152 113.647 413.253 113.8 413.321 " />
</g>

<g opacity="1.000000" fill="#1f77b4" stroke-width="0.000000" id="id0000000205" >
<path id="id0000000249" d="M 263.671 331.338 C 263.838 331.338 264.006 331.303 264.159 331.235 C 264.312 331.166 264.45 331.066 264.562 330.941 C 264.674 330.817 264.76 330.668 264.812 330.509 C 264.864 330.35 264.881 330.18 264.864 330.013 C 264.846 329.846 264.794 329.683 264.71 329.538 C 264.626 329.393 264.511 329.266 264.376 329.167 C 264.24 329.069 264.084 328.999 263.92 328.965 C 263.756 328.93 263.585 328.93 263.421 328.965 C 263.257 328.999 263.101 329.069 262.965 329.167 C 262.83 329.266 262.715 329.393 262.631 329.538 C 262.548 329.683 262.495 329.846 262.477 330.013 C 262.46 330.18 262.477 330.35 262.529 330.509 C 262.581 330.668 262.667 330.817 262.779 330.941 C 262.891 331.066 263.029 331.166 263.182 331.235 " />
</g>

<g opacity="1.000000" fill="#1f77b4" stroke-width="0.000000" id="id0000000207" >
<path id="id0000000250" d="M 249.636 386.192 C 249.803 386.192 249.971 386.156 250.124 386.088 C 250.277 386.02 250.415 385.919 250.528 385.795 C 250.64 385.67 250.725 385.522 250.777 385.363 C 250.829 385.203 250.847 385.033 250.829 384.867 C 250.812 384.7 250.759 384.537 250.675 384.392 C 250.591 384.247 250.477 384.12 250.341 384.021 C 250.206 383.923 250.049 383.853 249.885 383.818 C 249.721 383.783 249.55 383.783 249.386 383.818 C 249.222 383.853 249.066 383.923 248.93 384.021 C 248.795 384.12 248.68 384.247 248.597 384.392 C 248.513 384.537 248.46 384.7 248.442 384.867 C 248.425 385.033 248.443 385.203 248.494 385.363 C 248.546 385.522 248.632 385.67 248.744 385.795 C 248.856 385.919 248.995 386.02 249.148 386.088 " />
</g>

<g opacity="1.000000" fill="#1f77b4" stroke-width="0.000000" id="id0000000209" >
<path id="id0000000251" d="M 275.428 340.416 C 275.595 340.416 275.763 340.38 275.916 340.312 C 276.069 340.244 276.208 340.143 276.32 340.019 C 276.432 339.894 276.517 339.746 276.569 339.586 C 276.621 339.427 276.639 339.257 276.621 339.09 C 276.604 338.924 276.551 338.761 276.467 338.616 C 276.383 338.47 276.269 338.343 276.133 338.245 C 275.998 338.146 275.841 338.077 275.677 338.042 C 275.514 338.007 275.342 338.007 275.178 338.042 C 275.015 338.077 274.858 338.146 274.723 338.245 C 274.587 338.343 274.473 338.47 274.389 338.616 C 274.305 338.761 274.252 338.924 274.235 339.09 C 274.217 339.257 274.235 339.427 274.287 339.586 C 274.338 339.746 274.424 339.894 274.536 340.019 C 274.648 340.143 274.787 340.244 274.94 340.312 " />
</g>

<g opacity="1.000000" fill="#1f77b4" stroke-width="0.000000" id="id0000000211" >
<path id="id0000000252" d="M 266.876 314.311 C 267.043 314.311 267.211 314.275 267.364 314.207 C 267.517 314.139 267.656 314.039 267.768 313.914 C 267.88 313.789 267.965 313.641 268.017 313.482 C 268.069 313.323 268.087 313.152 268.069 312.986 C 268.052 312.819 267.999 312.656 267.915 312.511 C 267.831 312.366 267.717 312.239 267.581 312.14 C 267.446 312.042 267.289 311.972 267.125 311.937 C 266.961 311.902 266.79 311.902 266.626 311.937 C 266.462 311.972 266.306 312.042 266.171 312.14 C 266.035 312.239 265.92 312.366 265.837 312.511 C 265.753 312.656 265.7 312.819 265.682 312.986 C 265.665 313.152 265.683 313.323 265.735 313.482 C 265.786 313.641 265.872 313.789 265.984 313.914 C 266.096 314.039 266.235 314.139 266.388 314.207 " />
</g>

<g opacity="1.000000" fill="#1f77b4" stroke-width="0.000000" id="id0000000213" >
<path id="id0000000253" d="M 315.88 357.131 C 316.047 357.131 316.215 357.095 316.368 357.027 C 316.521 356.959 316.659 356.858 316.772 356.734 C 316.884 356.609 316.969 356.461 317.021 356.301 C 317.073 356.142 317.091 355.972 317.073 355.805 C 317.056 355.639 317.003 355.476 316.919 355.331 C 316.835 355.186 316.721 355.058 316.585 354.96 C 316.45 354.861 316.293 354.792 316.129 354.757 C 315.965 354.722 315.794 354.722 315.63 354.757 C 315.466 354.792 315.31 354.861 315.174 354.96 C 315.039 355.058 314.924 355.186 314.841 355.331 C 314.757 355.476 314.704 355.639 314.686 355.805 C 314.669 355.972 314.687 356.142 314.739 356.301 C 314.79 356.461 314.876 356.609 314.988 356.734 C 315.1 356.858 315.239 356.959 315.392 357.027 " />
</g>

<g opacity="1.000000" fill="#1f77b4" stroke-width="0.000000" id="id0000000215" >
<path id="id0000000254" d="M 398.47 301.047 C 398.638 301.047 398.805 301.012 398.958 300.943 C 399.112 300.875 399.25 300.775 399.362 300.65 C 399.474 300.526 399.56 300.377 399.612 300.218 C 399.663 300.059 399.681 299.888 399.664 299.722 C 399.646 299.555 399.593 299.392 399.51 299.247 C 399.426 299.102 399.311 298.975 399.176 298.876 C 399.04 298.778 398.884 298.708 398.72 298.673 C 398.556 298.639 398.385 298.639 398.221 298.673 C 398.057 298.708 397.901 298.778 397.765 298.876 C 397.629 298.975 397.515 299.102 397.431 299.247 C 397.347 299.392 397.294 299.555 397.277 299.722 C 397.259 299.888 397.277 300.059 397.329 300.218 C 397.381 300.377 397.466 300.526 397.579 300.65 C 397.691 300.775 397.829 300.875 397.982 300.943 " />
</g>

<g opacity="1.000000" fill="#1f77b4" stroke-width="0.000000" id="id0000000217" >
<path id="id0000000255" d="M 296.54 347.105 C 296.707 347.105 296.875 347.07 297.028 347.001 C 297.181 346.933 297.319 346.833 297.431 346.708 C 297.543 346.584 297.629 346.435 297.681 346.276 C 297.733 346.117 297.751 345.946 297.733 345.78 C 297.716 345.613 297.663 345.45 297.579 345.305 C 297.495 345.16 297.38 345.033 297.245 344.934 C 297.109 344.836 296.953 344.766 296.789 344.731 C 296.625 344.697 296.454 344.697 296.29 344.731 C 296.126 344.766 295.97 344.836 295.834 344.934 C 295.699 345.033 295.584 345.16 295.5 345.305 C 295.417 345.45 295.364 345.613 295.346 345.78 C 295.329 345.946 295.347 346.117 295.398 346.276 C 295.45 346.435 295.536 346.584 295.648 346.708 C 295.76 346.833 295.898 346.933 296.052 347.001 " />
</g>

<g opacity="1.000000" fill="#1f77b4" stroke-width="0.000000" id="id0000000219" >
<path id="id0000000256" d="M 339.64 345.444 C 339.808 345.444 339.975 345.409 340.128 345.34 C 340.281 345.272 340.42 345.172 340.532 345.047 C 340.644 344.923 340.73 344.774 340.781 344.615 C 340.833 344.456 340.851 344.285 340.834 344.119 C 340.816 343.952 340.763 343.789 340.679 343.644 C 340.596 343.499 340.481 343.372 340.346 343.273 C 340.21 343.175 340.054 343.105 339.89 343.07 C 339.726 343.036 339.555 343.036 339.391 343.07 C 339.227 343.105 339.07 343.175 338.935 343.273 C 338.799 343.372 338.685 343.499 338.601 343.644 C 338.517 343.789 338.464 343.952 338.447 344.119 C 338.429 344.285 338.447 344.456 338.499 344.615 C 338.551 344.774 338.636 344.923 338.748 345.047 C 338.861 345.172 338.999 345.272 339.152 345.34 " />
</g>

<g opacity="1.000000" fill="#1f77b4" stroke-width="0.000000" id="id0000000221" >
<path id="id0000000257" d="M 372.829 272.109 C 372.996 272.109 373.164 272.073 373.317 272.005 C 373.47 271.937 373.608 271.836 373.721 271.712 C 373.833 271.587 373.918 271.439 373.97 271.279 C 374.022 271.12 374.04 270.95 374.022 270.783 C 374.005 270.617 373.952 270.454 373.868 270.309 C 373.784 270.164 373.67 270.036 373.534 269.938 C 373.399 269.839 373.242 269.77 373.078 269.735 C 372.914 269.7 372.743 269.7 372.579 269.735 C 372.415 269.77 372.259 269.839 372.123 269.938 C 371.988 270.036 371.873 270.164 371.79 270.309 C 371.706 270.454 371.653 270.617 371.635 270.783 C 371.618 270.95 371.636 271.12 371.688 271.279 C 371.739 271.439 371.825 271.587 371.937 271.712 C 372.049 271.836 372.188 271.937 372.341 272.005 " />
</g>

<g opacity="1.000000" fill="#1f77b4" stroke-width="0.000000" id="id0000000223" >
<path id="id0000000258" d="M 414.451 335.213 C 414.618 335.213 414.786 335.177 414.939 335.109 C 415.092 335.041 415.23 334.94 415.342 334.816 C 415.454 334.691 415.54 334.543 415.592 334.384 C 415.644 334.224 415.661 334.054 415.644 333.887 C 415.626 333.721 415.574 333.558 415.49 333.413 C 415.406 333.268 415.291 333.14 415.156 333.042 C 415.02 332.943 414.864 332.874 414.7 332.839 C 414.536 332.804 414.365 332.804 414.201 332.839 C 414.037 332.874 413.881 332.943 413.745 333.042 C 413.61 333.14 413.495 333.268 413.411 333.413 C 413.327 333.558 413.275 333.721 413.257 333.887 C 413.24 334.054 413.257 334.224 413.309 334.384 C 413.361 334.543 413.447 334.691 413.559 334.816 C 413.671 334.94 413.809 335.041 413.962 335.109 " />
</g>

<g opacity="1.000000" fill="#1f77b4" stroke-width="0.000000" id="id0000000225" >
<path id="id0000000259" d="M 379.052 278.47 C 379.22 278.47 379.387 278.434 379.54 278.366 C 379.693 278.298 379.832 278.198 379.944 278.073 C 380.056 277.948 380.141 277.8 380.193 277.641 C 380.245 277.482 380.263 277.311 380.245 277.145 C 380.228 276.978 380.175 276.815 380.091 276.67 C 380.007 276.525 379.893 276.398 379.757 276.299 C 379.622 276.201 379.465 276.131 379.301 276.096 C 379.138 276.061 378.966 276.061 378.803 276.096 C 378.639 276.131 378.482 276.201 378.347 276.299 C 378.211 276.398 378.097 276.525 378.013 276.67 C 377.929 276.815 377.876 276.978 377.859 277.145 C 377.841 277.311 377.859 277.482 377.911 277.641 C 377.963 277.8 378.048 277.948 378.16 278.073 C 378.272 278.198 378.411 278.298 378.564 278.366 " />
</g>

<g opacity="1.000000" fill="#1f77b4" stroke-width="0.000000" id="id0000000227" >
<path id="id0000000260" d="M 390.918 324.42 C 391.085 324.42 391.253 324.384 391.406 324.316 C 391.559 324.248 391.697 324.147 391.81 324.023 C 391.922 323.898 392.007 323.75 392.059 323.59 C 392.111 323.431 392.129 323.261 392.111 323.094 C 392.094 322.928 392.041 322.765 391.957 322.62 C 391.873 322.475 391.759 322.347 391.623 322.249 C 391.488 322.15 391.331 322.081 391.167 322.046 C 391.003 322.011 390.832 322.011 390.668 322.046 C 390.504 322.081 390.348 322.15 390.212 322.249 C 390.077 322.347 389.962 322.475 389.878 322.62 C 389.795 322.765 389.742 322.928 389.724 323.094 C 389.707 323.261 389.725 323.431 389.776 323.59 C 389.828 323.75 389.914 323.898 390.026 324.023 C 390.138 324.147 390.277 324.248 390.43 324.316 " />
</g>

<g opacity="1.000000" fill="#1f77b4" stroke-width="0.000000" id="id0000000229" >
<path id="id0000000261" d="M 469.068 339.748 C 469.236 339.748 469.403 339.712 469.556 339.644 C 469.709 339.576 469.848 339.475 469.96 339.351 C 470.072 339.226 470.157 339.078 470.209 338.919 C 470.261 338.759 470.279 338.589 470.261 338.423 C 470.244 338.256 470.191 338.093 470.107 337.948 C 470.023 337.803 469.909 337.676 469.773 337.577 C 469.638 337.479 469.481 337.409 469.317 337.374 C 469.154 337.339 468.982 337.339 468.819 337.374 C 468.655 337.409 468.498 337.479 468.363 337.577 C 468.227 337.676 468.113 337.803 468.029 337.948 C 467.945 338.093 467.892 338.256 467.875 338.423 C 467.857 338.589 467.875 338.759 467.927 338.919 C 467.979 339.078 468.064 339.226 468.176 339.351 C 468.288 339.475 468.427 339.576 468.58 339.644 " />
</g>

<g opacity="1.000000" fill="#1f77b4" stroke-width="0.000000" id="id0000000231" >
<path id="id0000000262" d="M 494.433 345.512 C 494.6 345.512 494.768 345.477 494.921 345.409 C 495.074 345.34 495.212 345.24 495.324 345.115 C 495.436 344.991 495.522 344.843 495.574 344.683 C 495.626 344.524 495.644 344.354 495.626 344.187 C 495.609 344.02 495.556 343.857 495.472 343.712 C 495.388 343.567 495.273 343.44 495.138 343.342 C 495.002 343.243 494.846 343.173 494.682 343.139 C 494.518 343.104 494.347 343.104 494.183 343.139 C 494.019 343.173 493.863 343.243 493.727 343.342 C 493.592 343.44 493.477 343.567 493.393 343.712 C 493.31 343.857 493.257 344.02 493.239 344.187 C 493.222 344.354 493.24 344.524 493.291 344.683 C 493.343 344.843 493.429 344.991 493.541 345.115 C 493.653 345.24 493.791 345.34 493.945 345.409 " />
</g>

<g opacity="1.000000" fill="#1f77b4" stroke-width="0.000000" id="id0000000233" >
<path id="id0000000263" d="M 501.281 281.403 C 501.448 281.403 501.616 281.368 501.769 281.3 C 501.922 281.231 502.06 281.131 502.172 281.006 C 502.284 280.882 502.37 280.733 502.422 280.574 C 502.474 280.415 502.492 280.244 502.474 280.078 C 502.456 279.911 502.404 279.748 502.32 279.603 C 502.236 279.458 502.121 279.331 501.986 279.232 C 501.85 279.134 501.694 279.064 501.53 279.03 C 501.366 278.995 501.195 278.995 501.031 279.03 C 500.867 279.064 500.711 279.134 500.575 279.232 C 500.44 279.331 500.325 279.458 500.241 279.603 C 500.158 279.748 500.105 279.911 500.087 280.078 C 500.07 280.244 500.088 280.415 500.139 280.574 C 500.191 280.733 500.277 280.882 500.389 281.006 C 500.501 281.131 500.639 281.231 500.792 281.3 " />
</g>

<g opacity="1.000000" fill="#1f77b4" stroke-width="0.000000" id="id0000000235" >
<path id="id0000000264" d="M 594.365 223.362 C 594.532 223.362 594.7 223.326 594.853 223.258 C 595.006 223.19 595.144 223.089 595.256 222.965 C 595.369 222.84 595.454 222.692 595.506 222.532 C 595.558 222.373 595.576 222.203 595.558 222.036 C 595.541 221.87 595.488 221.707 595.404 221.562 C 595.32 221.417 595.206 221.289 595.07 221.191 C 594.934 221.092 594.778 221.023 594.614 220.988 C 594.45 220.953 594.279 220.953 594.115 220.988 C 593.951 221.023 593.795 221.092 593.659 221.191 C 593.524 221.289 593.409 221.417 593.325 221.562 C 593.242 221.707 593.189 221.87 593.171 222.036 C 593.154 222.203 593.172 222.373 593.223 222.532 C 593.275 222.692 593.361 222.84 593.473 222.965 C 593.585 223.089 593.723 223.19 593.877 223.258 " />
</g>

<g opacity="1.000000" fill="#1f77b4" stroke-width="0.000000" id="id0000000237" >
<path id="id0000000265" d="M 572.025 289.771 C 572.192 289.771 572.36 289.735 572.513 289.667 C 572.666 289.599 572.804 289.498 572.916 289.374 C 573.029 289.249 573.114 289.101 573.166 288.942 C 573.218 288.782 573.236 288.612 573.218 288.445 C 573.201 288.279 573.148 288.116 573.064 287.971 C 572.98 287.826 572.866 287.699 572.73 287.6 C 572.594 287.502 572.438 287.432 572.274 287.397 C 572.11 287.362 571.939 287.362 571.775 287.397 C 571.611 287.432 571.455 287.502 571.319 287.6 C 571.184 287.699 571.069 287.826 570.985 287.971 C 570.902 288.116 570.849 288.279 570.831 288.445 C 570.814 288.612 570.832 288.782 570.883 288.942 C 570.935 289.101 571.021 289.249 571.133 289.374 C 571.245 289.498 571.383 289.599 571.537 289.667 " />
</g>

<g opacity="1.000000" fill="#1f77b4" stroke-width="0.000000" id="id0000000239" >
<path id="id0000000266" d="M 538.085 319.636 C 538.253 319.636 538.42 319.6 538.573 319.532 C 538.726 319.464 538.865 319.363 538.977 319.239 C 539.089 319.114 539.175 318.966 539.227 318.807 C 539.278 318.647 539.296 318.477 539.279 318.31 C 539.261 318.144 539.208 317.981 539.124 317.836 C 539.041 317.691 538.926 317.563 538.791 317.465 C 538.655 317.366 538.499 317.297 538.335 317.262 C 538.171 317.227 538 317.227 537.836 317.262 C 537.672 317.297 537.515 317.366 537.38 317.465 C 537.244 317.563 537.13 317.691 537.046 317.836 C 536.962 317.981 536.909 318.144 536.892 318.31 C 536.874 318.477 536.892 318.647 536.944 318.807 C 536.996 318.966 537.081 319.114 537.193 319.239 C 537.306 319.363 537.444 319.464 537.597 319.532 " />
</g>

<g opacity="1.000000" fill="#1f77b4" stroke-width="0.000000" id="id0000000241" >
<path id="id0000000267" d="M 619.181 284.871 C 619.349 284.871 619.516 284.836 619.669 284.767 C 619.823 284.699 619.961 284.599 620.073 284.474 C 620.185 284.35 620.271 284.201 620.323 284.042 C 620.374 283.883 620.392 283.712 620.375 283.546 C 620.357 283.379 620.304 283.216 620.221 283.071 C 620.137 282.926 620.022 282.799 619.887 282.7 C 619.751 282.602 619.595 282.532 619.431 282.497 C 619.267 282.463 619.096 282.463 618.932 282.497 C 618.768 282.532 618.612 282.602 618.476 282.7 C 618.341 282.799 618.226 282.926 618.142 283.071 C 618.058 283.216 618.005 283.379 617.988 283.546 C 617.97 283.712 617.988 283.883 618.04 284.042 C 618.092 284.201 618.177 284.35 618.29 284.474 C 618.402 284.599 618.54 284.699 618.693 284.767 " />
</g>

</g>

<g id="id0000000268" >
<g opacity="1.000000" fill="#ff7f0e" stroke-width="0.000000" id="id0000000269" >
<path id="id0000000319" d="M 232.358 284.106 C 232.525 284.106 232.693 284.071 232.846 284.003 C 232.999 283.934 233.137 283.834 233.249 283.709 C 233.361 283.585 233.447 283.436 233.499 283.277 C 233.551 283.118 233.569 282.947 233.551 282.781 C 233.534 282.614 233.481 282.451 233.397 282.306 C 233.313 282.161 233.199 282.034 233.063 281.935 C 232.927 281.837 232.771 281.767 232.607 281.732 C 232.443 281.698 232.272 281.698 232.108 281.732 C 231.944 281.767 231.788 281.837 231.652 281.935 C 231.517 282.034 231.402 282.161 231.318 282.306 C 231.235 282.451 231.182 282.614 231.164 282.781 C 231.147 282.947 231.165 283.118 231.216 283.277 C 231.268 283.436 231.354 283.585 231.466 283.709 C 231.578 283.834 231.716 283.934 231.87 284.003 " />
</g>

<g opacity="1.000000" fill="#ff7f0e" stroke-width="0.000000" id="id0000000271" >
<path id="id0000000320" d="M 140.195 276.196 C 140.363 276.196 140.53 276.16 140.683 276.092 C 140.836 276.024 140.975 275.923 141.087 275.799 C 141.199 275.674 141.285 275.526 141.336 275.367 C 141.388 275.207 141.406 275.037 141.388 274.87 C 141.371 274.704 141.318 274.541 141.234 274.396 C 141.15 274.251 141.036 274.123 140.9 274.025 C 140.765 273.926 140.608 273.857 140.445 273.822 C 140.281 273.787 140.109 273.787 139.946 273.822 C 139.782 273.857 139.625 273.926 139.49 274.025 C 139.354 274.123 139.24 274.251 139.156 274.396 C 139.072 274.541 139.019 274.704 139.002 274.87 C 138.984 275.037 139.002 275.207 139.054 275.367 C 139.106 275.526 139.191 275.674 139.303 275.799 C 139.415 275.923 139.554 276.024 139.707 276.092 " />
</g>

<g opacity="1.000000" fill="#ff7f0e" stroke-width="0.000000" id="id0000000273" >
<path id="id0000000321" d="M 55.5417 189.008 C 55.7092 189.008 55.8767 188.973 56.0298 188.904 C 56.1828 188.836 56.3213 188.736 56.4335 188.611 C 56.5456 188.487 56.6312 188.338 56.683 188.179 C 56.7347 188.02 56.7526 187.849 56.7351 187.683 C 56.7176 187.516 56.6647 187.353 56.5809 187.208 C 56.4971 187.063 56.3826 186.936 56.247 186.837 C 56.1115 186.739 55.9551 186.669 55.7912 186.634 C 55.6273 186.6 55.4561 186.6 55.2922 186.634 C 55.1283 186.669 54.9719 186.739 54.8363 186.837 C 54.7008 186.936 54.5862 187.063 54.5025 187.208 C 54.4187 187.353 54.3658 187.516 54.3483 187.683 C 54.3307 187.849 54.3486 188.02 54.4004 188.179 C 54.4522 188.338 54.5378 188.487 54.6499 188.611 C 54.762 188.736 54.9005 188.836 55.0536 188.904 " />
</g>

<g opacity="1.000000" fill="#ff7f0e" stroke-width="0.000000" id="id0000000275" >
<path id="id0000000322" d="M 156.043 219.936 C 156.211 219.936 156.378 219.9 156.531 219.832 C 156.685 219.764 156.823 219.663 156.935 219.539 C 157.047 219.414 157.133 219.266 157.185 219.107 C 157.236 218.947 157.254 218.777 157.237 218.611 C 157.219 218.444 157.166 218.281 157.083 218.136 C 156.999 217.991 156.884 217.864 156.749 217.765 C 156.613 217.667 156.457 217.597 156.293 217.562 C 156.129 217.527 155.958 217.527 155.794 217.562 C 155.63 217.597 155.474 217.667 155.338 217.765 C 155.202 217.864 155.088 217.991 155.004 218.136 C 154.92 218.281 154.867 218.444 154.85 218.611 C 154.832 218.777 154.85 218.947 154.902 219.107 C 154.954 219.266 155.04 219.414 155.152 219.539 C 155.264 219.663 155.402 219.764 155.555 219.832 " />
</g>

<g opacity="1.000000" fill="#ff7f0e" stroke-width="0.000000" id="id0000000277" >
<path id="id0000000323" d="M 271.83 228.338 C 271.998 228.338 272.165 228.303 272.318 228.235 C 272.471 228.167 272.61 228.066 272.722 227.941 C 272.834 227.817 272.919 227.669 272.971 227.509 C 273.023 227.35 273.041 227.18 273.023 227.013 C 273.006 226.846 272.953 226.684 272.869 226.538 C 272.785 226.393 272.671 226.266 272.535 226.168 C 272.4 226.069 272.243 225.999 272.079 225.965 C 271.916 225.93 271.744 225.93 271.581 225.965 C 271.417 225.999 271.26 226.069 271.125 226.168 C 270.989 226.266 270.875 226.393 270.791 226.538 C 270.707 226.684 270.654 226.846 270.637 227.013 C 270.619 227.18 270.637 227.35 270.689 227.509 C 270.741 227.669 270.826 227.817 270.938 227.941 C 271.05 228.066 271.189 228.167 271.342 228.235 " />
</g>

<g opacity="1.000000" fill="#ff7f0e" stroke-width="0.000000" id="id0000000279" >
<path id="id0000000324" d="M 247.343 318.116 C 247.511 318.116 247.678 318.081 247.831 318.013 C 247.984 317.944 248.123 317.844 248.235 317.719 C 248.347 317.595 248.433 317.447 248.484 317.287 C 248.536 317.128 248.554 316.958 248.536 316.791 C 248.519 316.624 248.466 316.461 248.382 316.316 C 248.299 316.171 248.184 316.044 248.048 315.946 C 247.913 315.847 247.756 315.777 247.593 315.743 C 247.429 315.708 247.257 315.708 247.094 315.743 C 246.93 315.777 246.773 315.847 246.638 315.946 C 246.502 316.044 246.388 316.171 246.304 316.316 C 246.22 316.461 246.167 316.624 246.15 316.791 C 246.132 316.958 246.15 317.128 246.202 317.287 C 246.254 317.447 246.339 317.595 246.451 317.719 C 246.563 317.844 246.702 317.944 246.855 318.013 " />
</g>

<g opacity="1.000000" fill="#ff7f0e" stroke-width="0.000000" id="id0000000281" >
<path id="id0000000325" d="M 191.352 228.201 C 191.519 228.201 191.687 228.166 191.84 228.098 C 191.993 228.03 192.131 227.929 192.243 227.804 C 192.356 227.68 192.441 227.532 192.493 227.372 C 192.545 227.213 192.563 227.043 192.545 226.876 C 192.528 226.709 192.475 226.547 192.391 226.401 C 192.307 226.256 192.193 226.129 192.057 226.031 C 191.921 225.932 191.765 225.862 191.601 225.828 C 191.437 225.793 191.266 225.793 191.102 225.828 C 190.938 225.862 190.782 225.932 190.646 226.031 C 190.511 226.129 190.396 226.256 190.312 226.401 C 190.229 226.547 190.176 226.709 190.158 226.876 C 190.141 227.043 190.159 227.213 190.21 227.372 C 190.262 227.532 190.348 227.68 190.46 227.804 C 190.572 227.929 190.711 228.03 190.864 228.098 " />
</g>

<g opacity="1.000000" fill="#ff7f0e" stroke-width="0.000000" id="id0000000283" >
<path id="id0000000326" d="M 290.588 185.396 C 290.755 185.396 290.923 185.36 291.076 185.292 C 291.229 185.224 291.367 185.123 291.48 184.999 C 291.592 184.874 291.677 184.726 291.729 184.567 C 291.781 184.407 291.799 184.237 291.781 184.07 C 291.764 183.904 291.711 183.741 291.627 183.596 C 291.543 183.451 291.429 183.323 291.293 183.225 C 291.158 183.126 291.001 183.057 290.837 183.022 C 290.673 182.987 290.502 182.987 290.338 183.022 C 290.174 183.057 290.018 183.126 289.882 183.225 C 289.747 183.323 289.632 183.451 289.548 183.596 C 289.465 183.741 289.412 183.904 289.394 184.07 C 289.377 184.237 289.395 184.407 289.446 184.567 C 289.498 184.726 289.584 184.874 289.696 184.999 C 289.808 185.123 289.947 185.224 290.1 185.292 " />
</g>

<g opacity="1.000000" fill="#ff7f0e" stroke-width="0.000000" id="id0000000285" >
<path id="id0000000327" d="M 318.899 259.594 C 319.066 259.594 319.234 259.558 319.387 259.49 C 319.54 259.422 319.679 259.321 319.791 259.197 C 319.903 259.072 319.988 258.924 320.04 258.765 C 320.092 258.605 320.11 258.435 320.092 258.268 C 320.075 258.102 320.022 257.939 319.938 257.794 C 319.854 257.649 319.74 257.521 319.604 257.423 C 319.469 257.324 319.312 257.255 319.148 257.22 C 318.984 257.185 318.813 257.185 318.649 257.22 C 318.486 257.255 318.329 257.324 318.194 257.423 C 318.058 257.521 317.943 257.649 317.86 257.794 C 317.776 257.939 317.723 258.102 317.705 258.268 C 317.688 258.435 317.706 258.605 317.758 258.765 C 317.809 258.924 317.895 259.072 318.007 259.197 C 318.119 259.321 318.258 259.422 318.411 259.49 " />
</g>

<g opacity="1.000000" fill="#ff7f0e" stroke-width="0.000000" id="id0000000287" >
<path id="id0000000328" d="M 340.643 257.143 C 340.811 257.143 340.978 257.107 341.132 257.039 C 341.285 256.971 341.423 256.87 341.535 256.745 C 341.647 256.621 341.733 256.473 341.785 256.313 C 341.836 256.154 341.854 255.984 341.837 255.817 C 341.819 255.65 341.766 255.488 341.683 255.342 C 341.599 255.197 341.484 255.07 341.349 254.972 C 341.213 254.873 341.057 254.804 340.893 254.769 C 340.729 254.734 340.558 254.734 340.394 254.769 C 340.23 254.804 340.074 254.873 339.938 254.972 C 339.803 255.07 339.688 255.197 339.604 255.342 C 339.52 255.488 339.467 255.65 339.45 255.817 C 339.432 255.984 339.45 256.154 339.502 256.313 C 339.554 256.473 339.64 256.621 339.752 256.745 C 339.864 256.87 340.002 256.971 340.155 257.039 " />
</g>

<g opacity="1.000000" fill="#ff7f0e" stroke-width="0.000000" id="id0000000289" >
<path id="id0000000329" d="M 276.464 225.664 C 276.632 225.664 276.799 225.628 276.952 225.56 C 277.105 225.492 277.244 225.391 277.356 225.267 C 277.468 225.142 277.553 224.994 277.605 224.834 C 277.657 224.675 277.675 224.505 277.657 224.338 C 277.64 224.172 277.587 224.009 277.503 223.864 C 277.419 223.719 277.305 223.591 277.169 223.493 C 277.034 223.394 276.877 223.325 276.713 223.29 C 276.55 223.255 276.378 223.255 276.214 223.29 C 276.051 223.325 275.894 223.394 275.759 223.493 C 275.623 223.591 275.509 223.719 275.425 223.864 C 275.341 224.009 275.288 224.172 275.271 224.338 C 275.253 224.505 275.271 224.675 275.323 224.834 C 275.374 224.994 275.46 225.142 275.572 225.267 C 275.684 225.391 275.823 225.492 275.976 225.56 " />
</g>

<g opacity="1.000000" fill="#ff7f0e" stroke-width="0.000000" id="id0000000291" >
<path id="id0000000330" d="M 350.046 228.122 C 350.214 228.122 350.381 228.086 350.534 228.018 C 350.687 227.95 350.826 227.85 350.938 227.725 C 351.05 227.6 351.136 227.452 351.188 227.293 C 351.239 227.134 351.257 226.963 351.24 226.797 C 351.222 226.63 351.169 226.467 351.086 226.322 C 351.002 226.177 350.887 226.05 350.752 225.951 C 350.616 225.853 350.46 225.783 350.296 225.748 C 350.132 225.713 349.961 225.713 349.797 225.748 C 349.633 225.783 349.477 225.853 349.341 225.951 C 349.205 226.05 349.091 226.177 349.007 226.322 C 348.923 226.467 348.87 226.63 348.853 226.797 C 348.835 226.963 348.853 227.134 348.905 227.293 C 348.957 227.452 349.042 227.6 349.155 227.725 C 349.267 227.85 349.405 227.95 349.558 228.018 " />
</g>

<g opacity="1.000000" fill="#ff7f0e" stroke-width="0.000000" id="id0000000293" >
<path id="id0000000331" d="M 404.214 241.41 C 404.382 241.41 404.549 241.375 404.703 241.306 C 404.856 241.238 404.994 241.138 405.106 241.013 C 405.218 240.889 405.304 240.74 405.356 240.581 C 405.408 240.422 405.425 240.251 405.408 240.085 C 405.39 239.918 405.337 239.755 405.254 239.61 C 405.17 239.465 405.055 239.338 404.92 239.239 C 404.784 239.141 404.628 239.071 404.464 239.036 C 404.3 239.002 404.129 239.002 403.965 239.036 C 403.801 239.071 403.645 239.141 403.509 239.239 C 403.374 239.338 403.259 239.465 403.175 239.61 C 403.091 239.755 403.039 239.918 403.021 240.085 C 403.004 240.251 403.021 240.422 403.073 240.581 C 403.125 240.74 403.211 240.889 403.323 241.013 C 403.435 241.138 403.573 241.238 403.726 241.306 " />
</g>

<g opacity="1.000000" fill="#ff7f0e" stroke-width="0.000000" id="id0000000295" >
<path id="id0000000332" d="M 339.664 175.227 C 339.832 175.227 339.999 175.191 340.152 175.123 C 340.305 175.055 340.444 174.954 340.556 174.83 C 340.668 174.705 340.754 174.557 340.805 174.397 C 340.857 174.238 340.875 174.068 340.858 173.901 C 340.84 173.735 340.787 173.572 340.703 173.427 C 340.62 173.281 340.505 173.154 340.37 173.056 C 340.234 172.957 340.078 172.888 339.914 172.853 C 339.75 172.818 339.579 172.818 339.415 172.853 C 339.251 172.888 339.094 172.957 338.959 173.056 C 338.823 173.154 338.709 173.281 338.625 173.427 C 338.541 173.572 338.488 173.735 338.471 173.901 C 338.453 174.068 338.471 174.238 338.523 174.397 C 338.575 174.557 338.66 174.705 338.772 174.83 C 338.885 174.954 339.023 175.055 339.176 175.123 " />
</g>

<g opacity="1.000000" fill="#ff7f0e" stroke-width="0.000000" id="id0000000297" >
<path id="id0000000333" d="M 367.602 193.562 C 367.769 193.562 367.937 193.527 368.09 193.458 C 368.243 193.39 368.381 193.29 368.493 193.165 C 368.605 193.041 368.691 192.892 368.743 192.733 C 368.795 192.574 368.812 192.403 368.795 192.237 C 368.777 192.07 368.725 191.907 368.641 191.762 C 368.557 191.617 368.442 191.49 368.307 191.391 C 368.171 191.293 368.015 191.223 367.851 191.188 C 367.687 191.154 367.516 191.154 367.352 191.188 C 367.188 191.223 367.032 191.293 366.896 191.391 C 366.761 191.49 366.646 191.617 366.562 191.762 C 366.479 191.907 366.426 192.07 366.408 192.237 C 366.391 192.403 366.409 192.574 366.46 192.733 C 366.512 192.892 366.598 193.041 366.71 193.165 C 366.822 193.29 366.96 193.39 367.113 193.458 " />
</g>

<g opacity="1.000000" fill="#ff7f0e" stroke-width="0.000000" id="id0000000299" >
<path id="id0000000334" d="M 404.498 205.518 C 404.665 205.518 404.833 205.482 404.986 205.414 C 405.139 205.346 405.277 205.245 405.389 205.121 C 405.502 204.996 405.587 204.848 405.639 204.688 C 405.691 204.529 405.709 204.359 405.691 204.192 C 405.674 204.026 405.621 203.863 405.537 203.718 C 405.453 203.573 405.339 203.445 405.203 203.347 C 405.067 203.248 404.911 203.179 404.747 203.144 C 404.583 203.109 404.412 203.109 404.248 203.144 C 404.084 203.179 403.928 203.248 403.792 203.347 C 403.657 203.445 403.542 203.573 403.458 203.718 C 403.375 203.863 403.322 204.026 403.304 204.192 C 403.287 204.359 403.305 204.529 403.356 204.688 C 403.408 204.848 403.494 204.996 403.606 205.121 C 403.718 205.245 403.857 205.346 404.01 205.414 " />
</g>

<g opacity="1.000000" fill="#ff7f0e" stroke-width="0.000000" id="id0000000301" >
<path id="id0000000335" d="M 420.272 132.292 C 420.439 132.292 420.607 132.256 420.76 132.188 C 420.913 132.12 421.051 132.019 421.163 131.895 C 421.275 131.77 421.361 131.622 421.413 131.462 C 421.465 131.303 421.482 131.133 421.465 130.966 C 421.447 130.8 421.395 130.637 421.311 130.492 C 421.227 130.347 421.112 130.219 420.977 130.121 C 420.841 130.022 420.685 129.953 420.521 129.918 C 420.357 129.883 420.186 129.883 420.022 129.918 C 419.858 129.953 419.702 130.022 419.566 130.121 C 419.431 130.219 419.316 130.347 419.232 130.492 C 419.149 130.637 419.096 130.8 419.078 130.966 C 419.061 131.133 419.078 131.303 419.13 131.462 C 419.182 131.622 419.268 131.77 419.38 131.895 C 419.492 132.019 419.63 132.12 419.783 132.188 " />
</g>

<g opacity="1.000000" fill="#ff7f0e" stroke-width="0.000000" id="id0000000303" >
<path id="id0000000336" d="M 443.19 138.6 C 443.358 138.6 443.525 138.564 443.678 138.496 C 443.832 138.428 443.97 138.327 444.082 138.203 C 444.194 138.078 444.28 137.93 444.332 137.771 C 444.383 137.611 444.401 137.441 444.384 137.274 C 444.366 137.108 444.313 136.945 444.23 136.8 C 444.146 136.655 444.031 136.527 443.896 136.429 C 443.76 136.33 443.604 136.261 443.44 136.226 C 443.276 136.191 443.105 136.191 442.941 136.226 C 442.777 136.261 442.621 136.33 442.485 136.429 C 442.349 136.527 442.235 136.655 442.151 136.8 C 442.067 136.945 442.014 137.108 441.997 137.274 C 441.979 137.441 441.997 137.611 442.049 137.771 C 442.101 137.93 442.186 138.078 442.299 138.203 C 442.411 138.327 442.549 138.428 442.702 138.496 " />
</g>

<g opacity="1.000000" fill="#ff7f0e" stroke-width="0.000000" id="id0000000305" >
<path id="id0000000337" d="M 502.116 215.097 C 502.284 215.097 502.451 215.062 502.604 214.994 C 502.757 214.926 502.896 214.825 503.008 214.7 C 503.12 214.576 503.206 214.428 503.258 214.268 C 503.309 214.109 503.327 213.939 503.31 213.772 C 503.292 213.605 503.239 213.443 503.156 213.297 C 503.072 213.152 502.957 213.025 502.822 212.927 C 502.686 212.828 502.53 212.758 502.366 212.724 C 502.202 212.689 502.031 212.689 501.867 212.724 C 501.703 212.758 501.547 212.828 501.411 212.927 C 501.275 213.025 501.161 213.152 501.077 213.297 C 500.993 213.443 500.94 213.605 500.923 213.772 C 500.905 213.939 500.923 214.109 500.975 214.268 C 501.027 214.428 501.112 214.576 501.225 214.7 C 501.337 214.825 501.475 214.926 501.628 214.994 " />
</g>

<g opacity="1.000000" fill="#ff7f0e" stroke-width="0.000000" id="id0000000307" >
<path id="id0000000338" d="M 461.083 187.687 C 461.251 187.687 461.418 187.652 461.571 187.584 C 461.724 187.516 461.863 187.415 461.975 187.29 C 462.087 187.166 462.173 187.018 462.224 186.858 C 462.276 186.699 462.294 186.529 462.277 186.362 C 462.259 186.195 462.206 186.033 462.122 185.887 C 462.039 185.742 461.924 185.615 461.788 185.517 C 461.653 185.418 461.497 185.349 461.333 185.314 C 461.169 185.279 460.998 185.279 460.834 185.314 C 460.67 185.349 460.513 185.418 460.378 185.517 C 460.242 185.615 460.128 185.742 460.044 185.887 C 459.96 186.033 459.907 186.195 459.89 186.362 C 459.872 186.529 459.89 186.699 459.942 186.858 C 459.994 187.018 460.079 187.166 460.191 187.29 C 460.303 187.415 460.442 187.516 460.595 187.584 " />
</g>

<g opacity="1.000000" fill="#ff7f0e" stroke-width="0.000000" id="id0000000309" >
<path id="id0000000339" d="M 580.29 194.592 C 580.458 194.592 580.625 194.556 580.778 194.488 C 580.931 194.42 581.07 194.319 581.182 194.195 C 581.294 194.07 581.38 193.922 581.431 193.763 C 581.483 193.603 581.501 193.433 581.483 193.266 C 581.466 193.1 581.413 192.937 581.329 192.792 C 581.245 192.647 581.131 192.519 580.995 192.421 C 580.86 192.322 580.703 192.253 580.54 192.218 C 580.376 192.183 580.204 192.183 580.041 192.218 C 579.877 192.253 579.72 192.322 579.585 192.421 C 579.449 192.519 579.335 192.647 579.251 192.792 C 579.167 192.937 579.114 193.1 579.097 193.266 C 579.079 193.433 579.097 193.603 579.149 193.763 C 579.201 193.922 579.286 194.07 579.398 194.195 C 579.51 194.319 579.649 194.42 579.802 194.488 " />
</g>

<g opacity="1.000000" fill="#ff7f0e" stroke-width="0.000000" id="id0000000311" >
<path id="id0000000340" d="M 525.835 235.968 C 526.003 235.968 526.17 235.933 526.323 235.865 C 526.477 235.797 526.615 235.696 526.727 235.571 C 526.839 235.447 526.925 235.299 526.977 235.139 C 527.028 234.98 527.046 234.81 527.029 234.643 C 527.011 234.476 526.958 234.314 526.875 234.168 C 526.791 234.023 526.676 233.896 526.541 233.798 C 526.405 233.699 526.249 233.63 526.085 233.595 C 525.921 233.56 525.75 233.56 525.586 233.595 C 525.422 233.63 525.266 233.699 525.13 233.798 C 524.994 233.896 524.88 234.023 524.796 234.168 C 524.712 234.314 524.659 234.476 524.642 234.643 C 524.624 234.81 524.642 234.98 524.694 235.139 C 524.746 235.299 524.831 235.447 524.944 235.571 C 525.056 235.696 525.194 235.797 525.347 235.865 " />
</g>

<g opacity="1.000000" fill="#ff7f0e" stroke-width="0.000000" id="id0000000313" >
<path id="id0000000341" d="M 554.554 239.684 C 554.721 239.684 554.889 239.648 555.042 239.58 C 555.195 239.512 555.334 239.411 555.446 239.287 C 555.558 239.162 555.643 239.014 555.695 238.855 C 555.747 238.695 555.765 238.525 555.747 238.359 C 555.73 238.192 555.677 238.029 555.593 237.884 C 555.509 237.739 555.395 237.612 555.259 237.513 C 555.124 237.415 554.967 237.345 554.803 237.31 C 554.64 237.275 554.468 237.275 554.304 237.31 C 554.141 237.345 553.984 237.415 553.849 237.513 C 553.713 237.612 553.599 237.739 553.515 237.884 C 553.431 238.029 553.378 238.192 553.361 238.359 C 553.343 238.525 553.361 238.695 553.413 238.855 C 553.464 239.014 553.55 239.162 553.662 239.287 C 553.774 239.411 553.913 239.512 554.066 239.58 " />
</g>

<g opacity="1.000000" fill="#ff7f0e" stroke-width="0.000000" id="id0000000315" >
<path id="id0000000342" d="M 520.306 172.986 C 520.474 172.986 520.641 172.951 520.794 172.882 C 520.947 172.814 521.086 172.714 521.198 172.589 C 521.31 172.465 521.396 172.316 521.448 172.157 C 521.499 171.998 521.517 171.827 521.5 171.661 C 521.482 171.494 521.429 171.331 521.346 171.186 C 521.262 171.041 521.147 170.914 521.012 170.815 C 520.876 170.717 520.72 170.647 520.556 170.612 C 520.392 170.578 520.221 170.578 520.057 170.612 C 519.893 170.647 519.737 170.717 519.601 170.815 C 519.465 170.914 519.351 171.041 519.267 171.186 C 519.183 171.331 519.13 171.494 519.113 171.661 C 519.095 171.827 519.113 171.998 519.165 172.157 C 519.217 172.316 519.302 172.465 519.414 172.589 C 519.527 172.714 519.665 172.814 519.818 172.882 " />
</g>

<g opacity="1.000000" fill="#ff7f0e" stroke-width="0.000000" id="id0000000317" >
<path id="id0000000343" d="M 557.397 180.916 C 557.565 180.916 557.732 180.88 557.886 180.812 C 558.039 180.744 558.177 180.644 558.289 180.519 C 558.401 180.394 558.487 180.246 558.539 180.087 C 558.591 179.928 558.608 179.757 558.591 179.591 C 558.573 179.424 558.52 179.261 558.437 179.116 C 558.353 178.971 558.238 178.844 558.103 178.745 C 557.967 178.647 557.811 178.577 557.647 178.542 C 557.483 178.507 557.312 178.507 557.148 178.542 C 556.984 178.577 556.828 178.647 556.692 178.745 C 556.557 178.844 556.442 178.971 556.358 179.116 C 556.274 179.261 556.222 179.424 556.204 179.591 C 556.187 179.757 556.204 179.928 556.256 180.087 C 556.308 180.246 556.394 180.394 556.506 180.519 C 556.618 180.644 556.756 180.744 556.909 180.812 " />
</g>

</g>

<g id="id0000000344" >
<g opacity="1.000000" fill="#2ca02c" stroke-width="0.000000" id="id0000000345" >
<path id="id0000000395" d="M 67.0627 148.178 C 67.2302 148.178 67.3977 148.143 67.5508 148.074 C 67.7038 148.006 67.8423 147.906 67.9545 147.781 C 68.0666 147.657 68.1522 147.508 68.2039 147.349 C 68.2557 147.19 68.2736 147.019 68.2561 146.853 C 68.2386 146.686 68.1857 146.523 68.1019 146.378 C 68.0181 146.233 67.9036 146.106 67.768 146.007 C 67.6325 145.909 67.4761 145.839 67.3122 145.804 C 67.1483 145.77 66.9771 145.77 66.8132 145.804 C 66.6493 145.839 66.4929 145.909 66.3573 146.007 C 66.2218 146.106 66.1072 146.233 66.0235 146.378 C 65.9397 146.523 65.8868 146.686 65.8693 146.853 C 65.8517 147.019 65.8696 147.19 65.9214 147.349 C 65.9732 147.508 66.0588 147.657 66.1709 147.781 C 66.283 147.906 66.4215 148.006 66.5746 148.074 " />
</g>

<g opacity="1.000000" fill="#2ca02c" stroke-width="0.000000" id="id0000000347" >
<path id="id0000000396" d="M 86.7527 174.469 C 86.9203 174.469 87.0878 174.434 87.2408 174.365 C 87.3939 174.297 87.5324 174.197 87.6445 174.072 C 87.7566 173.948 87.8422 173.799 87.894 173.64 C 87.9458 173.481 87.9637 173.31 87.9462 173.144 C 87.9287 172.977 87.8758 172.814 87.792 172.669 C 87.7082 172.524 87.5936 172.397 87.4581 172.298 C 87.3225 172.2 87.1661 172.13 87.0022 172.095 C 86.8383 172.061 86.6671 172.061 86.5033 172.095 C 86.3394 172.13 86.183 172.2 86.0474 172.298 C 85.9118 172.397 85.7973 172.524 85.7135 172.669 C 85.6297 172.814 85.5768 172.977 85.5593 173.144 C 85.5418 173.31 85.5597 173.481 85.6115 173.64 C 85.6633 173.799 85.7489 173.948 85.861 174.072 C 85.9731 174.197 86.1116 174.297 86.2647 174.365 " />
</g>

<g opacity="1.000000" fill="#2ca02c" stroke-width="0.000000" id="id0000000349" >
<path id="id0000000397" d="M 135.698 148.043 C 135.865 148.043 136.033 148.008 136.186 147.94 C 136.339 147.871 136.478 147.771 136.59 147.646 C 136.702 147.522 136.787 147.373 136.839 147.214 C 136.891 147.055 136.909 146.884 136.891 146.718 C 136.874 146.551 136.821 146.388 136.737 146.243 C 136.653 146.098 136.539 145.971 136.403 145.872 C 136.268 145.774 136.111 145.704 135.947 145.669 C 135.784 145.635 135.612 145.635 135.448 145.669 C 135.285 145.704 135.128 145.774 134.993 145.872 C 134.857 145.971 134.742 146.098 134.659 146.243 C 134.575 146.388 134.522 146.551 134.504 146.718 C 134.487 146.884 134.505 147.055 134.557 147.214 C 134.608 147.373 134.694 147.522 134.806 147.646 C 134.918 147.771 135.057 147.871 135.21 147.94 " />
</g>

<g opacity="1.000000" fill="#2ca02c" stroke-width="0.000000" id="id0000000351" >
<path id="id0000000398" d="M 90.2773 76.1469 C 90.4449 76.1469 90.6124 76.1113 90.7654 76.0432 C 90.9185 75.975 91.057 75.8744 91.1691 75.7499 C 91.2812 75.6253 91.3668 75.4771 91.4186 75.3177 C 91.4704 75.1584 91.4883 74.9881 91.4708 74.8215 C 91.4533 74.6548 91.4004 74.492 91.3166 74.3469 C 91.2328 74.2018 91.1182 74.0746 90.9827 73.9761 C 90.8471 73.8776 90.6907 73.808 90.5268 73.7731 C 90.3629 73.7383 90.1917 73.7383 90.0278 73.7731 C 89.864 73.808 89.7076 73.8776 89.572 73.9761 C 89.4364 74.0746 89.3219 74.2018 89.2381 74.3469 C 89.1543 74.492 89.1014 74.6548 89.0839 74.8215 C 89.0664 74.9881 89.0843 75.1584 89.1361 75.3177 C 89.1879 75.4771 89.2735 75.6253 89.3856 75.7499 C 89.4977 75.8744 89.6362 75.975 89.7893 76.0432 " />
</g>

<g opacity="1.000000" fill="#2ca02c" stroke-width="0.000000" id="id0000000353" >
<path id="id0000000399" d="M 233.595 152.273 C 233.763 152.273 233.93 152.238 234.083 152.17 C 234.236 152.101 234.375 152.001 234.487 151.876 C 234.599 151.752 234.685 151.603 234.736 151.444 C 234.788 151.285 234.806 151.115 234.788 150.948 C 234.771 150.781 234.718 150.618 234.634 150.473 C 234.551 150.328 234.436 150.201 234.3 150.102 C 234.165 150.004 234.008 149.934 233.845 149.9 C 233.681 149.865 233.509 149.865 233.346 149.9 C 233.182 149.934 233.025 150.004 232.89 150.102 C 232.754 150.201 232.64 150.328 232.556 150.473 C 232.472 150.618 232.419 150.781 232.402 150.948 C 232.384 151.115 232.402 151.285 232.454 151.444 C 232.506 151.603 232.591 151.752 232.703 151.876 C 232.815 152.001 232.954 152.101 233.107 152.17 " />
</g>

<g opacity="1.000000" fill="#2ca02c" stroke-width="0.000000" id="id0000000355" >
<path id="id0000000400" d="M 248.789 167.651 C 248.956 167.651 249.124 167.615 249.277 167.547 C 249.43 167.479 249.568 167.378 249.68 167.254 C 249.793 167.129 249.878 166.981 249.93 166.821 C 249.982 166.662 250 166.492 249.982 166.325 C 249.965 166.158 249.912 165.996 249.828 165.851 C 249.744 165.705 249.63 165.578 249.494 165.48 C 249.358 165.381 249.202 165.312 249.038 165.277 C 248.874 165.242 248.703 165.242 248.539 165.277 C 248.375 165.312 248.219 165.381 248.083 165.48 C 247.948 165.578 247.833 165.705 247.749 165.851 C 247.666 165.996 247.613 166.158 247.595 166.325 C 247.578 166.492 247.596 166.662 247.647 166.821 C 247.699 166.981 247.785 167.129 247.897 167.254 C 248.009 167.378 248.148 167.479 248.301 167.547 " />
</g>

<g opacity="1.000000" fill="#2ca02c" stroke-width="0.000000" id="id0000000357" >
<path id="id0000000401" d="M 177.132 52.604 C 177.299 52.604 177.467 52.5684 177.62 52.5002 C 177.773 52.4321 177.911 52.3315 178.023 52.2069 C 178.135 52.0824 178.221 51.9342 178.273 51.7748 C 178.325 51.6155 178.342 51.4452 178.325 51.2786 C 178.307 51.1119 178.255 50.9491 178.171 50.804 C 178.087 50.6589 177.972 50.5317 177.837 50.4332 C 177.701 50.3347 177.545 50.265 177.381 50.2302 C 177.217 50.1954 177.046 50.1954 176.882 50.2302 C 176.718 50.265 176.562 50.3347 176.426 50.4332 C 176.291 50.5317 176.176 50.6589 176.092 50.804 C 176.009 50.9491 175.956 51.1119 175.938 51.2786 C 175.921 51.4452 175.938 51.6155 175.99 51.7748 C 176.042 51.9342 176.128 52.0824 176.24 52.2069 C 176.352 52.3315 176.49 52.4321 176.643 52.5002 " />
</g>

<g opacity="1.000000" fill="#2ca02c" stroke-width="0.000000" id="id0000000359" >
<path id="id0000000402" d="M 230.011 63.2434 C 230.178 63.2434 230.346 63.2078 230.499 63.1397 C 230.652 63.0715 230.79 62.9709 230.903 62.8464 C 231.015 62.7219 231.1 62.5736 231.152 62.4142 C 231.204 62.2549 231.222 62.0846 231.204 61.918 C 231.187 61.7514 231.134 61.5885 231.05 61.4434 C 230.966 61.2983 230.852 61.1711 230.716 61.0726 C 230.581 60.9741 230.424 60.9045 230.26 60.8696 C 230.096 60.8348 229.925 60.8348 229.761 60.8696 C 229.597 60.9045 229.441 60.9741 229.305 61.0726 C 229.17 61.1711 229.055 61.2983 228.972 61.4434 C 228.888 61.5885 228.835 61.7514 228.817 61.918 C 228.8 62.0846 228.818 62.2549 228.87 62.4142 C 228.921 62.5736 229.007 62.7219 229.119 62.8464 C 229.231 62.9709 229.37 63.0715 229.523 63.1397 " />
</g>

<g opacity="1.000000" fill="#2ca02c" stroke-width="0.000000" id="id0000000361" >
<path id="id0000000403" d="M 190.393 156.529 C 190.56 156.529 190.728 156.493 190.881 156.425 C 191.034 156.357 191.172 156.257 191.284 156.132 C 191.397 156.007 191.482 155.859 191.534 155.7 C 191.586 155.541 191.604 155.37 191.586 155.204 C 191.569 155.037 191.516 154.874 191.432 154.729 C 191.348 154.584 191.234 154.457 191.098 154.358 C 190.962 154.26 190.806 154.19 190.642 154.155 C 190.478 154.12 190.307 154.12 190.143 154.155 C 189.979 154.19 189.823 154.26 189.687 154.358 C 189.552 154.457 189.437 154.584 189.353 154.729 C 189.27 154.874 189.217 155.037 189.199 155.204 C 189.182 155.37 189.2 155.541 189.251 155.7 C 189.303 155.859 189.389 156.007 189.501 156.132 C 189.613 156.257 189.752 156.357 189.905 156.425 " />
</g>

<g opacity="1.000000" fill="#2ca02c" stroke-width="0.000000" id="id0000000363" >
<path id="id0000000404" d="M 272.042 110.765 C 272.209 110.765 272.377 110.73 272.53 110.662 C 272.683 110.594 272.821 110.493 272.934 110.368 C 273.046 110.244 273.131 110.096 273.183 109.936 C 273.235 109.777 273.253 109.607 273.235 109.44 C 273.218 109.273 273.165 109.111 273.081 108.965 C 272.997 108.82 272.883 108.693 272.747 108.595 C 272.612 108.496 272.455 108.426 272.291 108.392 C 272.127 108.357 271.956 108.357 271.792 108.392 C 271.628 108.426 271.472 108.496 271.336 108.595 C 271.201 108.693 271.086 108.82 271.003 108.965 C 270.919 109.111 270.866 109.273 270.848 109.44 C 270.831 109.607 270.849 109.777 270.901 109.936 C 270.952 110.096 271.038 110.244 271.15 110.368 C 271.262 110.493 271.401 110.594 271.554 110.662 " />
</g>

<g opacity="1.000000" fill="#2ca02c" stroke-width="0.000000" id="id0000000365" >
<path id="id0000000405" d="M 273.724 97.0452 C 273.892 97.0452 274.059 97.0097 274.213 96.9415 C 274.366 96.8734 274.504 96.7727 274.616 96.6482 C 274.728 96.5237 274.814 96.3754 274.866 96.2161 C 274.917 96.0567 274.935 95.8864 274.918 95.7198 C 274.9 95.5532 274.847 95.3904 274.764 95.2452 C 274.68 95.1001 274.565 94.9729 274.43 94.8744 C 274.294 94.7759 274.138 94.7063 273.974 94.6715 C 273.81 94.6366 273.639 94.6366 273.475 94.6715 C 273.311 94.7063 273.155 94.7759 273.019 94.8744 C 272.884 94.9729 272.769 95.1001 272.685 95.2452 C 272.601 95.3904 272.549 95.5532 272.531 95.7198 C 272.513 95.8864 272.531 96.0567 272.583 96.2161 C 272.635 96.3754 272.721 96.5237 272.833 96.6482 C 272.945 96.7727 273.083 96.8734 273.236 96.9415 " />
</g>

<g opacity="1.000000" fill="#2ca02c" stroke-width="0.000000" id="id0000000367" >
<path id="id0000000406" d="M 291.138 159.997 C 291.305 159.997 291.473 159.962 291.626 159.894 C 291.779 159.826 291.918 159.725 292.03 159.6 C 292.142 159.476 292.227 159.328 292.279 159.168 C 292.331 159.009 292.349 158.839 292.331 158.672 C 292.314 158.505 292.261 158.343 292.177 158.197 C 292.093 158.052 291.979 157.925 291.843 157.827 C 291.708 157.728 291.551 157.659 291.387 157.624 C 291.223 157.589 291.052 157.589 290.888 157.624 C 290.724 157.659 290.568 157.728 290.432 157.827 C 290.297 157.925 290.182 158.052 290.099 158.197 C 290.015 158.343 289.962 158.505 289.944 158.672 C 289.927 158.839 289.945 159.009 289.997 159.168 C 290.048 159.328 290.134 159.476 290.246 159.6 C 290.358 159.725 290.497 159.826 290.65 159.894 " />
</g>

<g opacity="1.000000" fill="#2ca02c" stroke-width="0.000000" id="id0000000369" >
<path id="id0000000407" d="M 335.772 110.061 C 335.939 110.061 336.107 110.025 336.26 109.957 C 336.413 109.889 336.551 109.788 336.663 109.663 C 336.775 109.539 336.861 109.391 336.913 109.231 C 336.965 109.072 336.983 108.902 336.965 108.735 C 336.948 108.568 336.895 108.406 336.811 108.261 C 336.727 108.115 336.612 107.988 336.477 107.89 C 336.341 107.791 336.185 107.722 336.021 107.687 C 335.857 107.652 335.686 107.652 335.522 107.687 C 335.358 107.722 335.202 107.791 335.066 107.89 C 334.931 107.988 334.816 108.115 334.732 108.261 C 334.649 108.406 334.596 108.568 334.578 108.735 C 334.561 108.902 334.579 109.072 334.63 109.231 C 334.682 109.391 334.768 109.539 334.88 109.663 C 334.992 109.788 335.13 109.889 335.284 109.957 " />
</g>

<g opacity="1.000000" fill="#2ca02c" stroke-width="0.000000" id="id0000000371" >
<path id="id0000000408" d="M 360.056 108.854 C 360.223 108.854 360.391 108.819 360.544 108.75 C 360.697 108.682 360.836 108.582 360.948 108.457 C 361.06 108.333 361.145 108.184 361.197 108.025 C 361.249 107.866 361.267 107.695 361.249 107.529 C 361.232 107.362 361.179 107.199 361.095 107.054 C 361.011 106.909 360.897 106.782 360.761 106.683 C 360.626 106.585 360.469 106.515 360.305 106.48 C 360.141 106.446 359.97 106.446 359.806 106.48 C 359.642 106.515 359.486 106.585 359.351 106.683 C 359.215 106.782 359.1 106.909 359.017 107.054 C 358.933 107.199 358.88 107.362 358.862 107.529 C 358.845 107.695 358.863 107.866 358.915 108.025 C 358.966 108.184 359.052 108.333 359.164 108.457 C 359.276 108.582 359.415 108.682 359.568 108.75 " />
</g>

<g opacity="1.000000" fill="#2ca02c" stroke-width="0.000000" id="id0000000373" >
<path id="id0000000409" d="M 383.304 73.6335 C 383.472 73.6335 383.639 73.5979 383.792 73.5298 C 383.945 73.4616 384.084 73.361 384.196 73.2365 C 384.308 73.112 384.394 72.9637 384.446 72.8044 C 384.497 72.645 384.515 72.4747 384.498 72.3081 C 384.48 72.1415 384.427 71.9786 384.344 71.8335 C 384.26 71.6884 384.145 71.5612 384.01 71.4627 C 383.874 71.3642 383.718 71.2946 383.554 71.2598 C 383.39 71.2249 383.219 71.2249 383.055 71.2598 C 382.891 71.2946 382.734 71.3642 382.599 71.4627 C 382.463 71.5612 382.349 71.6884 382.265 71.8335 C 382.181 71.9786 382.128 72.1415 382.111 72.3081 C 382.093 72.4747 382.111 72.645 382.163 72.8044 C 382.215 72.9637 382.3 73.112 382.412 73.2365 C 382.525 73.361 382.663 73.4616 382.816 73.5298 " />
</g>

<g opacity="1.000000" fill="#2ca02c" stroke-width="0.000000" id="id0000000375" >
<path id="id0000000410" d="M 371.597 116.645 C 371.765 116.645 371.932 116.61 372.085 116.542 C 372.238 116.473 372.377 116.373 372.489 116.248 C 372.601 116.124 372.687 115.976 372.738 115.816 C 372.79 115.657 372.808 115.487 372.791 115.32 C 372.773 115.153 372.72 114.99 372.636 114.845 C 372.553 114.7 372.438 114.573 372.303 114.475 C 372.167 114.376 372.011 114.306 371.847 114.272 C 371.683 114.237 371.512 114.237 371.348 114.272 C 371.184 114.306 371.027 114.376 370.892 114.475 C 370.756 114.573 370.642 114.7 370.558 114.845 C 370.474 114.99 370.421 115.153 370.404 115.32 C 370.386 115.487 370.404 115.657 370.456 115.816 C 370.508 115.976 370.593 116.124 370.705 116.248 C 370.818 116.373 370.956 116.473 371.109 116.542 " />
</g>

<g opacity="1.000000" fill="#2ca02c" stroke-width="0.000000" id="id0000000377" >
<path id="id0000000411" d="M 459.975 40.7338 C 460.142 40.7338 460.31 40.6982 460.463 40.63 C 460.616 40.5619 460.754 40.4612 460.866 40.3367 C 460.978 40.2122 461.064 40.0639 461.116 39.9046 C 461.168 39.7452 461.185 39.575 461.168 39.4083 C 461.15 39.2417 461.098 39.0789 461.014 38.9338 C 460.93 38.7886 460.815 38.6614 460.68 38.5629 C 460.544 38.4644 460.388 38.3948 460.224 38.36 C 460.06 38.3251 459.889 38.3251 459.725 38.36 C 459.561 38.3948 459.405 38.4644 459.269 38.5629 C 459.134 38.6614 459.019 38.7887 458.935 38.9338 C 458.852 39.0789 458.799 39.2417 458.781 39.4083 C 458.764 39.575 458.781 39.7452 458.833 39.9046 C 458.885 40.0639 458.971 40.2122 459.083 40.3367 C 459.195 40.4612 459.333 40.5619 459.486 40.63 " />
</g>

<g opacity="1.000000" fill="#2ca02c" stroke-width="0.000000" id="id0000000379" >
<path id="id0000000412" d="M 440.247 24.2875 C 440.414 24.2875 440.582 24.2519 440.735 24.1837 C 440.888 24.1156 441.026 24.015 441.139 23.8905 C 441.251 23.7659 441.336 23.6177 441.388 23.4583 C 441.44 23.299 441.458 23.1287 441.44 22.9621 C 441.423 22.7954 441.37 22.6326 441.286 22.4875 C 441.202 22.3424 441.088 22.2152 440.952 22.1167 C 440.817 22.0182 440.66 21.9486 440.496 21.9137 C 440.332 21.8789 440.161 21.8789 439.997 21.9137 C 439.833 21.9486 439.677 22.0182 439.541 22.1167 C 439.406 22.2152 439.291 22.3424 439.208 22.4875 C 439.124 22.6326 439.071 22.7954 439.053 22.9621 C 439.036 23.1287 439.054 23.299 439.105 23.4583 C 439.157 23.6177 439.243 23.7659 439.355 23.8905 C 439.467 24.015 439.606 24.1156 439.759 24.1837 " />
</g>

<g opacity="1.000000" fill="#2ca02c" stroke-width="0.000000" id="id0000000381" >
<path id="id0000000413" d="M 431.43 77.2106 C 431.597 77.2106 431.765 77.1751 431.918 77.1069 C 432.071 77.0388 432.209 76.9381 432.322 76.8136 C 432.434 76.6891 432.519 76.5408 432.571 76.3815 C 432.623 76.2221 432.641 76.0518 432.623 75.8852 C 432.606 75.7186 432.553 75.5558 432.469 75.4107 C 432.385 75.2655 432.271 75.1383 432.135 75.0398 C 432 74.9413 431.843 74.8717 431.679 74.8369 C 431.515 74.802 431.344 74.802 431.18 74.8369 C 431.016 74.8717 430.86 74.9413 430.724 75.0398 C 430.589 75.1383 430.474 75.2655 430.391 75.4107 C 430.307 75.5558 430.254 75.7186 430.236 75.8852 C 430.219 76.0518 430.237 76.2221 430.289 76.3815 C 430.34 76.5408 430.426 76.6891 430.538 76.8136 C 430.65 76.9381 430.789 77.0388 430.942 77.1069 " />
</g>

<g opacity="1.000000" fill="#2ca02c" stroke-width="0.000000" id="id0000000383" >
<path id="id0000000414" d="M 492.867 121.347 C 493.035 121.347 493.202 121.312 493.355 121.244 C 493.508 121.176 493.647 121.075 493.759 120.95 C 493.871 120.826 493.957 120.678 494.008 120.518 C 494.06 120.359 494.078 120.189 494.06 120.022 C 494.043 119.855 493.99 119.693 493.906 119.547 C 493.823 119.402 493.708 119.275 493.572 119.177 C 493.437 119.078 493.28 119.009 493.117 118.974 C 492.953 118.939 492.781 118.939 492.618 118.974 C 492.454 119.009 492.297 119.078 492.162 119.177 C 492.026 119.275 491.912 119.402 491.828 119.547 C 491.744 119.693 491.691 119.855 491.674 120.022 C 491.656 120.189 491.674 120.359 491.726 120.518 C 491.778 120.678 491.863 120.826 491.975 120.95 C 492.087 121.075 492.226 121.176 492.379 121.244 " />
</g>

<g opacity="1.000000" fill="#2ca02c" stroke-width="0.000000" id="id0000000385" >
<path id="id0000000415" d="M 467.587 76.9297 C 467.755 76.9297 467.922 76.8941 468.075 76.826 C 468.228 76.7578 468.367 76.6572 468.479 76.5327 C 468.591 76.4081 468.677 76.2599 468.728 76.1005 C 468.78 75.9412 468.798 75.7709 468.781 75.6043 C 468.763 75.4376 468.71 75.2748 468.626 75.1297 C 468.543 74.9846 468.428 74.8574 468.293 74.7589 C 468.157 74.6604 468.001 74.5908 467.837 74.5559 C 467.673 74.5211 467.502 74.5211 467.338 74.5559 C 467.174 74.5908 467.017 74.6604 466.882 74.7589 C 466.746 74.8574 466.632 74.9846 466.548 75.1297 C 466.464 75.2748 466.411 75.4376 466.394 75.6043 C 466.376 75.7709 466.394 75.9412 466.446 76.1005 C 466.498 76.2599 466.583 76.4081 466.695 76.5327 C 466.808 76.6572 466.946 76.7578 467.099 76.826 " />
</g>

<g opacity="1.000000" fill="#2ca02c" stroke-width="0.000000" id="id0000000387" >
<path id="id0000000416" d="M 502.546 43.0496 C 502.713 43.0496 502.881 43.014 503.034 42.9459 C 503.187 42.8777 503.325 42.7771 503.438 42.6526 C 503.55 42.5281 503.635 42.3798 503.687 42.2205 C 503.739 42.0611 503.757 41.8908 503.739 41.7242 C 503.722 41.5576 503.669 41.3947 503.585 41.2496 C 503.501 41.1045 503.387 40.9773 503.251 40.8788 C 503.116 40.7803 502.959 40.7107 502.795 40.6759 C 502.631 40.641 502.46 40.641 502.296 40.6759 C 502.132 40.7107 501.976 40.7803 501.84 40.8788 C 501.705 40.9773 501.59 41.1045 501.507 41.2496 C 501.423 41.3947 501.37 41.5576 501.352 41.7242 C 501.335 41.8908 501.353 42.0611 501.405 42.2205 C 501.456 42.3798 501.542 42.5281 501.654 42.6526 C 501.766 42.7771 501.905 42.8777 502.058 42.9459 " />
</g>

<g opacity="1.000000" fill="#2ca02c" stroke-width="0.000000" id="id0000000389" >
<path id="id0000000417" d="M 534.94 104.107 C 535.107 104.107 535.275 104.071 535.428 104.003 C 535.581 103.935 535.72 103.834 535.832 103.71 C 535.944 103.585 536.029 103.437 536.081 103.278 C 536.133 103.118 536.151 102.948 536.133 102.781 C 536.116 102.615 536.063 102.452 535.979 102.307 C 535.895 102.162 535.781 102.035 535.645 101.936 C 535.51 101.838 535.353 101.768 535.189 101.733 C 535.026 101.698 534.854 101.698 534.69 101.733 C 534.527 101.768 534.37 101.838 534.235 101.936 C 534.099 102.035 533.984 102.162 533.901 102.307 C 533.817 102.452 533.764 102.615 533.747 102.781 C 533.729 102.948 533.747 103.118 533.799 103.278 C 533.85 103.437 533.936 103.585 534.048 103.71 C 534.16 103.834 534.299 103.935 534.452 104.003 " />
</g>

<g opacity="1.000000" fill="#2ca02c" stroke-width="0.000000" id="id0000000391" >
<path id="id0000000418" d="M 578.091 33.7179 C 578.258 33.7179 578.426 33.6823 578.579 33.6141 C 578.732 33.546 578.871 33.4453 578.983 33.3208 C 579.095 33.1963 579.18 33.048 579.232 32.8887 C 579.284 32.7293 579.302 32.5591 579.284 32.3924 C 579.267 32.2258 579.214 32.063 579.13 31.9179 C 579.046 31.7727 578.932 31.6455 578.796 31.547 C 578.661 31.4485 578.504 31.3789 578.34 31.3441 C 578.177 31.3092 578.005 31.3092 577.841 31.3441 C 577.678 31.3789 577.521 31.4485 577.386 31.547 C 577.25 31.6455 577.135 31.7727 577.052 31.9179 C 576.968 32.063 576.915 32.2258 576.898 32.3924 C 576.88 32.5591 576.898 32.7293 576.95 32.8887 C 577.001 33.048 577.087 33.1963 577.199 33.3208 C 577.311 33.4453 577.45 33.546 577.603 33.6141 " />
</g>

<g opacity="1.000000" fill="#2ca02c" stroke-width="0.000000" id="id0000000393" >
<path id="id0000000419" d="M 609.013 16.3829 C 609.181 16.3829 609.348 16.3473 609.501 16.2791 C 609.654 16.211 609.793 16.1103 609.905 15.9858 C 610.017 15.8613 610.102 15.713 610.154 15.5537 C 610.206 15.3943 610.224 15.2241 610.206 15.0574 C 610.189 14.8908 610.136 14.728 610.052 14.5829 C 609.968 14.4378 609.854 14.3105 609.718 14.212 C 609.583 14.1136 609.426 14.0439 609.263 14.0091 C 609.099 13.9742 608.927 13.9742 608.763 14.0091 C 608.6 14.0439 608.443 14.1136 608.308 14.212 C 608.172 14.3105 608.058 14.4378 607.974 14.5829 C 607.89 14.728 607.837 14.8908 607.82 15.0574 C 607.802 15.2241 607.82 15.3943 607.872 15.5537 C 607.924 15.713 608.009 15.8613 608.121 15.9858 C 608.233 16.1103 608.372 16.211 608.525 16.2791 " />
</g>

</g>

</g>

<polygon points="36,1 36,458 639,458 639,1 " stroke="black" stroke-width="1.000000" fill="none" id="id0000000420" pointer-events="none" class="rectangle" />
<polyline points="44.9323,458 44.9323,461 " fill="none" stroke-width="1.000000" stroke="black" id="id0000000421" class="line" />
<text id="id0000000422" transform="matrix(1 0 0 1 36 1)" x="8.932269" y="462.000000" dominant-baseline="hanging" text-anchor="middle" font-size="14.000000px" >
-14
</text>

<polyline points="126.16,458 126.16,461 " fill="none" stroke-width="1.000000" stroke="black" id="id0000000423" class="line" />
<text id="id0000000424" transform="matrix(1 0 0 1 36 1)" x="90.159622" y="462.000000" dominant-baseline="hanging" text-anchor="middle" font-size="14.000000px" >
-12
</text>

<polyline points="207.387,458 207.387,461 " fill="none" stroke-width="1.000000" stroke="black" id="id0000000425" class="line" />
<text id="id0000000426" transform="matrix(1 0 0 1 36 1)" x="171.386978" y="462.000000" dominant-baseline="hanging" text-anchor="middle" font-size="14.000000px" >
-10
</text>

<polyline points="288.614,458 288.614,461 " fill="none" stroke-width="1.000000" stroke="black" id="id0000000427" class="line" />
<text id="id0000000428" transform="matrix(1 0 0 1 36 1)" x="252.614334" y="462.000000" dominant-baseline="hanging" text-anchor="middle" font-size="14.000000px" >
-8
</text>

<polyline points="369.842,458 369.842,461 " fill="none" stroke-width="1.000000" stroke="black" id="id0000000429" class="line" />
<text id="id0000000430" transform="matrix(1 0 0 1 36 1)" x="333.841675" y="462.000000" dominant-baseline="hanging" text-anchor="middle" font-size="14.000000px" >
-6
</text>

<polyline points="451.069,458 451.069,461 " fill="none" stroke-width="1.000000" stroke="black" id="id0000000431" class="line" />
<text id="id0000000432" transform="matrix(1 0 0 1 36 1)" x="415.069000" y="462.000000" dominant-baseline="hanging" text-anchor="middle" font-size="14.000000px" >
-4
</text>

<polyline points="532.296,458 532.296,461 " fill="none" stroke-width="1.000000" stroke="black" id="id0000000433" class="line" />
<text id="id0000000434" transform="matrix(1 0 0 1 36 1)" x="496.296356" y="462.000000" dominant-baseline="hanging" text-anchor="middle" font-size="14.000000px" >
-2
</text>

<polyline points="613.524,458 613.524,461 " fill="none" stroke-width="1.000000" stroke="black" id="id0000000435" class="line" />
<text id="id0000000436" transform="matrix(1 0 0 1 36 1)" x="577.523743" y="462.000000" dominant-baseline="hanging" text-anchor="middle" font-size="14.000000px" >
0
</text>

<polyline points="33,453.677 36,453.677 " fill="none" stroke-width="1.000000" stroke="black" id="id0000000437" class="line" />
<text id="id0000000438" transform="matrix(1 0 0 1 36 1)" x="-5.000000" y="452.677368" dominant-baseline="middle" text-anchor="end" font-size="14.000000px" >
-2
</text>

<polyline points="33,377.228 36,377.228 " fill="none" stroke-width="1.000000" stroke="black" id="id0000000439" class="line" />
<text id="id0000000440" transform="matrix(1 0 0 1 36 1)" x="-5.000000" y="376.227600" dominant-baseline="middle" text-anchor="end" font-size="14.000000px" >
0
</text>

<polyline points="33,300.778 36,300.778 " fill="none" stroke-width="1.000000" stroke="black" id="id0000000441" class="line" />
<text id="id0000000442" transform="matrix(1 0 0 1 36 1)" x="-5.000000" y="299.777863" dominant-baseline="middle" text-anchor="end" font-size="14.000000px" >
2
</text>

<polyline points="33,224.328 36,224.328 " fill="none" stroke-width="1.000000" stroke="black" id="id0000000443" class="line" />
<text id="id0000000444" transform="matrix(1 0 0 1 36 1)" x="-5.000000" y="223.328110" dominant-baseline="middle" text-anchor="end" font-size="14.000000px" >
4
</text>

<polyline points="33,147.878 36,147.878 " fill="none" stroke-width="1.000000" stroke="black" id="id0000000445" class="line" />
<text id="id0000000446" transform="matrix(1 0 0 1 36 1)" x="-5.000000" y="146.878326" dominant-baseline="middle" text-anchor="end" font-size="14.000000px" >
6
</text>

<polyline points="33,71.4286 36,71.4286 " fill="none" stroke-width="1.000000" stroke="black" id="id0000000447" class="line" />
<text id="id0000000448" transform="matrix(1 0 0 1 36 1)" x="-5.000000" y="70.428589" dominant-baseline="middle" text-anchor="end" font-size="14.000000px" >
8
</text>


</g>

</svg>
