<svg viewBox="0 0 10 25" height="100%" width="100%" xmlns:xlink="http://www.w3.org/1999/xlink" xmlns="http://www.w3.org/2000/svg" id="id0000003569" >
<g id="id0000003570" >
<clipPath id="id0000003570clipper" >
<polygon points="1,1 1,24 9,24 9,1 " id="id0000003573" class="rectangle" />
</clipPath>

<g clip-path="url(#id0000003570clipper)" id="id0000003572" >
<g id="id0000003574" >
<g opacity="1.000000" fill="rgb( 0, 255, 63 )" stroke-width="0.000000" id="id0000003575" >
<path id="id0000003581" d="M 5 20.25 C 5.27925 20.25 5.55836 20.1907 5.81347 20.0771 C 6.06858 19.9635 6.29943 19.7958 6.48629 19.5883 C 6.67315 19.3807 6.81582 19.1336 6.90211 18.868 C 6.98841 18.6024 7.01823 18.3187 6.98904 18.0409 C 6.95985 17.7632 6.87168 17.4918 6.73205 17.25 C 6.59242 17.0082 6.40149 16.7961 6.17557 16.632 C 5.94965 16.4678 5.68897 16.3518 5.41582 16.2937 C 5.14267 16.2356 4.85733 16.2356 4.58418 16.2937 C 4.31103 16.3518 4.05035 16.4678 3.82443 16.632 C 3.59851 16.7961 3.40758 17.0082 3.26795 17.25 C 3.12832 17.4918 3.04015 17.7632 3.01096 18.0409 C 2.98177 18.3187 3.01159 18.6024 3.09789 18.868 C 3.18418 19.1336 3.32685 19.3807 3.51371 19.5883 C 3.70057 19.7958 3.93142 19.9635 4.18653 20.0771 " />
</g>

<g opacity="1.000000" fill="rgb( 255, 191, 0 )" stroke-width="0.000000" id="id0000003577" >
<path id="id0000003582" d="M 5 14.5 C 5.27925 14.5 5.55836 14.4407 5.81347 14.3271 C 6.06858 14.2135 6.29943 14.0458 6.48629 13.8383 C 6.67315 13.6307 6.81582 13.3836 6.90211 13.118 C 6.98841 12.8524 7.01823 12.5687 6.98904 12.2909 C 6.95985 12.0132 6.87168 11.7418 6.73205 11.5 C 6.59242 11.2582 6.40149 11.0461 6.17557 10.882 C 5.94965 10.7178 5.68897 10.6018 5.41582 10.5437 C 5.14267 10.4856 4.85733 10.4856 4.58418 10.5437 C 4.31103 10.6018 4.05035 10.7178 3.82443 10.882 C 3.59851 11.0461 3.40758 11.2582 3.26795 11.5 C 3.12832 11.7418 3.04015 12.0132 3.01096 12.2909 C 2.98177 12.5687 3.01159 12.8524 3.09789 13.118 C 3.18418 13.3836 3.32685 13.6307 3.51371 13.8383 C 3.70057 14.0458 3.93142 14.2135 4.18653 14.3271 " />
</g>

<g opacity="1.000000" fill="rgb( 255, 63, 63 )" stroke-width="0.000000" id="id0000003579" >
<path id="id0000003583" d="M 5 8.75 C 5.27925 8.75 5.55836 8.69067 5.81347 8.57709 C 6.06858 8.46351 6.29943 8.29579 6.48629 8.08826 C 6.67315 7.88074 6.81582 7.63362 6.90211 7.36803 C 6.98841 7.10245 7.01823 6.81867 6.98904 6.54094 C 6.95985 6.26322 6.87168 5.99184 6.73205 5.75 C 6.59242 5.50816 6.40149 5.29611 6.17557 5.13197 C 5.94965 4.96783 5.68897 4.85176 5.41582 4.7937 C 5.14267 4.73564 4.85733 4.73565 4.58418 4.7937 C 4.31103 4.85176 4.05035 4.96783 3.82443 5.13197 C 3.59851 5.29611 3.40758 5.50816 3.26795 5.75 C 3.12832 5.99184 3.04015 6.26322 3.01096 6.54094 C 2.98177 6.81867 3.01159 7.10245 3.09789 7.36803 C 3.18418 7.63362 3.32685 7.88074 3.51371 8.08826 C 3.70057 8.29579 3.93142 8.46351 4.18653 8.57709 " />
</g>

</g>

</g>

<polygon points="1,1 1,24 9,24 9,1 " stroke="black" stroke-width="0.000000" fill="none" id="id0000003584" pointer-events="none" class="rectangle" />

</g>

</svg>
