<svg viewBox="0 0 640 480" height="100%" width="100%" xmlns:xlink="http://www.w3.org/1999/xlink" xmlns="http://www.w3.org/2000/svg" id="id0000000449" >
<g id="id0000000450" >
<clipPath id="id0000000450clipper" >
<polygon points="36,1 36,458 639,458 639,1 " id="id0000000453" class="rectangle" />
</clipPath>

<g clip-path="url(#id0000000450clipper)" id="id0000000452" >
<g id="id0000000454" >
<g opacity="0.500000" fill="red" stroke-width="0.000000" id="id0000000455" >
<path id="id0000000555" d="M 260.677 380.192 C 261.012 380.192 261.347 380.121 261.653 379.985 C 261.959 379.849 262.236 379.647 262.46 379.398 C 262.685 379.149 262.856 378.853 262.959 378.534 C 263.063 378.215 263.099 377.875 263.064 377.541 C 263.029 377.208 262.923 376.883 262.755 376.592 C 262.588 376.302 262.359 376.048 262.088 375.851 C 261.816 375.654 261.504 375.514 261.176 375.445 C 260.848 375.375 260.506 375.375 260.178 375.445 C 259.85 375.514 259.537 375.654 259.266 375.851 C 258.995 376.048 258.766 376.302 258.598 376.592 C 258.431 376.883 258.325 377.208 258.29 377.541 C 258.255 377.875 258.291 378.215 258.394 378.534 C 258.498 378.853 258.669 379.149 258.893 379.398 C 259.118 379.647 259.395 379.849 259.701 379.985 " />
</g>

<g opacity="0.500000" fill="red" stroke-width="0.000000" id="id0000000457" >
<path id="id0000000556" d="M 442.35 398.782 C 442.685 398.782 443.02 398.711 443.326 398.574 C 443.632 398.438 443.909 398.237 444.134 397.988 C 444.358 397.739 444.529 397.442 444.633 397.123 C 444.736 396.805 444.772 396.464 444.737 396.131 C 444.702 395.798 444.596 395.472 444.428 395.182 C 444.261 394.892 444.032 394.637 443.761 394.44 C 443.49 394.243 443.177 394.104 442.849 394.034 C 442.521 393.965 442.179 393.965 441.851 394.034 C 441.523 394.104 441.21 394.243 440.939 394.44 C 440.668 394.637 440.439 394.892 440.272 395.182 C 440.104 395.472 439.998 395.798 439.963 396.131 C 439.928 396.464 439.964 396.805 440.068 397.123 C 440.171 397.442 440.342 397.739 440.566 397.988 C 440.791 398.237 441.068 398.438 441.374 398.574 " />
</g>

<g opacity="0.500000" fill="red" stroke-width="0.000000" id="id0000000459" >
<path id="id0000000557" d="M 198.755 354.723 C 199.09 354.723 199.425 354.652 199.731 354.516 C 200.037 354.379 200.314 354.178 200.538 353.929 C 200.763 353.68 200.934 353.383 201.037 353.065 C 201.141 352.746 201.177 352.405 201.142 352.072 C 201.107 351.739 201.001 351.413 200.833 351.123 C 200.666 350.833 200.437 350.578 200.166 350.381 C 199.895 350.184 199.582 350.045 199.254 349.976 C 198.926 349.906 198.584 349.906 198.256 349.976 C 197.928 350.045 197.615 350.184 197.344 350.381 C 197.073 350.578 196.844 350.833 196.676 351.123 C 196.509 351.413 196.403 351.739 196.368 352.072 C 196.333 352.405 196.369 352.746 196.472 353.065 C 196.576 353.383 196.747 353.68 196.971 353.929 C 197.196 354.178 197.473 354.379 197.779 354.516 " />
</g>

<g opacity="0.500000" fill="red" stroke-width="0.000000" id="id0000000461" >
<path id="id0000000558" d="M 115.422 409.91 C 115.757 409.91 116.092 409.839 116.398 409.702 C 116.704 409.566 116.981 409.365 117.206 409.116 C 117.43 408.867 117.601 408.57 117.705 408.251 C 117.808 407.933 117.844 407.592 117.809 407.259 C 117.774 406.926 117.668 406.6 117.5 406.31 C 117.333 406.02 117.104 405.765 116.833 405.568 C 116.562 405.371 116.249 405.232 115.921 405.162 C 115.593 405.093 115.251 405.093 114.923 405.162 C 114.595 405.232 114.282 405.371 114.011 405.568 C 113.74 405.765 113.511 406.02 113.344 406.31 C 113.176 406.6 113.07 406.926 113.035 407.259 C 113 407.592 113.036 407.933 113.139 408.251 C 113.243 408.57 113.414 408.867 113.638 409.116 C 113.863 409.365 114.14 409.566 114.446 409.702 " />
</g>

<g opacity="0.500000" fill="red" stroke-width="0.000000" id="id0000000463" >
<path id="id0000000559" d="M 99.268 384.034 C 99.6031 384.034 99.938 383.963 100.244 383.827 C 100.55 383.69 100.827 383.489 101.052 383.24 C 101.276 382.991 101.447 382.694 101.551 382.376 C 101.654 382.057 101.69 381.717 101.655 381.383 C 101.62 381.05 101.514 380.724 101.346 380.434 C 101.179 380.144 100.95 379.889 100.679 379.692 C 100.408 379.496 100.095 379.356 99.767 379.287 C 99.4392 379.217 99.0968 379.217 98.769 379.287 C 98.4412 379.356 98.1284 379.496 97.8573 379.692 C 97.5862 379.889 97.3571 380.144 97.1896 380.434 C 97.022 380.724 96.9162 381.05 96.8812 381.383 C 96.8461 381.717 96.8819 382.057 96.9855 382.376 C 97.089 382.694 97.2602 382.991 97.4845 383.24 C 97.7087 383.489 97.9857 383.69 98.2918 383.827 " />
</g>

<g opacity="0.500000" fill="red" stroke-width="0.000000" id="id0000000465" >
<path id="id0000000560" d="M 123.753 417.401 C 124.088 417.401 124.423 417.33 124.729 417.193 C 125.035 417.057 125.312 416.856 125.536 416.607 C 125.76 416.358 125.932 416.061 126.035 415.743 C 126.139 415.424 126.175 415.083 126.14 414.75 C 126.105 414.417 125.999 414.091 125.831 413.801 C 125.664 413.511 125.435 413.256 125.163 413.059 C 124.892 412.862 124.579 412.723 124.252 412.653 C 123.924 412.584 123.582 412.584 123.254 412.653 C 122.926 412.723 122.613 412.862 122.342 413.059 C 122.071 413.256 121.842 413.511 121.674 413.801 C 121.507 414.091 121.401 414.417 121.366 414.75 C 121.331 415.083 121.367 415.424 121.47 415.743 C 121.574 416.061 121.745 416.358 121.969 416.607 C 122.193 416.856 122.47 417.057 122.777 417.193 " />
</g>

<g opacity="0.500000" fill="red" stroke-width="0.000000" id="id0000000467" >
<path id="id0000000561" d="M 575.732 424.486 C 576.067 424.486 576.402 424.415 576.708 424.278 C 577.014 424.142 577.291 423.941 577.516 423.692 C 577.74 423.443 577.911 423.146 578.015 422.828 C 578.118 422.509 578.154 422.168 578.119 421.835 C 578.084 421.502 577.978 421.176 577.81 420.886 C 577.643 420.596 577.414 420.341 577.143 420.144 C 576.872 419.947 576.559 419.808 576.231 419.738 C 575.903 419.669 575.561 419.669 575.233 419.738 C 574.905 419.808 574.592 419.947 574.321 420.144 C 574.05 420.341 573.821 420.596 573.654 420.886 C 573.486 421.176 573.38 421.502 573.345 421.835 C 573.31 422.168 573.346 422.509 573.449 422.828 C 573.553 423.146 573.724 423.443 573.948 423.692 C 574.173 423.941 574.45 424.142 574.756 424.278 " />
</g>

<g opacity="0.500000" fill="red" stroke-width="0.000000" id="id0000000469" >
<path id="id0000000562" d="M 161.666 352.922 C 162.002 352.922 162.336 352.851 162.643 352.715 C 162.949 352.578 163.226 352.377 163.45 352.128 C 163.674 351.879 163.845 351.582 163.949 351.264 C 164.053 350.945 164.088 350.604 164.053 350.271 C 164.018 349.938 163.912 349.612 163.745 349.322 C 163.577 349.032 163.348 348.777 163.077 348.58 C 162.806 348.383 162.493 348.244 162.165 348.174 C 161.838 348.105 161.495 348.105 161.167 348.174 C 160.84 348.244 160.527 348.383 160.256 348.58 C 159.985 348.777 159.756 349.032 159.588 349.322 C 159.42 349.612 159.315 349.938 159.28 350.271 C 159.245 350.604 159.28 350.945 159.384 351.264 C 159.487 351.582 159.659 351.879 159.883 352.128 C 160.107 352.377 160.384 352.578 160.69 352.715 " />
</g>

<g opacity="0.500000" fill="red" stroke-width="0.000000" id="id0000000471" >
<path id="id0000000563" d="M 129.224 402.578 C 129.559 402.578 129.894 402.507 130.2 402.371 C 130.506 402.234 130.783 402.033 131.007 401.784 C 131.231 401.535 131.403 401.239 131.506 400.92 C 131.61 400.601 131.645 400.261 131.61 399.927 C 131.575 399.594 131.47 399.268 131.302 398.978 C 131.135 398.688 130.905 398.434 130.634 398.237 C 130.363 398.04 130.05 397.9 129.723 397.831 C 129.395 397.761 129.052 397.761 128.725 397.831 C 128.397 397.9 128.084 398.04 127.813 398.237 C 127.542 398.434 127.313 398.688 127.145 398.978 C 126.978 399.268 126.872 399.594 126.837 399.927 C 126.802 400.261 126.838 400.601 126.941 400.92 C 127.045 401.239 127.216 401.535 127.44 401.784 C 127.664 402.033 127.941 402.234 128.247 402.371 " />
</g>

<g opacity="0.500000" fill="red" stroke-width="0.000000" id="id0000000473" >
<path id="id0000000564" d="M 158.578 352.845 C 158.913 352.845 159.248 352.774 159.554 352.638 C 159.861 352.501 160.138 352.3 160.362 352.051 C 160.586 351.802 160.757 351.505 160.861 351.187 C 160.964 350.868 161 350.527 160.965 350.194 C 160.93 349.861 160.824 349.535 160.657 349.245 C 160.489 348.955 160.26 348.7 159.989 348.503 C 159.718 348.306 159.405 348.167 159.077 348.097 C 158.749 348.028 158.407 348.028 158.079 348.097 C 157.752 348.167 157.439 348.306 157.168 348.503 C 156.896 348.7 156.667 348.955 156.5 349.245 C 156.332 349.535 156.226 349.861 156.191 350.194 C 156.156 350.527 156.192 350.868 156.296 351.187 C 156.399 351.505 156.57 351.802 156.795 352.051 C 157.019 352.3 157.296 352.501 157.602 352.638 " />
</g>

<g opacity="0.500000" fill="red" stroke-width="0.000000" id="id0000000475" >
<path id="id0000000565" d="M 290.146 417.026 C 290.481 417.026 290.816 416.955 291.122 416.819 C 291.428 416.682 291.705 416.481 291.929 416.232 C 292.154 415.983 292.325 415.686 292.428 415.368 C 292.532 415.049 292.568 414.708 292.533 414.375 C 292.498 414.042 292.392 413.716 292.224 413.426 C 292.057 413.136 291.828 412.881 291.557 412.684 C 291.285 412.487 290.973 412.348 290.645 412.278 C 290.317 412.209 289.975 412.209 289.647 412.278 C 289.319 412.348 289.006 412.487 288.735 412.684 C 288.464 412.881 288.235 413.136 288.067 413.426 C 287.9 413.716 287.794 414.042 287.759 414.375 C 287.724 414.708 287.76 415.049 287.863 415.368 C 287.967 415.686 288.138 415.983 288.362 416.232 C 288.587 416.481 288.864 416.682 289.17 416.819 " />
</g>

<g opacity="0.500000" fill="red" stroke-width="0.000000" id="id0000000477" >
<path id="id0000000566" d="M 171.718 430.314 C 172.054 430.314 172.388 430.243 172.695 430.106 C 173.001 429.97 173.278 429.769 173.502 429.52 C 173.726 429.271 173.897 428.974 174.001 428.655 C 174.105 428.337 174.14 427.996 174.105 427.663 C 174.07 427.33 173.964 427.004 173.797 426.714 C 173.629 426.424 173.4 426.169 173.129 425.972 C 172.858 425.775 172.545 425.636 172.217 425.566 C 171.89 425.497 171.547 425.497 171.219 425.566 C 170.892 425.636 170.579 425.775 170.308 425.972 C 170.037 426.169 169.808 426.424 169.64 426.714 C 169.472 427.004 169.367 427.33 169.332 427.663 C 169.297 427.996 169.332 428.337 169.436 428.655 C 169.539 428.974 169.711 429.271 169.935 429.52 C 170.159 429.769 170.436 429.97 170.742 430.106 " />
</g>

<g opacity="0.500000" fill="red" stroke-width="0.000000" id="id0000000479" >
<path id="id0000000567" d="M 125.235 387.595 C 125.57 387.595 125.905 387.524 126.211 387.388 C 126.517 387.251 126.794 387.05 127.018 386.801 C 127.242 386.552 127.413 386.255 127.517 385.937 C 127.621 385.618 127.656 385.277 127.621 384.944 C 127.586 384.611 127.481 384.285 127.313 383.995 C 127.145 383.705 126.916 383.45 126.645 383.253 C 126.374 383.056 126.061 382.917 125.733 382.848 C 125.406 382.778 125.063 382.778 124.736 382.848 C 124.408 382.917 124.095 383.056 123.824 383.253 C 123.553 383.45 123.324 383.705 123.156 383.995 C 122.988 384.285 122.883 384.611 122.848 384.944 C 122.813 385.277 122.848 385.618 122.952 385.937 C 123.056 386.255 123.227 386.552 123.451 386.801 C 123.675 387.05 123.952 387.251 124.258 387.388 " />
</g>

<g opacity="0.500000" fill="red" stroke-width="0.000000" id="id0000000481" >
<path id="id0000000568" d="M 250.499 348.141 C 250.834 348.141 251.169 348.07 251.475 347.933 C 251.781 347.797 252.058 347.596 252.282 347.347 C 252.507 347.098 252.678 346.801 252.781 346.483 C 252.885 346.164 252.921 345.823 252.886 345.49 C 252.851 345.157 252.745 344.831 252.577 344.541 C 252.41 344.251 252.181 343.996 251.91 343.799 C 251.639 343.602 251.326 343.463 250.998 343.393 C 250.67 343.324 250.328 343.324 250 343.393 C 249.672 343.463 249.359 343.602 249.088 343.799 C 248.817 343.996 248.588 344.251 248.42 344.541 C 248.253 344.831 248.147 345.157 248.112 345.49 C 248.077 345.823 248.113 346.164 248.216 346.483 C 248.32 346.801 248.491 347.098 248.715 347.347 C 248.94 347.596 249.217 347.797 249.523 347.933 " />
</g>

<g opacity="0.500000" fill="red" stroke-width="0.000000" id="id0000000483" >
<path id="id0000000569" d="M 139.845 385.672 C 140.18 385.672 140.515 385.6 140.821 385.464 C 141.127 385.328 141.404 385.127 141.628 384.878 C 141.853 384.629 142.024 384.332 142.127 384.013 C 142.231 383.695 142.267 383.354 142.232 383.021 C 142.197 382.688 142.091 382.362 141.923 382.072 C 141.756 381.781 141.527 381.527 141.256 381.33 C 140.984 381.133 140.672 380.994 140.344 380.924 C 140.016 380.854 139.674 380.854 139.346 380.924 C 139.018 380.994 138.705 381.133 138.434 381.33 C 138.163 381.527 137.934 381.781 137.766 382.072 C 137.599 382.362 137.493 382.688 137.458 383.021 C 137.423 383.354 137.459 383.695 137.562 384.013 C 137.666 384.332 137.837 384.629 138.061 384.878 C 138.286 385.127 138.563 385.328 138.869 385.464 " />
</g>

<g opacity="0.500000" fill="red" stroke-width="0.000000" id="id0000000485" >
<path id="id0000000570" d="M 179.153 430.736 C 179.488 430.736 179.823 430.665 180.129 430.528 C 180.435 430.392 180.712 430.191 180.936 429.942 C 181.161 429.693 181.332 429.396 181.435 429.078 C 181.539 428.759 181.575 428.418 181.54 428.085 C 181.505 427.752 181.399 427.426 181.231 427.136 C 181.064 426.846 180.835 426.591 180.563 426.394 C 180.292 426.197 179.98 426.058 179.652 425.988 C 179.324 425.919 178.982 425.919 178.654 425.988 C 178.326 426.058 178.013 426.197 177.742 426.394 C 177.471 426.591 177.242 426.846 177.074 427.136 C 176.907 427.426 176.801 427.752 176.766 428.085 C 176.731 428.418 176.767 428.759 176.87 429.078 C 176.974 429.396 177.145 429.693 177.369 429.942 C 177.593 430.191 177.87 430.392 178.177 430.528 " />
</g>

<g opacity="0.500000" fill="red" stroke-width="0.000000" id="id0000000487" >
<path id="id0000000571" d="M 537.5 401.638 C 537.836 401.638 538.17 401.567 538.477 401.43 C 538.783 401.294 539.06 401.093 539.284 400.844 C 539.508 400.595 539.679 400.298 539.783 399.98 C 539.887 399.661 539.922 399.32 539.887 398.987 C 539.852 398.654 539.746 398.328 539.579 398.038 C 539.411 397.748 539.182 397.493 538.911 397.296 C 538.64 397.099 538.327 396.96 537.999 396.89 C 537.672 396.821 537.329 396.821 537.001 396.89 C 536.674 396.96 536.361 397.099 536.09 397.296 C 535.819 397.493 535.59 397.748 535.422 398.038 C 535.254 398.328 535.149 398.654 535.114 398.987 C 535.079 399.32 535.114 399.661 535.218 399.98 C 535.321 400.298 535.493 400.595 535.717 400.844 C 535.941 401.093 536.218 401.294 536.524 401.43 " />
</g>

<g opacity="0.500000" fill="red" stroke-width="0.000000" id="id0000000489" >
<path id="id0000000572" d="M 124.877 426.08 C 125.212 426.08 125.547 426.009 125.853 425.873 C 126.159 425.737 126.436 425.535 126.66 425.286 C 126.885 425.037 127.056 424.741 127.159 424.422 C 127.263 424.103 127.299 423.763 127.264 423.43 C 127.229 423.096 127.123 422.771 126.955 422.48 C 126.788 422.19 126.559 421.936 126.288 421.739 C 126.017 421.542 125.704 421.402 125.376 421.333 C 125.048 421.263 124.706 421.263 124.378 421.333 C 124.05 421.402 123.737 421.542 123.466 421.739 C 123.195 421.936 122.966 422.19 122.798 422.48 C 122.631 422.771 122.525 423.096 122.49 423.43 C 122.455 423.763 122.491 424.103 122.594 424.422 C 122.698 424.741 122.869 425.037 123.093 425.286 C 123.318 425.535 123.595 425.737 123.901 425.873 " />
</g>

<g opacity="0.500000" fill="red" stroke-width="0.000000" id="id0000000491" >
<path id="id0000000573" d="M 225.017 419.778 C 225.352 419.778 225.687 419.707 225.993 419.571 C 226.299 419.435 226.576 419.233 226.801 418.984 C 227.025 418.735 227.196 418.439 227.3 418.12 C 227.403 417.801 227.439 417.461 227.404 417.127 C 227.369 416.794 227.263 416.469 227.095 416.178 C 226.928 415.888 226.699 415.634 226.428 415.437 C 226.157 415.24 225.844 415.1 225.516 415.031 C 225.188 414.961 224.846 414.961 224.518 415.031 C 224.19 415.1 223.877 415.24 223.606 415.437 C 223.335 415.634 223.106 415.888 222.939 416.178 C 222.771 416.469 222.665 416.794 222.63 417.127 C 222.595 417.461 222.631 417.801 222.734 418.12 C 222.838 418.439 223.009 418.735 223.233 418.984 C 223.458 419.233 223.735 419.435 224.041 419.571 " />
</g>

<g opacity="0.500000" fill="red" stroke-width="0.000000" id="id0000000493" >
<path id="id0000000574" d="M 199.286 260.192 C 199.621 260.192 199.956 260.12 200.262 259.984 C 200.569 259.848 200.846 259.647 201.07 259.398 C 201.294 259.149 201.465 258.852 201.569 258.533 C 201.672 258.215 201.708 257.874 201.673 257.541 C 201.638 257.208 201.532 256.882 201.365 256.592 C 201.197 256.301 200.968 256.047 200.697 255.85 C 200.426 255.653 200.113 255.514 199.785 255.444 C 199.457 255.374 199.115 255.374 198.787 255.444 C 198.46 255.514 198.147 255.653 197.876 255.85 C 197.604 256.047 197.375 256.301 197.208 256.592 C 197.04 256.882 196.934 257.208 196.899 257.541 C 196.864 257.874 196.9 258.215 197.004 258.533 C 197.107 258.852 197.279 259.149 197.503 259.398 C 197.727 259.647 198.004 259.848 198.31 259.984 " />
</g>

<g opacity="0.500000" fill="red" stroke-width="0.000000" id="id0000000495" >
<path id="id0000000575" d="M 106.916 434.039 C 107.251 434.039 107.586 433.967 107.892 433.831 C 108.198 433.695 108.475 433.494 108.699 433.245 C 108.923 432.995 109.095 432.699 109.198 432.38 C 109.302 432.062 109.337 431.721 109.302 431.388 C 109.267 431.054 109.162 430.729 108.994 430.439 C 108.826 430.148 108.597 429.894 108.326 429.697 C 108.055 429.5 107.742 429.361 107.415 429.291 C 107.087 429.221 106.744 429.221 106.417 429.291 C 106.089 429.361 105.776 429.5 105.505 429.697 C 105.234 429.894 105.005 430.148 104.837 430.439 C 104.67 430.729 104.564 431.054 104.529 431.388 C 104.494 431.721 104.529 432.062 104.633 432.38 C 104.737 432.699 104.908 432.995 105.132 433.245 C 105.356 433.494 105.633 433.695 105.939 433.831 " />
</g>

<g opacity="0.500000" fill="red" stroke-width="0.000000" id="id0000000497" >
<path id="id0000000576" d="M 115.081 433.14 C 115.416 433.14 115.751 433.069 116.057 432.933 C 116.363 432.797 116.64 432.595 116.864 432.346 C 117.088 432.097 117.26 431.801 117.363 431.482 C 117.467 431.163 117.503 430.823 117.468 430.49 C 117.432 430.156 117.327 429.831 117.159 429.54 C 116.992 429.25 116.762 428.996 116.491 428.799 C 116.22 428.602 115.907 428.463 115.58 428.393 C 115.252 428.323 114.909 428.323 114.582 428.393 C 114.254 428.463 113.941 428.602 113.67 428.799 C 113.399 428.996 113.17 429.25 113.002 429.54 C 112.835 429.831 112.729 430.156 112.694 430.49 C 112.659 430.823 112.695 431.163 112.798 431.482 C 112.902 431.801 113.073 432.097 113.297 432.346 C 113.521 432.595 113.798 432.797 114.104 432.933 " />
</g>

<g opacity="0.500000" fill="red" stroke-width="0.000000" id="id0000000499" >
<path id="id0000000577" d="M 140.099 441.972 C 140.434 441.972 140.769 441.9 141.075 441.764 C 141.381 441.628 141.658 441.427 141.882 441.177 C 142.107 440.928 142.278 440.632 142.381 440.313 C 142.485 439.995 142.521 439.654 142.486 439.321 C 142.451 438.987 142.345 438.662 142.177 438.372 C 142.01 438.081 141.781 437.827 141.509 437.63 C 141.238 437.433 140.926 437.294 140.598 437.224 C 140.27 437.154 139.928 437.154 139.6 437.224 C 139.272 437.294 138.959 437.433 138.688 437.63 C 138.417 437.827 138.188 438.081 138.02 438.372 C 137.853 438.662 137.747 438.987 137.712 439.321 C 137.677 439.654 137.713 439.995 137.816 440.313 C 137.92 440.632 138.091 440.928 138.315 441.177 C 138.539 441.427 138.816 441.628 139.123 441.764 " />
</g>

<g opacity="0.500000" fill="red" stroke-width="0.000000" id="id0000000501" >
<path id="id0000000578" d="M 445.157 342.379 C 445.492 342.379 445.827 342.308 446.133 342.171 C 446.44 342.035 446.717 341.834 446.941 341.585 C 447.165 341.336 447.336 341.039 447.44 340.721 C 447.543 340.402 447.579 340.061 447.544 339.728 C 447.509 339.395 447.403 339.069 447.236 338.779 C 447.068 338.489 446.839 338.234 446.568 338.037 C 446.297 337.84 445.984 337.701 445.656 337.631 C 445.328 337.562 444.986 337.562 444.658 337.631 C 444.33 337.701 444.018 337.84 443.747 338.037 C 443.475 338.234 443.246 338.489 443.079 338.779 C 442.911 339.069 442.805 339.395 442.77 339.728 C 442.735 340.061 442.771 340.402 442.875 340.721 C 442.978 341.039 443.149 341.336 443.374 341.585 C 443.598 341.834 443.875 342.035 444.181 342.171 " />
</g>

<g opacity="0.500000" fill="red" stroke-width="0.000000" id="id0000000503" >
<path id="id0000000579" d="M 140.232 268.762 C 140.567 268.762 140.902 268.691 141.208 268.554 C 141.514 268.418 141.791 268.217 142.015 267.968 C 142.24 267.719 142.411 267.422 142.514 267.104 C 142.618 266.785 142.654 266.444 142.619 266.111 C 142.584 265.778 142.478 265.452 142.31 265.162 C 142.143 264.872 141.914 264.617 141.643 264.42 C 141.371 264.223 141.059 264.084 140.731 264.014 C 140.403 263.945 140.061 263.945 139.733 264.014 C 139.405 264.084 139.092 264.223 138.821 264.42 C 138.55 264.617 138.321 264.872 138.153 265.162 C 137.986 265.452 137.88 265.778 137.845 266.111 C 137.81 266.444 137.846 266.785 137.949 267.104 C 138.053 267.422 138.224 267.719 138.448 267.968 C 138.673 268.217 138.95 268.418 139.256 268.554 " />
</g>

<g opacity="0.500000" fill="red" stroke-width="0.000000" id="id0000000505" >
<path id="id0000000580" d="M 240.014 343.948 C 240.349 343.948 240.684 343.877 240.99 343.741 C 241.296 343.604 241.573 343.403 241.797 343.154 C 242.021 342.905 242.193 342.609 242.296 342.29 C 242.4 341.971 242.436 341.631 242.401 341.297 C 242.365 340.964 242.26 340.638 242.092 340.348 C 241.925 340.058 241.695 339.804 241.424 339.607 C 241.153 339.41 240.84 339.27 240.513 339.201 C 240.185 339.131 239.842 339.131 239.515 339.201 C 239.187 339.27 238.874 339.41 238.603 339.607 C 238.332 339.804 238.103 340.058 237.935 340.348 C 237.768 340.638 237.662 340.964 237.627 341.297 C 237.592 341.631 237.628 341.971 237.731 342.29 C 237.835 342.609 238.006 342.905 238.23 343.154 C 238.454 343.403 238.731 343.604 239.037 343.741 " />
</g>

<g opacity="0.500000" fill="red" stroke-width="0.000000" id="id0000000507" >
<path id="id0000000581" d="M 152.25 404.28 C 152.585 404.28 152.92 404.208 153.226 404.072 C 153.532 403.936 153.809 403.734 154.033 403.485 C 154.257 403.236 154.429 402.94 154.532 402.621 C 154.636 402.302 154.672 401.962 154.637 401.629 C 154.602 401.295 154.496 400.97 154.328 400.68 C 154.161 400.389 153.931 400.135 153.66 399.938 C 153.389 399.741 153.076 399.602 152.749 399.532 C 152.421 399.462 152.078 399.462 151.751 399.532 C 151.423 399.602 151.11 399.741 150.839 399.938 C 150.568 400.135 150.339 400.389 150.171 400.68 C 150.004 400.97 149.898 401.295 149.863 401.629 C 149.828 401.962 149.864 402.302 149.967 402.621 C 150.071 402.94 150.242 403.236 150.466 403.485 C 150.69 403.734 150.967 403.936 151.274 404.072 " />
</g>

<g opacity="0.500000" fill="red" stroke-width="0.000000" id="id0000000509" >
<path id="id0000000582" d="M 124.972 426.734 C 125.307 426.734 125.642 426.663 125.948 426.526 C 126.254 426.39 126.531 426.189 126.755 425.94 C 126.98 425.691 127.151 425.394 127.254 425.076 C 127.358 424.757 127.394 424.416 127.359 424.083 C 127.324 423.75 127.218 423.424 127.05 423.134 C 126.883 422.844 126.654 422.589 126.382 422.392 C 126.111 422.195 125.799 422.056 125.471 421.986 C 125.143 421.917 124.801 421.917 124.473 421.986 C 124.145 422.056 123.832 422.195 123.561 422.392 C 123.29 422.589 123.061 422.844 122.893 423.134 C 122.726 423.424 122.62 423.75 122.585 424.083 C 122.55 424.416 122.586 424.757 122.689 425.076 C 122.793 425.394 122.964 425.691 123.188 425.94 C 123.412 426.189 123.689 426.39 123.996 426.526 " />
</g>

<g opacity="0.500000" fill="red" stroke-width="0.000000" id="id0000000511" >
<path id="id0000000583" d="M 164.512 423.666 C 164.847 423.666 165.182 423.595 165.488 423.459 C 165.794 423.322 166.071 423.121 166.296 422.872 C 166.52 422.623 166.691 422.326 166.795 422.008 C 166.898 421.689 166.934 421.348 166.899 421.015 C 166.864 420.682 166.758 420.356 166.591 420.066 C 166.423 419.776 166.194 419.521 165.923 419.324 C 165.652 419.127 165.339 418.988 165.011 418.918 C 164.683 418.849 164.341 418.849 164.013 418.918 C 163.685 418.988 163.373 419.127 163.101 419.324 C 162.83 419.521 162.601 419.776 162.434 420.066 C 162.266 420.356 162.16 420.682 162.125 421.015 C 162.09 421.348 162.126 421.689 162.23 422.008 C 162.333 422.326 162.504 422.623 162.729 422.872 C 162.953 423.121 163.23 423.322 163.536 423.459 " />
</g>

<g opacity="0.500000" fill="red" stroke-width="0.000000" id="id0000000513" >
<path id="id0000000584" d="M 150.839 331.58 C 151.174 331.58 151.509 331.509 151.815 331.372 C 152.121 331.236 152.398 331.035 152.622 330.786 C 152.846 330.537 153.018 330.24 153.121 329.922 C 153.225 329.603 153.26 329.262 153.225 328.929 C 153.19 328.596 153.085 328.27 152.917 327.98 C 152.749 327.69 152.52 327.435 152.249 327.238 C 151.978 327.041 151.665 326.902 151.338 326.832 C 151.01 326.763 150.667 326.763 150.34 326.832 C 150.012 326.902 149.699 327.041 149.428 327.238 C 149.157 327.435 148.928 327.69 148.76 327.98 C 148.593 328.27 148.487 328.596 148.452 328.929 C 148.417 329.262 148.452 329.603 148.556 329.922 C 148.66 330.24 148.831 330.537 149.055 330.786 C 149.279 331.035 149.556 331.236 149.862 331.372 " />
</g>

<g opacity="0.500000" fill="red" stroke-width="0.000000" id="id0000000515" >
<path id="id0000000585" d="M 106.293 418.987 C 106.629 418.987 106.964 418.916 107.27 418.779 C 107.576 418.643 107.853 418.442 108.077 418.193 C 108.301 417.944 108.472 417.647 108.576 417.328 C 108.68 417.01 108.715 416.669 108.68 416.336 C 108.645 416.003 108.539 415.677 108.372 415.387 C 108.204 415.097 107.975 414.842 107.704 414.645 C 107.433 414.448 107.12 414.309 106.792 414.239 C 106.465 414.17 106.122 414.17 105.794 414.239 C 105.467 414.309 105.154 414.448 104.883 414.645 C 104.612 414.842 104.383 415.097 104.215 415.387 C 104.047 415.677 103.942 416.003 103.907 416.336 C 103.872 416.669 103.907 417.01 104.011 417.328 C 104.114 417.647 104.286 417.944 104.51 418.193 C 104.734 418.442 105.011 418.643 105.317 418.779 " />
</g>

<g opacity="0.500000" fill="red" stroke-width="0.000000" id="id0000000517" >
<path id="id0000000586" d="M 404.999 380.368 C 405.334 380.368 405.669 380.296 405.975 380.16 C 406.281 380.024 406.558 379.823 406.782 379.574 C 407.007 379.324 407.178 379.028 407.281 378.709 C 407.385 378.391 407.421 378.05 407.386 377.717 C 407.351 377.383 407.245 377.058 407.077 376.768 C 406.91 376.477 406.681 376.223 406.409 376.026 C 406.138 375.829 405.826 375.69 405.498 375.62 C 405.17 375.55 404.828 375.55 404.5 375.62 C 404.172 375.69 403.859 375.829 403.588 376.026 C 403.317 376.223 403.088 376.477 402.92 376.768 C 402.753 377.058 402.647 377.383 402.612 377.717 C 402.577 378.05 402.613 378.391 402.716 378.709 C 402.82 379.028 402.991 379.324 403.215 379.574 C 403.439 379.823 403.716 380.024 404.023 380.16 " />
</g>

<g opacity="0.500000" fill="red" stroke-width="0.000000" id="id0000000519" >
<path id="id0000000587" d="M 345.671 434.542 C 346.006 434.542 346.341 434.47 346.647 434.334 C 346.953 434.198 347.23 433.997 347.454 433.748 C 347.678 433.499 347.85 433.202 347.953 432.883 C 348.057 432.565 348.092 432.224 348.057 431.891 C 348.022 431.557 347.917 431.232 347.749 430.942 C 347.581 430.651 347.352 430.397 347.081 430.2 C 346.81 430.003 346.497 429.864 346.17 429.794 C 345.842 429.724 345.499 429.724 345.172 429.794 C 344.844 429.864 344.531 430.003 344.26 430.2 C 343.989 430.397 343.76 430.651 343.592 430.942 C 343.425 431.232 343.319 431.557 343.284 431.891 C 343.249 432.224 343.284 432.565 343.388 432.883 C 343.492 433.202 343.663 433.499 343.887 433.748 C 344.111 433.997 344.388 434.198 344.694 434.334 " />
</g>

<g opacity="0.500000" fill="red" stroke-width="0.000000" id="id0000000521" >
<path id="id0000000588" d="M 199.132 426.164 C 199.467 426.164 199.802 426.093 200.108 425.957 C 200.414 425.821 200.691 425.619 200.915 425.37 C 201.139 425.121 201.311 424.825 201.414 424.506 C 201.518 424.187 201.554 423.847 201.519 423.513 C 201.484 423.18 201.378 422.855 201.21 422.564 C 201.043 422.274 200.813 422.02 200.542 421.823 C 200.271 421.626 199.958 421.486 199.631 421.417 C 199.303 421.347 198.96 421.347 198.633 421.417 C 198.305 421.486 197.992 421.626 197.721 421.823 C 197.45 422.02 197.221 422.274 197.053 422.564 C 196.886 422.855 196.78 423.18 196.745 423.513 C 196.71 423.847 196.746 424.187 196.849 424.506 C 196.953 424.825 197.124 425.121 197.348 425.37 C 197.572 425.619 197.849 425.821 198.156 425.957 " />
</g>

<g opacity="0.500000" fill="red" stroke-width="0.000000" id="id0000000523" >
<path id="id0000000589" d="M 154.856 375.41 C 155.191 375.41 155.526 375.339 155.832 375.203 C 156.138 375.067 156.415 374.865 156.64 374.616 C 156.864 374.367 157.035 374.071 157.139 373.752 C 157.242 373.433 157.278 373.093 157.243 372.76 C 157.208 372.426 157.102 372.101 156.934 371.81 C 156.767 371.52 156.538 371.266 156.267 371.069 C 155.996 370.872 155.683 370.733 155.355 370.663 C 155.027 370.593 154.685 370.593 154.357 370.663 C 154.029 370.733 153.716 370.872 153.445 371.069 C 153.174 371.266 152.945 371.52 152.778 371.81 C 152.61 372.101 152.504 372.426 152.469 372.76 C 152.434 373.093 152.47 373.433 152.574 373.752 C 152.677 374.071 152.848 374.367 153.072 374.616 C 153.297 374.865 153.574 375.067 153.88 375.203 " />
</g>

<g opacity="0.500000" fill="red" stroke-width="0.000000" id="id0000000525" >
<path id="id0000000590" d="M 147.247 21.8285 C 147.582 21.8285 147.917 21.7573 148.223 21.621 C 148.529 21.4847 148.806 21.2834 149.03 21.0344 C 149.255 20.7854 149.426 20.4888 149.529 20.1701 C 149.633 19.8514 149.669 19.5109 149.634 19.1776 C 149.599 18.8444 149.493 18.5187 149.325 18.2285 C 149.158 17.9383 148.929 17.6838 148.658 17.4869 C 148.386 17.2899 148.074 17.1506 147.746 17.0809 C 147.418 17.0113 147.076 17.0113 146.748 17.0809 C 146.42 17.1506 146.107 17.2899 145.836 17.4869 C 145.565 17.6838 145.336 17.9383 145.168 18.2285 C 145.001 18.5187 144.895 18.8444 144.86 19.1776 C 144.825 19.5109 144.861 19.8514 144.964 20.1701 C 145.068 20.4888 145.239 20.7854 145.463 21.0344 C 145.688 21.2834 145.965 21.4847 146.271 21.621 " />
</g>

<g opacity="0.500000" fill="red" stroke-width="0.000000" id="id0000000527" >
<path id="id0000000591" d="M 303.66 440.943 C 303.995 440.943 304.33 440.872 304.636 440.736 C 304.942 440.599 305.219 440.398 305.444 440.149 C 305.668 439.9 305.839 439.604 305.943 439.285 C 306.046 438.966 306.082 438.626 306.047 438.292 C 306.012 437.959 305.906 437.633 305.739 437.343 C 305.571 437.053 305.342 436.799 305.071 436.602 C 304.8 436.405 304.487 436.265 304.159 436.196 C 303.831 436.126 303.489 436.126 303.161 436.196 C 302.833 436.265 302.521 436.405 302.249 436.602 C 301.978 436.799 301.749 437.053 301.582 437.343 C 301.414 437.633 301.308 437.959 301.273 438.292 C 301.238 438.626 301.274 438.966 301.378 439.285 C 301.481 439.604 301.652 439.9 301.877 440.149 C 302.101 440.398 302.378 440.599 302.684 440.736 " />
</g>

<g opacity="0.500000" fill="red" stroke-width="0.000000" id="id0000000529" >
<path id="id0000000592" d="M 178.615 405.203 C 178.95 405.203 179.285 405.132 179.591 404.996 C 179.897 404.859 180.174 404.658 180.398 404.409 C 180.622 404.16 180.794 403.863 180.897 403.545 C 181.001 403.226 181.036 402.885 181.001 402.552 C 180.966 402.219 180.861 401.893 180.693 401.603 C 180.526 401.313 180.296 401.058 180.025 400.861 C 179.754 400.664 179.441 400.525 179.114 400.456 C 178.786 400.386 178.443 400.386 178.116 400.456 C 177.788 400.525 177.475 400.664 177.204 400.861 C 176.933 401.058 176.704 401.313 176.536 401.603 C 176.369 401.893 176.263 402.219 176.228 402.552 C 176.193 402.885 176.229 403.226 176.332 403.545 C 176.436 403.863 176.607 404.16 176.831 404.409 C 177.055 404.658 177.332 404.859 177.638 404.996 " />
</g>

<g opacity="0.500000" fill="red" stroke-width="0.000000" id="id0000000531" >
<path id="id0000000593" d="M 239.508 355.185 C 239.843 355.185 240.178 355.113 240.484 354.977 C 240.79 354.841 241.067 354.64 241.291 354.391 C 241.516 354.142 241.687 353.845 241.79 353.526 C 241.894 353.208 241.93 352.867 241.895 352.534 C 241.86 352.201 241.754 351.875 241.586 351.585 C 241.419 351.294 241.19 351.04 240.918 350.843 C 240.647 350.646 240.335 350.507 240.007 350.437 C 239.679 350.367 239.337 350.367 239.009 350.437 C 238.681 350.507 238.368 350.646 238.097 350.843 C 237.826 351.04 237.597 351.294 237.429 351.585 C 237.262 351.875 237.156 352.201 237.121 352.534 C 237.086 352.867 237.122 353.208 237.225 353.526 C 237.329 353.845 237.5 354.142 237.724 354.391 C 237.948 354.64 238.225 354.841 238.532 354.977 " />
</g>

<g opacity="0.500000" fill="red" stroke-width="0.000000" id="id0000000533" >
<path id="id0000000594" d="M 270.289 246.426 C 270.624 246.426 270.959 246.355 271.265 246.218 C 271.571 246.082 271.848 245.881 272.072 245.632 C 272.297 245.383 272.468 245.086 272.571 244.767 C 272.675 244.449 272.711 244.108 272.676 243.775 C 272.641 243.442 272.535 243.116 272.367 242.826 C 272.2 242.536 271.971 242.281 271.7 242.084 C 271.429 241.887 271.116 241.748 270.788 241.678 C 270.46 241.609 270.118 241.609 269.79 241.678 C 269.462 241.748 269.149 241.887 268.878 242.084 C 268.607 242.281 268.378 242.536 268.21 242.826 C 268.043 243.116 267.937 243.442 267.902 243.775 C 267.867 244.108 267.903 244.449 268.006 244.767 C 268.11 245.086 268.281 245.383 268.505 245.632 C 268.73 245.881 269.007 246.082 269.313 246.218 " />
</g>

<g opacity="0.500000" fill="red" stroke-width="0.000000" id="id0000000535" >
<path id="id0000000595" d="M 283.556 415.529 C 283.892 415.529 284.227 415.458 284.533 415.321 C 284.839 415.185 285.116 414.984 285.34 414.735 C 285.564 414.486 285.735 414.189 285.839 413.871 C 285.943 413.552 285.978 413.211 285.943 412.878 C 285.908 412.545 285.802 412.219 285.635 411.929 C 285.467 411.639 285.238 411.384 284.967 411.187 C 284.696 410.99 284.383 410.851 284.055 410.781 C 283.728 410.712 283.385 410.712 283.057 410.781 C 282.73 410.851 282.417 410.99 282.146 411.187 C 281.875 411.384 281.646 411.639 281.478 411.929 C 281.31 412.219 281.205 412.545 281.17 412.878 C 281.135 413.211 281.17 413.552 281.274 413.871 C 281.378 414.189 281.549 414.486 281.773 414.735 C 281.997 414.984 282.274 415.185 282.58 415.321 " />
</g>

<g opacity="0.500000" fill="red" stroke-width="0.000000" id="id0000000537" >
<path id="id0000000596" d="M 333.316 423.575 C 333.651 423.575 333.986 423.504 334.292 423.368 C 334.598 423.231 334.875 423.03 335.099 422.781 C 335.323 422.532 335.495 422.235 335.598 421.917 C 335.702 421.598 335.738 421.258 335.703 420.924 C 335.668 420.591 335.562 420.265 335.394 419.975 C 335.227 419.685 334.997 419.43 334.726 419.233 C 334.455 419.036 334.142 418.897 333.815 418.828 C 333.487 418.758 333.145 418.758 332.817 418.828 C 332.489 418.897 332.176 419.036 331.905 419.233 C 331.634 419.43 331.405 419.685 331.237 419.975 C 331.07 420.265 330.964 420.591 330.929 420.924 C 330.894 421.258 330.93 421.598 331.033 421.917 C 331.137 422.235 331.308 422.532 331.532 422.781 C 331.756 423.03 332.033 423.231 332.34 423.368 " />
</g>

<g opacity="0.500000" fill="red" stroke-width="0.000000" id="id0000000539" >
<path id="id0000000597" d="M 125.693 431.871 C 126.028 431.871 126.363 431.8 126.669 431.664 C 126.975 431.527 127.252 431.326 127.476 431.077 C 127.701 430.828 127.872 430.532 127.975 430.213 C 128.079 429.894 128.115 429.554 128.08 429.22 C 128.045 428.887 127.939 428.561 127.771 428.271 C 127.604 427.981 127.375 427.727 127.104 427.53 C 126.833 427.333 126.52 427.193 126.192 427.124 C 125.864 427.054 125.522 427.054 125.194 427.124 C 124.866 427.193 124.553 427.333 124.282 427.53 C 124.011 427.727 123.782 427.981 123.614 428.271 C 123.447 428.561 123.341 428.887 123.306 429.22 C 123.271 429.554 123.307 429.894 123.41 430.213 C 123.514 430.532 123.685 430.828 123.909 431.077 C 124.134 431.326 124.411 431.527 124.717 431.664 " />
</g>

<g opacity="0.500000" fill="red" stroke-width="0.000000" id="id0000000541" >
<path id="id0000000598" d="M 170.341 427.529 C 170.676 427.529 171.011 427.458 171.317 427.321 C 171.624 427.185 171.901 426.984 172.125 426.735 C 172.349 426.486 172.52 426.189 172.624 425.87 C 172.727 425.552 172.763 425.211 172.728 424.878 C 172.693 424.545 172.587 424.219 172.42 423.929 C 172.252 423.639 172.023 423.384 171.752 423.187 C 171.481 422.99 171.168 422.851 170.84 422.781 C 170.512 422.712 170.17 422.712 169.842 422.781 C 169.514 422.851 169.202 422.99 168.931 423.187 C 168.659 423.384 168.43 423.639 168.263 423.929 C 168.095 424.219 167.989 424.545 167.954 424.878 C 167.919 425.211 167.955 425.552 168.059 425.87 C 168.162 426.189 168.333 426.486 168.558 426.735 C 168.782 426.984 169.059 427.185 169.365 427.321 " />
</g>

<g opacity="0.500000" fill="red" stroke-width="0.000000" id="id0000000543" >
<path id="id0000000599" d="M 206.999 282.342 C 207.334 282.342 207.669 282.271 207.975 282.135 C 208.281 281.998 208.558 281.797 208.783 281.548 C 209.007 281.299 209.178 281.002 209.282 280.684 C 209.385 280.365 209.421 280.024 209.386 279.691 C 209.351 279.358 209.245 279.032 209.077 278.742 C 208.91 278.452 208.681 278.197 208.41 278 C 208.139 277.803 207.826 277.664 207.498 277.595 C 207.17 277.525 206.828 277.525 206.5 277.595 C 206.172 277.664 205.859 277.803 205.588 278 C 205.317 278.197 205.088 278.452 204.921 278.742 C 204.753 279.032 204.647 279.358 204.612 279.691 C 204.577 280.024 204.613 280.365 204.716 280.684 C 204.82 281.002 204.991 281.299 205.215 281.548 C 205.44 281.797 205.717 281.998 206.023 282.135 " />
</g>

<g opacity="0.500000" fill="red" stroke-width="0.000000" id="id0000000545" >
<path id="id0000000600" d="M 126.275 426.302 C 126.61 426.302 126.945 426.23 127.251 426.094 C 127.557 425.958 127.834 425.757 128.058 425.508 C 128.282 425.259 128.454 424.962 128.557 424.643 C 128.661 424.325 128.696 423.984 128.661 423.651 C 128.626 423.318 128.521 422.992 128.353 422.702 C 128.185 422.411 127.956 422.157 127.685 421.96 C 127.414 421.763 127.101 421.624 126.774 421.554 C 126.446 421.484 126.103 421.484 125.776 421.554 C 125.448 421.624 125.135 421.763 124.864 421.96 C 124.593 422.157 124.364 422.411 124.196 422.702 C 124.029 422.992 123.923 423.318 123.888 423.651 C 123.853 423.984 123.888 424.325 123.992 424.643 C 124.096 424.962 124.267 425.259 124.491 425.508 C 124.715 425.757 124.992 425.958 125.298 426.094 " />
</g>

<g opacity="0.500000" fill="red" stroke-width="0.000000" id="id0000000547" >
<path id="id0000000601" d="M 199.582 403.087 C 199.917 403.087 200.252 403.016 200.558 402.88 C 200.864 402.743 201.141 402.542 201.366 402.293 C 201.59 402.044 201.761 401.747 201.865 401.429 C 201.968 401.11 202.004 400.769 201.969 400.436 C 201.934 400.103 201.828 399.777 201.661 399.487 C 201.493 399.197 201.264 398.942 200.993 398.745 C 200.722 398.548 200.409 398.409 200.081 398.339 C 199.753 398.27 199.411 398.27 199.083 398.339 C 198.755 398.409 198.443 398.548 198.171 398.745 C 197.9 398.942 197.671 399.197 197.504 399.487 C 197.336 399.777 197.23 400.103 197.195 400.436 C 197.16 400.769 197.196 401.11 197.3 401.429 C 197.403 401.747 197.574 402.044 197.799 402.293 C 198.023 402.542 198.3 402.743 198.606 402.88 " />
</g>

<g opacity="0.500000" fill="red" stroke-width="0.000000" id="id0000000549" >
<path id="id0000000602" d="M 231.758 412.369 C 232.094 412.369 232.428 412.298 232.735 412.162 C 233.041 412.025 233.318 411.824 233.542 411.575 C 233.766 411.326 233.937 411.03 234.041 410.711 C 234.145 410.392 234.18 410.052 234.145 409.718 C 234.11 409.385 234.004 409.059 233.837 408.769 C 233.669 408.479 233.44 408.225 233.169 408.028 C 232.898 407.831 232.585 407.691 232.257 407.622 C 231.93 407.552 231.587 407.552 231.259 407.622 C 230.932 407.691 230.619 407.831 230.348 408.028 C 230.077 408.225 229.848 408.479 229.68 408.769 C 229.512 409.059 229.407 409.385 229.372 409.718 C 229.337 410.052 229.372 410.392 229.476 410.711 C 229.579 411.03 229.751 411.326 229.975 411.575 C 230.199 411.824 230.476 412.025 230.782 412.162 " />
</g>

<g opacity="0.500000" fill="red" stroke-width="0.000000" id="id0000000551" >
<path id="id0000000603" d="M 349.075 416.731 C 349.41 416.731 349.745 416.66 350.051 416.524 C 350.357 416.387 350.634 416.186 350.858 415.937 C 351.082 415.688 351.254 415.391 351.357 415.073 C 351.461 414.754 351.496 414.413 351.461 414.08 C 351.426 413.747 351.321 413.421 351.153 413.131 C 350.986 412.841 350.756 412.586 350.485 412.389 C 350.214 412.192 349.901 412.053 349.574 411.983 C 349.246 411.914 348.903 411.914 348.576 411.983 C 348.248 412.053 347.935 412.192 347.664 412.389 C 347.393 412.586 347.164 412.841 346.996 413.131 C 346.829 413.421 346.723 413.747 346.688 414.08 C 346.653 414.413 346.689 414.754 346.792 415.073 C 346.896 415.391 347.067 415.688 347.291 415.937 C 347.515 416.186 347.792 416.387 348.098 416.524 " />
</g>

<g opacity="0.500000" fill="red" stroke-width="0.000000" id="id0000000553" >
<path id="id0000000604" d="M 192.873 401.263 C 193.208 401.263 193.543 401.192 193.849 401.056 C 194.155 400.92 194.432 400.718 194.657 400.469 C 194.881 400.22 195.052 399.924 195.156 399.605 C 195.259 399.286 195.295 398.946 195.26 398.613 C 195.225 398.279 195.119 397.954 194.952 397.663 C 194.784 397.373 194.555 397.119 194.284 396.922 C 194.013 396.725 193.7 396.585 193.372 396.516 C 193.044 396.446 192.702 396.446 192.374 396.516 C 192.046 396.585 191.733 396.725 191.462 396.922 C 191.191 397.119 190.962 397.373 190.795 397.663 C 190.627 397.954 190.521 398.279 190.486 398.613 C 190.451 398.946 190.487 399.286 190.591 399.605 C 190.694 399.924 190.865 400.22 191.09 400.469 C 191.314 400.718 191.591 400.92 191.897 401.056 " />
</g>

</g>

</g>

<polygon points="36,1 36,458 639,458 639,1 " stroke="black" stroke-width="1.000000" fill="none" id="id0000000605" pointer-events="none" class="rectangle" />
<polyline points="87.5597,458 87.5597,461 " fill="none" stroke-width="1.000000" stroke="black" id="id0000000606" class="line" />
<text id="id0000000607" transform="matrix(1 0 0 1 36 1)" x="51.559708" y="462.000000" dominant-baseline="hanging" text-anchor="middle" font-size="14.000000px" >
0
</text>

<polyline points="194.916,458 194.916,461 " fill="none" stroke-width="1.000000" stroke="black" id="id0000000608" class="line" />
<text id="id0000000609" transform="matrix(1 0 0 1 36 1)" x="158.915695" y="462.000000" dominant-baseline="hanging" text-anchor="middle" font-size="14.000000px" >
1
</text>

<polyline points="302.272,458 302.272,461 " fill="none" stroke-width="1.000000" stroke="black" id="id0000000610" class="line" />
<text id="id0000000611" transform="matrix(1 0 0 1 36 1)" x="266.271698" y="462.000000" dominant-baseline="hanging" text-anchor="middle" font-size="14.000000px" >
2
</text>

<polyline points="409.628,458 409.628,461 " fill="none" stroke-width="1.000000" stroke="black" id="id0000000612" class="line" />
<text id="id0000000613" transform="matrix(1 0 0 1 36 1)" x="373.627655" y="462.000000" dominant-baseline="hanging" text-anchor="middle" font-size="14.000000px" >
3
</text>

<polyline points="516.984,458 516.984,461 " fill="none" stroke-width="1.000000" stroke="black" id="id0000000614" class="line" />
<text id="id0000000615" transform="matrix(1 0 0 1 36 1)" x="480.983673" y="462.000000" dominant-baseline="hanging" text-anchor="middle" font-size="14.000000px" >
4
</text>

<polyline points="624.34,458 624.34,461 " fill="none" stroke-width="1.000000" stroke="black" id="id0000000616" class="line" />
<text id="id0000000617" transform="matrix(1 0 0 1 36 1)" x="588.339661" y="462.000000" dominant-baseline="hanging" text-anchor="middle" font-size="14.000000px" >
5
</text>

<polyline points="33,441.55 36,441.55 " fill="none" stroke-width="1.000000" stroke="black" id="id0000000618" class="line" />
<text id="id0000000619" transform="matrix(1 0 0 1 36 1)" x="-5.000000" y="440.550446" dominant-baseline="middle" text-anchor="end" font-size="14.000000px" >
0
</text>

<polyline points="33,374.822 36,374.822 " fill="none" stroke-width="1.000000" stroke="black" id="id0000000620" class="line" />
<text id="id0000000621" transform="matrix(1 0 0 1 36 1)" x="-5.000000" y="373.822083" dominant-baseline="middle" text-anchor="end" font-size="14.000000px" >
2
</text>

<polyline points="33,308.094 36,308.094 " fill="none" stroke-width="1.000000" stroke="black" id="id0000000622" class="line" />
<text id="id0000000623" transform="matrix(1 0 0 1 36 1)" x="-5.000000" y="307.093750" dominant-baseline="middle" text-anchor="end" font-size="14.000000px" >
4
</text>

<polyline points="33,241.365 36,241.365 " fill="none" stroke-width="1.000000" stroke="black" id="id0000000624" class="line" />
<text id="id0000000625" transform="matrix(1 0 0 1 36 1)" x="-5.000000" y="240.365387" dominant-baseline="middle" text-anchor="end" font-size="14.000000px" >
6
</text>

<polyline points="33,174.637 36,174.637 " fill="none" stroke-width="1.000000" stroke="black" id="id0000000626" class="line" />
<text id="id0000000627" transform="matrix(1 0 0 1 36 1)" x="-5.000000" y="173.637054" dominant-baseline="middle" text-anchor="end" font-size="14.000000px" >
8
</text>

<polyline points="33,107.909 36,107.909 " fill="none" stroke-width="1.000000" stroke="black" id="id0000000628" class="line" />
<text id="id0000000629" transform="matrix(1 0 0 1 36 1)" x="-5.000000" y="106.908722" dominant-baseline="middle" text-anchor="end" font-size="14.000000px" >
10
</text>

<polyline points="33,41.1804 36,41.1804 " fill="none" stroke-width="1.000000" stroke="black" id="id0000000630" class="line" />
<text id="id0000000631" transform="matrix(1 0 0 1 36 1)" x="-5.000000" y="40.180389" dominant-baseline="middle" text-anchor="end" font-size="14.000000px" >
12
</text>


</g>

</svg>
