<svg viewBox="0 0 640 480" height="100%" width="100%" xmlns:xlink="http://www.w3.org/1999/xlink" xmlns="http://www.w3.org/2000/svg" id="id0000000000" >
<g id="id0000000001" >
<clipPath id="id0000000001clipper" >
<polygon points="36,1 36,458 639,458 639,1 " id="id0000000004" class="rectangle" />
</clipPath>

<g clip-path="url(#id0000000001clipper)" id="id0000000003" >
<g id="id0000000005" >
<g opacity="1.000000" fill="#1f77b4" stroke-width="0.000000" id="id0000000006" >
<path id="id0000000106" d="M 238.231 380.851 C 238.83 380.851 239.422 380.566 239.795 380.098 C 240.168 379.63 240.314 378.989 240.181 378.406 C 240.048 377.822 239.638 377.309 239.099 377.049 C 238.56 376.789 237.902 376.789 237.363 377.049 C 236.824 377.309 236.414 377.822 236.281 378.406 C 236.148 378.989 236.294 379.63 236.667 380.098 C 237.041 380.566 237.633 380.851 238.231 380.851 " />
</g>

<g opacity="1.000000" fill="#1f77b4" stroke-width="0.000000" id="id0000000008" >
<path id="id0000000107" d="M 458.511 342.73 C 459.109 342.73 459.702 342.445 460.075 341.977 C 460.448 341.509 460.594 340.869 460.461 340.285 C 460.328 339.702 459.918 339.188 459.379 338.928 C 458.84 338.669 458.182 338.669 457.643 338.928 C 457.104 339.188 456.694 339.702 456.561 340.285 C 456.428 340.869 456.574 341.509 456.947 341.977 C 457.32 342.445 457.913 342.73 458.511 342.73 " />
</g>

<g opacity="1.000000" fill="#1f77b4" stroke-width="0.000000" id="id0000000010" >
<path id="id0000000108" d="M 321.627 440.156 C 322.225 440.156 322.817 439.871 323.19 439.403 C 323.563 438.935 323.71 438.294 323.576 437.711 C 323.443 437.128 323.033 436.614 322.494 436.354 C 321.955 436.094 321.298 436.094 320.759 436.354 C 320.22 436.614 319.81 437.128 319.677 437.711 C 319.544 438.294 319.69 438.935 320.063 439.403 C 320.436 439.871 321.028 440.156 321.627 440.156 " />
</g>

<g opacity="1.000000" fill="#1f77b4" stroke-width="0.000000" id="id0000000012" >
<path id="id0000000109" d="M 139.267 264.954 C 139.865 264.954 140.457 264.669 140.83 264.201 C 141.203 263.733 141.35 263.092 141.216 262.509 C 141.083 261.926 140.674 261.412 140.134 261.152 C 139.595 260.892 138.938 260.892 138.399 261.152 C 137.86 261.412 137.45 261.926 137.317 262.509 C 137.184 263.092 137.33 263.733 137.703 264.201 C 138.076 264.669 138.668 264.954 139.267 264.954 " />
</g>

<g opacity="1.000000" fill="#1f77b4" stroke-width="0.000000" id="id0000000014" >
<path id="id0000000110" d="M 383.665 223.753 C 384.263 223.753 384.856 223.467 385.229 223 C 385.602 222.532 385.748 221.891 385.615 221.308 C 385.482 220.724 385.072 220.21 384.533 219.951 C 383.994 219.691 383.336 219.691 382.797 219.951 C 382.258 220.21 381.848 220.724 381.715 221.308 C 381.582 221.891 381.728 222.532 382.101 223 C 382.474 223.467 383.067 223.753 383.665 223.753 " />
</g>

<g opacity="1.000000" fill="#1f77b4" stroke-width="0.000000" id="id0000000016" >
<path id="id0000000111" d="M 58.2303 382.202 C 58.8287 382.202 59.4209 381.917 59.7939 381.449 C 60.167 380.981 60.3133 380.34 60.1801 379.757 C 60.047 379.174 59.6372 378.66 59.0981 378.4 C 58.5589 378.14 57.9017 378.14 57.3625 378.4 C 56.8234 378.66 56.4136 379.174 56.2804 379.757 C 56.1473 380.34 56.2935 380.981 56.6666 381.449 C 57.0397 381.917 57.6319 382.202 58.2303 382.202 " />
</g>

<g opacity="1.000000" fill="#1f77b4" stroke-width="0.000000" id="id0000000018" >
<path id="id0000000112" d="M 386.521 164.017 C 387.12 164.017 387.712 163.732 388.085 163.264 C 388.458 162.796 388.604 162.156 388.471 161.572 C 388.338 160.989 387.928 160.475 387.389 160.215 C 386.85 159.956 386.193 159.956 385.653 160.215 C 385.114 160.475 384.704 160.989 384.571 161.572 C 384.438 162.156 384.584 162.796 384.958 163.264 C 385.331 163.732 385.923 164.017 386.521 164.017 " />
</g>

<g opacity="1.000000" fill="#1f77b4" stroke-width="0.000000" id="id0000000020" >
<path id="id0000000113" d="M 299.177 327.596 C 299.775 327.596 300.367 327.31 300.74 326.842 C 301.114 326.375 301.26 325.734 301.127 325.15 C 300.993 324.567 300.584 324.053 300.045 323.794 C 299.505 323.534 298.848 323.534 298.309 323.794 C 297.77 324.053 297.36 324.567 297.227 325.15 C 297.094 325.734 297.24 326.375 297.613 326.842 C 297.986 327.31 298.578 327.596 299.177 327.596 " />
</g>

<g opacity="1.000000" fill="#1f77b4" stroke-width="0.000000" id="id0000000022" >
<path id="id0000000114" d="M 313.128 210.636 C 313.727 210.636 314.319 210.351 314.692 209.883 C 315.065 209.415 315.211 208.774 315.078 208.191 C 314.945 207.607 314.535 207.094 313.996 206.834 C 313.457 206.574 312.8 206.574 312.26 206.834 C 311.721 207.094 311.312 207.607 311.178 208.191 C 311.045 208.774 311.191 209.415 311.565 209.883 C 311.938 210.351 312.53 210.636 313.128 210.636 " />
</g>

<g opacity="1.000000" fill="#1f77b4" stroke-width="0.000000" id="id0000000024" >
<path id="id0000000115" d="M 239.729 148.518 C 240.327 148.518 240.919 148.232 241.292 147.765 C 241.665 147.297 241.812 146.656 241.678 146.073 C 241.545 145.489 241.136 144.975 240.596 144.716 C 240.057 144.456 239.4 144.456 238.861 144.716 C 238.322 144.975 237.912 145.489 237.779 146.073 C 237.646 146.656 237.792 147.297 238.165 147.765 C 238.538 148.232 239.13 148.518 239.729 148.518 " />
</g>

<g opacity="1.000000" fill="#1f77b4" stroke-width="0.000000" id="id0000000026" >
<path id="id0000000116" d="M 312.717 278.547 C 313.315 278.547 313.907 278.262 314.28 277.794 C 314.653 277.326 314.8 276.686 314.667 276.102 C 314.533 275.519 314.124 275.005 313.584 274.745 C 313.045 274.486 312.388 274.486 311.849 274.745 C 311.31 275.005 310.9 275.519 310.767 276.102 C 310.634 276.686 310.78 277.326 311.153 277.794 C 311.526 278.262 312.118 278.547 312.717 278.547 " />
</g>

<g opacity="1.000000" fill="#1f77b4" stroke-width="0.000000" id="id0000000028" >
<path id="id0000000117" d="M 471.129 132.853 C 471.727 132.853 472.319 132.568 472.692 132.1 C 473.066 131.632 473.212 130.992 473.079 130.408 C 472.945 129.825 472.536 129.311 471.997 129.051 C 471.457 128.792 470.8 128.792 470.261 129.051 C 469.722 129.311 469.312 129.825 469.179 130.408 C 469.046 130.992 469.192 131.632 469.565 132.1 C 469.938 132.568 470.53 132.853 471.129 132.853 " />
</g>

<g opacity="1.000000" fill="#1f77b4" stroke-width="0.000000" id="id0000000030" >
<path id="id0000000118" d="M 160.23 271.911 C 160.829 271.911 161.421 271.626 161.794 271.158 C 162.167 270.69 162.313 270.049 162.18 269.466 C 162.047 268.882 161.637 268.368 161.098 268.109 C 160.559 267.849 159.902 267.849 159.363 268.109 C 158.823 268.368 158.414 268.882 158.28 269.466 C 158.147 270.049 158.294 270.69 158.667 271.158 C 159.04 271.626 159.632 271.911 160.23 271.911 " />
</g>

<g opacity="1.000000" fill="#1f77b4" stroke-width="0.000000" id="id0000000032" >
<path id="id0000000119" d="M 218.204 277.937 C 218.802 277.937 219.394 277.651 219.768 277.184 C 220.141 276.716 220.287 276.075 220.154 275.492 C 220.021 274.908 219.611 274.394 219.072 274.135 C 218.533 273.875 217.875 273.875 217.336 274.135 C 216.797 274.394 216.387 274.908 216.254 275.492 C 216.121 276.075 216.267 276.716 216.64 277.184 C 217.013 277.651 217.605 277.937 218.204 277.937 " />
</g>

<g opacity="1.000000" fill="#1f77b4" stroke-width="0.000000" id="id0000000034" >
<path id="id0000000120" d="M 250.967 84.147 C 251.566 84.147 252.158 83.8618 252.531 83.394 C 252.904 82.9261 253.05 82.2853 252.917 81.7019 C 252.784 81.1186 252.374 80.6047 251.835 80.345 C 251.296 80.0854 250.639 80.0854 250.099 80.345 C 249.56 80.6047 249.15 81.1186 249.017 81.7019 C 248.884 82.2853 249.03 82.9261 249.404 83.394 C 249.777 83.8618 250.369 84.147 250.967 84.147 " />
</g>

<g opacity="1.000000" fill="#1f77b4" stroke-width="0.000000" id="id0000000036" >
<path id="id0000000121" d="M 305.179 270.726 C 305.778 270.726 306.37 270.441 306.743 269.973 C 307.116 269.505 307.262 268.864 307.129 268.281 C 306.996 267.698 306.586 267.184 306.047 266.924 C 305.508 266.664 304.851 266.664 304.312 266.924 C 303.772 267.184 303.363 267.698 303.229 268.281 C 303.096 268.864 303.243 269.505 303.616 269.973 C 303.989 270.441 304.581 270.726 305.179 270.726 " />
</g>

<g opacity="1.000000" fill="#1f77b4" stroke-width="0.000000" id="id0000000038" >
<path id="id0000000122" d="M 163.499 123.194 C 164.097 123.194 164.689 122.909 165.062 122.441 C 165.435 121.973 165.582 121.333 165.449 120.749 C 165.315 120.166 164.906 119.652 164.367 119.392 C 163.827 119.133 163.17 119.133 162.631 119.392 C 162.092 119.652 161.682 120.166 161.549 120.749 C 161.416 121.333 161.562 121.973 161.935 122.441 C 162.308 122.909 162.9 123.194 163.499 123.194 " />
</g>

<g opacity="1.000000" fill="#1f77b4" stroke-width="0.000000" id="id0000000040" >
<path id="id0000000123" d="M 142.03 261.95 C 142.628 261.95 143.22 261.665 143.593 261.197 C 143.966 260.729 144.113 260.088 143.979 259.505 C 143.846 258.921 143.437 258.407 142.897 258.148 C 142.358 257.888 141.701 257.888 141.162 258.148 C 140.623 258.407 140.213 258.921 140.08 259.505 C 139.947 260.088 140.093 260.729 140.466 261.197 C 140.839 261.665 141.431 261.95 142.03 261.95 " />
</g>

<g opacity="1.000000" fill="#1f77b4" stroke-width="0.000000" id="id0000000042" >
<path id="id0000000124" d="M 289.148 315.339 C 289.747 315.339 290.339 315.054 290.712 314.586 C 291.085 314.118 291.231 313.477 291.098 312.894 C 290.965 312.31 290.555 311.797 290.016 311.537 C 289.477 311.277 288.82 311.277 288.28 311.537 C 287.741 311.797 287.332 312.31 287.198 312.894 C 287.065 313.477 287.211 314.118 287.585 314.586 C 287.958 315.054 288.55 315.339 289.148 315.339 " />
</g>

<g opacity="1.000000" fill="#1f77b4" stroke-width="0.000000" id="id0000000044" >
<path id="id0000000125" d="M 302.012 342.065 C 302.611 342.065 303.203 341.78 303.576 341.312 C 303.949 340.844 304.095 340.203 303.962 339.62 C 303.829 339.037 303.419 338.523 302.88 338.263 C 302.341 338.004 301.684 338.004 301.144 338.263 C 300.605 338.523 300.195 339.037 300.062 339.62 C 299.929 340.203 300.075 340.844 300.449 341.312 C 300.822 341.78 301.414 342.065 302.012 342.065 " />
</g>

<g opacity="1.000000" fill="#1f77b4" stroke-width="0.000000" id="id0000000046" >
<path id="id0000000126" d="M 267.781 173.997 C 268.379 173.997 268.972 173.712 269.345 173.244 C 269.718 172.776 269.864 172.135 269.731 171.552 C 269.598 170.969 269.188 170.455 268.649 170.195 C 268.11 169.936 267.452 169.936 266.913 170.195 C 266.374 170.455 265.964 170.969 265.831 171.552 C 265.698 172.135 265.844 172.776 266.217 173.244 C 266.59 173.712 267.183 173.997 267.781 173.997 " />
</g>

<g opacity="1.000000" fill="#1f77b4" stroke-width="0.000000" id="id0000000048" >
<path id="id0000000127" d="M 452.882 22.844 C 453.48 22.844 454.073 22.5588 454.446 22.091 C 454.819 21.6231 454.965 20.9823 454.832 20.3989 C 454.699 19.8155 454.289 19.3017 453.75 19.042 C 453.211 18.7824 452.553 18.7824 452.014 19.042 C 451.475 19.3017 451.065 19.8155 450.932 20.3989 C 450.799 20.9823 450.945 21.6231 451.318 22.091 C 451.691 22.5588 452.284 22.844 452.882 22.844 " />
</g>

<g opacity="1.000000" fill="#1f77b4" stroke-width="0.000000" id="id0000000050" >
<path id="id0000000128" d="M 344.414 218.637 C 345.013 218.637 345.605 218.352 345.978 217.884 C 346.351 217.416 346.497 216.776 346.364 216.192 C 346.231 215.609 345.821 215.095 345.282 214.835 C 344.743 214.576 344.086 214.576 343.547 214.835 C 343.008 215.095 342.598 215.609 342.465 216.192 C 342.331 216.776 342.478 217.416 342.851 217.884 C 343.224 218.352 343.816 218.637 344.414 218.637 " />
</g>

<g opacity="1.000000" fill="#1f77b4" stroke-width="0.000000" id="id0000000052" >
<path id="id0000000129" d="M 206.445 312.551 C 207.043 312.551 207.635 312.266 208.008 311.798 C 208.382 311.331 208.528 310.69 208.395 310.106 C 208.261 309.523 207.852 309.009 207.313 308.749 C 206.773 308.49 206.116 308.49 205.577 308.749 C 205.038 309.009 204.628 309.523 204.495 310.106 C 204.362 310.69 204.508 311.331 204.881 311.798 C 205.254 312.266 205.846 312.551 206.445 312.551 " />
</g>

<g opacity="1.000000" fill="#1f77b4" stroke-width="0.000000" id="id0000000054" >
<path id="id0000000130" d="M 361.056 226.291 C 361.654 226.291 362.247 226.005 362.62 225.538 C 362.993 225.07 363.139 224.429 363.006 223.846 C 362.873 223.262 362.463 222.748 361.924 222.489 C 361.385 222.229 360.727 222.229 360.188 222.489 C 359.649 222.748 359.239 223.262 359.106 223.846 C 358.973 224.429 359.119 225.07 359.492 225.538 C 359.865 226.005 360.458 226.291 361.056 226.291 " />
</g>

<g opacity="1.000000" fill="#1f77b4" stroke-width="0.000000" id="id0000000056" >
<path id="id0000000131" d="M 616.77 288.096 C 617.368 288.096 617.96 287.811 618.333 287.343 C 618.706 286.876 618.853 286.235 618.719 285.651 C 618.586 285.068 618.177 284.554 617.637 284.294 C 617.098 284.035 616.441 284.035 615.902 284.294 C 615.363 284.554 614.953 285.068 614.82 285.651 C 614.687 286.235 614.833 286.876 615.206 287.343 C 615.579 287.811 616.171 288.096 616.77 288.096 " />
</g>

<g opacity="1.000000" fill="#1f77b4" stroke-width="0.000000" id="id0000000058" >
<path id="id0000000132" d="M 330.716 276.7 C 331.314 276.7 331.906 276.414 332.279 275.947 C 332.652 275.479 332.799 274.838 332.665 274.255 C 332.532 273.671 332.123 273.157 331.583 272.898 C 331.044 272.638 330.387 272.638 329.848 272.898 C 329.309 273.157 328.899 273.671 328.766 274.255 C 328.633 274.838 328.779 275.479 329.152 275.947 C 329.525 276.414 330.117 276.7 330.716 276.7 " />
</g>

<g opacity="1.000000" fill="#1f77b4" stroke-width="0.000000" id="id0000000060" >
<path id="id0000000133" d="M 63.7606 44.2932 C 64.359 44.2932 64.9512 44.008 65.3242 43.5401 C 65.6973 43.0723 65.8436 42.4315 65.7104 41.8481 C 65.5773 41.2647 65.1675 40.7509 64.6284 40.4912 C 64.0892 40.2316 63.432 40.2316 62.8928 40.4912 C 62.3537 40.7509 61.9439 41.2647 61.8107 41.8481 C 61.6776 42.4315 61.8238 43.0723 62.1969 43.5401 C 62.57 44.008 63.1622 44.2932 63.7606 44.2932 " />
</g>

<g opacity="1.000000" fill="#1f77b4" stroke-width="0.000000" id="id0000000062" >
<path id="id0000000134" d="M 267.728 141.171 C 268.326 141.171 268.918 140.886 269.291 140.418 C 269.664 139.95 269.811 139.309 269.678 138.726 C 269.544 138.142 269.135 137.628 268.595 137.369 C 268.056 137.109 267.399 137.109 266.86 137.369 C 266.321 137.628 265.911 138.142 265.778 138.726 C 265.645 139.309 265.791 139.95 266.164 140.418 C 266.537 140.886 267.129 141.171 267.728 141.171 " />
</g>

<g opacity="1.000000" fill="#1f77b4" stroke-width="0.000000" id="id0000000064" >
<path id="id0000000135" d="M 510.57 175.252 C 511.169 175.252 511.761 174.966 512.134 174.499 C 512.507 174.031 512.653 173.39 512.52 172.807 C 512.387 172.223 511.977 171.709 511.438 171.45 C 510.899 171.19 510.242 171.19 509.703 171.45 C 509.163 171.709 508.754 172.223 508.621 172.807 C 508.487 173.39 508.634 174.031 509.007 174.499 C 509.38 174.966 509.972 175.252 510.57 175.252 " />
</g>

<g opacity="1.000000" fill="#1f77b4" stroke-width="0.000000" id="id0000000066" >
<path id="id0000000136" d="M 396.642 436.192 C 397.241 436.192 397.833 435.907 398.206 435.439 C 398.579 434.972 398.725 434.331 398.592 433.747 C 398.459 433.164 398.049 432.65 397.51 432.39 C 396.971 432.131 396.313 432.131 395.774 432.39 C 395.235 432.65 394.825 433.164 394.692 433.747 C 394.559 434.331 394.705 434.972 395.078 435.439 C 395.452 435.907 396.044 436.192 396.642 436.192 " />
</g>

<g opacity="1.000000" fill="#1f77b4" stroke-width="0.000000" id="id0000000068" >
<path id="id0000000137" d="M 202.586 196.182 C 203.184 196.182 203.776 195.897 204.149 195.429 C 204.522 194.962 204.669 194.321 204.535 193.737 C 204.402 193.154 203.993 192.64 203.453 192.38 C 202.914 192.121 202.257 192.121 201.718 192.38 C 201.179 192.64 200.769 193.154 200.636 193.737 C 200.503 194.321 200.649 194.962 201.022 195.429 C 201.395 195.897 201.987 196.182 202.586 196.182 " />
</g>

<g opacity="1.000000" fill="#1f77b4" stroke-width="0.000000" id="id0000000070" >
<path id="id0000000138" d="M 403.334 87.5046 C 403.932 87.5046 404.524 87.2194 404.898 86.7516 C 405.271 86.2837 405.417 85.6429 405.284 85.0595 C 405.151 84.4761 404.741 83.9623 404.202 83.7026 C 403.663 83.443 403.005 83.443 402.466 83.7026 C 401.927 83.9623 401.517 84.4761 401.384 85.0595 C 401.251 85.6429 401.397 86.2837 401.77 86.7516 C 402.143 87.2194 402.735 87.5046 403.334 87.5046 " />
</g>

<g opacity="1.000000" fill="#1f77b4" stroke-width="0.000000" id="id0000000072" >
<path id="id0000000139" d="M 423.692 305.011 C 424.29 305.011 424.883 304.726 425.256 304.258 C 425.629 303.79 425.775 303.15 425.642 302.566 C 425.509 301.983 425.099 301.469 424.56 301.209 C 424.021 300.95 423.363 300.95 422.824 301.209 C 422.285 301.469 421.875 301.983 421.742 302.566 C 421.609 303.15 421.755 303.79 422.128 304.258 C 422.501 304.726 423.094 305.011 423.692 305.011 " />
</g>

<g opacity="1.000000" fill="#1f77b4" stroke-width="0.000000" id="id0000000074" >
<path id="id0000000140" d="M 427.349 308.834 C 427.947 308.834 428.539 308.549 428.912 308.081 C 429.285 307.613 429.432 306.972 429.298 306.389 C 429.165 305.806 428.755 305.292 428.216 305.032 C 427.677 304.772 427.02 304.772 426.481 305.032 C 425.942 305.292 425.532 305.806 425.399 306.389 C 425.266 306.972 425.412 307.613 425.785 308.081 C 426.158 308.549 426.75 308.834 427.349 308.834 " />
</g>

<g opacity="1.000000" fill="#1f77b4" stroke-width="0.000000" id="id0000000076" >
<path id="id0000000141" d="M 212.467 231.733 C 213.065 231.733 213.657 231.448 214.03 230.98 C 214.403 230.512 214.55 229.871 214.416 229.288 C 214.283 228.705 213.874 228.191 213.334 227.931 C 212.795 227.671 212.138 227.671 211.599 227.931 C 211.06 228.191 210.65 228.705 210.517 229.288 C 210.384 229.871 210.53 230.512 210.903 230.98 C 211.276 231.448 211.868 231.733 212.467 231.733 " />
</g>

<g opacity="1.000000" fill="#1f77b4" stroke-width="0.000000" id="id0000000078" >
<path id="id0000000142" d="M 347.967 249.243 C 348.566 249.243 349.158 248.958 349.531 248.49 C 349.904 248.022 350.05 247.381 349.917 246.798 C 349.784 246.215 349.374 245.701 348.835 245.441 C 348.296 245.182 347.639 245.182 347.1 245.441 C 346.56 245.701 346.151 246.215 346.017 246.798 C 345.884 247.381 346.031 248.022 346.404 248.49 C 346.777 248.958 347.369 249.243 347.967 249.243 " />
</g>

<g opacity="1.000000" fill="#1f77b4" stroke-width="0.000000" id="id0000000080" >
<path id="id0000000143" d="M 434.09 296.944 C 434.688 296.944 435.281 296.659 435.654 296.191 C 436.027 295.724 436.173 295.083 436.04 294.499 C 435.907 293.916 435.497 293.402 434.958 293.143 C 434.419 292.883 433.761 292.883 433.222 293.143 C 432.683 293.402 432.273 293.916 432.14 294.499 C 432.007 295.083 432.153 295.724 432.526 296.191 C 432.899 296.659 433.492 296.944 434.09 296.944 " />
</g>

<g opacity="1.000000" fill="#1f77b4" stroke-width="0.000000" id="id0000000082" >
<path id="id0000000144" d="M 218.265 123.093 C 218.863 123.093 219.455 122.808 219.829 122.34 C 220.202 121.872 220.348 121.231 220.215 120.648 C 220.082 120.065 219.672 119.551 219.133 119.291 C 218.593 119.031 217.936 119.031 217.397 119.291 C 216.858 119.551 216.448 120.065 216.315 120.648 C 216.182 121.231 216.328 121.872 216.701 122.34 C 217.074 122.808 217.666 123.093 218.265 123.093 " />
</g>

<g opacity="1.000000" fill="#1f77b4" stroke-width="0.000000" id="id0000000084" >
<path id="id0000000145" d="M 237.672 184.866 C 238.271 184.866 238.863 184.581 239.236 184.113 C 239.609 183.645 239.755 183.004 239.622 182.421 C 239.489 181.837 239.079 181.323 238.54 181.064 C 238.001 180.804 237.344 180.804 236.805 181.064 C 236.265 181.323 235.856 181.837 235.722 182.421 C 235.589 183.004 235.736 183.645 236.109 184.113 C 236.482 184.581 237.074 184.866 237.672 184.866 " />
</g>

<g opacity="1.000000" fill="#1f77b4" stroke-width="0.000000" id="id0000000086" >
<path id="id0000000146" d="M 279.865 228.852 C 280.464 228.852 281.056 228.567 281.429 228.099 C 281.802 227.631 281.948 226.99 281.815 226.407 C 281.682 225.823 281.272 225.309 280.733 225.05 C 280.194 224.79 279.537 224.79 278.998 225.05 C 278.459 225.309 278.049 225.823 277.916 226.407 C 277.782 226.99 277.929 227.631 278.302 228.099 C 278.675 228.567 279.267 228.852 279.865 228.852 " />
</g>

<g opacity="1.000000" fill="#1f77b4" stroke-width="0.000000" id="id0000000088" >
<path id="id0000000147" d="M 268.336 35.3674 C 268.935 35.3674 269.527 35.0823 269.9 34.6144 C 270.273 34.1466 270.419 33.5058 270.286 32.9224 C 270.153 32.339 269.743 31.8251 269.204 31.5655 C 268.665 31.3059 268.008 31.3059 267.469 31.5655 C 266.929 31.8251 266.52 32.339 266.386 32.9224 C 266.253 33.5058 266.4 34.1466 266.773 34.6144 C 267.146 35.0823 267.738 35.3674 268.336 35.3674 " />
</g>

<g opacity="1.000000" fill="#1f77b4" stroke-width="0.000000" id="id0000000090" >
<path id="id0000000148" d="M 274.98 63.6095 C 275.578 63.6095 276.17 63.3244 276.543 62.8565 C 276.916 62.3887 277.063 61.7479 276.929 61.1645 C 276.796 60.5811 276.386 60.0672 275.847 59.8076 C 275.308 59.548 274.651 59.548 274.112 59.8076 C 273.573 60.0672 273.163 60.5811 273.03 61.1645 C 272.897 61.7479 273.043 62.3887 273.416 62.8565 C 273.789 63.3244 274.381 63.6095 274.98 63.6095 " />
</g>

<g opacity="1.000000" fill="#1f77b4" stroke-width="0.000000" id="id0000000092" >
<path id="id0000000149" d="M 373.203 287.528 C 373.802 287.528 374.394 287.242 374.767 286.775 C 375.14 286.307 375.286 285.666 375.153 285.083 C 375.02 284.499 374.61 283.985 374.071 283.726 C 373.532 283.466 372.875 283.466 372.335 283.726 C 371.796 283.985 371.387 284.499 371.253 285.083 C 371.12 285.666 371.266 286.307 371.64 286.775 C 372.013 287.242 372.605 287.528 373.203 287.528 " />
</g>

<g opacity="1.000000" fill="#1f77b4" stroke-width="0.000000" id="id0000000094" >
<path id="id0000000150" d="M 217.191 221.77 C 217.79 221.77 218.382 221.485 218.755 221.017 C 219.128 220.549 219.274 219.908 219.141 219.325 C 219.008 218.742 218.598 218.228 218.059 217.968 C 217.52 217.709 216.863 217.709 216.324 217.968 C 215.784 218.228 215.375 218.742 215.241 219.325 C 215.108 219.908 215.255 220.549 215.628 221.017 C 216.001 221.485 216.593 221.77 217.191 221.77 " />
</g>

<g opacity="1.000000" fill="#1f77b4" stroke-width="0.000000" id="id0000000096" >
<path id="id0000000151" d="M 468.733 251.674 C 469.332 251.674 469.924 251.389 470.297 250.921 C 470.67 250.453 470.816 249.813 470.683 249.229 C 470.55 248.646 470.14 248.132 469.601 247.872 C 469.062 247.613 468.405 247.613 467.865 247.872 C 467.326 248.132 466.916 248.646 466.783 249.229 C 466.65 249.813 466.796 250.453 467.169 250.921 C 467.543 251.389 468.135 251.674 468.733 251.674 " />
</g>

<g opacity="1.000000" fill="#1f77b4" stroke-width="0.000000" id="id0000000098" >
<path id="id0000000152" d="M 278.585 377.681 C 279.184 377.681 279.776 377.396 280.149 376.928 C 280.522 376.461 280.668 375.82 280.535 375.236 C 280.402 374.653 279.992 374.139 279.453 373.88 C 278.914 373.62 278.257 373.62 277.717 373.88 C 277.178 374.139 276.768 374.653 276.635 375.236 C 276.502 375.82 276.648 376.461 277.021 376.928 C 277.395 377.396 277.987 377.681 278.585 377.681 " />
</g>

<g opacity="1.000000" fill="#1f77b4" stroke-width="0.000000" id="id0000000100" >
<path id="id0000000153" d="M 299.98 398.696 C 300.578 398.696 301.17 398.411 301.543 397.943 C 301.916 397.475 302.063 396.834 301.929 396.251 C 301.796 395.668 301.387 395.154 300.847 394.894 C 300.308 394.634 299.651 394.634 299.112 394.894 C 298.573 395.154 298.163 395.668 298.03 396.251 C 297.897 396.834 298.043 397.475 298.416 397.943 C 298.789 398.411 299.381 398.696 299.98 398.696 " />
</g>

<g opacity="1.000000" fill="#1f77b4" stroke-width="0.000000" id="id0000000102" >
<path id="id0000000154" d="M 161.226 223.411 C 161.824 223.411 162.416 223.126 162.79 222.658 C 163.163 222.19 163.309 221.55 163.176 220.966 C 163.043 220.383 162.633 219.869 162.094 219.609 C 161.555 219.35 160.897 219.35 160.358 219.609 C 159.819 219.869 159.409 220.383 159.276 220.966 C 159.143 221.55 159.289 222.19 159.662 222.658 C 160.035 223.126 160.627 223.411 161.226 223.411 " />
</g>

<g opacity="1.000000" fill="#1f77b4" stroke-width="0.000000" id="id0000000104" >
<path id="id0000000155" d="M 203.915 256.175 C 204.514 256.175 205.106 255.889 205.479 255.422 C 205.852 254.954 205.998 254.313 205.865 253.729 C 205.732 253.146 205.322 252.632 204.783 252.373 C 204.244 252.113 203.587 252.113 203.047 252.373 C 202.508 252.632 202.099 253.146 201.965 253.729 C 201.832 254.313 201.979 254.954 202.352 255.422 C 202.725 255.889 203.317 256.175 203.915 256.175 " />
</g>

</g>

</g>

<polygon points="36,1 36,458 639,458 639,1 " stroke="black" stroke-width="1.000000" fill="none" id="id0000000156" pointer-events="none" class="rectangle" />
<polyline points="88.4248,458 88.4248,461 " fill="none" stroke-width="1.000000" stroke="black" id="id0000000157" class="line" />
<text id="id0000000158" transform="matrix(1 0 0 1 36 1)" x="52.424835" y="462.000000" dominant-baseline="hanging" text-anchor="middle" font-size="14.000000px" >
-4
</text>

<polyline points="191.721,458 191.721,461 " fill="none" stroke-width="1.000000" stroke="black" id="id0000000159" class="line" />
<text id="id0000000160" transform="matrix(1 0 0 1 36 1)" x="155.721420" y="462.000000" dominant-baseline="hanging" text-anchor="middle" font-size="14.000000px" >
-2
</text>

<polyline points="295.018,458 295.018,461 " fill="none" stroke-width="1.000000" stroke="black" id="id0000000161" class="line" />
<text id="id0000000162" transform="matrix(1 0 0 1 36 1)" x="259.018005" y="462.000000" dominant-baseline="hanging" text-anchor="middle" font-size="14.000000px" >
0
</text>

<polyline points="398.315,458 398.315,461 " fill="none" stroke-width="1.000000" stroke="black" id="id0000000163" class="line" />
<text id="id0000000164" transform="matrix(1 0 0 1 36 1)" x="362.314606" y="462.000000" dominant-baseline="hanging" text-anchor="middle" font-size="14.000000px" >
2
</text>

<polyline points="501.611,458 501.611,461 " fill="none" stroke-width="1.000000" stroke="black" id="id0000000165" class="line" />
<text id="id0000000166" transform="matrix(1 0 0 1 36 1)" x="465.611206" y="462.000000" dominant-baseline="hanging" text-anchor="middle" font-size="14.000000px" >
4
</text>

<polyline points="604.908,458 604.908,461 " fill="none" stroke-width="1.000000" stroke="black" id="id0000000167" class="line" />
<text id="id0000000168" transform="matrix(1 0 0 1 36 1)" x="568.907776" y="462.000000" dominant-baseline="hanging" text-anchor="middle" font-size="14.000000px" >
6
</text>

<polyline points="33,442.483 36,442.483 " fill="none" stroke-width="1.000000" stroke="black" id="id0000000169" class="line" />
<text id="id0000000170" transform="matrix(1 0 0 1 36 1)" x="-5.000000" y="441.483093" dominant-baseline="middle" text-anchor="end" font-size="14.000000px" >
-4
</text>

<polyline points="33,389.201 36,389.201 " fill="none" stroke-width="1.000000" stroke="black" id="id0000000171" class="line" />
<text id="id0000000172" transform="matrix(1 0 0 1 36 1)" x="-5.000000" y="388.201111" dominant-baseline="middle" text-anchor="end" font-size="14.000000px" >
-3
</text>

<polyline points="33,335.919 36,335.919 " fill="none" stroke-width="1.000000" stroke="black" id="id0000000173" class="line" />
<text id="id0000000174" transform="matrix(1 0 0 1 36 1)" x="-5.000000" y="334.919128" dominant-baseline="middle" text-anchor="end" font-size="14.000000px" >
-2
</text>

<polyline points="33,282.637 36,282.637 " fill="none" stroke-width="1.000000" stroke="black" id="id0000000175" class="line" />
<text id="id0000000176" transform="matrix(1 0 0 1 36 1)" x="-5.000000" y="281.637146" dominant-baseline="middle" text-anchor="end" font-size="14.000000px" >
-1
</text>

<polyline points="33,229.355 36,229.355 " fill="none" stroke-width="1.000000" stroke="black" id="id0000000177" class="line" />
<text id="id0000000178" transform="matrix(1 0 0 1 36 1)" x="-5.000000" y="228.355179" dominant-baseline="middle" text-anchor="end" font-size="14.000000px" >
0
</text>

<polyline points="33,176.073 36,176.073 " fill="none" stroke-width="1.000000" stroke="black" id="id0000000179" class="line" />
<text id="id0000000180" transform="matrix(1 0 0 1 36 1)" x="-5.000000" y="175.073212" dominant-baseline="middle" text-anchor="end" font-size="14.000000px" >
1
</text>

<polyline points="33,122.791 36,122.791 " fill="none" stroke-width="1.000000" stroke="black" id="id0000000181" class="line" />
<text id="id0000000182" transform="matrix(1 0 0 1 36 1)" x="-5.000000" y="121.791229" dominant-baseline="middle" text-anchor="end" font-size="14.000000px" >
2
</text>

<polyline points="33,69.5093 36,69.5093 " fill="none" stroke-width="1.000000" stroke="black" id="id0000000183" class="line" />
<text id="id0000000184" transform="matrix(1 0 0 1 36 1)" x="-5.000000" y="68.509277" dominant-baseline="middle" text-anchor="end" font-size="14.000000px" >
3
</text>

<polyline points="33,16.2273 36,16.2273 " fill="none" stroke-width="1.000000" stroke="black" id="id0000000185" class="line" />
<text id="id0000000186" transform="matrix(1 0 0 1 36 1)" x="-5.000000" y="15.227295" dominant-baseline="middle" text-anchor="end" font-size="14.000000px" >
4
</text>


</g>

</svg>
