<svg viewBox="0 0 640 480" height="100%" width="100%" xmlns:xlink="http://www.w3.org/1999/xlink" xmlns="http://www.w3.org/2000/svg" id="id0000000000" >
<g id="id0000000001" >
<clipPath id="id0000000001clipper" >
<polygon points="36,1 36,458 639,458 639,1 " id="id0000000004" class="rectangle" />
</clipPath>

<g clip-path="url(#id0000000001clipper)" id="id0000000003" >
<g id="id0000000005" >
<g opacity="1.000000" fill="#1f77b4" stroke-width="0.000000" id="id0000000006" >
<path id="id0000000106" d="M 238.231 380.851 C 238.51 380.851 238.789 380.792 239.045 380.678 C 239.3 380.564 239.531 380.397 239.717 380.189 C 239.904 379.982 240.047 379.734 240.133 379.469 C 240.22 379.203 240.249 378.919 240.22 378.642 C 240.191 378.364 240.103 378.093 239.963 377.851 C 239.824 377.609 239.633 377.397 239.407 377.233 C 239.181 377.069 238.92 376.953 238.647 376.895 C 238.374 376.836 238.088 376.836 237.815 376.895 C 237.542 376.953 237.281 377.069 237.056 377.233 C 236.83 377.397 236.639 377.609 236.499 377.851 C 236.359 378.093 236.271 378.364 236.242 378.642 C 236.213 378.919 236.243 379.203 236.329 379.469 C 236.415 379.734 236.558 379.982 236.745 380.189 C 236.932 380.397 237.163 380.564 237.418 380.678 " />
</g>

<g opacity="1.000000" fill="#1f77b4" stroke-width="0.000000" id="id0000000008" >
<path id="id0000000107" d="M 458.511 342.73 C 458.79 342.73 459.069 342.671 459.324 342.557 C 459.579 342.444 459.81 342.276 459.997 342.068 C 460.184 341.861 460.327 341.614 460.413 341.348 C 460.499 341.083 460.529 340.799 460.5 340.521 C 460.471 340.243 460.383 339.972 460.243 339.73 C 460.103 339.488 459.912 339.276 459.686 339.112 C 459.461 338.948 459.2 338.832 458.927 338.774 C 458.654 338.716 458.368 338.716 458.095 338.774 C 457.822 338.832 457.561 338.948 457.335 339.112 C 457.109 339.276 456.918 339.488 456.779 339.73 C 456.639 339.972 456.551 340.243 456.522 340.521 C 456.493 340.799 456.523 341.083 456.609 341.348 C 456.695 341.614 456.838 341.861 457.025 342.068 C 457.211 342.276 457.442 342.444 457.697 342.557 " />
</g>

<g opacity="1.000000" fill="#1f77b4" stroke-width="0.000000" id="id0000000010" >
<path id="id0000000108" d="M 321.627 440.156 C 321.906 440.156 322.185 440.097 322.44 439.983 C 322.695 439.87 322.926 439.702 323.113 439.494 C 323.3 439.287 323.442 439.04 323.529 438.774 C 323.615 438.508 323.645 438.225 323.616 437.947 C 323.586 437.669 323.498 437.398 323.359 437.156 C 323.219 436.914 323.028 436.702 322.802 436.538 C 322.576 436.374 322.315 436.258 322.042 436.2 C 321.769 436.142 321.484 436.142 321.211 436.2 C 320.938 436.258 320.677 436.374 320.451 436.538 C 320.225 436.702 320.034 436.914 319.894 437.156 C 319.755 437.398 319.667 437.669 319.637 437.947 C 319.608 438.225 319.638 438.508 319.724 438.774 C 319.811 439.04 319.953 439.287 320.14 439.494 C 320.327 439.702 320.558 439.87 320.813 439.983 " />
</g>

<g opacity="1.000000" fill="#1f77b4" stroke-width="0.000000" id="id0000000012" >
<path id="id0000000109" d="M 139.267 264.954 C 139.546 264.954 139.825 264.895 140.08 264.781 C 140.335 264.667 140.566 264.5 140.753 264.292 C 140.94 264.085 141.082 263.838 141.169 263.572 C 141.255 263.306 141.285 263.023 141.256 262.745 C 141.226 262.467 141.138 262.196 140.999 261.954 C 140.859 261.712 140.668 261.5 140.442 261.336 C 140.216 261.172 139.956 261.056 139.682 260.998 C 139.409 260.94 139.124 260.94 138.851 260.998 C 138.578 261.056 138.317 261.172 138.091 261.336 C 137.865 261.5 137.674 261.712 137.535 261.954 C 137.395 262.196 137.307 262.467 137.278 262.745 C 137.248 263.023 137.278 263.306 137.365 263.572 C 137.451 263.838 137.593 264.085 137.78 264.292 C 137.967 264.5 138.198 264.667 138.453 264.781 " />
</g>

<g opacity="1.000000" fill="#1f77b4" stroke-width="0.000000" id="id0000000014" >
<path id="id0000000110" d="M 383.665 223.753 C 383.944 223.753 384.223 223.693 384.478 223.58 C 384.734 223.466 384.964 223.298 385.151 223.091 C 385.338 222.883 385.481 222.636 385.567 222.371 C 385.653 222.105 385.683 221.821 385.654 221.544 C 385.625 221.266 385.537 220.994 385.397 220.753 C 385.257 220.511 385.066 220.299 384.841 220.135 C 384.615 219.97 384.354 219.854 384.081 219.796 C 383.808 219.738 383.522 219.738 383.249 219.796 C 382.976 219.854 382.715 219.97 382.489 220.135 C 382.263 220.299 382.073 220.511 381.933 220.753 C 381.793 220.994 381.705 221.266 381.676 221.544 C 381.647 221.821 381.677 222.105 381.763 222.371 C 381.849 222.636 381.992 222.883 382.179 223.091 C 382.366 223.298 382.596 223.466 382.851 223.58 " />
</g>

<g opacity="1.000000" fill="#1f77b4" stroke-width="0.000000" id="id0000000016" >
<path id="id0000000111" d="M 58.2303 382.202 C 58.5095 382.202 58.7887 382.143 59.0438 382.029 C 59.2989 381.916 59.5297 381.748 59.7166 381.54 C 59.9034 381.333 60.0461 381.086 60.1324 380.82 C 60.2187 380.555 60.2485 380.271 60.2193 379.993 C 60.1901 379.715 60.102 379.444 59.9623 379.202 C 59.8227 378.96 59.6318 378.748 59.4059 378.584 C 59.1799 378.42 58.9193 378.304 58.6461 378.246 C 58.373 378.188 58.0876 378.188 57.8145 378.246 C 57.5413 378.304 57.2806 378.42 57.0547 378.584 C 56.8288 378.748 56.6379 378.96 56.4982 379.202 C 56.3586 379.444 56.2704 379.715 56.2412 379.993 C 56.2121 380.271 56.2419 380.555 56.3282 380.82 C 56.4145 381.086 56.5571 381.333 56.744 381.54 C 56.9309 381.748 57.1617 381.916 57.4168 382.029 " />
</g>

<g opacity="1.000000" fill="#1f77b4" stroke-width="0.000000" id="id0000000018" >
<path id="id0000000112" d="M 386.521 164.017 C 386.8 164.017 387.08 163.958 387.335 163.844 C 387.59 163.731 387.821 163.563 388.007 163.355 C 388.194 163.148 388.337 162.901 388.423 162.635 C 388.51 162.37 388.539 162.086 388.51 161.808 C 388.481 161.53 388.393 161.259 388.253 161.017 C 388.114 160.775 387.923 160.563 387.697 160.399 C 387.471 160.235 387.21 160.119 386.937 160.061 C 386.664 160.003 386.379 160.003 386.105 160.061 C 385.832 160.119 385.572 160.235 385.346 160.399 C 385.12 160.563 384.929 160.775 384.789 161.017 C 384.65 161.259 384.561 161.53 384.532 161.808 C 384.503 162.086 384.533 162.37 384.619 162.635 C 384.705 162.901 384.848 163.148 385.035 163.355 C 385.222 163.563 385.453 163.731 385.708 163.844 " />
</g>

<g opacity="1.000000" fill="#1f77b4" stroke-width="0.000000" id="id0000000020" >
<path id="id0000000113" d="M 299.177 327.596 C 299.456 327.596 299.735 327.536 299.99 327.423 C 300.245 327.309 300.476 327.141 300.663 326.934 C 300.85 326.726 300.993 326.479 301.079 326.214 C 301.165 325.948 301.195 325.664 301.166 325.386 C 301.137 325.109 301.048 324.837 300.909 324.596 C 300.769 324.354 300.578 324.142 300.352 323.977 C 300.126 323.813 299.866 323.697 299.593 323.639 C 299.319 323.581 299.034 323.581 298.761 323.639 C 298.488 323.697 298.227 323.813 298.001 323.977 C 297.775 324.142 297.584 324.354 297.445 324.596 C 297.305 324.837 297.217 325.109 297.188 325.386 C 297.159 325.664 297.188 325.948 297.275 326.214 C 297.361 326.479 297.504 326.726 297.69 326.934 C 297.877 327.141 298.108 327.309 298.363 327.423 " />
</g>

<g opacity="1.000000" fill="#1f77b4" stroke-width="0.000000" id="id0000000022" >
<path id="id0000000114" d="M 313.128 210.636 C 313.408 210.636 313.687 210.577 313.942 210.463 C 314.197 210.349 314.428 210.182 314.615 209.974 C 314.801 209.767 314.944 209.519 315.03 209.254 C 315.117 208.988 315.146 208.705 315.117 208.427 C 315.088 208.149 315 207.878 314.86 207.636 C 314.721 207.394 314.53 207.182 314.304 207.018 C 314.078 206.854 313.817 206.738 313.544 206.68 C 313.271 206.622 312.986 206.622 312.712 206.68 C 312.439 206.738 312.179 206.854 311.953 207.018 C 311.727 207.182 311.536 207.394 311.396 207.636 C 311.257 207.878 311.168 208.149 311.139 208.427 C 311.11 208.705 311.14 208.988 311.226 209.254 C 311.312 209.519 311.455 209.767 311.642 209.974 C 311.829 210.182 312.06 210.349 312.315 210.463 " />
</g>

<g opacity="1.000000" fill="#1f77b4" stroke-width="0.000000" id="id0000000024" >
<path id="id0000000115" d="M 239.729 148.518 C 240.008 148.518 240.287 148.458 240.542 148.345 C 240.797 148.231 241.028 148.063 241.215 147.856 C 241.402 147.648 241.544 147.401 241.631 147.136 C 241.717 146.87 241.747 146.586 241.718 146.309 C 241.688 146.031 241.6 145.759 241.461 145.518 C 241.321 145.276 241.13 145.064 240.904 144.9 C 240.678 144.735 240.418 144.619 240.144 144.561 C 239.871 144.503 239.586 144.503 239.313 144.561 C 239.04 144.619 238.779 144.735 238.553 144.9 C 238.327 145.064 238.136 145.276 237.997 145.518 C 237.857 145.759 237.769 146.031 237.74 146.309 C 237.71 146.586 237.74 146.87 237.826 147.136 C 237.913 147.401 238.055 147.648 238.242 147.856 C 238.429 148.063 238.66 148.231 238.915 148.345 " />
</g>

<g opacity="1.000000" fill="#1f77b4" stroke-width="0.000000" id="id0000000026" >
<path id="id0000000116" d="M 312.717 278.547 C 312.996 278.547 313.275 278.488 313.53 278.374 C 313.785 278.261 314.016 278.093 314.203 277.885 C 314.39 277.678 314.533 277.431 314.619 277.165 C 314.705 276.9 314.735 276.616 314.706 276.338 C 314.677 276.06 314.588 275.789 314.449 275.547 C 314.309 275.305 314.118 275.093 313.892 274.929 C 313.666 274.765 313.406 274.649 313.133 274.591 C 312.859 274.533 312.574 274.533 312.301 274.591 C 312.028 274.649 311.767 274.765 311.541 274.929 C 311.315 275.093 311.124 275.305 310.985 275.547 C 310.845 275.789 310.757 276.06 310.728 276.338 C 310.698 276.616 310.728 276.9 310.815 277.165 C 310.901 277.431 311.044 277.678 311.23 277.885 C 311.417 278.093 311.648 278.261 311.903 278.374 " />
</g>

<g opacity="1.000000" fill="#1f77b4" stroke-width="0.000000" id="id0000000028" >
<path id="id0000000117" d="M 471.129 132.853 C 471.408 132.853 471.687 132.794 471.942 132.68 C 472.197 132.567 472.428 132.399 472.615 132.191 C 472.802 131.984 472.945 131.737 473.031 131.471 C 473.117 131.206 473.147 130.922 473.118 130.644 C 473.089 130.366 473 130.095 472.861 129.853 C 472.721 129.611 472.53 129.399 472.304 129.235 C 472.078 129.071 471.818 128.955 471.545 128.897 C 471.271 128.839 470.986 128.839 470.713 128.897 C 470.44 128.955 470.179 129.071 469.953 129.235 C 469.727 129.399 469.536 129.611 469.397 129.853 C 469.257 130.095 469.169 130.366 469.14 130.644 C 469.111 130.922 469.14 131.206 469.227 131.471 C 469.313 131.737 469.456 131.984 469.642 132.191 C 469.829 132.399 470.06 132.567 470.315 132.68 " />
</g>

<g opacity="1.000000" fill="#1f77b4" stroke-width="0.000000" id="id0000000030" >
<path id="id0000000118" d="M 160.23 271.911 C 160.51 271.911 160.789 271.851 161.044 271.738 C 161.299 271.624 161.53 271.457 161.717 271.249 C 161.903 271.042 162.046 270.794 162.132 270.529 C 162.219 270.263 162.249 269.979 162.219 269.702 C 162.19 269.424 162.102 269.153 161.962 268.911 C 161.823 268.669 161.632 268.457 161.406 268.293 C 161.18 268.129 160.919 268.013 160.646 267.954 C 160.373 267.896 160.088 267.896 159.814 267.954 C 159.541 268.013 159.281 268.129 159.055 268.293 C 158.829 268.457 158.638 268.669 158.498 268.911 C 158.359 269.153 158.27 269.424 158.241 269.702 C 158.212 269.979 158.242 270.263 158.328 270.529 C 158.414 270.794 158.557 271.042 158.744 271.249 C 158.931 271.457 159.162 271.624 159.417 271.738 " />
</g>

<g opacity="1.000000" fill="#1f77b4" stroke-width="0.000000" id="id0000000032" >
<path id="id0000000119" d="M 218.204 277.937 C 218.483 277.937 218.762 277.877 219.017 277.764 C 219.272 277.65 219.503 277.482 219.69 277.275 C 219.877 277.067 220.02 276.82 220.106 276.555 C 220.192 276.289 220.222 276.005 220.193 275.728 C 220.164 275.45 220.076 275.178 219.936 274.937 C 219.796 274.695 219.605 274.483 219.379 274.319 C 219.154 274.154 218.893 274.038 218.62 273.98 C 218.347 273.922 218.061 273.922 217.788 273.98 C 217.515 274.038 217.254 274.154 217.028 274.319 C 216.802 274.483 216.611 274.695 216.472 274.937 C 216.332 275.178 216.244 275.45 216.215 275.728 C 216.186 276.005 216.215 276.289 216.302 276.555 C 216.388 276.82 216.531 277.067 216.718 277.275 C 216.904 277.482 217.135 277.65 217.39 277.764 " />
</g>

<g opacity="1.000000" fill="#1f77b4" stroke-width="0.000000" id="id0000000034" >
<path id="id0000000120" d="M 250.967 84.147 C 251.246 84.147 251.526 84.0877 251.781 83.9741 C 252.036 83.8605 252.267 83.6928 252.453 83.4853 C 252.64 83.2777 252.783 83.0306 252.869 82.765 C 252.956 82.4994 252.985 82.2157 252.956 81.9379 C 252.927 81.6602 252.839 81.3888 252.699 81.147 C 252.56 80.9052 252.369 80.6931 252.143 80.529 C 251.917 80.3648 251.656 80.2487 251.383 80.1907 C 251.11 80.1326 250.824 80.1326 250.551 80.1907 C 250.278 80.2488 250.018 80.3648 249.792 80.529 C 249.566 80.6931 249.375 80.9052 249.235 81.147 C 249.095 81.3888 249.007 81.6602 248.978 81.9379 C 248.949 82.2157 248.979 82.4994 249.065 82.765 C 249.151 83.0306 249.294 83.2777 249.481 83.4853 C 249.668 83.6928 249.899 83.8605 250.154 83.9741 " />
</g>

<g opacity="1.000000" fill="#1f77b4" stroke-width="0.000000" id="id0000000036" >
<path id="id0000000121" d="M 305.179 270.726 C 305.459 270.726 305.738 270.667 305.993 270.553 C 306.248 270.44 306.479 270.272 306.666 270.064 C 306.853 269.857 306.995 269.61 307.081 269.344 C 307.168 269.078 307.198 268.795 307.168 268.517 C 307.139 268.239 307.051 267.968 306.911 267.726 C 306.772 267.484 306.581 267.272 306.355 267.108 C 306.129 266.944 305.868 266.828 305.595 266.77 C 305.322 266.712 305.037 266.712 304.764 266.77 C 304.49 266.828 304.23 266.944 304.004 267.108 C 303.778 267.272 303.587 267.484 303.447 267.726 C 303.308 267.968 303.22 268.239 303.19 268.517 C 303.161 268.795 303.191 269.078 303.277 269.344 C 303.364 269.61 303.506 269.857 303.693 270.064 C 303.88 270.272 304.111 270.44 304.366 270.553 " />
</g>

<g opacity="1.000000" fill="#1f77b4" stroke-width="0.000000" id="id0000000038" >
<path id="id0000000122" d="M 163.499 123.194 C 163.778 123.194 164.057 123.135 164.312 123.021 C 164.567 122.908 164.798 122.74 164.985 122.532 C 165.172 122.325 165.315 122.078 165.401 121.812 C 165.487 121.547 165.517 121.263 165.488 120.985 C 165.459 120.707 165.37 120.436 165.231 120.194 C 165.091 119.952 164.9 119.74 164.674 119.576 C 164.448 119.412 164.188 119.296 163.915 119.238 C 163.641 119.18 163.356 119.18 163.083 119.238 C 162.81 119.296 162.549 119.412 162.323 119.576 C 162.097 119.74 161.906 119.952 161.767 120.194 C 161.627 120.436 161.539 120.707 161.51 120.985 C 161.48 121.263 161.51 121.547 161.597 121.812 C 161.683 122.078 161.826 122.325 162.012 122.532 C 162.199 122.74 162.43 122.908 162.685 123.021 " />
</g>

<g opacity="1.000000" fill="#1f77b4" stroke-width="0.000000" id="id0000000040" >
<path id="id0000000123" d="M 142.03 261.95 C 142.309 261.95 142.588 261.89 142.843 261.777 C 143.098 261.663 143.329 261.495 143.516 261.288 C 143.703 261.08 143.845 260.833 143.932 260.568 C 144.018 260.302 144.048 260.018 144.019 259.741 C 143.989 259.463 143.901 259.192 143.762 258.95 C 143.622 258.708 143.431 258.496 143.205 258.332 C 142.979 258.168 142.719 258.051 142.445 257.993 C 142.172 257.935 141.887 257.935 141.614 257.993 C 141.341 258.051 141.08 258.168 140.854 258.332 C 140.628 258.496 140.437 258.708 140.298 258.95 C 140.158 259.192 140.07 259.463 140.041 259.741 C 140.011 260.018 140.041 260.302 140.127 260.568 C 140.214 260.833 140.356 261.08 140.543 261.288 C 140.73 261.495 140.961 261.663 141.216 261.777 " />
</g>

<g opacity="1.000000" fill="#1f77b4" stroke-width="0.000000" id="id0000000042" >
<path id="id0000000124" d="M 289.148 315.339 C 289.428 315.339 289.707 315.279 289.962 315.166 C 290.217 315.052 290.448 314.885 290.635 314.677 C 290.821 314.47 290.964 314.222 291.05 313.957 C 291.137 313.691 291.166 313.407 291.137 313.13 C 291.108 312.852 291.02 312.581 290.88 312.339 C 290.741 312.097 290.55 311.885 290.324 311.721 C 290.098 311.557 289.837 311.441 289.564 311.383 C 289.291 311.324 289.006 311.324 288.732 311.383 C 288.459 311.441 288.199 311.557 287.973 311.721 C 287.747 311.885 287.556 312.097 287.416 312.339 C 287.277 312.581 287.188 312.852 287.159 313.13 C 287.13 313.407 287.16 313.691 287.246 313.957 C 287.332 314.222 287.475 314.47 287.662 314.677 C 287.849 314.885 288.08 315.052 288.335 315.166 " />
</g>

<g opacity="1.000000" fill="#1f77b4" stroke-width="0.000000" id="id0000000044" >
<path id="id0000000125" d="M 302.012 342.065 C 302.291 342.065 302.571 342.006 302.826 341.892 C 303.081 341.779 303.312 341.611 303.499 341.403 C 303.685 341.196 303.828 340.949 303.914 340.683 C 304.001 340.418 304.03 340.134 304.001 339.856 C 303.972 339.578 303.884 339.307 303.744 339.065 C 303.605 338.823 303.414 338.611 303.188 338.447 C 302.962 338.283 302.701 338.167 302.428 338.109 C 302.155 338.051 301.87 338.051 301.596 338.109 C 301.323 338.167 301.063 338.283 300.837 338.447 C 300.611 338.611 300.42 338.823 300.28 339.065 C 300.141 339.307 300.052 339.578 300.023 339.856 C 299.994 340.134 300.024 340.418 300.11 340.683 C 300.196 340.949 300.339 341.196 300.526 341.403 C 300.713 341.611 300.944 341.779 301.199 341.892 " />
</g>

<g opacity="1.000000" fill="#1f77b4" stroke-width="0.000000" id="id0000000046" >
<path id="id0000000126" d="M 267.781 173.997 C 268.06 173.997 268.339 173.938 268.595 173.824 C 268.85 173.711 269.08 173.543 269.267 173.335 C 269.454 173.128 269.597 172.881 269.683 172.615 C 269.769 172.35 269.799 172.066 269.77 171.788 C 269.741 171.51 269.653 171.239 269.513 170.997 C 269.373 170.755 269.183 170.543 268.957 170.379 C 268.731 170.215 268.47 170.099 268.197 170.041 C 267.924 169.983 267.638 169.983 267.365 170.041 C 267.092 170.099 266.831 170.215 266.605 170.379 C 266.38 170.543 266.189 170.755 266.049 170.997 C 265.909 171.239 265.821 171.51 265.792 171.788 C 265.763 172.066 265.793 172.35 265.879 172.615 C 265.965 172.881 266.108 173.128 266.295 173.335 C 266.482 173.543 266.712 173.711 266.968 173.824 " />
</g>

<g opacity="1.000000" fill="#1f77b4" stroke-width="0.000000" id="id0000000048" >
<path id="id0000000127" d="M 452.882 22.844 C 453.161 22.844 453.44 22.7847 453.696 22.6711 C 453.951 22.5575 454.182 22.3898 454.368 22.1822 C 454.555 21.9747 454.698 21.7276 454.784 21.462 C 454.87 21.1964 454.9 20.9126 454.871 20.6349 C 454.842 20.3572 454.754 20.0858 454.614 19.844 C 454.475 19.6021 454.284 19.3901 454.058 19.2259 C 453.832 19.0618 453.571 18.9457 453.298 18.8877 C 453.025 18.8296 452.739 18.8296 452.466 18.8877 C 452.193 18.9457 451.932 19.0618 451.707 19.2259 C 451.481 19.3901 451.29 19.6021 451.15 19.844 C 451.01 20.0858 450.922 20.3572 450.893 20.6349 C 450.864 20.9126 450.894 21.1964 450.98 21.462 C 451.066 21.7276 451.209 21.9747 451.396 22.1822 C 451.583 22.3898 451.814 22.5575 452.069 22.6711 " />
</g>

<g opacity="1.000000" fill="#1f77b4" stroke-width="0.000000" id="id0000000050" >
<path id="id0000000128" d="M 344.414 218.637 C 344.694 218.637 344.973 218.578 345.228 218.464 C 345.483 218.351 345.714 218.183 345.901 217.976 C 346.088 217.768 346.23 217.521 346.317 217.255 C 346.403 216.99 346.433 216.706 346.404 216.428 C 346.374 216.151 346.286 215.879 346.147 215.637 C 346.007 215.395 345.816 215.183 345.59 215.019 C 345.364 214.855 345.103 214.739 344.83 214.681 C 344.557 214.623 344.272 214.623 343.999 214.681 C 343.725 214.739 343.465 214.855 343.239 215.019 C 343.013 215.183 342.822 215.395 342.682 215.637 C 342.543 215.879 342.455 216.151 342.425 216.428 C 342.396 216.706 342.426 216.99 342.512 217.255 C 342.599 217.521 342.741 217.768 342.928 217.976 C 343.115 218.183 343.346 218.351 343.601 218.464 " />
</g>

<g opacity="1.000000" fill="#1f77b4" stroke-width="0.000000" id="id0000000052" >
<path id="id0000000129" d="M 206.445 312.551 C 206.724 312.551 207.003 312.492 207.258 312.378 C 207.513 312.265 207.744 312.097 207.931 311.89 C 208.118 311.682 208.261 311.435 208.347 311.169 C 208.433 310.904 208.463 310.62 208.434 310.342 C 208.405 310.065 208.316 309.793 208.177 309.551 C 208.037 309.31 207.846 309.097 207.62 308.933 C 207.394 308.769 207.134 308.653 206.861 308.595 C 206.587 308.537 206.302 308.537 206.029 308.595 C 205.756 308.653 205.495 308.769 205.269 308.933 C 205.043 309.097 204.852 309.31 204.713 309.551 C 204.573 309.793 204.485 310.065 204.456 310.342 C 204.427 310.62 204.456 310.904 204.543 311.169 C 204.629 311.435 204.772 311.682 204.958 311.89 C 205.145 312.097 205.376 312.265 205.631 312.378 " />
</g>

<g opacity="1.000000" fill="#1f77b4" stroke-width="0.000000" id="id0000000054" >
<path id="id0000000130" d="M 361.056 226.291 C 361.335 226.291 361.614 226.231 361.87 226.118 C 362.125 226.004 362.355 225.836 362.542 225.629 C 362.729 225.421 362.872 225.174 362.958 224.909 C 363.044 224.643 363.074 224.359 363.045 224.082 C 363.016 223.804 362.928 223.532 362.788 223.291 C 362.648 223.049 362.458 222.837 362.232 222.673 C 362.006 222.508 361.745 222.392 361.472 222.334 C 361.199 222.276 360.913 222.276 360.64 222.334 C 360.367 222.392 360.106 222.508 359.88 222.673 C 359.655 222.837 359.464 223.049 359.324 223.291 C 359.184 223.532 359.096 223.804 359.067 224.082 C 359.038 224.359 359.068 224.643 359.154 224.909 C 359.24 225.174 359.383 225.421 359.57 225.629 C 359.757 225.836 359.987 226.004 360.243 226.118 " />
</g>

<g opacity="1.000000" fill="#1f77b4" stroke-width="0.000000" id="id0000000056" >
<path id="id0000000131" d="M 616.77 288.096 C 617.049 288.096 617.328 288.037 617.583 287.923 C 617.838 287.81 618.069 287.642 618.256 287.435 C 618.443 287.227 618.585 286.98 618.672 286.714 C 618.758 286.449 618.788 286.165 618.759 285.887 C 618.729 285.61 618.641 285.338 618.502 285.096 C 618.362 284.855 618.171 284.643 617.945 284.478 C 617.719 284.314 617.459 284.198 617.185 284.14 C 616.912 284.082 616.627 284.082 616.354 284.14 C 616.081 284.198 615.82 284.314 615.594 284.478 C 615.368 284.643 615.177 284.855 615.038 285.096 C 614.898 285.338 614.81 285.61 614.781 285.887 C 614.751 286.165 614.781 286.449 614.868 286.714 C 614.954 286.98 615.096 287.227 615.283 287.435 C 615.47 287.642 615.701 287.81 615.956 287.923 " />
</g>

<g opacity="1.000000" fill="#1f77b4" stroke-width="0.000000" id="id0000000058" >
<path id="id0000000132" d="M 330.716 276.7 C 330.995 276.7 331.274 276.64 331.529 276.527 C 331.784 276.413 332.015 276.245 332.202 276.038 C 332.389 275.83 332.531 275.583 332.618 275.318 C 332.704 275.052 332.734 274.768 332.705 274.491 C 332.675 274.213 332.587 273.941 332.448 273.7 C 332.308 273.458 332.117 273.246 331.891 273.082 C 331.665 272.917 331.405 272.801 331.131 272.743 C 330.858 272.685 330.573 272.685 330.3 272.743 C 330.027 272.801 329.766 272.917 329.54 273.082 C 329.314 273.246 329.123 273.458 328.984 273.7 C 328.844 273.941 328.756 274.213 328.727 274.491 C 328.697 274.768 328.727 275.052 328.814 275.318 C 328.9 275.583 329.042 275.83 329.229 276.038 C 329.416 276.245 329.647 276.413 329.902 276.527 " />
</g>

<g opacity="1.000000" fill="#1f77b4" stroke-width="0.000000" id="id0000000060" >
<path id="id0000000133" d="M 63.7606 44.2932 C 64.0398 44.2932 64.319 44.2338 64.5741 44.1202 C 64.8292 44.0067 65.06 43.8389 65.2469 43.6314 C 65.4337 43.4239 65.5764 43.1768 65.6627 42.9112 C 65.749 42.6456 65.7788 42.3618 65.7496 42.0841 C 65.7204 41.8064 65.6323 41.535 65.4926 41.2932 C 65.353 41.0513 65.1621 40.8393 64.9362 40.6751 C 64.7102 40.511 64.4496 40.3949 64.1764 40.3369 C 63.9033 40.2788 63.6179 40.2788 63.3448 40.3369 C 63.0716 40.3949 62.8109 40.511 62.585 40.6751 C 62.3591 40.8393 62.1682 41.0513 62.0285 41.2932 C 61.8889 41.535 61.8007 41.8064 61.7715 42.0841 C 61.7424 42.3618 61.7722 42.6456 61.8585 42.9112 C 61.9448 43.1768 62.0874 43.4239 62.2743 43.6314 C 62.4612 43.8389 62.692 44.0067 62.9471 44.1202 " />
</g>

<g opacity="1.000000" fill="#1f77b4" stroke-width="0.000000" id="id0000000062" >
<path id="id0000000134" d="M 267.728 141.171 C 268.007 141.171 268.286 141.111 268.541 140.998 C 268.796 140.884 269.027 140.717 269.214 140.509 C 269.401 140.301 269.544 140.054 269.63 139.789 C 269.716 139.523 269.746 139.239 269.717 138.962 C 269.688 138.684 269.599 138.413 269.46 138.171 C 269.32 137.929 269.129 137.717 268.903 137.553 C 268.677 137.389 268.417 137.272 268.144 137.214 C 267.87 137.156 267.585 137.156 267.312 137.214 C 267.039 137.272 266.778 137.389 266.552 137.553 C 266.326 137.717 266.135 137.929 265.996 138.171 C 265.856 138.413 265.768 138.684 265.739 138.962 C 265.71 139.239 265.739 139.523 265.826 139.789 C 265.912 140.054 266.055 140.301 266.241 140.509 C 266.428 140.717 266.659 140.884 266.914 140.998 " />
</g>

<g opacity="1.000000" fill="#1f77b4" stroke-width="0.000000" id="id0000000064" >
<path id="id0000000135" d="M 510.57 175.252 C 510.85 175.252 511.129 175.192 511.384 175.079 C 511.639 174.965 511.87 174.797 512.057 174.59 C 512.244 174.382 512.386 174.135 512.472 173.87 C 512.559 173.604 512.589 173.32 512.559 173.043 C 512.53 172.765 512.442 172.493 512.302 172.252 C 512.163 172.01 511.972 171.798 511.746 171.634 C 511.52 171.469 511.259 171.353 510.986 171.295 C 510.713 171.237 510.428 171.237 510.155 171.295 C 509.881 171.353 509.621 171.469 509.395 171.634 C 509.169 171.798 508.978 172.01 508.838 172.252 C 508.699 172.493 508.611 172.765 508.581 173.043 C 508.552 173.32 508.582 173.604 508.668 173.87 C 508.755 174.135 508.897 174.382 509.084 174.59 C 509.271 174.797 509.502 174.965 509.757 175.079 " />
</g>

<g opacity="1.000000" fill="#1f77b4" stroke-width="0.000000" id="id0000000066" >
<path id="id0000000136" d="M 396.642 436.192 C 396.921 436.192 397.2 436.133 397.456 436.02 C 397.711 435.906 397.942 435.738 398.128 435.531 C 398.315 435.323 398.458 435.076 398.544 434.81 C 398.631 434.545 398.66 434.261 398.631 433.983 C 398.602 433.706 398.514 433.434 398.374 433.192 C 398.235 432.951 398.044 432.739 397.818 432.574 C 397.592 432.41 397.331 432.294 397.058 432.236 C 396.785 432.178 396.499 432.178 396.226 432.236 C 395.953 432.294 395.692 432.41 395.467 432.574 C 395.241 432.739 395.05 432.951 394.91 433.192 C 394.77 433.434 394.682 433.706 394.653 433.983 C 394.624 434.261 394.654 434.545 394.74 434.81 C 394.826 435.076 394.969 435.323 395.156 435.531 C 395.343 435.738 395.574 435.906 395.829 436.02 " />
</g>

<g opacity="1.000000" fill="#1f77b4" stroke-width="0.000000" id="id0000000068" >
<path id="id0000000137" d="M 202.586 196.182 C 202.865 196.182 203.144 196.123 203.399 196.009 C 203.654 195.896 203.885 195.728 204.072 195.521 C 204.259 195.313 204.401 195.066 204.488 194.8 C 204.574 194.535 204.604 194.251 204.575 193.973 C 204.545 193.696 204.457 193.424 204.318 193.182 C 204.178 192.941 203.987 192.729 203.761 192.564 C 203.535 192.4 203.275 192.284 203.001 192.226 C 202.728 192.168 202.443 192.168 202.17 192.226 C 201.897 192.284 201.636 192.4 201.41 192.564 C 201.184 192.729 200.993 192.941 200.854 193.182 C 200.714 193.424 200.626 193.696 200.597 193.973 C 200.567 194.251 200.597 194.535 200.684 194.8 C 200.77 195.066 200.912 195.313 201.099 195.521 C 201.286 195.728 201.517 195.896 201.772 196.009 " />
</g>

<g opacity="1.000000" fill="#1f77b4" stroke-width="0.000000" id="id0000000070" >
<path id="id0000000138" d="M 403.334 87.5046 C 403.613 87.5046 403.892 87.4453 404.147 87.3317 C 404.402 87.2181 404.633 87.0504 404.82 86.8428 C 405.007 86.6353 405.15 86.3882 405.236 86.1226 C 405.322 85.857 405.352 85.5732 405.323 85.2955 C 405.294 85.0178 405.206 84.7464 405.066 84.5046 C 404.926 84.2627 404.735 84.0507 404.509 83.8865 C 404.284 83.7224 404.023 83.6063 403.75 83.5483 C 403.477 83.4902 403.191 83.4902 402.918 83.5483 C 402.645 83.6063 402.384 83.7224 402.158 83.8865 C 401.932 84.0507 401.741 84.2627 401.602 84.5046 C 401.462 84.7464 401.374 85.0178 401.345 85.2955 C 401.316 85.5732 401.345 85.857 401.432 86.1226 C 401.518 86.3882 401.661 86.6353 401.848 86.8428 C 402.034 87.0504 402.265 87.2181 402.52 87.3317 " />
</g>

<g opacity="1.000000" fill="#1f77b4" stroke-width="0.000000" id="id0000000072" >
<path id="id0000000139" d="M 423.692 305.011 C 423.971 305.011 424.25 304.952 424.505 304.838 C 424.761 304.725 424.991 304.557 425.178 304.35 C 425.365 304.142 425.508 303.895 425.594 303.629 C 425.68 303.364 425.71 303.08 425.681 302.802 C 425.652 302.525 425.564 302.253 425.424 302.011 C 425.284 301.769 425.093 301.557 424.868 301.393 C 424.642 301.229 424.381 301.113 424.108 301.055 C 423.835 300.997 423.549 300.997 423.276 301.055 C 423.003 301.113 422.742 301.229 422.516 301.393 C 422.29 301.557 422.1 301.769 421.96 302.011 C 421.82 302.253 421.732 302.525 421.703 302.802 C 421.674 303.08 421.704 303.364 421.79 303.629 C 421.876 303.895 422.019 304.142 422.206 304.35 C 422.393 304.557 422.623 304.725 422.879 304.838 " />
</g>

<g opacity="1.000000" fill="#1f77b4" stroke-width="0.000000" id="id0000000074" >
<path id="id0000000140" d="M 427.349 308.834 C 427.628 308.834 427.907 308.775 428.162 308.661 C 428.417 308.548 428.648 308.38 428.835 308.172 C 429.022 307.965 429.164 307.718 429.251 307.452 C 429.337 307.186 429.367 306.903 429.338 306.625 C 429.308 306.347 429.22 306.076 429.081 305.834 C 428.941 305.592 428.75 305.38 428.524 305.216 C 428.298 305.052 428.037 304.936 427.764 304.878 C 427.491 304.82 427.206 304.82 426.933 304.878 C 426.66 304.936 426.399 305.052 426.173 305.216 C 425.947 305.38 425.756 305.592 425.616 305.834 C 425.477 306.076 425.389 306.347 425.359 306.625 C 425.33 306.903 425.36 307.186 425.446 307.452 C 425.533 307.718 425.675 307.965 425.862 308.172 C 426.049 308.38 426.28 308.548 426.535 308.661 " />
</g>

<g opacity="1.000000" fill="#1f77b4" stroke-width="0.000000" id="id0000000076" >
<path id="id0000000141" d="M 212.467 231.733 C 212.746 231.733 213.025 231.674 213.28 231.56 C 213.535 231.447 213.766 231.279 213.953 231.071 C 214.14 230.864 214.282 230.617 214.369 230.351 C 214.455 230.085 214.485 229.802 214.456 229.524 C 214.426 229.246 214.338 228.975 214.199 228.733 C 214.059 228.491 213.868 228.279 213.642 228.115 C 213.416 227.951 213.156 227.835 212.882 227.777 C 212.609 227.719 212.324 227.719 212.051 227.777 C 211.778 227.835 211.517 227.951 211.291 228.115 C 211.065 228.279 210.874 228.491 210.735 228.733 C 210.595 228.975 210.507 229.246 210.478 229.524 C 210.448 229.802 210.478 230.085 210.564 230.351 C 210.651 230.617 210.793 230.864 210.98 231.071 C 211.167 231.279 211.398 231.447 211.653 231.56 " />
</g>

<g opacity="1.000000" fill="#1f77b4" stroke-width="0.000000" id="id0000000078" >
<path id="id0000000142" d="M 347.967 249.243 C 348.247 249.243 348.526 249.184 348.781 249.07 C 349.036 248.957 349.267 248.789 349.454 248.581 C 349.64 248.374 349.783 248.127 349.869 247.861 C 349.956 247.596 349.986 247.312 349.956 247.034 C 349.927 246.756 349.839 246.485 349.699 246.243 C 349.56 246.001 349.369 245.789 349.143 245.625 C 348.917 245.461 348.656 245.345 348.383 245.287 C 348.11 245.229 347.825 245.229 347.551 245.287 C 347.278 245.345 347.018 245.461 346.792 245.625 C 346.566 245.789 346.375 246.001 346.235 246.243 C 346.096 246.485 346.007 246.756 345.978 247.034 C 345.949 247.312 345.979 247.596 346.065 247.861 C 346.151 248.127 346.294 248.374 346.481 248.581 C 346.668 248.789 346.899 248.957 347.154 249.07 " />
</g>

<g opacity="1.000000" fill="#1f77b4" stroke-width="0.000000" id="id0000000080" >
<path id="id0000000143" d="M 434.09 296.944 C 434.369 296.944 434.648 296.885 434.903 296.772 C 435.159 296.658 435.389 296.49 435.576 296.283 C 435.763 296.075 435.906 295.828 435.992 295.562 C 436.078 295.297 436.108 295.013 436.079 294.735 C 436.05 294.458 435.962 294.186 435.822 293.944 C 435.682 293.703 435.491 293.491 435.266 293.326 C 435.04 293.162 434.779 293.046 434.506 292.988 C 434.233 292.93 433.947 292.93 433.674 292.988 C 433.401 293.046 433.14 293.162 432.914 293.326 C 432.688 293.491 432.498 293.703 432.358 293.944 C 432.218 294.186 432.13 294.458 432.101 294.735 C 432.072 295.013 432.102 295.297 432.188 295.562 C 432.274 295.828 432.417 296.075 432.604 296.283 C 432.791 296.49 433.021 296.658 433.276 296.772 " />
</g>

<g opacity="1.000000" fill="#1f77b4" stroke-width="0.000000" id="id0000000082" >
<path id="id0000000144" d="M 218.265 123.093 C 218.544 123.093 218.823 123.034 219.078 122.92 C 219.333 122.807 219.564 122.639 219.751 122.431 C 219.938 122.224 220.081 121.977 220.167 121.711 C 220.253 121.445 220.283 121.162 220.254 120.884 C 220.225 120.606 220.137 120.335 219.997 120.093 C 219.857 119.851 219.666 119.639 219.44 119.475 C 219.215 119.311 218.954 119.195 218.681 119.137 C 218.408 119.079 218.122 119.079 217.849 119.137 C 217.576 119.195 217.315 119.311 217.089 119.475 C 216.863 119.639 216.672 119.851 216.533 120.093 C 216.393 120.335 216.305 120.606 216.276 120.884 C 216.247 121.162 216.276 121.445 216.363 121.711 C 216.449 121.977 216.592 122.224 216.779 122.431 C 216.965 122.639 217.196 122.807 217.451 122.92 " />
</g>

<g opacity="1.000000" fill="#1f77b4" stroke-width="0.000000" id="id0000000084" >
<path id="id0000000145" d="M 237.672 184.866 C 237.952 184.866 238.231 184.806 238.486 184.693 C 238.741 184.579 238.972 184.411 239.159 184.204 C 239.345 183.996 239.488 183.749 239.574 183.484 C 239.661 183.218 239.691 182.934 239.661 182.657 C 239.632 182.379 239.544 182.108 239.404 181.866 C 239.265 181.624 239.074 181.412 238.848 181.248 C 238.622 181.083 238.361 180.967 238.088 180.909 C 237.815 180.851 237.53 180.851 237.257 180.909 C 236.983 180.967 236.723 181.083 236.497 181.248 C 236.271 181.412 236.08 181.624 235.94 181.866 C 235.801 182.108 235.712 182.379 235.683 182.657 C 235.654 182.934 235.684 183.218 235.77 183.484 C 235.857 183.749 235.999 183.996 236.186 184.204 C 236.373 184.411 236.604 184.579 236.859 184.693 " />
</g>

<g opacity="1.000000" fill="#1f77b4" stroke-width="0.000000" id="id0000000086" >
<path id="id0000000146" d="M 279.865 228.852 C 280.145 228.852 280.424 228.792 280.679 228.679 C 280.934 228.565 281.165 228.397 281.352 228.19 C 281.539 227.982 281.681 227.735 281.768 227.47 C 281.854 227.204 281.884 226.92 281.855 226.643 C 281.825 226.365 281.737 226.094 281.598 225.852 C 281.458 225.61 281.267 225.398 281.041 225.234 C 280.815 225.07 280.554 224.953 280.281 224.895 C 280.008 224.837 279.723 224.837 279.45 224.895 C 279.177 224.953 278.916 225.07 278.69 225.234 C 278.464 225.398 278.273 225.61 278.133 225.852 C 277.994 226.094 277.906 226.365 277.876 226.643 C 277.847 226.92 277.877 227.204 277.963 227.47 C 278.05 227.735 278.192 227.982 278.379 228.19 C 278.566 228.397 278.797 228.565 279.052 228.679 " />
</g>

<g opacity="1.000000" fill="#1f77b4" stroke-width="0.000000" id="id0000000088" >
<path id="id0000000147" d="M 268.336 35.3674 C 268.616 35.3674 268.895 35.3081 269.15 35.1945 C 269.405 35.081 269.636 34.9132 269.823 34.7057 C 270.009 34.4982 270.152 34.2511 270.238 33.9855 C 270.325 33.7199 270.354 33.4361 270.325 33.1584 C 270.296 32.8807 270.208 32.6093 270.068 32.3674 C 269.929 32.1256 269.738 31.9136 269.512 31.7494 C 269.286 31.5853 269.025 31.4692 268.752 31.4112 C 268.479 31.3531 268.194 31.3531 267.92 31.4112 C 267.647 31.4692 267.387 31.5853 267.161 31.7494 C 266.935 31.9136 266.744 32.1256 266.604 32.3674 C 266.465 32.6093 266.376 32.8807 266.347 33.1584 C 266.318 33.4361 266.348 33.7199 266.434 33.9855 C 266.52 34.2511 266.663 34.4982 266.85 34.7057 C 267.037 34.9132 267.268 35.081 267.523 35.1945 " />
</g>

<g opacity="1.000000" fill="#1f77b4" stroke-width="0.000000" id="id0000000090" >
<path id="id0000000148" d="M 274.98 63.6095 C 275.259 63.6095 275.538 63.5502 275.793 63.4366 C 276.048 63.323 276.279 63.1553 276.466 62.9478 C 276.653 62.7403 276.795 62.4931 276.882 62.2276 C 276.968 61.962 276.998 61.6782 276.969 61.4005 C 276.939 61.1227 276.851 60.8514 276.712 60.6095 C 276.572 60.3677 276.381 60.1556 276.155 59.9915 C 275.929 59.8274 275.669 59.7113 275.395 59.6532 C 275.122 59.5952 274.837 59.5952 274.564 59.6532 C 274.291 59.7113 274.03 59.8274 273.804 59.9915 C 273.578 60.1556 273.387 60.3677 273.247 60.6095 C 273.108 60.8514 273.02 61.1227 272.991 61.4005 C 272.961 61.6782 272.991 61.962 273.077 62.2276 C 273.164 62.4931 273.306 62.7403 273.493 62.9478 C 273.68 63.1553 273.911 63.323 274.166 63.4366 " />
</g>

<g opacity="1.000000" fill="#1f77b4" stroke-width="0.000000" id="id0000000092" >
<path id="id0000000149" d="M 373.203 287.528 C 373.483 287.528 373.762 287.468 374.017 287.355 C 374.272 287.241 374.503 287.073 374.69 286.866 C 374.876 286.658 375.019 286.411 375.105 286.146 C 375.192 285.88 375.221 285.596 375.192 285.319 C 375.163 285.041 375.075 284.77 374.935 284.528 C 374.796 284.286 374.605 284.074 374.379 283.91 C 374.153 283.745 373.892 283.629 373.619 283.571 C 373.346 283.513 373.061 283.513 372.787 283.571 C 372.514 283.629 372.254 283.745 372.028 283.91 C 371.802 284.074 371.611 284.286 371.471 284.528 C 371.332 284.77 371.243 285.041 371.214 285.319 C 371.185 285.596 371.215 285.88 371.301 286.146 C 371.387 286.411 371.53 286.658 371.717 286.866 C 371.904 287.073 372.135 287.241 372.39 287.355 " />
</g>

<g opacity="1.000000" fill="#1f77b4" stroke-width="0.000000" id="id0000000094" >
<path id="id0000000150" d="M 217.191 221.77 C 217.471 221.77 217.75 221.711 218.005 221.597 C 218.26 221.484 218.491 221.316 218.678 221.108 C 218.864 220.901 219.007 220.654 219.093 220.388 C 219.18 220.123 219.21 219.839 219.18 219.561 C 219.151 219.283 219.063 219.012 218.923 218.77 C 218.784 218.528 218.593 218.316 218.367 218.152 C 218.141 217.988 217.88 217.872 217.607 217.814 C 217.334 217.756 217.049 217.756 216.775 217.814 C 216.502 217.872 216.242 217.988 216.016 218.152 C 215.79 218.316 215.599 218.528 215.459 218.77 C 215.32 219.012 215.231 219.283 215.202 219.561 C 215.173 219.839 215.203 220.123 215.289 220.388 C 215.375 220.654 215.518 220.901 215.705 221.108 C 215.892 221.316 216.123 221.484 216.378 221.597 " />
</g>

<g opacity="1.000000" fill="#1f77b4" stroke-width="0.000000" id="id0000000096" >
<path id="id0000000151" d="M 468.733 251.674 C 469.012 251.674 469.292 251.615 469.547 251.501 C 469.802 251.388 470.033 251.22 470.219 251.012 C 470.406 250.805 470.549 250.558 470.635 250.292 C 470.722 250.027 470.751 249.743 470.722 249.465 C 470.693 249.187 470.605 248.916 470.465 248.674 C 470.326 248.432 470.135 248.22 469.909 248.056 C 469.683 247.892 469.422 247.776 469.149 247.718 C 468.876 247.66 468.59 247.66 468.317 247.718 C 468.044 247.776 467.784 247.892 467.558 248.056 C 467.332 248.22 467.141 248.432 467.001 248.674 C 466.861 248.916 466.773 249.187 466.744 249.465 C 466.715 249.743 466.745 250.027 466.831 250.292 C 466.917 250.558 467.06 250.805 467.247 251.012 C 467.434 251.22 467.665 251.388 467.92 251.501 " />
</g>

<g opacity="1.000000" fill="#1f77b4" stroke-width="0.000000" id="id0000000098" >
<path id="id0000000152" d="M 278.585 377.681 C 278.864 377.681 279.143 377.622 279.399 377.509 C 279.654 377.395 279.885 377.227 280.071 377.02 C 280.258 376.812 280.401 376.565 280.487 376.299 C 280.574 376.034 280.603 375.75 280.574 375.472 C 280.545 375.195 280.457 374.923 280.317 374.681 C 280.178 374.44 279.987 374.228 279.761 374.063 C 279.535 373.899 279.274 373.783 279.001 373.725 C 278.728 373.667 278.442 373.667 278.169 373.725 C 277.896 373.783 277.635 373.899 277.41 374.063 C 277.184 374.228 276.993 374.44 276.853 374.681 C 276.713 374.923 276.625 375.195 276.596 375.472 C 276.567 375.75 276.597 376.034 276.683 376.299 C 276.769 376.565 276.912 376.812 277.099 377.02 C 277.286 377.227 277.517 377.395 277.772 377.509 " />
</g>

<g opacity="1.000000" fill="#1f77b4" stroke-width="0.000000" id="id0000000100" >
<path id="id0000000153" d="M 299.98 398.696 C 300.259 398.696 300.538 398.637 300.793 398.523 C 301.048 398.41 301.279 398.242 301.466 398.034 C 301.653 397.827 301.795 397.58 301.882 397.314 C 301.968 397.049 301.998 396.765 301.969 396.487 C 301.939 396.209 301.851 395.938 301.712 395.696 C 301.572 395.454 301.381 395.242 301.155 395.078 C 300.929 394.914 300.669 394.798 300.395 394.74 C 300.122 394.682 299.837 394.682 299.564 394.74 C 299.291 394.798 299.03 394.914 298.804 395.078 C 298.578 395.242 298.387 395.454 298.248 395.696 C 298.108 395.938 298.02 396.209 297.991 396.487 C 297.961 396.765 297.991 397.049 298.078 397.314 C 298.164 397.58 298.306 397.827 298.493 398.034 C 298.68 398.242 298.911 398.41 299.166 398.523 " />
</g>

<g opacity="1.000000" fill="#1f77b4" stroke-width="0.000000" id="id0000000102" >
<path id="id0000000154" d="M 161.226 223.411 C 161.505 223.411 161.784 223.352 162.039 223.238 C 162.294 223.125 162.525 222.957 162.712 222.75 C 162.899 222.542 163.042 222.295 163.128 222.029 C 163.214 221.764 163.244 221.48 163.215 221.202 C 163.186 220.924 163.098 220.653 162.958 220.411 C 162.818 220.169 162.627 219.957 162.401 219.793 C 162.176 219.629 161.915 219.513 161.642 219.455 C 161.369 219.397 161.083 219.397 160.81 219.455 C 160.537 219.513 160.276 219.629 160.05 219.793 C 159.824 219.957 159.633 220.169 159.494 220.411 C 159.354 220.653 159.266 220.924 159.237 221.202 C 159.208 221.48 159.237 221.764 159.324 222.029 C 159.41 222.295 159.553 222.542 159.74 222.75 C 159.926 222.957 160.157 223.125 160.412 223.238 " />
</g>

<g opacity="1.000000" fill="#1f77b4" stroke-width="0.000000" id="id0000000104" >
<path id="id0000000155" d="M 203.915 256.175 C 204.195 256.175 204.474 256.115 204.729 256.002 C 204.984 255.888 205.215 255.72 205.402 255.513 C 205.588 255.305 205.731 255.058 205.817 254.793 C 205.904 254.527 205.933 254.243 205.904 253.965 C 205.875 253.688 205.787 253.416 205.647 253.175 C 205.508 252.933 205.317 252.721 205.091 252.557 C 204.865 252.392 204.604 252.276 204.331 252.218 C 204.058 252.16 203.773 252.16 203.499 252.218 C 203.226 252.276 202.966 252.392 202.74 252.557 C 202.514 252.721 202.323 252.933 202.183 253.175 C 202.044 253.416 201.955 253.688 201.926 253.965 C 201.897 254.243 201.927 254.527 202.013 254.793 C 202.099 255.058 202.242 255.305 202.429 255.513 C 202.616 255.72 202.847 255.888 203.102 256.002 " />
</g>

</g>

</g>

<polygon points="36,1 36,458 639,458 639,1 " stroke="black" stroke-width="1.000000" fill="none" id="id0000000156" pointer-events="none" class="rectangle" />
<polyline points="88.4248,458 88.4248,461 " fill="none" stroke-width="1.000000" stroke="black" id="id0000000157" class="line" />
<text id="id0000000158" transform="matrix(1 0 0 1 36 1)" x="52.424835" y="462.000000" dominant-baseline="hanging" text-anchor="middle" font-size="14.000000px" >
-4
</text>

<polyline points="191.721,458 191.721,461 " fill="none" stroke-width="1.000000" stroke="black" id="id0000000159" class="line" />
<text id="id0000000160" transform="matrix(1 0 0 1 36 1)" x="155.721420" y="462.000000" dominant-baseline="hanging" text-anchor="middle" font-size="14.000000px" >
-2
</text>

<polyline points="295.018,458 295.018,461 " fill="none" stroke-width="1.000000" stroke="black" id="id0000000161" class="line" />
<text id="id0000000162" transform="matrix(1 0 0 1 36 1)" x="259.018005" y="462.000000" dominant-baseline="hanging" text-anchor="middle" font-size="14.000000px" >
0
</text>

<polyline points="398.315,458 398.315,461 " fill="none" stroke-width="1.000000" stroke="black" id="id0000000163" class="line" />
<text id="id0000000164" transform="matrix(1 0 0 1 36 1)" x="362.314606" y="462.000000" dominant-baseline="hanging" text-anchor="middle" font-size="14.000000px" >
2
</text>

<polyline points="501.611,458 501.611,461 " fill="none" stroke-width="1.000000" stroke="black" id="id0000000165" class="line" />
<text id="id0000000166" transform="matrix(1 0 0 1 36 1)" x="465.611206" y="462.000000" dominant-baseline="hanging" text-anchor="middle" font-size="14.000000px" >
4
</text>

<polyline points="604.908,458 604.908,461 " fill="none" stroke-width="1.000000" stroke="black" id="id0000000167" class="line" />
<text id="id0000000168" transform="matrix(1 0 0 1 36 1)" x="568.907776" y="462.000000" dominant-baseline="hanging" text-anchor="middle" font-size="14.000000px" >
6
</text>

<polyline points="33,442.483 36,442.483 " fill="none" stroke-width="1.000000" stroke="black" id="id0000000169" class="line" />
<text id="id0000000170" transform="matrix(1 0 0 1 36 1)" x="-5.000000" y="441.483093" dominant-baseline="middle" text-anchor="end" font-size="14.000000px" >
-4
</text>

<polyline points="33,389.201 36,389.201 " fill="none" stroke-width="1.000000" stroke="black" id="id0000000171" class="line" />
<text id="id0000000172" transform="matrix(1 0 0 1 36 1)" x="-5.000000" y="388.201111" dominant-baseline="middle" text-anchor="end" font-size="14.000000px" >
-3
</text>

<polyline points="33,335.919 36,335.919 " fill="none" stroke-width="1.000000" stroke="black" id="id0000000173" class="line" />
<text id="id0000000174" transform="matrix(1 0 0 1 36 1)" x="-5.000000" y="334.919128" dominant-baseline="middle" text-anchor="end" font-size="14.000000px" >
-2
</text>

<polyline points="33,282.637 36,282.637 " fill="none" stroke-width="1.000000" stroke="black" id="id0000000175" class="line" />
<text id="id0000000176" transform="matrix(1 0 0 1 36 1)" x="-5.000000" y="281.637146" dominant-baseline="middle" text-anchor="end" font-size="14.000000px" >
-1
</text>

<polyline points="33,229.355 36,229.355 " fill="none" stroke-width="1.000000" stroke="black" id="id0000000177" class="line" />
<text id="id0000000178" transform="matrix(1 0 0 1 36 1)" x="-5.000000" y="228.355179" dominant-baseline="middle" text-anchor="end" font-size="14.000000px" >
0
</text>

<polyline points="33,176.073 36,176.073 " fill="none" stroke-width="1.000000" stroke="black" id="id0000000179" class="line" />
<text id="id0000000180" transform="matrix(1 0 0 1 36 1)" x="-5.000000" y="175.073212" dominant-baseline="middle" text-anchor="end" font-size="14.000000px" >
1
</text>

<polyline points="33,122.791 36,122.791 " fill="none" stroke-width="1.000000" stroke="black" id="id0000000181" class="line" />
<text id="id0000000182" transform="matrix(1 0 0 1 36 1)" x="-5.000000" y="121.791229" dominant-baseline="middle" text-anchor="end" font-size="14.000000px" >
2
</text>

<polyline points="33,69.5093 36,69.5093 " fill="none" stroke-width="1.000000" stroke="black" id="id0000000183" class="line" />
<text id="id0000000184" transform="matrix(1 0 0 1 36 1)" x="-5.000000" y="68.509277" dominant-baseline="middle" text-anchor="end" font-size="14.000000px" >
3
</text>

<polyline points="33,16.2273 36,16.2273 " fill="none" stroke-width="1.000000" stroke="black" id="id0000000185" class="line" />
<text id="id0000000186" transform="matrix(1 0 0 1 36 1)" x="-5.000000" y="15.227295" dominant-baseline="middle" text-anchor="end" font-size="14.000000px" >
4
</text>


</g>

</svg>
