<svg viewBox="0 0 640 480" height="100%" width="100%" xmlns:xlink="http://www.w3.org/1999/xlink" xmlns="http://www.w3.org/2000/svg" id="id0000000449" >
<g id="id0000000450" >
<clipPath id="id0000000450clipper" >
<polygon points="36,1 36,458 639,458 639,1 " id="id0000000453" class="rectangle" />
</clipPath>

<g clip-path="url(#id0000000450clipper)" id="id0000000452" >
<g id="id0000000454" >
<g opacity="0.500000" fill="red" stroke-width="0.000000" id="id0000000455" >
<path id="id0000000555" d="M 260.677 381.792 C 261.874 381.792 263.058 381.222 263.804 380.286 C 264.55 379.351 264.843 378.069 264.577 376.902 C 264.31 375.735 263.491 374.708 262.412 374.188 C 261.334 373.669 260.02 373.669 258.941 374.188 C 257.863 374.708 257.043 375.735 256.777 376.902 C 256.511 378.069 256.803 379.351 257.55 380.286 C 258.296 381.222 259.48 381.792 260.677 381.792 " />
</g>

<g opacity="0.500000" fill="red" stroke-width="0.000000" id="id0000000457" >
<path id="id0000000556" d="M 442.35 400.382 C 443.547 400.382 444.731 399.811 445.477 398.876 C 446.224 397.94 446.516 396.658 446.25 395.492 C 445.983 394.325 445.164 393.297 444.086 392.778 C 443.007 392.259 441.693 392.259 440.615 392.778 C 439.536 393.297 438.717 394.325 438.45 395.492 C 438.184 396.658 438.477 397.94 439.223 398.876 C 439.969 399.811 441.153 400.382 442.35 400.382 " />
</g>

<g opacity="0.500000" fill="red" stroke-width="0.000000" id="id0000000459" >
<path id="id0000000557" d="M 198.755 356.323 C 199.952 356.323 201.136 355.753 201.882 354.817 C 202.628 353.881 202.921 352.6 202.655 351.433 C 202.388 350.266 201.569 349.238 200.49 348.719 C 199.412 348.2 198.098 348.2 197.019 348.719 C 195.941 349.238 195.122 350.266 194.855 351.433 C 194.589 352.6 194.881 353.881 195.628 354.817 C 196.374 355.753 197.558 356.323 198.755 356.323 " />
</g>

<g opacity="0.500000" fill="red" stroke-width="0.000000" id="id0000000461" >
<path id="id0000000558" d="M 115.422 411.51 C 116.619 411.51 117.803 410.939 118.549 410.004 C 119.296 409.068 119.588 407.787 119.322 406.62 C 119.055 405.453 118.236 404.425 117.158 403.906 C 116.079 403.387 114.765 403.387 113.686 403.906 C 112.608 404.425 111.789 405.453 111.522 406.62 C 111.256 407.787 111.549 409.068 112.295 410.004 C 113.041 410.939 114.225 411.51 115.422 411.51 " />
</g>

<g opacity="0.500000" fill="red" stroke-width="0.000000" id="id0000000463" >
<path id="id0000000559" d="M 99.268 385.634 C 100.465 385.634 101.649 385.064 102.395 384.128 C 103.142 383.192 103.434 381.911 103.168 380.744 C 102.901 379.577 102.082 378.55 101.004 378.03 C 99.9253 377.511 98.6108 377.511 97.5325 378.03 C 96.4542 378.55 95.6346 379.577 95.3683 380.744 C 95.102 381.911 95.3945 383.192 96.1407 384.128 C 96.8869 385.064 98.0712 385.634 99.268 385.634 " />
</g>

<g opacity="0.500000" fill="red" stroke-width="0.000000" id="id0000000465" >
<path id="id0000000560" d="M 123.753 419.001 C 124.95 419.001 126.134 418.431 126.88 417.495 C 127.626 416.559 127.919 415.278 127.652 414.111 C 127.386 412.944 126.567 411.916 125.488 411.397 C 124.41 410.878 123.095 410.878 122.017 411.397 C 120.939 411.916 120.119 412.944 119.853 414.111 C 119.587 415.278 119.879 416.559 120.625 417.495 C 121.372 418.431 122.556 419.001 123.753 419.001 " />
</g>

<g opacity="0.500000" fill="red" stroke-width="0.000000" id="id0000000467" >
<path id="id0000000561" d="M 575.732 426.086 C 576.929 426.086 578.113 425.516 578.859 424.58 C 579.606 423.644 579.898 422.363 579.632 421.196 C 579.365 420.029 578.546 419.001 577.468 418.482 C 576.389 417.963 575.075 417.963 573.996 418.482 C 572.918 419.001 572.099 420.029 571.832 421.196 C 571.566 422.363 571.858 423.644 572.605 424.58 C 573.351 425.516 574.535 426.086 575.732 426.086 " />
</g>

<g opacity="0.500000" fill="red" stroke-width="0.000000" id="id0000000469" >
<path id="id0000000562" d="M 161.666 354.522 C 162.863 354.522 164.048 353.952 164.794 353.016 C 165.54 352.08 165.832 350.799 165.566 349.632 C 165.3 348.465 164.48 347.437 163.402 346.918 C 162.324 346.399 161.009 346.399 159.931 346.918 C 158.853 347.437 158.033 348.465 157.767 349.632 C 157.5 350.799 157.793 352.08 158.539 353.016 C 159.285 353.952 160.47 354.522 161.666 354.522 " />
</g>

<g opacity="0.500000" fill="red" stroke-width="0.000000" id="id0000000471" >
<path id="id0000000563" d="M 129.224 404.178 C 130.42 404.178 131.605 403.608 132.351 402.672 C 133.097 401.736 133.39 400.455 133.123 399.288 C 132.857 398.121 132.037 397.094 130.959 396.574 C 129.881 396.055 128.566 396.055 127.488 396.574 C 126.41 397.094 125.59 398.121 125.324 399.288 C 125.058 400.455 125.35 401.736 126.096 402.672 C 126.842 403.608 128.027 404.178 129.224 404.178 " />
</g>

<g opacity="0.500000" fill="red" stroke-width="0.000000" id="id0000000473" >
<path id="id0000000564" d="M 158.578 354.445 C 159.775 354.445 160.959 353.875 161.706 352.939 C 162.452 352.003 162.744 350.722 162.478 349.555 C 162.212 348.388 161.392 347.36 160.314 346.841 C 159.236 346.322 157.921 346.322 156.843 346.841 C 155.764 347.36 154.945 348.388 154.679 349.555 C 154.412 350.722 154.705 352.003 155.451 352.939 C 156.197 353.875 157.381 354.445 158.578 354.445 " />
</g>

<g opacity="0.500000" fill="red" stroke-width="0.000000" id="id0000000475" >
<path id="id0000000565" d="M 290.146 418.626 C 291.343 418.626 292.527 418.056 293.273 417.12 C 294.019 416.184 294.312 414.903 294.046 413.736 C 293.779 412.569 292.96 411.541 291.881 411.022 C 290.803 410.503 289.489 410.503 288.41 411.022 C 287.332 411.541 286.513 412.569 286.246 413.736 C 285.98 414.903 286.272 416.184 287.019 417.12 C 287.765 418.056 288.949 418.626 290.146 418.626 " />
</g>

<g opacity="0.500000" fill="red" stroke-width="0.000000" id="id0000000477" >
<path id="id0000000566" d="M 171.718 431.914 C 172.915 431.914 174.1 431.344 174.846 430.408 C 175.592 429.472 175.884 428.191 175.618 427.024 C 175.352 425.857 174.532 424.829 173.454 424.31 C 172.376 423.791 171.061 423.791 169.983 424.31 C 168.905 424.829 168.085 425.857 167.819 427.024 C 167.552 428.191 167.845 429.472 168.591 430.408 C 169.337 431.344 170.522 431.914 171.718 431.914 " />
</g>

<g opacity="0.500000" fill="red" stroke-width="0.000000" id="id0000000479" >
<path id="id0000000567" d="M 125.235 389.195 C 126.431 389.195 127.616 388.625 128.362 387.689 C 129.108 386.753 129.401 385.472 129.134 384.305 C 128.868 383.138 128.048 382.11 126.97 381.591 C 125.892 381.072 124.577 381.072 123.499 381.591 C 122.421 382.11 121.601 383.138 121.335 384.305 C 121.068 385.472 121.361 386.753 122.107 387.689 C 122.853 388.625 124.038 389.195 125.235 389.195 " />
</g>

<g opacity="0.500000" fill="red" stroke-width="0.000000" id="id0000000481" >
<path id="id0000000568" d="M 250.499 349.741 C 251.696 349.741 252.88 349.171 253.626 348.235 C 254.372 347.299 254.665 346.018 254.399 344.851 C 254.132 343.684 253.313 342.656 252.234 342.137 C 251.156 341.618 249.842 341.618 248.763 342.137 C 247.685 342.656 246.866 343.684 246.599 344.851 C 246.333 346.018 246.625 347.299 247.372 348.235 C 248.118 349.171 249.302 349.741 250.499 349.741 " />
</g>

<g opacity="0.500000" fill="red" stroke-width="0.000000" id="id0000000483" >
<path id="id0000000569" d="M 139.845 387.272 C 141.042 387.272 142.226 386.701 142.972 385.766 C 143.718 384.83 144.011 383.548 143.745 382.382 C 143.478 381.215 142.659 380.187 141.58 379.668 C 140.502 379.149 139.188 379.149 138.109 379.668 C 137.031 380.187 136.211 381.215 135.945 382.382 C 135.679 383.548 135.971 384.83 136.718 385.766 C 137.464 386.701 138.648 387.272 139.845 387.272 " />
</g>

<g opacity="0.500000" fill="red" stroke-width="0.000000" id="id0000000485" >
<path id="id0000000570" d="M 179.153 432.336 C 180.35 432.336 181.534 431.766 182.28 430.83 C 183.026 429.894 183.319 428.613 183.052 427.446 C 182.786 426.279 181.967 425.251 180.888 424.732 C 179.81 424.213 178.496 424.213 177.417 424.732 C 176.339 425.251 175.519 426.279 175.253 427.446 C 174.987 428.613 175.279 429.894 176.025 430.83 C 176.772 431.766 177.956 432.336 179.153 432.336 " />
</g>

<g opacity="0.500000" fill="red" stroke-width="0.000000" id="id0000000487" >
<path id="id0000000571" d="M 537.5 403.238 C 538.697 403.238 539.882 402.668 540.628 401.732 C 541.374 400.796 541.666 399.515 541.4 398.348 C 541.134 397.181 540.314 396.153 539.236 395.634 C 538.158 395.115 536.843 395.115 535.765 395.634 C 534.687 396.153 533.867 397.181 533.601 398.348 C 533.334 399.515 533.627 400.796 534.373 401.732 C 535.119 402.668 536.304 403.238 537.5 403.238 " />
</g>

<g opacity="0.500000" fill="red" stroke-width="0.000000" id="id0000000489" >
<path id="id0000000572" d="M 124.877 427.68 C 126.074 427.68 127.258 427.11 128.004 426.174 C 128.75 425.239 129.043 423.957 128.777 422.79 C 128.51 421.623 127.691 420.596 126.612 420.076 C 125.534 419.557 124.22 419.557 123.141 420.076 C 122.063 420.596 121.244 421.623 120.977 422.79 C 120.711 423.957 121.003 425.239 121.75 426.174 C 122.496 427.11 123.68 427.68 124.877 427.68 " />
</g>

<g opacity="0.500000" fill="red" stroke-width="0.000000" id="id0000000491" >
<path id="id0000000573" d="M 225.017 421.378 C 226.214 421.378 227.398 420.808 228.144 419.872 C 228.891 418.937 229.183 417.655 228.917 416.488 C 228.65 415.321 227.831 414.294 226.753 413.774 C 225.674 413.255 224.36 413.255 223.281 413.774 C 222.203 414.294 221.384 415.321 221.117 416.488 C 220.851 417.655 221.144 418.937 221.89 419.872 C 222.636 420.808 223.82 421.378 225.017 421.378 " />
</g>

<g opacity="0.500000" fill="red" stroke-width="0.000000" id="id0000000493" >
<path id="id0000000574" d="M 199.286 261.792 C 200.483 261.792 201.667 261.221 202.414 260.286 C 203.16 259.35 203.452 258.068 203.186 256.902 C 202.92 255.735 202.1 254.707 201.022 254.188 C 199.944 253.669 198.629 253.669 197.551 254.188 C 196.472 254.707 195.653 255.735 195.387 256.902 C 195.12 258.068 195.413 259.35 196.159 260.286 C 196.905 261.221 198.089 261.792 199.286 261.792 " />
</g>

<g opacity="0.500000" fill="red" stroke-width="0.000000" id="id0000000495" >
<path id="id0000000575" d="M 106.916 435.639 C 108.112 435.639 109.297 435.068 110.043 434.133 C 110.789 433.197 111.082 431.915 110.815 430.749 C 110.549 429.582 109.729 428.554 108.651 428.035 C 107.573 427.515 106.258 427.515 105.18 428.035 C 104.102 428.554 103.282 429.582 103.016 430.749 C 102.75 431.915 103.042 433.197 103.788 434.133 C 104.534 435.068 105.719 435.639 106.916 435.639 " />
</g>

<g opacity="0.500000" fill="red" stroke-width="0.000000" id="id0000000497" >
<path id="id0000000576" d="M 115.081 434.74 C 116.277 434.74 117.462 434.17 118.208 433.234 C 118.954 432.299 119.247 431.017 118.98 429.85 C 118.714 428.684 117.894 427.656 116.816 427.137 C 115.738 426.617 114.423 426.617 113.345 427.137 C 112.267 427.656 111.447 428.684 111.181 429.85 C 110.915 431.017 111.207 432.299 111.953 433.234 C 112.7 434.17 113.884 434.74 115.081 434.74 " />
</g>

<g opacity="0.500000" fill="red" stroke-width="0.000000" id="id0000000499" >
<path id="id0000000577" d="M 140.099 443.572 C 141.296 443.572 142.48 443.001 143.226 442.066 C 143.972 441.13 144.265 439.848 143.998 438.681 C 143.732 437.515 142.913 436.487 141.834 435.968 C 140.756 435.448 139.441 435.448 138.363 435.968 C 137.285 436.487 136.465 437.515 136.199 438.681 C 135.933 439.848 136.225 441.13 136.971 442.066 C 137.718 443.001 138.902 443.572 140.099 443.572 " />
</g>

<g opacity="0.500000" fill="red" stroke-width="0.000000" id="id0000000501" >
<path id="id0000000578" d="M 445.157 343.979 C 446.354 343.979 447.538 343.409 448.285 342.473 C 449.031 341.537 449.323 340.256 449.057 339.089 C 448.791 337.922 447.971 336.894 446.893 336.375 C 445.814 335.856 444.5 335.856 443.422 336.375 C 442.343 336.894 441.524 337.922 441.258 339.089 C 440.991 340.256 441.284 341.537 442.03 342.473 C 442.776 343.409 443.96 343.979 445.157 343.979 " />
</g>

<g opacity="0.500000" fill="red" stroke-width="0.000000" id="id0000000503" >
<path id="id0000000579" d="M 140.232 270.362 C 141.429 270.362 142.613 269.792 143.359 268.856 C 144.105 267.92 144.398 266.639 144.132 265.472 C 143.865 264.305 143.046 263.277 141.967 262.758 C 140.889 262.239 139.575 262.239 138.496 262.758 C 137.418 263.277 136.599 264.305 136.332 265.472 C 136.066 266.639 136.358 267.92 137.105 268.856 C 137.851 269.792 139.035 270.362 140.232 270.362 " />
</g>

<g opacity="0.500000" fill="red" stroke-width="0.000000" id="id0000000505" >
<path id="id0000000580" d="M 240.014 345.548 C 241.21 345.548 242.395 344.978 243.141 344.042 C 243.887 343.106 244.18 341.825 243.913 340.658 C 243.647 339.491 242.827 338.464 241.749 337.944 C 240.671 337.425 239.356 337.425 238.278 337.944 C 237.2 338.464 236.38 339.491 236.114 340.658 C 235.848 341.825 236.14 343.106 236.886 344.042 C 237.633 344.978 238.817 345.548 240.014 345.548 " />
</g>

<g opacity="0.500000" fill="red" stroke-width="0.000000" id="id0000000507" >
<path id="id0000000581" d="M 152.25 405.88 C 153.446 405.88 154.631 405.309 155.377 404.374 C 156.123 403.438 156.416 402.156 156.149 400.989 C 155.883 399.823 155.064 398.795 153.985 398.276 C 152.907 397.756 151.592 397.756 150.514 398.276 C 149.436 398.795 148.616 399.823 148.35 400.989 C 148.084 402.156 148.376 403.438 149.122 404.374 C 149.869 405.309 151.053 405.88 152.25 405.88 " />
</g>

<g opacity="0.500000" fill="red" stroke-width="0.000000" id="id0000000509" >
<path id="id0000000582" d="M 124.972 428.334 C 126.169 428.334 127.353 427.764 128.099 426.828 C 128.845 425.892 129.138 424.611 128.872 423.444 C 128.605 422.277 127.786 421.249 126.707 420.73 C 125.629 420.211 124.315 420.211 123.236 420.73 C 122.158 421.249 121.338 422.277 121.072 423.444 C 120.806 424.611 121.098 425.892 121.844 426.828 C 122.591 427.764 123.775 428.334 124.972 428.334 " />
</g>

<g opacity="0.500000" fill="red" stroke-width="0.000000" id="id0000000511" >
<path id="id0000000583" d="M 164.512 425.266 C 165.709 425.266 166.893 424.696 167.639 423.76 C 168.386 422.824 168.678 421.543 168.412 420.376 C 168.146 419.209 167.326 418.181 166.248 417.662 C 165.169 417.143 163.855 417.143 162.777 417.662 C 161.698 418.181 160.879 419.209 160.612 420.376 C 160.346 421.543 160.639 422.824 161.385 423.76 C 162.131 424.696 163.315 425.266 164.512 425.266 " />
</g>

<g opacity="0.500000" fill="red" stroke-width="0.000000" id="id0000000513" >
<path id="id0000000584" d="M 150.839 333.18 C 152.035 333.18 153.22 332.61 153.966 331.674 C 154.712 330.738 155.005 329.457 154.738 328.29 C 154.472 327.123 153.652 326.095 152.574 325.576 C 151.496 325.057 150.181 325.057 149.103 325.576 C 148.025 326.095 147.205 327.123 146.939 328.29 C 146.673 329.457 146.965 330.738 147.711 331.674 C 148.457 332.61 149.642 333.18 150.839 333.18 " />
</g>

<g opacity="0.500000" fill="red" stroke-width="0.000000" id="id0000000515" >
<path id="id0000000585" d="M 106.293 420.587 C 107.49 420.587 108.675 420.016 109.421 419.081 C 110.167 418.145 110.459 416.863 110.193 415.697 C 109.927 414.53 109.107 413.502 108.029 412.983 C 106.951 412.464 105.636 412.464 104.558 412.983 C 103.48 413.502 102.66 414.53 102.394 415.697 C 102.127 416.863 102.42 418.145 103.166 419.081 C 103.912 420.016 105.097 420.587 106.293 420.587 " />
</g>

<g opacity="0.500000" fill="red" stroke-width="0.000000" id="id0000000517" >
<path id="id0000000586" d="M 404.999 381.968 C 406.196 381.968 407.38 381.397 408.126 380.462 C 408.872 379.526 409.165 378.244 408.898 377.078 C 408.632 375.911 407.813 374.883 406.734 374.364 C 405.656 373.844 404.341 373.844 403.263 374.364 C 402.185 374.883 401.365 375.911 401.099 377.078 C 400.833 378.244 401.125 379.526 401.871 380.462 C 402.618 381.397 403.802 381.968 404.999 381.968 " />
</g>

<g opacity="0.500000" fill="red" stroke-width="0.000000" id="id0000000519" >
<path id="id0000000587" d="M 345.671 436.142 C 346.867 436.142 348.052 435.571 348.798 434.636 C 349.544 433.7 349.837 432.418 349.57 431.252 C 349.304 430.085 348.484 429.057 347.406 428.538 C 346.328 428.018 345.013 428.018 343.935 428.538 C 342.857 429.057 342.037 430.085 341.771 431.252 C 341.505 432.418 341.797 433.7 342.543 434.636 C 343.289 435.571 344.474 436.142 345.671 436.142 " />
</g>

<g opacity="0.500000" fill="red" stroke-width="0.000000" id="id0000000521" >
<path id="id0000000588" d="M 199.132 427.764 C 200.328 427.764 201.513 427.194 202.259 426.258 C 203.005 425.323 203.298 424.041 203.031 422.874 C 202.765 421.707 201.945 420.68 200.867 420.16 C 199.789 419.641 198.474 419.641 197.396 420.16 C 196.318 420.68 195.498 421.707 195.232 422.874 C 194.966 424.041 195.258 425.323 196.004 426.258 C 196.751 427.194 197.935 427.764 199.132 427.764 " />
</g>

<g opacity="0.500000" fill="red" stroke-width="0.000000" id="id0000000523" >
<path id="id0000000589" d="M 154.856 377.01 C 156.053 377.01 157.237 376.44 157.983 375.504 C 158.73 374.569 159.022 373.287 158.756 372.12 C 158.489 370.954 157.67 369.926 156.592 369.407 C 155.513 368.887 154.199 368.887 153.12 369.407 C 152.042 369.926 151.223 370.954 150.956 372.12 C 150.69 373.287 150.983 374.569 151.729 375.504 C 152.475 376.44 153.659 377.01 154.856 377.01 " />
</g>

<g opacity="0.500000" fill="red" stroke-width="0.000000" id="id0000000525" >
<path id="id0000000590" d="M 147.247 23.4285 C 148.444 23.4285 149.628 22.8582 150.374 21.9225 C 151.12 20.9868 151.413 19.7052 151.147 18.5384 C 150.88 17.3716 150.061 16.3439 148.982 15.8246 C 147.904 15.3054 146.59 15.3054 145.511 15.8246 C 144.433 16.3439 143.614 17.3716 143.347 18.5384 C 143.081 19.7052 143.373 20.9868 144.12 21.9225 C 144.866 22.8582 146.05 23.4285 147.247 23.4285 " />
</g>

<g opacity="0.500000" fill="red" stroke-width="0.000000" id="id0000000527" >
<path id="id0000000591" d="M 303.66 442.543 C 304.857 442.543 306.041 441.973 306.787 441.037 C 307.534 440.101 307.826 438.82 307.56 437.653 C 307.294 436.486 306.474 435.459 305.396 434.939 C 304.317 434.42 303.003 434.42 301.925 434.939 C 300.846 435.459 300.027 436.486 299.76 437.653 C 299.494 438.82 299.787 440.101 300.533 441.037 C 301.279 441.973 302.463 442.543 303.66 442.543 " />
</g>

<g opacity="0.500000" fill="red" stroke-width="0.000000" id="id0000000529" >
<path id="id0000000592" d="M 178.615 406.803 C 179.811 406.803 180.996 406.233 181.742 405.297 C 182.488 404.361 182.781 403.08 182.514 401.913 C 182.248 400.746 181.428 399.719 180.35 399.199 C 179.272 398.68 177.957 398.68 176.879 399.199 C 175.801 399.719 174.981 400.746 174.715 401.913 C 174.449 403.08 174.741 404.361 175.487 405.297 C 176.233 406.233 177.418 406.803 178.615 406.803 " />
</g>

<g opacity="0.500000" fill="red" stroke-width="0.000000" id="id0000000531" >
<path id="id0000000593" d="M 239.508 356.785 C 240.705 356.785 241.889 356.214 242.635 355.279 C 243.381 354.343 243.674 353.061 243.407 351.895 C 243.141 350.728 242.322 349.7 241.243 349.181 C 240.165 348.662 238.851 348.662 237.772 349.181 C 236.694 349.7 235.874 350.728 235.608 351.895 C 235.342 353.061 235.634 354.343 236.38 355.279 C 237.127 356.214 238.311 356.785 239.508 356.785 " />
</g>

<g opacity="0.500000" fill="red" stroke-width="0.000000" id="id0000000533" >
<path id="id0000000594" d="M 270.289 248.026 C 271.486 248.026 272.67 247.455 273.416 246.52 C 274.162 245.584 274.455 244.303 274.189 243.136 C 273.922 241.969 273.103 240.941 272.024 240.422 C 270.946 239.903 269.632 239.903 268.553 240.422 C 267.475 240.941 266.656 241.969 266.389 243.136 C 266.123 244.303 266.415 245.584 267.162 246.52 C 267.908 247.455 269.092 248.026 270.289 248.026 " />
</g>

<g opacity="0.500000" fill="red" stroke-width="0.000000" id="id0000000535" >
<path id="id0000000595" d="M 283.556 417.129 C 284.753 417.129 285.938 416.559 286.684 415.623 C 287.43 414.687 287.723 413.406 287.456 412.239 C 287.19 411.072 286.37 410.044 285.292 409.525 C 284.214 409.006 282.899 409.006 281.821 409.525 C 280.743 410.044 279.923 411.072 279.657 412.239 C 279.39 413.406 279.683 414.687 280.429 415.623 C 281.175 416.559 282.36 417.129 283.556 417.129 " />
</g>

<g opacity="0.500000" fill="red" stroke-width="0.000000" id="id0000000537" >
<path id="id0000000596" d="M 333.316 425.175 C 334.513 425.175 335.697 424.605 336.443 423.669 C 337.189 422.733 337.482 421.452 337.215 420.285 C 336.949 419.118 336.13 418.091 335.051 417.571 C 333.973 417.052 332.658 417.052 331.58 417.571 C 330.502 418.091 329.682 419.118 329.416 420.285 C 329.15 421.452 329.442 422.733 330.188 423.669 C 330.935 424.605 332.119 425.175 333.316 425.175 " />
</g>

<g opacity="0.500000" fill="red" stroke-width="0.000000" id="id0000000539" >
<path id="id0000000597" d="M 125.693 433.471 C 126.89 433.471 128.074 432.901 128.82 431.965 C 129.566 431.029 129.859 429.748 129.593 428.581 C 129.326 427.414 128.507 426.387 127.428 425.867 C 126.35 425.348 125.036 425.348 123.957 425.867 C 122.879 426.387 122.06 427.414 121.793 428.581 C 121.527 429.748 121.819 431.029 122.566 431.965 C 123.312 432.901 124.496 433.471 125.693 433.471 " />
</g>

<g opacity="0.500000" fill="red" stroke-width="0.000000" id="id0000000541" >
<path id="id0000000598" d="M 170.341 429.129 C 171.538 429.129 172.722 428.558 173.469 427.623 C 174.215 426.687 174.507 425.406 174.241 424.239 C 173.975 423.072 173.155 422.044 172.077 421.525 C 170.999 421.006 169.684 421.006 168.606 421.525 C 167.527 422.044 166.708 423.072 166.442 424.239 C 166.175 425.406 166.468 426.687 167.214 427.623 C 167.96 428.558 169.144 429.129 170.341 429.129 " />
</g>

<g opacity="0.500000" fill="red" stroke-width="0.000000" id="id0000000543" >
<path id="id0000000599" d="M 206.999 283.942 C 208.196 283.942 209.38 283.372 210.126 282.436 C 210.873 281.5 211.165 280.219 210.899 279.052 C 210.632 277.885 209.813 276.857 208.735 276.338 C 207.656 275.819 206.342 275.819 205.263 276.338 C 204.185 276.857 203.366 277.885 203.099 279.052 C 202.833 280.219 203.126 281.5 203.872 282.436 C 204.618 283.372 205.802 283.942 206.999 283.942 " />
</g>

<g opacity="0.500000" fill="red" stroke-width="0.000000" id="id0000000545" >
<path id="id0000000600" d="M 126.275 427.902 C 127.471 427.902 128.656 427.331 129.402 426.396 C 130.148 425.46 130.441 424.178 130.174 423.012 C 129.908 421.845 129.088 420.817 128.01 420.298 C 126.932 419.779 125.617 419.779 124.539 420.298 C 123.461 420.817 122.641 421.845 122.375 423.012 C 122.108 424.178 122.401 425.46 123.147 426.396 C 123.893 427.331 125.078 427.902 126.275 427.902 " />
</g>

<g opacity="0.500000" fill="red" stroke-width="0.000000" id="id0000000547" >
<path id="id0000000601" d="M 199.582 404.687 C 200.779 404.687 201.963 404.117 202.709 403.181 C 203.456 402.245 203.748 400.964 203.482 399.797 C 203.215 398.63 202.396 397.602 201.318 397.083 C 200.239 396.564 198.925 396.564 197.847 397.083 C 196.768 397.602 195.949 398.63 195.682 399.797 C 195.416 400.964 195.709 402.245 196.455 403.181 C 197.201 404.117 198.385 404.687 199.582 404.687 " />
</g>

<g opacity="0.500000" fill="red" stroke-width="0.000000" id="id0000000549" >
<path id="id0000000602" d="M 231.758 413.969 C 232.955 413.969 234.14 413.399 234.886 412.463 C 235.632 411.527 235.924 410.246 235.658 409.079 C 235.392 407.912 234.572 406.885 233.494 406.365 C 232.416 405.846 231.101 405.846 230.023 406.365 C 228.945 406.885 228.125 407.912 227.859 409.079 C 227.592 410.246 227.885 411.527 228.631 412.463 C 229.377 413.399 230.562 413.969 231.758 413.969 " />
</g>

<g opacity="0.500000" fill="red" stroke-width="0.000000" id="id0000000551" >
<path id="id0000000603" d="M 349.075 418.331 C 350.271 418.331 351.456 417.761 352.202 416.825 C 352.948 415.889 353.241 414.608 352.974 413.441 C 352.708 412.274 351.888 411.246 350.81 410.727 C 349.732 410.208 348.417 410.208 347.339 410.727 C 346.261 411.246 345.441 412.274 345.175 413.441 C 344.909 414.608 345.201 415.889 345.947 416.825 C 346.693 417.761 347.878 418.331 349.075 418.331 " />
</g>

<g opacity="0.500000" fill="red" stroke-width="0.000000" id="id0000000553" >
<path id="id0000000604" d="M 192.873 402.863 C 194.07 402.863 195.254 402.293 196 401.357 C 196.747 400.422 197.039 399.14 196.773 397.973 C 196.506 396.806 195.687 395.779 194.609 395.259 C 193.53 394.74 192.216 394.74 191.138 395.259 C 190.059 395.779 189.24 396.806 188.973 397.973 C 188.707 399.14 189 400.422 189.746 401.357 C 190.492 402.293 191.676 402.863 192.873 402.863 " />
</g>

</g>

</g>

<polygon points="36,1 36,458 639,458 639,1 " stroke="black" stroke-width="1.000000" fill="none" id="id0000000605" pointer-events="none" class="rectangle" />
<polyline points="87.5597,458 87.5597,461 " fill="none" stroke-width="1.000000" stroke="black" id="id0000000606" class="line" />
<text id="id0000000607" transform="matrix(1 0 0 1 36 1)" x="51.559708" y="462.000000" dominant-baseline="hanging" text-anchor="middle" font-size="14.000000px" >
0
</text>

<polyline points="194.916,458 194.916,461 " fill="none" stroke-width="1.000000" stroke="black" id="id0000000608" class="line" />
<text id="id0000000609" transform="matrix(1 0 0 1 36 1)" x="158.915695" y="462.000000" dominant-baseline="hanging" text-anchor="middle" font-size="14.000000px" >
1
</text>

<polyline points="302.272,458 302.272,461 " fill="none" stroke-width="1.000000" stroke="black" id="id0000000610" class="line" />
<text id="id0000000611" transform="matrix(1 0 0 1 36 1)" x="266.271698" y="462.000000" dominant-baseline="hanging" text-anchor="middle" font-size="14.000000px" >
2
</text>

<polyline points="409.628,458 409.628,461 " fill="none" stroke-width="1.000000" stroke="black" id="id0000000612" class="line" />
<text id="id0000000613" transform="matrix(1 0 0 1 36 1)" x="373.627655" y="462.000000" dominant-baseline="hanging" text-anchor="middle" font-size="14.000000px" >
3
</text>

<polyline points="516.984,458 516.984,461 " fill="none" stroke-width="1.000000" stroke="black" id="id0000000614" class="line" />
<text id="id0000000615" transform="matrix(1 0 0 1 36 1)" x="480.983673" y="462.000000" dominant-baseline="hanging" text-anchor="middle" font-size="14.000000px" >
4
</text>

<polyline points="624.34,458 624.34,461 " fill="none" stroke-width="1.000000" stroke="black" id="id0000000616" class="line" />
<text id="id0000000617" transform="matrix(1 0 0 1 36 1)" x="588.339661" y="462.000000" dominant-baseline="hanging" text-anchor="middle" font-size="14.000000px" >
5
</text>

<polyline points="33,441.55 36,441.55 " fill="none" stroke-width="1.000000" stroke="black" id="id0000000618" class="line" />
<text id="id0000000619" transform="matrix(1 0 0 1 36 1)" x="-5.000000" y="440.550446" dominant-baseline="middle" text-anchor="end" font-size="14.000000px" >
0
</text>

<polyline points="33,374.822 36,374.822 " fill="none" stroke-width="1.000000" stroke="black" id="id0000000620" class="line" />
<text id="id0000000621" transform="matrix(1 0 0 1 36 1)" x="-5.000000" y="373.822083" dominant-baseline="middle" text-anchor="end" font-size="14.000000px" >
2
</text>

<polyline points="33,308.094 36,308.094 " fill="none" stroke-width="1.000000" stroke="black" id="id0000000622" class="line" />
<text id="id0000000623" transform="matrix(1 0 0 1 36 1)" x="-5.000000" y="307.093750" dominant-baseline="middle" text-anchor="end" font-size="14.000000px" >
4
</text>

<polyline points="33,241.365 36,241.365 " fill="none" stroke-width="1.000000" stroke="black" id="id0000000624" class="line" />
<text id="id0000000625" transform="matrix(1 0 0 1 36 1)" x="-5.000000" y="240.365387" dominant-baseline="middle" text-anchor="end" font-size="14.000000px" >
6
</text>

<polyline points="33,174.637 36,174.637 " fill="none" stroke-width="1.000000" stroke="black" id="id0000000626" class="line" />
<text id="id0000000627" transform="matrix(1 0 0 1 36 1)" x="-5.000000" y="173.637054" dominant-baseline="middle" text-anchor="end" font-size="14.000000px" >
8
</text>

<polyline points="33,107.909 36,107.909 " fill="none" stroke-width="1.000000" stroke="black" id="id0000000628" class="line" />
<text id="id0000000629" transform="matrix(1 0 0 1 36 1)" x="-5.000000" y="106.908722" dominant-baseline="middle" text-anchor="end" font-size="14.000000px" >
10
</text>

<polyline points="33,41.1804 36,41.1804 " fill="none" stroke-width="1.000000" stroke="black" id="id0000000630" class="line" />
<text id="id0000000631" transform="matrix(1 0 0 1 36 1)" x="-5.000000" y="40.180389" dominant-baseline="middle" text-anchor="end" font-size="14.000000px" >
12
</text>


</g>

</svg>
