<svg viewBox="0 0 32.855 18.4016" height="100%" width="100%" xmlns:xlink="http://www.w3.org/1999/xlink" xmlns="http://www.w3.org/2000/svg" id="id0000000634" >
<g id="id0000000635" >
<g id="id0000000636" >
<g id="id0000000637" >
<clipPath id="id0000000637clipper" >
<polygon points="2.3025,5.1608 2.3025,8.1608 5.3025,8.1608 5.3025,5.1608 " id="id0000000720" class="rectangle" />
</clipPath>

<g clip-path="url(#id0000000637clipper)" id="id0000000639" >
<g id="id0000000640" >
<g id="id0000000642" >
<g opacity="1.000000" fill="#1f77b4" stroke="black" stroke-width="0.000000" id="id0000000641" >
<path id="id0000000721" d="M 3.8025 7.6608 C 4.1017 7.6608 4.39778 7.51821 4.58433 7.28429 C 4.77088 7.05037 4.84401 6.72998 4.77743 6.43828 C 4.71085 6.14658 4.50595 5.88965 4.23638 5.75983 C 3.96681 5.63001 3.63819 5.63001 3.36862 5.75983 C 3.09905 5.88965 2.89415 6.14658 2.82757 6.43828 C 2.76099 6.72998 2.83412 7.05037 3.02067 7.28429 C 3.20722 7.51821 3.5033 7.6608 3.8025 7.6608 " />
</g>

</g>

</g>

</g>

<polygon points="2.3025,5.1608 2.3025,8.1608 5.3025,8.1608 5.3025,5.1608 " stroke="black" stroke-width="0.010000" fill="none" id="id0000000722" pointer-events="none" class="rectangle" />
<text id="id0000000723" transform="matrix(1 0 0 1 2.3025 5.1608)" x="1.500000" y="-1.000000" text-anchor="middle" font-size="2.000000px" >
'o'
</text>

</g>

</g>

<g id="id0000000643" >
<g id="id0000000644" >
<clipPath id="id0000000644clipper" >
<polygon points="7.35292,5.1608 7.35292,8.1608 10.3529,8.1608 10.3529,5.1608 " id="id0000000724" class="rectangle" />
</clipPath>

<g clip-path="url(#id0000000644clipper)" id="id0000000646" >
<g id="id0000000647" >
<g id="id0000000649" >
<g opacity="1.000000" fill="#1f77b4" stroke="black" stroke-width="0.000000" id="id0000000648" >
<path id="id0000000725" d="M 8.85292 7.1608 C 9.00252 7.1608 9.15056 7.08951 9.24383 6.97254 C 9.33711 6.85558 9.37367 6.69539 9.34038 6.54954 C 9.30709 6.40369 9.20464 6.27522 9.06986 6.21032 C 8.93507 6.14541 8.77076 6.14541 8.63597 6.21032 C 8.50119 6.27522 8.39874 6.40369 8.36545 6.54954 C 8.33216 6.69539 8.36873 6.85558 8.462 6.97254 C 8.55527 7.08951 8.70332 7.1608 8.85292 7.1608 " />
</g>

</g>

</g>

</g>

<polygon points="7.35292,5.1608 7.35292,8.1608 10.3529,8.1608 10.3529,5.1608 " stroke="black" stroke-width="0.010000" fill="none" id="id0000000726" pointer-events="none" class="rectangle" />
<text id="id0000000727" transform="matrix(1 0 0 1 7.35292 5.1608)" x="1.500000" y="-1.000000" text-anchor="middle" font-size="2.000000px" >
'.'
</text>

</g>

</g>

<g id="id0000000650" >
<g id="id0000000651" >
<clipPath id="id0000000651clipper" >
<polygon points="12.4033,5.1608 12.4033,8.1608 15.4033,8.1608 15.4033,5.1608 " id="id0000000728" class="rectangle" />
</clipPath>

<g clip-path="url(#id0000000651clipper)" id="id0000000653" >
<g id="id0000000654" >
<g id="id0000000656" >
<g opacity="1.000000" fill="#1f77b4" stroke="black" stroke-width="0.000000" id="id0000000655" >
<path id="id0000000729" d="M 13.9033 6.8908 C 13.9721 6.8908 14.0402 6.85801 14.0832 6.8042 C 14.1261 6.7504 14.1429 6.67671 14.1276 6.60962 C 14.1123 6.54253 14.0651 6.48344 14.0031 6.45358 C 13.9411 6.42372 13.8655 6.42372 13.8035 6.45358 C 13.7415 6.48344 13.6944 6.54253 13.6791 6.60962 C 13.6638 6.67671 13.6806 6.7504 13.7235 6.8042 C 13.7664 6.85801 13.8345 6.8908 13.9033 6.8908 " />
</g>

</g>

</g>

</g>

<polygon points="12.4033,5.1608 12.4033,8.1608 15.4033,8.1608 15.4033,5.1608 " stroke="black" stroke-width="0.010000" fill="none" id="id0000000730" pointer-events="none" class="rectangle" />
<text id="id0000000731" transform="matrix(1 0 0 1 12.4033 5.1608)" x="1.500000" y="-1.000000" text-anchor="middle" font-size="2.000000px" >
','
</text>

</g>

</g>

<g id="id0000000657" >
<g id="id0000000658" >
<clipPath id="id0000000658clipper" >
<polygon points="17.4537,5.1608 17.4537,8.1608 20.4537,8.1608 20.4537,5.1608 " id="id0000000732" class="rectangle" />
</clipPath>

<g clip-path="url(#id0000000658clipper)" id="id0000000660" >
<g id="id0000000661" >
<g id="id0000000663" >
<g opacity="1.000000" fill="#1f77b4" stroke="black" stroke-width="0.000000" id="id0000000662" >
<polygon points="18.9537,7.6608 19.9537,5.6608 17.9537,5.6608 " id="id0000000733" class="triangle" />
</g>

</g>

</g>

</g>

<polygon points="17.4537,5.1608 17.4537,8.1608 20.4537,8.1608 20.4537,5.1608 " stroke="black" stroke-width="0.010000" fill="none" id="id0000000734" pointer-events="none" class="rectangle" />
<text id="id0000000735" transform="matrix(1 0 0 1 17.4537 5.1608)" x="1.500000" y="-1.000000" text-anchor="middle" font-size="2.000000px" >
'v'
</text>

</g>

</g>

<g id="id0000000664" >
<g id="id0000000665" >
<clipPath id="id0000000665clipper" >
<polygon points="22.5042,5.1608 22.5042,8.1608 25.5042,8.1608 25.5042,5.1608 " id="id0000000736" class="rectangle" />
</clipPath>

<g clip-path="url(#id0000000665clipper)" id="id0000000667" >
<g id="id0000000668" >
<g id="id0000000670" >
<g opacity="1.000000" fill="#1f77b4" stroke="black" stroke-width="0.000000" id="id0000000669" >
<polygon points="25.0042,6.6608 23.0042,7.6608 23.0042,5.6608 " id="id0000000737" class="triangle" />
</g>

</g>

</g>

</g>

<polygon points="22.5042,5.1608 22.5042,8.1608 25.5042,8.1608 25.5042,5.1608 " stroke="black" stroke-width="0.010000" fill="none" id="id0000000738" pointer-events="none" class="rectangle" />
<text id="id0000000739" transform="matrix(1 0 0 1 22.5042 5.1608)" x="1.500000" y="-1.000000" text-anchor="middle" font-size="2.000000px" >
'>'
</text>

</g>

</g>

<g id="id0000000671" >
<g id="id0000000672" >
<clipPath id="id0000000672clipper" >
<polygon points="27.5546,5.1608 27.5546,8.1608 30.5546,8.1608 30.5546,5.1608 " id="id0000000740" class="rectangle" />
</clipPath>

<g clip-path="url(#id0000000672clipper)" id="id0000000674" >
<g id="id0000000675" >
<g id="id0000000677" >
<g opacity="1.000000" fill="#1f77b4" stroke="black" stroke-width="0.000000" id="id0000000676" >
<polygon points="29.0546,5.6608 30.0546,7.6608 28.0546,7.6608 " id="id0000000741" class="triangle" />
</g>

</g>

</g>

</g>

<polygon points="27.5546,5.1608 27.5546,8.1608 30.5546,8.1608 30.5546,5.1608 " stroke="black" stroke-width="0.010000" fill="none" id="id0000000742" pointer-events="none" class="rectangle" />
<text id="id0000000743" transform="matrix(1 0 0 1 27.5546 5.1608)" x="1.500000" y="-1.000000" text-anchor="middle" font-size="2.000000px" >
'^'
</text>

</g>

</g>

<g id="id0000000678" >
<g id="id0000000679" >
<clipPath id="id0000000679clipper" >
<polygon points="2.3025,13.2412 2.3025,16.2412 5.3025,16.2412 5.3025,13.2412 " id="id0000000744" class="rectangle" />
</clipPath>

<g clip-path="url(#id0000000679clipper)" id="id0000000681" >
<g id="id0000000682" >
<g id="id0000000684" >
<g opacity="1.000000" fill="#1f77b4" stroke="black" stroke-width="0.000000" id="id0000000683" >
<polygon points="2.8025,14.7412 4.8025,15.7412 4.8025,13.7412 " id="id0000000745" class="triangle" />
</g>

</g>

</g>

</g>

<polygon points="2.3025,13.2412 2.3025,16.2412 5.3025,16.2412 5.3025,13.2412 " stroke="black" stroke-width="0.010000" fill="none" id="id0000000746" pointer-events="none" class="rectangle" />
<text id="id0000000747" transform="matrix(1 0 0 1 2.3025 13.2412)" x="1.500000" y="-1.000000" text-anchor="middle" font-size="2.000000px" >
'&lt;'
</text>

</g>

</g>

<g id="id0000000685" >
<g id="id0000000686" >
<clipPath id="id0000000686clipper" >
<polygon points="7.35292,13.2412 7.35292,16.2412 10.3529,16.2412 10.3529,13.2412 " id="id0000000748" class="rectangle" />
</clipPath>

<g clip-path="url(#id0000000686clipper)" id="id0000000688" >
<g id="id0000000689" >
<g id="id0000000691" >
<g opacity="1.000000" fill="#1f77b4" stroke="black" stroke-width="0.000000" id="id0000000690" >
<polygon points="7.85292,13.7412 7.85292,15.7412 9.85292,15.7412 9.85292,13.7412 " id="id0000000749" class="rectangle" />
</g>

</g>

</g>

</g>

<polygon points="7.35292,13.2412 7.35292,16.2412 10.3529,16.2412 10.3529,13.2412 " stroke="black" stroke-width="0.010000" fill="none" id="id0000000750" pointer-events="none" class="rectangle" />
<text id="id0000000751" transform="matrix(1 0 0 1 7.35292 13.2412)" x="1.500000" y="-1.000000" text-anchor="middle" font-size="2.000000px" >
's'
</text>

</g>

</g>

<g id="id0000000692" >
<g id="id0000000693" >
<clipPath id="id0000000693clipper" >
<polygon points="12.4033,13.2412 12.4033,16.2412 15.4033,16.2412 15.4033,13.2412 " id="id0000000752" class="rectangle" />
</clipPath>

<g clip-path="url(#id0000000693clipper)" id="id0000000695" >
<g id="id0000000696" >
<g id="id0000000698" >
<g opacity="1.000000" fill="#1f77b4" stroke="black" stroke-width="0.000000" id="id0000000697" >
<polygon id="id0000000753" points="14.0533,14.8912 14.9033,14.8912 14.9033,14.5912 14.0533,14.5912 14.0533,13.7412 13.7533,13.7412 13.7533,14.5912 12.9033,14.5912 12.9033,14.8912 13.7533,14.8912 13.7533,15.7412 14.0533,15.7412 " />
</g>

</g>

</g>

</g>

<polygon points="12.4033,13.2412 12.4033,16.2412 15.4033,16.2412 15.4033,13.2412 " stroke="black" stroke-width="0.010000" fill="none" id="id0000000754" pointer-events="none" class="rectangle" />
<text id="id0000000755" transform="matrix(1 0 0 1 12.4033 13.2412)" x="1.500000" y="-1.000000" text-anchor="middle" font-size="2.000000px" >
'+'
</text>

</g>

</g>

<g id="id0000000699" >
<g id="id0000000700" >
<clipPath id="id0000000700clipper" >
<polygon points="17.4537,13.2412 17.4537,16.2412 20.4537,16.2412 20.4537,13.2412 " id="id0000000756" class="rectangle" />
</clipPath>

<g clip-path="url(#id0000000700clipper)" id="id0000000702" >
<g id="id0000000703" >
<g id="id0000000705" >
<g opacity="1.000000" fill="#1f77b4" stroke="black" stroke-width="0.000000" id="id0000000704" >
<polygon id="id0000000757" points="19.3037,15.0912 19.9537,15.0912 19.9537,14.3912 19.3037,14.3912 19.3037,13.7412 18.6037,13.7412 18.6037,14.3912 17.9537,14.3912 17.9537,15.0912 18.6037,15.0912 18.6037,15.7412 19.3037,15.7412 " />
</g>

</g>

</g>

</g>

<polygon points="17.4537,13.2412 17.4537,16.2412 20.4537,16.2412 20.4537,13.2412 " stroke="black" stroke-width="0.010000" fill="none" id="id0000000758" pointer-events="none" class="rectangle" />
<text id="id0000000759" transform="matrix(1 0 0 1 17.4537 13.2412)" x="1.500000" y="-1.000000" text-anchor="middle" font-size="2.000000px" >
'P'
</text>

</g>

</g>

<g id="id0000000706" >
<g id="id0000000707" >
<clipPath id="id0000000707clipper" >
<polygon points="22.5042,13.2412 22.5042,16.2412 25.5042,16.2412 25.5042,13.2412 " id="id0000000760" class="rectangle" />
</clipPath>

<g clip-path="url(#id0000000707clipper)" id="id0000000709" >
<g id="id0000000710" >
<g id="id0000000712" >
<g opacity="1.000000" fill="#1f77b4" stroke="black" stroke-width="0.000000" id="id0000000711" >
<g id="id0000000632" >
<polygon id="id0000000761" points="24.2163,14.7412 25.1102,13.8473 24.8981,13.6351 24.0042,14.5291 23.1102,13.6351 22.8981,13.8473 23.792,14.7412 22.8981,15.6351 23.1102,15.8473 24.0042,14.9533 24.8981,15.8473 25.1102,15.6351 " />
</g>

</g>

</g>

</g>

</g>

<polygon points="22.5042,13.2412 22.5042,16.2412 25.5042,16.2412 25.5042,13.2412 " stroke="black" stroke-width="0.010000" fill="none" id="id0000000762" pointer-events="none" class="rectangle" />
<text id="id0000000763" transform="matrix(1 0 0 1 22.5042 13.2412)" x="1.500000" y="-1.000000" text-anchor="middle" font-size="2.000000px" >
'x'
</text>

</g>

</g>

<g id="id0000000713" >
<g id="id0000000714" >
<clipPath id="id0000000714clipper" >
<polygon points="27.5546,13.2412 27.5546,16.2412 30.5546,16.2412 30.5546,13.2412 " id="id0000000764" class="rectangle" />
</clipPath>

<g clip-path="url(#id0000000714clipper)" id="id0000000716" >
<g id="id0000000717" >
<g id="id0000000719" >
<g opacity="1.000000" fill="#1f77b4" stroke="black" stroke-width="0.000000" id="id0000000718" >
<g id="id0000000633" >
<polygon id="id0000000765" points="29.5496,14.7412 30.0521,14.2387 29.5571,13.7437 29.0546,14.2462 28.5521,13.7437 28.0571,14.2387 28.5596,14.7412 28.0571,15.2437 28.5521,15.7387 29.0546,15.2362 29.5571,15.7387 30.0521,15.2437 " />
</g>

</g>

</g>

</g>

</g>

<polygon points="27.5546,13.2412 27.5546,16.2412 30.5546,16.2412 30.5546,13.2412 " stroke="black" stroke-width="0.010000" fill="none" id="id0000000766" pointer-events="none" class="rectangle" />
<text id="id0000000767" transform="matrix(1 0 0 1 27.5546 13.2412)" x="1.500000" y="-1.000000" text-anchor="middle" font-size="2.000000px" >
'X'
</text>

</g>

</g>


</g>

</svg>
