<svg viewBox="0 0 10 25" height="100%" width="100%" xmlns:xlink="http://www.w3.org/1999/xlink" xmlns="http://www.w3.org/2000/svg" id="id0000003579" >
<g id="id0000003580" >
<clipPath id="id0000003580clipper" >
<polygon points="1,1 1,24 9,24 9,1 " id="id0000003606" class="rectangle" />
</clipPath>

<g clip-path="url(#id0000003580clipper)" id="id0000003582" >
<g id="id0000003583" >
<g id="id0000003585" >
<g opacity="1.000000" fill="#1f77b4" stroke="black" stroke-width="0.000000" id="id0000003584" >
<path id="id0000003607" d="M 5 21.4286 C 6.1968 21.4286 7.38113 20.8582 8.12733 19.9225 C 8.87352 18.9868 9.16602 17.7053 8.89971 16.5385 C 8.6334 15.3717 7.81381 14.344 6.73553 13.8247 C 5.65726 13.3054 4.34274 13.3054 3.26446 13.8247 C 2.18619 14.344 1.3666 15.3717 1.10029 16.5385 C 0.833976 17.7053 1.12648 18.9868 1.87267 19.9225 C 2.61886 20.8582 3.8032 21.4286 5 21.4286 " />
</g>

</g>

<g id="id0000003587" >
<g opacity="1.000000" fill="#1f77b4" stroke="black" stroke-width="0.000000" id="id0000003586" >
<path id="id0000003608" d="M 5 13.8571 C 5.8976 13.8571 6.78585 13.4294 7.34549 12.7276 C 7.90514 12.0258 8.12452 11.0647 7.92478 10.1896 C 7.72505 9.31449 7.11036 8.54369 6.30165 8.15424 C 5.49294 7.76478 4.50706 7.76478 3.69835 8.15424 C 2.88964 8.54369 2.27495 9.31449 2.07522 10.1896 C 1.87548 11.0647 2.09486 12.0258 2.65451 12.7276 C 3.21415 13.4294 4.1024 13.8571 5 13.8571 " />
</g>

</g>

<g id="id0000003589" >
<g opacity="1.000000" fill="#1f77b4" stroke="black" stroke-width="0.000000" id="id0000003588" >
<path id="id0000003609" d="M 5 7.92857 C 5.5984 7.92857 6.19057 7.6434 6.56366 7.17555 C 6.93676 6.7077 7.08301 6.06693 6.94986 5.48353 C 6.8167 4.90013 6.40691 4.38627 5.86777 4.12663 C 5.32863 3.867 4.67137 3.867 4.13223 4.12663 C 3.59309 4.38627 3.1833 4.90013 3.05014 5.48353 C 2.91699 6.06693 3.06324 6.7077 3.43634 7.17555 C 3.80943 7.6434 4.4016 7.92857 5 7.92857 " />
</g>

</g>

</g>

<g id="id0000003590" >
<g id="id0000003592" >
<g opacity="1.000000" fill="#ff7f0e" stroke="black" stroke-width="0.000000" id="id0000003591" >
<polygon points="5,6.65714 5.4,5.85714 4.6,5.85714 " id="id0000003610" class="triangle" />
</g>

</g>

</g>

<g id="id0000003593" >
<g id="id0000003595" >
<g opacity="1.000000" fill="#2ca02c" stroke="black" stroke-width="0.000000" id="id0000003594" >
<polygon id="id0000003611" points="4.46,5.00286 4.8,5.00286 4.8,4.88286 4.46,4.88286 4.46,4.54286 4.34,4.54286 4.34,4.88286 4,4.88286 4,5.00286 4.34,5.00286 4.34,5.34286 4.46,5.34286 " />
</g>

</g>

<g id="id0000003597" >
<g opacity="1.000000" fill="#2ca02c" stroke="black" stroke-width="0.000000" id="id0000003596" >
<polygon id="id0000003612" points="5.66,5.00286 6,5.00286 6,4.88286 5.66,4.88286 5.66,4.54286 5.54,4.54286 5.54,4.88286 5.2,4.88286 5.2,5.00286 5.54,5.00286 5.54,5.34286 5.66,5.34286 " />
</g>

</g>

<g id="id0000003599" >
<g opacity="1.000000" fill="#2ca02c" stroke="black" stroke-width="0.000000" id="id0000003598" >
<polygon id="id0000003613" points="4.445,6.95929 4.7,6.95929 4.7,6.86929 4.445,6.86929 4.445,6.61429 4.355,6.61429 4.355,6.86929 4.1,6.86929 4.1,6.95929 4.355,6.95929 4.355,7.21429 4.445,7.21429 " />
</g>

</g>

<g id="id0000003601" >
<g opacity="1.000000" fill="#2ca02c" stroke="black" stroke-width="0.000000" id="id0000003600" >
<polygon id="id0000003614" points="4.83,6.94429 5,6.94429 5,6.88429 4.83,6.88429 4.83,6.71429 4.77,6.71429 4.77,6.88429 4.6,6.88429 4.6,6.94429 4.77,6.94429 4.77,7.11429 4.83,7.11429 " />
</g>

</g>

<g id="id0000003603" >
<g opacity="1.000000" fill="#2ca02c" stroke="black" stroke-width="0.000000" id="id0000003602" >
<polygon id="id0000003615" points="5.23,6.94429 5.4,6.94429 5.4,6.88429 5.23,6.88429 5.23,6.71429 5.17,6.71429 5.17,6.88429 5,6.88429 5,6.94429 5.17,6.94429 5.17,7.11429 5.23,7.11429 " />
</g>

</g>

<g id="id0000003605" >
<g opacity="1.000000" fill="#2ca02c" stroke="black" stroke-width="0.000000" id="id0000003604" >
<polygon id="id0000003616" points="5.645,6.95929 5.9,6.95929 5.9,6.86929 5.645,6.86929 5.645,6.61429 5.555,6.61429 5.555,6.86929 5.3,6.86929 5.3,6.95929 5.555,6.95929 5.555,7.21429 5.645,7.21429 " />
</g>

</g>

</g>

</g>

<polygon points="1,1 1,24 9,24 9,1 " stroke="black" stroke-width="0.000000" fill="none" id="id0000003617" pointer-events="none" class="rectangle" />

</g>

</svg>
