<svg viewBox="0 0 200 150" height="100%" width="100%" xmlns:xlink="http://www.w3.org/1999/xlink" xmlns="http://www.w3.org/2000/svg" id="id0000000449" >
<g id="id0000000450" >
<clipPath id="id0000000450clipper" >
<polygon points="30,5 30,130 195,130 195,5 " id="id0000000453" class="rectangle" />
</clipPath>

<g clip-path="url(#id0000000450clipper)" id="id0000000452" >
<g id="id0000000454" >
<g opacity="0.500000" fill="red" stroke-width="0.000000" id="id0000000455" >
<path id="id0000000555" d="M 91.4787 110.461 C 91.8138 110.461 92.1488 110.39 92.4549 110.254 C 92.761 110.118 93.0381 109.916 93.2623 109.667 C 93.4865 109.418 93.6577 109.122 93.7613 108.803 C 93.8648 108.484 93.9006 108.144 93.8656 107.81 C 93.8306 107.477 93.7247 107.152 93.5572 106.861 C 93.3896 106.571 93.1605 106.317 92.8894 106.12 C 92.6183 105.923 92.3055 105.783 91.9777 105.714 C 91.6499 105.644 91.3075 105.644 90.9798 105.714 C 90.652 105.783 90.3392 105.923 90.0681 106.12 C 89.797 106.317 89.5678 106.571 89.4003 106.861 C 89.2327 107.152 89.1269 107.477 89.0919 107.81 C 89.0569 108.144 89.0927 108.484 89.1962 108.803 C 89.2998 109.122 89.471 109.418 89.6952 109.667 C 89.9194 109.916 90.1964 110.118 90.5026 110.254 " />
</g>

<g opacity="0.500000" fill="red" stroke-width="0.000000" id="id0000000457" >
<path id="id0000000556" d="M 141.19 115.546 C 141.525 115.546 141.86 115.475 142.166 115.339 C 142.473 115.202 142.75 115.001 142.974 114.752 C 143.198 114.503 143.369 114.206 143.473 113.888 C 143.576 113.569 143.612 113.228 143.577 112.895 C 143.542 112.562 143.436 112.236 143.269 111.946 C 143.101 111.656 142.872 111.401 142.601 111.204 C 142.33 111.007 142.017 110.868 141.689 110.798 C 141.362 110.729 141.019 110.729 140.691 110.798 C 140.364 110.868 140.051 111.007 139.78 111.204 C 139.509 111.401 139.279 111.656 139.112 111.946 C 138.944 112.236 138.838 112.562 138.803 112.895 C 138.768 113.228 138.804 113.569 138.908 113.888 C 139.011 114.206 139.183 114.503 139.407 114.752 C 139.631 115.001 139.908 115.202 140.214 115.339 " />
</g>

<g opacity="0.500000" fill="red" stroke-width="0.000000" id="id0000000459" >
<path id="id0000000557" d="M 74.5349 103.495 C 74.87 103.495 75.205 103.424 75.5111 103.287 C 75.8172 103.151 76.0942 102.95 76.3185 102.701 C 76.5427 102.452 76.7139 102.155 76.8175 101.837 C 76.921 101.518 76.9568 101.177 76.9218 100.844 C 76.8867 100.511 76.7809 100.185 76.6134 99.8949 C 76.4458 99.6047 76.2167 99.3503 75.9456 99.1533 C 75.6745 98.9563 75.3617 98.817 75.0339 98.7474 C 74.7061 98.6777 74.3637 98.6777 74.0359 98.7474 C 73.7082 98.817 73.3953 98.9563 73.1242 99.1533 C 72.8531 99.3503 72.624 99.6047 72.4565 99.8949 C 72.2889 100.185 72.1831 100.511 72.1481 100.844 C 72.113 101.177 72.1488 101.518 72.2524 101.837 C 72.3559 102.155 72.5272 102.452 72.7514 102.701 C 72.9756 102.95 73.2526 103.151 73.5588 103.287 " />
</g>

<g opacity="0.500000" fill="red" stroke-width="0.000000" id="id0000000461" >
<path id="id0000000558" d="M 51.7324 118.59 C 52.0675 118.59 52.4024 118.519 52.7086 118.382 C 53.0147 118.246 53.2917 118.045 53.5159 117.796 C 53.7402 117.547 53.9114 117.25 54.0149 116.931 C 54.1185 116.613 54.1543 116.272 54.1192 115.939 C 54.0842 115.606 53.9784 115.28 53.8109 114.99 C 53.6433 114.7 53.4142 114.445 53.1431 114.248 C 52.872 114.051 52.5592 113.912 52.2314 113.842 C 51.9036 113.773 51.5612 113.773 51.2334 113.842 C 50.9056 113.912 50.5928 114.051 50.3217 114.248 C 50.0506 114.445 49.8215 114.7 49.6539 114.99 C 49.4864 115.28 49.3806 115.606 49.3455 115.939 C 49.3105 116.272 49.3463 116.613 49.4499 116.931 C 49.5534 117.25 49.7246 117.547 49.9488 117.796 C 50.1731 118.045 50.4501 118.246 50.7562 118.382 " />
</g>

<g opacity="0.500000" fill="red" stroke-width="0.000000" id="id0000000463" >
<path id="id0000000559" d="M 47.3121 111.512 C 47.6472 111.512 47.9822 111.441 48.2883 111.305 C 48.5944 111.168 48.8715 110.967 49.0957 110.718 C 49.3199 110.469 49.4911 110.173 49.5947 109.854 C 49.6982 109.535 49.734 109.195 49.699 108.861 C 49.664 108.528 49.5582 108.202 49.3906 107.912 C 49.223 107.622 48.9939 107.368 48.7228 107.171 C 48.4517 106.974 48.1389 106.834 47.8111 106.765 C 47.4833 106.695 47.1409 106.695 46.8132 106.765 C 46.4854 106.834 46.1726 106.974 45.9015 107.171 C 45.6304 107.368 45.4012 107.622 45.2337 107.912 C 45.0661 108.202 44.9603 108.528 44.9253 108.861 C 44.8903 109.195 44.9261 109.535 45.0296 109.854 C 45.1332 110.173 45.3044 110.469 45.5286 110.718 C 45.7528 110.967 46.0298 111.168 46.336 111.305 " />
</g>

<g opacity="0.500000" fill="red" stroke-width="0.000000" id="id0000000465" >
<path id="id0000000560" d="M 54.0119 120.639 C 54.347 120.639 54.682 120.568 54.9881 120.431 C 55.2942 120.295 55.5713 120.094 55.7955 119.845 C 56.0197 119.596 56.1909 119.299 56.2945 118.98 C 56.398 118.662 56.4338 118.321 56.3988 117.988 C 56.3638 117.655 56.2579 117.329 56.0904 117.039 C 55.9228 116.749 55.6937 116.494 55.4226 116.297 C 55.1515 116.1 54.8387 115.961 54.5109 115.891 C 54.1831 115.822 53.8407 115.822 53.5129 115.891 C 53.1852 115.961 52.8724 116.1 52.6012 116.297 C 52.3301 116.494 52.101 116.749 51.9335 117.039 C 51.7659 117.329 51.6601 117.655 51.6251 117.988 C 51.5901 118.321 51.6258 118.662 51.7294 118.98 C 51.833 119.299 52.0042 119.596 52.2284 119.845 C 52.4526 120.094 52.7296 120.295 53.0358 120.431 " />
</g>

<g opacity="0.500000" fill="red" stroke-width="0.000000" id="id0000000467" >
<path id="id0000000561" d="M 177.688 122.577 C 178.023 122.577 178.358 122.505 178.664 122.369 C 178.97 122.233 179.247 122.032 179.471 121.783 C 179.696 121.534 179.867 121.237 179.97 120.918 C 180.074 120.6 180.11 120.259 180.075 119.926 C 180.04 119.593 179.934 119.267 179.766 118.977 C 179.599 118.686 179.37 118.432 179.099 118.235 C 178.827 118.038 178.515 117.899 178.187 117.829 C 177.859 117.759 177.517 117.759 177.189 117.829 C 176.861 117.899 176.548 118.038 176.277 118.235 C 176.006 118.432 175.777 118.686 175.609 118.977 C 175.442 119.267 175.336 119.593 175.301 119.926 C 175.266 120.259 175.302 120.6 175.405 120.918 C 175.509 121.237 175.68 121.534 175.904 121.783 C 176.129 122.032 176.406 122.233 176.712 122.369 " />
</g>

<g opacity="0.500000" fill="red" stroke-width="0.000000" id="id0000000469" >
<path id="id0000000562" d="M 64.3863 103.002 C 64.7214 103.002 65.0564 102.931 65.3625 102.795 C 65.6686 102.659 65.9457 102.457 66.1699 102.208 C 66.3941 101.959 66.5653 101.663 66.6689 101.344 C 66.7724 101.025 66.8082 100.685 66.7732 100.351 C 66.7382 100.018 66.6323 99.6925 66.4648 99.4023 C 66.2972 99.1121 66.0681 98.8576 65.797 98.6607 C 65.5259 98.4637 65.2131 98.3244 64.8853 98.2547 C 64.5575 98.1851 64.2151 98.1851 63.8873 98.2547 C 63.5596 98.3244 63.2468 98.4637 62.9757 98.6607 C 62.7045 98.8576 62.4754 99.1121 62.3079 99.4023 C 62.1403 99.6925 62.0345 100.018 61.9995 100.351 C 61.9645 100.685 62.0002 101.025 62.1038 101.344 C 62.2074 101.663 62.3786 101.959 62.6028 102.208 C 62.827 102.457 63.104 102.659 63.4102 102.795 " />
</g>

<g opacity="0.500000" fill="red" stroke-width="0.000000" id="id0000000471" >
<path id="id0000000563" d="M 55.5089 116.584 C 55.844 116.584 56.179 116.513 56.4851 116.377 C 56.7912 116.241 57.0683 116.039 57.2925 115.79 C 57.5167 115.541 57.6879 115.245 57.7915 114.926 C 57.895 114.607 57.9308 114.267 57.8958 113.934 C 57.8608 113.6 57.755 113.275 57.5874 112.984 C 57.4198 112.694 57.1907 112.44 56.9196 112.243 C 56.6485 112.046 56.3357 111.907 56.0079 111.837 C 55.6801 111.767 55.3377 111.767 55.01 111.837 C 54.6822 111.907 54.3694 112.046 54.0983 112.243 C 53.8272 112.44 53.598 112.694 53.4305 112.984 C 53.2629 113.275 53.1571 113.6 53.1221 113.934 C 53.0871 114.267 53.1229 114.607 53.2264 114.926 C 53.33 115.245 53.5012 115.541 53.7254 115.79 C 53.9496 116.039 54.2266 116.241 54.5328 116.377 " />
</g>

<g opacity="0.500000" fill="red" stroke-width="0.000000" id="id0000000473" >
<path id="id0000000564" d="M 63.5413 102.981 C 63.8764 102.981 64.2113 102.91 64.5175 102.774 C 64.8236 102.637 65.1006 102.436 65.3249 102.187 C 65.5491 101.938 65.7203 101.642 65.8239 101.323 C 65.9274 101.004 65.9632 100.664 65.9282 100.33 C 65.8931 99.9971 65.7873 99.6714 65.6198 99.3812 C 65.4522 99.091 65.2231 98.8366 64.952 98.6396 C 64.6809 98.4426 64.3681 98.3034 64.0403 98.2337 C 63.7125 98.164 63.3701 98.164 63.0423 98.2337 C 62.7145 98.3034 62.4017 98.4426 62.1306 98.6396 C 61.8595 98.8366 61.6304 99.091 61.4629 99.3812 C 61.2953 99.6714 61.1895 99.9971 61.1545 100.33 C 61.1194 100.664 61.1552 101.004 61.2588 101.323 C 61.3623 101.642 61.5335 101.938 61.7578 102.187 C 61.982 102.436 62.259 102.637 62.5651 102.774 " />
</g>

<g opacity="0.500000" fill="red" stroke-width="0.000000" id="id0000000475" >
<path id="id0000000565" d="M 99.5424 120.536 C 99.8775 120.536 100.212 120.465 100.519 120.329 C 100.825 120.192 101.102 119.991 101.326 119.742 C 101.55 119.493 101.721 119.197 101.825 118.878 C 101.928 118.559 101.964 118.219 101.929 117.885 C 101.894 117.552 101.788 117.226 101.621 116.936 C 101.453 116.646 101.224 116.392 100.953 116.195 C 100.682 115.998 100.369 115.858 100.041 115.789 C 99.7136 115.719 99.3712 115.719 99.0434 115.789 C 98.7156 115.858 98.4028 115.998 98.1317 116.195 C 97.8606 116.392 97.6315 116.646 97.4639 116.936 C 97.2964 117.226 97.1906 117.552 97.1555 117.885 C 97.1205 118.219 97.1563 118.559 97.2599 118.878 C 97.3634 119.197 97.5346 119.493 97.7589 119.742 C 97.9831 119.991 98.2601 120.192 98.5662 120.329 " />
</g>

<g opacity="0.500000" fill="red" stroke-width="0.000000" id="id0000000477" >
<path id="id0000000566" d="M 67.1369 124.171 C 67.472 124.171 67.8069 124.1 68.113 123.963 C 68.4192 123.827 68.6962 123.626 68.9204 123.377 C 69.1447 123.128 69.3159 122.831 69.4194 122.512 C 69.523 122.194 69.5588 121.853 69.5237 121.52 C 69.4887 121.187 69.3829 120.861 69.2153 120.571 C 69.0478 120.281 68.8187 120.026 68.5476 119.829 C 68.2765 119.632 67.9636 119.493 67.6359 119.423 C 67.3081 119.354 66.9657 119.354 66.6379 119.423 C 66.3101 119.493 65.9973 119.632 65.7262 119.829 C 65.4551 120.026 65.226 120.281 65.0584 120.571 C 64.8909 120.861 64.7851 121.187 64.75 121.52 C 64.715 121.853 64.7508 122.194 64.8543 122.512 C 64.9579 122.831 65.1291 123.128 65.3533 123.377 C 65.5776 123.626 65.8546 123.827 66.1607 123.963 " />
</g>

<g opacity="0.500000" fill="red" stroke-width="0.000000" id="id0000000479" >
<path id="id0000000567" d="M 54.4174 112.486 C 54.7525 112.486 55.0874 112.415 55.3936 112.279 C 55.6997 112.142 55.9767 111.941 56.2009 111.692 C 56.4252 111.443 56.5964 111.147 56.6999 110.828 C 56.8035 110.509 56.8393 110.169 56.8043 109.835 C 56.7692 109.502 56.6634 109.176 56.4959 108.886 C 56.3283 108.596 56.0992 108.341 55.8281 108.145 C 55.557 107.948 55.2442 107.808 54.9164 107.739 C 54.5886 107.669 54.2462 107.669 53.9184 107.739 C 53.5906 107.808 53.2778 107.948 53.0067 108.145 C 52.7356 108.341 52.5065 108.596 52.3389 108.886 C 52.1714 109.176 52.0656 109.502 52.0305 109.835 C 51.9955 110.169 52.0313 110.509 52.1349 110.828 C 52.2384 111.147 52.4096 111.443 52.6339 111.692 C 52.8581 111.941 53.1351 112.142 53.4412 112.279 " />
</g>

<g opacity="0.500000" fill="red" stroke-width="0.000000" id="id0000000481" >
<path id="id0000000568" d="M 88.6937 101.695 C 89.0288 101.695 89.3638 101.623 89.6699 101.487 C 89.976 101.351 90.2531 101.149 90.4773 100.9 C 90.7015 100.651 90.8727 100.355 90.9763 100.036 C 91.0798 99.7175 91.1156 99.3769 91.0806 99.0437 C 91.0456 98.7104 90.9397 98.3848 90.7722 98.0945 C 90.6046 97.8043 90.3755 97.5499 90.1044 97.3529 C 89.8333 97.1559 89.5205 97.0167 89.1927 96.947 C 88.8649 96.8773 88.5225 96.8773 88.1947 96.947 C 87.867 97.0167 87.5542 97.1559 87.2831 97.3529 C 87.0119 97.5499 86.7828 97.8043 86.6153 98.0945 C 86.4477 98.3848 86.3419 98.7104 86.3069 99.0437 C 86.2719 99.3769 86.3076 99.7175 86.4112 100.036 C 86.5147 100.355 86.686 100.651 86.9102 100.9 C 87.1344 101.149 87.4114 101.351 87.7176 101.487 " />
</g>

<g opacity="0.500000" fill="red" stroke-width="0.000000" id="id0000000483" >
<path id="id0000000569" d="M 58.4153 111.96 C 58.7504 111.96 59.0853 111.889 59.3914 111.753 C 59.6976 111.616 59.9746 111.415 60.1988 111.166 C 60.423 110.917 60.5942 110.62 60.6978 110.302 C 60.8013 109.983 60.8371 109.642 60.8021 109.309 C 60.7671 108.976 60.6613 108.65 60.4937 108.36 C 60.3262 108.07 60.097 107.815 59.8259 107.618 C 59.5548 107.421 59.242 107.282 58.9142 107.213 C 58.5865 107.143 58.244 107.143 57.9163 107.213 C 57.5885 107.282 57.2757 107.421 57.0046 107.618 C 56.7335 107.815 56.5043 108.07 56.3368 108.36 C 56.1692 108.65 56.0634 108.976 56.0284 109.309 C 55.9934 109.642 56.0292 109.983 56.1327 110.302 C 56.2363 110.62 56.4075 110.917 56.6317 111.166 C 56.8559 111.415 57.133 111.616 57.4391 111.753 " />
</g>

<g opacity="0.500000" fill="red" stroke-width="0.000000" id="id0000000485" >
<path id="id0000000570" d="M 69.1712 124.286 C 69.5063 124.286 69.8412 124.215 70.1473 124.079 C 70.4535 123.942 70.7305 123.741 70.9547 123.492 C 71.1789 123.243 71.3501 122.947 71.4537 122.628 C 71.5572 122.309 71.593 121.969 71.558 121.635 C 71.523 121.302 71.4172 120.976 71.2496 120.686 C 71.0821 120.396 70.8529 120.142 70.5818 119.945 C 70.3107 119.748 69.9979 119.608 69.6701 119.539 C 69.3424 119.469 68.9999 119.469 68.6722 119.539 C 68.3444 119.608 68.0316 119.748 67.7605 119.945 C 67.4894 120.142 67.2602 120.396 67.0927 120.686 C 66.9251 120.976 66.8193 121.302 66.7843 121.635 C 66.7493 121.969 66.7851 122.309 66.8886 122.628 C 66.9922 122.947 67.1634 123.243 67.3876 123.492 C 67.6118 123.741 67.8889 123.942 68.195 124.079 " />
</g>

<g opacity="0.500000" fill="red" stroke-width="0.000000" id="id0000000487" >
<path id="id0000000571" d="M 167.226 116.327 C 167.562 116.327 167.896 116.256 168.203 116.12 C 168.509 115.983 168.786 115.782 169.01 115.533 C 169.234 115.284 169.405 114.988 169.509 114.669 C 169.613 114.35 169.648 114.01 169.613 113.676 C 169.578 113.343 169.472 113.017 169.305 112.727 C 169.137 112.437 168.908 112.183 168.637 111.986 C 168.366 111.789 168.053 111.649 167.725 111.58 C 167.398 111.51 167.055 111.51 166.727 111.58 C 166.4 111.649 166.087 111.789 165.816 111.986 C 165.545 112.183 165.316 112.437 165.148 112.727 C 164.98 113.017 164.875 113.343 164.84 113.676 C 164.805 114.01 164.84 114.35 164.944 114.669 C 165.047 114.988 165.219 115.284 165.443 115.533 C 165.667 115.782 165.944 115.983 166.25 116.12 " />
</g>

<g opacity="0.500000" fill="red" stroke-width="0.000000" id="id0000000489" >
<path id="id0000000572" d="M 54.3196 123.013 C 54.6547 123.013 54.9896 122.942 55.2957 122.805 C 55.6019 122.669 55.8789 122.468 56.1031 122.219 C 56.3273 121.97 56.4985 121.673 56.6021 121.354 C 56.7056 121.036 56.7414 120.695 56.7064 120.362 C 56.6714 120.029 56.5656 119.703 56.398 119.413 C 56.2305 119.123 56.0013 118.868 55.7302 118.671 C 55.4591 118.474 55.1463 118.335 54.8185 118.265 C 54.4908 118.196 54.1483 118.196 53.8206 118.265 C 53.4928 118.335 53.18 118.474 52.9089 118.671 C 52.6378 118.868 52.4086 119.123 52.2411 119.413 C 52.0735 119.703 51.9677 120.029 51.9327 120.362 C 51.8977 120.695 51.9335 121.036 52.037 121.354 C 52.1406 121.673 52.3118 121.97 52.536 122.219 C 52.7602 122.468 53.0373 122.669 53.3434 122.805 " />
</g>

<g opacity="0.500000" fill="red" stroke-width="0.000000" id="id0000000491" >
<path id="id0000000573" d="M 81.7211 121.289 C 82.0562 121.289 82.3911 121.218 82.6972 121.082 C 83.0034 120.945 83.2804 120.744 83.5046 120.495 C 83.7289 120.246 83.9001 119.949 84.0036 119.631 C 84.1072 119.312 84.143 118.971 84.1079 118.638 C 84.0729 118.305 83.9671 117.979 83.7995 117.689 C 83.632 117.399 83.4029 117.144 83.1318 116.947 C 82.8607 116.75 82.5478 116.611 82.2201 116.541 C 81.8923 116.472 81.5499 116.472 81.2221 116.541 C 80.8943 116.611 80.5815 116.75 80.3104 116.947 C 80.0393 117.144 79.8102 117.399 79.6426 117.689 C 79.4751 117.979 79.3693 118.305 79.3342 118.638 C 79.2992 118.971 79.335 119.312 79.4385 119.631 C 79.5421 119.949 79.7133 120.246 79.9375 120.495 C 80.1618 120.744 80.4388 120.945 80.7449 121.082 " />
</g>

<g opacity="0.500000" fill="red" stroke-width="0.000000" id="id0000000493" >
<path id="id0000000574" d="M 74.6803 77.6384 C 75.0154 77.6384 75.3504 77.5672 75.6565 77.4309 C 75.9626 77.2946 76.2396 77.0934 76.4639 76.8443 C 76.6881 76.5953 76.8593 76.2988 76.9629 75.9801 C 77.0664 75.6614 77.1022 75.3208 77.0672 74.9876 C 77.0322 74.6543 76.9263 74.3286 76.7588 74.0384 C 76.5912 73.7482 76.3621 73.4938 76.091 73.2968 C 75.8199 73.0998 75.5071 72.9605 75.1793 72.8909 C 74.8515 72.8212 74.5091 72.8212 74.1813 72.8909 C 73.8536 72.9605 73.5407 73.0998 73.2696 73.2968 C 72.9985 73.4938 72.7694 73.7482 72.6019 74.0384 C 72.4343 74.3286 72.3285 74.6543 72.2935 74.9876 C 72.2584 75.3208 72.2942 75.6614 72.3978 75.9801 C 72.5013 76.2988 72.6726 76.5953 72.8968 76.8443 C 73.121 77.0934 73.398 77.2946 73.7042 77.4309 " />
</g>

<g opacity="0.500000" fill="red" stroke-width="0.000000" id="id0000000495" >
<path id="id0000000575" d="M 49.4047 125.19 C 49.7398 125.19 50.0748 125.118 50.3809 124.982 C 50.687 124.846 50.9641 124.644 51.1883 124.395 C 51.4125 124.146 51.5837 123.85 51.6873 123.531 C 51.7908 123.212 51.8266 122.872 51.7916 122.539 C 51.7566 122.205 51.6508 121.88 51.4832 121.59 C 51.3157 121.299 51.0865 121.045 50.8154 120.848 C 50.5443 120.651 50.2315 120.512 49.9037 120.442 C 49.576 120.372 49.2335 120.372 48.9058 120.442 C 48.578 120.512 48.2652 120.651 47.9941 120.848 C 47.723 121.045 47.4938 121.299 47.3263 121.59 C 47.1587 121.88 47.0529 122.205 47.0179 122.539 C 46.9829 122.872 47.0187 123.212 47.1222 123.531 C 47.2258 123.85 47.397 124.146 47.6212 124.395 C 47.8454 124.644 48.1224 124.846 48.4286 124.982 " />
</g>

<g opacity="0.500000" fill="red" stroke-width="0.000000" id="id0000000497" >
<path id="id0000000576" d="M 51.639 124.944 C 51.9741 124.944 52.309 124.873 52.6152 124.736 C 52.9213 124.6 53.1983 124.399 53.4225 124.15 C 53.6468 123.901 53.818 123.604 53.9215 123.286 C 54.0251 122.967 54.0609 122.626 54.0258 122.293 C 53.9908 121.96 53.885 121.634 53.7174 121.344 C 53.5499 121.054 53.3208 120.799 53.0497 120.602 C 52.7786 120.405 52.4658 120.266 52.138 120.196 C 51.8102 120.127 51.4678 120.127 51.14 120.196 C 50.8122 120.266 50.4994 120.405 50.2283 120.602 C 49.9572 120.799 49.7281 121.054 49.5605 121.344 C 49.393 121.634 49.2872 121.96 49.2521 122.293 C 49.2171 122.626 49.2529 122.967 49.3564 123.286 C 49.46 123.604 49.6312 123.901 49.8554 124.15 C 50.0797 124.399 50.3567 124.6 50.6628 124.736 " />
</g>

<g opacity="0.500000" fill="red" stroke-width="0.000000" id="id0000000499" >
<path id="id0000000577" d="M 58.4847 127.359 C 58.8198 127.359 59.1548 127.288 59.4609 127.152 C 59.767 127.016 60.044 126.814 60.2683 126.565 C 60.4925 126.316 60.6637 126.02 60.7673 125.701 C 60.8708 125.382 60.9066 125.042 60.8716 124.709 C 60.8366 124.375 60.7307 124.05 60.5632 123.759 C 60.3956 123.469 60.1665 123.215 59.8954 123.018 C 59.6243 122.821 59.3115 122.682 58.9837 122.612 C 58.6559 122.542 58.3135 122.542 57.9857 122.612 C 57.658 122.682 57.3451 122.821 57.074 123.018 C 56.8029 123.215 56.5738 123.469 56.4063 123.759 C 56.2387 124.05 56.1329 124.375 56.0979 124.709 C 56.0629 125.042 56.0986 125.382 56.2022 125.701 C 56.3057 126.02 56.477 126.316 56.7012 126.565 C 56.9254 126.814 57.2024 127.016 57.5086 127.152 " />
</g>

<g opacity="0.500000" fill="red" stroke-width="0.000000" id="id0000000501" >
<path id="id0000000578" d="M 141.958 100.119 C 142.294 100.119 142.628 100.047 142.935 99.911 C 143.241 99.7747 143.518 99.5735 143.742 99.3244 C 143.966 99.0754 144.137 98.7789 144.241 98.4602 C 144.345 98.1415 144.38 97.8009 144.345 97.4677 C 144.31 97.1344 144.204 96.8087 144.037 96.5185 C 143.869 96.2283 143.64 95.9738 143.369 95.7769 C 143.098 95.5799 142.785 95.4406 142.457 95.371 C 142.13 95.3013 141.787 95.3013 141.459 95.371 C 141.132 95.4406 140.819 95.5799 140.548 95.7769 C 140.277 95.9738 140.048 96.2283 139.88 96.5185 C 139.712 96.8087 139.607 97.1344 139.572 97.4677 C 139.537 97.8009 139.572 98.1415 139.676 98.4602 C 139.779 98.7789 139.951 99.0754 140.175 99.3244 C 140.399 99.5735 140.676 99.7747 140.982 99.911 " />
</g>

<g opacity="0.500000" fill="red" stroke-width="0.000000" id="id0000000503" >
<path id="id0000000579" d="M 58.5212 79.9826 C 58.8563 79.9826 59.1912 79.9114 59.4973 79.7751 C 59.8035 79.6388 60.0805 79.4375 60.3047 79.1885 C 60.5289 78.9394 60.7001 78.6429 60.8037 78.3242 C 60.9073 78.0055 60.943 77.665 60.908 77.3317 C 60.873 76.9984 60.7672 76.6728 60.5996 76.3826 C 60.4321 76.0924 60.203 75.8379 59.9319 75.6409 C 59.6607 75.444 59.3479 75.3047 59.0202 75.235 C 58.6924 75.1653 58.35 75.1653 58.0222 75.235 C 57.6944 75.3047 57.3816 75.444 57.1105 75.6409 C 56.8394 75.8379 56.6103 76.0924 56.4427 76.3826 C 56.2752 76.6728 56.1693 76.9984 56.1343 77.3317 C 56.0993 77.665 56.1351 78.0055 56.2386 78.3242 C 56.3422 78.6429 56.5134 78.9394 56.7376 79.1885 C 56.9618 79.4375 57.2389 79.6388 57.545 79.7751 " />
</g>

<g opacity="0.500000" fill="red" stroke-width="0.000000" id="id0000000505" >
<path id="id0000000580" d="M 85.8246 100.548 C 86.1597 100.548 86.4947 100.477 86.8008 100.34 C 87.1069 100.204 87.3839 100.003 87.6082 99.7537 C 87.8324 99.5046 88.0036 99.2081 88.1072 98.8894 C 88.2107 98.5707 88.2465 98.2302 88.2115 97.8969 C 88.1765 97.5636 88.0706 97.238 87.9031 96.9478 C 87.7355 96.6575 87.5064 96.4031 87.2353 96.2061 C 86.9642 96.0091 86.6514 95.8699 86.3236 95.8002 C 85.9958 95.7305 85.6534 95.7305 85.3256 95.8002 C 84.9979 95.8699 84.6851 96.0091 84.4139 96.2061 C 84.1428 96.4031 83.9137 96.6575 83.7462 96.9478 C 83.5786 97.238 83.4728 97.5636 83.4378 97.8969 C 83.4027 98.2302 83.4385 98.5707 83.5421 98.8894 C 83.6456 99.2081 83.8169 99.5046 84.0411 99.7537 C 84.2653 100.003 84.5423 100.204 84.8485 100.34 " />
</g>

<g opacity="0.500000" fill="red" stroke-width="0.000000" id="id0000000507" >
<path id="id0000000581" d="M 61.8096 117.05 C 62.1447 117.05 62.4797 116.979 62.7858 116.842 C 63.0919 116.706 63.3689 116.505 63.5932 116.256 C 63.8174 116.007 63.9886 115.71 64.0922 115.391 C 64.1957 115.073 64.2315 114.732 64.1965 114.399 C 64.1614 114.066 64.0556 113.74 63.8881 113.45 C 63.7205 113.16 63.4914 112.905 63.2203 112.708 C 62.9492 112.511 62.6364 112.372 62.3086 112.302 C 61.9808 112.233 61.6384 112.233 61.3106 112.302 C 60.9828 112.372 60.67 112.511 60.3989 112.708 C 60.1278 112.905 59.8987 113.16 59.7312 113.45 C 59.5636 113.74 59.4578 114.066 59.4228 114.399 C 59.3877 114.732 59.4235 115.073 59.5271 115.391 C 59.6306 115.71 59.8018 116.007 60.0261 116.256 C 60.2503 116.505 60.5273 116.706 60.8335 116.842 " />
</g>

<g opacity="0.500000" fill="red" stroke-width="0.000000" id="id0000000509" >
<path id="id0000000582" d="M 54.3455 123.192 C 54.6806 123.192 55.0156 123.12 55.3217 122.984 C 55.6278 122.848 55.9048 122.646 56.1291 122.397 C 56.3533 122.148 56.5245 121.852 56.6281 121.533 C 56.7316 121.214 56.7674 120.874 56.7324 120.541 C 56.6973 120.207 56.5915 119.882 56.424 119.592 C 56.2564 119.301 56.0273 119.047 55.7562 118.85 C 55.4851 118.653 55.1723 118.514 54.8445 118.444 C 54.5167 118.374 54.1743 118.374 53.8465 118.444 C 53.5187 118.514 53.2059 118.653 52.9348 118.85 C 52.6637 119.047 52.4346 119.301 52.2671 119.592 C 52.0995 119.882 51.9937 120.207 51.9587 120.541 C 51.9236 120.874 51.9594 121.214 52.063 121.533 C 52.1665 121.852 52.3377 122.148 52.562 122.397 C 52.7862 122.646 53.0632 122.848 53.3694 122.984 " />
</g>

<g opacity="0.500000" fill="red" stroke-width="0.000000" id="id0000000511" >
<path id="id0000000583" d="M 65.165 122.352 C 65.5001 122.352 65.8351 122.281 66.1412 122.145 C 66.4473 122.009 66.7243 121.807 66.9486 121.558 C 67.1728 121.309 67.344 121.013 67.4476 120.694 C 67.5511 120.375 67.5869 120.035 67.5519 119.702 C 67.5168 119.368 67.411 119.043 67.2435 118.752 C 67.0759 118.462 66.8468 118.208 66.5757 118.011 C 66.3046 117.814 65.9918 117.675 65.664 117.605 C 65.3362 117.535 64.9938 117.535 64.666 117.605 C 64.3382 117.675 64.0254 117.814 63.7543 118.011 C 63.4832 118.208 63.2541 118.462 63.0866 118.752 C 62.919 119.043 62.8132 119.368 62.7782 119.702 C 62.7431 120.035 62.7789 120.375 62.8825 120.694 C 62.986 121.013 63.1572 121.309 63.3815 121.558 C 63.6057 121.807 63.8827 122.009 64.1889 122.145 " />
</g>

<g opacity="0.500000" fill="red" stroke-width="0.000000" id="id0000000513" >
<path id="id0000000584" d="M 61.4235 97.1647 C 61.7586 97.1647 62.0935 97.0936 62.3996 96.9573 C 62.7058 96.821 62.9828 96.6197 63.207 96.3707 C 63.4313 96.1216 63.6025 95.8251 63.706 95.5064 C 63.8096 95.1877 63.8454 94.8471 63.8103 94.5139 C 63.7753 94.1806 63.6695 93.8549 63.5019 93.5647 C 63.3344 93.2745 63.1053 93.0201 62.8342 92.8231 C 62.5631 92.6261 62.2502 92.4869 61.9225 92.4172 C 61.5947 92.3475 61.2523 92.3475 60.9245 92.4172 C 60.5967 92.4869 60.2839 92.6261 60.0128 92.8231 C 59.7417 93.0201 59.5126 93.2745 59.345 93.5647 C 59.1775 93.8549 59.0717 94.1806 59.0366 94.5139 C 59.0016 94.8471 59.0374 95.1877 59.1409 95.5064 C 59.2445 95.8251 59.4157 96.1216 59.6399 96.3707 C 59.8642 96.6197 60.1412 96.821 60.4473 96.9573 " />
</g>

<g opacity="0.500000" fill="red" stroke-width="0.000000" id="id0000000515" >
<path id="id0000000585" d="M 49.2345 121.073 C 49.5696 121.073 49.9046 121.001 50.2107 120.865 C 50.5168 120.729 50.7938 120.527 51.0181 120.278 C 51.2423 120.029 51.4135 119.733 51.5171 119.414 C 51.6206 119.095 51.6564 118.755 51.6214 118.422 C 51.5864 118.088 51.4805 117.763 51.313 117.473 C 51.1454 117.182 50.9163 116.928 50.6452 116.731 C 50.3741 116.534 50.0613 116.395 49.7335 116.325 C 49.4057 116.255 49.0633 116.255 48.7355 116.325 C 48.4078 116.395 48.095 116.534 47.8238 116.731 C 47.5527 116.928 47.3236 117.182 47.1561 117.473 C 46.9885 117.763 46.8827 118.088 46.8477 118.422 C 46.8127 118.755 46.8484 119.095 46.952 119.414 C 47.0555 119.733 47.2268 120.029 47.451 120.278 C 47.6752 120.527 47.9522 120.729 48.2584 120.865 " />
</g>

<g opacity="0.500000" fill="red" stroke-width="0.000000" id="id0000000517" >
<path id="id0000000586" d="M 130.97 110.509 C 131.305 110.509 131.64 110.438 131.946 110.302 C 132.252 110.166 132.529 109.964 132.753 109.715 C 132.978 109.466 133.149 109.17 133.252 108.851 C 133.356 108.532 133.392 108.192 133.357 107.858 C 133.322 107.525 133.216 107.2 133.048 106.909 C 132.881 106.619 132.652 106.365 132.38 106.168 C 132.109 105.971 131.797 105.831 131.469 105.762 C 131.141 105.692 130.799 105.692 130.471 105.762 C 130.143 105.831 129.83 105.971 129.559 106.168 C 129.288 106.365 129.059 106.619 128.891 106.909 C 128.724 107.2 128.618 107.525 128.583 107.858 C 128.548 108.192 128.584 108.532 128.687 108.851 C 128.791 109.17 128.962 109.466 129.186 109.715 C 129.41 109.964 129.687 110.166 129.994 110.302 " />
</g>

<g opacity="0.500000" fill="red" stroke-width="0.000000" id="id0000000519" >
<path id="id0000000587" d="M 114.736 125.327 C 115.071 125.327 115.406 125.256 115.712 125.12 C 116.018 124.983 116.295 124.782 116.519 124.533 C 116.743 124.284 116.915 123.987 117.018 123.669 C 117.122 123.35 117.158 123.01 117.123 122.676 C 117.088 122.343 116.982 122.017 116.814 121.727 C 116.647 121.437 116.418 121.182 116.146 120.985 C 115.875 120.789 115.562 120.649 115.235 120.58 C 114.907 120.51 114.565 120.51 114.237 120.58 C 113.909 120.649 113.596 120.789 113.325 120.985 C 113.054 121.182 112.825 121.437 112.657 121.727 C 112.49 122.017 112.384 122.343 112.349 122.676 C 112.314 123.01 112.35 123.35 112.453 123.669 C 112.557 123.987 112.728 124.284 112.952 124.533 C 113.176 124.782 113.453 124.983 113.76 125.12 " />
</g>

<g opacity="0.500000" fill="red" stroke-width="0.000000" id="id0000000521" >
<path id="id0000000588" d="M 74.638 123.036 C 74.9731 123.036 75.3081 122.965 75.6142 122.828 C 75.9203 122.692 76.1973 122.491 76.4216 122.242 C 76.6458 121.993 76.817 121.696 76.9206 121.377 C 77.0241 121.059 77.0599 120.718 77.0249 120.385 C 76.9898 120.052 76.884 119.726 76.7165 119.436 C 76.5489 119.146 76.3198 118.891 76.0487 118.694 C 75.7776 118.497 75.4648 118.358 75.137 118.288 C 74.8092 118.219 74.4668 118.219 74.139 118.288 C 73.8112 118.358 73.4984 118.497 73.2273 118.694 C 72.9562 118.891 72.7271 119.146 72.5596 119.436 C 72.392 119.726 72.2862 120.052 72.2512 120.385 C 72.2161 120.718 72.2519 121.059 72.3555 121.377 C 72.459 121.696 72.6302 121.993 72.8545 122.242 C 73.0787 122.491 73.3557 122.692 73.6618 122.828 " />
</g>

<g opacity="0.500000" fill="red" stroke-width="0.000000" id="id0000000523" >
<path id="id0000000589" d="M 62.5228 109.153 C 62.8579 109.153 63.1928 109.082 63.499 108.946 C 63.8051 108.81 64.0821 108.608 64.3063 108.359 C 64.5306 108.11 64.7018 107.814 64.8053 107.495 C 64.9089 107.176 64.9447 106.836 64.9096 106.503 C 64.8746 106.169 64.7688 105.844 64.6013 105.553 C 64.4337 105.263 64.2046 105.009 63.9335 104.812 C 63.6624 104.615 63.3496 104.476 63.0218 104.406 C 62.694 104.336 62.3516 104.336 62.0238 104.406 C 61.696 104.476 61.3832 104.615 61.1121 104.812 C 60.841 105.009 60.6119 105.263 60.4443 105.553 C 60.2768 105.844 60.171 106.169 60.1359 106.503 C 60.1009 106.836 60.1367 107.176 60.2403 107.495 C 60.3438 107.814 60.515 108.11 60.7392 108.359 C 60.9635 108.608 61.2405 108.81 61.5466 108.946 " />
</g>

<g opacity="0.500000" fill="red" stroke-width="0.000000" id="id0000000525" >
<path id="id0000000590" d="M 60.4407 12.4406 C 60.7758 12.4406 61.1107 12.3694 61.4169 12.2331 C 61.723 12.0968 62 11.8956 62.2242 11.6465 C 62.4485 11.3975 62.6197 11.101 62.7232 10.7823 C 62.8268 10.4635 62.8626 10.123 62.8275 9.78974 C 62.7925 9.45648 62.6867 9.13082 62.5192 8.84061 C 62.3516 8.5504 62.1225 8.29594 61.8514 8.09897 C 61.5803 7.902 61.2675 7.76273 60.9397 7.69306 C 60.6119 7.62338 60.2695 7.62339 59.9417 7.69306 C 59.6139 7.76273 59.3011 7.902 59.03 8.09897 C 58.7589 8.29594 58.5298 8.5504 58.3622 8.84061 C 58.1947 9.13082 58.0889 9.45648 58.0538 9.78974 C 58.0188 10.123 58.0546 10.4636 58.1582 10.7823 C 58.2617 11.101 58.4329 11.3975 58.6571 11.6465 C 58.8814 11.8956 59.1584 12.0968 59.4645 12.2331 " />
</g>

<g opacity="0.500000" fill="red" stroke-width="0.000000" id="id0000000527" >
<path id="id0000000591" d="M 103.24 127.078 C 103.575 127.078 103.91 127.007 104.216 126.871 C 104.523 126.734 104.8 126.533 105.024 126.284 C 105.248 126.035 105.419 125.738 105.523 125.42 C 105.626 125.101 105.662 124.761 105.627 124.427 C 105.592 124.094 105.486 123.768 105.319 123.478 C 105.151 123.188 104.922 122.933 104.651 122.736 C 104.38 122.54 104.067 122.4 103.739 122.331 C 103.412 122.261 103.069 122.261 102.741 122.331 C 102.414 122.4 102.101 122.54 101.83 122.736 C 101.559 122.933 101.329 123.188 101.162 123.478 C 100.994 123.768 100.889 124.094 100.853 124.427 C 100.818 124.761 100.854 125.101 100.958 125.42 C 101.061 125.738 101.233 126.035 101.457 126.284 C 101.681 126.533 101.958 126.734 102.264 126.871 " />
</g>

<g opacity="0.500000" fill="red" stroke-width="0.000000" id="id0000000529" >
<path id="id0000000592" d="M 69.0239 117.302 C 69.359 117.302 69.6939 117.231 70.0001 117.095 C 70.3062 116.959 70.5832 116.757 70.8074 116.508 C 71.0317 116.259 71.2029 115.963 71.3064 115.644 C 71.41 115.325 71.4458 114.985 71.4108 114.652 C 71.3757 114.318 71.2699 113.993 71.1024 113.702 C 70.9348 113.412 70.7057 113.158 70.4346 112.961 C 70.1635 112.764 69.8507 112.624 69.5229 112.555 C 69.1951 112.485 68.8527 112.485 68.5249 112.555 C 68.1971 112.624 67.8843 112.764 67.6132 112.961 C 67.3421 113.158 67.113 113.412 66.9454 113.702 C 66.7779 113.993 66.6721 114.318 66.637 114.652 C 66.602 114.985 66.6378 115.325 66.7414 115.644 C 66.8449 115.963 67.0161 116.259 67.2403 116.508 C 67.4646 116.757 67.7416 116.959 68.0477 117.095 " />
</g>

<g opacity="0.500000" fill="red" stroke-width="0.000000" id="id0000000531" >
<path id="id0000000593" d="M 85.6862 103.621 C 86.0213 103.621 86.3562 103.55 86.6624 103.414 C 86.9685 103.277 87.2455 103.076 87.4697 102.827 C 87.694 102.578 87.8652 102.282 87.9687 101.963 C 88.0723 101.644 88.1081 101.304 88.0731 100.97 C 88.038 100.637 87.9322 100.311 87.7647 100.021 C 87.5971 99.731 87.368 99.4765 87.0969 99.2795 C 86.8258 99.0826 86.513 98.9433 86.1852 98.8736 C 85.8574 98.804 85.515 98.804 85.1872 98.8736 C 84.8594 98.9433 84.5466 99.0826 84.2755 99.2795 C 84.0044 99.4765 83.7753 99.731 83.6077 100.021 C 83.4402 100.311 83.3344 100.637 83.2993 100.97 C 83.2643 101.304 83.3001 101.644 83.4037 101.963 C 83.5072 102.282 83.6784 102.578 83.9027 102.827 C 84.1269 103.076 84.4039 103.277 84.71 103.414 " />
</g>

<g opacity="0.500000" fill="red" stroke-width="0.000000" id="id0000000533" >
<path id="id0000000594" d="M 94.1089 73.8731 C 94.444 73.8731 94.7789 73.802 95.0851 73.6657 C 95.3912 73.5294 95.6682 73.3281 95.8924 73.0791 C 96.1167 72.83 96.2879 72.5335 96.3914 72.2148 C 96.495 71.8961 96.5308 71.5555 96.4958 71.2223 C 96.4607 70.889 96.3549 70.5634 96.1874 70.2731 C 96.0198 69.9829 95.7907 69.7285 95.5196 69.5315 C 95.2485 69.3345 94.9357 69.1953 94.6079 69.1256 C 94.2801 69.0559 93.9377 69.0559 93.6099 69.1256 C 93.2821 69.1953 92.9693 69.3345 92.6982 69.5315 C 92.4271 69.7285 92.198 69.9829 92.0304 70.2731 C 91.8629 70.5634 91.7571 70.889 91.722 71.2223 C 91.687 71.5555 91.7228 71.8961 91.8264 72.2148 C 91.9299 72.5335 92.1011 72.83 92.3254 73.0791 C 92.5496 73.3281 92.8266 73.5294 93.1327 73.6657 " />
</g>

<g opacity="0.500000" fill="red" stroke-width="0.000000" id="id0000000535" >
<path id="id0000000595" d="M 97.7393 120.127 C 98.0744 120.127 98.4094 120.056 98.7155 119.919 C 99.0216 119.783 99.2987 119.582 99.5229 119.333 C 99.7471 119.084 99.9183 118.787 100.022 118.468 C 100.125 118.15 100.161 117.809 100.126 117.476 C 100.091 117.143 99.9853 116.817 99.8178 116.527 C 99.6502 116.237 99.4211 115.982 99.15 115.785 C 98.8789 115.588 98.5661 115.449 98.2383 115.379 C 97.9105 115.309 97.5681 115.309 97.2403 115.379 C 96.9126 115.449 96.5998 115.588 96.3287 115.785 C 96.0575 115.982 95.8284 116.237 95.6609 116.527 C 95.4933 116.817 95.3875 117.143 95.3525 117.476 C 95.3175 117.809 95.3532 118.15 95.4568 118.468 C 95.5603 118.787 95.7316 119.084 95.9558 119.333 C 96.18 119.582 96.457 119.783 96.7632 119.919 " />
</g>

<g opacity="0.500000" fill="red" stroke-width="0.000000" id="id0000000537" >
<path id="id0000000596" d="M 111.355 122.328 C 111.69 122.328 112.025 122.256 112.331 122.12 C 112.637 121.984 112.914 121.782 113.139 121.533 C 113.363 121.284 113.534 120.988 113.638 120.669 C 113.741 120.35 113.777 120.01 113.742 119.677 C 113.707 119.343 113.601 119.018 113.434 118.728 C 113.266 118.437 113.037 118.183 112.766 117.986 C 112.495 117.789 112.182 117.65 111.854 117.58 C 111.526 117.51 111.184 117.51 110.856 117.58 C 110.528 117.65 110.215 117.789 109.944 117.986 C 109.673 118.183 109.444 118.437 109.277 118.728 C 109.109 119.018 109.003 119.343 108.968 119.677 C 108.933 120.01 108.969 120.35 109.073 120.669 C 109.176 120.988 109.347 121.284 109.571 121.533 C 109.796 121.782 110.073 121.984 110.379 122.12 " />
</g>

<g opacity="0.500000" fill="red" stroke-width="0.000000" id="id0000000539" >
<path id="id0000000597" d="M 54.5428 124.597 C 54.8779 124.597 55.2129 124.526 55.519 124.389 C 55.8251 124.253 56.1022 124.052 56.3264 123.803 C 56.5506 123.554 56.7218 123.257 56.8254 122.938 C 56.9289 122.62 56.9647 122.279 56.9297 121.946 C 56.8947 121.613 56.7889 121.287 56.6213 120.997 C 56.4538 120.707 56.2246 120.452 55.9535 120.255 C 55.6824 120.058 55.3696 119.919 55.0418 119.849 C 54.7141 119.779 54.3716 119.779 54.0439 119.849 C 53.7161 119.919 53.4033 120.058 53.1322 120.255 C 52.8611 120.452 52.6319 120.707 52.4644 120.997 C 52.2968 121.287 52.191 121.613 52.156 121.946 C 52.121 122.279 52.1568 122.62 52.2603 122.938 C 52.3639 123.257 52.5351 123.554 52.7593 123.803 C 52.9835 124.052 53.2605 124.253 53.5667 124.389 " />
</g>

<g opacity="0.500000" fill="red" stroke-width="0.000000" id="id0000000541" >
<path id="id0000000598" d="M 66.76 123.409 C 67.0951 123.409 67.4301 123.338 67.7362 123.201 C 68.0423 123.065 68.3194 122.864 68.5436 122.615 C 68.7678 122.366 68.939 122.069 69.0426 121.751 C 69.1461 121.432 69.1819 121.091 69.1469 120.758 C 69.1119 120.425 69.0061 120.099 68.8385 119.809 C 68.671 119.519 68.4418 119.264 68.1707 119.067 C 67.8996 118.87 67.5868 118.731 67.259 118.661 C 66.9313 118.592 66.5888 118.592 66.2611 118.661 C 65.9333 118.731 65.6205 118.87 65.3494 119.067 C 65.0783 119.264 64.8491 119.519 64.6816 119.809 C 64.514 120.099 64.4082 120.425 64.3732 120.758 C 64.3382 121.091 64.374 121.432 64.4775 121.751 C 64.5811 122.069 64.7523 122.366 64.9765 122.615 C 65.2007 122.864 65.4777 123.065 65.7839 123.201 " />
</g>

<g opacity="0.500000" fill="red" stroke-width="0.000000" id="id0000000543" >
<path id="id0000000599" d="M 76.7908 83.6971 C 77.1259 83.6971 77.4608 83.6259 77.7669 83.4896 C 78.0731 83.3533 78.3501 83.152 78.5743 82.903 C 78.7986 82.6539 78.9698 82.3574 79.0733 82.0387 C 79.1769 81.72 79.2127 81.3795 79.1776 81.0462 C 79.1426 80.7129 79.0368 80.3873 78.8692 80.0971 C 78.7017 79.8068 78.4726 79.5524 78.2015 79.3554 C 77.9304 79.1584 77.6175 79.0192 77.2898 78.9495 C 76.962 78.8798 76.6196 78.8798 76.2918 78.9495 C 75.964 79.0192 75.6512 79.1584 75.3801 79.3554 C 75.109 79.5524 74.8799 79.8069 74.7123 80.0971 C 74.5448 80.3873 74.439 80.7129 74.4039 81.0462 C 74.3689 81.3795 74.4047 81.72 74.5082 82.0387 C 74.6118 82.3574 74.783 82.6539 75.0072 82.903 C 75.2315 83.152 75.5085 83.3533 75.8146 83.4896 " />
</g>

<g opacity="0.500000" fill="red" stroke-width="0.000000" id="id0000000545" >
<path id="id0000000600" d="M 54.702 123.073 C 55.0371 123.073 55.372 123.002 55.6782 122.866 C 55.9843 122.73 56.2613 122.528 56.4855 122.279 C 56.7098 122.03 56.881 121.734 56.9845 121.415 C 57.0881 121.096 57.1239 120.756 57.0888 120.422 C 57.0538 120.089 56.948 119.764 56.7804 119.473 C 56.6129 119.183 56.3838 118.929 56.1127 118.732 C 55.8416 118.535 55.5287 118.395 55.201 118.326 C 54.8732 118.256 54.5308 118.256 54.203 118.326 C 53.8752 118.395 53.5624 118.535 53.2913 118.732 C 53.0202 118.929 52.7911 119.183 52.6235 119.473 C 52.456 119.764 52.3502 120.089 52.3151 120.422 C 52.2801 120.756 52.3159 121.096 52.4194 121.415 C 52.523 121.734 52.6942 122.03 52.9184 122.279 C 53.1427 122.528 53.4197 122.73 53.7258 122.866 " />
</g>

<g opacity="0.500000" fill="red" stroke-width="0.000000" id="id0000000547" >
<path id="id0000000601" d="M 74.7613 116.724 C 75.0964 116.724 75.4313 116.652 75.7374 116.516 C 76.0436 116.38 76.3206 116.179 76.5448 115.929 C 76.769 115.68 76.9402 115.384 77.0438 115.065 C 77.1473 114.747 77.1831 114.406 77.1481 114.073 C 77.1131 113.739 77.0073 113.414 76.8397 113.124 C 76.6722 112.833 76.443 112.579 76.1719 112.382 C 75.9008 112.185 75.588 112.046 75.2602 111.976 C 74.9325 111.906 74.59 111.906 74.2623 111.976 C 73.9345 112.046 73.6217 112.185 73.3506 112.382 C 73.0795 112.579 72.8503 112.833 72.6828 113.124 C 72.5153 113.414 72.4094 113.739 72.3744 114.073 C 72.3394 114.406 72.3752 114.747 72.4787 115.065 C 72.5823 115.384 72.7535 115.68 72.9777 115.929 C 73.2019 116.179 73.479 116.38 73.7851 116.516 " />
</g>

<g opacity="0.500000" fill="red" stroke-width="0.000000" id="id0000000549" >
<path id="id0000000602" d="M 83.5658 119.262 C 83.9009 119.262 84.2358 119.191 84.5419 119.055 C 84.8481 118.919 85.1251 118.717 85.3493 118.468 C 85.5735 118.219 85.7447 117.923 85.8483 117.604 C 85.9518 117.285 85.9876 116.945 85.9526 116.612 C 85.9176 116.278 85.8118 115.953 85.6442 115.662 C 85.4767 115.372 85.2475 115.118 84.9764 114.921 C 84.7053 114.724 84.3925 114.585 84.0647 114.515 C 83.737 114.445 83.3945 114.445 83.0668 114.515 C 82.739 114.585 82.4262 114.724 82.1551 114.921 C 81.884 115.118 81.6548 115.372 81.4873 115.662 C 81.3197 115.953 81.2139 116.278 81.1789 116.612 C 81.1439 116.945 81.1797 117.285 81.2832 117.604 C 81.3868 117.923 81.558 118.219 81.7822 118.468 C 82.0064 118.717 82.2834 118.919 82.5896 119.055 " />
</g>

<g opacity="0.500000" fill="red" stroke-width="0.000000" id="id0000000551" >
<path id="id0000000603" d="M 115.667 120.456 C 116.002 120.456 116.337 120.384 116.643 120.248 C 116.949 120.112 117.226 119.91 117.451 119.661 C 117.675 119.412 117.846 119.116 117.95 118.797 C 118.053 118.478 118.089 118.138 118.054 117.805 C 118.019 117.471 117.913 117.146 117.746 116.856 C 117.578 116.565 117.349 116.311 117.078 116.114 C 116.807 115.917 116.494 115.778 116.166 115.708 C 115.838 115.638 115.496 115.638 115.168 115.708 C 114.84 115.778 114.528 115.917 114.256 116.114 C 113.985 116.311 113.756 116.565 113.589 116.856 C 113.421 117.146 113.315 117.471 113.28 117.805 C 113.245 118.138 113.281 118.478 113.385 118.797 C 113.488 119.116 113.659 119.412 113.884 119.661 C 114.108 119.91 114.385 120.112 114.691 120.248 " />
</g>

<g opacity="0.500000" fill="red" stroke-width="0.000000" id="id0000000553" >
<path id="id0000000604" d="M 72.9255 116.225 C 73.2606 116.225 73.5955 116.154 73.9016 116.017 C 74.2078 115.881 74.4848 115.68 74.709 115.431 C 74.9332 115.182 75.1044 114.885 75.208 114.566 C 75.3115 114.248 75.3473 113.907 75.3123 113.574 C 75.2773 113.241 75.1715 112.915 75.0039 112.625 C 74.8364 112.335 74.6072 112.08 74.3361 111.883 C 74.065 111.686 73.7522 111.547 73.4244 111.477 C 73.0967 111.408 72.7542 111.408 72.4265 111.477 C 72.0987 111.547 71.7859 111.686 71.5148 111.883 C 71.2437 112.08 71.0145 112.335 70.847 112.625 C 70.6795 112.915 70.5736 113.241 70.5386 113.574 C 70.5036 113.907 70.5394 114.248 70.6429 114.566 C 70.7465 114.885 70.9177 115.182 71.1419 115.431 C 71.3661 115.68 71.6432 115.881 71.9493 116.017 " />
</g>

</g>

</g>

<polygon points="30,5 30,130 195,130 195,5 " stroke="black" stroke-width="1.000000" fill="none" id="id0000000605" pointer-events="none" class="rectangle" />
<polyline points="44.1084,130 44.1084,133 " fill="none" stroke-width="1.000000" stroke="black" id="id0000000606" class="line" />
<text id="id0000000607" transform="matrix(1 0 0 1 30 5)" x="14.108377" y="130.000000" dominant-baseline="hanging" text-anchor="middle" font-size="10.000000px" >
0
</text>

<polyline points="73.4844,130 73.4844,133 " fill="none" stroke-width="1.000000" stroke="black" id="id0000000608" class="line" />
<text id="id0000000609" transform="matrix(1 0 0 1 30 5)" x="43.484394" y="130.000000" dominant-baseline="hanging" text-anchor="middle" font-size="10.000000px" >
1
</text>

<polyline points="102.86,130 102.86,133 " fill="none" stroke-width="1.000000" stroke="black" id="id0000000610" class="line" />
<text id="id0000000611" transform="matrix(1 0 0 1 30 5)" x="72.860413" y="130.000000" dominant-baseline="hanging" text-anchor="middle" font-size="10.000000px" >
2
</text>

<polyline points="132.236,130 132.236,133 " fill="none" stroke-width="1.000000" stroke="black" id="id0000000612" class="line" />
<text id="id0000000613" transform="matrix(1 0 0 1 30 5)" x="102.236435" y="130.000000" dominant-baseline="hanging" text-anchor="middle" font-size="10.000000px" >
3
</text>

<polyline points="161.612,130 161.612,133 " fill="none" stroke-width="1.000000" stroke="black" id="id0000000614" class="line" />
<text id="id0000000615" transform="matrix(1 0 0 1 30 5)" x="131.612457" y="130.000000" dominant-baseline="hanging" text-anchor="middle" font-size="10.000000px" >
4
</text>

<polyline points="190.988,130 190.988,133 " fill="none" stroke-width="1.000000" stroke="black" id="id0000000616" class="line" />
<text id="id0000000617" transform="matrix(1 0 0 1 30 5)" x="160.988480" y="130.000000" dominant-baseline="hanging" text-anchor="middle" font-size="10.000000px" >
5
</text>

<polyline points="27,125.501 30,125.501 " fill="none" stroke-width="1.000000" stroke="black" id="id0000000618" class="line" />
<text id="id0000000619" transform="matrix(1 0 0 1 30 5)" x="-5.000000" y="120.500664" dominant-baseline="middle" text-anchor="end" font-size="10.000000px" >
0
</text>

<polyline points="27,107.249 30,107.249 " fill="none" stroke-width="1.000000" stroke="black" id="id0000000620" class="line" />
<text id="id0000000621" transform="matrix(1 0 0 1 30 5)" x="-5.000000" y="102.248932" dominant-baseline="middle" text-anchor="end" font-size="10.000000px" >
2
</text>

<polyline points="27,88.9972 30,88.9972 " fill="none" stroke-width="1.000000" stroke="black" id="id0000000622" class="line" />
<text id="id0000000623" transform="matrix(1 0 0 1 30 5)" x="-5.000000" y="83.997192" dominant-baseline="middle" text-anchor="end" font-size="10.000000px" >
4
</text>

<polyline points="27,70.7455 30,70.7455 " fill="none" stroke-width="1.000000" stroke="black" id="id0000000624" class="line" />
<text id="id0000000625" transform="matrix(1 0 0 1 30 5)" x="-5.000000" y="65.745453" dominant-baseline="middle" text-anchor="end" font-size="10.000000px" >
6
</text>

<polyline points="27,52.4937 30,52.4937 " fill="none" stroke-width="1.000000" stroke="black" id="id0000000626" class="line" />
<text id="id0000000627" transform="matrix(1 0 0 1 30 5)" x="-5.000000" y="47.493729" dominant-baseline="middle" text-anchor="end" font-size="10.000000px" >
8
</text>

<polyline points="27,34.242 30,34.242 " fill="none" stroke-width="1.000000" stroke="black" id="id0000000628" class="line" />
<text id="id0000000629" transform="matrix(1 0 0 1 30 5)" x="-5.000000" y="29.241997" dominant-baseline="middle" text-anchor="end" font-size="10.000000px" >
10
</text>

<polyline points="27,15.9903 30,15.9903 " fill="none" stroke-width="1.000000" stroke="black" id="id0000000630" class="line" />
<text id="id0000000631" transform="matrix(1 0 0 1 30 5)" x="-5.000000" y="10.990257" dominant-baseline="middle" text-anchor="end" font-size="10.000000px" >
12
</text>


</g>

</svg>
