<svg viewBox="0 0 200 200" height="100%" width="100%" xmlns:xlink="http://www.w3.org/1999/xlink" xmlns="http://www.w3.org/2000/svg" id="id0000000000" >
<g id="id0000000001" >
<clipPath id="id0000000001clipper" >
<polygon points="36,1 36,178 199,178 199,1 " id="id0000000105" class="rectangle" />
</clipPath>

<g clip-path="url(#id0000000001clipper)" id="id0000000003" >
<g id="id0000000004" >
<g id="id0000000006" >
<g opacity="1.000000" fill="#1f77b4" stroke="black" stroke-width="0.000000" id="id0000000005" >
<path id="id0000000106" d="M 90.6661 148.345 C 90.9653 148.345 91.2614 148.202 91.448 147.968 C 91.6345 147.734 91.7076 147.414 91.6411 147.122 C 91.5745 146.831 91.3696 146.574 91.1 146.444 C 90.8304 146.314 90.5018 146.314 90.2322 146.444 C 89.9627 146.574 89.7578 146.831 89.6912 147.122 C 89.6246 147.414 89.6977 147.734 89.8843 147.968 C 90.0708 148.202 90.3669 148.345 90.6661 148.345 " />
</g>

</g>

<g id="id0000000008" >
<g opacity="1.000000" fill="#1f77b4" stroke="black" stroke-width="0.000000" id="id0000000007" >
<path id="id0000000107" d="M 150.211 133.58 C 150.51 133.58 150.806 133.438 150.993 133.204 C 151.179 132.97 151.253 132.65 151.186 132.358 C 151.119 132.066 150.915 131.809 150.645 131.679 C 150.375 131.55 150.047 131.55 149.777 131.679 C 149.508 131.809 149.303 132.066 149.236 132.358 C 149.17 132.65 149.243 132.97 149.429 133.204 C 149.616 133.438 149.912 133.58 150.211 133.58 " />
</g>

</g>

<g id="id0000000010" >
<g opacity="1.000000" fill="#1f77b4" stroke="black" stroke-width="0.000000" id="id0000000009" >
<path id="id0000000108" d="M 113.209 171.314 C 113.508 171.314 113.804 171.172 113.991 170.938 C 114.178 170.704 114.251 170.383 114.184 170.092 C 114.118 169.8 113.913 169.543 113.643 169.413 C 113.373 169.283 113.045 169.283 112.775 169.413 C 112.506 169.543 112.301 169.8 112.234 170.092 C 112.168 170.383 112.241 170.704 112.427 170.938 C 112.614 171.172 112.91 171.314 113.209 171.314 " />
</g>

</g>

<g id="id0000000012" >
<g opacity="1.000000" fill="#1f77b4" stroke="black" stroke-width="0.000000" id="id0000000011" >
<path id="id0000000109" d="M 63.9145 103.457 C 64.2137 103.457 64.5098 103.314 64.6964 103.081 C 64.8829 102.847 64.956 102.526 64.8895 102.234 C 64.8229 101.943 64.618 101.686 64.3484 101.556 C 64.0788 101.426 63.7502 101.426 63.4806 101.556 C 63.2111 101.686 63.0062 101.943 62.9396 102.234 C 62.873 102.526 62.9461 102.847 63.1327 103.081 C 63.3192 103.314 63.6153 103.457 63.9145 103.457 " />
</g>

</g>

<g id="id0000000014" >
<g opacity="1.000000" fill="#1f77b4" stroke="black" stroke-width="0.000000" id="id0000000013" >
<path id="id0000000110" d="M 129.979 87.4994 C 130.278 87.4994 130.574 87.3568 130.761 87.1229 C 130.947 86.8889 131.021 86.5686 130.954 86.2769 C 130.887 85.9852 130.683 85.7282 130.413 85.5984 C 130.143 85.4686 129.815 85.4686 129.545 85.5984 C 129.276 85.7282 129.071 85.9852 129.004 86.2769 C 128.938 86.5686 129.011 86.8889 129.197 87.1229 C 129.384 87.3568 129.68 87.4994 129.979 87.4994 " />
</g>

</g>

<g id="id0000000016" >
<g opacity="1.000000" fill="#1f77b4" stroke="black" stroke-width="0.000000" id="id0000000015" >
<path id="id0000000111" d="M 42.0092 148.868 C 42.3084 148.868 42.6045 148.726 42.791 148.492 C 42.9776 148.258 43.0507 147.937 42.9841 147.646 C 42.9175 147.354 42.7126 147.097 42.4431 146.967 C 42.1735 146.837 41.8449 146.837 41.5753 146.967 C 41.3057 147.097 41.1008 147.354 41.0343 147.646 C 40.9677 147.937 41.0408 148.258 41.2274 148.492 C 41.4139 148.726 41.71 148.868 42.0092 148.868 " />
</g>

</g>

<g id="id0000000018" >
<g opacity="1.000000" fill="#1f77b4" stroke="black" stroke-width="0.000000" id="id0000000017" >
<path id="id0000000112" d="M 130.751 64.3634 C 131.05 64.3634 131.346 64.2208 131.533 63.9868 C 131.72 63.7529 131.793 63.4325 131.726 63.1408 C 131.66 62.8491 131.455 62.5922 131.185 62.4624 C 130.915 62.3326 130.587 62.3326 130.317 62.4624 C 130.048 62.5922 129.843 62.8491 129.776 63.1408 C 129.71 63.4325 129.783 63.7529 129.969 63.9868 C 130.156 64.2208 130.452 64.3634 130.751 64.3634 " />
</g>

</g>

<g id="id0000000020" >
<g opacity="1.000000" fill="#1f77b4" stroke="black" stroke-width="0.000000" id="id0000000019" >
<path id="id0000000113" d="M 107.141 127.719 C 107.44 127.719 107.736 127.576 107.922 127.342 C 108.109 127.108 108.182 126.788 108.116 126.496 C 108.049 126.204 107.844 125.947 107.575 125.818 C 107.305 125.688 106.976 125.688 106.707 125.818 C 106.437 125.947 106.232 126.204 106.166 126.496 C 106.099 126.788 106.172 127.108 106.359 127.342 C 106.545 127.576 106.841 127.719 107.141 127.719 " />
</g>

</g>

<g id="id0000000022" >
<g opacity="1.000000" fill="#1f77b4" stroke="black" stroke-width="0.000000" id="id0000000021" >
<path id="id0000000114" d="M 110.912 82.4192 C 111.211 82.4192 111.507 82.2766 111.694 82.0426 C 111.88 81.8087 111.953 81.4883 111.887 81.1966 C 111.82 80.9049 111.615 80.648 111.346 80.5182 C 111.076 80.3884 110.748 80.3884 110.478 80.5182 C 110.208 80.648 110.004 80.9049 109.937 81.1966 C 109.87 81.4883 109.944 81.8087 110.13 82.0426 C 110.317 82.2766 110.613 82.4192 110.912 82.4192 " />
</g>

</g>

<g id="id0000000024" >
<g opacity="1.000000" fill="#1f77b4" stroke="black" stroke-width="0.000000" id="id0000000023" >
<path id="id0000000115" d="M 91.0709 58.3602 C 91.3701 58.3602 91.6662 58.2176 91.8528 57.9837 C 92.0393 57.7498 92.1124 57.4294 92.0459 57.1377 C 91.9793 56.846 91.7744 56.5891 91.5048 56.4592 C 91.2352 56.3294 90.9066 56.3294 90.637 56.4592 C 90.3675 56.5891 90.1626 56.846 90.096 57.1377 C 90.0294 57.4294 90.1025 57.7498 90.2891 57.9837 C 90.4756 58.2176 90.7717 58.3602 91.0709 58.3602 " />
</g>

</g>

<g id="id0000000026" >
<g opacity="1.000000" fill="#1f77b4" stroke="black" stroke-width="0.000000" id="id0000000025" >
<path id="id0000000116" d="M 110.801 108.722 C 111.1 108.722 111.396 108.579 111.583 108.345 C 111.769 108.111 111.842 107.791 111.776 107.499 C 111.709 107.208 111.504 106.951 111.235 106.821 C 110.965 106.691 110.636 106.691 110.367 106.821 C 110.097 106.951 109.892 107.208 109.826 107.499 C 109.759 107.791 109.832 108.111 110.019 108.345 C 110.205 108.579 110.501 108.722 110.801 108.722 " />
</g>

</g>

<g id="id0000000028" >
<g opacity="1.000000" fill="#1f77b4" stroke="black" stroke-width="0.000000" id="id0000000027" >
<path id="id0000000117" d="M 153.622 52.2933 C 153.921 52.2933 154.217 52.1507 154.404 51.9168 C 154.59 51.6828 154.663 51.3625 154.597 51.0708 C 154.53 50.7791 154.325 50.5221 154.056 50.3923 C 153.786 50.2625 153.458 50.2625 153.188 50.3923 C 152.918 50.5221 152.714 50.7791 152.647 51.0708 C 152.58 51.3625 152.653 51.6828 152.84 51.9168 C 153.027 52.1507 153.323 52.2933 153.622 52.2933 " />
</g>

</g>

<g id="id0000000030" >
<g opacity="1.000000" fill="#1f77b4" stroke="black" stroke-width="0.000000" id="id0000000029" >
<path id="id0000000118" d="M 69.5813 106.151 C 69.8805 106.151 70.1766 106.009 70.3632 105.775 C 70.5497 105.541 70.6228 105.221 70.5563 104.929 C 70.4897 104.637 70.2848 104.38 70.0152 104.25 C 69.7456 104.121 69.417 104.121 69.1474 104.25 C 68.8779 104.38 68.673 104.637 68.6064 104.929 C 68.5398 105.221 68.613 105.541 68.7995 105.775 C 68.986 106.009 69.2821 106.151 69.5813 106.151 " />
</g>

</g>

<g id="id0000000032" >
<g opacity="1.000000" fill="#1f77b4" stroke="black" stroke-width="0.000000" id="id0000000031" >
<path id="id0000000119" d="M 85.2525 108.485 C 85.5517 108.485 85.8477 108.343 86.0343 108.109 C 86.2208 107.875 86.294 107.554 86.2274 107.263 C 86.1608 106.971 85.9559 106.714 85.6863 106.584 C 85.4168 106.455 85.0881 106.455 84.8186 106.584 C 84.549 106.714 84.3441 106.971 84.2775 107.263 C 84.211 107.554 84.2841 107.875 84.4706 108.109 C 84.6572 108.343 84.9533 108.485 85.2525 108.485 " />
</g>

</g>

<g id="id0000000034" >
<g opacity="1.000000" fill="#1f77b4" stroke="black" stroke-width="0.000000" id="id0000000033" >
<path id="id0000000120" d="M 94.1089 33.4289 C 94.4081 33.4289 94.7042 33.2863 94.8907 33.0524 C 95.0772 32.8185 95.1504 32.4981 95.0838 32.2064 C 95.0172 31.9147 94.8123 31.6578 94.5428 31.528 C 94.2732 31.3981 93.9446 31.3981 93.675 31.528 C 93.4054 31.6578 93.2005 31.9147 93.1339 32.2064 C 93.0674 32.4981 93.1405 32.8185 93.327 33.0524 C 93.5136 33.2863 93.8097 33.4289 94.1089 33.4289 " />
</g>

</g>

<g id="id0000000036" >
<g opacity="1.000000" fill="#1f77b4" stroke="black" stroke-width="0.000000" id="id0000000035" >
<path id="id0000000121" d="M 108.763 105.693 C 109.062 105.693 109.359 105.55 109.545 105.316 C 109.732 105.082 109.805 104.762 109.738 104.47 C 109.672 104.178 109.467 103.921 109.197 103.792 C 108.928 103.662 108.599 103.662 108.329 103.792 C 108.06 103.921 107.855 104.178 107.788 104.47 C 107.722 104.762 107.795 105.082 107.981 105.316 C 108.168 105.55 108.464 105.693 108.763 105.693 " />
</g>

</g>

<g id="id0000000038" >
<g opacity="1.000000" fill="#1f77b4" stroke="black" stroke-width="0.000000" id="id0000000037" >
<path id="id0000000122" d="M 70.4648 48.5522 C 70.764 48.5522 71.0601 48.4097 71.2467 48.1757 C 71.4332 47.9418 71.5063 47.6214 71.4398 47.3297 C 71.3732 47.038 71.1683 46.7811 70.8987 46.6513 C 70.6292 46.5215 70.3005 46.5215 70.031 46.6513 C 69.7614 46.7811 69.5565 47.038 69.4899 47.3297 C 69.4233 47.6214 69.4965 47.9418 69.683 48.1757 C 69.8696 48.4097 70.1656 48.5522 70.4648 48.5522 " />
</g>

</g>

<g id="id0000000040" >
<g opacity="1.000000" fill="#1f77b4" stroke="black" stroke-width="0.000000" id="id0000000039" >
<path id="id0000000123" d="M 64.6614 102.293 C 64.9606 102.293 65.2567 102.151 65.4432 101.917 C 65.6298 101.683 65.7029 101.363 65.6363 101.071 C 65.5698 100.779 65.3649 100.522 65.0953 100.392 C 64.8257 100.263 64.4971 100.263 64.2275 100.392 C 63.958 100.522 63.7531 100.779 63.6865 101.071 C 63.6199 101.363 63.693 101.683 63.8796 101.917 C 64.0661 102.151 64.3622 102.293 64.6614 102.293 " />
</g>

</g>

<g id="id0000000042" >
<g opacity="1.000000" fill="#1f77b4" stroke="black" stroke-width="0.000000" id="id0000000041" >
<path id="id0000000124" d="M 104.43 122.971 C 104.729 122.971 105.025 122.829 105.212 122.595 C 105.398 122.361 105.471 122.041 105.405 121.749 C 105.338 121.457 105.133 121.2 104.864 121.071 C 104.594 120.941 104.265 120.941 103.996 121.071 C 103.726 121.2 103.521 121.457 103.455 121.749 C 103.388 122.041 103.461 122.361 103.648 122.595 C 103.835 122.829 104.131 122.971 104.43 122.971 " />
</g>

</g>

<g id="id0000000044" >
<g opacity="1.000000" fill="#1f77b4" stroke="black" stroke-width="0.000000" id="id0000000043" >
<path id="id0000000125" d="M 107.907 133.323 C 108.206 133.323 108.502 133.18 108.689 132.946 C 108.875 132.712 108.949 132.392 108.882 132.1 C 108.815 131.809 108.611 131.552 108.341 131.422 C 108.071 131.292 107.743 131.292 107.473 131.422 C 107.204 131.552 106.999 131.809 106.932 132.1 C 106.866 132.392 106.939 132.712 107.125 132.946 C 107.312 133.18 107.608 133.323 107.907 133.323 " />
</g>

</g>

<g id="id0000000046" >
<g opacity="1.000000" fill="#1f77b4" stroke="black" stroke-width="0.000000" id="id0000000045" >
<path id="id0000000126" d="M 98.6539 68.2286 C 98.9531 68.2286 99.2492 68.0861 99.4357 67.8521 C 99.6223 67.6182 99.6954 67.2978 99.6288 67.0061 C 99.5623 66.7144 99.3574 66.4575 99.0878 66.3277 C 98.8182 66.1979 98.4896 66.1979 98.22 66.3277 C 97.9505 66.4575 97.7456 66.7144 97.679 67.0061 C 97.6124 67.2978 97.6855 67.6182 97.8721 67.8521 C 98.0586 68.0861 98.3547 68.2286 98.6539 68.2286 " />
</g>

</g>

<g id="id0000000048" >
<g opacity="1.000000" fill="#1f77b4" stroke="black" stroke-width="0.000000" id="id0000000047" >
<path id="id0000000127" d="M 148.69 9.68575 C 148.989 9.68575 149.285 9.54317 149.471 9.30924 C 149.658 9.07532 149.731 8.75493 149.664 8.46323 C 149.598 8.17153 149.393 7.9146 149.123 7.78478 C 148.854 7.65497 148.525 7.65497 148.256 7.78478 C 147.986 7.9146 147.781 8.17153 147.715 8.46323 C 147.648 8.75493 147.721 9.07532 147.908 9.30924 C 148.094 9.54317 148.39 9.68575 148.69 9.68575 " />
</g>

</g>

<g id="id0000000050" >
<g opacity="1.000000" fill="#1f77b4" stroke="black" stroke-width="0.000000" id="id0000000049" >
<path id="id0000000128" d="M 119.369 85.5182 C 119.668 85.5182 119.964 85.3756 120.151 85.1417 C 120.337 84.9077 120.411 84.5873 120.344 84.2957 C 120.277 84.004 120.073 83.747 119.803 83.6172 C 119.533 83.4874 119.205 83.4874 118.935 83.6172 C 118.666 83.747 118.461 84.004 118.394 84.2957 C 118.328 84.5873 118.401 84.9077 118.587 85.1417 C 118.774 85.3756 119.07 85.5182 119.369 85.5182 " />
</g>

</g>

<g id="id0000000052" >
<g opacity="1.000000" fill="#1f77b4" stroke="black" stroke-width="0.000000" id="id0000000051" >
<path id="id0000000129" d="M 82.0738 121.892 C 82.373 121.892 82.6691 121.749 82.8556 121.515 C 83.0422 121.281 83.1153 120.961 83.0487 120.669 C 82.9821 120.378 82.7773 120.121 82.5077 119.991 C 82.2381 119.861 81.9095 119.861 81.6399 119.991 C 81.3703 120.121 81.1655 120.378 81.0989 120.669 C 81.0323 120.961 81.1054 121.281 81.292 121.515 C 81.4785 121.749 81.7746 121.892 82.0738 121.892 " />
</g>

</g>

<g id="id0000000054" >
<g opacity="1.000000" fill="#1f77b4" stroke="black" stroke-width="0.000000" id="id0000000053" >
<path id="id0000000130" d="M 123.868 88.4824 C 124.167 88.4824 124.463 88.3398 124.649 88.1059 C 124.836 87.8719 124.909 87.5516 124.842 87.2599 C 124.776 86.9682 124.571 86.7112 124.301 86.5814 C 124.032 86.4516 123.703 86.4516 123.434 86.5814 C 123.164 86.7112 122.959 86.9682 122.893 87.2599 C 122.826 87.5516 122.899 87.8719 123.086 88.1059 C 123.272 88.3398 123.568 88.4824 123.868 88.4824 " />
</g>

</g>

<g id="id0000000056" >
<g opacity="1.000000" fill="#1f77b4" stroke="black" stroke-width="0.000000" id="id0000000055" >
<path id="id0000000131" d="M 192.991 112.42 C 193.29 112.42 193.586 112.278 193.773 112.044 C 193.959 111.81 194.032 111.489 193.966 111.198 C 193.899 110.906 193.694 110.649 193.425 110.519 C 193.155 110.389 192.826 110.389 192.557 110.519 C 192.287 110.649 192.082 110.906 192.016 111.198 C 191.949 111.489 192.022 111.81 192.209 112.044 C 192.396 112.278 192.692 112.42 192.991 112.42 " />
</g>

</g>

<g id="id0000000058" >
<g opacity="1.000000" fill="#1f77b4" stroke="black" stroke-width="0.000000" id="id0000000057" >
<path id="id0000000132" d="M 115.666 108.006 C 115.965 108.006 116.261 107.864 116.448 107.63 C 116.634 107.396 116.708 107.075 116.641 106.784 C 116.574 106.492 116.37 106.235 116.1 106.105 C 115.83 105.975 115.502 105.975 115.232 106.105 C 114.963 106.235 114.758 106.492 114.691 106.784 C 114.625 107.075 114.698 107.396 114.884 107.63 C 115.071 107.864 115.367 108.006 115.666 108.006 " />
</g>

</g>

<g id="id0000000060" >
<g opacity="1.000000" fill="#1f77b4" stroke="black" stroke-width="0.000000" id="id0000000059" >
<path id="id0000000133" d="M 43.5041 17.9932 C 43.8033 17.9932 44.0994 17.8506 44.2859 17.6167 C 44.4725 17.3828 44.5456 17.0624 44.479 16.7707 C 44.4125 16.479 44.2076 16.222 43.938 16.0922 C 43.6684 15.9624 43.3398 15.9624 43.0702 16.0922 C 42.8007 16.222 42.5958 16.479 42.5292 16.7707 C 42.4626 17.0624 42.5357 17.3828 42.7223 17.6167 C 42.9088 17.8506 43.2049 17.9932 43.5041 17.9932 " />
</g>

</g>

<g id="id0000000062" >
<g opacity="1.000000" fill="#1f77b4" stroke="black" stroke-width="0.000000" id="id0000000061" >
<path id="id0000000134" d="M 98.6395 55.5147 C 98.9387 55.5147 99.2348 55.3721 99.4213 55.1382 C 99.6079 54.9043 99.681 54.5839 99.6144 54.2922 C 99.5479 54.0005 99.343 53.7435 99.0734 53.6137 C 98.8038 53.4839 98.4752 53.4839 98.2056 53.6137 C 97.9361 53.7435 97.7312 54.0005 97.6646 54.2922 C 97.598 54.5839 97.6711 54.9043 97.8577 55.1382 C 98.0442 55.3721 98.3403 55.5147 98.6395 55.5147 " />
</g>

</g>

<g id="id0000000064" >
<g opacity="1.000000" fill="#1f77b4" stroke="black" stroke-width="0.000000" id="id0000000063" >
<path id="id0000000135" d="M 164.284 68.7145 C 164.583 68.7145 164.879 68.5719 165.065 68.338 C 165.252 68.1041 165.325 67.7837 165.258 67.492 C 165.192 67.2003 164.987 66.9434 164.717 66.8135 C 164.448 66.6837 164.119 66.6837 163.85 66.8135 C 163.58 66.9434 163.375 67.2003 163.309 67.492 C 163.242 67.7837 163.315 68.1041 163.502 68.338 C 163.688 68.5719 163.984 68.7145 164.284 68.7145 " />
</g>

</g>

<g id="id0000000066" >
<g opacity="1.000000" fill="#1f77b4" stroke="black" stroke-width="0.000000" id="id0000000065" >
<path id="id0000000136" d="M 133.487 169.779 C 133.786 169.779 134.082 169.637 134.269 169.403 C 134.455 169.169 134.529 168.848 134.462 168.557 C 134.395 168.265 134.19 168.008 133.921 167.878 C 133.651 167.748 133.323 167.748 133.053 167.878 C 132.784 168.008 132.579 168.265 132.512 168.557 C 132.446 168.848 132.519 169.169 132.705 169.403 C 132.892 169.637 133.188 169.779 133.487 169.779 " />
</g>

</g>

<g id="id0000000068" >
<g opacity="1.000000" fill="#1f77b4" stroke="black" stroke-width="0.000000" id="id0000000067" >
<path id="id0000000137" d="M 81.0306 76.8212 C 81.3298 76.8212 81.6259 76.6786 81.8124 76.4447 C 81.999 76.2108 82.0721 75.8904 82.0055 75.5987 C 81.939 75.307 81.7341 75.05 81.4645 74.9202 C 81.1949 74.7904 80.8663 74.7904 80.5967 74.9202 C 80.3272 75.05 80.1223 75.307 80.0557 75.5987 C 79.9891 75.8904 80.0622 76.2108 80.2488 76.4447 C 80.4353 76.6786 80.7314 76.8212 81.0306 76.8212 " />
</g>

</g>

<g id="id0000000070" >
<g opacity="1.000000" fill="#1f77b4" stroke="black" stroke-width="0.000000" id="id0000000069" >
<path id="id0000000138" d="M 135.296 34.7294 C 135.595 34.7294 135.891 34.5868 136.078 34.3528 C 136.264 34.1189 136.337 33.7985 136.271 33.5068 C 136.204 33.2151 135.999 32.9582 135.73 32.8284 C 135.46 32.6986 135.132 32.6986 134.862 32.8284 C 134.592 32.9582 134.388 33.2151 134.321 33.5068 C 134.254 33.7985 134.328 34.1189 134.514 34.3528 C 134.701 34.5868 134.997 34.7294 135.296 34.7294 " />
</g>

</g>

<g id="id0000000072" >
<g opacity="1.000000" fill="#1f77b4" stroke="black" stroke-width="0.000000" id="id0000000071" >
<path id="id0000000139" d="M 140.799 118.972 C 141.098 118.972 141.394 118.829 141.581 118.595 C 141.767 118.361 141.84 118.041 141.774 117.749 C 141.707 117.457 141.502 117.2 141.233 117.071 C 140.963 116.941 140.635 116.941 140.365 117.071 C 140.096 117.2 139.891 117.457 139.824 117.749 C 139.757 118.041 139.831 118.361 140.017 118.595 C 140.204 118.829 140.5 118.972 140.799 118.972 " />
</g>

</g>

<g id="id0000000074" >
<g opacity="1.000000" fill="#1f77b4" stroke="black" stroke-width="0.000000" id="id0000000073" >
<path id="id0000000140" d="M 141.787 120.452 C 142.087 120.452 142.383 120.31 142.569 120.076 C 142.756 119.842 142.829 119.521 142.762 119.23 C 142.696 118.938 142.491 118.681 142.221 118.551 C 141.952 118.421 141.623 118.421 141.354 118.551 C 141.084 118.681 140.879 118.938 140.812 119.23 C 140.746 119.521 140.819 119.842 141.006 120.076 C 141.192 120.31 141.488 120.452 141.787 120.452 " />
</g>

</g>

<g id="id0000000076" >
<g opacity="1.000000" fill="#1f77b4" stroke="black" stroke-width="0.000000" id="id0000000075" >
<path id="id0000000141" d="M 83.7016 90.5903 C 84.0008 90.5903 84.2969 90.4477 84.4834 90.2138 C 84.67 89.9798 84.7431 89.6594 84.6765 89.3677 C 84.6099 89.076 84.405 88.8191 84.1355 88.6893 C 83.8659 88.5595 83.5373 88.5595 83.2677 88.6893 C 82.9981 88.8191 82.7932 89.076 82.7267 89.3677 C 82.6601 89.6594 82.7332 89.9798 82.9198 90.2138 C 83.1063 90.4477 83.4024 90.5903 83.7016 90.5903 " />
</g>

</g>

<g id="id0000000078" >
<g opacity="1.000000" fill="#1f77b4" stroke="black" stroke-width="0.000000" id="id0000000077" >
<path id="id0000000142" d="M 120.329 97.3721 C 120.629 97.3721 120.925 97.2295 121.111 96.9956 C 121.298 96.7616 121.371 96.4412 121.304 96.1496 C 121.238 95.8578 121.033 95.6009 120.763 95.4711 C 120.494 95.3413 120.165 95.3413 119.896 95.4711 C 119.626 95.6009 119.421 95.8578 119.355 96.1496 C 119.288 96.4412 119.361 96.7616 119.548 96.9956 C 119.734 97.2295 120.03 97.3721 120.329 97.3721 " />
</g>

</g>

<g id="id0000000080" >
<g opacity="1.000000" fill="#1f77b4" stroke="black" stroke-width="0.000000" id="id0000000079" >
<path id="id0000000143" d="M 143.61 115.847 C 143.909 115.847 144.205 115.705 144.392 115.471 C 144.578 115.237 144.651 114.916 144.585 114.625 C 144.518 114.333 144.313 114.076 144.044 113.946 C 143.774 113.816 143.445 113.816 143.176 113.946 C 142.906 114.076 142.701 114.333 142.635 114.625 C 142.568 114.916 142.641 115.237 142.828 115.471 C 143.014 115.705 143.311 115.847 143.61 115.847 " />
</g>

</g>

<g id="id0000000082" >
<g opacity="1.000000" fill="#1f77b4" stroke="black" stroke-width="0.000000" id="id0000000081" >
<path id="id0000000144" d="M 85.2689 48.5131 C 85.5681 48.5131 85.8642 48.3705 86.0508 48.1366 C 86.2373 47.9026 86.3104 47.5822 86.2439 47.2905 C 86.1773 46.9988 85.9724 46.7419 85.7028 46.6121 C 85.4333 46.4823 85.1046 46.4823 84.8351 46.6121 C 84.5655 46.7419 84.3606 46.9988 84.294 47.2905 C 84.2274 47.5822 84.3006 47.9026 84.4871 48.1366 C 84.6737 48.3705 84.9697 48.5131 85.2689 48.5131 " />
</g>

</g>

<g id="id0000000084" >
<g opacity="1.000000" fill="#1f77b4" stroke="black" stroke-width="0.000000" id="id0000000083" >
<path id="id0000000145" d="M 90.5151 72.4381 C 90.8143 72.4381 91.1104 72.2955 91.2969 72.0616 C 91.4835 71.8277 91.5566 71.5073 91.49 71.2156 C 91.4234 70.9239 91.2185 70.667 90.949 70.5372 C 90.6794 70.4073 90.3508 70.4073 90.0812 70.5372 C 89.8116 70.667 89.6067 70.9239 89.5402 71.2156 C 89.4736 71.5073 89.5467 71.8277 89.7333 72.0616 C 89.9198 72.2955 90.2159 72.4381 90.5151 72.4381 " />
</g>

</g>

<g id="id0000000086" >
<g opacity="1.000000" fill="#1f77b4" stroke="black" stroke-width="0.000000" id="id0000000085" >
<path id="id0000000146" d="M 101.921 89.4743 C 102.22 89.4743 102.516 89.3317 102.702 89.0978 C 102.889 88.8639 102.962 88.5435 102.895 88.2518 C 102.829 87.9601 102.624 87.7032 102.354 87.5733 C 102.085 87.4435 101.756 87.4435 101.487 87.5733 C 101.217 87.7032 101.012 87.9601 100.946 88.2518 C 100.879 88.5435 100.952 88.8639 101.139 89.0978 C 101.325 89.3317 101.621 89.4743 101.921 89.4743 " />
</g>

</g>

<g id="id0000000088" >
<g opacity="1.000000" fill="#1f77b4" stroke="black" stroke-width="0.000000" id="id0000000087" >
<path id="id0000000147" d="M 98.804 14.5362 C 99.1032 14.5362 99.3993 14.3936 99.5858 14.1597 C 99.7724 13.9258 99.8455 13.6054 99.7789 13.3137 C 99.7123 13.022 99.5075 12.765 99.2379 12.6352 C 98.9683 12.5054 98.6397 12.5054 98.3701 12.6352 C 98.1005 12.765 97.8957 13.022 97.8291 13.3137 C 97.7625 13.6054 97.8356 13.9258 98.0222 14.1597 C 98.2087 14.3936 98.5048 14.5362 98.804 14.5362 " />
</g>

</g>

<g id="id0000000090" >
<g opacity="1.000000" fill="#1f77b4" stroke="black" stroke-width="0.000000" id="id0000000089" >
<path id="id0000000148" d="M 100.6 25.4746 C 100.899 25.4746 101.195 25.332 101.382 25.0981 C 101.568 24.8642 101.641 24.5438 101.575 24.2521 C 101.508 23.9604 101.303 23.7034 101.034 23.5736 C 100.764 23.4438 100.435 23.4438 100.166 23.5736 C 99.8963 23.7034 99.6914 23.9604 99.6248 24.2521 C 99.5583 24.5438 99.6314 24.8642 99.8179 25.0981 C 100.004 25.332 100.301 25.4746 100.6 25.4746 " />
</g>

</g>

<g id="id0000000092" >
<g opacity="1.000000" fill="#1f77b4" stroke="black" stroke-width="0.000000" id="id0000000091" >
<path id="id0000000149" d="M 127.151 112.2 C 127.45 112.2 127.746 112.057 127.933 111.823 C 128.12 111.59 128.193 111.269 128.126 110.977 C 128.059 110.686 127.855 110.429 127.585 110.299 C 127.315 110.169 126.987 110.169 126.717 110.299 C 126.448 110.429 126.243 110.686 126.176 110.977 C 126.11 111.269 126.183 111.59 126.369 111.823 C 126.556 112.057 126.852 112.2 127.151 112.2 " />
</g>

</g>

<g id="id0000000094" >
<g opacity="1.000000" fill="#1f77b4" stroke="black" stroke-width="0.000000" id="id0000000093" >
<path id="id0000000150" d="M 84.9788 86.7315 C 85.278 86.7315 85.574 86.589 85.7606 86.355 C 85.9471 86.1211 86.0203 85.8007 85.9537 85.509 C 85.8871 85.2173 85.6822 84.9604 85.4126 84.8306 C 85.1431 84.7008 84.8144 84.7008 84.5449 84.8306 C 84.2753 84.9604 84.0704 85.2173 84.0038 85.509 C 83.9372 85.8007 84.0104 86.1211 84.1969 86.355 C 84.3835 86.589 84.6796 86.7315 84.9788 86.7315 " />
</g>

</g>

<g id="id0000000096" >
<g opacity="1.000000" fill="#1f77b4" stroke="black" stroke-width="0.000000" id="id0000000095" >
<path id="id0000000151" d="M 152.974 98.3137 C 153.273 98.3137 153.57 98.1711 153.756 97.9371 C 153.943 97.7032 154.016 97.3828 153.949 97.0911 C 153.883 96.7994 153.678 96.5425 153.408 96.4127 C 153.139 96.2829 152.81 96.2829 152.54 96.4127 C 152.271 96.5425 152.066 96.7994 151.999 97.0911 C 151.933 97.3828 152.006 97.7032 152.192 97.9371 C 152.379 98.1711 152.675 98.3137 152.974 98.3137 " />
</g>

</g>

<g id="id0000000098" >
<g opacity="1.000000" fill="#1f77b4" stroke="black" stroke-width="0.000000" id="id0000000097" >
<path id="id0000000152" d="M 101.574 147.117 C 101.874 147.117 102.17 146.975 102.356 146.741 C 102.543 146.507 102.616 146.187 102.549 145.895 C 102.483 145.603 102.278 145.346 102.008 145.216 C 101.739 145.087 101.41 145.087 101.141 145.216 C 100.871 145.346 100.666 145.603 100.599 145.895 C 100.533 146.187 100.606 146.507 100.793 146.741 C 100.979 146.975 101.275 147.117 101.574 147.117 " />
</g>

</g>

<g id="id0000000100" >
<g opacity="1.000000" fill="#1f77b4" stroke="black" stroke-width="0.000000" id="id0000000099" >
<path id="id0000000153" d="M 107.358 155.256 C 107.657 155.256 107.953 155.114 108.14 154.88 C 108.326 154.646 108.399 154.326 108.333 154.034 C 108.266 153.742 108.061 153.485 107.792 153.355 C 107.522 153.226 107.193 153.226 106.924 153.355 C 106.654 153.485 106.449 153.742 106.383 154.034 C 106.316 154.326 106.389 154.646 106.576 154.88 C 106.762 155.114 107.058 155.256 107.358 155.256 " />
</g>

</g>

<g id="id0000000102" >
<g opacity="1.000000" fill="#1f77b4" stroke="black" stroke-width="0.000000" id="id0000000101" >
<path id="id0000000154" d="M 69.8504 87.3672 C 70.1497 87.3672 70.4457 87.2246 70.6323 86.9907 C 70.8188 86.7567 70.892 86.4364 70.8254 86.1447 C 70.7588 85.853 70.5539 85.596 70.2843 85.4662 C 70.0148 85.3364 69.6861 85.3364 69.4166 85.4662 C 69.147 85.596 68.9421 85.853 68.8755 86.1447 C 68.8089 86.4364 68.8821 86.7567 69.0686 86.9907 C 69.2552 87.2246 69.5512 87.3672 69.8504 87.3672 " />
</g>

</g>

<g id="id0000000104" >
<g opacity="1.000000" fill="#1f77b4" stroke="black" stroke-width="0.000000" id="id0000000103" >
<path id="id0000000155" d="M 81.39 100.057 C 81.6892 100.057 81.9853 99.9141 82.1719 99.6802 C 82.3584 99.4462 82.4315 99.1258 82.365 98.8342 C 82.2984 98.5424 82.0935 98.2855 81.8239 98.1557 C 81.5543 98.0259 81.2257 98.0259 80.9561 98.1557 C 80.6866 98.2855 80.4817 98.5424 80.4151 98.8342 C 80.3485 99.1258 80.4217 99.4462 80.6082 99.6802 C 80.7947 99.9141 81.0908 100.057 81.39 100.057 " />
</g>

</g>

</g>

</g>

<polygon points="36,1 36,178 199,178 199,1 " stroke="black" stroke-width="1.000000" fill="none" id="id0000000156" pointer-events="none" class="rectangle" />
<polyline points="50.1712,178 50.1712,181 " fill="none" stroke-width="1.000000" stroke="black" id="id0000000157" class="line" />
<text id="id0000000158" transform="matrix(1 0 0 1 36 1)" x="14.171224" y="182.000000" dominant-baseline="hanging" text-anchor="middle" font-size="14.000000px" >
-4
</text>

<polyline points="78.0939,178 78.0939,181 " fill="none" stroke-width="1.000000" stroke="black" id="id0000000159" class="line" />
<text id="id0000000160" transform="matrix(1 0 0 1 36 1)" x="42.093853" y="182.000000" dominant-baseline="hanging" text-anchor="middle" font-size="14.000000px" >
-2
</text>

<polyline points="106.016,178 106.016,181 " fill="none" stroke-width="1.000000" stroke="black" id="id0000000161" class="line" />
<text id="id0000000162" transform="matrix(1 0 0 1 36 1)" x="70.016479" y="182.000000" dominant-baseline="hanging" text-anchor="middle" font-size="14.000000px" >
0
</text>

<polyline points="133.939,178 133.939,181 " fill="none" stroke-width="1.000000" stroke="black" id="id0000000163" class="line" />
<text id="id0000000164" transform="matrix(1 0 0 1 36 1)" x="97.939102" y="182.000000" dominant-baseline="hanging" text-anchor="middle" font-size="14.000000px" >
2
</text>

<polyline points="161.862,178 161.862,181 " fill="none" stroke-width="1.000000" stroke="black" id="id0000000165" class="line" />
<text id="id0000000166" transform="matrix(1 0 0 1 36 1)" x="125.861740" y="182.000000" dominant-baseline="hanging" text-anchor="middle" font-size="14.000000px" >
4
</text>

<polyline points="189.784,178 189.784,181 " fill="none" stroke-width="1.000000" stroke="black" id="id0000000167" class="line" />
<text id="id0000000168" transform="matrix(1 0 0 1 36 1)" x="153.784363" y="182.000000" dominant-baseline="hanging" text-anchor="middle" font-size="14.000000px" >
6
</text>

<polyline points="33,171.99 36,171.99 " fill="none" stroke-width="1.000000" stroke="black" id="id0000000169" class="line" />
<text id="id0000000170" transform="matrix(1 0 0 1 36 1)" x="-5.000000" y="170.990173" dominant-baseline="middle" text-anchor="end" font-size="14.000000px" >
-4
</text>

<polyline points="33,151.354 36,151.354 " fill="none" stroke-width="1.000000" stroke="black" id="id0000000171" class="line" />
<text id="id0000000172" transform="matrix(1 0 0 1 36 1)" x="-5.000000" y="150.353607" dominant-baseline="middle" text-anchor="end" font-size="14.000000px" >
-3
</text>

<polyline points="33,130.717 36,130.717 " fill="none" stroke-width="1.000000" stroke="black" id="id0000000173" class="line" />
<text id="id0000000174" transform="matrix(1 0 0 1 36 1)" x="-5.000000" y="129.717041" dominant-baseline="middle" text-anchor="end" font-size="14.000000px" >
-2
</text>

<polyline points="33,110.08 36,110.08 " fill="none" stroke-width="1.000000" stroke="black" id="id0000000175" class="line" />
<text id="id0000000176" transform="matrix(1 0 0 1 36 1)" x="-5.000000" y="109.080475" dominant-baseline="middle" text-anchor="end" font-size="14.000000px" >
-1
</text>

<polyline points="33,89.4439 36,89.4439 " fill="none" stroke-width="1.000000" stroke="black" id="id0000000177" class="line" />
<text id="id0000000178" transform="matrix(1 0 0 1 36 1)" x="-5.000000" y="88.443909" dominant-baseline="middle" text-anchor="end" font-size="14.000000px" >
0
</text>

<polyline points="33,68.8074 36,68.8074 " fill="none" stroke-width="1.000000" stroke="black" id="id0000000179" class="line" />
<text id="id0000000180" transform="matrix(1 0 0 1 36 1)" x="-5.000000" y="67.807350" dominant-baseline="middle" text-anchor="end" font-size="14.000000px" >
1
</text>

<polyline points="33,48.1708 36,48.1708 " fill="none" stroke-width="1.000000" stroke="black" id="id0000000181" class="line" />
<text id="id0000000182" transform="matrix(1 0 0 1 36 1)" x="-5.000000" y="47.170776" dominant-baseline="middle" text-anchor="end" font-size="14.000000px" >
2
</text>

<polyline points="33,27.5342 36,27.5342 " fill="none" stroke-width="1.000000" stroke="black" id="id0000000183" class="line" />
<text id="id0000000184" transform="matrix(1 0 0 1 36 1)" x="-5.000000" y="26.534225" dominant-baseline="middle" text-anchor="end" font-size="14.000000px" >
3
</text>

<polyline points="33,6.89766 36,6.89766 " fill="none" stroke-width="1.000000" stroke="black" id="id0000000185" class="line" />
<text id="id0000000186" transform="matrix(1 0 0 1 36 1)" x="-5.000000" y="5.897659" dominant-baseline="middle" text-anchor="end" font-size="14.000000px" >
4
</text>


</g>

</svg>
