<svg viewBox="0 0 10 25" height="100%" width="100%" xmlns:xlink="http://www.w3.org/1999/xlink" xmlns="http://www.w3.org/2000/svg" id="id0000003569" >
<g id="id0000003570" >
<clipPath id="id0000003570clipper" >
<polygon points="1,1 1,24 9,24 9,1 " id="id0000003573" class="rectangle" />
</clipPath>

<g clip-path="url(#id0000003570clipper)" id="id0000003572" >
<g id="id0000003574" >
<g opacity="1.000000" fill="rgb( 0, 255, 63 )" stroke-width="0.000000" id="id0000003575" >
<path id="id0000003581" d="M 5 20.25 C 5.5984 20.25 6.19057 19.9648 6.56366 19.497 C 6.93676 19.0291 7.08301 18.3884 6.94986 17.805 C 6.8167 17.2216 6.40691 16.7077 5.86777 16.4481 C 5.32863 16.1884 4.67137 16.1884 4.13223 16.4481 C 3.59309 16.7077 3.1833 17.2216 3.05014 17.805 C 2.91699 18.3884 3.06324 19.0291 3.43634 19.497 C 3.80943 19.9648 4.4016 20.25 5 20.25 " />
</g>

<g opacity="1.000000" fill="rgb( 255, 191, 0 )" stroke-width="0.000000" id="id0000003577" >
<path id="id0000003582" d="M 5 14.5 C 5.5984 14.5 6.19057 14.2148 6.56366 13.747 C 6.93676 13.2791 7.08301 12.6384 6.94986 12.055 C 6.8167 11.4716 6.40691 10.9577 5.86777 10.6981 C 5.32863 10.4384 4.67137 10.4384 4.13223 10.6981 C 3.59309 10.9577 3.1833 11.4716 3.05014 12.055 C 2.91699 12.6384 3.06324 13.2791 3.43634 13.747 C 3.80943 14.2148 4.4016 14.5 5 14.5 " />
</g>

<g opacity="1.000000" fill="rgb( 255, 63, 63 )" stroke-width="0.000000" id="id0000003579" >
<path id="id0000003583" d="M 5 8.75 C 5.5984 8.75 6.19057 8.46483 6.56366 7.99698 C 6.93676 7.52913 7.08301 6.88835 6.94986 6.30496 C 6.8167 5.72156 6.40691 5.2077 5.86777 4.94806 C 5.32863 4.68843 4.67137 4.68843 4.13223 4.94806 C 3.59309 5.2077 3.1833 5.72156 3.05014 6.30496 C 2.91699 6.88835 3.06324 7.52913 3.43634 7.99698 C 3.80943 8.46483 4.4016 8.75 5 8.75 " />
</g>

</g>

</g>

<polygon points="1,1 1,24 9,24 9,1 " stroke="black" stroke-width="0.000000" fill="none" id="id0000003584" pointer-events="none" class="rectangle" />

</g>

</svg>
