<svg viewBox="0 0 32.855 18.4016" height="100%" width="100%" xmlns:xlink="http://www.w3.org/1999/xlink" xmlns="http://www.w3.org/2000/svg" id="id0000000636" >
<g id="id0000000637" >
<g id="id0000000638" >
<g id="id0000000639" >
<clipPath id="id0000000639clipper" >
<polygon points="2.3025,5.1608 2.3025,8.1608 5.3025,8.1608 5.3025,5.1608 " id="id0000000686" class="rectangle" />
</clipPath>

<g clip-path="url(#id0000000639clipper)" id="id0000000641" >
<g id="id0000000687" >
<g opacity="1.000000" fill="#1f77b4" stroke-width="0.000000" id="id0000000688" >
<path id="id0000000690" d="M 3.8025 8.6608 C 4.08175 8.6608 4.36086 8.60147 4.61597 8.48789 C 4.87108 8.37431 5.10193 8.20659 5.28879 7.99906 C 5.47565 7.79154 5.61832 7.54442 5.70461 7.27883 C 5.79091 7.01325 5.82073 6.72947 5.79154 6.45174 C 5.76235 6.17402 5.67418 5.90264 5.53455 5.6608 C 5.39492 5.41896 5.20399 5.20691 4.97807 5.04277 C 4.75215 4.87863 4.49147 4.76256 4.21832 4.7045 C 3.94517 4.64644 3.65983 4.64645 3.38668 4.7045 C 3.11353 4.76256 2.85285 4.87863 2.62693 5.04277 C 2.40101 5.20691 2.21008 5.41896 2.07045 5.6608 C 1.93082 5.90264 1.84265 6.17402 1.81346 6.45174 C 1.78427 6.72947 1.81409 7.01325 1.90039 7.27883 C 1.98668 7.54442 2.12935 7.79154 2.31621 7.99906 C 2.50307 8.20659 2.73392 8.37431 2.98903 8.48789 " />
</g>

</g>

</g>

<polygon points="2.3025,5.1608 2.3025,8.1608 5.3025,8.1608 5.3025,5.1608 " stroke="black" stroke-width="0.010000" fill="none" id="id0000000691" pointer-events="none" class="rectangle" />
<text id="id0000000692" transform="matrix(1 0 0 1 2.3025 5.1608)" x="1.500000" y="-1.000000" text-anchor="middle" font-size="2.000000px" >
'o'
</text>

</g>

</g>

<g id="id0000000642" >
<g id="id0000000643" >
<clipPath id="id0000000643clipper" >
<polygon points="7.35292,5.1608 7.35292,8.1608 10.3529,8.1608 10.3529,5.1608 " id="id0000000693" class="rectangle" />
</clipPath>

<g clip-path="url(#id0000000643clipper)" id="id0000000645" >
<g id="id0000000694" >
<g opacity="1.000000" fill="#1f77b4" stroke-width="0.000000" id="id0000000695" >
<path id="id0000000697" d="M 8.85292 7.6608 C 8.99254 7.6608 9.1321 7.63114 9.25965 7.57435 C 9.38721 7.51755 9.50263 7.43369 9.59606 7.32993 C 9.68949 7.22617 9.76083 7.10261 9.80397 6.96982 C 9.84712 6.83702 9.86203 6.69513 9.84744 6.55627 C 9.83284 6.41741 9.78876 6.28172 9.71894 6.1608 C 9.64913 6.03988 9.55366 5.93385 9.4407 5.85178 C 9.32774 5.76971 9.1974 5.71168 9.06083 5.68265 C 8.92425 5.65362 8.78158 5.65362 8.64501 5.68265 C 8.50843 5.71168 8.37809 5.76971 8.26513 5.85178 C 8.15217 5.93385 8.0567 6.03988 7.98689 6.1608 C 7.91708 6.28172 7.87299 6.41741 7.85839 6.55627 C 7.8438 6.69513 7.85871 6.83702 7.90186 6.96982 C 7.94501 7.10261 8.01634 7.22617 8.10977 7.32993 C 8.2032 7.43369 8.31863 7.51755 8.44618 7.57435 " />
</g>

</g>

</g>

<polygon points="7.35292,5.1608 7.35292,8.1608 10.3529,8.1608 10.3529,5.1608 " stroke="black" stroke-width="0.010000" fill="none" id="id0000000698" pointer-events="none" class="rectangle" />
<text id="id0000000699" transform="matrix(1 0 0 1 7.35292 5.1608)" x="1.500000" y="-1.000000" text-anchor="middle" font-size="2.000000px" >
'.'
</text>

</g>

</g>

<g id="id0000000646" >
<g id="id0000000647" >
<clipPath id="id0000000647clipper" >
<polygon points="12.4033,5.1608 12.4033,8.1608 15.4033,8.1608 15.4033,5.1608 " id="id0000000700" class="rectangle" />
</clipPath>

<g clip-path="url(#id0000000647clipper)" id="id0000000649" >
<g id="id0000000701" >
<g opacity="1.000000" fill="#1f77b4" stroke-width="0.000000" id="id0000000702" >
<path id="id0000000704" d="M 13.9033 7.2608 C 13.9871 7.2608 14.0708 7.243 14.1474 7.20893 C 14.2239 7.17485 14.2932 7.12454 14.3492 7.06228 C 14.4053 7.00002 14.4481 6.92589 14.474 6.84621 C 14.4999 6.76653 14.5088 6.6814 14.5 6.59808 C 14.4913 6.51477 14.4648 6.43335 14.4229 6.3608 C 14.3811 6.28825 14.3238 6.22463 14.256 6.17539 C 14.1882 6.12615 14.11 6.09133 14.0281 6.07391 C 13.9461 6.05649 13.8605 6.05649 13.7786 6.07391 C 13.6966 6.09133 13.6184 6.12615 13.5507 6.17539 C 13.4829 6.22463 13.4256 6.28825 13.3837 6.3608 C 13.3418 6.43335 13.3154 6.51477 13.3066 6.59808 C 13.2979 6.6814 13.3068 6.76653 13.3327 6.84621 C 13.3586 6.92589 13.4014 7.00002 13.4574 7.06228 C 13.5135 7.12454 13.5828 7.17485 13.6593 7.20893 " />
</g>

</g>

</g>

<polygon points="12.4033,5.1608 12.4033,8.1608 15.4033,8.1608 15.4033,5.1608 " stroke="black" stroke-width="0.010000" fill="none" id="id0000000705" pointer-events="none" class="rectangle" />
<text id="id0000000706" transform="matrix(1 0 0 1 12.4033 5.1608)" x="1.500000" y="-1.000000" text-anchor="middle" font-size="2.000000px" >
','
</text>

</g>

</g>

<g id="id0000000650" >
<g id="id0000000651" >
<clipPath id="id0000000651clipper" >
<polygon points="17.4537,5.1608 17.4537,8.1608 20.4537,8.1608 20.4537,5.1608 " id="id0000000707" class="rectangle" />
</clipPath>

<g clip-path="url(#id0000000651clipper)" id="id0000000653" >
<g id="id0000000708" >
<g opacity="1.000000" fill="#1f77b4" stroke-width="0.000000" id="id0000000709" >
<polygon points="18.9537,7.6608 19.9537,5.6608 17.9537,5.6608 " id="id0000000711" class="triangle" />
</g>

</g>

</g>

<polygon points="17.4537,5.1608 17.4537,8.1608 20.4537,8.1608 20.4537,5.1608 " stroke="black" stroke-width="0.010000" fill="none" id="id0000000712" pointer-events="none" class="rectangle" />
<text id="id0000000713" transform="matrix(1 0 0 1 17.4537 5.1608)" x="1.500000" y="-1.000000" text-anchor="middle" font-size="2.000000px" >
'v'
</text>

</g>

</g>

<g id="id0000000654" >
<g id="id0000000655" >
<clipPath id="id0000000655clipper" >
<polygon points="22.5042,5.1608 22.5042,8.1608 25.5042,8.1608 25.5042,5.1608 " id="id0000000714" class="rectangle" />
</clipPath>

<g clip-path="url(#id0000000655clipper)" id="id0000000657" >
<g id="id0000000715" >
<g opacity="1.000000" fill="#1f77b4" stroke-width="0.000000" id="id0000000716" >
<polygon points="25.0042,6.6608 23.0042,7.6608 23.0042,5.6608 " id="id0000000718" class="triangle" />
</g>

</g>

</g>

<polygon points="22.5042,5.1608 22.5042,8.1608 25.5042,8.1608 25.5042,5.1608 " stroke="black" stroke-width="0.010000" fill="none" id="id0000000719" pointer-events="none" class="rectangle" />
<text id="id0000000720" transform="matrix(1 0 0 1 22.5042 5.1608)" x="1.500000" y="-1.000000" text-anchor="middle" font-size="2.000000px" >
'>'
</text>

</g>

</g>

<g id="id0000000658" >
<g id="id0000000659" >
<clipPath id="id0000000659clipper" >
<polygon points="27.5546,5.1608 27.5546,8.1608 30.5546,8.1608 30.5546,5.1608 " id="id0000000721" class="rectangle" />
</clipPath>

<g clip-path="url(#id0000000659clipper)" id="id0000000661" >
<g id="id0000000722" >
<g opacity="1.000000" fill="#1f77b4" stroke-width="0.000000" id="id0000000723" >
<polygon points="29.0546,5.6608 30.0546,7.6608 28.0546,7.6608 " id="id0000000725" class="triangle" />
</g>

</g>

</g>

<polygon points="27.5546,5.1608 27.5546,8.1608 30.5546,8.1608 30.5546,5.1608 " stroke="black" stroke-width="0.010000" fill="none" id="id0000000726" pointer-events="none" class="rectangle" />
<text id="id0000000727" transform="matrix(1 0 0 1 27.5546 5.1608)" x="1.500000" y="-1.000000" text-anchor="middle" font-size="2.000000px" >
'^'
</text>

</g>

</g>

<g id="id0000000662" >
<g id="id0000000663" >
<clipPath id="id0000000663clipper" >
<polygon points="2.3025,13.2412 2.3025,16.2412 5.3025,16.2412 5.3025,13.2412 " id="id0000000728" class="rectangle" />
</clipPath>

<g clip-path="url(#id0000000663clipper)" id="id0000000665" >
<g id="id0000000729" >
<g opacity="1.000000" fill="#1f77b4" stroke-width="0.000000" id="id0000000730" >
<polygon points="2.8025,14.7412 4.8025,15.7412 4.8025,13.7412 " id="id0000000732" class="triangle" />
</g>

</g>

</g>

<polygon points="2.3025,13.2412 2.3025,16.2412 5.3025,16.2412 5.3025,13.2412 " stroke="black" stroke-width="0.010000" fill="none" id="id0000000733" pointer-events="none" class="rectangle" />
<text id="id0000000734" transform="matrix(1 0 0 1 2.3025 13.2412)" x="1.500000" y="-1.000000" text-anchor="middle" font-size="2.000000px" >
'&lt;'
</text>

</g>

</g>

<g id="id0000000666" >
<g id="id0000000667" >
<clipPath id="id0000000667clipper" >
<polygon points="7.35292,13.2412 7.35292,16.2412 10.3529,16.2412 10.3529,13.2412 " id="id0000000735" class="rectangle" />
</clipPath>

<g clip-path="url(#id0000000667clipper)" id="id0000000669" >
<g id="id0000000736" >
<g opacity="1.000000" fill="#1f77b4" stroke-width="0.000000" id="id0000000737" >
<polygon points="7.85292,13.7412 7.85292,15.7412 9.85292,15.7412 9.85292,13.7412 " id="id0000000739" class="rectangle" />
</g>

</g>

</g>

<polygon points="7.35292,13.2412 7.35292,16.2412 10.3529,16.2412 10.3529,13.2412 " stroke="black" stroke-width="0.010000" fill="none" id="id0000000740" pointer-events="none" class="rectangle" />
<text id="id0000000741" transform="matrix(1 0 0 1 7.35292 13.2412)" x="1.500000" y="-1.000000" text-anchor="middle" font-size="2.000000px" >
's'
</text>

</g>

</g>

<g id="id0000000670" >
<g id="id0000000671" >
<clipPath id="id0000000671clipper" >
<polygon points="12.4033,13.2412 12.4033,16.2412 15.4033,16.2412 15.4033,13.2412 " id="id0000000742" class="rectangle" />
</clipPath>

<g clip-path="url(#id0000000671clipper)" id="id0000000673" >
<g id="id0000000743" >
<g stroke="#1f77b4" opacity="1.000000" fill="none" id="id0000000744" >
<g stroke-width="0.300000" class="plus" id="id0000000632" >
<polyline points="13.9033,15.7412 13.9033,13.7412 " fill="none" id="id0000000746" class="line" />
<polyline points="14.9033,14.7412 12.9033,14.7412 " fill="none" id="id0000000747" class="line" />
</g>

</g>

</g>

</g>

<polygon points="12.4033,13.2412 12.4033,16.2412 15.4033,16.2412 15.4033,13.2412 " stroke="black" stroke-width="0.010000" fill="none" id="id0000000748" pointer-events="none" class="rectangle" />
<text id="id0000000749" transform="matrix(1 0 0 1 12.4033 13.2412)" x="1.500000" y="-1.000000" text-anchor="middle" font-size="2.000000px" >
'+'
</text>

</g>

</g>

<g id="id0000000674" >
<g id="id0000000675" >
<clipPath id="id0000000675clipper" >
<polygon points="17.4537,13.2412 17.4537,16.2412 20.4537,16.2412 20.4537,13.2412 " id="id0000000750" class="rectangle" />
</clipPath>

<g clip-path="url(#id0000000675clipper)" id="id0000000677" >
<g id="id0000000751" >
<g stroke="#1f77b4" opacity="1.000000" fill="none" id="id0000000752" >
<g stroke-width="0.700000" class="plus" id="id0000000633" >
<polyline points="18.9537,15.7412 18.9537,13.7412 " fill="none" id="id0000000754" class="line" />
<polyline points="19.9537,14.7412 17.9537,14.7412 " fill="none" id="id0000000755" class="line" />
</g>

</g>

</g>

</g>

<polygon points="17.4537,13.2412 17.4537,16.2412 20.4537,16.2412 20.4537,13.2412 " stroke="black" stroke-width="0.010000" fill="none" id="id0000000756" pointer-events="none" class="rectangle" />
<text id="id0000000757" transform="matrix(1 0 0 1 17.4537 13.2412)" x="1.500000" y="-1.000000" text-anchor="middle" font-size="2.000000px" >
'P'
</text>

</g>

</g>

<g id="id0000000678" >
<g id="id0000000679" >
<clipPath id="id0000000679clipper" >
<polygon points="22.5042,13.2412 22.5042,16.2412 25.5042,16.2412 25.5042,13.2412 " id="id0000000758" class="rectangle" />
</clipPath>

<g clip-path="url(#id0000000679clipper)" id="id0000000681" >
<g id="id0000000759" >
<g stroke="#1f77b4" opacity="1.000000" fill="none" id="id0000000760" >
<g stroke-width="0.300000" class="times" id="id0000000634" >
<polyline points="25.0042,15.7412 23.0042,13.7412 " fill="none" id="id0000000762" class="line" />
<polyline points="25.0042,13.7412 23.0042,15.7412 " fill="none" id="id0000000763" class="line" />
</g>

</g>

</g>

</g>

<polygon points="22.5042,13.2412 22.5042,16.2412 25.5042,16.2412 25.5042,13.2412 " stroke="black" stroke-width="0.010000" fill="none" id="id0000000764" pointer-events="none" class="rectangle" />
<text id="id0000000765" transform="matrix(1 0 0 1 22.5042 13.2412)" x="1.500000" y="-1.000000" text-anchor="middle" font-size="2.000000px" >
'x'
</text>

</g>

</g>

<g id="id0000000682" >
<g id="id0000000683" >
<clipPath id="id0000000683clipper" >
<polygon points="27.5546,13.2412 27.5546,16.2412 30.5546,16.2412 30.5546,13.2412 " id="id0000000766" class="rectangle" />
</clipPath>

<g clip-path="url(#id0000000683clipper)" id="id0000000685" >
<g id="id0000000767" >
<g stroke="#1f77b4" opacity="1.000000" fill="none" id="id0000000768" >
<g stroke-width="0.700000" class="times" id="id0000000635" >
<polyline points="30.0546,15.7412 28.0546,13.7412 " fill="none" id="id0000000770" class="line" />
<polyline points="30.0546,13.7412 28.0546,15.7412 " fill="none" id="id0000000771" class="line" />
</g>

</g>

</g>

</g>

<polygon points="27.5546,13.2412 27.5546,16.2412 30.5546,16.2412 30.5546,13.2412 " stroke="black" stroke-width="0.010000" fill="none" id="id0000000772" pointer-events="none" class="rectangle" />
<text id="id0000000773" transform="matrix(1 0 0 1 27.5546 13.2412)" x="1.500000" y="-1.000000" text-anchor="middle" font-size="2.000000px" >
'X'
</text>

</g>

</g>


</g>

</svg>
