<svg viewBox="0 0 200 150" height="100%" width="100%" xmlns:xlink="http://www.w3.org/1999/xlink" xmlns="http://www.w3.org/2000/svg" id="id0000000000" >
<g id="id0000000001" >
<clipPath id="id0000000001clipper" >
<polygon points="30,5 30,130 195,130 195,5 " id="id0000000004" class="rectangle" />
</clipPath>

<g clip-path="url(#id0000000001clipper)" id="id0000000003" >
<g id="id0000000005" >
<g opacity="1.000000" fill="#1f77b4" stroke-width="0.000000" id="id0000000006" >
<path id="id0000000106" d="M 85.3369 109.551 C 85.5044 109.551 85.6719 109.515 85.825 109.447 C 85.978 109.379 86.1165 109.278 86.2286 109.154 C 86.3408 109.029 86.4264 108.881 86.4781 108.722 C 86.5299 108.562 86.5478 108.392 86.5303 108.225 C 86.5128 108.059 86.4599 107.896 86.3761 107.751 C 86.2923 107.606 86.1778 107.479 86.0422 107.38 C 85.9067 107.282 85.7503 107.212 85.5864 107.177 C 85.4225 107.142 85.2513 107.142 85.0874 107.177 C 84.9235 107.212 84.7671 107.282 84.6315 107.38 C 84.496 107.479 84.3814 107.606 84.2976 107.751 C 84.2139 107.896 84.161 108.059 84.1434 108.225 C 84.1259 108.392 84.1438 108.562 84.1956 108.722 C 84.2474 108.881 84.333 109.029 84.4451 109.154 C 84.5572 109.278 84.6957 109.379 84.8488 109.447 " />
</g>

<g opacity="1.000000" fill="#1f77b4" stroke-width="0.000000" id="id0000000008" >
<path id="id0000000107" d="M 145.612 99.124 C 145.78 99.124 145.947 99.0884 146.101 99.0203 C 146.254 98.9521 146.392 98.8515 146.504 98.727 C 146.616 98.6025 146.702 98.4542 146.754 98.2948 C 146.805 98.1355 146.823 97.9652 146.806 97.7986 C 146.788 97.6319 146.735 97.4691 146.652 97.324 C 146.568 97.1789 146.453 97.0517 146.318 96.9532 C 146.182 96.8547 146.026 96.7851 145.862 96.7502 C 145.698 96.7154 145.527 96.7154 145.363 96.7502 C 145.199 96.7851 145.043 96.8547 144.907 96.9532 C 144.772 97.0517 144.657 97.1789 144.573 97.324 C 144.489 97.4691 144.437 97.6319 144.419 97.7986 C 144.402 97.9652 144.419 98.1355 144.471 98.2948 C 144.523 98.4542 144.609 98.6025 144.721 98.727 C 144.833 98.8515 144.971 98.9521 145.124 99.0203 " />
</g>

<g opacity="1.000000" fill="#1f77b4" stroke-width="0.000000" id="id0000000010" >
<path id="id0000000108" d="M 108.157 125.772 C 108.324 125.772 108.492 125.737 108.645 125.668 C 108.798 125.6 108.936 125.5 109.048 125.375 C 109.16 125.251 109.246 125.102 109.298 124.943 C 109.35 124.784 109.367 124.613 109.35 124.447 C 109.332 124.28 109.28 124.117 109.196 123.972 C 109.112 123.827 108.997 123.7 108.862 123.601 C 108.726 123.503 108.57 123.433 108.406 123.398 C 108.242 123.364 108.071 123.364 107.907 123.398 C 107.743 123.433 107.587 123.503 107.451 123.601 C 107.316 123.7 107.201 123.827 107.117 123.972 C 107.034 124.117 106.981 124.28 106.963 124.447 C 106.946 124.613 106.963 124.784 107.015 124.943 C 107.067 125.102 107.153 125.251 107.265 125.375 C 107.377 125.5 107.515 125.6 107.668 125.668 " />
</g>

<g opacity="1.000000" fill="#1f77b4" stroke-width="0.000000" id="id0000000012" >
<path id="id0000000109" d="M 58.257 77.8504 C 58.4246 77.8504 58.592 77.8148 58.7451 77.7467 C 58.8982 77.6785 59.0367 77.5779 59.1488 77.4534 C 59.2609 77.3289 59.3465 77.1806 59.3983 77.0212 C 59.4501 76.8619 59.468 76.6916 59.4505 76.525 C 59.4329 76.3584 59.38 76.1955 59.2963 76.0504 C 59.2125 75.9053 59.0979 75.7781 58.9624 75.6796 C 58.8268 75.5811 58.6704 75.5115 58.5065 75.4767 C 58.3426 75.4418 58.1714 75.4418 58.0075 75.4767 C 57.8436 75.5115 57.6872 75.5811 57.5517 75.6796 C 57.4161 75.7781 57.3016 75.9053 57.2178 76.0504 C 57.134 76.1955 57.0811 76.3584 57.0636 76.525 C 57.0461 76.6916 57.064 76.8619 57.1158 77.0212 C 57.1675 77.1806 57.2531 77.3289 57.3653 77.4534 C 57.4774 77.5779 57.6159 77.6785 57.7689 77.7467 " />
</g>

<g opacity="1.000000" fill="#1f77b4" stroke-width="0.000000" id="id0000000014" >
<path id="id0000000110" d="M 125.132 66.5809 C 125.3 66.5809 125.467 66.5453 125.62 66.4772 C 125.773 66.409 125.912 66.3084 126.024 66.1839 C 126.136 66.0594 126.222 65.9111 126.273 65.7517 C 126.325 65.5924 126.343 65.4221 126.326 65.2555 C 126.308 65.0888 126.255 64.926 126.171 64.7809 C 126.088 64.6358 125.973 64.5086 125.838 64.4101 C 125.702 64.3116 125.546 64.242 125.382 64.2071 C 125.218 64.1723 125.047 64.1723 124.883 64.2071 C 124.719 64.242 124.562 64.3116 124.427 64.4101 C 124.291 64.5086 124.177 64.6358 124.093 64.7809 C 124.009 64.926 123.956 65.0888 123.939 65.2555 C 123.921 65.4221 123.939 65.5924 123.991 65.7517 C 124.043 65.9111 124.128 66.0594 124.24 66.1839 C 124.353 66.3084 124.491 66.409 124.644 66.4772 " />
</g>

<g opacity="1.000000" fill="#1f77b4" stroke-width="0.000000" id="id0000000016" >
<path id="id0000000111" d="M 36.0829 109.92 C 36.2505 109.92 36.4179 109.885 36.571 109.817 C 36.7241 109.749 36.8626 109.648 36.9747 109.523 C 37.0868 109.399 37.1724 109.251 37.2242 109.091 C 37.276 108.932 37.2938 108.762 37.2763 108.595 C 37.2588 108.428 37.2059 108.266 37.1221 108.12 C 37.0384 107.975 36.9238 107.848 36.7882 107.75 C 36.6527 107.651 36.4963 107.582 36.3324 107.547 C 36.1685 107.512 35.9973 107.512 35.8334 107.547 C 35.6695 107.582 35.5131 107.651 35.3776 107.75 C 35.242 107.848 35.1275 107.975 35.0437 108.12 C 34.9599 108.266 34.907 108.428 34.8895 108.595 C 34.872 108.762 34.8899 108.932 34.9416 109.091 C 34.9934 109.251 35.079 109.399 35.1911 109.523 C 35.3032 109.648 35.4418 109.749 35.5948 109.817 " />
</g>

<g opacity="1.000000" fill="#1f77b4" stroke-width="0.000000" id="id0000000018" >
<path id="id0000000112" d="M 125.914 50.2419 C 126.081 50.2419 126.249 50.2063 126.402 50.1382 C 126.555 50.07 126.693 49.9694 126.806 49.8449 C 126.918 49.7204 127.003 49.5721 127.055 49.4127 C 127.107 49.2534 127.125 49.0831 127.107 48.9165 C 127.09 48.7498 127.037 48.587 126.953 48.4419 C 126.869 48.2968 126.755 48.1696 126.619 48.0711 C 126.484 47.9726 126.327 47.903 126.163 47.8681 C 125.999 47.8333 125.828 47.8333 125.664 47.8681 C 125.5 47.903 125.344 47.9726 125.208 48.0711 C 125.073 48.1696 124.958 48.2968 124.875 48.4419 C 124.791 48.587 124.738 48.7498 124.72 48.9165 C 124.703 49.0831 124.721 49.2534 124.772 49.4127 C 124.824 49.5721 124.91 49.7204 125.022 49.8449 C 125.134 49.9694 125.273 50.07 125.426 50.1382 " />
</g>

<g opacity="1.000000" fill="#1f77b4" stroke-width="0.000000" id="id0000000020" >
<path id="id0000000113" d="M 102.014 94.9843 C 102.181 94.9843 102.349 94.9487 102.502 94.8806 C 102.655 94.8124 102.793 94.7118 102.905 94.5873 C 103.017 94.4628 103.103 94.3145 103.155 94.1552 C 103.207 93.9958 103.224 93.8255 103.207 93.6589 C 103.189 93.4923 103.137 93.3294 103.053 93.1843 C 102.969 93.0392 102.854 92.912 102.719 92.8135 C 102.583 92.715 102.427 92.6454 102.263 92.6106 C 102.099 92.5757 101.928 92.5757 101.764 92.6106 C 101.6 92.6454 101.444 92.715 101.308 92.8135 C 101.173 92.912 101.058 93.0392 100.974 93.1843 C 100.891 93.3294 100.838 93.4923 100.82 93.6589 C 100.803 93.8255 100.82 93.9958 100.872 94.1552 C 100.924 94.3145 101.01 94.4628 101.122 94.5873 C 101.234 94.7118 101.372 94.8124 101.525 94.8806 " />
</g>

<g opacity="1.000000" fill="#1f77b4" stroke-width="0.000000" id="id0000000022" >
<path id="id0000000114" d="M 105.831 62.9932 C 105.999 62.9932 106.166 62.9576 106.319 62.8894 C 106.472 62.8213 106.611 62.7207 106.723 62.5961 C 106.835 62.4716 106.921 62.3234 106.972 62.164 C 107.024 62.0047 107.042 61.8344 107.025 61.6677 C 107.007 61.5011 106.954 61.3383 106.87 61.1932 C 106.787 61.0481 106.672 60.9208 106.536 60.8224 C 106.401 60.7239 106.244 60.6542 106.081 60.6194 C 105.917 60.5846 105.746 60.5846 105.582 60.6194 C 105.418 60.6542 105.261 60.7239 105.126 60.8224 C 104.99 60.9208 104.876 61.0481 104.792 61.1932 C 104.708 61.3383 104.655 61.5011 104.638 61.6677 C 104.62 61.8344 104.638 62.0047 104.69 62.164 C 104.742 62.3234 104.827 62.4716 104.939 62.5961 C 105.051 62.7207 105.19 62.8213 105.343 62.8894 " />
</g>

<g opacity="1.000000" fill="#1f77b4" stroke-width="0.000000" id="id0000000024" >
<path id="id0000000115" d="M 85.7466 46.0024 C 85.9142 46.0024 86.0816 45.9668 86.2347 45.8987 C 86.3878 45.8305 86.5263 45.7299 86.6384 45.6054 C 86.7505 45.4808 86.8361 45.3326 86.8879 45.1732 C 86.9397 45.0139 86.9576 44.8436 86.9401 44.677 C 86.9225 44.5103 86.8696 44.3475 86.7859 44.2024 C 86.7021 44.0573 86.5875 43.9301 86.452 43.8316 C 86.3164 43.7331 86.16 43.6635 85.9961 43.6286 C 85.8322 43.5938 85.661 43.5938 85.4971 43.6286 C 85.3333 43.6635 85.1768 43.7331 85.0413 43.8316 C 84.9057 43.9301 84.7912 44.0573 84.7074 44.2024 C 84.6236 44.3475 84.5707 44.5103 84.5532 44.677 C 84.5357 44.8436 84.5536 45.0139 84.6054 45.1732 C 84.6571 45.3326 84.7427 45.4808 84.8549 45.6054 C 84.967 45.7299 85.1055 45.8305 85.2586 45.8987 " />
</g>

<g opacity="1.000000" fill="#1f77b4" stroke-width="0.000000" id="id0000000026" >
<path id="id0000000116" d="M 105.718 81.5685 C 105.886 81.5685 106.054 81.5329 106.207 81.4647 C 106.36 81.3966 106.498 81.296 106.61 81.1714 C 106.722 81.0469 106.808 80.8987 106.86 80.7393 C 106.912 80.58 106.929 80.4097 106.912 80.2431 C 106.894 80.0764 106.841 79.9136 106.758 79.7685 C 106.674 79.6234 106.559 79.4962 106.424 79.3977 C 106.288 79.2992 106.132 79.2296 105.968 79.1947 C 105.804 79.1599 105.633 79.1599 105.469 79.1947 C 105.305 79.2296 105.149 79.2992 105.013 79.3977 C 104.878 79.4962 104.763 79.6234 104.679 79.7685 C 104.595 79.9136 104.543 80.0764 104.525 80.2431 C 104.508 80.4097 104.525 80.58 104.577 80.7393 C 104.629 80.8987 104.715 81.0469 104.827 81.1714 C 104.939 81.296 105.077 81.3966 105.23 81.4647 " />
</g>

<g opacity="1.000000" fill="#1f77b4" stroke-width="0.000000" id="id0000000028" >
<path id="id0000000117" d="M 149.065 41.7178 C 149.233 41.7178 149.4 41.6823 149.553 41.6141 C 149.706 41.546 149.845 41.4453 149.957 41.3208 C 150.069 41.1963 150.155 41.048 150.206 40.8887 C 150.258 40.7293 150.276 40.559 150.258 40.3924 C 150.241 40.2258 150.188 40.063 150.104 39.9179 C 150.021 39.7727 149.906 39.6455 149.77 39.547 C 149.635 39.4485 149.478 39.3789 149.315 39.3441 C 149.151 39.3092 148.979 39.3092 148.816 39.3441 C 148.652 39.3789 148.495 39.4485 148.36 39.547 C 148.224 39.6455 148.11 39.7727 148.026 39.9179 C 147.942 40.063 147.889 40.2258 147.872 40.3924 C 147.854 40.559 147.872 40.7293 147.924 40.8887 C 147.976 41.048 148.061 41.1963 148.173 41.3208 C 148.285 41.4453 148.424 41.546 148.577 41.6141 " />
</g>

<g opacity="1.000000" fill="#1f77b4" stroke-width="0.000000" id="id0000000030" >
<path id="id0000000118" d="M 63.9934 79.7533 C 64.1609 79.7533 64.3284 79.7177 64.4814 79.6495 C 64.6345 79.5814 64.773 79.4808 64.8851 79.3562 C 64.9973 79.2317 65.0829 79.0835 65.1346 78.9241 C 65.1864 78.7647 65.2043 78.5945 65.1868 78.4278 C 65.1693 78.2612 65.1164 78.0984 65.0326 77.9533 C 64.9488 77.8082 64.8343 77.6809 64.6987 77.5825 C 64.5632 77.484 64.4067 77.4143 64.2429 77.3795 C 64.079 77.3447 63.9078 77.3447 63.7439 77.3795 C 63.58 77.4143 63.4236 77.484 63.288 77.5825 C 63.1525 77.6809 63.0379 77.8082 62.9541 77.9533 C 62.8704 78.0984 62.8175 78.2612 62.7999 78.4278 C 62.7824 78.5945 62.8003 78.7647 62.8521 78.9241 C 62.9039 79.0835 62.9895 79.2317 63.1016 79.3562 C 63.2137 79.4808 63.3522 79.5814 63.5053 79.6495 " />
</g>

<g opacity="1.000000" fill="#1f77b4" stroke-width="0.000000" id="id0000000032" >
<path id="id0000000119" d="M 79.8568 81.4015 C 80.0243 81.4015 80.1918 81.3659 80.3449 81.2977 C 80.4979 81.2296 80.6364 81.129 80.7486 81.0044 C 80.8607 80.8799 80.9463 80.7317 80.998 80.5723 C 81.0498 80.413 81.0677 80.2427 81.0502 80.076 C 81.0327 79.9094 80.9798 79.7466 80.896 79.6015 C 80.8122 79.4564 80.6977 79.3291 80.5621 79.2307 C 80.4266 79.1322 80.2702 79.0625 80.1063 79.0277 C 79.9424 78.9929 79.7712 78.9929 79.6073 79.0277 C 79.4434 79.0625 79.287 79.1322 79.1514 79.2307 C 79.0159 79.3291 78.9013 79.4564 78.8176 79.6015 C 78.7338 79.7466 78.6809 79.9094 78.6634 80.076 C 78.6458 80.2427 78.6637 80.413 78.7155 80.5723 C 78.7673 80.7317 78.8529 80.8799 78.965 81.0044 C 79.0771 81.129 79.2156 81.2296 79.3687 81.2977 " />
</g>

<g opacity="1.000000" fill="#1f77b4" stroke-width="0.000000" id="id0000000034" >
<path id="id0000000120" d="M 88.8219 28.3956 C 88.9894 28.3956 89.1569 28.36 89.3099 28.2918 C 89.463 28.2237 89.6015 28.123 89.7136 27.9985 C 89.8258 27.874 89.9114 27.7257 89.9631 27.5664 C 90.0149 27.407 90.0328 27.2368 90.0153 27.0701 C 89.9978 26.9035 89.9449 26.7407 89.8611 26.5956 C 89.7773 26.4505 89.6628 26.3232 89.5272 26.2247 C 89.3917 26.1263 89.2352 26.0566 89.0714 26.0218 C 88.9075 25.987 88.7363 25.987 88.5724 26.0218 C 88.4085 26.0566 88.2521 26.1263 88.1165 26.2247 C 87.981 26.3232 87.8664 26.4505 87.7826 26.5956 C 87.6989 26.7407 87.646 26.9035 87.6284 27.0701 C 87.6109 27.2368 87.6288 27.407 87.6806 27.5664 C 87.7324 27.7257 87.818 27.874 87.9301 27.9985 C 88.0422 28.123 88.1807 28.2237 88.3338 28.2918 " />
</g>

<g opacity="1.000000" fill="#1f77b4" stroke-width="0.000000" id="id0000000036" >
<path id="id0000000121" d="M 103.656 79.4292 C 103.824 79.4292 103.991 79.3936 104.144 79.3255 C 104.297 79.2573 104.436 79.1567 104.548 79.0322 C 104.66 78.9077 104.746 78.7594 104.797 78.6 C 104.849 78.4407 104.867 78.2704 104.849 78.1038 C 104.832 77.9372 104.779 77.7743 104.695 77.6292 C 104.611 77.4841 104.497 77.3569 104.361 77.2584 C 104.226 77.1599 104.069 77.0903 103.906 77.0555 C 103.742 77.0206 103.57 77.0206 103.407 77.0555 C 103.243 77.0903 103.086 77.1599 102.951 77.2584 C 102.815 77.3569 102.701 77.4841 102.617 77.6292 C 102.533 77.7743 102.48 77.9372 102.463 78.1038 C 102.445 78.2704 102.463 78.4407 102.515 78.6 C 102.567 78.7594 102.652 78.9077 102.764 79.0322 C 102.876 79.1567 103.015 79.2573 103.168 79.3255 " />
</g>

<g opacity="1.000000" fill="#1f77b4" stroke-width="0.000000" id="id0000000038" >
<path id="id0000000122" d="M 64.8877 39.0759 C 65.0553 39.0759 65.2227 39.0403 65.3758 38.9721 C 65.5289 38.904 65.6674 38.8033 65.7795 38.6788 C 65.8916 38.5543 65.9772 38.406 66.029 38.2467 C 66.0808 38.0873 66.0986 37.9171 66.0811 37.7504 C 66.0636 37.5838 66.0107 37.421 65.9269 37.2759 C 65.8432 37.1308 65.7286 37.0035 65.5931 36.9051 C 65.4575 36.8066 65.3011 36.7369 65.1372 36.7021 C 64.9733 36.6673 64.8021 36.6673 64.6382 36.7021 C 64.4743 36.7369 64.3179 36.8066 64.1824 36.9051 C 64.0468 37.0035 63.9323 37.1308 63.8485 37.2759 C 63.7647 37.421 63.7118 37.5838 63.6943 37.7504 C 63.6768 37.9171 63.6947 38.0873 63.7464 38.2467 C 63.7982 38.406 63.8838 38.5543 63.9959 38.6788 C 64.108 38.8033 64.2466 38.904 64.3996 38.9721 " />
</g>

<g opacity="1.000000" fill="#1f77b4" stroke-width="0.000000" id="id0000000040" >
<path id="id0000000123" d="M 59.0131 77.0287 C 59.1806 77.0287 59.3481 76.9931 59.5012 76.9249 C 59.6542 76.8568 59.7927 76.7562 59.9048 76.6317 C 60.017 76.5071 60.1026 76.3589 60.1543 76.1995 C 60.2061 76.0402 60.224 75.8699 60.2065 75.7033 C 60.189 75.5366 60.1361 75.3738 60.0523 75.2287 C 59.9685 75.0836 59.854 74.9564 59.7184 74.8579 C 59.5829 74.7594 59.4265 74.6898 59.2626 74.6549 C 59.0987 74.6201 58.9275 74.6201 58.7636 74.6549 C 58.5997 74.6898 58.4433 74.7594 58.3077 74.8579 C 58.1722 74.9564 58.0576 75.0836 57.9738 75.2287 C 57.8901 75.3738 57.8372 75.5366 57.8196 75.7033 C 57.8021 75.8699 57.82 76.0402 57.8718 76.1995 C 57.9236 76.3589 58.0092 76.5071 58.1213 76.6317 C 58.2334 76.7562 58.3719 76.8568 58.525 76.9249 " />
</g>

<g opacity="1.000000" fill="#1f77b4" stroke-width="0.000000" id="id0000000042" >
<path id="id0000000124" d="M 99.2694 91.6318 C 99.437 91.6318 99.6044 91.5962 99.7575 91.5281 C 99.9106 91.4599 100.049 91.3593 100.161 91.2348 C 100.273 91.1103 100.359 90.962 100.411 90.8027 C 100.462 90.6433 100.48 90.473 100.463 90.3064 C 100.445 90.1398 100.392 89.9769 100.309 89.8318 C 100.225 89.6867 100.11 89.5595 99.9748 89.461 C 99.8392 89.3625 99.6828 89.2929 99.5189 89.2581 C 99.355 89.2232 99.1838 89.2232 99.0199 89.2581 C 98.856 89.2929 98.6996 89.3625 98.5641 89.461 C 98.4285 89.5595 98.314 89.6867 98.2302 89.8318 C 98.1464 89.9769 98.0935 90.1398 98.076 90.3064 C 98.0585 90.473 98.0764 90.6433 98.1282 90.8027 C 98.1799 90.962 98.2655 91.1103 98.3776 91.2348 C 98.4898 91.3593 98.6283 91.4599 98.7813 91.5281 " />
</g>

<g opacity="1.000000" fill="#1f77b4" stroke-width="0.000000" id="id0000000044" >
<path id="id0000000125" d="M 102.789 98.9421 C 102.957 98.9421 103.124 98.9065 103.277 98.8384 C 103.431 98.7702 103.569 98.6696 103.681 98.5451 C 103.793 98.4205 103.879 98.2723 103.931 98.1129 C 103.982 97.9536 104 97.7833 103.983 97.6167 C 103.965 97.45 103.912 97.2872 103.829 97.1421 C 103.745 96.997 103.63 96.8698 103.495 96.7713 C 103.359 96.6728 103.203 96.6032 103.039 96.5683 C 102.875 96.5335 102.704 96.5335 102.54 96.5683 C 102.376 96.6032 102.22 96.6728 102.084 96.7713 C 101.949 96.8698 101.834 96.997 101.75 97.1421 C 101.666 97.2872 101.613 97.45 101.596 97.6167 C 101.578 97.7833 101.596 97.9536 101.648 98.1129 C 101.7 98.2723 101.786 98.4205 101.898 98.5451 C 102.01 98.6696 102.148 98.7702 102.301 98.8384 " />
</g>

<g opacity="1.000000" fill="#1f77b4" stroke-width="0.000000" id="id0000000046" >
<path id="id0000000126" d="M 93.4227 52.9716 C 93.5902 52.9716 93.7577 52.936 93.9108 52.8679 C 94.0638 52.7997 94.2023 52.6991 94.3144 52.5746 C 94.4266 52.4501 94.5122 52.3018 94.5639 52.1425 C 94.6157 51.9831 94.6336 51.8128 94.6161 51.6462 C 94.5986 51.4796 94.5457 51.3167 94.4619 51.1716 C 94.3781 51.0265 94.2636 50.8993 94.128 50.8008 C 93.9925 50.7023 93.8361 50.6327 93.6722 50.5979 C 93.5083 50.563 93.3371 50.563 93.1732 50.5979 C 93.0093 50.6327 92.8529 50.7023 92.7173 50.8008 C 92.5818 50.8993 92.4672 51.0265 92.3834 51.1716 C 92.2997 51.3167 92.2468 51.4796 92.2292 51.6462 C 92.2117 51.8128 92.2296 51.9831 92.2814 52.1425 C 92.3332 52.3018 92.4188 52.4501 92.5309 52.5746 C 92.643 52.6991 92.7815 52.7997 92.9346 52.8679 " />
</g>

<g opacity="1.000000" fill="#1f77b4" stroke-width="0.000000" id="id0000000048" >
<path id="id0000000127" d="M 144.072 11.6278 C 144.24 11.6278 144.407 11.5922 144.56 11.524 C 144.713 11.4559 144.852 11.3553 144.964 11.2307 C 145.076 11.1062 145.162 10.958 145.213 10.7986 C 145.265 10.6393 145.283 10.469 145.266 10.3024 C 145.248 10.1357 145.195 9.97289 145.111 9.82779 C 145.028 9.68268 144.913 9.55545 144.778 9.45697 C 144.642 9.35848 144.486 9.28885 144.322 9.25401 C 144.158 9.21917 143.987 9.21917 143.823 9.25401 C 143.659 9.28885 143.502 9.35848 143.367 9.45697 C 143.231 9.55545 143.117 9.68268 143.033 9.82779 C 142.949 9.97289 142.896 10.1357 142.879 10.3024 C 142.861 10.469 142.879 10.6393 142.931 10.7986 C 142.983 10.958 143.068 11.1062 143.18 11.2307 C 143.293 11.3553 143.431 11.4559 143.584 11.524 " />
</g>

<g opacity="1.000000" fill="#1f77b4" stroke-width="0.000000" id="id0000000050" >
<path id="id0000000128" d="M 114.392 65.1818 C 114.56 65.1818 114.727 65.1462 114.88 65.078 C 115.033 65.0099 115.172 64.9092 115.284 64.7847 C 115.396 64.6602 115.482 64.5119 115.533 64.3526 C 115.585 64.1932 115.603 64.023 115.585 63.8563 C 115.568 63.6897 115.515 63.5269 115.431 63.3818 C 115.347 63.2367 115.233 63.1094 115.097 63.0109 C 114.962 62.9125 114.805 62.8428 114.642 62.808 C 114.478 62.7731 114.306 62.7731 114.143 62.808 C 113.979 62.8428 113.822 62.9125 113.687 63.0109 C 113.551 63.1094 113.437 63.2367 113.353 63.3818 C 113.269 63.5269 113.216 63.6897 113.199 63.8563 C 113.181 64.023 113.199 64.1932 113.251 64.3526 C 113.303 64.5119 113.388 64.6602 113.5 64.7847 C 113.612 64.9092 113.751 65.0099 113.904 65.078 " />
</g>

<g opacity="1.000000" fill="#1f77b4" stroke-width="0.000000" id="id0000000052" >
<path id="id0000000129" d="M 76.6391 90.8694 C 76.8067 90.8694 76.9741 90.8338 77.1272 90.7657 C 77.2803 90.6975 77.4188 90.5969 77.5309 90.4724 C 77.643 90.3479 77.7286 90.1996 77.7804 90.0402 C 77.8322 89.8809 77.8501 89.7106 77.8325 89.544 C 77.815 89.3773 77.7621 89.2145 77.6783 89.0694 C 77.5946 88.9243 77.48 88.7971 77.3445 88.6986 C 77.2089 88.6001 77.0525 88.5305 76.8886 88.4956 C 76.7247 88.4608 76.5535 88.4608 76.3896 88.4956 C 76.2257 88.5305 76.0693 88.6001 75.9338 88.6986 C 75.7982 88.7971 75.6837 88.9243 75.5999 89.0694 C 75.5161 89.2145 75.4632 89.3773 75.4457 89.544 C 75.4282 89.7106 75.4461 89.8809 75.4978 90.0402 C 75.5496 90.1996 75.6352 90.3479 75.7473 90.4724 C 75.8595 90.5969 75.998 90.6975 76.151 90.7657 " />
</g>

<g opacity="1.000000" fill="#1f77b4" stroke-width="0.000000" id="id0000000054" >
<path id="id0000000130" d="M 118.946 67.2751 C 119.113 67.2751 119.281 67.2395 119.434 67.1714 C 119.587 67.1032 119.725 67.0026 119.837 66.8781 C 119.95 66.7536 120.035 66.6053 120.087 66.4459 C 120.139 66.2866 120.157 66.1163 120.139 65.9497 C 120.122 65.7831 120.069 65.6202 119.985 65.4751 C 119.901 65.33 119.787 65.2028 119.651 65.1043 C 119.515 65.0058 119.359 64.9362 119.195 64.9013 C 119.031 64.8665 118.86 64.8665 118.696 64.9013 C 118.532 64.9362 118.376 65.0058 118.24 65.1043 C 118.105 65.2028 117.99 65.33 117.906 65.4751 C 117.823 65.6202 117.77 65.7831 117.752 65.9497 C 117.735 66.1163 117.753 66.2866 117.804 66.4459 C 117.856 66.6053 117.942 66.7536 118.054 66.8781 C 118.166 67.0026 118.305 67.1032 118.458 67.1714 " />
</g>

<g opacity="1.000000" fill="#1f77b4" stroke-width="0.000000" id="id0000000056" >
<path id="id0000000131" d="M 188.917 84.1804 C 189.085 84.1804 189.252 84.1448 189.405 84.0767 C 189.558 84.0085 189.697 83.9079 189.809 83.7834 C 189.921 83.6589 190.007 83.5106 190.058 83.3512 C 190.11 83.1919 190.128 83.0216 190.111 82.855 C 190.093 82.6884 190.04 82.5255 189.956 82.3804 C 189.873 82.2353 189.758 82.1081 189.622 82.0096 C 189.487 81.9111 189.33 81.8415 189.167 81.8066 C 189.003 81.7718 188.831 81.7718 188.668 81.8066 C 188.504 81.8415 188.347 81.9111 188.212 82.0096 C 188.076 82.1081 187.962 82.2353 187.878 82.3804 C 187.794 82.5255 187.741 82.6884 187.724 82.855 C 187.706 83.0216 187.724 83.1919 187.776 83.3512 C 187.828 83.5106 187.913 83.6589 188.025 83.7834 C 188.137 83.9079 188.276 84.0085 188.429 84.0767 " />
</g>

<g opacity="1.000000" fill="#1f77b4" stroke-width="0.000000" id="id0000000058" >
<path id="id0000000132" d="M 110.644 81.0631 C 110.811 81.0631 110.979 81.0275 111.132 80.9594 C 111.285 80.8913 111.423 80.7906 111.535 80.6661 C 111.647 80.5416 111.733 80.3933 111.785 80.234 C 111.837 80.0746 111.855 79.9043 111.837 79.7377 C 111.819 79.5711 111.767 79.4082 111.683 79.2631 C 111.599 79.118 111.484 78.9908 111.349 78.8923 C 111.213 78.7938 111.057 78.7242 110.893 78.6894 C 110.729 78.6545 110.558 78.6545 110.394 78.6894 C 110.23 78.7242 110.074 78.7938 109.938 78.8923 C 109.803 78.9908 109.688 79.118 109.604 79.2631 C 109.521 79.4082 109.468 79.5711 109.45 79.7377 C 109.433 79.9043 109.451 80.0746 109.502 80.234 C 109.554 80.3933 109.64 80.5416 109.752 80.6661 C 109.864 80.7906 110.002 80.8913 110.155 80.9594 " />
</g>

<g opacity="1.000000" fill="#1f77b4" stroke-width="0.000000" id="id0000000060" >
<path id="id0000000133" d="M 37.5962 17.4946 C 37.7637 17.4946 37.9312 17.459 38.0843 17.3909 C 38.2373 17.3227 38.3758 17.2221 38.4879 17.0976 C 38.6001 16.9731 38.6857 16.8248 38.7374 16.6654 C 38.7892 16.5061 38.8071 16.3358 38.7896 16.1692 C 38.7721 16.0026 38.7192 15.8397 38.6354 15.6946 C 38.5516 15.5495 38.4371 15.4223 38.3015 15.3238 C 38.166 15.2253 38.0096 15.1557 37.8457 15.1208 C 37.6818 15.086 37.5106 15.086 37.3467 15.1208 C 37.1828 15.1557 37.0264 15.2253 36.8908 15.3238 C 36.7553 15.4223 36.6407 15.5495 36.5569 15.6946 C 36.4732 15.8397 36.4203 16.0026 36.4027 16.1692 C 36.3852 16.3358 36.4031 16.5061 36.4549 16.6654 C 36.5067 16.8248 36.5923 16.9731 36.7044 17.0976 C 36.8165 17.2221 36.955 17.3227 37.1081 17.3909 " />
</g>

<g opacity="1.000000" fill="#1f77b4" stroke-width="0.000000" id="id0000000062" >
<path id="id0000000134" d="M 93.4081 43.9929 C 93.5756 43.9929 93.7431 43.9573 93.8962 43.8891 C 94.0492 43.821 94.1877 43.7203 94.2999 43.5958 C 94.412 43.4713 94.4976 43.323 94.5493 43.1637 C 94.6011 43.0043 94.619 42.8341 94.6015 42.6674 C 94.584 42.5008 94.5311 42.338 94.4473 42.1929 C 94.3635 42.0478 94.249 41.9205 94.1134 41.822 C 93.9779 41.7236 93.8215 41.6539 93.6576 41.6191 C 93.4937 41.5843 93.3225 41.5843 93.1586 41.6191 C 92.9947 41.6539 92.8383 41.7236 92.7027 41.822 C 92.5672 41.9205 92.4526 42.0478 92.3689 42.1929 C 92.2851 42.338 92.2322 42.5008 92.2147 42.6674 C 92.1971 42.8341 92.215 43.0043 92.2668 43.1637 C 92.3186 43.323 92.4042 43.4713 92.5163 43.5958 C 92.6284 43.7203 92.7669 43.821 92.92 43.8891 " />
</g>

<g opacity="1.000000" fill="#1f77b4" stroke-width="0.000000" id="id0000000064" >
<path id="id0000000135" d="M 159.858 53.3148 C 160.025 53.3148 160.193 53.2792 160.346 53.211 C 160.499 53.1429 160.637 53.0422 160.749 52.9177 C 160.861 52.7932 160.947 52.6449 160.999 52.4856 C 161.051 52.3262 161.068 52.156 161.051 51.9893 C 161.033 51.8227 160.981 51.6599 160.897 51.5148 C 160.813 51.3697 160.698 51.2424 160.563 51.1439 C 160.427 51.0455 160.271 50.9758 160.107 50.941 C 159.943 50.9062 159.772 50.9062 159.608 50.941 C 159.444 50.9758 159.288 51.0455 159.152 51.1439 C 159.017 51.2424 158.902 51.3697 158.818 51.5148 C 158.735 51.6599 158.682 51.8227 158.664 51.9893 C 158.647 52.156 158.665 52.3262 158.716 52.4856 C 158.768 52.6449 158.854 52.7932 158.966 52.9177 C 159.078 53.0422 159.216 53.1429 159.369 53.211 " />
</g>

<g opacity="1.000000" fill="#1f77b4" stroke-width="0.000000" id="id0000000066" >
<path id="id0000000136" d="M 128.683 124.688 C 128.851 124.688 129.018 124.652 129.171 124.584 C 129.324 124.516 129.463 124.416 129.575 124.291 C 129.687 124.167 129.773 124.018 129.824 123.859 C 129.876 123.7 129.894 123.529 129.877 123.363 C 129.859 123.196 129.806 123.033 129.722 122.888 C 129.639 122.743 129.524 122.616 129.389 122.517 C 129.253 122.419 129.097 122.349 128.933 122.314 C 128.769 122.279 128.598 122.279 128.434 122.314 C 128.27 122.349 128.113 122.419 127.978 122.517 C 127.842 122.616 127.728 122.743 127.644 122.888 C 127.56 123.033 127.507 123.196 127.49 123.363 C 127.472 123.529 127.49 123.7 127.542 123.859 C 127.594 124.018 127.679 124.167 127.791 124.291 C 127.904 124.416 128.042 124.516 128.195 124.584 " />
</g>

<g opacity="1.000000" fill="#1f77b4" stroke-width="0.000000" id="id0000000068" >
<path id="id0000000137" d="M 75.5831 59.0398 C 75.7507 59.0398 75.9181 59.0042 76.0712 58.9361 C 76.2243 58.8679 76.3628 58.7673 76.4749 58.6428 C 76.587 58.5183 76.6726 58.37 76.7244 58.2106 C 76.7762 58.0513 76.7941 57.881 76.7766 57.7144 C 76.759 57.5478 76.7061 57.3849 76.6224 57.2398 C 76.5386 57.0947 76.424 56.9675 76.2885 56.869 C 76.1529 56.7705 75.9965 56.7009 75.8326 56.666 C 75.6687 56.6312 75.4975 56.6312 75.3336 56.666 C 75.1697 56.7009 75.0133 56.7705 74.8778 56.869 C 74.7422 56.9675 74.6277 57.0947 74.5439 57.2398 C 74.4601 57.3849 74.4072 57.5478 74.3897 57.7144 C 74.3722 57.881 74.3901 58.0513 74.4419 58.2106 C 74.4936 58.37 74.5792 58.5183 74.6914 58.6428 C 74.8035 58.7673 74.942 58.8679 75.095 58.9361 " />
</g>

<g opacity="1.000000" fill="#1f77b4" stroke-width="0.000000" id="id0000000070" >
<path id="id0000000138" d="M 130.514 29.3139 C 130.682 29.3139 130.849 29.2783 131.002 29.2102 C 131.155 29.142 131.294 29.0414 131.406 28.9169 C 131.518 28.7924 131.604 28.6441 131.656 28.4848 C 131.707 28.3254 131.725 28.1551 131.708 27.9885 C 131.69 27.8219 131.637 27.659 131.553 27.5139 C 131.47 27.3688 131.355 27.2416 131.22 27.1431 C 131.084 27.0446 130.928 26.975 130.764 26.9402 C 130.6 26.9053 130.429 26.9053 130.265 26.9402 C 130.101 26.975 129.944 27.0446 129.809 27.1431 C 129.673 27.2416 129.559 27.3688 129.475 27.5139 C 129.391 27.659 129.338 27.8219 129.321 27.9885 C 129.303 28.1551 129.321 28.3254 129.373 28.4848 C 129.425 28.6441 129.51 28.7924 129.622 28.9169 C 129.735 29.0414 129.873 29.142 130.026 29.2102 " />
</g>

<g opacity="1.000000" fill="#1f77b4" stroke-width="0.000000" id="id0000000072" >
<path id="id0000000139" d="M 136.085 88.807 C 136.252 88.807 136.42 88.7714 136.573 88.7033 C 136.726 88.6351 136.865 88.5345 136.977 88.41 C 137.089 88.2855 137.174 88.1372 137.226 87.9778 C 137.278 87.8185 137.296 87.6482 137.278 87.4816 C 137.261 87.315 137.208 87.1521 137.124 87.007 C 137.04 86.8619 136.926 86.7347 136.79 86.6362 C 136.655 86.5377 136.498 86.4681 136.334 86.4333 C 136.17 86.3984 135.999 86.3984 135.835 86.4333 C 135.671 86.4681 135.515 86.5377 135.38 86.6362 C 135.244 86.7347 135.129 86.8619 135.046 87.007 C 134.962 87.1521 134.909 87.315 134.891 87.4816 C 134.874 87.6482 134.892 87.8185 134.944 87.9778 C 134.995 88.1372 135.081 88.2855 135.193 88.41 C 135.305 88.5345 135.444 88.6351 135.597 88.7033 " />
</g>

<g opacity="1.000000" fill="#1f77b4" stroke-width="0.000000" id="id0000000074" >
<path id="id0000000140" d="M 137.085 89.8526 C 137.253 89.8526 137.42 89.817 137.574 89.7489 C 137.727 89.6807 137.865 89.5801 137.977 89.4556 C 138.089 89.3311 138.175 89.1828 138.227 89.0235 C 138.278 88.8641 138.296 88.6938 138.279 88.5272 C 138.261 88.3606 138.208 88.1977 138.125 88.0526 C 138.041 87.9075 137.926 87.7803 137.791 87.6818 C 137.655 87.5833 137.499 87.5137 137.335 87.4789 C 137.171 87.444 137 87.444 136.836 87.4789 C 136.672 87.5137 136.516 87.5833 136.38 87.6818 C 136.245 87.7803 136.13 87.9075 136.046 88.0526 C 135.962 88.1977 135.91 88.3606 135.892 88.5272 C 135.874 88.6938 135.892 88.8641 135.944 89.0235 C 135.996 89.1828 136.082 89.3311 136.194 89.4556 C 136.306 89.5801 136.444 89.6807 136.597 89.7489 " />
</g>

<g opacity="1.000000" fill="#1f77b4" stroke-width="0.000000" id="id0000000076" >
<path id="id0000000141" d="M 78.2869 68.7637 C 78.4544 68.7637 78.6219 68.7281 78.775 68.66 C 78.928 68.5919 79.0665 68.4912 79.1787 68.3667 C 79.2908 68.2422 79.3764 68.0939 79.4281 67.9346 C 79.4799 67.7752 79.4978 67.6049 79.4803 67.4383 C 79.4628 67.2717 79.4099 67.1088 79.3261 66.9637 C 79.2423 66.8186 79.1278 66.6914 78.9922 66.5929 C 78.8567 66.4944 78.7003 66.4248 78.5364 66.39 C 78.3725 66.3551 78.2013 66.3551 78.0374 66.39 C 77.8735 66.4248 77.7171 66.4944 77.5815 66.5929 C 77.446 66.6914 77.3314 66.8186 77.2477 66.9637 C 77.1639 67.1088 77.111 67.2717 77.0935 67.4383 C 77.0759 67.6049 77.0938 67.7752 77.1456 67.9346 C 77.1974 68.0939 77.283 68.2422 77.3951 68.3667 C 77.5072 68.4912 77.6457 68.5919 77.7988 68.66 " />
</g>

<g opacity="1.000000" fill="#1f77b4" stroke-width="0.000000" id="id0000000078" >
<path id="id0000000142" d="M 115.364 73.5531 C 115.532 73.5531 115.699 73.5176 115.852 73.4494 C 116.005 73.3813 116.144 73.2806 116.256 73.1561 C 116.368 73.0316 116.454 72.8833 116.505 72.724 C 116.557 72.5646 116.575 72.3943 116.558 72.2277 C 116.54 72.0611 116.487 71.8983 116.403 71.7532 C 116.32 71.608 116.205 71.4808 116.07 71.3823 C 115.934 71.2838 115.778 71.2142 115.614 71.1794 C 115.45 71.1445 115.279 71.1445 115.115 71.1794 C 114.951 71.2142 114.794 71.2838 114.659 71.3823 C 114.523 71.4808 114.409 71.608 114.325 71.7532 C 114.241 71.8983 114.188 72.0611 114.171 72.2277 C 114.153 72.3943 114.171 72.5646 114.223 72.724 C 114.275 72.8833 114.36 73.0316 114.472 73.1561 C 114.585 73.2806 114.723 73.3813 114.876 73.4494 " />
</g>

<g opacity="1.000000" fill="#1f77b4" stroke-width="0.000000" id="id0000000080" >
<path id="id0000000143" d="M 138.93 86.6006 C 139.098 86.6006 139.265 86.565 139.418 86.4968 C 139.571 86.4287 139.71 86.328 139.822 86.2035 C 139.934 86.079 140.02 85.9307 140.071 85.7714 C 140.123 85.612 140.141 85.4418 140.124 85.2751 C 140.106 85.1085 140.053 84.9457 139.969 84.8006 C 139.886 84.6555 139.771 84.5282 139.635 84.4297 C 139.5 84.3313 139.343 84.2616 139.18 84.2268 C 139.016 84.192 138.844 84.192 138.681 84.2268 C 138.517 84.2616 138.36 84.3313 138.225 84.4297 C 138.089 84.5282 137.975 84.6555 137.891 84.8006 C 137.807 84.9457 137.754 85.1085 137.737 85.2751 C 137.719 85.4418 137.737 85.612 137.789 85.7714 C 137.841 85.9307 137.926 86.079 138.038 86.2035 C 138.15 86.328 138.289 86.4287 138.442 86.4968 " />
</g>

<g opacity="1.000000" fill="#1f77b4" stroke-width="0.000000" id="id0000000082" >
<path id="id0000000144" d="M 79.8735 39.0482 C 80.041 39.0482 80.2085 39.0126 80.3615 38.9445 C 80.5146 38.8763 80.6531 38.7757 80.7652 38.6512 C 80.8774 38.5266 80.963 38.3784 81.0147 38.219 C 81.0665 38.0597 81.0844 37.8894 81.0669 37.7228 C 81.0494 37.5561 80.9965 37.3933 80.9127 37.2482 C 80.8289 37.1031 80.7144 36.9759 80.5788 36.8774 C 80.4433 36.7789 80.2868 36.7093 80.123 36.6744 C 79.9591 36.6396 79.7879 36.6396 79.624 36.6744 C 79.4601 36.7093 79.3037 36.7789 79.1681 36.8774 C 79.0326 36.9759 78.918 37.1031 78.8342 37.2482 C 78.7505 37.3933 78.6976 37.5561 78.68 37.7228 C 78.6625 37.8894 78.6804 38.0597 78.7322 38.219 C 78.784 38.3784 78.8696 38.5266 78.9817 38.6512 C 79.0938 38.7757 79.2323 38.8763 79.3854 38.9445 " />
</g>

<g opacity="1.000000" fill="#1f77b4" stroke-width="0.000000" id="id0000000084" >
<path id="id0000000145" d="M 85.184 55.9444 C 85.3515 55.9444 85.519 55.9088 85.6721 55.8407 C 85.8251 55.7725 85.9636 55.6719 86.0758 55.5474 C 86.1879 55.4229 86.2735 55.2746 86.3252 55.1153 C 86.377 54.9559 86.3949 54.7856 86.3774 54.619 C 86.3599 54.4524 86.307 54.2895 86.2232 54.1444 C 86.1394 53.9993 86.0249 53.8721 85.8893 53.7736 C 85.7538 53.6751 85.5974 53.6055 85.4335 53.5707 C 85.2696 53.5358 85.0984 53.5358 84.9345 53.5707 C 84.7706 53.6055 84.6142 53.6751 84.4786 53.7736 C 84.3431 53.8721 84.2285 53.9993 84.1447 54.1444 C 84.061 54.2895 84.0081 54.4524 83.9905 54.619 C 83.973 54.7856 83.9909 54.9559 84.0427 55.1153 C 84.0945 55.2746 84.1801 55.4229 84.2922 55.5474 C 84.4043 55.6719 84.5428 55.7725 84.6959 55.8407 " />
</g>

<g opacity="1.000000" fill="#1f77b4" stroke-width="0.000000" id="id0000000086" >
<path id="id0000000146" d="M 96.7294 67.9756 C 96.8969 67.9756 97.0644 67.94 97.2174 67.8719 C 97.3705 67.8037 97.509 67.7031 97.6211 67.5786 C 97.7332 67.4541 97.8188 67.3058 97.8706 67.1465 C 97.9224 66.9871 97.9403 66.8168 97.9228 66.6502 C 97.9053 66.4836 97.8524 66.3207 97.7686 66.1756 C 97.6848 66.0305 97.5703 65.9033 97.4347 65.8048 C 97.2991 65.7063 97.1427 65.6367 96.9789 65.6019 C 96.815 65.567 96.6438 65.567 96.4799 65.6019 C 96.316 65.6367 96.1596 65.7063 96.024 65.8048 C 95.8885 65.9033 95.7739 66.0305 95.6901 66.1756 C 95.6063 66.3207 95.5534 66.4836 95.5359 66.6502 C 95.5184 66.8168 95.5363 66.9871 95.5881 67.1465 C 95.6399 67.3058 95.7255 67.4541 95.8376 67.5786 C 95.9497 67.7031 96.0882 67.8037 96.2413 67.8719 " />
</g>

<g opacity="1.000000" fill="#1f77b4" stroke-width="0.000000" id="id0000000088" >
<path id="id0000000147" d="M 93.5746 15.0532 C 93.7421 15.0532 93.9096 15.0176 94.0627 14.9495 C 94.2158 14.8813 94.3543 14.7807 94.4664 14.6562 C 94.5785 14.5317 94.6641 14.3834 94.7159 14.2241 C 94.7676 14.0647 94.7855 13.8944 94.768 13.7278 C 94.7505 13.5612 94.6976 13.3983 94.6138 13.2532 C 94.5301 13.1081 94.4155 12.9809 94.2799 12.8824 C 94.1444 12.7839 93.988 12.7143 93.8241 12.6795 C 93.6602 12.6446 93.489 12.6446 93.3251 12.6795 C 93.1612 12.7143 93.0048 12.7839 92.8693 12.8824 C 92.7337 12.9809 92.6191 13.1081 92.5354 13.2532 C 92.4516 13.3983 92.3987 13.5612 92.3812 13.7278 C 92.3637 13.8944 92.3816 14.0647 92.4333 14.2241 C 92.4851 14.3834 92.5707 14.5317 92.6828 14.6562 C 92.7949 14.7807 92.9334 14.8813 93.0865 14.9495 " />
</g>

<g opacity="1.000000" fill="#1f77b4" stroke-width="0.000000" id="id0000000090" >
<path id="id0000000148" d="M 95.3924 22.7781 C 95.56 22.7781 95.7274 22.7425 95.8805 22.6744 C 96.0336 22.6062 96.1721 22.5056 96.2842 22.3811 C 96.3963 22.2565 96.4819 22.1083 96.5337 21.9489 C 96.5855 21.7896 96.6033 21.6193 96.5858 21.4527 C 96.5683 21.286 96.5154 21.1232 96.4316 20.9781 C 96.3479 20.833 96.2333 20.7058 96.0978 20.6073 C 95.9622 20.5088 95.8058 20.4392 95.6419 20.4043 C 95.478 20.3695 95.3068 20.3695 95.1429 20.4043 C 94.979 20.4392 94.8226 20.5088 94.6871 20.6073 C 94.5515 20.7058 94.437 20.833 94.3532 20.9781 C 94.2694 21.1232 94.2165 21.286 94.199 21.4527 C 94.1815 21.6193 94.1994 21.7896 94.2511 21.9489 C 94.3029 22.1083 94.3885 22.2565 94.5006 22.3811 C 94.6127 22.5056 94.7513 22.6062 94.9043 22.6744 " />
</g>

<g opacity="1.000000" fill="#1f77b4" stroke-width="0.000000" id="id0000000092" >
<path id="id0000000149" d="M 122.27 84.0248 C 122.437 84.0248 122.605 83.9893 122.758 83.9211 C 122.911 83.853 123.049 83.7523 123.161 83.6278 C 123.273 83.5033 123.359 83.355 123.411 83.1957 C 123.463 83.0363 123.48 82.8661 123.463 82.6994 C 123.445 82.5328 123.393 82.37 123.309 82.2249 C 123.225 82.0798 123.11 81.9525 122.975 81.854 C 122.839 81.7555 122.683 81.6859 122.519 81.6511 C 122.355 81.6162 122.184 81.6162 122.02 81.6511 C 121.856 81.6859 121.7 81.7555 121.564 81.854 C 121.429 81.9525 121.314 82.0798 121.23 82.2249 C 121.147 82.37 121.094 82.5328 121.076 82.6994 C 121.059 82.8661 121.076 83.0363 121.128 83.1957 C 121.18 83.355 121.266 83.5033 121.378 83.6278 C 121.49 83.7523 121.628 83.853 121.781 83.9211 " />
</g>

<g opacity="1.000000" fill="#1f77b4" stroke-width="0.000000" id="id0000000094" >
<path id="id0000000150" d="M 79.5797 66.0387 C 79.7473 66.0387 79.9147 66.0031 80.0678 65.9349 C 80.2209 65.8668 80.3594 65.7661 80.4715 65.6416 C 80.5836 65.5171 80.6692 65.3688 80.721 65.2095 C 80.7728 65.0501 80.7906 64.8799 80.7731 64.7132 C 80.7556 64.5466 80.7027 64.3838 80.6189 64.2387 C 80.5352 64.0936 80.4206 63.9663 80.2851 63.8678 C 80.1495 63.7694 79.9931 63.6997 79.8292 63.6649 C 79.6653 63.63 79.4941 63.63 79.3302 63.6649 C 79.1663 63.6997 79.0099 63.7694 78.8744 63.8678 C 78.7388 63.9663 78.6243 64.0936 78.5405 64.2387 C 78.4567 64.3838 78.4038 64.5466 78.3863 64.7132 C 78.3688 64.8799 78.3867 65.0501 78.4384 65.2095 C 78.4902 65.3688 78.5758 65.5171 78.6879 65.6416 C 78.8 65.7661 78.9386 65.8668 79.0916 65.9349 " />
</g>

<g opacity="1.000000" fill="#1f77b4" stroke-width="0.000000" id="id0000000096" >
<path id="id0000000151" d="M 148.41 74.2181 C 148.577 74.2181 148.745 74.1825 148.898 74.1144 C 149.051 74.0462 149.189 73.9456 149.301 73.8211 C 149.413 73.6966 149.499 73.5483 149.551 73.3889 C 149.603 73.2296 149.62 73.0593 149.603 72.8927 C 149.585 72.7261 149.533 72.5632 149.449 72.4181 C 149.365 72.273 149.25 72.1458 149.115 72.0473 C 148.979 71.9488 148.823 71.8792 148.659 71.8443 C 148.495 71.8095 148.324 71.8095 148.16 71.8443 C 147.996 71.8792 147.84 71.9488 147.704 72.0473 C 147.569 72.1458 147.454 72.273 147.37 72.4181 C 147.287 72.5632 147.234 72.7261 147.216 72.8927 C 147.199 73.0593 147.217 73.2296 147.268 73.3889 C 147.32 73.5483 147.406 73.6966 147.518 73.8211 C 147.63 73.9456 147.768 74.0462 147.921 74.1144 " />
</g>

<g opacity="1.000000" fill="#1f77b4" stroke-width="0.000000" id="id0000000098" >
<path id="id0000000152" d="M 96.379 108.684 C 96.5466 108.684 96.714 108.648 96.8671 108.58 C 97.0202 108.512 97.1587 108.411 97.2708 108.287 C 97.3829 108.162 97.4685 108.014 97.5203 107.855 C 97.5721 107.695 97.59 107.525 97.5724 107.359 C 97.5549 107.192 97.502 107.029 97.4182 106.884 C 97.3345 106.739 97.2199 106.612 97.0844 106.513 C 96.9488 106.415 96.7924 106.345 96.6285 106.31 C 96.4646 106.275 96.2934 106.275 96.1295 106.31 C 95.9656 106.345 95.8092 106.415 95.6737 106.513 C 95.5381 106.612 95.4236 106.739 95.3398 106.884 C 95.256 107.029 95.2031 107.192 95.1856 107.359 C 95.1681 107.525 95.186 107.695 95.2377 107.855 C 95.2895 108.014 95.3751 108.162 95.4872 108.287 C 95.5993 108.411 95.7379 108.512 95.8909 108.58 " />
</g>

<g opacity="1.000000" fill="#1f77b4" stroke-width="0.000000" id="id0000000100" >
<path id="id0000000153" d="M 102.233 114.432 C 102.401 114.432 102.568 114.396 102.721 114.328 C 102.874 114.26 103.013 114.159 103.125 114.035 C 103.237 113.91 103.323 113.762 103.374 113.603 C 103.426 113.443 103.444 113.273 103.427 113.107 C 103.409 112.94 103.356 112.777 103.272 112.632 C 103.189 112.487 103.074 112.36 102.939 112.261 C 102.803 112.163 102.647 112.093 102.483 112.058 C 102.319 112.023 102.148 112.023 101.984 112.058 C 101.82 112.093 101.663 112.163 101.528 112.261 C 101.392 112.36 101.278 112.487 101.194 112.632 C 101.11 112.777 101.057 112.94 101.04 113.107 C 101.022 113.273 101.04 113.443 101.092 113.603 C 101.144 113.762 101.229 113.91 101.341 114.035 C 101.454 114.159 101.592 114.26 101.745 114.328 " />
</g>

<g opacity="1.000000" fill="#1f77b4" stroke-width="0.000000" id="id0000000102" >
<path id="id0000000154" d="M 64.2658 66.4875 C 64.4333 66.4875 64.6008 66.452 64.7539 66.3838 C 64.9069 66.3157 65.0454 66.215 65.1576 66.0905 C 65.2697 65.966 65.3553 65.8177 65.4071 65.6584 C 65.4588 65.499 65.4767 65.3288 65.4592 65.1621 C 65.4417 64.9955 65.3888 64.8327 65.305 64.6876 C 65.2212 64.5424 65.1067 64.4152 64.9711 64.3167 C 64.8356 64.2182 64.6792 64.1486 64.5153 64.1138 C 64.3514 64.0789 64.1802 64.0789 64.0163 64.1138 C 63.8524 64.1486 63.696 64.2182 63.5604 64.3167 C 63.4249 64.4152 63.3103 64.5424 63.2266 64.6876 C 63.1428 64.8327 63.0899 64.9955 63.0724 65.1621 C 63.0548 65.3288 63.0727 65.499 63.1245 65.6584 C 63.1763 65.8177 63.2619 65.966 63.374 66.0905 C 63.4861 66.215 63.6246 66.3157 63.7777 66.3838 " />
</g>

<g opacity="1.000000" fill="#1f77b4" stroke-width="0.000000" id="id0000000104" >
<path id="id0000000155" d="M 75.947 75.4491 C 76.1145 75.4491 76.282 75.4135 76.435 75.3453 C 76.5881 75.2772 76.7266 75.1765 76.8387 75.052 C 76.9509 74.9275 77.0365 74.7792 77.0882 74.6199 C 77.14 74.4605 77.1579 74.2903 77.1404 74.1236 C 77.1229 73.957 77.07 73.7942 76.9862 73.6491 C 76.9024 73.504 76.7879 73.3767 76.6523 73.2782 C 76.5168 73.1797 76.3603 73.1101 76.1965 73.0753 C 76.0326 73.0404 75.8614 73.0404 75.6975 73.0753 C 75.5336 73.1101 75.3772 73.1797 75.2416 73.2782 C 75.1061 73.3767 74.9915 73.504 74.9077 73.6491 C 74.824 73.7942 74.771 73.957 74.7535 74.1236 C 74.736 74.2903 74.7539 74.4605 74.8057 74.6199 C 74.8575 74.7792 74.9431 74.9275 75.0552 75.052 C 75.1673 75.1765 75.3058 75.2772 75.4589 75.3453 " />
</g>

</g>

</g>

<polygon points="30,5 30,130 195,130 195,5 " stroke="black" stroke-width="1.000000" fill="none" id="id0000000156" pointer-events="none" class="rectangle" />
<polyline points="44.3451,130 44.3451,133 " fill="none" stroke-width="1.000000" stroke="black" id="id0000000157" class="line" />
<text id="id0000000158" transform="matrix(1 0 0 1 30 5)" x="14.345104" y="130.000000" dominant-baseline="hanging" text-anchor="middle" font-size="10.000000px" >
-4
</text>

<polyline points="72.6103,130 72.6103,133 " fill="none" stroke-width="1.000000" stroke="black" id="id0000000159" class="line" />
<text id="id0000000160" transform="matrix(1 0 0 1 30 5)" x="42.610340" y="130.000000" dominant-baseline="hanging" text-anchor="middle" font-size="10.000000px" >
-2
</text>

<polyline points="100.876,130 100.876,133 " fill="none" stroke-width="1.000000" stroke="black" id="id0000000161" class="line" />
<text id="id0000000162" transform="matrix(1 0 0 1 30 5)" x="70.875572" y="130.000000" dominant-baseline="hanging" text-anchor="middle" font-size="10.000000px" >
0
</text>

<polyline points="129.141,130 129.141,133 " fill="none" stroke-width="1.000000" stroke="black" id="id0000000163" class="line" />
<text id="id0000000164" transform="matrix(1 0 0 1 30 5)" x="99.140816" y="130.000000" dominant-baseline="hanging" text-anchor="middle" font-size="10.000000px" >
2
</text>

<polyline points="157.406,130 157.406,133 " fill="none" stroke-width="1.000000" stroke="black" id="id0000000165" class="line" />
<text id="id0000000166" transform="matrix(1 0 0 1 30 5)" x="127.406052" y="130.000000" dominant-baseline="hanging" text-anchor="middle" font-size="10.000000px" >
4
</text>

<polyline points="185.671,130 185.671,133 " fill="none" stroke-width="1.000000" stroke="black" id="id0000000167" class="line" />
<text id="id0000000168" transform="matrix(1 0 0 1 30 5)" x="155.671280" y="130.000000" dominant-baseline="hanging" text-anchor="middle" font-size="10.000000px" >
6
</text>

<polyline points="27,125.756 30,125.756 " fill="none" stroke-width="1.000000" stroke="black" id="id0000000169" class="line" />
<text id="id0000000170" transform="matrix(1 0 0 1 30 5)" x="-5.000000" y="120.755768" dominant-baseline="middle" text-anchor="end" font-size="10.000000px" >
-4
</text>

<polyline points="27,111.182 30,111.182 " fill="none" stroke-width="1.000000" stroke="black" id="id0000000171" class="line" />
<text id="id0000000172" transform="matrix(1 0 0 1 30 5)" x="-5.000000" y="106.181923" dominant-baseline="middle" text-anchor="end" font-size="10.000000px" >
-3
</text>

<polyline points="27,96.6081 30,96.6081 " fill="none" stroke-width="1.000000" stroke="black" id="id0000000173" class="line" />
<text id="id0000000174" transform="matrix(1 0 0 1 30 5)" x="-5.000000" y="91.608078" dominant-baseline="middle" text-anchor="end" font-size="10.000000px" >
-2
</text>

<polyline points="27,82.0342 30,82.0342 " fill="none" stroke-width="1.000000" stroke="black" id="id0000000175" class="line" />
<text id="id0000000176" transform="matrix(1 0 0 1 30 5)" x="-5.000000" y="77.034233" dominant-baseline="middle" text-anchor="end" font-size="10.000000px" >
-1
</text>

<polyline points="27,67.4604 30,67.4604 " fill="none" stroke-width="1.000000" stroke="black" id="id0000000177" class="line" />
<text id="id0000000178" transform="matrix(1 0 0 1 30 5)" x="-5.000000" y="62.460388" dominant-baseline="middle" text-anchor="end" font-size="10.000000px" >
0
</text>

<polyline points="27,52.8865 30,52.8865 " fill="none" stroke-width="1.000000" stroke="black" id="id0000000179" class="line" />
<text id="id0000000180" transform="matrix(1 0 0 1 30 5)" x="-5.000000" y="47.886543" dominant-baseline="middle" text-anchor="end" font-size="10.000000px" >
1
</text>

<polyline points="27,38.3127 30,38.3127 " fill="none" stroke-width="1.000000" stroke="black" id="id0000000181" class="line" />
<text id="id0000000182" transform="matrix(1 0 0 1 30 5)" x="-5.000000" y="33.312698" dominant-baseline="middle" text-anchor="end" font-size="10.000000px" >
2
</text>

<polyline points="27,23.7389 30,23.7389 " fill="none" stroke-width="1.000000" stroke="black" id="id0000000183" class="line" />
<text id="id0000000184" transform="matrix(1 0 0 1 30 5)" x="-5.000000" y="18.738853" dominant-baseline="middle" text-anchor="end" font-size="10.000000px" >
3
</text>

<polyline points="27,9.16501 30,9.16501 " fill="none" stroke-width="1.000000" stroke="black" id="id0000000185" class="line" />
<text id="id0000000186" transform="matrix(1 0 0 1 30 5)" x="-5.000000" y="4.165009" dominant-baseline="middle" text-anchor="end" font-size="10.000000px" >
4
</text>


</g>

</svg>
