<svg viewBox="0 0 32.855 18.4016" height="100%" width="100%" xmlns:xlink="http://www.w3.org/1999/xlink" xmlns="http://www.w3.org/2000/svg" id="id0000000636" >
<g id="id0000000637" >
<g id="id0000000638" >
<g id="id0000000639" >
<clipPath id="id0000000639clipper" >
<polygon points="2.3025,5.1608 2.3025,8.1608 5.3025,8.1608 5.3025,5.1608 " id="id0000000686" class="rectangle" />
</clipPath>

<g clip-path="url(#id0000000639clipper)" id="id0000000641" >
<g id="id0000000687" >
<g opacity="1.000000" fill="#1f77b4" stroke-width="0.000000" id="id0000000688" >
<path id="id0000000690" d="M 3.8025 8.6608 C 4.4009 8.6608 4.99307 8.37563 5.36616 7.90778 C 5.73926 7.43993 5.88551 6.79915 5.75236 6.21576 C 5.6192 5.63236 5.20941 5.1185 4.67027 4.85886 C 4.13113 4.59923 3.47387 4.59923 2.93473 4.85886 C 2.39559 5.1185 1.9858 5.63236 1.85264 6.21576 C 1.71949 6.79915 1.86574 7.43993 2.23884 7.90778 C 2.61193 8.37563 3.2041 8.6608 3.8025 8.6608 " />
</g>

</g>

</g>

<polygon points="2.3025,5.1608 2.3025,8.1608 5.3025,8.1608 5.3025,5.1608 " stroke="black" stroke-width="0.010000" fill="none" id="id0000000691" pointer-events="none" class="rectangle" />
<text id="id0000000692" transform="matrix(1 0 0 1 2.3025 5.1608)" x="1.500000" y="-1.000000" text-anchor="middle" font-size="2.000000px" >
'o'
</text>

</g>

</g>

<g id="id0000000642" >
<g id="id0000000643" >
<clipPath id="id0000000643clipper" >
<polygon points="7.35292,5.1608 7.35292,8.1608 10.3529,8.1608 10.3529,5.1608 " id="id0000000693" class="rectangle" />
</clipPath>

<g clip-path="url(#id0000000643clipper)" id="id0000000645" >
<g id="id0000000694" >
<g opacity="1.000000" fill="#1f77b4" stroke-width="0.000000" id="id0000000695" >
<path id="id0000000697" d="M 8.85292 7.6608 C 9.15212 7.6608 9.4482 7.51821 9.63475 7.28429 C 9.8213 7.05037 9.89442 6.72998 9.82784 6.43828 C 9.76127 6.14658 9.55637 5.88965 9.2868 5.75983 C 9.01723 5.63001 8.6886 5.63001 8.41903 5.75983 C 8.14946 5.88965 7.94457 6.14658 7.87799 6.43828 C 7.81141 6.72998 7.88454 7.05037 8.07108 7.28429 C 8.25763 7.51821 8.55372 7.6608 8.85292 7.6608 " />
</g>

</g>

</g>

<polygon points="7.35292,5.1608 7.35292,8.1608 10.3529,8.1608 10.3529,5.1608 " stroke="black" stroke-width="0.010000" fill="none" id="id0000000698" pointer-events="none" class="rectangle" />
<text id="id0000000699" transform="matrix(1 0 0 1 7.35292 5.1608)" x="1.500000" y="-1.000000" text-anchor="middle" font-size="2.000000px" >
'.'
</text>

</g>

</g>

<g id="id0000000646" >
<g id="id0000000647" >
<clipPath id="id0000000647clipper" >
<polygon points="12.4033,5.1608 12.4033,8.1608 15.4033,8.1608 15.4033,5.1608 " id="id0000000700" class="rectangle" />
</clipPath>

<g clip-path="url(#id0000000647clipper)" id="id0000000649" >
<g id="id0000000701" >
<g opacity="1.000000" fill="#1f77b4" stroke-width="0.000000" id="id0000000702" >
<path id="id0000000704" d="M 13.9033 7.2608 C 14.0829 7.2608 14.2605 7.17525 14.3724 7.03489 C 14.4844 6.89454 14.5282 6.70231 14.4883 6.52729 C 14.4483 6.35227 14.3254 6.19811 14.1637 6.12022 C 14.0019 6.04233 13.8047 6.04233 13.643 6.12022 C 13.4813 6.19811 13.3583 6.35227 13.3184 6.52729 C 13.2784 6.70231 13.3223 6.89454 13.4342 7.03489 C 13.5462 7.17525 13.7238 7.2608 13.9033 7.2608 " />
</g>

</g>

</g>

<polygon points="12.4033,5.1608 12.4033,8.1608 15.4033,8.1608 15.4033,5.1608 " stroke="black" stroke-width="0.010000" fill="none" id="id0000000705" pointer-events="none" class="rectangle" />
<text id="id0000000706" transform="matrix(1 0 0 1 12.4033 5.1608)" x="1.500000" y="-1.000000" text-anchor="middle" font-size="2.000000px" >
','
</text>

</g>

</g>

<g id="id0000000650" >
<g id="id0000000651" >
<clipPath id="id0000000651clipper" >
<polygon points="17.4537,5.1608 17.4537,8.1608 20.4537,8.1608 20.4537,5.1608 " id="id0000000707" class="rectangle" />
</clipPath>

<g clip-path="url(#id0000000651clipper)" id="id0000000653" >
<g id="id0000000708" >
<g opacity="1.000000" fill="#1f77b4" stroke-width="0.000000" id="id0000000709" >
<polygon points="18.9537,7.6608 19.9537,5.6608 17.9537,5.6608 " id="id0000000711" class="triangle" />
</g>

</g>

</g>

<polygon points="17.4537,5.1608 17.4537,8.1608 20.4537,8.1608 20.4537,5.1608 " stroke="black" stroke-width="0.010000" fill="none" id="id0000000712" pointer-events="none" class="rectangle" />
<text id="id0000000713" transform="matrix(1 0 0 1 17.4537 5.1608)" x="1.500000" y="-1.000000" text-anchor="middle" font-size="2.000000px" >
'v'
</text>

</g>

</g>

<g id="id0000000654" >
<g id="id0000000655" >
<clipPath id="id0000000655clipper" >
<polygon points="22.5042,5.1608 22.5042,8.1608 25.5042,8.1608 25.5042,5.1608 " id="id0000000714" class="rectangle" />
</clipPath>

<g clip-path="url(#id0000000655clipper)" id="id0000000657" >
<g id="id0000000715" >
<g opacity="1.000000" fill="#1f77b4" stroke-width="0.000000" id="id0000000716" >
<polygon points="25.0042,6.6608 23.0042,7.6608 23.0042,5.6608 " id="id0000000718" class="triangle" />
</g>

</g>

</g>

<polygon points="22.5042,5.1608 22.5042,8.1608 25.5042,8.1608 25.5042,5.1608 " stroke="black" stroke-width="0.010000" fill="none" id="id0000000719" pointer-events="none" class="rectangle" />
<text id="id0000000720" transform="matrix(1 0 0 1 22.5042 5.1608)" x="1.500000" y="-1.000000" text-anchor="middle" font-size="2.000000px" >
'>'
</text>

</g>

</g>

<g id="id0000000658" >
<g id="id0000000659" >
<clipPath id="id0000000659clipper" >
<polygon points="27.5546,5.1608 27.5546,8.1608 30.5546,8.1608 30.5546,5.1608 " id="id0000000721" class="rectangle" />
</clipPath>

<g clip-path="url(#id0000000659clipper)" id="id0000000661" >
<g id="id0000000722" >
<g opacity="1.000000" fill="#1f77b4" stroke-width="0.000000" id="id0000000723" >
<polygon points="29.0546,5.6608 30.0546,7.6608 28.0546,7.6608 " id="id0000000725" class="triangle" />
</g>

</g>

</g>

<polygon points="27.5546,5.1608 27.5546,8.1608 30.5546,8.1608 30.5546,5.1608 " stroke="black" stroke-width="0.010000" fill="none" id="id0000000726" pointer-events="none" class="rectangle" />
<text id="id0000000727" transform="matrix(1 0 0 1 27.5546 5.1608)" x="1.500000" y="-1.000000" text-anchor="middle" font-size="2.000000px" >
'^'
</text>

</g>

</g>

<g id="id0000000662" >
<g id="id0000000663" >
<clipPath id="id0000000663clipper" >
<polygon points="2.3025,13.2412 2.3025,16.2412 5.3025,16.2412 5.3025,13.2412 " id="id0000000728" class="rectangle" />
</clipPath>

<g clip-path="url(#id0000000663clipper)" id="id0000000665" >
<g id="id0000000729" >
<g opacity="1.000000" fill="#1f77b4" stroke-width="0.000000" id="id0000000730" >
<polygon points="2.8025,14.7412 4.8025,15.7412 4.8025,13.7412 " id="id0000000732" class="triangle" />
</g>

</g>

</g>

<polygon points="2.3025,13.2412 2.3025,16.2412 5.3025,16.2412 5.3025,13.2412 " stroke="black" stroke-width="0.010000" fill="none" id="id0000000733" pointer-events="none" class="rectangle" />
<text id="id0000000734" transform="matrix(1 0 0 1 2.3025 13.2412)" x="1.500000" y="-1.000000" text-anchor="middle" font-size="2.000000px" >
'&lt;'
</text>

</g>

</g>

<g id="id0000000666" >
<g id="id0000000667" >
<clipPath id="id0000000667clipper" >
<polygon points="7.35292,13.2412 7.35292,16.2412 10.3529,16.2412 10.3529,13.2412 " id="id0000000735" class="rectangle" />
</clipPath>

<g clip-path="url(#id0000000667clipper)" id="id0000000669" >
<g id="id0000000736" >
<g opacity="1.000000" fill="#1f77b4" stroke-width="0.000000" id="id0000000737" >
<polygon points="7.85292,13.7412 7.85292,15.7412 9.85292,15.7412 9.85292,13.7412 " id="id0000000739" class="rectangle" />
</g>

</g>

</g>

<polygon points="7.35292,13.2412 7.35292,16.2412 10.3529,16.2412 10.3529,13.2412 " stroke="black" stroke-width="0.010000" fill="none" id="id0000000740" pointer-events="none" class="rectangle" />
<text id="id0000000741" transform="matrix(1 0 0 1 7.35292 13.2412)" x="1.500000" y="-1.000000" text-anchor="middle" font-size="2.000000px" >
's'
</text>

</g>

</g>

<g id="id0000000670" >
<g id="id0000000671" >
<clipPath id="id0000000671clipper" >
<polygon points="12.4033,13.2412 12.4033,16.2412 15.4033,16.2412 15.4033,13.2412 " id="id0000000742" class="rectangle" />
</clipPath>

<g clip-path="url(#id0000000671clipper)" id="id0000000673" >
<g id="id0000000743" >
<g stroke="#1f77b4" opacity="1.000000" fill="none" id="id0000000744" >
<g stroke-width="0.300000" class="plus" id="id0000000632" >
<polyline points="13.9033,15.7412 13.9033,13.7412 " fill="none" id="id0000000746" class="line" />
<polyline points="14.9033,14.7412 12.9033,14.7412 " fill="none" id="id0000000747" class="line" />
</g>

</g>

</g>

</g>

<polygon points="12.4033,13.2412 12.4033,16.2412 15.4033,16.2412 15.4033,13.2412 " stroke="black" stroke-width="0.010000" fill="none" id="id0000000748" pointer-events="none" class="rectangle" />
<text id="id0000000749" transform="matrix(1 0 0 1 12.4033 13.2412)" x="1.500000" y="-1.000000" text-anchor="middle" font-size="2.000000px" >
'+'
</text>

</g>

</g>

<g id="id0000000674" >
<g id="id0000000675" >
<clipPath id="id0000000675clipper" >
<polygon points="17.4537,13.2412 17.4537,16.2412 20.4537,16.2412 20.4537,13.2412 " id="id0000000750" class="rectangle" />
</clipPath>

<g clip-path="url(#id0000000675clipper)" id="id0000000677" >
<g id="id0000000751" >
<g stroke="#1f77b4" opacity="1.000000" fill="none" id="id0000000752" >
<g stroke-width="0.700000" class="plus" id="id0000000633" >
<polyline points="18.9537,15.7412 18.9537,13.7412 " fill="none" id="id0000000754" class="line" />
<polyline points="19.9537,14.7412 17.9537,14.7412 " fill="none" id="id0000000755" class="line" />
</g>

</g>

</g>

</g>

<polygon points="17.4537,13.2412 17.4537,16.2412 20.4537,16.2412 20.4537,13.2412 " stroke="black" stroke-width="0.010000" fill="none" id="id0000000756" pointer-events="none" class="rectangle" />
<text id="id0000000757" transform="matrix(1 0 0 1 17.4537 13.2412)" x="1.500000" y="-1.000000" text-anchor="middle" font-size="2.000000px" >
'P'
</text>

</g>

</g>

<g id="id0000000678" >
<g id="id0000000679" >
<clipPath id="id0000000679clipper" >
<polygon points="22.5042,13.2412 22.5042,16.2412 25.5042,16.2412 25.5042,13.2412 " id="id0000000758" class="rectangle" />
</clipPath>

<g clip-path="url(#id0000000679clipper)" id="id0000000681" >
<g id="id0000000759" >
<g stroke="#1f77b4" opacity="1.000000" fill="none" id="id0000000760" >
<g stroke-width="0.300000" class="times" id="id0000000634" >
<polyline points="25.0042,15.7412 23.0042,13.7412 " fill="none" id="id0000000762" class="line" />
<polyline points="25.0042,13.7412 23.0042,15.7412 " fill="none" id="id0000000763" class="line" />
</g>

</g>

</g>

</g>

<polygon points="22.5042,13.2412 22.5042,16.2412 25.5042,16.2412 25.5042,13.2412 " stroke="black" stroke-width="0.010000" fill="none" id="id0000000764" pointer-events="none" class="rectangle" />
<text id="id0000000765" transform="matrix(1 0 0 1 22.5042 13.2412)" x="1.500000" y="-1.000000" text-anchor="middle" font-size="2.000000px" >
'x'
</text>

</g>

</g>

<g id="id0000000682" >
<g id="id0000000683" >
<clipPath id="id0000000683clipper" >
<polygon points="27.5546,13.2412 27.5546,16.2412 30.5546,16.2412 30.5546,13.2412 " id="id0000000766" class="rectangle" />
</clipPath>

<g clip-path="url(#id0000000683clipper)" id="id0000000685" >
<g id="id0000000767" >
<g stroke="#1f77b4" opacity="1.000000" fill="none" id="id0000000768" >
<g stroke-width="0.700000" class="times" id="id0000000635" >
<polyline points="30.0546,15.7412 28.0546,13.7412 " fill="none" id="id0000000770" class="line" />
<polyline points="30.0546,13.7412 28.0546,15.7412 " fill="none" id="id0000000771" class="line" />
</g>

</g>

</g>

</g>

<polygon points="27.5546,13.2412 27.5546,16.2412 30.5546,16.2412 30.5546,13.2412 " stroke="black" stroke-width="0.010000" fill="none" id="id0000000772" pointer-events="none" class="rectangle" />
<text id="id0000000773" transform="matrix(1 0 0 1 27.5546 13.2412)" x="1.500000" y="-1.000000" text-anchor="middle" font-size="2.000000px" >
'X'
</text>

</g>

</g>


</g>

</svg>
