<svg viewBox="0 0 10 25" height="100%" width="100%" xmlns:xlink="http://www.w3.org/1999/xlink" xmlns="http://www.w3.org/2000/svg" id="id0000003563" >
<g id="id0000003564" >
<clipPath id="id0000003564clipper" >
<polygon points="1,1 1,24 9,24 9,1 " id="id0000003574" class="rectangle" />
</clipPath>

<g clip-path="url(#id0000003564clipper)" id="id0000003566" >
<g id="id0000003567" >
<g id="id0000003569" >
<g opacity="1.000000" fill="rgb( 0, 255, 63 )" stroke="black" stroke-width="0.000000" id="id0000003568" >
<path id="id0000003575" d="M 5 19.25 C 5.2992 19.25 5.59528 19.1074 5.78183 18.8735 C 5.96838 18.6396 6.04151 18.3192 5.97493 18.0275 C 5.90835 17.7358 5.70345 17.4788 5.43388 17.349 C 5.16431 17.2192 4.83569 17.2192 4.56612 17.349 C 4.29655 17.4788 4.09165 17.7358 4.02507 18.0275 C 3.95849 18.3192 4.03162 18.6396 4.21817 18.8735 C 4.40472 19.1074 4.7008 19.25 5 19.25 " />
</g>

</g>

<g id="id0000003571" >
<g opacity="1.000000" fill="rgb( 255, 191, 0 )" stroke="black" stroke-width="0.000000" id="id0000003570" >
<path id="id0000003576" d="M 5 13.5 C 5.2992 13.5 5.59528 13.3574 5.78183 13.1235 C 5.96838 12.8896 6.04151 12.5692 5.97493 12.2775 C 5.90835 11.9858 5.70345 11.7288 5.43388 11.599 C 5.16431 11.4692 4.83569 11.4692 4.56612 11.599 C 4.29655 11.7288 4.09165 11.9858 4.02507 12.2775 C 3.95849 12.5692 4.03162 12.8896 4.21817 13.1235 C 4.40472 13.3574 4.7008 13.5 5 13.5 " />
</g>

</g>

<g id="id0000003573" >
<g opacity="1.000000" fill="rgb( 191, 63, 63 )" stroke="black" stroke-width="0.000000" id="id0000003572" >
<path id="id0000003577" d="M 5 7.75 C 5.2992 7.75 5.59528 7.60741 5.78183 7.37349 C 5.96838 7.13957 6.04151 6.81918 5.97493 6.52748 C 5.90835 6.23578 5.70345 5.97885 5.43388 5.84903 C 5.16431 5.71921 4.83569 5.71921 4.56612 5.84903 C 4.29655 5.97885 4.09165 6.23578 4.02507 6.52748 C 3.95849 6.81918 4.03162 7.13957 4.21817 7.37349 C 4.40472 7.60741 4.7008 7.75 5 7.75 " />
</g>

</g>

</g>

</g>

<polygon points="1,1 1,24 9,24 9,1 " stroke="black" stroke-width="0.000000" fill="none" id="id0000003578" pointer-events="none" class="rectangle" />

</g>

</svg>
