<svg viewBox="0 0 200 150" height="100%" width="100%" xmlns:xlink="http://www.w3.org/1999/xlink" xmlns="http://www.w3.org/2000/svg" id="id0000000187" >
<g id="id0000000188" >
<clipPath id="id0000000188clipper" >
<polygon points="30,5 30,130 195,130 195,5 " id="id0000000191" class="rectangle" />
</clipPath>

<g clip-path="url(#id0000000188clipper)" id="id0000000190" >
<g id="id0000000192" >
<g opacity="1.000000" fill="#1f77b4" stroke-width="0.000000" id="id0000000193" >
<path id="id0000000243" d="M 43.0045 123.774 C 43.1721 123.774 43.3395 123.739 43.4926 123.671 C 43.6457 123.603 43.7842 123.502 43.8963 123.377 C 44.0084 123.253 44.094 123.105 44.1458 122.945 C 44.1975 122.786 44.2154 122.616 44.1979 122.449 C 44.1804 122.282 44.1275 122.12 44.0437 121.974 C 43.96 121.829 43.8454 121.702 43.7098 121.604 C 43.5743 121.505 43.4179 121.436 43.254 121.401 C 43.0901 121.366 42.9189 121.366 42.755 121.401 C 42.5911 121.436 42.4347 121.505 42.2992 121.604 C 42.1636 121.702 42.049 121.829 41.9653 121.974 C 41.8815 122.12 41.8286 122.282 41.8111 122.449 C 41.7936 122.616 41.8115 122.786 41.8632 122.945 C 41.915 123.105 42.0006 123.253 42.1127 123.377 C 42.2248 123.502 42.3633 123.603 42.5164 123.671 " />
</g>

<g opacity="1.000000" fill="#1f77b4" stroke-width="0.000000" id="id0000000195" >
<path id="id0000000244" d="M 72.26 118.989 C 72.4275 118.989 72.595 118.953 72.7481 118.885 C 72.9011 118.817 73.0396 118.716 73.1517 118.592 C 73.2639 118.467 73.3495 118.319 73.4012 118.16 C 73.453 118 73.4709 117.83 73.4534 117.663 C 73.4359 117.497 73.383 117.334 73.2992 117.189 C 73.2154 117.044 73.1009 116.916 72.9653 116.818 C 72.8298 116.719 72.6734 116.65 72.5095 116.615 C 72.3456 116.58 72.1744 116.58 72.0105 116.615 C 71.8466 116.65 71.6902 116.719 71.5546 116.818 C 71.4191 116.916 71.3045 117.044 71.2207 117.189 C 71.137 117.334 71.0841 117.497 71.0665 117.663 C 71.049 117.83 71.0669 118 71.1187 118.16 C 71.1705 118.319 71.2561 118.467 71.3682 118.592 C 71.4803 118.716 71.6188 118.817 71.7719 118.885 " />
</g>

<g opacity="1.000000" fill="#1f77b4" stroke-width="0.000000" id="id0000000197" >
<path id="id0000000245" d="M 63.0898 127.502 C 63.2574 127.502 63.4248 127.466 63.5779 127.398 C 63.731 127.33 63.8695 127.23 63.9816 127.105 C 64.0937 126.98 64.1793 126.832 64.2311 126.673 C 64.2829 126.514 64.3008 126.343 64.2832 126.177 C 64.2657 126.01 64.2128 125.847 64.129 125.702 C 64.0453 125.557 63.9307 125.43 63.7952 125.331 C 63.6596 125.233 63.5032 125.163 63.3393 125.128 C 63.1754 125.093 63.0042 125.093 62.8403 125.128 C 62.6764 125.163 62.52 125.233 62.3845 125.331 C 62.2489 125.43 62.1344 125.557 62.0506 125.702 C 61.9668 125.847 61.9139 126.01 61.8964 126.177 C 61.8789 126.343 61.8968 126.514 61.9485 126.673 C 62.0003 126.832 62.0859 126.98 62.198 127.105 C 62.3102 127.23 62.4487 127.33 62.6017 127.398 " />
</g>

<g opacity="1.000000" fill="#1f77b4" stroke-width="0.000000" id="id0000000199" >
<path id="id0000000246" d="M 49.0272 109.267 C 49.1947 109.267 49.3622 109.231 49.5153 109.163 C 49.6683 109.095 49.8068 108.994 49.9189 108.87 C 50.0311 108.745 50.1167 108.597 50.1684 108.438 C 50.2202 108.278 50.2381 108.108 50.2206 107.941 C 50.2031 107.775 50.1502 107.612 50.0664 107.467 C 49.9826 107.322 49.8681 107.194 49.7325 107.096 C 49.597 106.997 49.4406 106.928 49.2767 106.893 C 49.1128 106.858 48.9416 106.858 48.7777 106.893 C 48.6138 106.928 48.4574 106.997 48.3218 107.096 C 48.1863 107.194 48.0717 107.322 47.9879 107.467 C 47.9042 107.612 47.8513 107.775 47.8337 107.941 C 47.8162 108.108 47.8341 108.278 47.8859 108.438 C 47.9377 108.597 48.0233 108.745 48.1354 108.87 C 48.2475 108.994 48.386 109.095 48.5391 109.163 " />
</g>

<g opacity="1.000000" fill="#1f77b4" stroke-width="0.000000" id="id0000000201" >
<path id="id0000000247" d="M 80.8774 104.179 C 81.045 104.179 81.2125 104.143 81.3655 104.075 C 81.5186 104.007 81.6571 103.906 81.7692 103.782 C 81.8813 103.657 81.9669 103.509 82.0187 103.35 C 82.0705 103.19 82.0884 103.02 82.0709 102.853 C 82.0534 102.687 82.0005 102.524 81.9167 102.379 C 81.8329 102.234 81.7183 102.106 81.5828 102.008 C 81.4472 101.91 81.2908 101.84 81.1269 101.805 C 80.963 101.77 80.7918 101.77 80.6279 101.805 C 80.4641 101.84 80.3076 101.91 80.1721 102.008 C 80.0365 102.106 79.922 102.234 79.8382 102.379 C 79.7544 102.524 79.7015 102.687 79.684 102.853 C 79.6665 103.02 79.6844 103.19 79.7362 103.35 C 79.7879 103.509 79.8736 103.657 79.9857 103.782 C 80.0978 103.906 80.2363 104.007 80.3894 104.075 " />
</g>

<g opacity="1.000000" fill="#1f77b4" stroke-width="0.000000" id="id0000000203" >
<path id="id0000000248" d="M 51.422 118.679 C 51.5896 118.679 51.7571 118.644 51.9101 118.576 C 52.0632 118.507 52.2017 118.407 52.3138 118.282 C 52.4259 118.158 52.5115 118.01 52.5633 117.85 C 52.6151 117.691 52.633 117.521 52.6155 117.354 C 52.598 117.187 52.545 117.024 52.4613 116.879 C 52.3775 116.734 52.2629 116.607 52.1274 116.509 C 51.9918 116.41 51.8354 116.34 51.6715 116.306 C 51.5076 116.271 51.3364 116.271 51.1726 116.306 C 51.0087 116.34 50.8523 116.41 50.7167 116.509 C 50.5812 116.607 50.4666 116.734 50.3828 116.879 C 50.299 117.024 50.2461 117.187 50.2286 117.354 C 50.2111 117.521 50.229 117.691 50.2808 117.85 C 50.3326 118.01 50.4182 118.158 50.5303 118.282 C 50.6424 118.407 50.7809 118.507 50.934 118.576 " />
</g>

<g opacity="1.000000" fill="#1f77b4" stroke-width="0.000000" id="id0000000205" >
<path id="id0000000249" d="M 92.2979 96.2269 C 92.4655 96.2269 92.6329 96.1913 92.786 96.1231 C 92.9391 96.055 93.0776 95.9544 93.1897 95.8298 C 93.3018 95.7053 93.3874 95.5571 93.4392 95.3977 C 93.491 95.2384 93.5089 95.0681 93.4913 94.9015 C 93.4738 94.7348 93.4209 94.572 93.3371 94.4269 C 93.2534 94.2818 93.1388 94.1546 93.0033 94.0561 C 92.8677 93.9576 92.7113 93.888 92.5474 93.8531 C 92.3835 93.8183 92.2123 93.8183 92.0484 93.8531 C 91.8845 93.888 91.7281 93.9576 91.5926 94.0561 C 91.457 94.1546 91.3425 94.2818 91.2587 94.4269 C 91.1749 94.572 91.122 94.7348 91.1045 94.9015 C 91.087 95.0681 91.1049 95.2384 91.1566 95.3977 C 91.2084 95.5571 91.294 95.7053 91.4061 95.8298 C 91.5182 95.9544 91.6568 96.055 91.8098 96.1231 " />
</g>

<g opacity="1.000000" fill="#1f77b4" stroke-width="0.000000" id="id0000000207" >
<path id="id0000000250" d="M 88.4575 111.231 C 88.6251 111.231 88.7926 111.195 88.9456 111.127 C 89.0987 111.059 89.2372 110.958 89.3493 110.834 C 89.4614 110.709 89.547 110.561 89.5988 110.401 C 89.6506 110.242 89.6685 110.072 89.651 109.905 C 89.6335 109.739 89.5806 109.576 89.4968 109.431 C 89.413 109.286 89.2984 109.158 89.1629 109.06 C 89.0273 108.961 88.8709 108.892 88.707 108.857 C 88.5431 108.822 88.3719 108.822 88.208 108.857 C 88.0442 108.892 87.8877 108.961 87.7522 109.06 C 87.6166 109.158 87.5021 109.286 87.4183 109.431 C 87.3345 109.576 87.2816 109.739 87.2641 109.905 C 87.2466 110.072 87.2645 110.242 87.3163 110.401 C 87.368 110.561 87.4537 110.709 87.5658 110.834 C 87.6779 110.958 87.8164 111.059 87.9695 111.127 " />
</g>

<g opacity="1.000000" fill="#1f77b4" stroke-width="0.000000" id="id0000000209" >
<path id="id0000000251" d="M 95.5151 98.7097 C 95.6827 98.7097 95.8501 98.6741 96.0032 98.606 C 96.1563 98.5378 96.2948 98.4372 96.4069 98.3127 C 96.519 98.1882 96.6046 98.0399 96.6564 97.8806 C 96.7082 97.7212 96.7261 97.5509 96.7085 97.3843 C 96.691 97.2177 96.6381 97.0548 96.5543 96.9097 C 96.4706 96.7646 96.356 96.6374 96.2205 96.5389 C 96.0849 96.4404 95.9285 96.3708 95.7646 96.336 C 95.6007 96.3011 95.4295 96.3011 95.2656 96.336 C 95.1017 96.3708 94.9453 96.4404 94.8098 96.5389 C 94.6742 96.6374 94.5597 96.7646 94.4759 96.9097 C 94.3921 97.0548 94.3392 97.2177 94.3217 97.3843 C 94.3042 97.5509 94.3221 97.7212 94.3738 97.8806 C 94.4256 98.0399 94.5112 98.1882 94.6233 98.3127 C 94.7355 98.4372 94.874 98.5378 95.027 98.606 " />
</g>

<g opacity="1.000000" fill="#1f77b4" stroke-width="0.000000" id="id0000000211" >
<path id="id0000000252" d="M 93.175 91.5695 C 93.3425 91.5695 93.51 91.534 93.6631 91.4658 C 93.8161 91.3977 93.9547 91.297 94.0668 91.1725 C 94.1789 91.048 94.2645 90.8997 94.3163 90.7404 C 94.368 90.581 94.3859 90.4108 94.3684 90.2441 C 94.3509 90.0775 94.298 89.9147 94.2142 89.7696 C 94.1304 89.6245 94.0159 89.4972 93.8803 89.3987 C 93.7448 89.3002 93.5884 89.2306 93.4245 89.1958 C 93.2606 89.1609 93.0894 89.1609 92.9255 89.1958 C 92.7616 89.2306 92.6052 89.3002 92.4696 89.3987 C 92.3341 89.4972 92.2195 89.6245 92.1358 89.7696 C 92.052 89.9147 91.9991 90.0775 91.9816 90.2441 C 91.9641 90.4108 91.9819 90.581 92.0337 90.7404 C 92.0855 90.8997 92.1711 91.048 92.2832 91.1725 C 92.3953 91.297 92.5338 91.3977 92.6869 91.4658 " />
</g>

<g opacity="1.000000" fill="#1f77b4" stroke-width="0.000000" id="id0000000213" >
<path id="id0000000253" d="M 106.584 103.282 C 106.752 103.282 106.919 103.246 107.072 103.178 C 107.225 103.11 107.364 103.009 107.476 102.885 C 107.588 102.76 107.674 102.612 107.725 102.453 C 107.777 102.293 107.795 102.123 107.777 101.956 C 107.76 101.79 107.707 101.627 107.623 101.482 C 107.539 101.337 107.425 101.209 107.289 101.111 C 107.154 101.012 106.997 100.943 106.834 100.908 C 106.67 100.873 106.498 100.873 106.335 100.908 C 106.171 100.943 106.014 101.012 105.879 101.111 C 105.743 101.209 105.629 101.337 105.545 101.482 C 105.461 101.627 105.408 101.79 105.391 101.956 C 105.373 102.123 105.391 102.293 105.443 102.453 C 105.495 102.612 105.58 102.76 105.692 102.885 C 105.804 103.009 105.943 103.11 106.096 103.178 " />
</g>

<g opacity="1.000000" fill="#1f77b4" stroke-width="0.000000" id="id0000000215" >
<path id="id0000000254" d="M 129.183 87.9416 C 129.351 87.9416 129.518 87.906 129.672 87.8378 C 129.825 87.7697 129.963 87.6691 130.075 87.5445 C 130.187 87.42 130.273 87.2718 130.325 87.1124 C 130.376 86.9531 130.394 86.7828 130.377 86.6161 C 130.359 86.4495 130.306 86.2867 130.223 86.1416 C 130.139 85.9965 130.024 85.8692 129.889 85.7708 C 129.753 85.6723 129.597 85.6026 129.433 85.5678 C 129.269 85.533 129.098 85.533 128.934 85.5678 C 128.77 85.6026 128.614 85.6723 128.478 85.7708 C 128.343 85.8692 128.228 85.9965 128.144 86.1416 C 128.06 86.2867 128.008 86.4495 127.99 86.6161 C 127.973 86.7828 127.99 86.9531 128.042 87.1124 C 128.094 87.2718 128.18 87.42 128.292 87.5445 C 128.404 87.6691 128.542 87.7697 128.695 87.8378 " />
</g>

<g opacity="1.000000" fill="#1f77b4" stroke-width="0.000000" id="id0000000217" >
<path id="id0000000255" d="M 101.292 100.539 C 101.459 100.539 101.627 100.504 101.78 100.436 C 101.933 100.368 102.072 100.267 102.184 100.142 C 102.296 100.018 102.381 99.8697 102.433 99.7103 C 102.485 99.551 102.503 99.3807 102.485 99.2141 C 102.468 99.0474 102.415 98.8846 102.331 98.7395 C 102.247 98.5944 102.133 98.4672 101.997 98.3687 C 101.862 98.2702 101.705 98.2006 101.541 98.1657 C 101.378 98.1309 101.206 98.1309 101.042 98.1657 C 100.879 98.2006 100.722 98.2702 100.587 98.3687 C 100.451 98.4672 100.336 98.5944 100.253 98.7395 C 100.169 98.8846 100.116 99.0474 100.099 99.2141 C 100.081 99.3807 100.099 99.551 100.151 99.7103 C 100.202 99.8697 100.288 100.018 100.4 100.142 C 100.512 100.267 100.651 100.368 100.804 100.436 " />
</g>

<g opacity="1.000000" fill="#1f77b4" stroke-width="0.000000" id="id0000000219" >
<path id="id0000000256" d="M 113.086 100.085 C 113.253 100.085 113.421 100.05 113.574 99.9814 C 113.727 99.9133 113.865 99.8127 113.977 99.6881 C 114.09 99.5636 114.175 99.4154 114.227 99.256 C 114.279 99.0966 114.297 98.9264 114.279 98.7597 C 114.262 98.5931 114.209 98.4303 114.125 98.2852 C 114.041 98.1401 113.927 98.0128 113.791 97.9144 C 113.655 97.8159 113.499 97.7462 113.335 97.7114 C 113.171 97.6766 113 97.6766 112.836 97.7114 C 112.672 97.7462 112.516 97.8159 112.38 97.9144 C 112.245 98.0128 112.13 98.1401 112.046 98.2852 C 111.963 98.4303 111.91 98.5931 111.892 98.7597 C 111.875 98.9264 111.893 99.0966 111.944 99.256 C 111.996 99.4154 112.082 99.5636 112.194 99.6881 C 112.306 99.8127 112.444 99.9133 112.598 99.9814 " />
</g>

<g opacity="1.000000" fill="#1f77b4" stroke-width="0.000000" id="id0000000221" >
<path id="id0000000257" d="M 122.167 80.0262 C 122.335 80.0262 122.502 79.9906 122.655 79.9225 C 122.808 79.8543 122.947 79.7537 123.059 79.6292 C 123.171 79.5047 123.257 79.3564 123.308 79.197 C 123.36 79.0377 123.378 78.8674 123.361 78.7008 C 123.343 78.5341 123.29 78.3713 123.206 78.2262 C 123.123 78.0811 123.008 77.9539 122.872 77.8554 C 122.737 77.7569 122.58 77.6873 122.417 77.6524 C 122.253 77.6176 122.081 77.6176 121.918 77.6524 C 121.754 77.6873 121.597 77.7569 121.462 77.8554 C 121.326 77.9539 121.212 78.0811 121.128 78.2262 C 121.044 78.3713 120.991 78.5341 120.974 78.7008 C 120.956 78.8674 120.974 79.0377 121.026 79.197 C 121.078 79.3564 121.163 79.5047 121.275 79.6292 C 121.387 79.7537 121.526 79.8543 121.679 79.9225 " />
</g>

<g opacity="1.000000" fill="#1f77b4" stroke-width="0.000000" id="id0000000223" >
<path id="id0000000258" d="M 133.556 97.2866 C 133.724 97.2866 133.891 97.251 134.044 97.1829 C 134.197 97.1147 134.336 97.0141 134.448 96.8896 C 134.56 96.7651 134.646 96.6168 134.697 96.4575 C 134.749 96.2981 134.767 96.1278 134.75 95.9612 C 134.732 95.7946 134.679 95.6317 134.595 95.4866 C 134.512 95.3415 134.397 95.2143 134.261 95.1158 C 134.126 95.0173 133.969 94.9477 133.806 94.9129 C 133.642 94.878 133.471 94.878 133.307 94.9129 C 133.143 94.9477 132.986 95.0173 132.851 95.1158 C 132.715 95.2143 132.601 95.3415 132.517 95.4866 C 132.433 95.6317 132.38 95.7946 132.363 95.9612 C 132.345 96.1278 132.363 96.2981 132.415 96.4575 C 132.467 96.6168 132.552 96.7651 132.664 96.8896 C 132.776 97.0141 132.915 97.1147 133.068 97.1829 " />
</g>

<g opacity="1.000000" fill="#1f77b4" stroke-width="0.000000" id="id0000000225" >
<path id="id0000000259" d="M 123.87 81.7662 C 124.037 81.7662 124.205 81.7306 124.358 81.6625 C 124.511 81.5943 124.65 81.4937 124.762 81.3692 C 124.874 81.2447 124.959 81.0964 125.011 80.937 C 125.063 80.7777 125.081 80.6074 125.063 80.4408 C 125.046 80.2741 124.993 80.1113 124.909 79.9662 C 124.825 79.8211 124.711 79.6939 124.575 79.5954 C 124.44 79.4969 124.283 79.4273 124.119 79.3924 C 123.956 79.3576 123.784 79.3576 123.62 79.3924 C 123.457 79.4273 123.3 79.4969 123.165 79.5954 C 123.029 79.6939 122.914 79.8211 122.831 79.9662 C 122.747 80.1113 122.694 80.2741 122.677 80.4408 C 122.659 80.6074 122.677 80.7777 122.729 80.937 C 122.78 81.0964 122.866 81.2447 122.978 81.3692 C 123.09 81.4937 123.229 81.5943 123.382 81.6625 " />
</g>

<g opacity="1.000000" fill="#1f77b4" stroke-width="0.000000" id="id0000000227" >
<path id="id0000000260" d="M 127.117 94.3345 C 127.284 94.3345 127.452 94.2989 127.605 94.2307 C 127.758 94.1626 127.896 94.062 128.009 93.9374 C 128.121 93.8129 128.206 93.6647 128.258 93.5053 C 128.31 93.346 128.328 93.1757 128.31 93.009 C 128.293 92.8424 128.24 92.6796 128.156 92.5345 C 128.072 92.3894 127.958 92.2621 127.822 92.1637 C 127.687 92.0652 127.53 91.9955 127.366 91.9607 C 127.202 91.9259 127.031 91.9259 126.867 91.9607 C 126.703 91.9955 126.547 92.0652 126.411 92.1637 C 126.276 92.2621 126.161 92.3894 126.078 92.5345 C 125.994 92.6796 125.941 92.8424 125.923 93.009 C 125.906 93.1757 125.924 93.346 125.976 93.5053 C 126.027 93.6647 126.113 93.8129 126.225 93.9374 C 126.337 94.062 126.476 94.1626 126.629 94.2307 " />
</g>

<g opacity="1.000000" fill="#1f77b4" stroke-width="0.000000" id="id0000000229" >
<path id="id0000000261" d="M 148.501 98.5271 C 148.669 98.5271 148.836 98.4916 148.989 98.4234 C 149.142 98.3553 149.281 98.2546 149.393 98.1301 C 149.505 98.0056 149.591 97.8573 149.642 97.698 C 149.694 97.5386 149.712 97.3683 149.695 97.2017 C 149.677 97.0351 149.624 96.8723 149.54 96.7271 C 149.457 96.582 149.342 96.4548 149.207 96.3563 C 149.071 96.2578 148.915 96.1882 148.751 96.1534 C 148.587 96.1185 148.416 96.1185 148.252 96.1534 C 148.088 96.1882 147.931 96.2578 147.796 96.3563 C 147.66 96.4548 147.546 96.582 147.462 96.7271 C 147.378 96.8723 147.325 97.0351 147.308 97.2017 C 147.29 97.3683 147.308 97.5386 147.36 97.698 C 147.412 97.8573 147.497 98.0056 147.609 98.1301 C 147.722 98.2546 147.86 98.3553 148.013 98.4234 " />
</g>

<g opacity="1.000000" fill="#1f77b4" stroke-width="0.000000" id="id0000000231" >
<path id="id0000000262" d="M 155.442 100.104 C 155.609 100.104 155.777 100.068 155.93 100 C 156.083 99.9319 156.221 99.8313 156.334 99.7068 C 156.446 99.5823 156.531 99.434 156.583 99.2747 C 156.635 99.1153 156.653 98.945 156.635 98.7784 C 156.618 98.6118 156.565 98.4489 156.481 98.3038 C 156.397 98.1587 156.283 98.0315 156.147 97.933 C 156.012 97.8345 155.855 97.7649 155.691 97.7301 C 155.527 97.6952 155.356 97.6952 155.192 97.7301 C 155.028 97.7649 154.872 97.8345 154.736 97.933 C 154.601 98.0315 154.486 98.1587 154.403 98.3038 C 154.319 98.4489 154.266 98.6118 154.248 98.7784 C 154.231 98.945 154.249 99.1153 154.3 99.2747 C 154.352 99.434 154.438 99.5823 154.55 99.7068 C 154.662 99.8313 154.801 99.9319 154.954 100 " />
</g>

<g opacity="1.000000" fill="#1f77b4" stroke-width="0.000000" id="id0000000233" >
<path id="id0000000263" d="M 157.316 82.5685 C 157.483 82.5685 157.651 82.5329 157.804 82.4648 C 157.957 82.3966 158.095 82.296 158.207 82.1715 C 158.319 82.047 158.405 81.8987 158.457 81.7393 C 158.509 81.58 158.527 81.4097 158.509 81.2431 C 158.492 81.0764 158.439 80.9136 158.355 80.7685 C 158.271 80.6234 158.156 80.4962 158.021 80.3977 C 157.885 80.2992 157.729 80.2296 157.565 80.1947 C 157.401 80.1599 157.23 80.1599 157.066 80.1947 C 156.902 80.2296 156.746 80.2992 156.61 80.3977 C 156.475 80.4962 156.36 80.6234 156.276 80.7685 C 156.193 80.9136 156.14 81.0764 156.122 81.2431 C 156.105 81.4097 156.123 81.58 156.174 81.7393 C 156.226 81.8987 156.312 82.047 156.424 82.1715 C 156.536 82.296 156.674 82.3966 156.827 82.4648 " />
</g>

<g opacity="1.000000" fill="#1f77b4" stroke-width="0.000000" id="id0000000235" >
<path id="id0000000264" d="M 182.786 66.6928 C 182.954 66.6928 183.121 66.6572 183.274 66.589 C 183.427 66.5209 183.566 66.4203 183.678 66.2957 C 183.79 66.1712 183.876 66.023 183.928 65.8636 C 183.979 65.7043 183.997 65.534 183.98 65.3673 C 183.962 65.2007 183.909 65.0379 183.826 64.8928 C 183.742 64.7477 183.627 64.6204 183.492 64.522 C 183.356 64.4235 183.2 64.3538 183.036 64.319 C 182.872 64.2842 182.701 64.2842 182.537 64.319 C 182.373 64.3538 182.217 64.4235 182.081 64.522 C 181.945 64.6204 181.831 64.7477 181.747 64.8928 C 181.663 65.0379 181.61 65.2007 181.593 65.3673 C 181.575 65.534 181.593 65.7043 181.645 65.8636 C 181.697 66.023 181.782 66.1712 181.895 66.2957 C 182.007 66.4203 182.145 66.5209 182.298 66.589 " />
</g>

<g opacity="1.000000" fill="#1f77b4" stroke-width="0.000000" id="id0000000237" >
<path id="id0000000265" d="M 176.673 84.8573 C 176.841 84.8573 177.008 84.8217 177.161 84.7535 C 177.315 84.6854 177.453 84.5847 177.565 84.4602 C 177.677 84.3357 177.763 84.1874 177.815 84.0281 C 177.866 83.8687 177.884 83.6985 177.867 83.5318 C 177.849 83.3652 177.796 83.2024 177.713 83.0573 C 177.629 82.9122 177.514 82.7849 177.379 82.6864 C 177.243 82.588 177.087 82.5183 176.923 82.4835 C 176.759 82.4486 176.588 82.4486 176.424 82.4835 C 176.26 82.5183 176.104 82.588 175.968 82.6864 C 175.833 82.7849 175.718 82.9122 175.634 83.0573 C 175.55 83.2024 175.497 83.3652 175.48 83.5318 C 175.462 83.6985 175.48 83.8687 175.532 84.0281 C 175.584 84.1874 175.67 84.3357 175.782 84.4602 C 175.894 84.5847 176.032 84.6854 176.185 84.7535 " />
</g>

<g opacity="1.000000" fill="#1f77b4" stroke-width="0.000000" id="id0000000239" >
<path id="id0000000266" d="M 167.387 93.026 C 167.554 93.026 167.722 92.9904 167.875 92.9222 C 168.028 92.8541 168.166 92.7534 168.278 92.6289 C 168.39 92.5044 168.476 92.3561 168.528 92.1968 C 168.58 92.0374 168.597 91.8672 168.58 91.7005 C 168.562 91.5339 168.51 91.3711 168.426 91.226 C 168.342 91.0809 168.227 90.9536 168.092 90.8552 C 167.956 90.7567 167.8 90.687 167.636 90.6522 C 167.472 90.6174 167.301 90.6174 167.137 90.6522 C 166.973 90.687 166.817 90.7567 166.681 90.8552 C 166.546 90.9536 166.431 91.0809 166.347 91.226 C 166.264 91.3711 166.211 91.5339 166.193 91.7005 C 166.176 91.8672 166.193 92.0374 166.245 92.1968 C 166.297 92.3561 166.383 92.5044 166.495 92.6289 C 166.607 92.7534 166.745 92.8541 166.898 92.9222 " />
</g>

<g opacity="1.000000" fill="#1f77b4" stroke-width="0.000000" id="id0000000241" >
<path id="id0000000267" d="M 189.577 83.5171 C 189.745 83.5171 189.912 83.4815 190.065 83.4133 C 190.218 83.3452 190.357 83.2446 190.469 83.12 C 190.581 82.9955 190.666 82.8473 190.718 82.6879 C 190.77 82.5285 190.788 82.3583 190.77 82.1916 C 190.753 82.025 190.7 81.8622 190.616 81.7171 C 190.532 81.572 190.418 81.4447 190.282 81.3463 C 190.147 81.2478 189.99 81.1781 189.826 81.1433 C 189.663 81.1085 189.491 81.1085 189.327 81.1433 C 189.164 81.1781 189.007 81.2478 188.872 81.3463 C 188.736 81.4447 188.622 81.572 188.538 81.7171 C 188.454 81.8622 188.401 82.025 188.384 82.1916 C 188.366 82.3583 188.384 82.5285 188.436 82.6879 C 188.488 82.8473 188.573 82.9955 188.685 83.12 C 188.797 83.2446 188.936 83.3452 189.089 83.4133 " />
</g>

</g>

<g id="id0000000268" >
<g opacity="1.000000" fill="#ff7f0e" stroke-width="0.000000" id="id0000000269" >
<path id="id0000000319" d="M 83.7297 83.3078 C 83.8972 83.3078 84.0647 83.2722 84.2178 83.2041 C 84.3708 83.1359 84.5094 83.0353 84.6215 82.9108 C 84.7336 82.7863 84.8192 82.638 84.871 82.4787 C 84.9227 82.3193 84.9406 82.149 84.9231 81.9824 C 84.9056 81.8158 84.8527 81.6529 84.7689 81.5078 C 84.6851 81.3627 84.5706 81.2355 84.435 81.137 C 84.2995 81.0385 84.1431 80.9689 83.9792 80.9341 C 83.8153 80.8992 83.6441 80.8992 83.4802 80.9341 C 83.3163 80.9689 83.1599 81.0385 83.0243 81.137 C 82.8888 81.2355 82.7742 81.3627 82.6905 81.5078 C 82.6067 81.6529 82.5538 81.8158 82.5363 81.9824 C 82.5188 82.149 82.5366 82.3193 82.5884 82.4787 C 82.6402 82.638 82.7258 82.7863 82.8379 82.9108 C 82.95 83.0353 83.0885 83.1359 83.2416 83.2041 " />
</g>

<g opacity="1.000000" fill="#ff7f0e" stroke-width="0.000000" id="id0000000271" >
<path id="id0000000320" d="M 58.5111 81.1441 C 58.6786 81.1441 58.8461 81.1085 58.9992 81.0404 C 59.1522 80.9722 59.2907 80.8716 59.4029 80.7471 C 59.515 80.6226 59.6006 80.4743 59.6523 80.3149 C 59.7041 80.1556 59.722 79.9853 59.7045 79.8187 C 59.687 79.6521 59.6341 79.4892 59.5503 79.3441 C 59.4665 79.199 59.352 79.0718 59.2164 78.9733 C 59.0809 78.8748 58.9245 78.8052 58.7606 78.7703 C 58.5967 78.7355 58.4255 78.7355 58.2616 78.7703 C 58.0977 78.8052 57.9413 78.8748 57.8057 78.9733 C 57.6702 79.0718 57.5556 79.199 57.4718 79.3441 C 57.3881 79.4892 57.3352 79.6521 57.3176 79.8187 C 57.3001 79.9853 57.318 80.1556 57.3698 80.3149 C 57.4216 80.4743 57.5072 80.6226 57.6193 80.7471 C 57.7314 80.8716 57.8699 80.9722 58.023 81.0404 " />
</g>

<g opacity="1.000000" fill="#ff7f0e" stroke-width="0.000000" id="id0000000273" >
<path id="id0000000321" d="M 35.3472 57.2963 C 35.5148 57.2963 35.6822 57.2607 35.8353 57.1926 C 35.9884 57.1244 36.1269 57.0238 36.239 56.8993 C 36.3511 56.7748 36.4367 56.6265 36.4885 56.4671 C 36.5403 56.3078 36.5582 56.1375 36.5407 55.9709 C 36.5231 55.8043 36.4702 55.6414 36.3865 55.4963 C 36.3027 55.3512 36.1881 55.224 36.0526 55.1255 C 35.917 55.027 35.7606 54.9574 35.5967 54.9225 C 35.4328 54.8877 35.2616 54.8877 35.0977 54.9225 C 34.9338 54.9574 34.7774 55.027 34.6419 55.1255 C 34.5063 55.224 34.3918 55.3512 34.308 55.4963 C 34.2242 55.6414 34.1713 55.8043 34.1538 55.9709 C 34.1363 56.1375 34.1542 56.3078 34.206 56.4671 C 34.2577 56.6265 34.3433 56.7748 34.4555 56.8993 C 34.5676 57.0238 34.7061 57.1244 34.8591 57.1926 " />
</g>

<g opacity="1.000000" fill="#ff7f0e" stroke-width="0.000000" id="id0000000275" >
<path id="id0000000322" d="M 62.8477 65.7558 C 63.0152 65.7558 63.1827 65.7202 63.3358 65.6521 C 63.4888 65.5839 63.6274 65.4833 63.7395 65.3588 C 63.8516 65.2342 63.9372 65.086 63.989 64.9266 C 64.0407 64.7673 64.0586 64.597 64.0411 64.4304 C 64.0236 64.2637 63.9707 64.1009 63.8869 63.9558 C 63.8032 63.8107 63.6886 63.6835 63.553 63.585 C 63.4175 63.4865 63.2611 63.4169 63.0972 63.382 C 62.9333 63.3472 62.7621 63.3472 62.5982 63.382 C 62.4343 63.4169 62.2779 63.4865 62.1424 63.585 C 62.0068 63.6835 61.8922 63.8107 61.8085 63.9558 C 61.7247 64.1009 61.6718 64.2637 61.6543 64.4304 C 61.6368 64.597 61.6547 64.7673 61.7064 64.9266 C 61.7582 65.086 61.8438 65.2342 61.9559 65.3588 C 62.068 65.4833 62.2065 65.5839 62.3596 65.6521 " />
</g>

<g opacity="1.000000" fill="#ff7f0e" stroke-width="0.000000" id="id0000000277" >
<path id="id0000000323" d="M 94.5306 68.0541 C 94.6981 68.0541 94.8656 68.0185 95.0187 67.9503 C 95.1717 67.8822 95.3103 67.7815 95.4224 67.657 C 95.5345 67.5325 95.6201 67.3842 95.6719 67.2249 C 95.7236 67.0655 95.7415 66.8953 95.724 66.7286 C 95.7065 66.562 95.6536 66.3992 95.5698 66.2541 C 95.486 66.109 95.3715 65.9817 95.2359 65.8832 C 95.1004 65.7848 94.944 65.7151 94.7801 65.6803 C 94.6162 65.6455 94.445 65.6455 94.2811 65.6803 C 94.1172 65.7151 93.9608 65.7848 93.8252 65.8832 C 93.6897 65.9817 93.5751 66.109 93.4914 66.2541 C 93.4076 66.3992 93.3547 66.562 93.3372 66.7286 C 93.3197 66.8953 93.3375 67.0655 93.3893 67.2249 C 93.4411 67.3842 93.5267 67.5325 93.6388 67.657 C 93.7509 67.7815 93.8894 67.8822 94.0425 67.9503 " />
</g>

<g opacity="1.000000" fill="#ff7f0e" stroke-width="0.000000" id="id0000000279" >
<path id="id0000000324" d="M 87.8302 92.6104 C 87.9977 92.6104 88.1652 92.5748 88.3183 92.5066 C 88.4713 92.4385 88.6099 92.3379 88.722 92.2133 C 88.8341 92.0888 88.9197 91.9406 88.9715 91.7812 C 89.0232 91.6219 89.0411 91.4516 89.0236 91.285 C 89.0061 91.1183 88.9532 90.9555 88.8694 90.8104 C 88.7856 90.6653 88.6711 90.5381 88.5355 90.4396 C 88.4 90.3411 88.2436 90.2715 88.0797 90.2366 C 87.9158 90.2018 87.7446 90.2018 87.5807 90.2366 C 87.4168 90.2715 87.2604 90.3411 87.1248 90.4396 C 86.9893 90.5381 86.8747 90.6653 86.791 90.8104 C 86.7072 90.9555 86.6543 91.1183 86.6368 91.285 C 86.6193 91.4516 86.6371 91.6219 86.6889 91.7812 C 86.7407 91.9406 86.8263 92.0888 86.9384 92.2133 C 87.0505 92.3379 87.189 92.4385 87.3421 92.5066 " />
</g>

<g opacity="1.000000" fill="#ff7f0e" stroke-width="0.000000" id="id0000000281" >
<path id="id0000000325" d="M 72.5092 68.0166 C 72.6767 68.0166 72.8442 67.981 72.9972 67.9128 C 73.1503 67.8447 73.2888 67.7441 73.4009 67.6195 C 73.513 67.495 73.5986 67.3468 73.6504 67.1874 C 73.7022 67.0281 73.7201 66.8578 73.7026 66.6912 C 73.6851 66.5245 73.6322 66.3617 73.5484 66.2166 C 73.4646 66.0715 73.3501 65.9443 73.2145 65.8458 C 73.0789 65.7473 72.9225 65.6777 72.7587 65.6428 C 72.5948 65.608 72.4236 65.608 72.2597 65.6428 C 72.0958 65.6777 71.9394 65.7473 71.8038 65.8458 C 71.6683 65.9443 71.5537 66.0715 71.4699 66.2166 C 71.3861 66.3617 71.3332 66.5245 71.3157 66.6912 C 71.2982 66.8578 71.3161 67.0281 71.3679 67.1874 C 71.4197 67.3468 71.5053 67.495 71.6174 67.6195 C 71.7295 67.7441 71.868 67.8447 72.0211 67.9128 " />
</g>

<g opacity="1.000000" fill="#ff7f0e" stroke-width="0.000000" id="id0000000283" >
<path id="id0000000326" d="M 99.6633 56.3083 C 99.8309 56.3083 99.9983 56.2727 100.151 56.2045 C 100.304 56.1364 100.443 56.0357 100.555 55.9112 C 100.667 55.7867 100.753 55.6384 100.805 55.4791 C 100.856 55.3197 100.874 55.1495 100.857 54.9828 C 100.839 54.8162 100.786 54.6534 100.703 54.5083 C 100.619 54.3632 100.504 54.2359 100.369 54.1374 C 100.233 54.039 100.077 53.9693 99.9128 53.9345 C 99.7489 53.8996 99.5777 53.8996 99.4138 53.9345 C 99.2499 53.9693 99.0935 54.039 98.958 54.1374 C 98.8224 54.2359 98.7079 54.3632 98.6241 54.5083 C 98.5403 54.6534 98.4874 54.8162 98.4699 54.9828 C 98.4524 55.1495 98.4703 55.3197 98.522 55.4791 C 98.5738 55.6384 98.6594 55.7867 98.7715 55.9112 C 98.8837 56.0357 99.0222 56.1364 99.1752 56.2045 " />
</g>

<g opacity="1.000000" fill="#ff7f0e" stroke-width="0.000000" id="id0000000285" >
<path id="id0000000327" d="M 107.41 76.6031 C 107.578 76.6031 107.745 76.5675 107.898 76.4994 C 108.051 76.4312 108.19 76.3306 108.302 76.2061 C 108.414 76.0816 108.5 75.9333 108.551 75.7739 C 108.603 75.6146 108.621 75.4443 108.604 75.2777 C 108.586 75.111 108.533 74.9482 108.449 74.8031 C 108.366 74.658 108.251 74.5308 108.115 74.4323 C 107.98 74.3338 107.824 74.2642 107.66 74.2293 C 107.496 74.1945 107.325 74.1945 107.161 74.2293 C 106.997 74.2642 106.84 74.3338 106.705 74.4323 C 106.569 74.5308 106.455 74.658 106.371 74.8031 C 106.287 74.9482 106.234 75.111 106.217 75.2777 C 106.199 75.4443 106.217 75.6146 106.269 75.7739 C 106.321 75.9333 106.406 76.0816 106.518 76.2061 C 106.63 76.3306 106.769 76.4312 106.922 76.4994 " />
</g>

<g opacity="1.000000" fill="#ff7f0e" stroke-width="0.000000" id="id0000000287" >
<path id="id0000000328" d="M 113.36 75.9326 C 113.528 75.9326 113.695 75.897 113.848 75.8289 C 114.001 75.7607 114.14 75.6601 114.252 75.5356 C 114.364 75.4111 114.45 75.2628 114.501 75.1035 C 114.553 74.9441 114.571 74.7738 114.554 74.6072 C 114.536 74.4406 114.483 74.2777 114.399 74.1326 C 114.316 73.9875 114.201 73.8603 114.065 73.7618 C 113.93 73.6633 113.774 73.5937 113.61 73.5589 C 113.446 73.524 113.275 73.524 113.111 73.5589 C 112.947 73.5937 112.79 73.6633 112.655 73.7618 C 112.519 73.8603 112.405 73.9875 112.321 74.1326 C 112.237 74.2777 112.184 74.4406 112.167 74.6072 C 112.149 74.7738 112.167 74.9441 112.219 75.1035 C 112.271 75.2628 112.356 75.4111 112.468 75.5356 C 112.58 75.6601 112.719 75.7607 112.872 75.8289 " />
</g>

<g opacity="1.000000" fill="#ff7f0e" stroke-width="0.000000" id="id0000000289" >
<path id="id0000000329" d="M 95.7986 67.3224 C 95.9661 67.3224 96.1336 67.2868 96.2867 67.2187 C 96.4397 67.1505 96.5783 67.0499 96.6904 66.9254 C 96.8025 66.8009 96.8881 66.6526 96.9399 66.4933 C 96.9916 66.3339 97.0095 66.1636 96.992 65.997 C 96.9745 65.8304 96.9216 65.6675 96.8378 65.5224 C 96.754 65.3773 96.6395 65.2501 96.5039 65.1516 C 96.3684 65.0531 96.212 64.9835 96.0481 64.9487 C 95.8842 64.9138 95.713 64.9138 95.5491 64.9487 C 95.3852 64.9835 95.2288 65.0531 95.0932 65.1516 C 94.9577 65.2501 94.8431 65.3773 94.7594 65.5224 C 94.6756 65.6675 94.6227 65.8304 94.6052 65.997 C 94.5877 66.1636 94.6055 66.3339 94.6573 66.4933 C 94.7091 66.6526 94.7947 66.8009 94.9068 66.9254 C 95.0189 67.0499 95.1574 67.1505 95.3105 67.2187 " />
</g>

<g opacity="1.000000" fill="#ff7f0e" stroke-width="0.000000" id="id0000000291" >
<path id="id0000000330" d="M 115.933 67.9949 C 116.101 67.9949 116.268 67.9593 116.421 67.8911 C 116.574 67.823 116.713 67.7224 116.825 67.5978 C 116.937 67.4733 117.023 67.3251 117.074 67.1657 C 117.126 67.0063 117.144 66.8361 117.127 66.6694 C 117.109 66.5028 117.056 66.34 116.972 66.1949 C 116.889 66.0498 116.774 65.9225 116.638 65.8241 C 116.503 65.7256 116.346 65.6559 116.183 65.6211 C 116.019 65.5863 115.847 65.5863 115.684 65.6211 C 115.52 65.6559 115.363 65.7256 115.228 65.8241 C 115.092 65.9225 114.978 66.0498 114.894 66.1949 C 114.81 66.34 114.757 66.5028 114.74 66.6694 C 114.722 66.8361 114.74 67.0063 114.792 67.1657 C 114.844 67.3251 114.929 67.4733 115.041 67.5978 C 115.153 67.7224 115.292 67.823 115.445 67.8911 " />
</g>

<g opacity="1.000000" fill="#ff7f0e" stroke-width="0.000000" id="id0000000293" >
<path id="id0000000331" d="M 130.755 71.6295 C 130.923 71.6295 131.09 71.5939 131.243 71.5257 C 131.396 71.4576 131.535 71.357 131.647 71.2324 C 131.759 71.1079 131.845 70.9597 131.896 70.8003 C 131.948 70.641 131.966 70.4707 131.949 70.3041 C 131.931 70.1374 131.878 69.9746 131.794 69.8295 C 131.711 69.6844 131.596 69.5572 131.461 69.4587 C 131.325 69.3602 131.169 69.2906 131.005 69.2557 C 130.841 69.2209 130.67 69.2209 130.506 69.2557 C 130.342 69.2906 130.185 69.3602 130.05 69.4587 C 129.914 69.5572 129.8 69.6844 129.716 69.8295 C 129.632 69.9746 129.579 70.1374 129.562 70.3041 C 129.544 70.4707 129.562 70.641 129.614 70.8003 C 129.666 70.9597 129.751 71.1079 129.863 71.2324 C 129.976 71.357 130.114 71.4576 130.267 71.5257 " />
</g>

<g opacity="1.000000" fill="#ff7f0e" stroke-width="0.000000" id="id0000000295" >
<path id="id0000000332" d="M 113.092 53.5267 C 113.26 53.5267 113.427 53.4911 113.58 53.423 C 113.733 53.3549 113.872 53.2542 113.984 53.1297 C 114.096 53.0052 114.182 52.8569 114.233 52.6976 C 114.285 52.5382 114.303 52.3679 114.286 52.2013 C 114.268 52.0347 114.215 51.8719 114.131 51.7267 C 114.048 51.5816 113.933 51.4544 113.798 51.3559 C 113.662 51.2574 113.506 51.1878 113.342 51.153 C 113.178 51.1181 113.007 51.1181 112.843 51.153 C 112.679 51.1878 112.522 51.2574 112.387 51.3559 C 112.251 51.4544 112.137 51.5816 112.053 51.7267 C 111.969 51.8719 111.916 52.0347 111.899 52.2013 C 111.881 52.3679 111.899 52.5382 111.951 52.6976 C 112.003 52.8569 112.088 53.0052 112.2 53.1297 C 112.313 53.2542 112.451 53.3549 112.604 53.423 " />
</g>

<g opacity="1.000000" fill="#ff7f0e" stroke-width="0.000000" id="id0000000297" >
<path id="id0000000333" d="M 120.737 58.542 C 120.904 58.542 121.072 58.5064 121.225 58.4382 C 121.378 58.3701 121.516 58.2694 121.629 58.1449 C 121.741 58.0204 121.826 57.8721 121.878 57.7128 C 121.93 57.5534 121.948 57.3832 121.93 57.2165 C 121.913 57.0499 121.86 56.8871 121.776 56.742 C 121.692 56.5968 121.578 56.4696 121.442 56.3711 C 121.307 56.2726 121.15 56.203 120.986 56.1682 C 120.822 56.1333 120.651 56.1333 120.487 56.1682 C 120.323 56.203 120.167 56.2726 120.031 56.3711 C 119.896 56.4696 119.781 56.5968 119.698 56.742 C 119.614 56.8871 119.561 57.0499 119.543 57.2165 C 119.526 57.3832 119.544 57.5534 119.595 57.7128 C 119.647 57.8721 119.733 58.0204 119.845 58.1449 C 119.957 58.2694 120.096 58.3701 120.249 58.4382 " />
</g>

<g opacity="1.000000" fill="#ff7f0e" stroke-width="0.000000" id="id0000000299" >
<path id="id0000000334" d="M 130.833 61.812 C 131 61.812 131.168 61.7765 131.321 61.7083 C 131.474 61.6402 131.612 61.5395 131.724 61.415 C 131.837 61.2905 131.922 61.1422 131.974 60.9829 C 132.026 60.8235 132.044 60.6532 132.026 60.4866 C 132.009 60.32 131.956 60.1572 131.872 60.0121 C 131.788 59.8669 131.674 59.7397 131.538 59.6412 C 131.402 59.5427 131.246 59.4731 131.082 59.4383 C 130.918 59.4034 130.747 59.4034 130.583 59.4383 C 130.419 59.4731 130.263 59.5427 130.127 59.6412 C 129.992 59.7397 129.877 59.8669 129.793 60.0121 C 129.71 60.1572 129.657 60.32 129.639 60.4866 C 129.622 60.6532 129.64 60.8235 129.691 60.9829 C 129.743 61.1422 129.829 61.2905 129.941 61.415 C 130.053 61.5395 130.192 61.6402 130.345 61.7083 " />
</g>

<g opacity="1.000000" fill="#ff7f0e" stroke-width="0.000000" id="id0000000301" >
<path id="id0000000335" d="M 135.149 41.7831 C 135.316 41.7831 135.484 41.7475 135.637 41.6793 C 135.79 41.6112 135.929 41.5105 136.041 41.386 C 136.153 41.2615 136.238 41.1132 136.29 40.9539 C 136.342 40.7945 136.36 40.6243 136.342 40.4576 C 136.325 40.291 136.272 40.1282 136.188 39.9831 C 136.104 39.8379 135.99 39.7107 135.854 39.6122 C 135.719 39.5137 135.562 39.4441 135.398 39.4093 C 135.235 39.3744 135.063 39.3744 134.899 39.4093 C 134.736 39.4441 134.579 39.5137 134.444 39.6122 C 134.308 39.7107 134.193 39.838 134.11 39.9831 C 134.026 40.1282 133.973 40.291 133.956 40.4576 C 133.938 40.6243 133.956 40.7945 134.008 40.9539 C 134.059 41.1132 134.145 41.2615 134.257 41.386 C 134.369 41.5105 134.508 41.6112 134.661 41.6793 " />
</g>

<g opacity="1.000000" fill="#ff7f0e" stroke-width="0.000000" id="id0000000303" >
<path id="id0000000336" d="M 141.42 43.5084 C 141.588 43.5084 141.755 43.4729 141.908 43.4047 C 142.061 43.3366 142.2 43.2359 142.312 43.1114 C 142.424 42.9869 142.51 42.8386 142.562 42.6793 C 142.613 42.5199 142.631 42.3496 142.614 42.183 C 142.596 42.0164 142.543 41.8536 142.459 41.7085 C 142.376 41.5633 142.261 41.4361 142.126 41.3376 C 141.99 41.2391 141.834 41.1695 141.67 41.1347 C 141.506 41.0998 141.335 41.0998 141.171 41.1347 C 141.007 41.1695 140.85 41.2391 140.715 41.3376 C 140.579 41.4361 140.465 41.5633 140.381 41.7085 C 140.297 41.8536 140.244 42.0164 140.227 42.183 C 140.209 42.3496 140.227 42.5199 140.279 42.6793 C 140.331 42.8386 140.416 42.9869 140.528 43.1114 C 140.641 43.2359 140.779 43.3366 140.932 43.4047 " />
</g>

<g opacity="1.000000" fill="#ff7f0e" stroke-width="0.000000" id="id0000000305" >
<path id="id0000000337" d="M 157.544 64.4323 C 157.712 64.4323 157.879 64.3968 158.032 64.3286 C 158.185 64.2605 158.324 64.1598 158.436 64.0353 C 158.548 63.9108 158.634 63.7625 158.686 63.6032 C 158.737 63.4438 158.755 63.2735 158.738 63.1069 C 158.72 62.9403 158.667 62.7775 158.583 62.6323 C 158.5 62.4872 158.385 62.36 158.25 62.2615 C 158.114 62.163 157.958 62.0934 157.794 62.0586 C 157.63 62.0237 157.459 62.0237 157.295 62.0586 C 157.131 62.0934 156.974 62.163 156.839 62.2615 C 156.703 62.36 156.589 62.4872 156.505 62.6323 C 156.421 62.7775 156.368 62.9403 156.351 63.1069 C 156.333 63.2735 156.351 63.4438 156.403 63.6032 C 156.455 63.7625 156.54 63.9108 156.652 64.0353 C 156.765 64.1598 156.903 64.2605 157.056 64.3286 " />
</g>

<g opacity="1.000000" fill="#ff7f0e" stroke-width="0.000000" id="id0000000307" >
<path id="id0000000338" d="M 146.316 56.9351 C 146.484 56.9351 146.651 56.8995 146.804 56.8313 C 146.957 56.7632 147.096 56.6626 147.208 56.538 C 147.32 56.4135 147.406 56.2653 147.458 56.1059 C 147.509 55.9466 147.527 55.7763 147.51 55.6097 C 147.492 55.443 147.439 55.2802 147.356 55.1351 C 147.272 54.99 147.157 54.8628 147.022 54.7643 C 146.886 54.6658 146.73 54.5961 146.566 54.5613 C 146.402 54.5265 146.231 54.5265 146.067 54.5613 C 145.903 54.5961 145.746 54.6658 145.611 54.7643 C 145.475 54.8628 145.361 54.99 145.277 55.1351 C 145.193 55.2802 145.14 55.443 145.123 55.6097 C 145.105 55.7763 145.123 55.9466 145.175 56.1059 C 145.227 56.2653 145.312 56.4135 145.425 56.538 C 145.537 56.6626 145.675 56.7632 145.828 56.8313 " />
</g>

<g opacity="1.000000" fill="#ff7f0e" stroke-width="0.000000" id="id0000000309" >
<path id="id0000000339" d="M 178.935 58.8236 C 179.103 58.8236 179.27 58.788 179.423 58.7198 C 179.576 58.6517 179.715 58.551 179.827 58.4265 C 179.939 58.302 180.025 58.1537 180.076 57.9944 C 180.128 57.835 180.146 57.6648 180.128 57.4981 C 180.111 57.3315 180.058 57.1687 179.974 57.0236 C 179.891 56.8784 179.776 56.7512 179.64 56.6527 C 179.505 56.5542 179.348 56.4846 179.185 56.4498 C 179.021 56.4149 178.849 56.4149 178.686 56.4498 C 178.522 56.4846 178.365 56.5542 178.23 56.6527 C 178.094 56.7512 177.98 56.8784 177.896 57.0236 C 177.812 57.1687 177.759 57.3315 177.742 57.4981 C 177.724 57.6648 177.742 57.835 177.794 57.9944 C 177.846 58.1537 177.931 58.302 178.043 58.4265 C 178.155 58.551 178.294 58.6517 178.447 58.7198 " />
</g>

<g opacity="1.000000" fill="#ff7f0e" stroke-width="0.000000" id="id0000000311" >
<path id="id0000000340" d="M 164.035 70.1411 C 164.202 70.1411 164.37 70.1055 164.523 70.0373 C 164.676 69.9692 164.814 69.8685 164.926 69.744 C 165.038 69.6195 165.124 69.4712 165.176 69.3119 C 165.228 69.1525 165.245 68.9823 165.228 68.8156 C 165.21 68.649 165.158 68.4862 165.074 68.3411 C 164.99 68.196 164.875 68.0687 164.74 67.9702 C 164.604 67.8717 164.448 67.8021 164.284 67.7673 C 164.12 67.7324 163.949 67.7324 163.785 67.7673 C 163.621 67.8021 163.465 67.8717 163.329 67.9702 C 163.194 68.0687 163.079 68.196 162.995 68.3411 C 162.912 68.4862 162.859 68.649 162.841 68.8156 C 162.824 68.9823 162.842 69.1525 162.893 69.3119 C 162.945 69.4712 163.031 69.6195 163.143 69.744 C 163.255 69.8685 163.393 69.9692 163.546 70.0373 " />
</g>

<g opacity="1.000000" fill="#ff7f0e" stroke-width="0.000000" id="id0000000313" >
<path id="id0000000341" d="M 171.893 71.1573 C 172.06 71.1573 172.228 71.1217 172.381 71.0536 C 172.534 70.9854 172.673 70.8848 172.785 70.7603 C 172.897 70.6358 172.982 70.4875 173.034 70.3282 C 173.086 70.1688 173.104 69.9985 173.086 69.8319 C 173.069 69.6653 173.016 69.5024 172.932 69.3573 C 172.848 69.2122 172.734 69.085 172.598 68.9865 C 172.463 68.888 172.306 68.8184 172.142 68.7836 C 171.978 68.7487 171.807 68.7487 171.643 68.7836 C 171.479 68.8184 171.323 68.888 171.188 68.9865 C 171.052 69.085 170.937 69.2122 170.854 69.3573 C 170.77 69.5024 170.717 69.6653 170.699 69.8319 C 170.682 69.9985 170.7 70.1688 170.752 70.3282 C 170.803 70.4875 170.889 70.6358 171.001 70.7603 C 171.113 70.8848 171.252 70.9854 171.405 71.0536 " />
</g>

<g opacity="1.000000" fill="#ff7f0e" stroke-width="0.000000" id="id0000000315" >
<path id="id0000000342" d="M 162.522 52.914 C 162.689 52.914 162.857 52.8784 163.01 52.8102 C 163.163 52.7421 163.301 52.6414 163.413 52.5169 C 163.525 52.3924 163.611 52.2441 163.663 52.0848 C 163.715 51.9254 163.733 51.7552 163.715 51.5885 C 163.698 51.4219 163.645 51.2591 163.561 51.114 C 163.477 50.9689 163.363 50.8416 163.227 50.7431 C 163.091 50.6447 162.935 50.575 162.771 50.5402 C 162.607 50.5053 162.436 50.5053 162.272 50.5402 C 162.108 50.575 161.952 50.6447 161.816 50.7431 C 161.681 50.8416 161.566 50.9689 161.482 51.114 C 161.399 51.2591 161.346 51.4219 161.328 51.5885 C 161.311 51.7552 161.329 51.9254 161.38 52.0848 C 161.432 52.2441 161.518 52.3924 161.63 52.5169 C 161.742 52.6414 161.88 52.7421 162.034 52.8102 " />
</g>

<g opacity="1.000000" fill="#ff7f0e" stroke-width="0.000000" id="id0000000317" >
<path id="id0000000343" d="M 172.671 55.0829 C 172.839 55.0829 173.006 55.0473 173.159 54.9792 C 173.312 54.9111 173.451 54.8104 173.563 54.6859 C 173.675 54.5614 173.76 54.4131 173.812 54.2538 C 173.864 54.0944 173.882 53.9241 173.864 53.7575 C 173.847 53.5909 173.794 53.4281 173.71 53.2829 C 173.626 53.1378 173.512 53.0106 173.376 52.9121 C 173.241 52.8136 173.084 52.744 172.92 52.7092 C 172.757 52.6743 172.585 52.6743 172.421 52.7092 C 172.258 52.744 172.101 52.8136 171.966 52.9121 C 171.83 53.0106 171.715 53.1378 171.632 53.2829 C 171.548 53.4281 171.495 53.5909 171.478 53.7575 C 171.46 53.9241 171.478 54.0944 171.53 54.2538 C 171.581 54.4131 171.667 54.5614 171.779 54.6859 C 171.891 54.8104 172.03 54.9111 172.183 54.9792 " />
</g>

</g>

<g id="id0000000344" >
<g opacity="1.000000" fill="#2ca02c" stroke-width="0.000000" id="id0000000345" >
<path id="id0000000395" d="M 38.4997 46.1284 C 38.6673 46.1284 38.8348 46.0928 38.9878 46.0246 C 39.1409 45.9565 39.2794 45.8558 39.3915 45.7313 C 39.5036 45.6068 39.5892 45.4585 39.641 45.2992 C 39.6928 45.1398 39.7107 44.9696 39.6932 44.8029 C 39.6757 44.6363 39.6227 44.4735 39.539 44.3284 C 39.4552 44.1833 39.3406 44.056 39.2051 43.9576 C 39.0695 43.8591 38.9131 43.7894 38.7492 43.7546 C 38.5853 43.7198 38.4141 43.7198 38.2502 43.7546 C 38.0864 43.7894 37.93 43.8591 37.7944 43.9576 C 37.6588 44.056 37.5443 44.1833 37.4605 44.3284 C 37.3767 44.4735 37.3238 44.6363 37.3063 44.8029 C 37.2888 44.9696 37.3067 45.1398 37.3585 45.2992 C 37.4102 45.4585 37.4959 45.6068 37.608 45.7313 C 37.7201 45.8558 37.8586 45.9565 38.0117 46.0246 " />
</g>

<g opacity="1.000000" fill="#2ca02c" stroke-width="0.000000" id="id0000000347" >
<path id="id0000000396" d="M 43.8876 53.3196 C 44.0551 53.3196 44.2226 53.284 44.3757 53.2159 C 44.5287 53.1477 44.6672 53.0471 44.7793 52.9226 C 44.8915 52.798 44.9771 52.6498 45.0288 52.4904 C 45.0806 52.3311 45.0985 52.1608 45.081 51.9942 C 45.0635 51.8275 45.0106 51.6647 44.9268 51.5196 C 44.843 51.3745 44.7285 51.2473 44.5929 51.1488 C 44.4574 51.0503 44.301 50.9807 44.1371 50.9458 C 43.9732 50.911 43.802 50.911 43.6381 50.9458 C 43.4742 50.9807 43.3178 51.0503 43.1822 51.1488 C 43.0467 51.2473 42.9321 51.3745 42.8483 51.5196 C 42.7646 51.6647 42.7117 51.8275 42.6941 51.9942 C 42.6766 52.1608 42.6945 52.3311 42.7463 52.4904 C 42.7981 52.6498 42.8837 52.798 42.9958 52.9226 C 43.1079 53.0471 43.2464 53.1477 43.3995 53.2159 " />
</g>

<g opacity="1.000000" fill="#2ca02c" stroke-width="0.000000" id="id0000000349" >
<path id="id0000000397" d="M 57.2805 46.0915 C 57.4481 46.0915 57.6155 46.0559 57.7686 45.9877 C 57.9217 45.9196 58.0602 45.819 58.1723 45.6944 C 58.2844 45.5699 58.37 45.4217 58.4218 45.2623 C 58.4736 45.103 58.4915 44.9327 58.4739 44.7661 C 58.4564 44.5994 58.4035 44.4366 58.3197 44.2915 C 58.236 44.1464 58.1214 44.0191 57.9859 43.9207 C 57.8503 43.8222 57.6939 43.7525 57.53 43.7177 C 57.3661 43.6829 57.1949 43.6829 57.031 43.7177 C 56.8671 43.7525 56.7107 43.8222 56.5752 43.9207 C 56.4396 44.0191 56.3251 44.1464 56.2413 44.2915 C 56.1575 44.4366 56.1046 44.5994 56.0871 44.7661 C 56.0696 44.9327 56.0875 45.103 56.1393 45.2623 C 56.191 45.4217 56.2766 45.5699 56.3887 45.6944 C 56.5009 45.819 56.6394 45.9196 56.7924 45.9877 " />
</g>

<g opacity="1.000000" fill="#2ca02c" stroke-width="0.000000" id="id0000000351" >
<path id="id0000000398" d="M 44.852 26.4262 C 45.0196 26.4262 45.187 26.3906 45.3401 26.3224 C 45.4932 26.2543 45.6317 26.1536 45.7438 26.0291 C 45.8559 25.9046 45.9415 25.7563 45.9933 25.597 C 46.0451 25.4376 46.063 25.2674 46.0454 25.1007 C 46.0279 24.9341 45.975 24.7713 45.8913 24.6262 C 45.8075 24.4811 45.6929 24.3538 45.5574 24.2554 C 45.4218 24.1569 45.2654 24.0872 45.1015 24.0524 C 44.9376 24.0176 44.7664 24.0176 44.6025 24.0524 C 44.4386 24.0872 44.2822 24.1569 44.1467 24.2554 C 44.0111 24.3538 43.8966 24.4811 43.8128 24.6262 C 43.729 24.7713 43.6761 24.9341 43.6586 25.1007 C 43.6411 25.2674 43.659 25.4376 43.7108 25.597 C 43.7625 25.7563 43.8481 25.9046 43.9602 26.0291 C 44.0724 26.1536 44.2109 26.2543 44.3639 26.3224 " />
</g>

<g opacity="1.000000" fill="#2ca02c" stroke-width="0.000000" id="id0000000353" >
<path id="id0000000399" d="M 84.0683 47.2485 C 84.2358 47.2485 84.4033 47.2129 84.5564 47.1448 C 84.7094 47.0766 84.848 46.976 84.9601 46.8515 C 85.0722 46.7269 85.1578 46.5787 85.2096 46.4193 C 85.2613 46.26 85.2792 46.0897 85.2617 45.9231 C 85.2442 45.7564 85.1913 45.5936 85.1075 45.4485 C 85.0238 45.3034 84.9092 45.1762 84.7736 45.0777 C 84.6381 44.9792 84.4817 44.9096 84.3178 44.8747 C 84.1539 44.8399 83.9827 44.8399 83.8188 44.8747 C 83.6549 44.9096 83.4985 44.9792 83.363 45.0777 C 83.2274 45.1762 83.1128 45.3034 83.0291 45.4485 C 82.9453 45.5936 82.8924 45.7564 82.8749 45.9231 C 82.8574 46.0897 82.8753 46.26 82.927 46.4193 C 82.9788 46.5787 83.0644 46.7269 83.1765 46.8515 C 83.2886 46.976 83.4271 47.0766 83.5802 47.1448 " />
</g>

<g opacity="1.000000" fill="#2ca02c" stroke-width="0.000000" id="id0000000355" >
<path id="id0000000400" d="M 88.2258 51.4545 C 88.3933 51.4545 88.5608 51.4189 88.7138 51.3508 C 88.8669 51.2826 89.0054 51.182 89.1175 51.0575 C 89.2296 50.933 89.3152 50.7847 89.367 50.6254 C 89.4188 50.466 89.4367 50.2957 89.4192 50.1291 C 89.4017 49.9625 89.3488 49.7996 89.265 49.6545 C 89.1812 49.5094 89.0667 49.3822 88.9311 49.2837 C 88.7955 49.1852 88.6391 49.1156 88.4753 49.0808 C 88.3114 49.0459 88.1402 49.0459 87.9763 49.0808 C 87.8124 49.1156 87.656 49.1852 87.5204 49.2837 C 87.3849 49.3822 87.2703 49.5094 87.1865 49.6545 C 87.1027 49.7996 87.0498 49.9625 87.0323 50.1291 C 87.0148 50.2957 87.0327 50.466 87.0845 50.6254 C 87.1363 50.7847 87.2219 50.933 87.334 51.0575 C 87.4461 51.182 87.5846 51.2826 87.7377 51.3508 " />
</g>

<g opacity="1.000000" fill="#2ca02c" stroke-width="0.000000" id="id0000000357" >
<path id="id0000000401" d="M 68.6181 19.9867 C 68.7856 19.9867 68.9531 19.9511 69.1062 19.8829 C 69.2592 19.8148 69.3977 19.7141 69.5099 19.5896 C 69.622 19.4651 69.7076 19.3168 69.7593 19.1575 C 69.8111 18.9981 69.829 18.8279 69.8115 18.6612 C 69.794 18.4946 69.7411 18.3318 69.6573 18.1867 C 69.5735 18.0415 69.459 17.9143 69.3234 17.8158 C 69.1879 17.7173 69.0315 17.6477 68.8676 17.6129 C 68.7037 17.578 68.5325 17.578 68.3686 17.6129 C 68.2047 17.6477 68.0483 17.7173 67.9127 17.8158 C 67.7772 17.9143 67.6626 18.0415 67.5788 18.1867 C 67.4951 18.3318 67.4422 18.4946 67.4247 18.6612 C 67.4071 18.8279 67.425 18.9981 67.4768 19.1575 C 67.5286 19.3168 67.6142 19.4651 67.7263 19.5896 C 67.8384 19.7141 67.9769 19.8148 68.13 19.8829 " />
</g>

<g opacity="1.000000" fill="#2ca02c" stroke-width="0.000000" id="id0000000359" >
<path id="id0000000402" d="M 83.0875 22.8968 C 83.2551 22.8968 83.4225 22.8612 83.5756 22.793 C 83.7287 22.7249 83.8672 22.6242 83.9793 22.4997 C 84.0914 22.3752 84.177 22.2269 84.2288 22.0676 C 84.2806 21.9082 84.2985 21.738 84.281 21.5713 C 84.2634 21.4047 84.2105 21.2419 84.1268 21.0968 C 84.043 20.9517 83.9284 20.8244 83.7929 20.726 C 83.6573 20.6275 83.5009 20.5578 83.337 20.523 C 83.1731 20.4882 83.0019 20.4882 82.838 20.523 C 82.6741 20.5578 82.5177 20.6275 82.3822 20.726 C 82.2466 20.8244 82.1321 20.9517 82.0483 21.0968 C 81.9645 21.2419 81.9116 21.4047 81.8941 21.5713 C 81.8766 21.738 81.8945 21.9082 81.9463 22.0676 C 81.998 22.2269 82.0836 22.3752 82.1957 22.4997 C 82.3079 22.6242 82.4464 22.7249 82.5994 22.793 " />
</g>

<g opacity="1.000000" fill="#2ca02c" stroke-width="0.000000" id="id0000000361" >
<path id="id0000000403" d="M 72.2468 48.4125 C 72.4143 48.4125 72.5818 48.3769 72.7348 48.3088 C 72.8879 48.2407 73.0264 48.14 73.1385 48.0155 C 73.2507 47.891 73.3363 47.7427 73.388 47.5834 C 73.4398 47.424 73.4577 47.2537 73.4402 47.0871 C 73.4227 46.9205 73.3698 46.7576 73.286 46.6125 C 73.2022 46.4674 73.0877 46.3402 72.9521 46.2417 C 72.8166 46.1432 72.6601 46.0736 72.4963 46.0388 C 72.3324 46.0039 72.1612 46.0039 71.9973 46.0388 C 71.8334 46.0736 71.677 46.1432 71.5414 46.2417 C 71.4059 46.3402 71.2913 46.4674 71.2075 46.6125 C 71.1238 46.7576 71.0709 46.9205 71.0533 47.0871 C 71.0358 47.2537 71.0537 47.424 71.1055 47.5834 C 71.1573 47.7427 71.2429 47.891 71.355 48.0155 C 71.4671 48.14 71.6056 48.2407 71.7587 48.3088 " />
</g>

<g opacity="1.000000" fill="#2ca02c" stroke-width="0.000000" id="id0000000363" >
<path id="id0000000404" d="M 94.5885 35.8951 C 94.7561 35.8951 94.9236 35.8596 95.0766 35.7914 C 95.2297 35.7233 95.3682 35.6226 95.4803 35.4981 C 95.5924 35.3736 95.678 35.2253 95.7298 35.066 C 95.7816 34.9066 95.7995 34.7363 95.782 34.5697 C 95.7645 34.4031 95.7116 34.2402 95.6278 34.0951 C 95.544 33.95 95.4294 33.8228 95.2939 33.7243 C 95.1583 33.6258 95.0019 33.5562 94.838 33.5214 C 94.6741 33.4865 94.5029 33.4865 94.3391 33.5214 C 94.1752 33.5562 94.0188 33.6258 93.8832 33.7243 C 93.7477 33.8228 93.6331 33.95 93.5493 34.0951 C 93.4655 34.2402 93.4126 34.4031 93.3951 34.5697 C 93.3776 34.7363 93.3955 34.9066 93.4473 35.066 C 93.4991 35.2253 93.5847 35.3736 93.6968 35.4981 C 93.8089 35.6226 93.9474 35.7233 94.1005 35.7914 " />
</g>

<g opacity="1.000000" fill="#2ca02c" stroke-width="0.000000" id="id0000000365" >
<path id="id0000000405" d="M 95.049 32.1424 C 95.2165 32.1424 95.384 32.1068 95.5371 32.0386 C 95.6901 31.9705 95.8286 31.8698 95.9408 31.7453 C 96.0529 31.6208 96.1385 31.4725 96.1902 31.3132 C 96.242 31.1538 96.2599 30.9836 96.2424 30.8169 C 96.2249 30.6503 96.172 30.4875 96.0882 30.3424 C 96.0044 30.1973 95.8899 30.07 95.7543 29.9715 C 95.6188 29.8731 95.4624 29.8034 95.2985 29.7686 C 95.1346 29.7337 94.9634 29.7337 94.7995 29.7686 C 94.6356 29.8034 94.4792 29.8731 94.3436 29.9715 C 94.2081 30.07 94.0935 30.1973 94.0097 30.3424 C 93.926 30.4875 93.8731 30.6503 93.8555 30.8169 C 93.838 30.9836 93.8559 31.1538 93.9077 31.3132 C 93.9595 31.4725 94.0451 31.6208 94.1572 31.7453 C 94.2693 31.8698 94.4078 31.9705 94.5609 32.0386 " />
</g>

<g opacity="1.000000" fill="#2ca02c" stroke-width="0.000000" id="id0000000367" >
<path id="id0000000406" d="M 99.8138 49.3612 C 99.9814 49.3612 100.149 49.3257 100.302 49.2575 C 100.455 49.1894 100.594 49.0887 100.706 48.9642 C 100.818 48.8397 100.903 48.6914 100.955 48.5321 C 101.007 48.3727 101.025 48.2024 101.007 48.0358 C 100.99 47.8692 100.937 47.7064 100.853 47.5612 C 100.769 47.4161 100.655 47.2889 100.519 47.1904 C 100.384 47.0919 100.227 47.0223 100.063 46.9875 C 99.8994 46.9526 99.7282 46.9526 99.5643 46.9875 C 99.4005 47.0223 99.244 47.0919 99.1085 47.1904 C 98.9729 47.2889 98.8584 47.4161 98.7746 47.5612 C 98.6908 47.7064 98.6379 47.8692 98.6204 48.0358 C 98.6029 48.2024 98.6208 48.3727 98.6726 48.5321 C 98.7243 48.6914 98.81 48.8397 98.9221 48.9642 C 99.0342 49.0887 99.1727 49.1894 99.3258 49.2575 " />
</g>

<g opacity="1.000000" fill="#2ca02c" stroke-width="0.000000" id="id0000000369" >
<path id="id0000000407" d="M 112.027 35.7023 C 112.195 35.7023 112.362 35.6667 112.515 35.5986 C 112.668 35.5304 112.807 35.4298 112.919 35.3053 C 113.031 35.1808 113.117 35.0325 113.168 34.8731 C 113.22 34.7138 113.238 34.5435 113.22 34.3769 C 113.203 34.2103 113.15 34.0474 113.066 33.9023 C 112.983 33.7572 112.868 33.63 112.732 33.5315 C 112.597 33.433 112.44 33.3634 112.277 33.3285 C 112.113 33.2937 111.941 33.2937 111.778 33.3285 C 111.614 33.3634 111.457 33.433 111.322 33.5315 C 111.186 33.63 111.072 33.7572 110.988 33.9023 C 110.904 34.0474 110.851 34.2103 110.834 34.3769 C 110.816 34.5435 110.834 34.7138 110.886 34.8731 C 110.938 35.0325 111.023 35.1808 111.135 35.3053 C 111.247 35.4298 111.386 35.5304 111.539 35.5986 " />
</g>

<g opacity="1.000000" fill="#2ca02c" stroke-width="0.000000" id="id0000000371" >
<path id="id0000000408" d="M 118.672 35.3724 C 118.84 35.3724 119.007 35.3368 119.16 35.2686 C 119.313 35.2005 119.452 35.0999 119.564 34.9753 C 119.676 34.8508 119.762 34.7026 119.813 34.5432 C 119.865 34.3839 119.883 34.2136 119.865 34.047 C 119.848 33.8803 119.795 33.7175 119.711 33.5724 C 119.627 33.4273 119.513 33.3 119.377 33.2016 C 119.242 33.1031 119.085 33.0334 118.922 32.9986 C 118.758 32.9638 118.586 32.9638 118.423 32.9986 C 118.259 33.0334 118.102 33.1031 117.967 33.2016 C 117.831 33.3 117.717 33.4273 117.633 33.5724 C 117.549 33.7175 117.496 33.8803 117.479 34.047 C 117.461 34.2136 117.479 34.3839 117.531 34.5432 C 117.583 34.7026 117.668 34.8508 117.78 34.9753 C 117.892 35.0999 118.031 35.2005 118.184 35.2686 " />
</g>

<g opacity="1.000000" fill="#2ca02c" stroke-width="0.000000" id="id0000000373" >
<path id="id0000000409" d="M 125.034 25.7387 C 125.201 25.7387 125.369 25.7031 125.522 25.635 C 125.675 25.5668 125.813 25.4662 125.925 25.3417 C 126.037 25.2172 126.123 25.0689 126.175 24.9095 C 126.227 24.7502 126.244 24.5799 126.227 24.4133 C 126.209 24.2466 126.157 24.0838 126.073 23.9387 C 125.989 23.7936 125.874 23.6664 125.739 23.5679 C 125.603 23.4694 125.447 23.3998 125.283 23.3649 C 125.119 23.3301 124.948 23.3301 124.784 23.3649 C 124.62 23.3998 124.464 23.4694 124.328 23.5679 C 124.193 23.6664 124.078 23.7936 123.994 23.9387 C 123.91 24.0838 123.858 24.2466 123.84 24.4133 C 123.823 24.5799 123.84 24.7502 123.892 24.9095 C 123.944 25.0689 124.03 25.2172 124.142 25.3417 C 124.254 25.4662 124.392 25.5668 124.545 25.635 " />
</g>

<g opacity="1.000000" fill="#2ca02c" stroke-width="0.000000" id="id0000000375" >
<path id="id0000000410" d="M 121.83 37.5034 C 121.998 37.5034 122.165 37.4678 122.318 37.3997 C 122.471 37.3316 122.61 37.2309 122.722 37.1064 C 122.834 36.9819 122.92 36.8336 122.971 36.6743 C 123.023 36.5149 123.041 36.3446 123.024 36.178 C 123.006 36.0114 122.953 35.8485 122.869 35.7034 C 122.786 35.5583 122.671 35.4311 122.535 35.3326 C 122.4 35.2341 122.243 35.1645 122.08 35.1297 C 121.916 35.0948 121.744 35.0948 121.581 35.1297 C 121.417 35.1645 121.26 35.2341 121.125 35.3326 C 120.989 35.4311 120.875 35.5583 120.791 35.7034 C 120.707 35.8485 120.654 36.0114 120.637 36.178 C 120.619 36.3446 120.637 36.5149 120.689 36.6743 C 120.741 36.8336 120.826 36.9819 120.938 37.1064 C 121.05 37.2309 121.189 37.3316 121.342 37.3997 " />
</g>

<g opacity="1.000000" fill="#2ca02c" stroke-width="0.000000" id="id0000000377" >
<path id="id0000000411" d="M 146.013 16.7399 C 146.18 16.7399 146.348 16.7043 146.501 16.6361 C 146.654 16.568 146.793 16.4673 146.905 16.3428 C 147.017 16.2183 147.102 16.07 147.154 15.9107 C 147.206 15.7513 147.224 15.5811 147.206 15.4144 C 147.189 15.2478 147.136 15.085 147.052 14.9399 C 146.968 14.7948 146.854 14.6675 146.718 14.5691 C 146.583 14.4706 146.426 14.4009 146.262 14.3661 C 146.099 14.3313 145.927 14.3313 145.763 14.3661 C 145.6 14.4009 145.443 14.4706 145.308 14.5691 C 145.172 14.6675 145.057 14.7948 144.974 14.9399 C 144.89 15.085 144.837 15.2478 144.82 15.4144 C 144.802 15.5811 144.82 15.7513 144.872 15.9107 C 144.923 16.07 145.009 16.2183 145.121 16.3428 C 145.233 16.4673 145.372 16.568 145.525 16.6361 " />
</g>

<g opacity="1.000000" fill="#2ca02c" stroke-width="0.000000" id="id0000000379" >
<path id="id0000000412" d="M 140.615 12.2414 C 140.782 12.2414 140.95 12.2058 141.103 12.1377 C 141.256 12.0695 141.394 11.9689 141.507 11.8444 C 141.619 11.7199 141.704 11.5716 141.756 11.4123 C 141.808 11.2529 141.826 11.0826 141.808 10.916 C 141.791 10.7494 141.738 10.5865 141.654 10.4414 C 141.57 10.2963 141.456 10.1691 141.32 10.0706 C 141.185 9.97213 141.028 9.90249 140.864 9.86766 C 140.7 9.83282 140.529 9.83282 140.365 9.86766 C 140.201 9.90249 140.045 9.97213 139.909 10.0706 C 139.774 10.1691 139.659 10.2963 139.576 10.4414 C 139.492 10.5865 139.439 10.7494 139.421 10.916 C 139.404 11.0826 139.422 11.2529 139.474 11.4123 C 139.525 11.5716 139.611 11.7199 139.723 11.8444 C 139.835 11.9689 139.974 12.0695 140.127 12.1377 " />
</g>

<g opacity="1.000000" fill="#2ca02c" stroke-width="0.000000" id="id0000000381" >
<path id="id0000000413" d="M 138.202 26.7171 C 138.37 26.7171 138.537 26.6815 138.69 26.6134 C 138.843 26.5452 138.982 26.4446 139.094 26.3201 C 139.206 26.1956 139.292 26.0473 139.343 25.888 C 139.395 25.7286 139.413 25.5583 139.396 25.3917 C 139.378 25.2251 139.325 25.0622 139.241 24.9171 C 139.158 24.772 139.043 24.6448 138.908 24.5463 C 138.772 24.4478 138.616 24.3782 138.452 24.3434 C 138.288 24.3085 138.117 24.3085 137.953 24.3434 C 137.789 24.3782 137.632 24.4478 137.497 24.5463 C 137.361 24.6448 137.247 24.772 137.163 24.9171 C 137.079 25.0622 137.026 25.2251 137.009 25.3917 C 136.991 25.5583 137.009 25.7286 137.061 25.888 C 137.113 26.0473 137.198 26.1956 137.31 26.3201 C 137.423 26.4446 137.561 26.5452 137.714 26.6134 " />
</g>

<g opacity="1.000000" fill="#2ca02c" stroke-width="0.000000" id="id0000000383" >
<path id="id0000000414" d="M 155.013 38.7896 C 155.181 38.7896 155.348 38.754 155.501 38.6858 C 155.655 38.6177 155.793 38.5171 155.905 38.3925 C 156.017 38.268 156.103 38.1198 156.155 37.9604 C 156.206 37.8011 156.224 37.6308 156.207 37.4641 C 156.189 37.2975 156.136 37.1347 156.053 36.9896 C 155.969 36.8445 155.854 36.7172 155.719 36.6188 C 155.583 36.5203 155.427 36.4506 155.263 36.4158 C 155.099 36.381 154.928 36.381 154.764 36.4158 C 154.6 36.4506 154.444 36.5203 154.308 36.6188 C 154.172 36.7172 154.058 36.8445 153.974 36.9896 C 153.89 37.1347 153.837 37.2975 153.82 37.4641 C 153.802 37.6308 153.82 37.8011 153.872 37.9604 C 153.924 38.1198 154.009 38.268 154.122 38.3925 C 154.234 38.5171 154.372 38.6177 154.525 38.6858 " />
</g>

<g opacity="1.000000" fill="#2ca02c" stroke-width="0.000000" id="id0000000385" >
<path id="id0000000415" d="M 148.096 26.6403 C 148.264 26.6403 148.431 26.6047 148.584 26.5365 C 148.737 26.4684 148.876 26.3678 148.988 26.2432 C 149.1 26.1187 149.185 25.9705 149.237 25.8111 C 149.289 25.6518 149.307 25.4815 149.289 25.3149 C 149.272 25.1482 149.219 24.9854 149.135 24.8403 C 149.051 24.6952 148.937 24.568 148.801 24.4695 C 148.666 24.371 148.509 24.3014 148.345 24.2665 C 148.182 24.2317 148.01 24.2317 147.846 24.2665 C 147.683 24.3014 147.526 24.371 147.391 24.4695 C 147.255 24.568 147.141 24.6952 147.057 24.8403 C 146.973 24.9854 146.92 25.1482 146.903 25.3149 C 146.885 25.4815 146.903 25.6518 146.955 25.8111 C 147.007 25.9705 147.092 26.1187 147.204 26.2432 C 147.316 26.3678 147.455 26.4684 147.608 26.5365 " />
</g>

<g opacity="1.000000" fill="#2ca02c" stroke-width="0.000000" id="id0000000387" >
<path id="id0000000416" d="M 157.662 17.3733 C 157.829 17.3733 157.997 17.3377 158.15 17.2696 C 158.303 17.2014 158.441 17.1008 158.554 16.9763 C 158.666 16.8518 158.751 16.7035 158.803 16.5441 C 158.855 16.3848 158.873 16.2145 158.855 16.0479 C 158.838 15.8812 158.785 15.7184 158.701 15.5733 C 158.617 15.4282 158.503 15.301 158.367 15.2025 C 158.232 15.104 158.075 15.0344 157.911 14.9995 C 157.747 14.9647 157.576 14.9647 157.412 14.9995 C 157.248 15.0344 157.092 15.104 156.956 15.2025 C 156.821 15.301 156.706 15.4282 156.623 15.5733 C 156.539 15.7184 156.486 15.8812 156.468 16.0479 C 156.451 16.2145 156.469 16.3848 156.521 16.5441 C 156.572 16.7035 156.658 16.8518 156.77 16.9763 C 156.882 17.1008 157.021 17.2014 157.174 17.2696 " />
</g>

<g opacity="1.000000" fill="#2ca02c" stroke-width="0.000000" id="id0000000389" >
<path id="id0000000417" d="M 166.526 34.0739 C 166.693 34.0739 166.861 34.0383 167.014 33.9701 C 167.167 33.902 167.306 33.8013 167.418 33.6768 C 167.53 33.5523 167.615 33.404 167.667 33.2447 C 167.719 33.0853 167.737 32.9151 167.719 32.7484 C 167.702 32.5818 167.649 32.419 167.565 32.2739 C 167.481 32.1288 167.367 32.0015 167.231 31.9031 C 167.096 31.8046 166.939 31.7349 166.775 31.7001 C 166.611 31.6653 166.44 31.6653 166.276 31.7001 C 166.112 31.7349 165.956 31.8046 165.821 31.9031 C 165.685 32.0015 165.57 32.1288 165.487 32.2739 C 165.403 32.419 165.35 32.5818 165.332 32.7484 C 165.315 32.9151 165.333 33.0853 165.385 33.2447 C 165.436 33.404 165.522 33.5523 165.634 33.6768 C 165.746 33.8013 165.885 33.902 166.038 33.9701 " />
</g>

<g opacity="1.000000" fill="#2ca02c" stroke-width="0.000000" id="id0000000391" >
<path id="id0000000418" d="M 178.333 14.8209 C 178.501 14.8209 178.668 14.7853 178.821 14.7171 C 178.974 14.649 179.113 14.5483 179.225 14.4238 C 179.337 14.2993 179.423 14.151 179.475 13.9917 C 179.526 13.8323 179.544 13.6621 179.527 13.4954 C 179.509 13.3288 179.456 13.166 179.373 13.0209 C 179.289 12.8758 179.174 12.7485 179.039 12.65 C 178.903 12.5516 178.747 12.4819 178.583 12.4471 C 178.419 12.4123 178.248 12.4123 178.084 12.4471 C 177.92 12.4819 177.764 12.5516 177.628 12.65 C 177.492 12.7485 177.378 12.8758 177.294 13.0209 C 177.21 13.166 177.157 13.3288 177.14 13.4954 C 177.122 13.6621 177.14 13.8323 177.192 13.9917 C 177.244 14.151 177.329 14.2993 177.442 14.4238 C 177.554 14.5483 177.692 14.649 177.845 14.7171 " />
</g>

<g opacity="1.000000" fill="#2ca02c" stroke-width="0.000000" id="id0000000393" >
<path id="id0000000419" d="M 186.795 10.0793 C 186.962 10.0793 187.13 10.0437 187.283 9.9756 C 187.436 9.90745 187.574 9.80681 187.686 9.6823 C 187.798 9.55778 187.884 9.40951 187.936 9.25016 C 187.988 9.09081 188.006 8.92054 187.988 8.75391 C 187.971 8.58727 187.918 8.42445 187.834 8.27934 C 187.75 8.13424 187.635 8.007 187.5 7.90852 C 187.364 7.81004 187.208 7.7404 187.044 7.70556 C 186.88 7.67073 186.709 7.67073 186.545 7.70556 C 186.381 7.7404 186.225 7.81004 186.089 7.90852 C 185.954 8.007 185.839 8.13424 185.755 8.27934 C 185.672 8.42445 185.619 8.58727 185.601 8.75391 C 185.584 8.92054 185.602 9.09081 185.653 9.25016 C 185.705 9.40951 185.791 9.55778 185.903 9.6823 C 186.015 9.80681 186.153 9.90745 186.307 9.9756 " />
</g>

</g>

</g>

<polygon points="30,5 30,130 195,130 195,5 " stroke="black" stroke-width="1.000000" fill="none" id="id0000000420" pointer-events="none" class="rectangle" />
<polyline points="32.4442,130 32.4442,133 " fill="none" stroke-width="1.000000" stroke="black" id="id0000000421" class="line" />
<text id="id0000000422" transform="matrix(1 0 0 1 30 5)" x="2.444153" y="130.000000" dominant-baseline="hanging" text-anchor="middle" font-size="10.000000px" >
-14
</text>

<polyline points="54.6705,130 54.6705,133 " fill="none" stroke-width="1.000000" stroke="black" id="id0000000423" class="line" />
<text id="id0000000424" transform="matrix(1 0 0 1 30 5)" x="24.670544" y="130.000000" dominant-baseline="hanging" text-anchor="middle" font-size="10.000000px" >
-12
</text>

<polyline points="76.8969,130 76.8969,133 " fill="none" stroke-width="1.000000" stroke="black" id="id0000000425" class="line" />
<text id="id0000000426" transform="matrix(1 0 0 1 30 5)" x="46.896935" y="130.000000" dominant-baseline="hanging" text-anchor="middle" font-size="10.000000px" >
-10
</text>

<polyline points="99.1233,130 99.1233,133 " fill="none" stroke-width="1.000000" stroke="black" id="id0000000427" class="line" />
<text id="id0000000428" transform="matrix(1 0 0 1 30 5)" x="69.123322" y="130.000000" dominant-baseline="hanging" text-anchor="middle" font-size="10.000000px" >
-8
</text>

<polyline points="121.35,130 121.35,133 " fill="none" stroke-width="1.000000" stroke="black" id="id0000000429" class="line" />
<text id="id0000000430" transform="matrix(1 0 0 1 30 5)" x="91.349709" y="130.000000" dominant-baseline="hanging" text-anchor="middle" font-size="10.000000px" >
-6
</text>

<polyline points="143.576,130 143.576,133 " fill="none" stroke-width="1.000000" stroke="black" id="id0000000431" class="line" />
<text id="id0000000432" transform="matrix(1 0 0 1 30 5)" x="113.576096" y="130.000000" dominant-baseline="hanging" text-anchor="middle" font-size="10.000000px" >
-4
</text>

<polyline points="165.802,130 165.802,133 " fill="none" stroke-width="1.000000" stroke="black" id="id0000000433" class="line" />
<text id="id0000000434" transform="matrix(1 0 0 1 30 5)" x="135.802490" y="130.000000" dominant-baseline="hanging" text-anchor="middle" font-size="10.000000px" >
-2
</text>

<polyline points="188.029,130 188.029,133 " fill="none" stroke-width="1.000000" stroke="black" id="id0000000435" class="line" />
<text id="id0000000436" transform="matrix(1 0 0 1 30 5)" x="158.028870" y="130.000000" dominant-baseline="hanging" text-anchor="middle" font-size="10.000000px" >
0
</text>

<polyline points="27,128.818 30,128.818 " fill="none" stroke-width="1.000000" stroke="black" id="id0000000437" class="line" />
<text id="id0000000438" transform="matrix(1 0 0 1 30 5)" x="-5.000000" y="123.817665" dominant-baseline="middle" text-anchor="end" font-size="10.000000px" >
-2
</text>

<polyline points="27,107.907 30,107.907 " fill="none" stroke-width="1.000000" stroke="black" id="id0000000439" class="line" />
<text id="id0000000440" transform="matrix(1 0 0 1 30 5)" x="-5.000000" y="102.906898" dominant-baseline="middle" text-anchor="end" font-size="10.000000px" >
0
</text>

<polyline points="27,86.9961 30,86.9961 " fill="none" stroke-width="1.000000" stroke="black" id="id0000000441" class="line" />
<text id="id0000000442" transform="matrix(1 0 0 1 30 5)" x="-5.000000" y="81.996132" dominant-baseline="middle" text-anchor="end" font-size="10.000000px" >
2
</text>

<polyline points="27,66.0854 30,66.0854 " fill="none" stroke-width="1.000000" stroke="black" id="id0000000443" class="line" />
<text id="id0000000444" transform="matrix(1 0 0 1 30 5)" x="-5.000000" y="61.085365" dominant-baseline="middle" text-anchor="end" font-size="10.000000px" >
4
</text>

<polyline points="27,45.1746 30,45.1746 " fill="none" stroke-width="1.000000" stroke="black" id="id0000000445" class="line" />
<text id="id0000000446" transform="matrix(1 0 0 1 30 5)" x="-5.000000" y="40.174599" dominant-baseline="middle" text-anchor="end" font-size="10.000000px" >
6
</text>

<polyline points="27,24.2638 30,24.2638 " fill="none" stroke-width="1.000000" stroke="black" id="id0000000447" class="line" />
<text id="id0000000448" transform="matrix(1 0 0 1 30 5)" x="-5.000000" y="19.263832" dominant-baseline="middle" text-anchor="end" font-size="10.000000px" >
8
</text>


</g>

</svg>
