<svg viewBox="0 0 640 480" height="100%" width="100%" xmlns:xlink="http://www.w3.org/1999/xlink" xmlns="http://www.w3.org/2000/svg" id="id0000000187" >
<g id="id0000000188" >
<clipPath id="id0000000188clipper" >
<polygon points="36,1 36,458 639,458 639,1 " id="id0000000191" class="rectangle" />
</clipPath>

<g clip-path="url(#id0000000188clipper)" id="id0000000190" >
<g id="id0000000192" >
<g opacity="1.000000" fill="#1f77b4" stroke-width="0.000000" id="id0000000193" >
<path id="id0000000243" d="M 83.5255 432.852 C 84.1239 432.852 84.7161 432.567 85.0892 432.099 C 85.4623 431.631 85.6085 430.991 85.4754 430.407 C 85.3422 429.824 84.9324 429.31 84.3933 429.05 C 83.8541 428.791 83.1969 428.791 82.6577 429.05 C 82.1186 429.31 81.7088 429.824 81.5757 430.407 C 81.4425 430.991 81.5888 431.631 81.9619 432.099 C 82.3349 432.567 82.9271 432.852 83.5255 432.852 " />
</g>

<g opacity="1.000000" fill="#1f77b4" stroke-width="0.000000" id="id0000000195" >
<path id="id0000000244" d="M 190.441 415.356 C 191.039 415.356 191.632 415.071 192.005 414.603 C 192.378 414.135 192.524 413.494 192.391 412.911 C 192.258 412.327 191.848 411.813 191.309 411.554 C 190.77 411.294 190.112 411.294 189.573 411.554 C 189.034 411.813 188.624 412.327 188.491 412.911 C 188.358 413.494 188.504 414.135 188.877 414.603 C 189.25 415.071 189.843 415.356 190.441 415.356 " />
</g>

<g opacity="1.000000" fill="#1f77b4" stroke-width="0.000000" id="id0000000197" >
<path id="id0000000245" d="M 156.928 446.48 C 157.527 446.48 158.119 446.195 158.492 445.727 C 158.865 445.259 159.011 444.619 158.878 444.035 C 158.745 443.452 158.335 442.938 157.796 442.678 C 157.257 442.419 156.6 442.419 156.06 442.678 C 155.521 442.938 155.112 443.452 154.978 444.035 C 154.845 444.619 154.991 445.259 155.365 445.727 C 155.738 446.195 156.33 446.48 156.928 446.48 " />
</g>

<g opacity="1.000000" fill="#1f77b4" stroke-width="0.000000" id="id0000000199" >
<path id="id0000000246" d="M 105.536 379.812 C 106.134 379.812 106.726 379.527 107.099 379.059 C 107.472 378.591 107.619 377.951 107.486 377.367 C 107.352 376.784 106.943 376.27 106.403 376.01 C 105.864 375.751 105.207 375.751 104.668 376.01 C 104.129 376.27 103.719 376.784 103.586 377.367 C 103.453 377.951 103.599 378.591 103.972 379.059 C 104.345 379.527 104.937 379.812 105.536 379.812 " />
</g>

<g opacity="1.000000" fill="#1f77b4" stroke-width="0.000000" id="id0000000201" >
<path id="id0000000247" d="M 221.934 361.211 C 222.532 361.211 223.124 360.925 223.498 360.458 C 223.871 359.99 224.017 359.349 223.884 358.766 C 223.751 358.182 223.341 357.668 222.802 357.409 C 222.263 357.149 221.605 357.149 221.066 357.409 C 220.527 357.668 220.117 358.182 219.984 358.766 C 219.851 359.349 219.997 359.99 220.37 360.458 C 220.743 360.925 221.335 361.211 221.934 361.211 " />
</g>

<g opacity="1.000000" fill="#1f77b4" stroke-width="0.000000" id="id0000000203" >
<path id="id0000000248" d="M 114.288 414.224 C 114.886 414.224 115.478 413.939 115.851 413.471 C 116.225 413.004 116.371 412.363 116.238 411.779 C 116.105 411.196 115.695 410.682 115.156 410.423 C 114.616 410.163 113.959 410.163 113.42 410.423 C 112.881 410.682 112.471 411.196 112.338 411.779 C 112.205 412.363 112.351 413.004 112.724 413.471 C 113.097 413.939 113.689 414.224 114.288 414.224 " />
</g>

<g opacity="1.000000" fill="#1f77b4" stroke-width="0.000000" id="id0000000205" >
<path id="id0000000249" d="M 263.671 332.138 C 264.269 332.138 264.861 331.853 265.234 331.385 C 265.607 330.917 265.754 330.277 265.62 329.693 C 265.487 329.11 265.077 328.596 264.538 328.336 C 263.999 328.077 263.342 328.077 262.803 328.336 C 262.264 328.596 261.854 329.11 261.721 329.693 C 261.588 330.277 261.734 330.917 262.107 331.385 C 262.48 331.853 263.072 332.138 263.671 332.138 " />
</g>

<g opacity="1.000000" fill="#1f77b4" stroke-width="0.000000" id="id0000000207" >
<path id="id0000000250" d="M 249.636 386.992 C 250.234 386.992 250.826 386.707 251.199 386.239 C 251.572 385.771 251.719 385.13 251.586 384.547 C 251.452 383.964 251.043 383.45 250.504 383.19 C 249.964 382.93 249.307 382.93 248.768 383.19 C 248.229 383.45 247.819 383.964 247.686 384.547 C 247.553 385.13 247.699 385.771 248.072 386.239 C 248.445 386.707 249.037 386.992 249.636 386.992 " />
</g>

<g opacity="1.000000" fill="#1f77b4" stroke-width="0.000000" id="id0000000209" >
<path id="id0000000251" d="M 275.428 341.216 C 276.026 341.216 276.619 340.93 276.992 340.463 C 277.365 339.995 277.511 339.354 277.378 338.771 C 277.245 338.187 276.835 337.673 276.296 337.414 C 275.757 337.154 275.099 337.154 274.56 337.414 C 274.021 337.673 273.611 338.187 273.478 338.771 C 273.345 339.354 273.491 339.995 273.864 340.463 C 274.237 340.93 274.83 341.216 275.428 341.216 " />
</g>

<g opacity="1.000000" fill="#1f77b4" stroke-width="0.000000" id="id0000000211" >
<path id="id0000000252" d="M 266.876 315.111 C 267.474 315.111 268.066 314.826 268.44 314.358 C 268.813 313.89 268.959 313.249 268.826 312.666 C 268.693 312.083 268.283 311.569 267.744 311.309 C 267.204 311.049 266.547 311.049 266.008 311.309 C 265.469 311.569 265.059 312.083 264.926 312.666 C 264.793 313.249 264.939 313.89 265.312 314.358 C 265.685 314.826 266.277 315.111 266.876 315.111 " />
</g>

<g opacity="1.000000" fill="#1f77b4" stroke-width="0.000000" id="id0000000213" >
<path id="id0000000253" d="M 315.88 357.931 C 316.478 357.931 317.07 357.645 317.443 357.178 C 317.817 356.71 317.963 356.069 317.83 355.486 C 317.697 354.902 317.287 354.388 316.748 354.129 C 316.208 353.869 315.551 353.869 315.012 354.129 C 314.473 354.388 314.063 354.902 313.93 355.486 C 313.797 356.069 313.943 356.71 314.316 357.178 C 314.689 357.645 315.281 357.931 315.88 357.931 " />
</g>

<g opacity="1.000000" fill="#1f77b4" stroke-width="0.000000" id="id0000000215" >
<path id="id0000000254" d="M 398.47 301.847 C 399.069 301.847 399.661 301.562 400.034 301.094 C 400.407 300.626 400.553 299.986 400.42 299.402 C 400.287 298.819 399.877 298.305 399.338 298.045 C 398.799 297.786 398.142 297.786 397.603 298.045 C 397.063 298.305 396.654 298.819 396.521 299.402 C 396.387 299.986 396.534 300.626 396.907 301.094 C 397.28 301.562 397.872 301.847 398.47 301.847 " />
</g>

<g opacity="1.000000" fill="#1f77b4" stroke-width="0.000000" id="id0000000217" >
<path id="id0000000255" d="M 296.54 347.905 C 297.138 347.905 297.73 347.62 298.103 347.152 C 298.476 346.684 298.623 346.044 298.489 345.46 C 298.356 344.877 297.947 344.363 297.407 344.103 C 296.868 343.844 296.211 343.844 295.672 344.103 C 295.133 344.363 294.723 344.877 294.59 345.46 C 294.457 346.044 294.603 346.684 294.976 347.152 C 295.349 347.62 295.941 347.905 296.54 347.905 " />
</g>

<g opacity="1.000000" fill="#1f77b4" stroke-width="0.000000" id="id0000000219" >
<path id="id0000000256" d="M 339.64 346.244 C 340.239 346.244 340.831 345.959 341.204 345.491 C 341.577 345.023 341.723 344.383 341.59 343.799 C 341.457 343.216 341.047 342.702 340.508 342.442 C 339.969 342.183 339.312 342.183 338.772 342.442 C 338.233 342.702 337.823 343.216 337.69 343.799 C 337.557 344.383 337.703 345.023 338.077 345.491 C 338.45 345.959 339.042 346.244 339.64 346.244 " />
</g>

<g opacity="1.000000" fill="#1f77b4" stroke-width="0.000000" id="id0000000221" >
<path id="id0000000257" d="M 372.829 272.909 C 373.427 272.909 374.019 272.623 374.392 272.156 C 374.766 271.688 374.912 271.047 374.779 270.464 C 374.645 269.88 374.236 269.366 373.697 269.107 C 373.157 268.847 372.5 268.847 371.961 269.107 C 371.422 269.366 371.012 269.88 370.879 270.464 C 370.746 271.047 370.892 271.688 371.265 272.156 C 371.638 272.623 372.23 272.909 372.829 272.909 " />
</g>

<g opacity="1.000000" fill="#1f77b4" stroke-width="0.000000" id="id0000000223" >
<path id="id0000000258" d="M 414.451 336.013 C 415.049 336.013 415.641 335.728 416.014 335.26 C 416.387 334.792 416.534 334.151 416.4 333.568 C 416.267 332.984 415.857 332.47 415.318 332.211 C 414.779 331.951 414.122 331.951 413.583 332.211 C 413.044 332.47 412.634 332.984 412.501 333.568 C 412.367 334.151 412.514 334.792 412.887 335.26 C 413.26 335.728 413.852 336.013 414.451 336.013 " />
</g>

<g opacity="1.000000" fill="#1f77b4" stroke-width="0.000000" id="id0000000225" >
<path id="id0000000259" d="M 379.052 279.27 C 379.65 279.27 380.243 278.985 380.616 278.517 C 380.989 278.049 381.135 277.408 381.002 276.825 C 380.869 276.242 380.459 275.728 379.92 275.468 C 379.381 275.208 378.723 275.208 378.184 275.468 C 377.645 275.728 377.235 276.242 377.102 276.825 C 376.969 277.408 377.115 278.049 377.488 278.517 C 377.861 278.985 378.454 279.27 379.052 279.27 " />
</g>

<g opacity="1.000000" fill="#1f77b4" stroke-width="0.000000" id="id0000000227" >
<path id="id0000000260" d="M 390.918 325.22 C 391.516 325.22 392.108 324.934 392.481 324.467 C 392.854 323.999 393.001 323.358 392.868 322.775 C 392.734 322.191 392.325 321.677 391.785 321.418 C 391.246 321.158 390.589 321.158 390.05 321.418 C 389.511 321.677 389.101 322.191 388.968 322.775 C 388.835 323.358 388.981 323.999 389.354 324.467 C 389.727 324.934 390.319 325.22 390.918 325.22 " />
</g>

<g opacity="1.000000" fill="#1f77b4" stroke-width="0.000000" id="id0000000229" >
<path id="id0000000261" d="M 469.068 340.548 C 469.666 340.548 470.259 340.263 470.632 339.795 C 471.005 339.327 471.151 338.686 471.018 338.103 C 470.885 337.52 470.475 337.006 469.936 336.746 C 469.397 336.486 468.739 336.486 468.2 336.746 C 467.661 337.006 467.251 337.52 467.118 338.103 C 466.985 338.686 467.131 339.327 467.504 339.795 C 467.877 340.263 468.47 340.548 469.068 340.548 " />
</g>

<g opacity="1.000000" fill="#1f77b4" stroke-width="0.000000" id="id0000000231" >
<path id="id0000000262" d="M 494.433 346.312 C 495.031 346.312 495.623 346.027 495.996 345.559 C 496.369 345.092 496.516 344.451 496.382 343.867 C 496.249 343.284 495.84 342.77 495.3 342.51 C 494.761 342.251 494.104 342.251 493.565 342.51 C 493.026 342.77 492.616 343.284 492.483 343.867 C 492.35 344.451 492.496 345.092 492.869 345.559 C 493.242 346.027 493.834 346.312 494.433 346.312 " />
</g>

<g opacity="1.000000" fill="#1f77b4" stroke-width="0.000000" id="id0000000233" >
<path id="id0000000263" d="M 501.281 282.203 C 501.879 282.203 502.471 281.918 502.844 281.45 C 503.217 280.982 503.364 280.342 503.23 279.758 C 503.097 279.175 502.687 278.661 502.148 278.401 C 501.609 278.142 500.952 278.142 500.413 278.401 C 499.874 278.661 499.464 279.175 499.331 279.758 C 499.198 280.342 499.344 280.982 499.717 281.45 C 500.09 281.918 500.682 282.203 501.281 282.203 " />
</g>

<g opacity="1.000000" fill="#1f77b4" stroke-width="0.000000" id="id0000000235" >
<path id="id0000000264" d="M 594.365 224.162 C 594.963 224.162 595.555 223.876 595.928 223.409 C 596.301 222.941 596.448 222.3 596.314 221.717 C 596.181 221.133 595.772 220.619 595.232 220.36 C 594.693 220.1 594.036 220.1 593.497 220.36 C 592.958 220.619 592.548 221.133 592.415 221.717 C 592.282 222.3 592.428 222.941 592.801 223.409 C 593.174 223.876 593.766 224.162 594.365 224.162 " />
</g>

<g opacity="1.000000" fill="#1f77b4" stroke-width="0.000000" id="id0000000237" >
<path id="id0000000265" d="M 572.025 290.571 C 572.623 290.571 573.215 290.286 573.588 289.818 C 573.961 289.35 574.108 288.709 573.974 288.126 C 573.841 287.542 573.432 287.029 572.892 286.769 C 572.353 286.509 571.696 286.509 571.157 286.769 C 570.618 287.029 570.208 287.542 570.075 288.126 C 569.942 288.709 570.088 289.35 570.461 289.818 C 570.834 290.286 571.426 290.571 572.025 290.571 " />
</g>

<g opacity="1.000000" fill="#1f77b4" stroke-width="0.000000" id="id0000000239" >
<path id="id0000000266" d="M 538.085 320.436 C 538.684 320.436 539.276 320.151 539.649 319.683 C 540.022 319.215 540.168 318.574 540.035 317.991 C 539.902 317.407 539.492 316.893 538.953 316.634 C 538.414 316.374 537.757 316.374 537.217 316.634 C 536.678 316.893 536.268 317.407 536.135 317.991 C 536.002 318.574 536.148 319.215 536.522 319.683 C 536.895 320.151 537.487 320.436 538.085 320.436 " />
</g>

<g opacity="1.000000" fill="#1f77b4" stroke-width="0.000000" id="id0000000241" >
<path id="id0000000267" d="M 619.181 285.671 C 619.78 285.671 620.372 285.386 620.745 284.918 C 621.118 284.45 621.264 283.81 621.131 283.226 C 620.998 282.643 620.588 282.129 620.049 281.869 C 619.51 281.61 618.853 281.61 618.314 281.869 C 617.774 282.129 617.365 282.643 617.232 283.226 C 617.098 283.81 617.245 284.45 617.618 284.918 C 617.991 285.386 618.583 285.671 619.181 285.671 " />
</g>

</g>

<g id="id0000000268" >
<g opacity="1.000000" fill="#ff7f0e" stroke-width="0.000000" id="id0000000269" >
<path id="id0000000319" d="M 232.358 284.906 C 232.956 284.906 233.548 284.621 233.921 284.153 C 234.294 283.685 234.441 283.045 234.307 282.461 C 234.174 281.878 233.765 281.364 233.225 281.104 C 232.686 280.845 232.029 280.845 231.49 281.104 C 230.951 281.364 230.541 281.878 230.408 282.461 C 230.275 283.045 230.421 283.685 230.794 284.153 C 231.167 284.621 231.759 284.906 232.358 284.906 " />
</g>

<g opacity="1.000000" fill="#ff7f0e" stroke-width="0.000000" id="id0000000271" >
<path id="id0000000320" d="M 140.195 276.996 C 140.793 276.996 141.386 276.711 141.759 276.243 C 142.132 275.775 142.278 275.134 142.145 274.551 C 142.012 273.967 141.602 273.453 141.063 273.194 C 140.524 272.934 139.866 272.934 139.327 273.194 C 138.788 273.453 138.378 273.967 138.245 274.551 C 138.112 275.134 138.258 275.775 138.631 276.243 C 139.004 276.711 139.597 276.996 140.195 276.996 " />
</g>

<g opacity="1.000000" fill="#ff7f0e" stroke-width="0.000000" id="id0000000273" >
<path id="id0000000321" d="M 55.5417 189.808 C 56.1401 189.808 56.7323 189.523 57.1054 189.055 C 57.4784 188.587 57.6247 187.946 57.4915 187.363 C 57.3584 186.78 56.9486 186.266 56.4095 186.006 C 55.8703 185.747 55.2131 185.747 54.6739 186.006 C 54.1348 186.266 53.725 186.78 53.5918 187.363 C 53.4587 187.946 53.6049 188.587 53.978 189.055 C 54.3511 189.523 54.9433 189.808 55.5417 189.808 " />
</g>

<g opacity="1.000000" fill="#ff7f0e" stroke-width="0.000000" id="id0000000275" >
<path id="id0000000322" d="M 156.043 220.736 C 156.642 220.736 157.234 220.451 157.607 219.983 C 157.98 219.515 158.126 218.874 157.993 218.291 C 157.86 217.708 157.45 217.194 156.911 216.934 C 156.372 216.674 155.715 216.674 155.176 216.934 C 154.636 217.194 154.227 217.708 154.094 218.291 C 153.96 218.874 154.107 219.515 154.48 219.983 C 154.853 220.451 155.445 220.736 156.043 220.736 " />
</g>

<g opacity="1.000000" fill="#ff7f0e" stroke-width="0.000000" id="id0000000277" >
<path id="id0000000323" d="M 271.83 229.138 C 272.428 229.138 273.021 228.853 273.394 228.385 C 273.767 227.918 273.913 227.277 273.78 226.693 C 273.647 226.11 273.237 225.596 272.698 225.336 C 272.159 225.077 271.501 225.077 270.962 225.336 C 270.423 225.596 270.013 226.11 269.88 226.693 C 269.747 227.277 269.893 227.918 270.266 228.385 C 270.639 228.853 271.232 229.138 271.83 229.138 " />
</g>

<g opacity="1.000000" fill="#ff7f0e" stroke-width="0.000000" id="id0000000279" >
<path id="id0000000324" d="M 247.343 318.916 C 247.941 318.916 248.534 318.631 248.907 318.163 C 249.28 317.696 249.426 317.055 249.293 316.471 C 249.16 315.888 248.75 315.374 248.211 315.114 C 247.672 314.855 247.014 314.855 246.475 315.114 C 245.936 315.374 245.526 315.888 245.393 316.471 C 245.26 317.055 245.406 317.696 245.779 318.163 C 246.152 318.631 246.745 318.916 247.343 318.916 " />
</g>

<g opacity="1.000000" fill="#ff7f0e" stroke-width="0.000000" id="id0000000281" >
<path id="id0000000325" d="M 191.352 229.001 C 191.95 229.001 192.542 228.716 192.915 228.248 C 193.288 227.781 193.435 227.14 193.302 226.556 C 193.168 225.973 192.759 225.459 192.219 225.199 C 191.68 224.94 191.023 224.94 190.484 225.199 C 189.945 225.459 189.535 225.973 189.402 226.556 C 189.269 227.14 189.415 227.781 189.788 228.248 C 190.161 228.716 190.753 229.001 191.352 229.001 " />
</g>

<g opacity="1.000000" fill="#ff7f0e" stroke-width="0.000000" id="id0000000283" >
<path id="id0000000326" d="M 290.588 186.196 C 291.186 186.196 291.778 185.911 292.151 185.443 C 292.525 184.975 292.671 184.334 292.538 183.751 C 292.404 183.167 291.995 182.654 291.456 182.394 C 290.916 182.134 290.259 182.134 289.72 182.394 C 289.181 182.654 288.771 183.167 288.638 183.751 C 288.505 184.334 288.651 184.975 289.024 185.443 C 289.397 185.911 289.989 186.196 290.588 186.196 " />
</g>

<g opacity="1.000000" fill="#ff7f0e" stroke-width="0.000000" id="id0000000285" >
<path id="id0000000327" d="M 318.899 260.394 C 319.497 260.394 320.089 260.109 320.463 259.641 C 320.836 259.173 320.982 258.532 320.849 257.949 C 320.716 257.365 320.306 256.851 319.767 256.592 C 319.228 256.332 318.57 256.332 318.031 256.592 C 317.492 256.851 317.082 257.365 316.949 257.949 C 316.816 258.532 316.962 259.173 317.335 259.641 C 317.708 260.109 318.301 260.394 318.899 260.394 " />
</g>

<g opacity="1.000000" fill="#ff7f0e" stroke-width="0.000000" id="id0000000287" >
<path id="id0000000328" d="M 340.643 257.943 C 341.242 257.943 341.834 257.657 342.207 257.189 C 342.58 256.722 342.726 256.081 342.593 255.497 C 342.46 254.914 342.05 254.4 341.511 254.141 C 340.972 253.881 340.315 253.881 339.776 254.141 C 339.237 254.4 338.827 254.914 338.694 255.497 C 338.56 256.081 338.707 256.722 339.08 257.189 C 339.453 257.657 340.045 257.943 340.643 257.943 " />
</g>

<g opacity="1.000000" fill="#ff7f0e" stroke-width="0.000000" id="id0000000289" >
<path id="id0000000329" d="M 276.464 226.464 C 277.062 226.464 277.655 226.178 278.028 225.711 C 278.401 225.243 278.547 224.602 278.414 224.019 C 278.281 223.435 277.871 222.921 277.332 222.662 C 276.793 222.402 276.135 222.402 275.596 222.662 C 275.057 222.921 274.647 223.435 274.514 224.019 C 274.381 224.602 274.527 225.243 274.9 225.711 C 275.273 226.178 275.866 226.464 276.464 226.464 " />
</g>

<g opacity="1.000000" fill="#ff7f0e" stroke-width="0.000000" id="id0000000291" >
<path id="id0000000330" d="M 350.046 228.922 C 350.645 228.922 351.237 228.637 351.61 228.169 C 351.983 227.701 352.129 227.06 351.996 226.477 C 351.863 225.894 351.453 225.38 350.914 225.12 C 350.375 224.86 349.718 224.86 349.179 225.12 C 348.639 225.38 348.23 225.894 348.096 226.477 C 347.963 227.06 348.11 227.701 348.483 228.169 C 348.856 228.637 349.448 228.922 350.046 228.922 " />
</g>

<g opacity="1.000000" fill="#ff7f0e" stroke-width="0.000000" id="id0000000293" >
<path id="id0000000331" d="M 404.214 242.21 C 404.813 242.21 405.405 241.925 405.778 241.457 C 406.151 240.989 406.297 240.349 406.164 239.765 C 406.031 239.182 405.621 238.668 405.082 238.408 C 404.543 238.149 403.886 238.149 403.347 238.408 C 402.808 238.668 402.398 239.182 402.265 239.765 C 402.131 240.349 402.278 240.989 402.651 241.457 C 403.024 241.925 403.616 242.21 404.214 242.21 " />
</g>

<g opacity="1.000000" fill="#ff7f0e" stroke-width="0.000000" id="id0000000295" >
<path id="id0000000332" d="M 339.664 176.027 C 340.263 176.027 340.855 175.741 341.228 175.274 C 341.601 174.806 341.747 174.165 341.614 173.582 C 341.481 172.998 341.071 172.484 340.532 172.225 C 339.993 171.965 339.336 171.965 338.796 172.225 C 338.257 172.484 337.847 172.998 337.714 173.582 C 337.581 174.165 337.727 174.806 338.101 175.274 C 338.474 175.741 339.066 176.027 339.664 176.027 " />
</g>

<g opacity="1.000000" fill="#ff7f0e" stroke-width="0.000000" id="id0000000297" >
<path id="id0000000333" d="M 367.602 194.362 C 368.2 194.362 368.792 194.077 369.165 193.609 C 369.538 193.141 369.685 192.501 369.551 191.917 C 369.418 191.334 369.008 190.82 368.469 190.56 C 367.93 190.301 367.273 190.301 366.734 190.56 C 366.195 190.82 365.785 191.334 365.652 191.917 C 365.519 192.501 365.665 193.141 366.038 193.609 C 366.411 194.077 367.003 194.362 367.602 194.362 " />
</g>

<g opacity="1.000000" fill="#ff7f0e" stroke-width="0.000000" id="id0000000299" >
<path id="id0000000334" d="M 404.498 206.318 C 405.096 206.318 405.688 206.032 406.061 205.565 C 406.434 205.097 406.581 204.456 406.448 203.873 C 406.314 203.289 405.905 202.775 405.365 202.516 C 404.826 202.256 404.169 202.256 403.63 202.516 C 403.091 202.775 402.681 203.289 402.548 203.873 C 402.415 204.456 402.561 205.097 402.934 205.565 C 403.307 206.032 403.899 206.318 404.498 206.318 " />
</g>

<g opacity="1.000000" fill="#ff7f0e" stroke-width="0.000000" id="id0000000301" >
<path id="id0000000335" d="M 420.272 133.092 C 420.87 133.092 421.462 132.806 421.835 132.339 C 422.208 131.871 422.355 131.23 422.221 130.647 C 422.088 130.063 421.678 129.549 421.139 129.29 C 420.6 129.03 419.943 129.03 419.404 129.29 C 418.865 129.549 418.455 130.063 418.322 130.647 C 418.189 131.23 418.335 131.871 418.708 132.339 C 419.081 132.806 419.673 133.092 420.272 133.092 " />
</g>

<g opacity="1.000000" fill="#ff7f0e" stroke-width="0.000000" id="id0000000303" >
<path id="id0000000336" d="M 443.19 139.4 C 443.789 139.4 444.381 139.115 444.754 138.647 C 445.127 138.179 445.273 137.538 445.14 136.955 C 445.007 136.371 444.597 135.857 444.058 135.598 C 443.519 135.338 442.862 135.338 442.323 135.598 C 441.783 135.857 441.374 136.371 441.241 136.955 C 441.107 137.538 441.254 138.179 441.627 138.647 C 442 139.115 442.592 139.4 443.19 139.4 " />
</g>

<g opacity="1.000000" fill="#ff7f0e" stroke-width="0.000000" id="id0000000305" >
<path id="id0000000337" d="M 502.116 215.897 C 502.715 215.897 503.307 215.612 503.68 215.144 C 504.053 214.677 504.199 214.036 504.066 213.452 C 503.933 212.869 503.523 212.355 502.984 212.095 C 502.445 211.836 501.788 211.836 501.249 212.095 C 500.709 212.355 500.3 212.869 500.166 213.452 C 500.033 214.036 500.18 214.677 500.553 215.144 C 500.926 215.612 501.518 215.897 502.116 215.897 " />
</g>

<g opacity="1.000000" fill="#ff7f0e" stroke-width="0.000000" id="id0000000307" >
<path id="id0000000338" d="M 461.083 188.487 C 461.682 188.487 462.274 188.202 462.647 187.734 C 463.02 187.267 463.166 186.626 463.033 186.042 C 462.9 185.459 462.49 184.945 461.951 184.686 C 461.412 184.426 460.754 184.426 460.215 184.686 C 459.676 184.945 459.266 185.459 459.133 186.042 C 459 186.626 459.146 187.267 459.519 187.734 C 459.893 188.202 460.485 188.487 461.083 188.487 " />
</g>

<g opacity="1.000000" fill="#ff7f0e" stroke-width="0.000000" id="id0000000309" >
<path id="id0000000339" d="M 580.29 195.392 C 580.888 195.392 581.481 195.107 581.854 194.639 C 582.227 194.171 582.373 193.53 582.24 192.947 C 582.107 192.363 581.697 191.849 581.158 191.59 C 580.619 191.33 579.961 191.33 579.422 191.59 C 578.883 191.849 578.473 192.363 578.34 192.947 C 578.207 193.53 578.353 194.171 578.726 194.639 C 579.099 195.107 579.692 195.392 580.29 195.392 " />
</g>

<g opacity="1.000000" fill="#ff7f0e" stroke-width="0.000000" id="id0000000311" >
<path id="id0000000340" d="M 525.835 236.768 C 526.434 236.768 527.026 236.483 527.399 236.015 C 527.772 235.548 527.918 234.907 527.785 234.323 C 527.652 233.74 527.242 233.226 526.703 232.967 C 526.164 232.707 525.507 232.707 524.968 232.967 C 524.428 233.226 524.019 233.74 523.885 234.323 C 523.752 234.907 523.899 235.548 524.272 236.015 C 524.645 236.483 525.237 236.768 525.835 236.768 " />
</g>

<g opacity="1.000000" fill="#ff7f0e" stroke-width="0.000000" id="id0000000313" >
<path id="id0000000341" d="M 554.554 240.484 C 555.152 240.484 555.745 240.199 556.118 239.731 C 556.491 239.263 556.637 238.622 556.504 238.039 C 556.371 237.456 555.961 236.942 555.422 236.682 C 554.883 236.422 554.225 236.422 553.686 236.682 C 553.147 236.942 552.737 237.456 552.604 238.039 C 552.471 238.622 552.617 239.263 552.99 239.731 C 553.363 240.199 553.956 240.484 554.554 240.484 " />
</g>

<g opacity="1.000000" fill="#ff7f0e" stroke-width="0.000000" id="id0000000315" >
<path id="id0000000342" d="M 520.306 173.786 C 520.905 173.786 521.497 173.501 521.87 173.033 C 522.243 172.565 522.389 171.925 522.256 171.341 C 522.123 170.758 521.713 170.244 521.174 169.984 C 520.635 169.725 519.978 169.725 519.438 169.984 C 518.899 170.244 518.49 170.758 518.356 171.341 C 518.223 171.925 518.37 172.565 518.743 173.033 C 519.116 173.501 519.708 173.786 520.306 173.786 " />
</g>

<g opacity="1.000000" fill="#ff7f0e" stroke-width="0.000000" id="id0000000317" >
<path id="id0000000343" d="M 557.397 181.716 C 557.996 181.716 558.588 181.431 558.961 180.963 C 559.334 180.495 559.48 179.854 559.347 179.271 C 559.214 178.688 558.804 178.174 558.265 177.914 C 557.726 177.654 557.069 177.654 556.53 177.914 C 555.991 178.174 555.581 178.688 555.448 179.271 C 555.314 179.854 555.461 180.495 555.834 180.963 C 556.207 181.431 556.799 181.716 557.397 181.716 " />
</g>

</g>

<g id="id0000000344" >
<g opacity="1.000000" fill="#2ca02c" stroke-width="0.000000" id="id0000000345" >
<path id="id0000000395" d="M 67.0627 148.978 C 67.6611 148.978 68.2533 148.693 68.6263 148.225 C 68.9994 147.757 69.1457 147.116 69.0125 146.533 C 68.8794 145.95 68.4696 145.436 67.9305 145.176 C 67.3913 144.917 66.7341 144.917 66.1949 145.176 C 65.6558 145.436 65.246 145.95 65.1128 146.533 C 64.9797 147.116 65.1259 147.757 65.499 148.225 C 65.8721 148.693 66.4643 148.978 67.0627 148.978 " />
</g>

<g opacity="1.000000" fill="#2ca02c" stroke-width="0.000000" id="id0000000347" >
<path id="id0000000396" d="M 86.7527 175.269 C 87.3511 175.269 87.9433 174.984 88.3164 174.516 C 88.6895 174.048 88.8358 173.408 88.7026 172.824 C 88.5694 172.241 88.1597 171.727 87.6205 171.467 C 87.0814 171.208 86.4241 171.208 85.885 171.467 C 85.3458 171.727 84.9361 172.241 84.8029 172.824 C 84.6697 173.408 84.816 174.048 85.1891 174.516 C 85.5622 174.984 86.1544 175.269 86.7527 175.269 " />
</g>

<g opacity="1.000000" fill="#2ca02c" stroke-width="0.000000" id="id0000000349" >
<path id="id0000000397" d="M 135.698 148.843 C 136.296 148.843 136.888 148.558 137.262 148.09 C 137.635 147.622 137.781 146.982 137.648 146.398 C 137.515 145.815 137.105 145.301 136.566 145.041 C 136.027 144.782 135.369 144.782 134.83 145.041 C 134.291 145.301 133.881 145.815 133.748 146.398 C 133.615 146.982 133.761 147.622 134.134 148.09 C 134.507 148.558 135.1 148.843 135.698 148.843 " />
</g>

<g opacity="1.000000" fill="#2ca02c" stroke-width="0.000000" id="id0000000351" >
<path id="id0000000398" d="M 90.2773 76.9469 C 90.8757 76.9469 91.4679 76.6617 91.841 76.1939 C 92.2141 75.726 92.3604 75.0853 92.2272 74.5019 C 92.094 73.9185 91.6842 73.4046 91.1451 73.145 C 90.606 72.8853 89.9487 72.8853 89.4096 73.145 C 88.8704 73.4046 88.4606 73.9185 88.3275 74.5019 C 88.1943 75.0853 88.3406 75.726 88.7137 76.1939 C 89.0868 76.6617 89.6789 76.9469 90.2773 76.9469 " />
</g>

<g opacity="1.000000" fill="#2ca02c" stroke-width="0.000000" id="id0000000353" >
<path id="id0000000399" d="M 233.595 153.073 C 234.193 153.073 234.786 152.788 235.159 152.32 C 235.532 151.852 235.678 151.212 235.545 150.628 C 235.412 150.045 235.002 149.531 234.463 149.271 C 233.924 149.012 233.266 149.012 232.727 149.271 C 232.188 149.531 231.778 150.045 231.645 150.628 C 231.512 151.212 231.658 151.852 232.031 152.32 C 232.404 152.788 232.997 153.073 233.595 153.073 " />
</g>

<g opacity="1.000000" fill="#2ca02c" stroke-width="0.000000" id="id0000000355" >
<path id="id0000000400" d="M 248.789 168.451 C 249.387 168.451 249.979 168.165 250.352 167.698 C 250.725 167.23 250.872 166.589 250.739 166.006 C 250.605 165.422 250.196 164.908 249.656 164.649 C 249.117 164.389 248.46 164.389 247.921 164.649 C 247.382 164.908 246.972 165.422 246.839 166.006 C 246.706 166.589 246.852 167.23 247.225 167.698 C 247.598 168.165 248.19 168.451 248.789 168.451 " />
</g>

<g opacity="1.000000" fill="#2ca02c" stroke-width="0.000000" id="id0000000357" >
<path id="id0000000401" d="M 177.132 53.404 C 177.73 53.404 178.322 53.1188 178.695 52.651 C 179.068 52.1831 179.215 51.5423 179.081 50.959 C 178.948 50.3756 178.538 49.8617 177.999 49.6021 C 177.46 49.3424 176.803 49.3424 176.264 49.6021 C 175.725 49.8617 175.315 50.3756 175.182 50.959 C 175.049 51.5423 175.195 52.1831 175.568 52.651 C 175.941 53.1188 176.533 53.404 177.132 53.404 " />
</g>

<g opacity="1.000000" fill="#2ca02c" stroke-width="0.000000" id="id0000000359" >
<path id="id0000000402" d="M 230.011 64.0434 C 230.609 64.0434 231.201 63.7583 231.574 63.2904 C 231.948 62.8226 232.094 62.1818 231.961 61.5984 C 231.827 61.015 231.418 60.5011 230.879 60.2415 C 230.339 59.9819 229.682 59.9819 229.143 60.2415 C 228.604 60.5011 228.194 61.015 228.061 61.5984 C 227.928 62.1818 228.074 62.8226 228.447 63.2904 C 228.82 63.7583 229.412 64.0434 230.011 64.0434 " />
</g>

<g opacity="1.000000" fill="#2ca02c" stroke-width="0.000000" id="id0000000361" >
<path id="id0000000403" d="M 190.393 157.329 C 190.991 157.329 191.583 157.044 191.956 156.576 C 192.329 156.108 192.476 155.467 192.343 154.884 C 192.209 154.301 191.8 153.787 191.26 153.527 C 190.721 153.267 190.064 153.267 189.525 153.527 C 188.986 153.787 188.576 154.301 188.443 154.884 C 188.31 155.467 188.456 156.108 188.829 156.576 C 189.202 157.044 189.794 157.329 190.393 157.329 " />
</g>

<g opacity="1.000000" fill="#2ca02c" stroke-width="0.000000" id="id0000000363" >
<path id="id0000000404" d="M 272.042 111.565 C 272.64 111.565 273.232 111.28 273.605 110.812 C 273.979 110.345 274.125 109.704 273.992 109.12 C 273.858 108.537 273.449 108.023 272.91 107.763 C 272.37 107.504 271.713 107.504 271.174 107.763 C 270.635 108.023 270.225 108.537 270.092 109.12 C 269.959 109.704 270.105 110.345 270.478 110.812 C 270.851 111.28 271.443 111.565 272.042 111.565 " />
</g>

<g opacity="1.000000" fill="#2ca02c" stroke-width="0.000000" id="id0000000365" >
<path id="id0000000405" d="M 273.724 97.8452 C 274.323 97.8452 274.915 97.5601 275.288 97.0922 C 275.661 96.6244 275.807 95.9836 275.674 95.4002 C 275.541 94.8168 275.131 94.3029 274.592 94.0433 C 274.053 93.7837 273.396 93.7837 272.857 94.0433 C 272.318 94.3029 271.908 94.8168 271.775 95.4002 C 271.641 95.9836 271.788 96.6244 272.161 97.0922 C 272.534 97.5601 273.126 97.8452 273.724 97.8452 " />
</g>

<g opacity="1.000000" fill="#2ca02c" stroke-width="0.000000" id="id0000000367" >
<path id="id0000000406" d="M 291.138 160.798 C 291.736 160.798 292.328 160.512 292.702 160.044 C 293.075 159.577 293.221 158.936 293.088 158.352 C 292.955 157.769 292.545 157.255 292.006 156.996 C 291.466 156.736 290.809 156.736 290.27 156.996 C 289.731 157.255 289.321 157.769 289.188 158.352 C 289.055 158.936 289.201 159.577 289.574 160.044 C 289.947 160.512 290.539 160.798 291.138 160.798 " />
</g>

<g opacity="1.000000" fill="#2ca02c" stroke-width="0.000000" id="id0000000369" >
<path id="id0000000407" d="M 335.772 110.861 C 336.37 110.861 336.962 110.575 337.335 110.107 C 337.708 109.64 337.855 108.999 337.721 108.415 C 337.588 107.832 337.178 107.318 336.639 107.059 C 336.1 106.799 335.443 106.799 334.904 107.059 C 334.365 107.318 333.955 107.832 333.822 108.415 C 333.689 108.999 333.835 109.64 334.208 110.107 C 334.581 110.575 335.173 110.861 335.772 110.861 " />
</g>

<g opacity="1.000000" fill="#2ca02c" stroke-width="0.000000" id="id0000000371" >
<path id="id0000000408" d="M 360.056 109.654 C 360.654 109.654 361.246 109.369 361.62 108.901 C 361.993 108.433 362.139 107.793 362.006 107.209 C 361.873 106.626 361.463 106.112 360.924 105.852 C 360.385 105.593 359.727 105.593 359.188 105.852 C 358.649 106.112 358.239 106.626 358.106 107.209 C 357.973 107.793 358.119 108.433 358.492 108.901 C 358.865 109.369 359.457 109.654 360.056 109.654 " />
</g>

<g opacity="1.000000" fill="#2ca02c" stroke-width="0.000000" id="id0000000373" >
<path id="id0000000409" d="M 383.304 74.4335 C 383.903 74.4335 384.495 74.1484 384.868 73.6805 C 385.241 73.2127 385.387 72.5719 385.254 71.9885 C 385.121 71.4051 384.711 70.8912 384.172 70.6316 C 383.633 70.372 382.976 70.372 382.436 70.6316 C 381.897 70.8912 381.488 71.4051 381.354 71.9885 C 381.221 72.5719 381.367 73.2127 381.741 73.6805 C 382.114 74.1484 382.706 74.4335 383.304 74.4335 " />
</g>

<g opacity="1.000000" fill="#2ca02c" stroke-width="0.000000" id="id0000000375" >
<path id="id0000000410" d="M 371.597 117.445 C 372.196 117.445 372.788 117.16 373.161 116.692 C 373.534 116.225 373.68 115.584 373.547 115 C 373.414 114.417 373.004 113.903 372.465 113.643 C 371.926 113.384 371.269 113.384 370.729 113.643 C 370.19 113.903 369.781 114.417 369.647 115 C 369.514 115.584 369.66 116.225 370.034 116.692 C 370.407 117.16 370.999 117.445 371.597 117.445 " />
</g>

<g opacity="1.000000" fill="#2ca02c" stroke-width="0.000000" id="id0000000377" >
<path id="id0000000411" d="M 459.975 41.5338 C 460.573 41.5338 461.165 41.2486 461.538 40.7807 C 461.911 40.3129 462.058 39.6721 461.924 39.0887 C 461.791 38.5053 461.381 37.9915 460.842 37.7318 C 460.303 37.4722 459.646 37.4722 459.107 37.7318 C 458.568 37.9915 458.158 38.5053 458.025 39.0887 C 457.892 39.6721 458.038 40.3129 458.411 40.7807 C 458.784 41.2486 459.376 41.5338 459.975 41.5338 " />
</g>

<g opacity="1.000000" fill="#2ca02c" stroke-width="0.000000" id="id0000000379" >
<path id="id0000000412" d="M 440.247 25.0875 C 440.845 25.0875 441.437 24.8023 441.81 24.3345 C 442.184 23.8666 442.33 23.2258 442.197 22.6425 C 442.063 22.0591 441.654 21.5452 441.115 21.2856 C 440.575 21.0259 439.918 21.0259 439.379 21.2856 C 438.84 21.5452 438.43 22.0591 438.297 22.6425 C 438.164 23.2258 438.31 23.8666 438.683 24.3345 C 439.056 24.8023 439.648 25.0875 440.247 25.0875 " />
</g>

<g opacity="1.000000" fill="#2ca02c" stroke-width="0.000000" id="id0000000381" >
<path id="id0000000413" d="M 431.43 78.0107 C 432.028 78.0107 432.62 77.7255 432.993 77.2576 C 433.367 76.7898 433.513 76.149 433.38 75.5656 C 433.247 74.9822 432.837 74.4683 432.298 74.2087 C 431.758 73.9491 431.101 73.9491 430.562 74.2087 C 430.023 74.4683 429.613 74.9822 429.48 75.5656 C 429.347 76.149 429.493 76.7898 429.866 77.2576 C 430.239 77.7255 430.831 78.0107 431.43 78.0107 " />
</g>

<g opacity="1.000000" fill="#2ca02c" stroke-width="0.000000" id="id0000000383" >
<path id="id0000000414" d="M 492.867 122.147 C 493.465 122.147 494.058 121.862 494.431 121.394 C 494.804 120.927 494.95 120.286 494.817 119.702 C 494.684 119.119 494.274 118.605 493.735 118.346 C 493.196 118.086 492.538 118.086 491.999 118.346 C 491.46 118.605 491.05 119.119 490.917 119.702 C 490.784 120.286 490.93 120.927 491.303 121.394 C 491.676 121.862 492.269 122.147 492.867 122.147 " />
</g>

<g opacity="1.000000" fill="#2ca02c" stroke-width="0.000000" id="id0000000385" >
<path id="id0000000415" d="M 467.587 77.7297 C 468.186 77.7297 468.778 77.4445 469.151 76.9767 C 469.524 76.5088 469.67 75.8681 469.537 75.2847 C 469.404 74.7013 468.994 74.1874 468.455 73.9278 C 467.916 73.6681 467.259 73.6681 466.719 73.9278 C 466.18 74.1874 465.77 74.7013 465.637 75.2847 C 465.504 75.8681 465.65 76.5088 466.024 76.9767 C 466.397 77.4445 466.989 77.7297 467.587 77.7297 " />
</g>

<g opacity="1.000000" fill="#2ca02c" stroke-width="0.000000" id="id0000000387" >
<path id="id0000000416" d="M 502.546 43.8496 C 503.144 43.8496 503.736 43.5645 504.109 43.0966 C 504.483 42.6288 504.629 41.988 504.496 41.4046 C 504.362 40.8212 503.953 40.3073 503.414 40.0477 C 502.874 39.7881 502.217 39.7881 501.678 40.0477 C 501.139 40.3073 500.729 40.8212 500.596 41.4046 C 500.463 41.988 500.609 42.6288 500.982 43.0966 C 501.355 43.5645 501.947 43.8496 502.546 43.8496 " />
</g>

<g opacity="1.000000" fill="#2ca02c" stroke-width="0.000000" id="id0000000389" >
<path id="id0000000417" d="M 534.94 104.907 C 535.538 104.907 536.13 104.622 536.504 104.154 C 536.877 103.686 537.023 103.045 536.89 102.462 C 536.757 101.878 536.347 101.365 535.808 101.105 C 535.269 100.845 534.611 100.845 534.072 101.105 C 533.533 101.365 533.123 101.878 532.99 102.462 C 532.857 103.045 533.003 103.686 533.376 104.154 C 533.749 104.622 534.342 104.907 534.94 104.907 " />
</g>

<g opacity="1.000000" fill="#2ca02c" stroke-width="0.000000" id="id0000000391" >
<path id="id0000000418" d="M 578.091 34.5179 C 578.689 34.5179 579.281 34.2327 579.655 33.7648 C 580.028 33.297 580.174 32.6562 580.041 32.0728 C 579.908 31.4894 579.498 30.9755 578.959 30.7159 C 578.42 30.4563 577.762 30.4563 577.223 30.7159 C 576.684 30.9755 576.274 31.4894 576.141 32.0728 C 576.008 32.6562 576.154 33.297 576.527 33.7648 C 576.9 34.2327 577.493 34.5179 578.091 34.5179 " />
</g>

<g opacity="1.000000" fill="#2ca02c" stroke-width="0.000000" id="id0000000393" >
<path id="id0000000419" d="M 609.013 17.1829 C 609.611 17.1829 610.204 16.8977 610.577 16.4298 C 610.95 15.962 611.096 15.3212 610.963 14.7378 C 610.83 14.1544 610.42 13.6406 609.881 13.3809 C 609.342 13.1213 608.684 13.1213 608.145 13.3809 C 607.606 13.6406 607.196 14.1544 607.063 14.7378 C 606.93 15.3212 607.076 15.962 607.449 16.4298 C 607.822 16.8977 608.415 17.1829 609.013 17.1829 " />
</g>

</g>

</g>

<polygon points="36,1 36,458 639,458 639,1 " stroke="black" stroke-width="1.000000" fill="none" id="id0000000420" pointer-events="none" class="rectangle" />
<polyline points="44.9323,458 44.9323,461 " fill="none" stroke-width="1.000000" stroke="black" id="id0000000421" class="line" />
<text id="id0000000422" transform="matrix(1 0 0 1 36 1)" x="8.932269" y="462.000000" dominant-baseline="hanging" text-anchor="middle" font-size="14.000000px" >
-14
</text>

<polyline points="126.16,458 126.16,461 " fill="none" stroke-width="1.000000" stroke="black" id="id0000000423" class="line" />
<text id="id0000000424" transform="matrix(1 0 0 1 36 1)" x="90.159622" y="462.000000" dominant-baseline="hanging" text-anchor="middle" font-size="14.000000px" >
-12
</text>

<polyline points="207.387,458 207.387,461 " fill="none" stroke-width="1.000000" stroke="black" id="id0000000425" class="line" />
<text id="id0000000426" transform="matrix(1 0 0 1 36 1)" x="171.386978" y="462.000000" dominant-baseline="hanging" text-anchor="middle" font-size="14.000000px" >
-10
</text>

<polyline points="288.614,458 288.614,461 " fill="none" stroke-width="1.000000" stroke="black" id="id0000000427" class="line" />
<text id="id0000000428" transform="matrix(1 0 0 1 36 1)" x="252.614334" y="462.000000" dominant-baseline="hanging" text-anchor="middle" font-size="14.000000px" >
-8
</text>

<polyline points="369.842,458 369.842,461 " fill="none" stroke-width="1.000000" stroke="black" id="id0000000429" class="line" />
<text id="id0000000430" transform="matrix(1 0 0 1 36 1)" x="333.841675" y="462.000000" dominant-baseline="hanging" text-anchor="middle" font-size="14.000000px" >
-6
</text>

<polyline points="451.069,458 451.069,461 " fill="none" stroke-width="1.000000" stroke="black" id="id0000000431" class="line" />
<text id="id0000000432" transform="matrix(1 0 0 1 36 1)" x="415.069000" y="462.000000" dominant-baseline="hanging" text-anchor="middle" font-size="14.000000px" >
-4
</text>

<polyline points="532.296,458 532.296,461 " fill="none" stroke-width="1.000000" stroke="black" id="id0000000433" class="line" />
<text id="id0000000434" transform="matrix(1 0 0 1 36 1)" x="496.296356" y="462.000000" dominant-baseline="hanging" text-anchor="middle" font-size="14.000000px" >
-2
</text>

<polyline points="613.524,458 613.524,461 " fill="none" stroke-width="1.000000" stroke="black" id="id0000000435" class="line" />
<text id="id0000000436" transform="matrix(1 0 0 1 36 1)" x="577.523743" y="462.000000" dominant-baseline="hanging" text-anchor="middle" font-size="14.000000px" >
0
</text>

<polyline points="33,453.677 36,453.677 " fill="none" stroke-width="1.000000" stroke="black" id="id0000000437" class="line" />
<text id="id0000000438" transform="matrix(1 0 0 1 36 1)" x="-5.000000" y="452.677368" dominant-baseline="middle" text-anchor="end" font-size="14.000000px" >
-2
</text>

<polyline points="33,377.228 36,377.228 " fill="none" stroke-width="1.000000" stroke="black" id="id0000000439" class="line" />
<text id="id0000000440" transform="matrix(1 0 0 1 36 1)" x="-5.000000" y="376.227600" dominant-baseline="middle" text-anchor="end" font-size="14.000000px" >
0
</text>

<polyline points="33,300.778 36,300.778 " fill="none" stroke-width="1.000000" stroke="black" id="id0000000441" class="line" />
<text id="id0000000442" transform="matrix(1 0 0 1 36 1)" x="-5.000000" y="299.777863" dominant-baseline="middle" text-anchor="end" font-size="14.000000px" >
2
</text>

<polyline points="33,224.328 36,224.328 " fill="none" stroke-width="1.000000" stroke="black" id="id0000000443" class="line" />
<text id="id0000000444" transform="matrix(1 0 0 1 36 1)" x="-5.000000" y="223.328110" dominant-baseline="middle" text-anchor="end" font-size="14.000000px" >
4
</text>

<polyline points="33,147.878 36,147.878 " fill="none" stroke-width="1.000000" stroke="black" id="id0000000445" class="line" />
<text id="id0000000446" transform="matrix(1 0 0 1 36 1)" x="-5.000000" y="146.878326" dominant-baseline="middle" text-anchor="end" font-size="14.000000px" >
6
</text>

<polyline points="33,71.4286 36,71.4286 " fill="none" stroke-width="1.000000" stroke="black" id="id0000000447" class="line" />
<text id="id0000000448" transform="matrix(1 0 0 1 36 1)" x="-5.000000" y="70.428589" dominant-baseline="middle" text-anchor="end" font-size="14.000000px" >
8
</text>


</g>

</svg>
