<svg viewBox="0 0 640 480" height="100%" width="100%" xmlns:xlink="http://www.w3.org/1999/xlink" xmlns="http://www.w3.org/2000/svg" id="id0000000000" >
<g id="id0000000001" >
<clipPath id="id0000000001clipper" >
<polygon points="36,1 36,458 639,458 639,1 " id="id0000000004" class="rectangle" />
</clipPath>

<g clip-path="url(#id0000000001clipper)" id="id0000000003" >
<g id="id0000000005" >
<g opacity="1.000000" fill="#1f77b4" stroke-width="0.000000" id="id0000000006" >
<path id="id0000000106" d="M 238.231 380.051 C 238.399 380.051 238.566 380.015 238.719 379.947 C 238.872 379.879 239.011 379.778 239.123 379.654 C 239.235 379.529 239.321 379.381 239.372 379.222 C 239.424 379.062 239.442 378.892 239.425 378.725 C 239.407 378.559 239.354 378.396 239.27 378.251 C 239.187 378.106 239.072 377.978 238.936 377.88 C 238.801 377.782 238.645 377.712 238.481 377.677 C 238.317 377.642 238.146 377.642 237.982 377.677 C 237.818 377.712 237.661 377.782 237.526 377.88 C 237.39 377.978 237.276 378.106 237.192 378.251 C 237.108 378.396 237.055 378.559 237.038 378.725 C 237.02 378.892 237.038 379.062 237.09 379.222 C 237.142 379.381 237.227 379.529 237.339 379.654 C 237.451 379.778 237.59 379.879 237.743 379.947 " />
</g>

<g opacity="1.000000" fill="#1f77b4" stroke-width="0.000000" id="id0000000008" >
<path id="id0000000107" d="M 458.511 341.93 C 458.678 341.93 458.846 341.895 458.999 341.826 C 459.152 341.758 459.291 341.658 459.403 341.533 C 459.515 341.409 459.6 341.26 459.652 341.101 C 459.704 340.942 459.722 340.771 459.704 340.605 C 459.687 340.438 459.634 340.275 459.55 340.13 C 459.466 339.985 459.352 339.858 459.216 339.759 C 459.081 339.661 458.924 339.591 458.76 339.556 C 458.597 339.522 458.425 339.522 458.261 339.556 C 458.098 339.591 457.941 339.661 457.806 339.759 C 457.67 339.858 457.555 339.985 457.472 340.13 C 457.388 340.275 457.335 340.438 457.318 340.605 C 457.3 340.771 457.318 340.942 457.37 341.101 C 457.421 341.26 457.507 341.409 457.619 341.533 C 457.731 341.658 457.87 341.758 458.023 341.826 " />
</g>

<g opacity="1.000000" fill="#1f77b4" stroke-width="0.000000" id="id0000000010" >
<path id="id0000000108" d="M 321.627 439.356 C 321.794 439.356 321.962 439.32 322.115 439.252 C 322.268 439.184 322.406 439.083 322.518 438.959 C 322.63 438.834 322.716 438.686 322.768 438.527 C 322.82 438.367 322.837 438.197 322.82 438.031 C 322.802 437.864 322.75 437.701 322.666 437.556 C 322.582 437.411 322.467 437.284 322.332 437.185 C 322.196 437.087 322.04 437.017 321.876 436.982 C 321.712 436.947 321.541 436.947 321.377 436.982 C 321.213 437.017 321.057 437.087 320.921 437.185 C 320.786 437.284 320.671 437.411 320.587 437.556 C 320.504 437.701 320.451 437.864 320.433 438.031 C 320.416 438.197 320.433 438.367 320.485 438.527 C 320.537 438.686 320.623 438.834 320.735 438.959 C 320.847 439.083 320.985 439.184 321.138 439.252 " />
</g>

<g opacity="1.000000" fill="#1f77b4" stroke-width="0.000000" id="id0000000012" >
<path id="id0000000109" d="M 139.267 264.154 C 139.434 264.154 139.602 264.118 139.755 264.05 C 139.908 263.982 140.046 263.881 140.158 263.757 C 140.271 263.632 140.356 263.484 140.408 263.325 C 140.46 263.165 140.478 262.995 140.46 262.829 C 140.443 262.662 140.39 262.499 140.306 262.354 C 140.222 262.209 140.108 262.082 139.972 261.983 C 139.836 261.885 139.68 261.815 139.516 261.78 C 139.352 261.745 139.181 261.745 139.017 261.78 C 138.853 261.815 138.697 261.885 138.561 261.983 C 138.426 262.082 138.311 262.209 138.227 262.354 C 138.144 262.499 138.091 262.662 138.073 262.829 C 138.056 262.995 138.074 263.165 138.125 263.325 C 138.177 263.484 138.263 263.632 138.375 263.757 C 138.487 263.881 138.625 263.982 138.779 264.05 " />
</g>

<g opacity="1.000000" fill="#1f77b4" stroke-width="0.000000" id="id0000000014" >
<path id="id0000000110" d="M 383.665 222.953 C 383.832 222.953 384 222.917 384.153 222.849 C 384.306 222.781 384.445 222.68 384.557 222.556 C 384.669 222.431 384.754 222.283 384.806 222.123 C 384.858 221.964 384.876 221.794 384.858 221.627 C 384.841 221.461 384.788 221.298 384.704 221.153 C 384.62 221.008 384.506 220.88 384.37 220.782 C 384.235 220.683 384.078 220.614 383.914 220.579 C 383.751 220.544 383.579 220.544 383.415 220.579 C 383.252 220.614 383.095 220.683 382.96 220.782 C 382.824 220.88 382.71 221.008 382.626 221.153 C 382.542 221.298 382.489 221.461 382.472 221.627 C 382.454 221.794 382.472 221.964 382.524 222.123 C 382.575 222.283 382.661 222.431 382.773 222.556 C 382.885 222.68 383.024 222.781 383.177 222.849 " />
</g>

<g opacity="1.000000" fill="#1f77b4" stroke-width="0.000000" id="id0000000016" >
<path id="id0000000111" d="M 58.2303 381.402 C 58.3978 381.402 58.5653 381.366 58.7184 381.298 C 58.8714 381.23 59.0099 381.13 59.1221 381.005 C 59.2342 380.88 59.3198 380.732 59.3716 380.573 C 59.4233 380.414 59.4412 380.243 59.4237 380.077 C 59.4062 379.91 59.3533 379.747 59.2695 379.602 C 59.1857 379.457 59.0712 379.33 58.9356 379.231 C 58.8001 379.133 58.6437 379.063 58.4798 379.028 C 58.3159 378.993 58.1447 378.993 57.9808 379.028 C 57.8169 379.063 57.6605 379.133 57.5249 379.231 C 57.3894 379.33 57.2748 379.457 57.1911 379.602 C 57.1073 379.747 57.0544 379.91 57.0369 380.077 C 57.0193 380.243 57.0372 380.414 57.089 380.573 C 57.1408 380.732 57.2264 380.88 57.3385 381.005 C 57.4506 381.13 57.5891 381.23 57.7422 381.298 " />
</g>

<g opacity="1.000000" fill="#1f77b4" stroke-width="0.000000" id="id0000000018" >
<path id="id0000000112" d="M 386.521 163.217 C 386.689 163.217 386.856 163.182 387.009 163.113 C 387.162 163.045 387.301 162.945 387.413 162.82 C 387.525 162.696 387.611 162.547 387.662 162.388 C 387.714 162.229 387.732 162.058 387.715 161.892 C 387.697 161.725 387.644 161.562 387.56 161.417 C 387.477 161.272 387.362 161.145 387.227 161.046 C 387.091 160.948 386.935 160.878 386.771 160.843 C 386.607 160.809 386.436 160.809 386.272 160.843 C 386.108 160.878 385.951 160.948 385.816 161.046 C 385.68 161.145 385.566 161.272 385.482 161.417 C 385.398 161.562 385.345 161.725 385.328 161.892 C 385.31 162.058 385.328 162.229 385.38 162.388 C 385.432 162.547 385.517 162.696 385.629 162.82 C 385.742 162.945 385.88 163.045 386.033 163.113 " />
</g>

<g opacity="1.000000" fill="#1f77b4" stroke-width="0.000000" id="id0000000020" >
<path id="id0000000113" d="M 299.177 326.796 C 299.344 326.796 299.512 326.76 299.665 326.692 C 299.818 326.624 299.956 326.523 300.069 326.398 C 300.181 326.274 300.266 326.126 300.318 325.966 C 300.37 325.807 300.388 325.637 300.37 325.47 C 300.353 325.303 300.3 325.141 300.216 324.996 C 300.132 324.85 300.018 324.723 299.882 324.625 C 299.747 324.526 299.59 324.457 299.426 324.422 C 299.262 324.387 299.091 324.387 298.927 324.422 C 298.763 324.457 298.607 324.526 298.471 324.625 C 298.336 324.723 298.221 324.85 298.138 324.996 C 298.054 325.141 298.001 325.303 297.983 325.47 C 297.966 325.637 297.984 325.807 298.035 325.966 C 298.087 326.126 298.173 326.274 298.285 326.398 C 298.397 326.523 298.536 326.624 298.689 326.692 " />
</g>

<g opacity="1.000000" fill="#1f77b4" stroke-width="0.000000" id="id0000000022" >
<path id="id0000000114" d="M 313.128 209.836 C 313.296 209.836 313.463 209.8 313.616 209.732 C 313.769 209.664 313.908 209.563 314.02 209.439 C 314.132 209.314 314.218 209.166 314.27 209.007 C 314.321 208.847 314.339 208.677 314.322 208.51 C 314.304 208.344 314.251 208.181 314.167 208.036 C 314.084 207.891 313.969 207.764 313.834 207.665 C 313.698 207.567 313.542 207.497 313.378 207.462 C 313.214 207.427 313.043 207.427 312.879 207.462 C 312.715 207.497 312.558 207.567 312.423 207.665 C 312.287 207.764 312.173 207.891 312.089 208.036 C 312.005 208.181 311.952 208.344 311.935 208.51 C 311.917 208.677 311.935 208.847 311.987 209.007 C 312.039 209.166 312.124 209.314 312.236 209.439 C 312.349 209.563 312.487 209.664 312.64 209.732 " />
</g>

<g opacity="1.000000" fill="#1f77b4" stroke-width="0.000000" id="id0000000024" >
<path id="id0000000115" d="M 239.729 147.718 C 239.896 147.718 240.064 147.682 240.217 147.614 C 240.37 147.546 240.508 147.445 240.62 147.321 C 240.732 147.196 240.818 147.048 240.87 146.888 C 240.922 146.729 240.94 146.559 240.922 146.392 C 240.905 146.226 240.852 146.063 240.768 145.918 C 240.684 145.772 240.57 145.645 240.434 145.547 C 240.298 145.448 240.142 145.379 239.978 145.344 C 239.814 145.309 239.643 145.309 239.479 145.344 C 239.315 145.379 239.159 145.448 239.023 145.547 C 238.888 145.645 238.773 145.772 238.689 145.918 C 238.606 146.063 238.553 146.226 238.535 146.392 C 238.518 146.559 238.536 146.729 238.587 146.888 C 238.639 147.048 238.725 147.196 238.837 147.321 C 238.949 147.445 239.087 147.546 239.241 147.614 " />
</g>

<g opacity="1.000000" fill="#1f77b4" stroke-width="0.000000" id="id0000000026" >
<path id="id0000000116" d="M 312.717 277.747 C 312.884 277.747 313.052 277.712 313.205 277.643 C 313.358 277.575 313.496 277.475 313.608 277.35 C 313.721 277.226 313.806 277.077 313.858 276.918 C 313.91 276.759 313.928 276.588 313.91 276.422 C 313.893 276.255 313.84 276.092 313.756 275.947 C 313.672 275.802 313.558 275.675 313.422 275.576 C 313.286 275.478 313.13 275.408 312.966 275.373 C 312.802 275.339 312.631 275.339 312.467 275.373 C 312.303 275.408 312.147 275.478 312.011 275.576 C 311.876 275.675 311.761 275.802 311.677 275.947 C 311.594 276.092 311.541 276.255 311.523 276.422 C 311.506 276.588 311.524 276.759 311.575 276.918 C 311.627 277.077 311.713 277.226 311.825 277.35 C 311.937 277.475 312.076 277.575 312.229 277.643 " />
</g>

<g opacity="1.000000" fill="#1f77b4" stroke-width="0.000000" id="id0000000028" >
<path id="id0000000117" d="M 471.129 132.053 C 471.296 132.053 471.464 132.018 471.617 131.949 C 471.77 131.881 471.908 131.781 472.021 131.656 C 472.133 131.532 472.218 131.383 472.27 131.224 C 472.322 131.065 472.34 130.894 472.322 130.728 C 472.305 130.561 472.252 130.398 472.168 130.253 C 472.084 130.108 471.97 129.981 471.834 129.882 C 471.699 129.784 471.542 129.714 471.378 129.679 C 471.214 129.645 471.043 129.645 470.879 129.679 C 470.715 129.714 470.559 129.784 470.423 129.882 C 470.288 129.981 470.173 130.108 470.09 130.253 C 470.006 130.398 469.953 130.561 469.935 130.728 C 469.918 130.894 469.936 131.065 469.987 131.224 C 470.039 131.383 470.125 131.532 470.237 131.656 C 470.349 131.781 470.488 131.881 470.641 131.949 " />
</g>

<g opacity="1.000000" fill="#1f77b4" stroke-width="0.000000" id="id0000000030" >
<path id="id0000000118" d="M 160.23 271.111 C 160.398 271.111 160.565 271.075 160.718 271.007 C 160.871 270.939 161.01 270.838 161.122 270.714 C 161.234 270.589 161.32 270.441 161.372 270.282 C 161.423 270.122 161.441 269.952 161.424 269.785 C 161.406 269.619 161.353 269.456 161.27 269.311 C 161.186 269.166 161.071 269.038 160.936 268.94 C 160.8 268.841 160.644 268.772 160.48 268.737 C 160.316 268.702 160.145 268.702 159.981 268.737 C 159.817 268.772 159.661 268.841 159.525 268.94 C 159.389 269.038 159.275 269.166 159.191 269.311 C 159.107 269.456 159.054 269.619 159.037 269.785 C 159.019 269.952 159.037 270.122 159.089 270.282 C 159.141 270.441 159.226 270.589 159.339 270.714 C 159.451 270.838 159.589 270.939 159.742 271.007 " />
</g>

<g opacity="1.000000" fill="#1f77b4" stroke-width="0.000000" id="id0000000032" >
<path id="id0000000119" d="M 218.204 277.137 C 218.371 277.137 218.539 277.101 218.692 277.033 C 218.845 276.965 218.984 276.864 219.096 276.74 C 219.208 276.615 219.293 276.467 219.345 276.307 C 219.397 276.148 219.415 275.978 219.397 275.811 C 219.38 275.645 219.327 275.482 219.243 275.337 C 219.159 275.191 219.045 275.064 218.909 274.966 C 218.774 274.867 218.617 274.798 218.453 274.763 C 218.289 274.728 218.118 274.728 217.954 274.763 C 217.79 274.798 217.634 274.867 217.499 274.966 C 217.363 275.064 217.248 275.191 217.165 275.337 C 217.081 275.482 217.028 275.645 217.01 275.811 C 216.993 275.978 217.011 276.148 217.063 276.307 C 217.114 276.467 217.2 276.615 217.312 276.74 C 217.424 276.864 217.563 276.965 217.716 277.033 " />
</g>

<g opacity="1.000000" fill="#1f77b4" stroke-width="0.000000" id="id0000000034" >
<path id="id0000000120" d="M 250.967 83.347 C 251.135 83.347 251.302 83.3114 251.455 83.2432 C 251.608 83.1751 251.747 83.0745 251.859 82.9499 C 251.971 82.8254 252.057 82.6772 252.108 82.5178 C 252.16 82.3585 252.178 82.1882 252.161 82.0216 C 252.143 81.8549 252.09 81.6921 252.006 81.547 C 251.923 81.4019 251.808 81.2747 251.673 81.1762 C 251.537 81.0777 251.381 81.008 251.217 80.9732 C 251.053 80.9384 250.882 80.9384 250.718 80.9732 C 250.554 81.008 250.397 81.0777 250.262 81.1762 C 250.126 81.2747 250.012 81.4019 249.928 81.547 C 249.844 81.6921 249.791 81.8549 249.774 82.0216 C 249.756 82.1882 249.774 82.3585 249.826 82.5178 C 249.878 82.6772 249.963 82.8254 250.075 82.9499 C 250.188 83.0745 250.326 83.1751 250.479 83.2432 " />
</g>

<g opacity="1.000000" fill="#1f77b4" stroke-width="0.000000" id="id0000000036" >
<path id="id0000000121" d="M 305.179 269.926 C 305.347 269.926 305.514 269.89 305.667 269.822 C 305.82 269.754 305.959 269.654 306.071 269.529 C 306.183 269.404 306.269 269.256 306.321 269.097 C 306.372 268.938 306.39 268.767 306.373 268.601 C 306.355 268.434 306.302 268.271 306.219 268.126 C 306.135 267.981 306.02 267.854 305.885 267.755 C 305.749 267.657 305.593 267.587 305.429 267.552 C 305.265 267.517 305.094 267.517 304.93 267.552 C 304.766 267.587 304.61 267.657 304.474 267.755 C 304.338 267.854 304.224 267.981 304.14 268.126 C 304.056 268.271 304.003 268.434 303.986 268.601 C 303.968 268.767 303.986 268.938 304.038 269.097 C 304.09 269.256 304.175 269.404 304.288 269.529 C 304.4 269.654 304.538 269.754 304.691 269.822 " />
</g>

<g opacity="1.000000" fill="#1f77b4" stroke-width="0.000000" id="id0000000038" >
<path id="id0000000122" d="M 163.499 122.394 C 163.666 122.394 163.834 122.359 163.987 122.29 C 164.14 122.222 164.278 122.122 164.391 121.997 C 164.503 121.873 164.588 121.724 164.64 121.565 C 164.692 121.406 164.71 121.235 164.692 121.069 C 164.675 120.902 164.622 120.739 164.538 120.594 C 164.454 120.449 164.34 120.322 164.204 120.223 C 164.069 120.125 163.912 120.055 163.748 120.02 C 163.584 119.986 163.413 119.986 163.249 120.02 C 163.085 120.055 162.929 120.125 162.793 120.223 C 162.658 120.322 162.543 120.449 162.46 120.594 C 162.376 120.739 162.323 120.902 162.305 121.069 C 162.288 121.235 162.306 121.406 162.357 121.565 C 162.409 121.724 162.495 121.873 162.607 121.997 C 162.719 122.122 162.858 122.222 163.011 122.29 " />
</g>

<g opacity="1.000000" fill="#1f77b4" stroke-width="0.000000" id="id0000000040" >
<path id="id0000000123" d="M 142.03 261.15 C 142.197 261.15 142.365 261.114 142.518 261.046 C 142.671 260.978 142.809 260.877 142.921 260.753 C 143.033 260.628 143.119 260.48 143.171 260.321 C 143.223 260.161 143.241 259.991 143.223 259.824 C 143.206 259.658 143.153 259.495 143.069 259.35 C 142.985 259.205 142.87 259.077 142.735 258.979 C 142.599 258.88 142.443 258.811 142.279 258.776 C 142.115 258.741 141.944 258.741 141.78 258.776 C 141.616 258.811 141.46 258.88 141.324 258.979 C 141.189 259.077 141.074 259.205 140.99 259.35 C 140.907 259.495 140.854 259.658 140.836 259.824 C 140.819 259.991 140.837 260.161 140.888 260.321 C 140.94 260.48 141.026 260.628 141.138 260.753 C 141.25 260.877 141.388 260.978 141.542 261.046 " />
</g>

<g opacity="1.000000" fill="#1f77b4" stroke-width="0.000000" id="id0000000042" >
<path id="id0000000124" d="M 289.148 314.539 C 289.316 314.539 289.483 314.503 289.636 314.435 C 289.789 314.367 289.928 314.266 290.04 314.142 C 290.152 314.017 290.238 313.869 290.29 313.71 C 290.341 313.55 290.359 313.38 290.342 313.213 C 290.324 313.047 290.271 312.884 290.188 312.739 C 290.104 312.594 289.989 312.466 289.854 312.368 C 289.718 312.27 289.562 312.2 289.398 312.165 C 289.234 312.13 289.063 312.13 288.899 312.165 C 288.735 312.2 288.578 312.27 288.443 312.368 C 288.307 312.466 288.193 312.594 288.109 312.739 C 288.025 312.884 287.972 313.047 287.955 313.213 C 287.937 313.38 287.955 313.55 288.007 313.71 C 288.059 313.869 288.144 314.017 288.256 314.142 C 288.369 314.266 288.507 314.367 288.66 314.435 " />
</g>

<g opacity="1.000000" fill="#1f77b4" stroke-width="0.000000" id="id0000000044" >
<path id="id0000000125" d="M 302.012 341.265 C 302.18 341.265 302.347 341.23 302.5 341.161 C 302.653 341.093 302.792 340.993 302.904 340.868 C 303.016 340.744 303.102 340.595 303.153 340.436 C 303.205 340.277 303.223 340.106 303.206 339.94 C 303.188 339.773 303.135 339.61 303.051 339.465 C 302.968 339.32 302.853 339.193 302.718 339.094 C 302.582 338.996 302.426 338.926 302.262 338.891 C 302.098 338.857 301.927 338.857 301.763 338.891 C 301.599 338.926 301.442 338.996 301.307 339.094 C 301.171 339.193 301.057 339.32 300.973 339.465 C 300.889 339.61 300.836 339.773 300.819 339.94 C 300.801 340.106 300.819 340.277 300.871 340.436 C 300.923 340.595 301.008 340.744 301.12 340.868 C 301.233 340.993 301.371 341.093 301.524 341.161 " />
</g>

<g opacity="1.000000" fill="#1f77b4" stroke-width="0.000000" id="id0000000046" >
<path id="id0000000126" d="M 267.781 173.197 C 267.949 173.197 268.116 173.161 268.269 173.093 C 268.422 173.025 268.561 172.925 268.673 172.8 C 268.785 172.676 268.871 172.527 268.922 172.368 C 268.974 172.209 268.992 172.038 268.974 171.872 C 268.957 171.705 268.904 171.542 268.82 171.397 C 268.736 171.252 268.622 171.125 268.486 171.026 C 268.351 170.928 268.194 170.858 268.031 170.823 C 267.867 170.788 267.695 170.788 267.532 170.823 C 267.368 170.858 267.211 170.928 267.076 171.026 C 266.94 171.125 266.826 171.252 266.742 171.397 C 266.658 171.542 266.605 171.705 266.588 171.872 C 266.57 172.038 266.588 172.209 266.64 172.368 C 266.692 172.527 266.777 172.676 266.889 172.8 C 267.001 172.925 267.14 173.025 267.293 173.093 " />
</g>

<g opacity="1.000000" fill="#1f77b4" stroke-width="0.000000" id="id0000000048" >
<path id="id0000000127" d="M 452.882 22.044 C 453.05 22.044 453.217 22.0084 453.37 21.9402 C 453.523 21.8721 453.662 21.7715 453.774 21.6469 C 453.886 21.5224 453.972 21.3741 454.023 21.2148 C 454.075 21.0554 454.093 20.8852 454.076 20.7185 C 454.058 20.5519 454.005 20.3891 453.921 20.244 C 453.838 20.0989 453.723 19.9716 453.587 19.8732 C 453.452 19.7747 453.295 19.705 453.132 19.6702 C 452.968 19.6354 452.796 19.6354 452.633 19.6702 C 452.469 19.705 452.312 19.7747 452.177 19.8732 C 452.041 19.9716 451.927 20.0989 451.843 20.244 C 451.759 20.3891 451.706 20.5519 451.689 20.7185 C 451.671 20.8852 451.689 21.0554 451.741 21.2148 C 451.793 21.3742 451.878 21.5224 451.99 21.6469 C 452.102 21.7715 452.241 21.8721 452.394 21.9402 " />
</g>

<g opacity="1.000000" fill="#1f77b4" stroke-width="0.000000" id="id0000000050" >
<path id="id0000000128" d="M 344.414 217.837 C 344.582 217.837 344.749 217.802 344.903 217.734 C 345.056 217.665 345.194 217.565 345.306 217.44 C 345.418 217.316 345.504 217.167 345.556 217.008 C 345.608 216.849 345.625 216.678 345.608 216.512 C 345.59 216.345 345.537 216.182 345.454 216.037 C 345.37 215.892 345.255 215.765 345.12 215.666 C 344.984 215.568 344.828 215.498 344.664 215.464 C 344.5 215.429 344.329 215.429 344.165 215.464 C 344.001 215.498 343.845 215.568 343.709 215.666 C 343.574 215.765 343.459 215.892 343.375 216.037 C 343.291 216.182 343.239 216.345 343.221 216.512 C 343.204 216.678 343.221 216.849 343.273 217.008 C 343.325 217.167 343.411 217.316 343.523 217.44 C 343.635 217.565 343.773 217.665 343.926 217.734 " />
</g>

<g opacity="1.000000" fill="#1f77b4" stroke-width="0.000000" id="id0000000052" >
<path id="id0000000129" d="M 206.445 311.751 C 206.612 311.751 206.78 311.716 206.933 311.648 C 207.086 311.579 207.224 311.479 207.337 311.354 C 207.449 311.23 207.534 311.082 207.586 310.922 C 207.638 310.763 207.656 310.593 207.638 310.426 C 207.621 310.259 207.568 310.096 207.484 309.951 C 207.4 309.806 207.286 309.679 207.15 309.581 C 207.015 309.482 206.858 309.412 206.694 309.378 C 206.53 309.343 206.359 309.343 206.195 309.378 C 206.031 309.412 205.875 309.482 205.739 309.581 C 205.604 309.679 205.489 309.806 205.406 309.951 C 205.322 310.096 205.269 310.259 205.251 310.426 C 205.234 310.593 205.252 310.763 205.304 310.922 C 205.355 311.082 205.441 311.23 205.553 311.354 C 205.665 311.479 205.804 311.579 205.957 311.648 " />
</g>

<g opacity="1.000000" fill="#1f77b4" stroke-width="0.000000" id="id0000000054" >
<path id="id0000000130" d="M 361.056 225.491 C 361.224 225.491 361.391 225.455 361.544 225.387 C 361.697 225.319 361.836 225.218 361.948 225.094 C 362.06 224.969 362.146 224.821 362.197 224.661 C 362.249 224.502 362.267 224.332 362.249 224.165 C 362.232 223.999 362.179 223.836 362.095 223.691 C 362.011 223.546 361.897 223.418 361.761 223.32 C 361.626 223.221 361.469 223.152 361.306 223.117 C 361.142 223.082 360.97 223.082 360.807 223.117 C 360.643 223.152 360.486 223.221 360.351 223.32 C 360.215 223.418 360.101 223.546 360.017 223.691 C 359.933 223.836 359.88 223.999 359.863 224.165 C 359.845 224.332 359.863 224.502 359.915 224.661 C 359.967 224.821 360.052 224.969 360.164 225.094 C 360.276 225.218 360.415 225.319 360.568 225.387 " />
</g>

<g opacity="1.000000" fill="#1f77b4" stroke-width="0.000000" id="id0000000056" >
<path id="id0000000131" d="M 616.77 287.296 C 616.937 287.296 617.105 287.261 617.258 287.193 C 617.411 287.125 617.549 287.024 617.661 286.899 C 617.774 286.775 617.859 286.627 617.911 286.467 C 617.963 286.308 617.981 286.138 617.963 285.971 C 617.946 285.804 617.893 285.642 617.809 285.496 C 617.725 285.351 617.611 285.224 617.475 285.126 C 617.339 285.027 617.183 284.957 617.019 284.923 C 616.855 284.888 616.684 284.888 616.52 284.923 C 616.356 284.957 616.2 285.027 616.064 285.126 C 615.929 285.224 615.814 285.351 615.73 285.496 C 615.647 285.642 615.594 285.804 615.576 285.971 C 615.559 286.138 615.577 286.308 615.628 286.467 C 615.68 286.627 615.766 286.775 615.878 286.899 C 615.99 287.024 616.128 287.125 616.282 287.193 " />
</g>

<g opacity="1.000000" fill="#1f77b4" stroke-width="0.000000" id="id0000000058" >
<path id="id0000000132" d="M 330.716 275.9 C 330.883 275.9 331.051 275.864 331.204 275.796 C 331.357 275.728 331.495 275.627 331.607 275.503 C 331.72 275.378 331.805 275.23 331.857 275.07 C 331.909 274.911 331.927 274.741 331.909 274.574 C 331.892 274.408 331.839 274.245 331.755 274.1 C 331.671 273.955 331.557 273.827 331.421 273.729 C 331.285 273.63 331.129 273.561 330.965 273.526 C 330.801 273.491 330.63 273.491 330.466 273.526 C 330.302 273.561 330.146 273.63 330.01 273.729 C 329.875 273.827 329.76 273.955 329.676 274.1 C 329.593 274.245 329.54 274.408 329.522 274.574 C 329.505 274.741 329.523 274.911 329.574 275.07 C 329.626 275.23 329.712 275.378 329.824 275.503 C 329.936 275.627 330.074 275.728 330.228 275.796 " />
</g>

<g opacity="1.000000" fill="#1f77b4" stroke-width="0.000000" id="id0000000060" >
<path id="id0000000133" d="M 63.7606 43.4932 C 63.9281 43.4932 64.0956 43.4576 64.2487 43.3894 C 64.4017 43.3213 64.5403 43.2206 64.6524 43.0961 C 64.7645 42.9716 64.8501 42.8233 64.9019 42.664 C 64.9536 42.5046 64.9715 42.3344 64.954 42.1677 C 64.9365 42.0011 64.8836 41.8383 64.7998 41.6932 C 64.716 41.548 64.6015 41.4208 64.4659 41.3223 C 64.3304 41.2238 64.174 41.1542 64.0101 41.1194 C 63.8462 41.0845 63.675 41.0845 63.5111 41.1194 C 63.3472 41.1542 63.1908 41.2238 63.0552 41.3223 C 62.9197 41.4208 62.8051 41.548 62.7214 41.6932 C 62.6376 41.8383 62.5847 42.0011 62.5672 42.1677 C 62.5496 42.3344 62.5675 42.5046 62.6193 42.664 C 62.6711 42.8233 62.7567 42.9716 62.8688 43.0961 C 62.9809 43.2206 63.1194 43.3213 63.2725 43.3894 " />
</g>

<g opacity="1.000000" fill="#1f77b4" stroke-width="0.000000" id="id0000000062" >
<path id="id0000000134" d="M 267.728 140.371 C 267.895 140.371 268.063 140.335 268.216 140.267 C 268.369 140.199 268.507 140.098 268.62 139.974 C 268.732 139.849 268.817 139.701 268.869 139.542 C 268.921 139.382 268.939 139.212 268.921 139.045 C 268.904 138.879 268.851 138.716 268.767 138.571 C 268.683 138.426 268.569 138.298 268.433 138.2 C 268.298 138.101 268.141 138.032 267.977 137.997 C 267.813 137.962 267.642 137.962 267.478 137.997 C 267.314 138.032 267.158 138.101 267.022 138.2 C 266.887 138.298 266.772 138.426 266.688 138.571 C 266.605 138.716 266.552 138.879 266.534 139.045 C 266.517 139.212 266.535 139.382 266.586 139.542 C 266.638 139.701 266.724 139.849 266.836 139.974 C 266.948 140.098 267.087 140.199 267.24 140.267 " />
</g>

<g opacity="1.000000" fill="#1f77b4" stroke-width="0.000000" id="id0000000064" >
<path id="id0000000135" d="M 510.57 174.452 C 510.738 174.452 510.905 174.416 511.058 174.348 C 511.212 174.28 511.35 174.179 511.462 174.055 C 511.574 173.93 511.66 173.782 511.712 173.622 C 511.763 173.463 511.781 173.293 511.764 173.126 C 511.746 172.96 511.693 172.797 511.61 172.652 C 511.526 172.506 511.411 172.379 511.276 172.281 C 511.14 172.182 510.984 172.113 510.82 172.078 C 510.656 172.043 510.485 172.043 510.321 172.078 C 510.157 172.113 510.001 172.182 509.865 172.281 C 509.729 172.379 509.615 172.506 509.531 172.652 C 509.447 172.797 509.394 172.96 509.377 173.126 C 509.359 173.293 509.377 173.463 509.429 173.622 C 509.481 173.782 509.566 173.93 509.679 174.055 C 509.791 174.179 509.929 174.28 510.082 174.348 " />
</g>

<g opacity="1.000000" fill="#1f77b4" stroke-width="0.000000" id="id0000000066" >
<path id="id0000000136" d="M 396.642 435.392 C 396.81 435.392 396.977 435.357 397.13 435.289 C 397.283 435.221 397.422 435.12 397.534 434.995 C 397.646 434.871 397.732 434.723 397.783 434.563 C 397.835 434.404 397.853 434.234 397.836 434.067 C 397.818 433.9 397.765 433.738 397.681 433.592 C 397.598 433.447 397.483 433.32 397.347 433.222 C 397.212 433.123 397.056 433.053 396.892 433.019 C 396.728 432.984 396.557 432.984 396.393 433.019 C 396.229 433.053 396.072 433.123 395.937 433.222 C 395.801 433.32 395.687 433.447 395.603 433.592 C 395.519 433.738 395.466 433.9 395.449 434.067 C 395.431 434.234 395.449 434.404 395.501 434.563 C 395.553 434.723 395.638 434.871 395.75 434.995 C 395.862 435.12 396.001 435.221 396.154 435.289 " />
</g>

<g opacity="1.000000" fill="#1f77b4" stroke-width="0.000000" id="id0000000068" >
<path id="id0000000137" d="M 202.586 195.382 C 202.753 195.382 202.921 195.347 203.074 195.279 C 203.227 195.211 203.365 195.11 203.477 194.985 C 203.59 194.861 203.675 194.713 203.727 194.553 C 203.779 194.394 203.797 194.224 203.779 194.057 C 203.762 193.89 203.709 193.728 203.625 193.582 C 203.541 193.437 203.427 193.31 203.291 193.212 C 203.155 193.113 202.999 193.043 202.835 193.009 C 202.671 192.974 202.5 192.974 202.336 193.009 C 202.172 193.043 202.016 193.113 201.88 193.212 C 201.745 193.31 201.63 193.437 201.546 193.582 C 201.463 193.728 201.41 193.89 201.392 194.057 C 201.375 194.224 201.393 194.394 201.444 194.553 C 201.496 194.713 201.582 194.861 201.694 194.985 C 201.806 195.11 201.944 195.211 202.098 195.279 " />
</g>

<g opacity="1.000000" fill="#1f77b4" stroke-width="0.000000" id="id0000000070" >
<path id="id0000000138" d="M 403.334 86.7046 C 403.501 86.7046 403.669 86.669 403.822 86.6008 C 403.975 86.5327 404.114 86.4321 404.226 86.3075 C 404.338 86.183 404.423 86.0348 404.475 85.8754 C 404.527 85.716 404.545 85.5458 404.527 85.3791 C 404.51 85.2125 404.457 85.0497 404.373 84.9046 C 404.289 84.7595 404.175 84.6322 404.039 84.5338 C 403.904 84.4353 403.747 84.3656 403.583 84.3308 C 403.419 84.296 403.248 84.296 403.084 84.3308 C 402.92 84.3656 402.764 84.4353 402.629 84.5338 C 402.493 84.6322 402.378 84.7595 402.295 84.9046 C 402.211 85.0497 402.158 85.2125 402.14 85.3791 C 402.123 85.5458 402.141 85.716 402.193 85.8754 C 402.244 86.0348 402.33 86.183 402.442 86.3075 C 402.554 86.4321 402.693 86.5327 402.846 86.6008 " />
</g>

<g opacity="1.000000" fill="#1f77b4" stroke-width="0.000000" id="id0000000072" >
<path id="id0000000139" d="M 423.692 304.211 C 423.86 304.211 424.027 304.176 424.18 304.108 C 424.333 304.039 424.472 303.939 424.584 303.814 C 424.696 303.69 424.781 303.541 424.833 303.382 C 424.885 303.223 424.903 303.052 424.885 302.886 C 424.868 302.719 424.815 302.556 424.731 302.411 C 424.647 302.266 424.533 302.139 424.397 302.04 C 424.262 301.942 424.105 301.872 423.941 301.838 C 423.778 301.803 423.606 301.803 423.443 301.838 C 423.279 301.872 423.122 301.942 422.987 302.04 C 422.851 302.139 422.737 302.266 422.653 302.411 C 422.569 302.556 422.516 302.719 422.499 302.886 C 422.481 303.052 422.499 303.223 422.551 303.382 C 422.603 303.541 422.688 303.69 422.8 303.814 C 422.912 303.939 423.051 304.039 423.204 304.108 " />
</g>

<g opacity="1.000000" fill="#1f77b4" stroke-width="0.000000" id="id0000000074" >
<path id="id0000000140" d="M 427.349 308.034 C 427.516 308.034 427.684 307.998 427.837 307.93 C 427.99 307.862 428.128 307.762 428.24 307.637 C 428.352 307.512 428.438 307.364 428.49 307.205 C 428.542 307.046 428.559 306.875 428.542 306.709 C 428.524 306.542 428.472 306.379 428.388 306.234 C 428.304 306.089 428.189 305.962 428.054 305.863 C 427.918 305.765 427.762 305.695 427.598 305.66 C 427.434 305.625 427.263 305.625 427.099 305.66 C 426.935 305.695 426.779 305.765 426.643 305.863 C 426.508 305.962 426.393 306.089 426.309 306.234 C 426.225 306.379 426.173 306.542 426.155 306.709 C 426.138 306.875 426.155 307.046 426.207 307.205 C 426.259 307.364 426.345 307.512 426.457 307.637 C 426.569 307.762 426.707 307.862 426.86 307.93 " />
</g>

<g opacity="1.000000" fill="#1f77b4" stroke-width="0.000000" id="id0000000076" >
<path id="id0000000141" d="M 212.467 230.933 C 212.634 230.933 212.802 230.897 212.955 230.829 C 213.108 230.761 213.246 230.661 213.358 230.536 C 213.471 230.411 213.556 230.263 213.608 230.104 C 213.66 229.945 213.678 229.774 213.66 229.608 C 213.643 229.441 213.59 229.278 213.506 229.133 C 213.422 228.988 213.308 228.861 213.172 228.762 C 213.036 228.664 212.88 228.594 212.716 228.559 C 212.552 228.524 212.381 228.524 212.217 228.559 C 212.053 228.594 211.897 228.664 211.761 228.762 C 211.626 228.861 211.511 228.988 211.427 229.133 C 211.344 229.278 211.291 229.441 211.273 229.608 C 211.256 229.774 211.274 229.945 211.325 230.104 C 211.377 230.263 211.463 230.411 211.575 230.536 C 211.687 230.661 211.825 230.761 211.979 230.829 " />
</g>

<g opacity="1.000000" fill="#1f77b4" stroke-width="0.000000" id="id0000000078" >
<path id="id0000000142" d="M 347.967 248.443 C 348.135 248.443 348.302 248.408 348.455 248.339 C 348.608 248.271 348.747 248.171 348.859 248.046 C 348.971 247.922 349.057 247.773 349.109 247.614 C 349.16 247.455 349.178 247.284 349.161 247.118 C 349.143 246.951 349.09 246.788 349.007 246.643 C 348.923 246.498 348.808 246.371 348.673 246.272 C 348.537 246.174 348.381 246.104 348.217 246.069 C 348.053 246.034 347.882 246.034 347.718 246.069 C 347.554 246.104 347.397 246.174 347.262 246.272 C 347.126 246.371 347.012 246.498 346.928 246.643 C 346.844 246.788 346.791 246.951 346.774 247.118 C 346.756 247.284 346.774 247.455 346.826 247.614 C 346.878 247.773 346.963 247.922 347.076 248.046 C 347.188 248.171 347.326 248.271 347.479 248.339 " />
</g>

<g opacity="1.000000" fill="#1f77b4" stroke-width="0.000000" id="id0000000080" >
<path id="id0000000143" d="M 434.09 296.144 C 434.258 296.144 434.425 296.109 434.578 296.041 C 434.731 295.973 434.87 295.872 434.982 295.747 C 435.094 295.623 435.179 295.475 435.231 295.315 C 435.283 295.156 435.301 294.986 435.283 294.819 C 435.266 294.652 435.213 294.49 435.129 294.344 C 435.045 294.199 434.931 294.072 434.795 293.974 C 434.66 293.875 434.503 293.806 434.339 293.771 C 434.176 293.736 434.004 293.736 433.84 293.771 C 433.677 293.806 433.52 293.875 433.385 293.974 C 433.249 294.072 433.135 294.199 433.051 294.344 C 432.967 294.49 432.914 294.652 432.897 294.819 C 432.879 294.986 432.897 295.156 432.949 295.315 C 433 295.475 433.086 295.623 433.198 295.747 C 433.31 295.872 433.449 295.973 433.602 296.041 " />
</g>

<g opacity="1.000000" fill="#1f77b4" stroke-width="0.000000" id="id0000000082" >
<path id="id0000000144" d="M 218.265 122.293 C 218.432 122.293 218.6 122.257 218.753 122.189 C 218.906 122.121 219.045 122.021 219.157 121.896 C 219.269 121.771 219.354 121.623 219.406 121.464 C 219.458 121.304 219.476 121.134 219.458 120.968 C 219.441 120.801 219.388 120.638 219.304 120.493 C 219.22 120.348 219.106 120.221 218.97 120.122 C 218.835 120.024 218.678 119.954 218.514 119.919 C 218.35 119.884 218.179 119.884 218.015 119.919 C 217.851 119.954 217.695 120.024 217.56 120.122 C 217.424 120.221 217.309 120.348 217.226 120.493 C 217.142 120.638 217.089 120.801 217.071 120.968 C 217.054 121.134 217.072 121.304 217.124 121.464 C 217.175 121.623 217.261 121.771 217.373 121.896 C 217.485 122.021 217.624 122.121 217.777 122.189 " />
</g>

<g opacity="1.000000" fill="#1f77b4" stroke-width="0.000000" id="id0000000084" >
<path id="id0000000145" d="M 237.672 184.066 C 237.84 184.066 238.007 184.03 238.16 183.962 C 238.313 183.894 238.452 183.793 238.564 183.669 C 238.676 183.544 238.762 183.396 238.814 183.236 C 238.865 183.077 238.883 182.907 238.866 182.74 C 238.848 182.574 238.795 182.411 238.712 182.266 C 238.628 182.121 238.513 181.993 238.378 181.895 C 238.242 181.796 238.086 181.727 237.922 181.692 C 237.758 181.657 237.587 181.657 237.423 181.692 C 237.259 181.727 237.103 181.796 236.967 181.895 C 236.831 181.993 236.717 182.121 236.633 182.266 C 236.549 182.411 236.496 182.574 236.479 182.74 C 236.461 182.907 236.479 183.077 236.531 183.236 C 236.583 183.396 236.668 183.544 236.781 183.669 C 236.893 183.793 237.031 183.894 237.184 183.962 " />
</g>

<g opacity="1.000000" fill="#1f77b4" stroke-width="0.000000" id="id0000000086" >
<path id="id0000000146" d="M 279.865 228.052 C 280.033 228.052 280.201 228.016 280.354 227.948 C 280.507 227.88 280.645 227.779 280.757 227.655 C 280.869 227.53 280.955 227.382 281.007 227.223 C 281.059 227.063 281.076 226.893 281.059 226.726 C 281.041 226.56 280.988 226.397 280.905 226.252 C 280.821 226.107 280.706 225.979 280.571 225.881 C 280.435 225.782 280.279 225.713 280.115 225.678 C 279.951 225.643 279.78 225.643 279.616 225.678 C 279.452 225.713 279.296 225.782 279.16 225.881 C 279.025 225.979 278.91 226.107 278.826 226.252 C 278.742 226.397 278.69 226.56 278.672 226.726 C 278.655 226.893 278.672 227.063 278.724 227.223 C 278.776 227.382 278.862 227.53 278.974 227.655 C 279.086 227.779 279.224 227.88 279.377 227.948 " />
</g>

<g opacity="1.000000" fill="#1f77b4" stroke-width="0.000000" id="id0000000088" >
<path id="id0000000147" d="M 268.336 34.5674 C 268.504 34.5674 268.671 34.5319 268.824 34.4637 C 268.977 34.3956 269.116 34.2949 269.228 34.1704 C 269.34 34.0459 269.426 33.8976 269.478 33.7383 C 269.529 33.5789 269.547 33.4086 269.53 33.242 C 269.512 33.0754 269.459 32.9126 269.376 32.7674 C 269.292 32.6223 269.177 32.4951 269.042 32.3966 C 268.906 32.2981 268.75 32.2285 268.586 32.1937 C 268.422 32.1588 268.251 32.1588 268.087 32.1937 C 267.923 32.2285 267.766 32.2981 267.631 32.3966 C 267.495 32.4951 267.381 32.6223 267.297 32.7674 C 267.213 32.9126 267.16 33.0754 267.143 33.242 C 267.125 33.4086 267.143 33.5789 267.195 33.7383 C 267.247 33.8976 267.332 34.0459 267.444 34.1704 C 267.557 34.2949 267.695 34.3956 267.848 34.4637 " />
</g>

<g opacity="1.000000" fill="#1f77b4" stroke-width="0.000000" id="id0000000090" >
<path id="id0000000148" d="M 274.98 62.8095 C 275.147 62.8095 275.315 62.7739 275.468 62.7058 C 275.621 62.6376 275.759 62.537 275.871 62.4125 C 275.983 62.288 276.069 62.1397 276.121 61.9803 C 276.173 61.821 276.19 61.6507 276.173 61.4841 C 276.155 61.3175 276.103 61.1546 276.019 61.0095 C 275.935 60.8644 275.82 60.7372 275.685 60.6387 C 275.549 60.5402 275.393 60.4706 275.229 60.4357 C 275.065 60.4009 274.894 60.4009 274.73 60.4357 C 274.566 60.4706 274.41 60.5402 274.274 60.6387 C 274.139 60.7372 274.024 60.8644 273.94 61.0095 C 273.857 61.1546 273.804 61.3175 273.786 61.4841 C 273.769 61.6507 273.786 61.821 273.838 61.9803 C 273.89 62.1397 273.976 62.288 274.088 62.4125 C 274.2 62.537 274.338 62.6376 274.491 62.7058 " />
</g>

<g opacity="1.000000" fill="#1f77b4" stroke-width="0.000000" id="id0000000092" >
<path id="id0000000149" d="M 373.203 286.728 C 373.371 286.728 373.538 286.692 373.691 286.624 C 373.844 286.556 373.983 286.455 374.095 286.331 C 374.207 286.206 374.293 286.058 374.345 285.898 C 374.396 285.739 374.414 285.569 374.397 285.402 C 374.379 285.236 374.326 285.073 374.242 284.928 C 374.159 284.783 374.044 284.655 373.909 284.557 C 373.773 284.458 373.617 284.389 373.453 284.354 C 373.289 284.319 373.118 284.319 372.954 284.354 C 372.79 284.389 372.633 284.458 372.498 284.557 C 372.362 284.655 372.248 284.783 372.164 284.928 C 372.08 285.073 372.027 285.236 372.01 285.402 C 371.992 285.569 372.01 285.739 372.062 285.898 C 372.114 286.058 372.199 286.206 372.311 286.331 C 372.424 286.455 372.562 286.556 372.715 286.624 " />
</g>

<g opacity="1.000000" fill="#1f77b4" stroke-width="0.000000" id="id0000000094" >
<path id="id0000000150" d="M 217.191 220.97 C 217.359 220.97 217.526 220.935 217.679 220.866 C 217.832 220.798 217.971 220.698 218.083 220.573 C 218.195 220.449 218.281 220.3 218.333 220.141 C 218.384 219.982 218.402 219.811 218.385 219.645 C 218.367 219.478 218.314 219.315 218.231 219.17 C 218.147 219.025 218.032 218.898 217.897 218.799 C 217.761 218.701 217.605 218.631 217.441 218.596 C 217.277 218.562 217.106 218.562 216.942 218.596 C 216.778 218.631 216.622 218.701 216.486 218.799 C 216.35 218.898 216.236 219.025 216.152 219.17 C 216.068 219.315 216.015 219.478 215.998 219.645 C 215.98 219.811 215.998 219.982 216.05 220.141 C 216.102 220.3 216.187 220.449 216.3 220.573 C 216.412 220.698 216.55 220.798 216.703 220.866 " />
</g>

<g opacity="1.000000" fill="#1f77b4" stroke-width="0.000000" id="id0000000096" >
<path id="id0000000151" d="M 468.733 250.874 C 468.901 250.874 469.068 250.839 469.221 250.77 C 469.374 250.702 469.513 250.602 469.625 250.477 C 469.737 250.353 469.823 250.204 469.874 250.045 C 469.926 249.886 469.944 249.715 469.927 249.549 C 469.909 249.382 469.856 249.219 469.772 249.074 C 469.689 248.929 469.574 248.802 469.439 248.703 C 469.303 248.605 469.147 248.535 468.983 248.5 C 468.819 248.466 468.648 248.466 468.484 248.5 C 468.32 248.535 468.163 248.605 468.028 248.703 C 467.892 248.802 467.778 248.929 467.694 249.074 C 467.61 249.219 467.557 249.382 467.54 249.549 C 467.522 249.715 467.54 249.886 467.592 250.045 C 467.644 250.204 467.729 250.353 467.841 250.477 C 467.953 250.602 468.092 250.702 468.245 250.77 " />
</g>

<g opacity="1.000000" fill="#1f77b4" stroke-width="0.000000" id="id0000000098" >
<path id="id0000000152" d="M 278.585 376.881 C 278.753 376.881 278.92 376.846 279.073 376.778 C 279.226 376.71 279.365 376.609 279.477 376.484 C 279.589 376.36 279.675 376.212 279.726 376.052 C 279.778 375.893 279.796 375.723 279.779 375.556 C 279.761 375.389 279.708 375.227 279.624 375.081 C 279.541 374.936 279.426 374.809 279.29 374.711 C 279.155 374.612 278.999 374.543 278.835 374.508 C 278.671 374.473 278.5 374.473 278.336 374.508 C 278.172 374.543 278.015 374.612 277.88 374.711 C 277.744 374.809 277.63 374.936 277.546 375.081 C 277.462 375.227 277.409 375.389 277.392 375.556 C 277.374 375.723 277.392 375.893 277.444 376.052 C 277.496 376.212 277.581 376.36 277.693 376.484 C 277.805 376.609 277.944 376.71 278.097 376.778 " />
</g>

<g opacity="1.000000" fill="#1f77b4" stroke-width="0.000000" id="id0000000100" >
<path id="id0000000153" d="M 299.98 397.896 C 300.147 397.896 300.315 397.86 300.468 397.792 C 300.621 397.724 300.759 397.624 300.871 397.499 C 300.983 397.375 301.069 397.226 301.121 397.067 C 301.173 396.908 301.191 396.737 301.173 396.571 C 301.156 396.404 301.103 396.241 301.019 396.096 C 300.935 395.951 300.82 395.824 300.685 395.725 C 300.549 395.627 300.393 395.557 300.229 395.522 C 300.065 395.487 299.894 395.487 299.73 395.522 C 299.566 395.557 299.41 395.627 299.274 395.725 C 299.139 395.824 299.024 395.951 298.94 396.096 C 298.857 396.241 298.804 396.404 298.786 396.571 C 298.769 396.737 298.787 396.908 298.838 397.067 C 298.89 397.226 298.976 397.375 299.088 397.499 C 299.2 397.624 299.338 397.724 299.492 397.792 " />
</g>

<g opacity="1.000000" fill="#1f77b4" stroke-width="0.000000" id="id0000000102" >
<path id="id0000000154" d="M 161.226 222.611 C 161.393 222.611 161.561 222.576 161.714 222.508 C 161.867 222.439 162.006 222.339 162.118 222.214 C 162.23 222.09 162.315 221.941 162.367 221.782 C 162.419 221.623 162.437 221.452 162.419 221.286 C 162.402 221.119 162.349 220.956 162.265 220.811 C 162.181 220.666 162.067 220.539 161.931 220.44 C 161.796 220.342 161.639 220.272 161.475 220.238 C 161.311 220.203 161.14 220.203 160.976 220.238 C 160.812 220.272 160.656 220.342 160.521 220.44 C 160.385 220.539 160.27 220.666 160.187 220.811 C 160.103 220.956 160.05 221.119 160.032 221.286 C 160.015 221.452 160.033 221.623 160.085 221.782 C 160.136 221.941 160.222 222.09 160.334 222.214 C 160.446 222.339 160.585 222.439 160.738 222.508 " />
</g>

<g opacity="1.000000" fill="#1f77b4" stroke-width="0.000000" id="id0000000104" >
<path id="id0000000155" d="M 203.915 255.375 C 204.083 255.375 204.25 255.339 204.403 255.271 C 204.556 255.203 204.695 255.102 204.807 254.977 C 204.919 254.853 205.005 254.705 205.057 254.545 C 205.108 254.386 205.126 254.216 205.109 254.049 C 205.091 253.882 205.038 253.72 204.954 253.575 C 204.871 253.429 204.756 253.302 204.621 253.204 C 204.485 253.105 204.329 253.036 204.165 253.001 C 204.001 252.966 203.83 252.966 203.666 253.001 C 203.502 253.036 203.345 253.105 203.21 253.204 C 203.074 253.302 202.96 253.429 202.876 253.575 C 202.792 253.72 202.739 253.882 202.722 254.049 C 202.704 254.216 202.722 254.386 202.774 254.545 C 202.826 254.705 202.911 254.853 203.023 254.977 C 203.136 255.102 203.274 255.203 203.427 255.271 " />
</g>

</g>

</g>

<polygon points="36,1 36,458 639,458 639,1 " stroke="black" stroke-width="1.000000" fill="none" id="id0000000156" pointer-events="none" class="rectangle" />
<polyline points="88.4248,458 88.4248,461 " fill="none" stroke-width="1.000000" stroke="black" id="id0000000157" class="line" />
<text id="id0000000158" transform="matrix(1 0 0 1 36 1)" x="52.424835" y="462.000000" dominant-baseline="hanging" text-anchor="middle" font-size="14.000000px" >
-4
</text>

<polyline points="191.721,458 191.721,461 " fill="none" stroke-width="1.000000" stroke="black" id="id0000000159" class="line" />
<text id="id0000000160" transform="matrix(1 0 0 1 36 1)" x="155.721420" y="462.000000" dominant-baseline="hanging" text-anchor="middle" font-size="14.000000px" >
-2
</text>

<polyline points="295.018,458 295.018,461 " fill="none" stroke-width="1.000000" stroke="black" id="id0000000161" class="line" />
<text id="id0000000162" transform="matrix(1 0 0 1 36 1)" x="259.018005" y="462.000000" dominant-baseline="hanging" text-anchor="middle" font-size="14.000000px" >
0
</text>

<polyline points="398.315,458 398.315,461 " fill="none" stroke-width="1.000000" stroke="black" id="id0000000163" class="line" />
<text id="id0000000164" transform="matrix(1 0 0 1 36 1)" x="362.314606" y="462.000000" dominant-baseline="hanging" text-anchor="middle" font-size="14.000000px" >
2
</text>

<polyline points="501.611,458 501.611,461 " fill="none" stroke-width="1.000000" stroke="black" id="id0000000165" class="line" />
<text id="id0000000166" transform="matrix(1 0 0 1 36 1)" x="465.611206" y="462.000000" dominant-baseline="hanging" text-anchor="middle" font-size="14.000000px" >
4
</text>

<polyline points="604.908,458 604.908,461 " fill="none" stroke-width="1.000000" stroke="black" id="id0000000167" class="line" />
<text id="id0000000168" transform="matrix(1 0 0 1 36 1)" x="568.907776" y="462.000000" dominant-baseline="hanging" text-anchor="middle" font-size="14.000000px" >
6
</text>

<polyline points="33,442.483 36,442.483 " fill="none" stroke-width="1.000000" stroke="black" id="id0000000169" class="line" />
<text id="id0000000170" transform="matrix(1 0 0 1 36 1)" x="-5.000000" y="441.483093" dominant-baseline="middle" text-anchor="end" font-size="14.000000px" >
-4
</text>

<polyline points="33,389.201 36,389.201 " fill="none" stroke-width="1.000000" stroke="black" id="id0000000171" class="line" />
<text id="id0000000172" transform="matrix(1 0 0 1 36 1)" x="-5.000000" y="388.201111" dominant-baseline="middle" text-anchor="end" font-size="14.000000px" >
-3
</text>

<polyline points="33,335.919 36,335.919 " fill="none" stroke-width="1.000000" stroke="black" id="id0000000173" class="line" />
<text id="id0000000174" transform="matrix(1 0 0 1 36 1)" x="-5.000000" y="334.919128" dominant-baseline="middle" text-anchor="end" font-size="14.000000px" >
-2
</text>

<polyline points="33,282.637 36,282.637 " fill="none" stroke-width="1.000000" stroke="black" id="id0000000175" class="line" />
<text id="id0000000176" transform="matrix(1 0 0 1 36 1)" x="-5.000000" y="281.637146" dominant-baseline="middle" text-anchor="end" font-size="14.000000px" >
-1
</text>

<polyline points="33,229.355 36,229.355 " fill="none" stroke-width="1.000000" stroke="black" id="id0000000177" class="line" />
<text id="id0000000178" transform="matrix(1 0 0 1 36 1)" x="-5.000000" y="228.355179" dominant-baseline="middle" text-anchor="end" font-size="14.000000px" >
0
</text>

<polyline points="33,176.073 36,176.073 " fill="none" stroke-width="1.000000" stroke="black" id="id0000000179" class="line" />
<text id="id0000000180" transform="matrix(1 0 0 1 36 1)" x="-5.000000" y="175.073212" dominant-baseline="middle" text-anchor="end" font-size="14.000000px" >
1
</text>

<polyline points="33,122.791 36,122.791 " fill="none" stroke-width="1.000000" stroke="black" id="id0000000181" class="line" />
<text id="id0000000182" transform="matrix(1 0 0 1 36 1)" x="-5.000000" y="121.791229" dominant-baseline="middle" text-anchor="end" font-size="14.000000px" >
2
</text>

<polyline points="33,69.5093 36,69.5093 " fill="none" stroke-width="1.000000" stroke="black" id="id0000000183" class="line" />
<text id="id0000000184" transform="matrix(1 0 0 1 36 1)" x="-5.000000" y="68.509277" dominant-baseline="middle" text-anchor="end" font-size="14.000000px" >
3
</text>

<polyline points="33,16.2273 36,16.2273 " fill="none" stroke-width="1.000000" stroke="black" id="id0000000185" class="line" />
<text id="id0000000186" transform="matrix(1 0 0 1 36 1)" x="-5.000000" y="15.227295" dominant-baseline="middle" text-anchor="end" font-size="14.000000px" >
4
</text>


</g>

</svg>
