<svg viewBox="0 0 640 480" height="100%" width="100%" xmlns:xlink="http://www.w3.org/1999/xlink" xmlns="http://www.w3.org/2000/svg" id="id0000000187" >
<g id="id0000000188" >
<clipPath id="id0000000188clipper" >
<polygon points="36,1 36,458 639,458 639,1 " id="id0000000191" class="rectangle" />
</clipPath>

<g clip-path="url(#id0000000188clipper)" id="id0000000190" >
<g id="id0000000192" >
<g opacity="1.000000" fill="#1f77b4" stroke-width="0.000000" id="id0000000193" >
<path id="id0000000243" d="M 83.5255 432.852 C 83.8048 432.852 84.0839 432.793 84.339 432.679 C 84.5941 432.566 84.8249 432.398 85.0118 432.19 C 85.1987 431.983 85.3413 431.736 85.4276 431.47 C 85.5139 431.205 85.5437 430.921 85.5146 430.643 C 85.4854 430.365 85.3972 430.094 85.2576 429.852 C 85.1179 429.61 84.927 429.398 84.7011 429.234 C 84.4752 429.07 84.2145 428.954 83.9413 428.896 C 83.6682 428.838 83.3828 428.838 83.1097 428.896 C 82.8365 428.954 82.5759 429.07 82.3499 429.234 C 82.124 429.398 81.9331 429.61 81.7935 429.852 C 81.6538 430.094 81.5657 430.365 81.5365 430.643 C 81.5073 430.921 81.5371 431.205 81.6234 431.47 C 81.7097 431.736 81.8524 431.983 82.0392 432.19 C 82.2261 432.398 82.4569 432.566 82.712 432.679 " />
</g>

<g opacity="1.000000" fill="#1f77b4" stroke-width="0.000000" id="id0000000195" >
<path id="id0000000244" d="M 190.441 415.356 C 190.72 415.356 190.999 415.296 191.254 415.183 C 191.51 415.069 191.74 414.901 191.927 414.694 C 192.114 414.486 192.257 414.239 192.343 413.974 C 192.429 413.708 192.459 413.424 192.43 413.147 C 192.401 412.869 192.313 412.598 192.173 412.356 C 192.033 412.114 191.842 411.902 191.617 411.738 C 191.391 411.574 191.13 411.457 190.857 411.399 C 190.584 411.341 190.298 411.341 190.025 411.399 C 189.752 411.457 189.491 411.574 189.265 411.738 C 189.039 411.902 188.849 412.114 188.709 412.356 C 188.569 412.598 188.481 412.869 188.452 413.147 C 188.423 413.424 188.453 413.708 188.539 413.974 C 188.625 414.239 188.768 414.486 188.955 414.694 C 189.142 414.901 189.372 415.069 189.628 415.183 " />
</g>

<g opacity="1.000000" fill="#1f77b4" stroke-width="0.000000" id="id0000000197" >
<path id="id0000000245" d="M 156.928 446.48 C 157.207 446.48 157.487 446.421 157.742 446.307 C 157.997 446.194 158.228 446.026 158.415 445.819 C 158.601 445.611 158.744 445.364 158.83 445.098 C 158.917 444.833 158.946 444.549 158.917 444.271 C 158.888 443.993 158.8 443.722 158.66 443.48 C 158.521 443.238 158.33 443.026 158.104 442.862 C 157.878 442.698 157.617 442.582 157.344 442.524 C 157.071 442.466 156.786 442.466 156.512 442.524 C 156.239 442.582 155.979 442.698 155.753 442.862 C 155.527 443.026 155.336 443.238 155.196 443.48 C 155.057 443.722 154.968 443.993 154.939 444.271 C 154.91 444.549 154.94 444.833 155.026 445.098 C 155.112 445.364 155.255 445.611 155.442 445.819 C 155.629 446.026 155.86 446.194 156.115 446.307 " />
</g>

<g opacity="1.000000" fill="#1f77b4" stroke-width="0.000000" id="id0000000199" >
<path id="id0000000246" d="M 105.536 379.812 C 105.815 379.812 106.094 379.753 106.349 379.639 C 106.604 379.526 106.835 379.358 107.022 379.15 C 107.209 378.943 107.351 378.696 107.438 378.43 C 107.524 378.165 107.554 377.881 107.525 377.603 C 107.495 377.325 107.407 377.054 107.268 376.812 C 107.128 376.57 106.937 376.358 106.711 376.194 C 106.485 376.03 106.225 375.914 105.951 375.856 C 105.678 375.798 105.393 375.798 105.12 375.856 C 104.847 375.914 104.586 376.03 104.36 376.194 C 104.134 376.358 103.943 376.57 103.804 376.812 C 103.664 377.054 103.576 377.325 103.547 377.603 C 103.517 377.881 103.547 378.165 103.634 378.43 C 103.72 378.696 103.862 378.943 104.049 379.15 C 104.236 379.358 104.467 379.526 104.722 379.639 " />
</g>

<g opacity="1.000000" fill="#1f77b4" stroke-width="0.000000" id="id0000000201" >
<path id="id0000000247" d="M 221.934 361.211 C 222.213 361.211 222.492 361.151 222.747 361.038 C 223.002 360.924 223.233 360.756 223.42 360.549 C 223.607 360.341 223.75 360.094 223.836 359.829 C 223.922 359.563 223.952 359.279 223.923 359.002 C 223.894 358.724 223.806 358.452 223.666 358.211 C 223.526 357.969 223.335 357.757 223.109 357.593 C 222.884 357.428 222.623 357.312 222.35 357.254 C 222.077 357.196 221.791 357.196 221.518 357.254 C 221.245 357.312 220.984 357.428 220.758 357.593 C 220.532 357.757 220.341 357.969 220.202 358.211 C 220.062 358.452 219.974 358.724 219.945 359.002 C 219.916 359.279 219.945 359.563 220.032 359.829 C 220.118 360.094 220.261 360.341 220.448 360.549 C 220.634 360.756 220.865 360.924 221.12 361.038 " />
</g>

<g opacity="1.000000" fill="#1f77b4" stroke-width="0.000000" id="id0000000203" >
<path id="id0000000248" d="M 114.288 414.224 C 114.567 414.224 114.846 414.165 115.101 414.052 C 115.356 413.938 115.587 413.77 115.774 413.563 C 115.961 413.355 116.104 413.108 116.19 412.843 C 116.276 412.577 116.306 412.293 116.277 412.015 C 116.248 411.738 116.159 411.466 116.02 411.224 C 115.88 410.983 115.689 410.771 115.463 410.606 C 115.237 410.442 114.977 410.326 114.704 410.268 C 114.43 410.21 114.145 410.21 113.872 410.268 C 113.599 410.326 113.338 410.442 113.112 410.606 C 112.886 410.771 112.695 410.983 112.556 411.224 C 112.416 411.466 112.328 411.738 112.299 412.015 C 112.27 412.293 112.299 412.577 112.386 412.843 C 112.472 413.108 112.615 413.355 112.802 413.563 C 112.988 413.77 113.219 413.938 113.474 414.052 " />
</g>

<g opacity="1.000000" fill="#1f77b4" stroke-width="0.000000" id="id0000000205" >
<path id="id0000000249" d="M 263.671 332.138 C 263.95 332.138 264.229 332.079 264.484 331.965 C 264.739 331.852 264.97 331.684 265.157 331.477 C 265.344 331.269 265.486 331.022 265.573 330.756 C 265.659 330.491 265.689 330.207 265.66 329.929 C 265.63 329.652 265.542 329.38 265.403 329.138 C 265.263 328.896 265.072 328.684 264.846 328.52 C 264.62 328.356 264.359 328.24 264.086 328.182 C 263.813 328.124 263.528 328.124 263.255 328.182 C 262.982 328.24 262.721 328.356 262.495 328.52 C 262.269 328.684 262.078 328.896 261.938 329.138 C 261.799 329.38 261.711 329.652 261.681 329.929 C 261.652 330.207 261.682 330.491 261.768 330.756 C 261.855 331.022 261.997 331.269 262.184 331.477 C 262.371 331.684 262.602 331.852 262.857 331.965 " />
</g>

<g opacity="1.000000" fill="#1f77b4" stroke-width="0.000000" id="id0000000207" >
<path id="id0000000250" d="M 249.636 386.992 C 249.915 386.992 250.194 386.933 250.449 386.819 C 250.704 386.705 250.935 386.538 251.122 386.33 C 251.309 386.123 251.452 385.876 251.538 385.61 C 251.624 385.344 251.654 385.061 251.625 384.783 C 251.596 384.505 251.507 384.234 251.368 383.992 C 251.228 383.75 251.037 383.538 250.811 383.374 C 250.585 383.21 250.325 383.094 250.052 383.036 C 249.778 382.978 249.493 382.978 249.22 383.036 C 248.947 383.094 248.686 383.21 248.46 383.374 C 248.234 383.538 248.043 383.75 247.904 383.992 C 247.764 384.234 247.676 384.505 247.647 384.783 C 247.618 385.061 247.647 385.344 247.734 385.61 C 247.82 385.876 247.963 386.123 248.149 386.33 C 248.336 386.538 248.567 386.705 248.822 386.819 " />
</g>

<g opacity="1.000000" fill="#1f77b4" stroke-width="0.000000" id="id0000000209" >
<path id="id0000000251" d="M 275.428 341.216 C 275.707 341.216 275.986 341.156 276.241 341.043 C 276.497 340.929 276.727 340.761 276.914 340.554 C 277.101 340.346 277.244 340.099 277.33 339.834 C 277.416 339.568 277.446 339.284 277.417 339.007 C 277.388 338.729 277.3 338.457 277.16 338.216 C 277.02 337.974 276.829 337.762 276.604 337.598 C 276.378 337.433 276.117 337.317 275.844 337.259 C 275.571 337.201 275.285 337.201 275.012 337.259 C 274.739 337.317 274.478 337.433 274.252 337.598 C 274.026 337.762 273.836 337.974 273.696 338.216 C 273.556 338.457 273.468 338.729 273.439 339.007 C 273.41 339.284 273.44 339.568 273.526 339.834 C 273.612 340.099 273.755 340.346 273.942 340.554 C 274.129 340.761 274.359 340.929 274.614 341.043 " />
</g>

<g opacity="1.000000" fill="#1f77b4" stroke-width="0.000000" id="id0000000211" >
<path id="id0000000252" d="M 266.876 315.111 C 267.155 315.111 267.434 315.052 267.689 314.938 C 267.944 314.825 268.175 314.657 268.362 314.449 C 268.549 314.242 268.692 313.995 268.778 313.729 C 268.864 313.464 268.894 313.18 268.865 312.902 C 268.836 312.624 268.748 312.353 268.608 312.111 C 268.468 311.869 268.277 311.657 268.051 311.493 C 267.826 311.329 267.565 311.213 267.292 311.155 C 267.019 311.097 266.733 311.097 266.46 311.155 C 266.187 311.213 265.926 311.329 265.7 311.493 C 265.474 311.657 265.283 311.869 265.144 312.111 C 265.004 312.353 264.916 312.624 264.887 312.902 C 264.858 313.18 264.887 313.464 264.974 313.729 C 265.06 313.995 265.203 314.242 265.39 314.449 C 265.576 314.657 265.807 314.825 266.062 314.938 " />
</g>

<g opacity="1.000000" fill="#1f77b4" stroke-width="0.000000" id="id0000000213" >
<path id="id0000000253" d="M 315.88 357.931 C 316.159 357.931 316.438 357.871 316.693 357.758 C 316.948 357.644 317.179 357.476 317.366 357.269 C 317.553 357.061 317.696 356.814 317.782 356.549 C 317.868 356.283 317.898 355.999 317.869 355.722 C 317.84 355.444 317.751 355.173 317.612 354.931 C 317.472 354.689 317.281 354.477 317.055 354.313 C 316.829 354.148 316.569 354.032 316.296 353.974 C 316.022 353.916 315.737 353.916 315.464 353.974 C 315.191 354.032 314.93 354.148 314.704 354.313 C 314.478 354.477 314.287 354.689 314.148 354.931 C 314.008 355.173 313.92 355.444 313.891 355.722 C 313.862 355.999 313.891 356.283 313.978 356.549 C 314.064 356.814 314.207 357.061 314.394 357.269 C 314.58 357.476 314.811 357.644 315.066 357.758 " />
</g>

<g opacity="1.000000" fill="#1f77b4" stroke-width="0.000000" id="id0000000215" >
<path id="id0000000254" d="M 398.47 301.847 C 398.75 301.847 399.029 301.788 399.284 301.674 C 399.539 301.561 399.77 301.393 399.957 301.185 C 400.144 300.978 400.286 300.731 400.372 300.465 C 400.459 300.2 400.489 299.916 400.459 299.638 C 400.43 299.36 400.342 299.089 400.202 298.847 C 400.063 298.605 399.872 298.393 399.646 298.229 C 399.42 298.065 399.159 297.949 398.886 297.891 C 398.613 297.833 398.328 297.833 398.055 297.891 C 397.781 297.949 397.521 298.065 397.295 298.229 C 397.069 298.393 396.878 298.605 396.738 298.847 C 396.599 299.089 396.511 299.36 396.481 299.638 C 396.452 299.916 396.482 300.2 396.568 300.465 C 396.655 300.731 396.797 300.978 396.984 301.185 C 397.171 301.393 397.402 301.561 397.657 301.674 " />
</g>

<g opacity="1.000000" fill="#1f77b4" stroke-width="0.000000" id="id0000000217" >
<path id="id0000000255" d="M 296.54 347.905 C 296.819 347.905 297.098 347.846 297.353 347.732 C 297.608 347.619 297.839 347.451 298.026 347.243 C 298.213 347.036 298.355 346.789 298.442 346.523 C 298.528 346.258 298.558 345.974 298.529 345.696 C 298.499 345.418 298.411 345.147 298.272 344.905 C 298.132 344.663 297.941 344.451 297.715 344.287 C 297.489 344.123 297.229 344.007 296.955 343.949 C 296.682 343.891 296.397 343.891 296.124 343.949 C 295.851 344.007 295.59 344.123 295.364 344.287 C 295.138 344.451 294.947 344.663 294.808 344.905 C 294.668 345.147 294.58 345.418 294.551 345.696 C 294.521 345.974 294.551 346.258 294.638 346.523 C 294.724 346.789 294.866 347.036 295.053 347.243 C 295.24 347.451 295.471 347.619 295.726 347.732 " />
</g>

<g opacity="1.000000" fill="#1f77b4" stroke-width="0.000000" id="id0000000219" >
<path id="id0000000256" d="M 339.64 346.244 C 339.919 346.244 340.199 346.185 340.454 346.071 C 340.709 345.958 340.94 345.79 341.126 345.582 C 341.313 345.375 341.456 345.128 341.542 344.862 C 341.629 344.597 341.658 344.313 341.629 344.035 C 341.6 343.757 341.512 343.486 341.372 343.244 C 341.233 343.002 341.042 342.79 340.816 342.626 C 340.59 342.462 340.329 342.346 340.056 342.288 C 339.783 342.23 339.498 342.23 339.224 342.288 C 338.951 342.346 338.691 342.462 338.465 342.626 C 338.239 342.79 338.048 343.002 337.908 343.244 C 337.769 343.486 337.68 343.757 337.651 344.035 C 337.622 344.313 337.652 344.597 337.738 344.862 C 337.824 345.128 337.967 345.375 338.154 345.582 C 338.341 345.79 338.572 345.958 338.827 346.071 " />
</g>

<g opacity="1.000000" fill="#1f77b4" stroke-width="0.000000" id="id0000000221" >
<path id="id0000000257" d="M 372.829 272.909 C 373.108 272.909 373.387 272.849 373.642 272.736 C 373.897 272.622 374.128 272.454 374.315 272.247 C 374.502 272.039 374.645 271.792 374.731 271.527 C 374.817 271.261 374.847 270.977 374.818 270.7 C 374.789 270.422 374.7 270.15 374.561 269.909 C 374.421 269.667 374.23 269.455 374.004 269.291 C 373.778 269.126 373.518 269.01 373.245 268.952 C 372.971 268.894 372.686 268.894 372.413 268.952 C 372.14 269.01 371.879 269.126 371.653 269.291 C 371.427 269.455 371.236 269.667 371.097 269.909 C 370.957 270.15 370.869 270.422 370.84 270.7 C 370.811 270.977 370.84 271.261 370.927 271.527 C 371.013 271.792 371.156 272.039 371.342 272.247 C 371.529 272.454 371.76 272.622 372.015 272.736 " />
</g>

<g opacity="1.000000" fill="#1f77b4" stroke-width="0.000000" id="id0000000223" >
<path id="id0000000258" d="M 414.451 336.013 C 414.73 336.013 415.009 335.953 415.264 335.84 C 415.519 335.726 415.75 335.559 415.937 335.351 C 416.124 335.143 416.266 334.896 416.353 334.631 C 416.439 334.365 416.469 334.081 416.44 333.804 C 416.41 333.526 416.322 333.255 416.183 333.013 C 416.043 332.771 415.852 332.559 415.626 332.395 C 415.4 332.231 415.139 332.115 414.866 332.056 C 414.593 331.998 414.308 331.998 414.035 332.056 C 413.762 332.115 413.501 332.231 413.275 332.395 C 413.049 332.559 412.858 332.771 412.718 333.013 C 412.579 333.255 412.491 333.526 412.461 333.804 C 412.432 334.081 412.462 334.365 412.548 334.631 C 412.635 334.896 412.777 335.143 412.964 335.351 C 413.151 335.559 413.382 335.726 413.637 335.84 " />
</g>

<g opacity="1.000000" fill="#1f77b4" stroke-width="0.000000" id="id0000000225" >
<path id="id0000000259" d="M 379.052 279.27 C 379.331 279.27 379.61 279.211 379.865 279.097 C 380.121 278.984 380.351 278.816 380.538 278.608 C 380.725 278.401 380.868 278.154 380.954 277.888 C 381.04 277.622 381.07 277.339 381.041 277.061 C 381.012 276.783 380.924 276.512 380.784 276.27 C 380.644 276.028 380.453 275.816 380.228 275.652 C 380.002 275.488 379.741 275.372 379.468 275.314 C 379.195 275.256 378.909 275.256 378.636 275.314 C 378.363 275.372 378.102 275.488 377.876 275.652 C 377.651 275.816 377.46 276.028 377.32 276.27 C 377.18 276.512 377.092 276.783 377.063 277.061 C 377.034 277.339 377.064 277.622 377.15 277.888 C 377.236 278.154 377.379 278.401 377.566 278.608 C 377.753 278.816 377.983 278.984 378.239 279.097 " />
</g>

<g opacity="1.000000" fill="#1f77b4" stroke-width="0.000000" id="id0000000227" >
<path id="id0000000260" d="M 390.918 325.22 C 391.197 325.22 391.476 325.16 391.731 325.047 C 391.986 324.933 392.217 324.765 392.404 324.558 C 392.591 324.35 392.734 324.103 392.82 323.838 C 392.906 323.572 392.936 323.288 392.907 323.011 C 392.878 322.733 392.789 322.462 392.65 322.22 C 392.51 321.978 392.319 321.766 392.093 321.602 C 391.867 321.438 391.607 321.321 391.334 321.263 C 391.06 321.205 390.775 321.205 390.502 321.263 C 390.229 321.321 389.968 321.438 389.742 321.602 C 389.516 321.766 389.325 321.978 389.186 322.22 C 389.046 322.462 388.958 322.733 388.929 323.011 C 388.9 323.288 388.929 323.572 389.016 323.838 C 389.102 324.103 389.245 324.35 389.431 324.558 C 389.618 324.765 389.849 324.933 390.104 325.047 " />
</g>

<g opacity="1.000000" fill="#1f77b4" stroke-width="0.000000" id="id0000000229" >
<path id="id0000000261" d="M 469.068 340.548 C 469.347 340.548 469.626 340.489 469.881 340.375 C 470.137 340.262 470.367 340.094 470.554 339.886 C 470.741 339.679 470.884 339.432 470.97 339.166 C 471.056 338.9 471.086 338.617 471.057 338.339 C 471.028 338.061 470.94 337.79 470.8 337.548 C 470.66 337.306 470.469 337.094 470.244 336.93 C 470.018 336.766 469.757 336.65 469.484 336.592 C 469.211 336.534 468.925 336.534 468.652 336.592 C 468.379 336.65 468.118 336.766 467.892 336.93 C 467.667 337.094 467.476 337.306 467.336 337.548 C 467.196 337.79 467.108 338.061 467.079 338.339 C 467.05 338.617 467.08 338.9 467.166 339.166 C 467.252 339.432 467.395 339.679 467.582 339.886 C 467.769 340.094 467.999 340.262 468.255 340.375 " />
</g>

<g opacity="1.000000" fill="#1f77b4" stroke-width="0.000000" id="id0000000231" >
<path id="id0000000262" d="M 494.433 346.312 C 494.712 346.312 494.991 346.253 495.246 346.139 C 495.501 346.026 495.732 345.858 495.919 345.651 C 496.106 345.443 496.248 345.196 496.335 344.93 C 496.421 344.665 496.451 344.381 496.422 344.103 C 496.392 343.826 496.304 343.554 496.165 343.312 C 496.025 343.071 495.834 342.858 495.608 342.694 C 495.382 342.53 495.122 342.414 494.848 342.356 C 494.575 342.298 494.29 342.298 494.017 342.356 C 493.744 342.414 493.483 342.53 493.257 342.694 C 493.031 342.858 492.84 343.071 492.701 343.312 C 492.561 343.554 492.473 343.826 492.444 344.103 C 492.414 344.381 492.444 344.665 492.531 344.93 C 492.617 345.196 492.759 345.443 492.946 345.651 C 493.133 345.858 493.364 346.026 493.619 346.139 " />
</g>

<g opacity="1.000000" fill="#1f77b4" stroke-width="0.000000" id="id0000000233" >
<path id="id0000000263" d="M 501.281 282.203 C 501.56 282.203 501.839 282.144 502.094 282.03 C 502.349 281.917 502.58 281.749 502.767 281.542 C 502.954 281.334 503.096 281.087 503.183 280.821 C 503.269 280.556 503.299 280.272 503.27 279.994 C 503.24 279.716 503.152 279.445 503.013 279.203 C 502.873 278.961 502.682 278.749 502.456 278.585 C 502.23 278.421 501.97 278.305 501.696 278.247 C 501.423 278.189 501.138 278.189 500.865 278.247 C 500.592 278.305 500.331 278.421 500.105 278.585 C 499.879 278.749 499.688 278.961 499.549 279.203 C 499.409 279.445 499.321 279.716 499.292 279.994 C 499.262 280.272 499.292 280.556 499.378 280.821 C 499.465 281.087 499.607 281.334 499.794 281.542 C 499.981 281.749 500.212 281.917 500.467 282.03 " />
</g>

<g opacity="1.000000" fill="#1f77b4" stroke-width="0.000000" id="id0000000235" >
<path id="id0000000264" d="M 594.365 224.162 C 594.644 224.162 594.923 224.102 595.178 223.989 C 595.433 223.875 595.664 223.707 595.851 223.5 C 596.038 223.292 596.18 223.045 596.267 222.78 C 596.353 222.514 596.383 222.23 596.354 221.953 C 596.324 221.675 596.236 221.403 596.097 221.162 C 595.957 220.92 595.766 220.708 595.54 220.544 C 595.314 220.379 595.054 220.263 594.78 220.205 C 594.507 220.147 594.222 220.147 593.949 220.205 C 593.676 220.263 593.415 220.379 593.189 220.544 C 592.963 220.708 592.772 220.92 592.633 221.162 C 592.493 221.403 592.405 221.675 592.376 221.953 C 592.346 222.23 592.376 222.514 592.463 222.78 C 592.549 223.045 592.691 223.292 592.878 223.5 C 593.065 223.707 593.296 223.875 593.551 223.989 " />
</g>

<g opacity="1.000000" fill="#1f77b4" stroke-width="0.000000" id="id0000000237" >
<path id="id0000000265" d="M 572.025 290.571 C 572.304 290.571 572.583 290.512 572.838 290.398 C 573.093 290.284 573.324 290.117 573.511 289.909 C 573.698 289.702 573.84 289.455 573.927 289.189 C 574.013 288.923 574.043 288.64 574.014 288.362 C 573.984 288.084 573.896 287.813 573.757 287.571 C 573.617 287.329 573.426 287.117 573.2 286.953 C 572.974 286.789 572.714 286.673 572.44 286.615 C 572.167 286.557 571.882 286.557 571.609 286.615 C 571.336 286.673 571.075 286.789 570.849 286.953 C 570.623 287.117 570.432 287.329 570.293 287.571 C 570.153 287.813 570.065 288.084 570.036 288.362 C 570.006 288.64 570.036 288.923 570.123 289.189 C 570.209 289.455 570.352 289.702 570.538 289.909 C 570.725 290.117 570.956 290.284 571.211 290.398 " />
</g>

<g opacity="1.000000" fill="#1f77b4" stroke-width="0.000000" id="id0000000239" >
<path id="id0000000266" d="M 538.085 320.436 C 538.364 320.436 538.644 320.376 538.899 320.263 C 539.154 320.149 539.385 319.982 539.571 319.774 C 539.758 319.566 539.901 319.319 539.987 319.054 C 540.074 318.788 540.103 318.504 540.074 318.227 C 540.045 317.949 539.957 317.678 539.817 317.436 C 539.678 317.194 539.487 316.982 539.261 316.818 C 539.035 316.654 538.774 316.538 538.501 316.479 C 538.228 316.421 537.943 316.421 537.669 316.479 C 537.396 316.538 537.136 316.654 536.91 316.818 C 536.684 316.982 536.493 317.194 536.353 317.436 C 536.214 317.678 536.125 317.949 536.096 318.227 C 536.067 318.504 536.097 318.788 536.183 319.054 C 536.269 319.319 536.412 319.566 536.599 319.774 C 536.786 319.982 537.017 320.149 537.272 320.263 " />
</g>

<g opacity="1.000000" fill="#1f77b4" stroke-width="0.000000" id="id0000000241" >
<path id="id0000000267" d="M 619.181 285.671 C 619.461 285.671 619.74 285.612 619.995 285.498 C 620.25 285.385 620.481 285.217 620.668 285.009 C 620.855 284.802 620.997 284.555 621.083 284.289 C 621.17 284.024 621.2 283.74 621.17 283.462 C 621.141 283.184 621.053 282.913 620.913 282.671 C 620.774 282.429 620.583 282.217 620.357 282.053 C 620.131 281.889 619.87 281.773 619.597 281.715 C 619.324 281.657 619.039 281.657 618.766 281.715 C 618.492 281.773 618.232 281.889 618.006 282.053 C 617.78 282.217 617.589 282.429 617.449 282.671 C 617.31 282.913 617.222 283.184 617.192 283.462 C 617.163 283.74 617.193 284.024 617.279 284.289 C 617.366 284.555 617.508 284.802 617.695 285.009 C 617.882 285.217 618.113 285.385 618.368 285.498 " />
</g>

</g>

<g id="id0000000268" >
<g opacity="1.000000" fill="#ff7f0e" stroke-width="0.000000" id="id0000000269" >
<path id="id0000000319" d="M 232.358 284.906 C 232.637 284.906 232.916 284.847 233.171 284.733 C 233.426 284.62 233.657 284.452 233.844 284.245 C 234.031 284.037 234.173 283.79 234.26 283.524 C 234.346 283.259 234.376 282.975 234.347 282.697 C 234.317 282.419 234.229 282.148 234.09 281.906 C 233.95 281.664 233.759 281.452 233.533 281.288 C 233.307 281.124 233.047 281.008 232.773 280.95 C 232.5 280.892 232.215 280.892 231.942 280.95 C 231.669 281.008 231.408 281.124 231.182 281.288 C 230.956 281.452 230.765 281.664 230.626 281.906 C 230.486 282.148 230.398 282.419 230.369 282.697 C 230.339 282.975 230.369 283.259 230.455 283.524 C 230.542 283.79 230.684 284.037 230.871 284.245 C 231.058 284.452 231.289 284.62 231.544 284.733 " />
</g>

<g opacity="1.000000" fill="#ff7f0e" stroke-width="0.000000" id="id0000000271" >
<path id="id0000000320" d="M 140.195 276.996 C 140.474 276.996 140.753 276.936 141.009 276.823 C 141.264 276.709 141.494 276.541 141.681 276.334 C 141.868 276.126 142.011 275.879 142.097 275.614 C 142.183 275.348 142.213 275.064 142.184 274.787 C 142.155 274.509 142.067 274.238 141.927 273.996 C 141.787 273.754 141.597 273.542 141.371 273.378 C 141.145 273.214 140.884 273.097 140.611 273.039 C 140.338 272.981 140.052 272.981 139.779 273.039 C 139.506 273.097 139.245 273.214 139.019 273.378 C 138.794 273.542 138.603 273.754 138.463 273.996 C 138.323 274.238 138.235 274.509 138.206 274.787 C 138.177 275.064 138.207 275.348 138.293 275.614 C 138.379 275.879 138.522 276.126 138.709 276.334 C 138.896 276.541 139.126 276.709 139.382 276.823 " />
</g>

<g opacity="1.000000" fill="#ff7f0e" stroke-width="0.000000" id="id0000000273" >
<path id="id0000000321" d="M 55.5417 189.808 C 55.8209 189.808 56.1001 189.749 56.3552 189.635 C 56.6103 189.522 56.8411 189.354 57.028 189.146 C 57.2148 188.939 57.3575 188.692 57.4438 188.426 C 57.5301 188.161 57.5599 187.877 57.5307 187.599 C 57.5015 187.321 57.4134 187.05 57.2737 186.808 C 57.1341 186.566 56.9432 186.354 56.7173 186.19 C 56.4913 186.026 56.2307 185.91 55.9575 185.852 C 55.6844 185.794 55.399 185.794 55.1259 185.852 C 54.8527 185.91 54.592 186.026 54.3661 186.19 C 54.1402 186.354 53.9493 186.566 53.8096 186.808 C 53.67 187.05 53.5818 187.321 53.5526 187.599 C 53.5235 187.877 53.5533 188.161 53.6396 188.426 C 53.7259 188.692 53.8685 188.939 54.0554 189.146 C 54.2423 189.354 54.4731 189.522 54.7282 189.635 " />
</g>

<g opacity="1.000000" fill="#ff7f0e" stroke-width="0.000000" id="id0000000275" >
<path id="id0000000322" d="M 156.043 220.736 C 156.323 220.736 156.602 220.677 156.857 220.563 C 157.112 220.449 157.343 220.282 157.53 220.074 C 157.717 219.867 157.859 219.62 157.946 219.354 C 158.032 219.088 158.062 218.805 158.032 218.527 C 158.003 218.249 157.915 217.978 157.775 217.736 C 157.636 217.494 157.445 217.282 157.219 217.118 C 156.993 216.954 156.732 216.838 156.459 216.78 C 156.186 216.722 155.901 216.722 155.628 216.78 C 155.354 216.838 155.094 216.954 154.868 217.118 C 154.642 217.282 154.451 217.494 154.311 217.736 C 154.172 217.978 154.084 218.249 154.054 218.527 C 154.025 218.805 154.055 219.088 154.141 219.354 C 154.228 219.62 154.37 219.867 154.557 220.074 C 154.744 220.282 154.975 220.45 155.23 220.563 " />
</g>

<g opacity="1.000000" fill="#ff7f0e" stroke-width="0.000000" id="id0000000277" >
<path id="id0000000323" d="M 271.83 229.138 C 272.109 229.138 272.388 229.079 272.643 228.966 C 272.899 228.852 273.129 228.684 273.316 228.477 C 273.503 228.269 273.646 228.022 273.732 227.756 C 273.818 227.491 273.848 227.207 273.819 226.929 C 273.79 226.652 273.702 226.38 273.562 226.138 C 273.422 225.897 273.231 225.685 273.006 225.52 C 272.78 225.356 272.519 225.24 272.246 225.182 C 271.973 225.124 271.687 225.124 271.414 225.182 C 271.141 225.24 270.88 225.356 270.654 225.52 C 270.428 225.685 270.238 225.897 270.098 226.138 C 269.958 226.38 269.87 226.652 269.841 226.929 C 269.812 227.207 269.842 227.491 269.928 227.756 C 270.014 228.022 270.157 228.269 270.344 228.477 C 270.531 228.684 270.761 228.852 271.017 228.966 " />
</g>

<g opacity="1.000000" fill="#ff7f0e" stroke-width="0.000000" id="id0000000279" >
<path id="id0000000324" d="M 247.343 318.916 C 247.622 318.916 247.901 318.857 248.157 318.743 C 248.412 318.63 248.642 318.462 248.829 318.255 C 249.016 318.047 249.159 317.8 249.245 317.534 C 249.331 317.269 249.361 316.985 249.332 316.707 C 249.303 316.43 249.215 316.158 249.075 315.916 C 248.935 315.675 248.745 315.462 248.519 315.298 C 248.293 315.134 248.032 315.018 247.759 314.96 C 247.486 314.902 247.2 314.902 246.927 314.96 C 246.654 315.018 246.393 315.134 246.167 315.298 C 245.942 315.462 245.751 315.675 245.611 315.916 C 245.471 316.158 245.383 316.43 245.354 316.707 C 245.325 316.985 245.355 317.269 245.441 317.534 C 245.527 317.8 245.67 318.047 245.857 318.255 C 246.044 318.462 246.274 318.63 246.53 318.743 " />
</g>

<g opacity="1.000000" fill="#ff7f0e" stroke-width="0.000000" id="id0000000281" >
<path id="id0000000325" d="M 191.352 229.001 C 191.631 229.001 191.91 228.942 192.165 228.829 C 192.42 228.715 192.651 228.547 192.838 228.34 C 193.025 228.132 193.167 227.885 193.254 227.619 C 193.34 227.354 193.37 227.07 193.341 226.792 C 193.312 226.515 193.223 226.243 193.084 226.001 C 192.944 225.76 192.753 225.548 192.527 225.383 C 192.301 225.219 192.041 225.103 191.767 225.045 C 191.494 224.987 191.209 224.987 190.936 225.045 C 190.663 225.103 190.402 225.219 190.176 225.383 C 189.95 225.548 189.759 225.76 189.62 226.001 C 189.48 226.243 189.392 226.515 189.363 226.792 C 189.333 227.07 189.363 227.354 189.45 227.619 C 189.536 227.885 189.679 228.132 189.865 228.34 C 190.052 228.547 190.283 228.715 190.538 228.829 " />
</g>

<g opacity="1.000000" fill="#ff7f0e" stroke-width="0.000000" id="id0000000283" >
<path id="id0000000326" d="M 290.588 186.196 C 290.867 186.196 291.146 186.136 291.401 186.023 C 291.656 185.909 291.887 185.742 292.074 185.534 C 292.261 185.327 292.404 185.079 292.49 184.814 C 292.576 184.548 292.606 184.264 292.577 183.987 C 292.548 183.709 292.459 183.438 292.32 183.196 C 292.18 182.954 291.989 182.742 291.763 182.578 C 291.537 182.414 291.277 182.298 291.004 182.24 C 290.73 182.181 290.445 182.181 290.172 182.24 C 289.899 182.298 289.638 182.414 289.412 182.578 C 289.186 182.742 288.995 182.954 288.856 183.196 C 288.716 183.438 288.628 183.709 288.599 183.987 C 288.57 184.264 288.599 184.548 288.686 184.814 C 288.772 185.079 288.915 185.327 289.101 185.534 C 289.288 185.742 289.519 185.909 289.774 186.023 " />
</g>

<g opacity="1.000000" fill="#ff7f0e" stroke-width="0.000000" id="id0000000285" >
<path id="id0000000327" d="M 318.899 260.394 C 319.178 260.394 319.457 260.334 319.712 260.221 C 319.967 260.107 320.198 259.94 320.385 259.732 C 320.572 259.525 320.715 259.277 320.801 259.012 C 320.887 258.746 320.917 258.462 320.888 258.185 C 320.859 257.907 320.771 257.636 320.631 257.394 C 320.491 257.152 320.3 256.94 320.074 256.776 C 319.849 256.612 319.588 256.496 319.315 256.437 C 319.042 256.379 318.756 256.379 318.483 256.437 C 318.21 256.496 317.949 256.612 317.723 256.776 C 317.497 256.94 317.306 257.152 317.167 257.394 C 317.027 257.636 316.939 257.907 316.91 258.185 C 316.881 258.462 316.91 258.746 316.997 259.012 C 317.083 259.277 317.226 259.525 317.413 259.732 C 317.599 259.94 317.83 260.107 318.085 260.221 " />
</g>

<g opacity="1.000000" fill="#ff7f0e" stroke-width="0.000000" id="id0000000287" >
<path id="id0000000328" d="M 340.643 257.943 C 340.923 257.943 341.202 257.883 341.457 257.77 C 341.712 257.656 341.943 257.488 342.13 257.281 C 342.317 257.073 342.459 256.826 342.546 256.561 C 342.632 256.295 342.662 256.011 342.632 255.733 C 342.603 255.456 342.515 255.184 342.375 254.943 C 342.236 254.701 342.045 254.489 341.819 254.324 C 341.593 254.16 341.332 254.044 341.059 253.986 C 340.786 253.928 340.501 253.928 340.228 253.986 C 339.954 254.044 339.694 254.16 339.468 254.324 C 339.242 254.489 339.051 254.701 338.911 254.943 C 338.772 255.184 338.684 255.456 338.654 255.733 C 338.625 256.011 338.655 256.295 338.741 256.561 C 338.828 256.826 338.97 257.073 339.157 257.281 C 339.344 257.488 339.575 257.656 339.83 257.77 " />
</g>

<g opacity="1.000000" fill="#ff7f0e" stroke-width="0.000000" id="id0000000289" >
<path id="id0000000329" d="M 276.464 226.464 C 276.743 226.464 277.022 226.404 277.277 226.291 C 277.533 226.177 277.763 226.009 277.95 225.802 C 278.137 225.594 278.28 225.347 278.366 225.082 C 278.452 224.816 278.482 224.532 278.453 224.255 C 278.424 223.977 278.336 223.705 278.196 223.464 C 278.056 223.222 277.865 223.01 277.64 222.846 C 277.414 222.681 277.153 222.565 276.88 222.507 C 276.607 222.449 276.321 222.449 276.048 222.507 C 275.775 222.565 275.514 222.681 275.288 222.846 C 275.062 223.01 274.872 223.222 274.732 223.464 C 274.592 223.705 274.504 223.977 274.475 224.255 C 274.446 224.532 274.476 224.816 274.562 225.082 C 274.648 225.347 274.791 225.594 274.978 225.802 C 275.165 226.009 275.395 226.177 275.65 226.291 " />
</g>

<g opacity="1.000000" fill="#ff7f0e" stroke-width="0.000000" id="id0000000291" >
<path id="id0000000330" d="M 350.046 228.922 C 350.326 228.922 350.605 228.863 350.86 228.749 C 351.115 228.636 351.346 228.468 351.533 228.26 C 351.719 228.053 351.862 227.806 351.948 227.54 C 352.035 227.275 352.065 226.991 352.035 226.713 C 352.006 226.435 351.918 226.164 351.778 225.922 C 351.639 225.68 351.448 225.468 351.222 225.304 C 350.996 225.14 350.735 225.024 350.462 224.966 C 350.189 224.908 349.904 224.908 349.63 224.966 C 349.357 225.024 349.097 225.14 348.871 225.304 C 348.645 225.468 348.454 225.68 348.314 225.922 C 348.175 226.164 348.086 226.435 348.057 226.713 C 348.028 226.991 348.058 227.275 348.144 227.54 C 348.23 227.806 348.373 228.053 348.56 228.26 C 348.747 228.468 348.978 228.636 349.233 228.749 " />
</g>

<g opacity="1.000000" fill="#ff7f0e" stroke-width="0.000000" id="id0000000293" >
<path id="id0000000331" d="M 404.214 242.21 C 404.494 242.21 404.773 242.151 405.028 242.037 C 405.283 241.924 405.514 241.756 405.701 241.548 C 405.888 241.341 406.03 241.094 406.117 240.828 C 406.203 240.563 406.233 240.279 406.204 240.001 C 406.174 239.723 406.086 239.452 405.947 239.21 C 405.807 238.968 405.616 238.756 405.39 238.592 C 405.164 238.428 404.903 238.312 404.63 238.254 C 404.357 238.196 404.072 238.196 403.799 238.254 C 403.526 238.312 403.265 238.428 403.039 238.592 C 402.813 238.756 402.622 238.968 402.482 239.21 C 402.343 239.452 402.255 239.723 402.225 240.001 C 402.196 240.279 402.226 240.563 402.312 240.828 C 402.399 241.094 402.541 241.341 402.728 241.548 C 402.915 241.756 403.146 241.924 403.401 242.037 " />
</g>

<g opacity="1.000000" fill="#ff7f0e" stroke-width="0.000000" id="id0000000295" >
<path id="id0000000332" d="M 339.664 176.027 C 339.943 176.027 340.223 175.967 340.478 175.854 C 340.733 175.74 340.964 175.572 341.15 175.365 C 341.337 175.157 341.48 174.91 341.566 174.645 C 341.653 174.379 341.682 174.095 341.653 173.818 C 341.624 173.54 341.536 173.268 341.396 173.027 C 341.257 172.785 341.066 172.573 340.84 172.409 C 340.614 172.244 340.353 172.128 340.08 172.07 C 339.807 172.012 339.522 172.012 339.248 172.07 C 338.975 172.128 338.715 172.244 338.489 172.409 C 338.263 172.573 338.072 172.785 337.932 173.027 C 337.793 173.268 337.704 173.54 337.675 173.818 C 337.646 174.095 337.676 174.379 337.762 174.645 C 337.848 174.91 337.991 175.157 338.178 175.365 C 338.365 175.572 338.596 175.74 338.851 175.854 " />
</g>

<g opacity="1.000000" fill="#ff7f0e" stroke-width="0.000000" id="id0000000297" >
<path id="id0000000333" d="M 367.602 194.362 C 367.881 194.362 368.16 194.303 368.415 194.189 C 368.67 194.076 368.901 193.908 369.088 193.7 C 369.275 193.493 369.417 193.246 369.504 192.98 C 369.59 192.715 369.62 192.431 369.591 192.153 C 369.561 191.875 369.473 191.604 369.334 191.362 C 369.194 191.12 369.003 190.908 368.777 190.744 C 368.551 190.58 368.291 190.464 368.017 190.406 C 367.744 190.348 367.459 190.348 367.186 190.406 C 366.913 190.464 366.652 190.58 366.426 190.744 C 366.2 190.908 366.009 191.12 365.87 191.362 C 365.73 191.604 365.642 191.875 365.613 192.153 C 365.583 192.431 365.613 192.715 365.699 192.98 C 365.786 193.246 365.928 193.493 366.115 193.7 C 366.302 193.908 366.533 194.076 366.788 194.189 " />
</g>

<g opacity="1.000000" fill="#ff7f0e" stroke-width="0.000000" id="id0000000299" >
<path id="id0000000334" d="M 404.498 206.318 C 404.777 206.318 405.056 206.258 405.311 206.145 C 405.566 206.031 405.797 205.863 405.984 205.656 C 406.171 205.448 406.314 205.201 406.4 204.936 C 406.486 204.67 406.516 204.386 406.487 204.109 C 406.458 203.831 406.369 203.559 406.23 203.318 C 406.09 203.076 405.899 202.864 405.673 202.7 C 405.447 202.535 405.187 202.419 404.914 202.361 C 404.64 202.303 404.355 202.303 404.082 202.361 C 403.809 202.419 403.548 202.535 403.322 202.7 C 403.096 202.864 402.905 203.076 402.766 203.318 C 402.626 203.559 402.538 203.831 402.509 204.109 C 402.479 204.386 402.509 204.67 402.596 204.936 C 402.682 205.201 402.825 205.448 403.011 205.656 C 403.198 205.863 403.429 206.031 403.684 206.145 " />
</g>

<g opacity="1.000000" fill="#ff7f0e" stroke-width="0.000000" id="id0000000301" >
<path id="id0000000335" d="M 420.272 133.092 C 420.551 133.092 420.83 133.032 421.085 132.919 C 421.34 132.805 421.571 132.637 421.758 132.43 C 421.945 132.222 422.087 131.975 422.174 131.71 C 422.26 131.444 422.29 131.16 422.261 130.883 C 422.231 130.605 422.143 130.333 422.004 130.092 C 421.864 129.85 421.673 129.638 421.447 129.474 C 421.221 129.309 420.961 129.193 420.687 129.135 C 420.414 129.077 420.129 129.077 419.856 129.135 C 419.583 129.193 419.322 129.309 419.096 129.474 C 418.87 129.638 418.679 129.85 418.539 130.092 C 418.4 130.333 418.312 130.605 418.283 130.883 C 418.253 131.16 418.283 131.444 418.369 131.71 C 418.456 131.975 418.598 132.222 418.785 132.43 C 418.972 132.637 419.203 132.805 419.458 132.919 " />
</g>

<g opacity="1.000000" fill="#ff7f0e" stroke-width="0.000000" id="id0000000303" >
<path id="id0000000336" d="M 443.19 139.4 C 443.47 139.4 443.749 139.34 444.004 139.227 C 444.259 139.113 444.49 138.945 444.677 138.738 C 444.864 138.53 445.006 138.283 445.092 138.018 C 445.179 137.752 445.209 137.468 445.179 137.191 C 445.15 136.913 445.062 136.642 444.922 136.4 C 444.783 136.158 444.592 135.946 444.366 135.782 C 444.14 135.618 443.879 135.501 443.606 135.443 C 443.333 135.385 443.048 135.385 442.775 135.443 C 442.501 135.501 442.241 135.618 442.015 135.782 C 441.789 135.946 441.598 136.158 441.458 136.4 C 441.319 136.642 441.231 136.913 441.201 137.191 C 441.172 137.468 441.202 137.752 441.288 138.018 C 441.375 138.283 441.517 138.53 441.704 138.738 C 441.891 138.945 442.122 139.113 442.377 139.227 " />
</g>

<g opacity="1.000000" fill="#ff7f0e" stroke-width="0.000000" id="id0000000305" >
<path id="id0000000337" d="M 502.116 215.897 C 502.396 215.897 502.675 215.838 502.93 215.725 C 503.185 215.611 503.416 215.443 503.603 215.236 C 503.789 215.028 503.932 214.781 504.018 214.515 C 504.105 214.25 504.135 213.966 504.105 213.688 C 504.076 213.411 503.988 213.139 503.848 212.897 C 503.709 212.656 503.518 212.444 503.292 212.279 C 503.066 212.115 502.805 211.999 502.532 211.941 C 502.259 211.883 501.974 211.883 501.701 211.941 C 501.427 211.999 501.167 212.115 500.941 212.279 C 500.715 212.444 500.524 212.656 500.384 212.897 C 500.245 213.139 500.156 213.411 500.127 213.688 C 500.098 213.966 500.128 214.25 500.214 214.515 C 500.301 214.781 500.443 215.028 500.63 215.236 C 500.817 215.443 501.048 215.611 501.303 215.725 " />
</g>

<g opacity="1.000000" fill="#ff7f0e" stroke-width="0.000000" id="id0000000307" >
<path id="id0000000338" d="M 461.083 188.487 C 461.362 188.487 461.641 188.428 461.897 188.315 C 462.152 188.201 462.383 188.033 462.569 187.826 C 462.756 187.618 462.899 187.371 462.985 187.105 C 463.072 186.84 463.101 186.556 463.072 186.278 C 463.043 186.001 462.955 185.729 462.815 185.487 C 462.676 185.246 462.485 185.034 462.259 184.869 C 462.033 184.705 461.772 184.589 461.499 184.531 C 461.226 184.473 460.94 184.473 460.667 184.531 C 460.394 184.589 460.133 184.705 459.908 184.869 C 459.682 185.034 459.491 185.246 459.351 185.487 C 459.211 185.729 459.123 186.001 459.094 186.278 C 459.065 186.556 459.095 186.84 459.181 187.105 C 459.267 187.371 459.41 187.618 459.597 187.826 C 459.784 188.033 460.015 188.201 460.27 188.315 " />
</g>

<g opacity="1.000000" fill="#ff7f0e" stroke-width="0.000000" id="id0000000309" >
<path id="id0000000339" d="M 580.29 195.392 C 580.569 195.392 580.848 195.332 581.104 195.219 C 581.359 195.105 581.589 194.938 581.776 194.73 C 581.963 194.522 582.106 194.275 582.192 194.01 C 582.278 193.744 582.308 193.46 582.279 193.183 C 582.25 192.905 582.162 192.634 582.022 192.392 C 581.882 192.15 581.692 191.938 581.466 191.774 C 581.24 191.61 580.979 191.493 580.706 191.435 C 580.433 191.377 580.147 191.377 579.874 191.435 C 579.601 191.493 579.34 191.61 579.114 191.774 C 578.889 191.938 578.698 192.15 578.558 192.392 C 578.418 192.634 578.33 192.905 578.301 193.183 C 578.272 193.46 578.302 193.744 578.388 194.01 C 578.474 194.275 578.617 194.522 578.804 194.73 C 578.991 194.938 579.221 195.105 579.477 195.219 " />
</g>

<g opacity="1.000000" fill="#ff7f0e" stroke-width="0.000000" id="id0000000311" >
<path id="id0000000340" d="M 525.835 236.768 C 526.115 236.768 526.394 236.709 526.649 236.596 C 526.904 236.482 527.135 236.314 527.322 236.107 C 527.508 235.899 527.651 235.652 527.737 235.387 C 527.824 235.121 527.854 234.837 527.824 234.559 C 527.795 234.282 527.707 234.01 527.567 233.768 C 527.428 233.527 527.237 233.315 527.011 233.15 C 526.785 232.986 526.524 232.87 526.251 232.812 C 525.978 232.754 525.693 232.754 525.419 232.812 C 525.146 232.87 524.886 232.986 524.66 233.15 C 524.434 233.315 524.243 233.527 524.103 233.768 C 523.964 234.01 523.875 234.282 523.846 234.559 C 523.817 234.837 523.847 235.121 523.933 235.387 C 524.02 235.652 524.162 235.899 524.349 236.107 C 524.536 236.314 524.767 236.482 525.022 236.596 " />
</g>

<g opacity="1.000000" fill="#ff7f0e" stroke-width="0.000000" id="id0000000313" >
<path id="id0000000341" d="M 554.554 240.484 C 554.833 240.484 555.112 240.425 555.367 240.311 C 555.623 240.198 555.853 240.03 556.04 239.822 C 556.227 239.615 556.37 239.368 556.456 239.102 C 556.542 238.836 556.572 238.553 556.543 238.275 C 556.514 237.997 556.426 237.726 556.286 237.484 C 556.146 237.242 555.955 237.03 555.73 236.866 C 555.504 236.702 555.243 236.586 554.97 236.528 C 554.697 236.47 554.411 236.47 554.138 236.528 C 553.865 236.586 553.604 236.702 553.378 236.866 C 553.152 237.03 552.962 237.242 552.822 237.484 C 552.682 237.726 552.594 237.997 552.565 238.275 C 552.536 238.553 552.566 238.836 552.652 239.102 C 552.738 239.368 552.881 239.615 553.068 239.822 C 553.255 240.03 553.485 240.198 553.74 240.311 " />
</g>

<g opacity="1.000000" fill="#ff7f0e" stroke-width="0.000000" id="id0000000315" >
<path id="id0000000342" d="M 520.306 173.786 C 520.586 173.786 520.865 173.727 521.12 173.613 C 521.375 173.5 521.606 173.332 521.793 173.124 C 521.979 172.917 522.122 172.67 522.208 172.404 C 522.295 172.139 522.325 171.855 522.295 171.577 C 522.266 171.299 522.178 171.028 522.038 170.786 C 521.899 170.544 521.708 170.332 521.482 170.168 C 521.256 170.004 520.995 169.888 520.722 169.83 C 520.449 169.772 520.164 169.772 519.89 169.83 C 519.617 169.888 519.357 170.004 519.131 170.168 C 518.905 170.332 518.714 170.544 518.574 170.786 C 518.435 171.028 518.346 171.299 518.317 171.577 C 518.288 171.855 518.318 172.139 518.404 172.404 C 518.49 172.67 518.633 172.917 518.82 173.124 C 519.007 173.332 519.238 173.5 519.493 173.613 " />
</g>

<g opacity="1.000000" fill="#ff7f0e" stroke-width="0.000000" id="id0000000317" >
<path id="id0000000343" d="M 557.397 181.716 C 557.677 181.716 557.956 181.657 558.211 181.543 C 558.466 181.43 558.697 181.262 558.884 181.054 C 559.071 180.847 559.213 180.6 559.3 180.334 C 559.386 180.068 559.416 179.785 559.386 179.507 C 559.357 179.229 559.269 178.958 559.13 178.716 C 558.99 178.474 558.799 178.262 558.573 178.098 C 558.347 177.934 558.086 177.818 557.813 177.76 C 557.54 177.702 557.255 177.702 556.982 177.76 C 556.708 177.818 556.448 177.934 556.222 178.098 C 555.996 178.262 555.805 178.474 555.665 178.716 C 555.526 178.958 555.438 179.229 555.408 179.507 C 555.379 179.785 555.409 180.068 555.495 180.334 C 555.582 180.6 555.724 180.847 555.911 181.054 C 556.098 181.262 556.329 181.43 556.584 181.543 " />
</g>

</g>

<g id="id0000000344" >
<g opacity="1.000000" fill="#2ca02c" stroke-width="0.000000" id="id0000000345" >
<path id="id0000000395" d="M 67.0627 148.978 C 67.3419 148.978 67.621 148.919 67.8762 148.805 C 68.1313 148.692 68.3621 148.524 68.549 148.316 C 68.7358 148.109 68.8785 147.862 68.9648 147.596 C 69.0511 147.331 69.0809 147.047 69.0517 146.769 C 69.0225 146.491 68.9344 146.22 68.7947 145.978 C 68.6551 145.736 68.4642 145.524 68.2383 145.36 C 68.0123 145.196 67.7517 145.08 67.4785 145.022 C 67.2054 144.964 66.92 144.964 66.6469 145.022 C 66.3737 145.08 66.113 145.196 65.8871 145.36 C 65.6612 145.524 65.4703 145.736 65.3306 145.978 C 65.191 146.22 65.1028 146.491 65.0736 146.769 C 65.0444 147.047 65.0743 147.331 65.1606 147.596 C 65.2469 147.862 65.3895 148.109 65.5764 148.316 C 65.7633 148.524 65.9941 148.692 66.2492 148.805 " />
</g>

<g opacity="1.000000" fill="#2ca02c" stroke-width="0.000000" id="id0000000347" >
<path id="id0000000396" d="M 86.7527 175.269 C 87.032 175.269 87.3111 175.21 87.5662 175.096 C 87.8213 174.983 88.0522 174.815 88.239 174.607 C 88.4259 174.4 88.5686 174.153 88.6549 173.887 C 88.7411 173.622 88.771 173.338 88.7418 173.06 C 88.7126 172.782 88.6244 172.511 88.4848 172.269 C 88.3452 172.027 88.1542 171.815 87.9283 171.651 C 87.7024 171.487 87.4417 171.371 87.1686 171.313 C 86.8954 171.255 86.6101 171.255 86.3369 171.313 C 86.0638 171.371 85.8031 171.487 85.5772 171.651 C 85.3513 171.815 85.1603 172.027 85.0207 172.269 C 84.8811 172.511 84.7929 172.782 84.7637 173.06 C 84.7345 173.338 84.7643 173.622 84.8506 173.887 C 84.9369 174.153 85.0796 174.4 85.2665 174.607 C 85.4533 174.815 85.6842 174.983 85.9393 175.096 " />
</g>

<g opacity="1.000000" fill="#2ca02c" stroke-width="0.000000" id="id0000000349" >
<path id="id0000000397" d="M 135.698 148.843 C 135.977 148.843 136.256 148.784 136.511 148.67 C 136.766 148.557 136.997 148.389 137.184 148.182 C 137.371 147.974 137.514 147.727 137.6 147.461 C 137.686 147.196 137.716 146.912 137.687 146.634 C 137.658 146.356 137.57 146.085 137.43 145.843 C 137.29 145.601 137.099 145.389 136.873 145.225 C 136.648 145.061 136.387 144.945 136.114 144.887 C 135.841 144.829 135.555 144.829 135.282 144.887 C 135.009 144.945 134.748 145.061 134.522 145.225 C 134.296 145.389 134.105 145.601 133.966 145.843 C 133.826 146.085 133.738 146.356 133.709 146.634 C 133.68 146.912 133.71 147.196 133.796 147.461 C 133.882 147.727 134.025 147.974 134.212 148.182 C 134.398 148.389 134.629 148.557 134.884 148.67 " />
</g>

<g opacity="1.000000" fill="#2ca02c" stroke-width="0.000000" id="id0000000351" >
<path id="id0000000398" d="M 90.2773 76.9469 C 90.5566 76.9469 90.8357 76.8876 91.0908 76.774 C 91.3459 76.6604 91.5768 76.4927 91.7636 76.2852 C 91.9505 76.0776 92.0932 75.8305 92.1795 75.5649 C 92.2657 75.2993 92.2956 75.0156 92.2664 74.7378 C 92.2372 74.4601 92.149 74.1887 92.0094 73.9469 C 91.8698 73.7051 91.6788 73.493 91.4529 73.3289 C 91.227 73.1647 90.9663 73.0487 90.6932 72.9906 C 90.42 72.9325 90.1347 72.9325 89.8615 72.9906 C 89.5884 73.0487 89.3277 73.1647 89.1018 73.3289 C 88.8759 73.493 88.6849 73.7051 88.5453 73.9469 C 88.4057 74.1887 88.3175 74.4601 88.2883 74.7378 C 88.2591 75.0156 88.2889 75.2993 88.3752 75.5649 C 88.4615 75.8305 88.6042 76.0776 88.7911 76.2852 C 88.9779 76.4927 89.2088 76.6604 89.4639 76.774 " />
</g>

<g opacity="1.000000" fill="#2ca02c" stroke-width="0.000000" id="id0000000353" >
<path id="id0000000399" d="M 233.595 153.073 C 233.874 153.073 234.153 153.014 234.409 152.9 C 234.664 152.787 234.895 152.619 235.081 152.412 C 235.268 152.204 235.411 151.957 235.497 151.691 C 235.583 151.426 235.613 151.142 235.584 150.864 C 235.555 150.587 235.467 150.315 235.327 150.073 C 235.187 149.831 234.997 149.619 234.771 149.455 C 234.545 149.291 234.284 149.175 234.011 149.117 C 233.738 149.059 233.452 149.059 233.179 149.117 C 232.906 149.175 232.645 149.291 232.419 149.455 C 232.194 149.619 232.003 149.831 231.863 150.073 C 231.723 150.315 231.635 150.587 231.606 150.864 C 231.577 151.142 231.607 151.426 231.693 151.691 C 231.779 151.957 231.922 152.204 232.109 152.412 C 232.296 152.619 232.526 152.787 232.782 152.9 " />
</g>

<g opacity="1.000000" fill="#2ca02c" stroke-width="0.000000" id="id0000000355" >
<path id="id0000000400" d="M 248.789 168.451 C 249.068 168.451 249.347 168.391 249.602 168.278 C 249.857 168.164 250.088 167.996 250.275 167.789 C 250.462 167.581 250.604 167.334 250.691 167.069 C 250.777 166.803 250.807 166.519 250.778 166.242 C 250.749 165.964 250.66 165.692 250.521 165.451 C 250.381 165.209 250.19 164.997 249.964 164.833 C 249.738 164.668 249.478 164.552 249.204 164.494 C 248.931 164.436 248.646 164.436 248.373 164.494 C 248.1 164.552 247.839 164.668 247.613 164.833 C 247.387 164.997 247.196 165.209 247.057 165.451 C 246.917 165.692 246.829 165.964 246.8 166.242 C 246.77 166.519 246.8 166.803 246.887 167.069 C 246.973 167.334 247.116 167.581 247.302 167.789 C 247.489 167.996 247.72 168.164 247.975 168.278 " />
</g>

<g opacity="1.000000" fill="#2ca02c" stroke-width="0.000000" id="id0000000357" >
<path id="id0000000401" d="M 177.132 53.404 C 177.411 53.404 177.69 53.3447 177.945 53.2311 C 178.2 53.1175 178.431 52.9498 178.618 52.7423 C 178.805 52.5347 178.947 52.2876 179.034 52.022 C 179.12 51.7564 179.15 51.4727 179.121 51.1949 C 179.091 50.9172 179.003 50.6458 178.864 50.404 C 178.724 50.1622 178.533 49.9501 178.307 49.786 C 178.081 49.6218 177.821 49.5058 177.547 49.4477 C 177.274 49.3896 176.989 49.3896 176.716 49.4477 C 176.443 49.5058 176.182 49.6218 175.956 49.786 C 175.73 49.9501 175.539 50.1622 175.399 50.404 C 175.26 50.6458 175.172 50.9172 175.142 51.1949 C 175.113 51.4727 175.143 51.7564 175.229 52.022 C 175.316 52.2876 175.458 52.5347 175.645 52.7423 C 175.832 52.9498 176.063 53.1175 176.318 53.2311 " />
</g>

<g opacity="1.000000" fill="#2ca02c" stroke-width="0.000000" id="id0000000359" >
<path id="id0000000402" d="M 230.011 64.0434 C 230.29 64.0434 230.569 63.9841 230.824 63.8705 C 231.079 63.7569 231.31 63.5892 231.497 63.3817 C 231.684 63.1742 231.827 62.927 231.913 62.6615 C 231.999 62.3959 232.029 62.1121 232 61.8344 C 231.971 61.5566 231.882 61.2853 231.743 61.0434 C 231.603 60.8016 231.412 60.5895 231.186 60.4254 C 230.96 60.2613 230.7 60.1452 230.427 60.0871 C 230.153 60.0291 229.868 60.0291 229.595 60.0871 C 229.322 60.1452 229.061 60.2613 228.835 60.4254 C 228.609 60.5895 228.418 60.8016 228.279 61.0434 C 228.139 61.2853 228.051 61.5566 228.022 61.8344 C 227.993 62.1121 228.022 62.3959 228.109 62.6615 C 228.195 62.927 228.338 63.1742 228.524 63.3817 C 228.711 63.5892 228.942 63.7569 229.197 63.8705 " />
</g>

<g opacity="1.000000" fill="#2ca02c" stroke-width="0.000000" id="id0000000361" >
<path id="id0000000403" d="M 190.393 157.329 C 190.672 157.329 190.951 157.27 191.206 157.156 C 191.461 157.043 191.692 156.875 191.879 156.667 C 192.066 156.46 192.209 156.213 192.295 155.947 C 192.381 155.681 192.411 155.398 192.382 155.12 C 192.353 154.842 192.264 154.571 192.125 154.329 C 191.985 154.087 191.794 153.875 191.568 153.711 C 191.342 153.547 191.082 153.431 190.809 153.373 C 190.535 153.315 190.25 153.315 189.977 153.373 C 189.704 153.431 189.443 153.547 189.217 153.711 C 188.991 153.875 188.8 154.087 188.661 154.329 C 188.521 154.571 188.433 154.842 188.404 155.12 C 188.374 155.398 188.404 155.681 188.491 155.947 C 188.577 156.213 188.72 156.46 188.906 156.667 C 189.093 156.875 189.324 157.043 189.579 157.156 " />
</g>

<g opacity="1.000000" fill="#2ca02c" stroke-width="0.000000" id="id0000000363" >
<path id="id0000000404" d="M 272.042 111.565 C 272.321 111.565 272.6 111.506 272.855 111.393 C 273.11 111.279 273.341 111.111 273.528 110.904 C 273.715 110.696 273.858 110.449 273.944 110.183 C 274.03 109.918 274.06 109.634 274.031 109.356 C 274.002 109.079 273.913 108.807 273.774 108.565 C 273.634 108.324 273.443 108.112 273.217 107.947 C 272.991 107.783 272.731 107.667 272.458 107.609 C 272.184 107.551 271.899 107.551 271.626 107.609 C 271.353 107.667 271.092 107.783 270.866 107.947 C 270.64 108.112 270.449 108.324 270.31 108.565 C 270.17 108.807 270.082 109.079 270.053 109.356 C 270.024 109.634 270.053 109.918 270.14 110.183 C 270.226 110.449 270.369 110.696 270.555 110.904 C 270.742 111.111 270.973 111.279 271.228 111.393 " />
</g>

<g opacity="1.000000" fill="#2ca02c" stroke-width="0.000000" id="id0000000365" >
<path id="id0000000405" d="M 273.724 97.8452 C 274.004 97.8452 274.283 97.7859 274.538 97.6723 C 274.793 97.5588 275.024 97.391 275.211 97.1835 C 275.398 96.976 275.54 96.7289 275.627 96.4633 C 275.713 96.1977 275.743 95.9139 275.713 95.6362 C 275.684 95.3585 275.596 95.0871 275.456 94.8452 C 275.317 94.6034 275.126 94.3913 274.9 94.2272 C 274.674 94.0631 274.413 93.947 274.14 93.8889 C 273.867 93.8309 273.582 93.8309 273.309 93.8889 C 273.035 93.947 272.775 94.0631 272.549 94.2272 C 272.323 94.3913 272.132 94.6034 271.992 94.8452 C 271.853 95.0871 271.765 95.3585 271.735 95.6362 C 271.706 95.9139 271.736 96.1977 271.822 96.4633 C 271.909 96.7289 272.051 96.976 272.238 97.1835 C 272.425 97.391 272.656 97.5588 272.911 97.6723 " />
</g>

<g opacity="1.000000" fill="#2ca02c" stroke-width="0.000000" id="id0000000367" >
<path id="id0000000406" d="M 291.138 160.798 C 291.417 160.798 291.696 160.738 291.951 160.625 C 292.206 160.511 292.437 160.343 292.624 160.136 C 292.811 159.928 292.954 159.681 293.04 159.416 C 293.126 159.15 293.156 158.866 293.127 158.588 C 293.098 158.311 293.01 158.039 292.87 157.798 C 292.73 157.556 292.539 157.344 292.313 157.179 C 292.087 157.015 291.827 156.899 291.554 156.841 C 291.281 156.783 290.995 156.783 290.722 156.841 C 290.449 156.899 290.188 157.015 289.962 157.179 C 289.736 157.344 289.545 157.556 289.406 157.798 C 289.266 158.039 289.178 158.311 289.149 158.588 C 289.12 158.866 289.149 159.15 289.236 159.416 C 289.322 159.681 289.465 159.928 289.652 160.136 C 289.838 160.343 290.069 160.511 290.324 160.625 " />
</g>

<g opacity="1.000000" fill="#2ca02c" stroke-width="0.000000" id="id0000000369" >
<path id="id0000000407" d="M 335.772 110.861 C 336.051 110.861 336.33 110.801 336.585 110.688 C 336.84 110.574 337.071 110.406 337.258 110.199 C 337.445 109.991 337.587 109.744 337.674 109.479 C 337.76 109.213 337.79 108.929 337.761 108.651 C 337.731 108.374 337.643 108.102 337.504 107.861 C 337.364 107.619 337.173 107.407 336.947 107.242 C 336.721 107.078 336.461 106.962 336.187 106.904 C 335.914 106.846 335.629 106.846 335.356 106.904 C 335.083 106.962 334.822 107.078 334.596 107.242 C 334.37 107.407 334.179 107.619 334.04 107.861 C 333.9 108.102 333.812 108.374 333.783 108.651 C 333.753 108.929 333.783 109.213 333.87 109.479 C 333.956 109.744 334.098 109.991 334.285 110.199 C 334.472 110.406 334.703 110.574 334.958 110.688 " />
</g>

<g opacity="1.000000" fill="#2ca02c" stroke-width="0.000000" id="id0000000371" >
<path id="id0000000408" d="M 360.056 109.654 C 360.335 109.654 360.614 109.595 360.869 109.481 C 361.124 109.368 361.355 109.2 361.542 108.993 C 361.729 108.785 361.872 108.538 361.958 108.272 C 362.044 108.007 362.074 107.723 362.045 107.445 C 362.016 107.167 361.928 106.896 361.788 106.654 C 361.648 106.412 361.457 106.2 361.231 106.036 C 361.006 105.872 360.745 105.756 360.472 105.698 C 360.199 105.64 359.913 105.64 359.64 105.698 C 359.367 105.756 359.106 105.872 358.88 106.036 C 358.654 106.2 358.463 106.412 358.324 106.654 C 358.184 106.896 358.096 107.167 358.067 107.445 C 358.038 107.723 358.067 108.007 358.154 108.272 C 358.24 108.538 358.383 108.785 358.57 108.993 C 358.756 109.2 358.987 109.368 359.242 109.481 " />
</g>

<g opacity="1.000000" fill="#2ca02c" stroke-width="0.000000" id="id0000000373" >
<path id="id0000000409" d="M 383.304 74.4335 C 383.584 74.4335 383.863 74.3742 384.118 74.2606 C 384.373 74.147 384.604 73.9793 384.791 73.7718 C 384.977 73.5643 385.12 73.3172 385.206 73.0516 C 385.293 72.786 385.322 72.5022 385.293 72.2245 C 385.264 71.9468 385.176 71.6754 385.036 71.4335 C 384.897 71.1917 384.706 70.9796 384.48 70.8155 C 384.254 70.6514 383.993 70.5353 383.72 70.4772 C 383.447 70.4192 383.162 70.4192 382.888 70.4772 C 382.615 70.5353 382.355 70.6514 382.129 70.8155 C 381.903 70.9796 381.712 71.1917 381.572 71.4335 C 381.433 71.6754 381.344 71.9468 381.315 72.2245 C 381.286 72.5022 381.316 72.786 381.402 73.0516 C 381.488 73.3172 381.631 73.5643 381.818 73.7718 C 382.005 73.9793 382.236 74.147 382.491 74.2606 " />
</g>

<g opacity="1.000000" fill="#2ca02c" stroke-width="0.000000" id="id0000000375" >
<path id="id0000000410" d="M 371.597 117.445 C 371.876 117.445 372.156 117.386 372.411 117.272 C 372.666 117.159 372.897 116.991 373.084 116.784 C 373.27 116.576 373.413 116.329 373.499 116.063 C 373.586 115.798 373.615 115.514 373.586 115.236 C 373.557 114.959 373.469 114.687 373.329 114.445 C 373.19 114.204 372.999 113.991 372.773 113.827 C 372.547 113.663 372.286 113.547 372.013 113.489 C 371.74 113.431 371.455 113.431 371.181 113.489 C 370.908 113.547 370.648 113.663 370.422 113.827 C 370.196 113.991 370.005 114.204 369.865 114.445 C 369.726 114.687 369.637 114.959 369.608 115.236 C 369.579 115.514 369.609 115.798 369.695 116.063 C 369.781 116.329 369.924 116.576 370.111 116.784 C 370.298 116.991 370.529 117.159 370.784 117.272 " />
</g>

<g opacity="1.000000" fill="#2ca02c" stroke-width="0.000000" id="id0000000377" >
<path id="id0000000411" d="M 459.975 41.5338 C 460.254 41.5338 460.533 41.4744 460.788 41.3608 C 461.043 41.2473 461.274 41.0795 461.461 40.872 C 461.648 40.6645 461.79 40.4174 461.877 40.1518 C 461.963 39.8862 461.993 39.6024 461.964 39.3247 C 461.934 39.047 461.846 38.7756 461.707 38.5338 C 461.567 38.2919 461.376 38.0799 461.15 37.9157 C 460.924 37.7516 460.664 37.6355 460.39 37.5775 C 460.117 37.5194 459.832 37.5194 459.559 37.5775 C 459.286 37.6355 459.025 37.7516 458.799 37.9157 C 458.573 38.0799 458.382 38.2919 458.242 38.5338 C 458.103 38.7756 458.015 39.047 457.986 39.3247 C 457.956 39.6024 457.986 39.8862 458.072 40.1518 C 458.159 40.4174 458.301 40.6645 458.488 40.872 C 458.675 41.0795 458.906 41.2473 459.161 41.3608 " />
</g>

<g opacity="1.000000" fill="#2ca02c" stroke-width="0.000000" id="id0000000379" >
<path id="id0000000412" d="M 440.247 25.0875 C 440.526 25.0875 440.805 25.0282 441.06 24.9146 C 441.315 24.801 441.546 24.6333 441.733 24.4258 C 441.92 24.2182 442.063 23.9711 442.149 23.7055 C 442.235 23.4399 442.265 23.1562 442.236 22.8784 C 442.207 22.6007 442.118 22.3293 441.979 22.0875 C 441.839 21.8457 441.648 21.6336 441.422 21.4695 C 441.196 21.3053 440.936 21.1893 440.663 21.1312 C 440.389 21.0731 440.104 21.0731 439.831 21.1312 C 439.558 21.1893 439.297 21.3053 439.071 21.4695 C 438.845 21.6336 438.654 21.8457 438.515 22.0875 C 438.375 22.3293 438.287 22.6007 438.258 22.8784 C 438.229 23.1562 438.258 23.4399 438.345 23.7055 C 438.431 23.9711 438.574 24.2182 438.76 24.4258 C 438.947 24.6333 439.178 24.801 439.433 24.9146 " />
</g>

<g opacity="1.000000" fill="#2ca02c" stroke-width="0.000000" id="id0000000381" >
<path id="id0000000413" d="M 431.43 78.0107 C 431.709 78.0107 431.988 77.9513 432.243 77.8377 C 432.498 77.7242 432.729 77.5564 432.916 77.3489 C 433.103 77.1414 433.246 76.8943 433.332 76.6287 C 433.418 76.3631 433.448 76.0793 433.419 75.8016 C 433.39 75.5239 433.301 75.2525 433.162 75.0107 C 433.022 74.7688 432.831 74.5568 432.605 74.3926 C 432.379 74.2285 432.119 74.1124 431.846 74.0544 C 431.572 73.9963 431.287 73.9963 431.014 74.0544 C 430.741 74.1124 430.48 74.2285 430.254 74.3926 C 430.028 74.5568 429.837 74.7688 429.698 75.0107 C 429.558 75.2525 429.47 75.5239 429.441 75.8016 C 429.412 76.0793 429.441 76.3631 429.528 76.6287 C 429.614 76.8943 429.757 77.1414 429.944 77.3489 C 430.13 77.5564 430.361 77.7242 430.616 77.8377 " />
</g>

<g opacity="1.000000" fill="#2ca02c" stroke-width="0.000000" id="id0000000383" >
<path id="id0000000414" d="M 492.867 122.147 C 493.146 122.147 493.425 122.088 493.681 121.975 C 493.936 121.861 494.167 121.693 494.353 121.486 C 494.54 121.278 494.683 121.031 494.769 120.766 C 494.855 120.5 494.885 120.216 494.856 119.938 C 494.827 119.661 494.739 119.389 494.599 119.147 C 494.46 118.906 494.269 118.694 494.043 118.529 C 493.817 118.365 493.556 118.249 493.283 118.191 C 493.01 118.133 492.724 118.133 492.451 118.191 C 492.178 118.249 491.917 118.365 491.691 118.529 C 491.466 118.694 491.275 118.906 491.135 119.147 C 490.995 119.389 490.907 119.661 490.878 119.938 C 490.849 120.216 490.879 120.5 490.965 120.766 C 491.051 121.031 491.194 121.278 491.381 121.486 C 491.568 121.693 491.798 121.861 492.054 121.975 " />
</g>

<g opacity="1.000000" fill="#2ca02c" stroke-width="0.000000" id="id0000000385" >
<path id="id0000000415" d="M 467.587 77.7297 C 467.866 77.7297 468.146 77.6704 468.401 77.5568 C 468.656 77.4432 468.887 77.2755 469.073 77.068 C 469.26 76.8604 469.403 76.6133 469.489 76.3477 C 469.576 76.0822 469.605 75.7984 469.576 75.5206 C 469.547 75.2429 469.459 74.9715 469.319 74.7297 C 469.18 74.4879 468.989 74.2758 468.763 74.1117 C 468.537 73.9475 468.276 73.8315 468.003 73.7734 C 467.73 73.7153 467.445 73.7153 467.171 73.7734 C 466.898 73.8315 466.638 73.9475 466.412 74.1117 C 466.186 74.2758 465.995 74.4879 465.855 74.7297 C 465.716 74.9715 465.627 75.2429 465.598 75.5207 C 465.569 75.7984 465.599 76.0822 465.685 76.3477 C 465.771 76.6133 465.914 76.8604 466.101 77.068 C 466.288 77.2755 466.519 77.4432 466.774 77.5568 " />
</g>

<g opacity="1.000000" fill="#2ca02c" stroke-width="0.000000" id="id0000000387" >
<path id="id0000000416" d="M 502.546 43.8496 C 502.825 43.8496 503.104 43.7903 503.359 43.6767 C 503.614 43.5631 503.845 43.3954 504.032 43.1879 C 504.219 42.9804 504.362 42.7333 504.448 42.4677 C 504.534 42.2021 504.564 41.9183 504.535 41.6406 C 504.506 41.3629 504.417 41.0915 504.278 40.8496 C 504.138 40.6078 503.947 40.3957 503.721 40.2316 C 503.495 40.0675 503.235 39.9514 502.962 39.8933 C 502.688 39.8353 502.403 39.8353 502.13 39.8933 C 501.857 39.9514 501.596 40.0675 501.37 40.2316 C 501.144 40.3957 500.953 40.6078 500.814 40.8496 C 500.674 41.0915 500.586 41.3629 500.557 41.6406 C 500.528 41.9183 500.557 42.2021 500.644 42.4677 C 500.73 42.7333 500.873 42.9804 501.059 43.1879 C 501.246 43.3954 501.477 43.5631 501.732 43.6767 " />
</g>

<g opacity="1.000000" fill="#2ca02c" stroke-width="0.000000" id="id0000000389" >
<path id="id0000000417" d="M 534.94 104.907 C 535.219 104.907 535.498 104.848 535.753 104.734 C 536.009 104.62 536.239 104.453 536.426 104.245 C 536.613 104.038 536.756 103.791 536.842 103.525 C 536.928 103.259 536.958 102.976 536.929 102.698 C 536.9 102.42 536.812 102.149 536.672 101.907 C 536.532 101.665 536.341 101.453 536.116 101.289 C 535.89 101.125 535.629 101.009 535.356 100.951 C 535.083 100.893 534.797 100.893 534.524 100.951 C 534.251 101.009 533.99 101.125 533.764 101.289 C 533.538 101.453 533.348 101.665 533.208 101.907 C 533.068 102.149 532.98 102.42 532.951 102.698 C 532.922 102.976 532.952 103.259 533.038 103.525 C 533.124 103.791 533.267 104.038 533.454 104.245 C 533.641 104.453 533.871 104.62 534.126 104.734 " />
</g>

<g opacity="1.000000" fill="#2ca02c" stroke-width="0.000000" id="id0000000391" >
<path id="id0000000418" d="M 578.091 34.5179 C 578.37 34.5179 578.649 34.4585 578.904 34.3449 C 579.16 34.2314 579.39 34.0636 579.577 33.8561 C 579.764 33.6486 579.907 33.4015 579.993 33.1359 C 580.079 32.8703 580.109 32.5865 580.08 32.3088 C 580.051 32.0311 579.963 31.7597 579.823 31.5179 C 579.683 31.276 579.492 31.064 579.267 30.8998 C 579.041 30.7357 578.78 30.6196 578.507 30.5616 C 578.234 30.5035 577.948 30.5035 577.675 30.5616 C 577.402 30.6196 577.141 30.7357 576.915 30.8998 C 576.689 31.064 576.499 31.276 576.359 31.5179 C 576.219 31.7597 576.131 32.0311 576.102 32.3088 C 576.073 32.5865 576.103 32.8703 576.189 33.1359 C 576.275 33.4015 576.418 33.6486 576.605 33.8561 C 576.792 34.0636 577.022 34.2314 577.277 34.3449 " />
</g>

<g opacity="1.000000" fill="#2ca02c" stroke-width="0.000000" id="id0000000393" >
<path id="id0000000419" d="M 609.013 17.1829 C 609.292 17.1829 609.571 17.1235 609.826 17.01 C 610.082 16.8964 610.312 16.7286 610.499 16.5211 C 610.686 16.3136 610.829 16.0665 610.915 15.8009 C 611.001 15.5353 611.031 15.2515 611.002 14.9738 C 610.973 14.6961 610.885 14.4247 610.745 14.1829 C 610.605 13.941 610.414 13.729 610.189 13.5648 C 609.963 13.4007 609.702 13.2846 609.429 13.2266 C 609.156 13.1685 608.87 13.1685 608.597 13.2266 C 608.324 13.2846 608.063 13.4007 607.837 13.5648 C 607.612 13.729 607.421 13.941 607.281 14.1829 C 607.141 14.4247 607.053 14.6961 607.024 14.9738 C 606.995 15.2515 607.025 15.5353 607.111 15.8009 C 607.197 16.0665 607.34 16.3136 607.527 16.5211 C 607.714 16.7286 607.944 16.8964 608.2 17.01 " />
</g>

</g>

</g>

<polygon points="36,1 36,458 639,458 639,1 " stroke="black" stroke-width="1.000000" fill="none" id="id0000000420" pointer-events="none" class="rectangle" />
<polyline points="44.9323,458 44.9323,461 " fill="none" stroke-width="1.000000" stroke="black" id="id0000000421" class="line" />
<text id="id0000000422" transform="matrix(1 0 0 1 36 1)" x="8.932269" y="462.000000" dominant-baseline="hanging" text-anchor="middle" font-size="14.000000px" >
-14
</text>

<polyline points="126.16,458 126.16,461 " fill="none" stroke-width="1.000000" stroke="black" id="id0000000423" class="line" />
<text id="id0000000424" transform="matrix(1 0 0 1 36 1)" x="90.159622" y="462.000000" dominant-baseline="hanging" text-anchor="middle" font-size="14.000000px" >
-12
</text>

<polyline points="207.387,458 207.387,461 " fill="none" stroke-width="1.000000" stroke="black" id="id0000000425" class="line" />
<text id="id0000000426" transform="matrix(1 0 0 1 36 1)" x="171.386978" y="462.000000" dominant-baseline="hanging" text-anchor="middle" font-size="14.000000px" >
-10
</text>

<polyline points="288.614,458 288.614,461 " fill="none" stroke-width="1.000000" stroke="black" id="id0000000427" class="line" />
<text id="id0000000428" transform="matrix(1 0 0 1 36 1)" x="252.614334" y="462.000000" dominant-baseline="hanging" text-anchor="middle" font-size="14.000000px" >
-8
</text>

<polyline points="369.842,458 369.842,461 " fill="none" stroke-width="1.000000" stroke="black" id="id0000000429" class="line" />
<text id="id0000000430" transform="matrix(1 0 0 1 36 1)" x="333.841675" y="462.000000" dominant-baseline="hanging" text-anchor="middle" font-size="14.000000px" >
-6
</text>

<polyline points="451.069,458 451.069,461 " fill="none" stroke-width="1.000000" stroke="black" id="id0000000431" class="line" />
<text id="id0000000432" transform="matrix(1 0 0 1 36 1)" x="415.069000" y="462.000000" dominant-baseline="hanging" text-anchor="middle" font-size="14.000000px" >
-4
</text>

<polyline points="532.296,458 532.296,461 " fill="none" stroke-width="1.000000" stroke="black" id="id0000000433" class="line" />
<text id="id0000000434" transform="matrix(1 0 0 1 36 1)" x="496.296356" y="462.000000" dominant-baseline="hanging" text-anchor="middle" font-size="14.000000px" >
-2
</text>

<polyline points="613.524,458 613.524,461 " fill="none" stroke-width="1.000000" stroke="black" id="id0000000435" class="line" />
<text id="id0000000436" transform="matrix(1 0 0 1 36 1)" x="577.523743" y="462.000000" dominant-baseline="hanging" text-anchor="middle" font-size="14.000000px" >
0
</text>

<polyline points="33,453.677 36,453.677 " fill="none" stroke-width="1.000000" stroke="black" id="id0000000437" class="line" />
<text id="id0000000438" transform="matrix(1 0 0 1 36 1)" x="-5.000000" y="452.677368" dominant-baseline="middle" text-anchor="end" font-size="14.000000px" >
-2
</text>

<polyline points="33,377.228 36,377.228 " fill="none" stroke-width="1.000000" stroke="black" id="id0000000439" class="line" />
<text id="id0000000440" transform="matrix(1 0 0 1 36 1)" x="-5.000000" y="376.227600" dominant-baseline="middle" text-anchor="end" font-size="14.000000px" >
0
</text>

<polyline points="33,300.778 36,300.778 " fill="none" stroke-width="1.000000" stroke="black" id="id0000000441" class="line" />
<text id="id0000000442" transform="matrix(1 0 0 1 36 1)" x="-5.000000" y="299.777863" dominant-baseline="middle" text-anchor="end" font-size="14.000000px" >
2
</text>

<polyline points="33,224.328 36,224.328 " fill="none" stroke-width="1.000000" stroke="black" id="id0000000443" class="line" />
<text id="id0000000444" transform="matrix(1 0 0 1 36 1)" x="-5.000000" y="223.328110" dominant-baseline="middle" text-anchor="end" font-size="14.000000px" >
4
</text>

<polyline points="33,147.878 36,147.878 " fill="none" stroke-width="1.000000" stroke="black" id="id0000000445" class="line" />
<text id="id0000000446" transform="matrix(1 0 0 1 36 1)" x="-5.000000" y="146.878326" dominant-baseline="middle" text-anchor="end" font-size="14.000000px" >
6
</text>

<polyline points="33,71.4286 36,71.4286 " fill="none" stroke-width="1.000000" stroke="black" id="id0000000447" class="line" />
<text id="id0000000448" transform="matrix(1 0 0 1 36 1)" x="-5.000000" y="70.428589" dominant-baseline="middle" text-anchor="end" font-size="14.000000px" >
8
</text>


</g>

</svg>
