<svg viewBox="0 0 32.855 18.4016" height="100%" width="100%" xmlns:xlink="http://www.w3.org/1999/xlink" xmlns="http://www.w3.org/2000/svg" id="id0000000636" >
<g id="id0000000637" >
<g id="id0000000638" >
<g id="id0000000639" >
<clipPath id="id0000000639clipper" >
<polygon points="2.3025,5.1608 2.3025,8.1608 5.3025,8.1608 5.3025,5.1608 " id="id0000000686" class="rectangle" />
</clipPath>

<g clip-path="url(#id0000000639clipper)" id="id0000000641" >
<g id="id0000000687" >
<g opacity="1.000000" fill="#1f77b4" stroke-width="0.000000" id="id0000000688" >
<path id="id0000000690" d="M 3.8025 7.8608 C 3.97005 7.8608 4.13752 7.8252 4.29058 7.75705 C 4.44365 7.68891 4.58216 7.58827 4.69427 7.46376 C 4.80639 7.33924 4.89199 7.19097 4.94377 7.03162 C 4.99554 6.87227 5.01344 6.702 4.99593 6.53537 C 4.97841 6.36873 4.92551 6.2059 4.84173 6.0608 C 4.75795 5.9157 4.64339 5.78846 4.50784 5.68998 C 4.37229 5.5915 4.21588 5.52186 4.05199 5.48702 C 3.8881 5.45219 3.7169 5.45219 3.55301 5.48702 C 3.38912 5.52186 3.23271 5.5915 3.09716 5.68998 C 2.96161 5.78846 2.84705 5.9157 2.76327 6.0608 C 2.67949 6.2059 2.62659 6.36873 2.60907 6.53537 C 2.59156 6.702 2.60946 6.87227 2.66123 7.03162 C 2.71301 7.19097 2.79861 7.33924 2.91073 7.46376 C 3.02284 7.58827 3.16135 7.68891 3.31442 7.75705 " />
</g>

</g>

</g>

<polygon points="2.3025,5.1608 2.3025,8.1608 5.3025,8.1608 5.3025,5.1608 " stroke="black" stroke-width="0.010000" fill="none" id="id0000000691" pointer-events="none" class="rectangle" />
<text id="id0000000692" transform="matrix(1 0 0 1 2.3025 5.1608)" x="1.500000" y="-1.000000" text-anchor="middle" font-size="2.000000px" >
'o'
</text>

</g>

</g>

<g id="id0000000642" >
<g id="id0000000643" >
<clipPath id="id0000000643clipper" >
<polygon points="7.35292,5.1608 7.35292,8.1608 10.3529,8.1608 10.3529,5.1608 " id="id0000000693" class="rectangle" />
</clipPath>

<g clip-path="url(#id0000000643clipper)" id="id0000000645" >
<g id="id0000000694" >
<g opacity="1.000000" fill="#1f77b4" stroke-width="0.000000" id="id0000000695" >
<path id="id0000000697" d="M 8.85292 7.2608 C 8.93669 7.2608 9.02043 7.243 9.09696 7.20893 C 9.17349 7.17485 9.24275 7.12454 9.2988 7.06228 C 9.35486 7.00002 9.39766 6.92589 9.42355 6.84621 C 9.44944 6.76653 9.45839 6.6814 9.44963 6.59808 C 9.44087 6.51477 9.41442 6.43335 9.37253 6.3608 C 9.33064 6.28825 9.27336 6.22463 9.20559 6.17539 C 9.13781 6.12615 9.05961 6.09133 8.97766 6.07391 C 8.89572 6.05649 8.81011 6.05649 8.72817 6.07391 C 8.64622 6.09133 8.56802 6.12615 8.50025 6.17539 C 8.43247 6.22463 8.37519 6.28825 8.3333 6.3608 C 8.29141 6.43335 8.26496 6.51477 8.2562 6.59808 C 8.24745 6.6814 8.25639 6.76653 8.28228 6.84621 C 8.30817 6.92589 8.35097 7.00002 8.40703 7.06228 C 8.46309 7.12454 8.53234 7.17485 8.60888 7.20893 " />
</g>

</g>

</g>

<polygon points="7.35292,5.1608 7.35292,8.1608 10.3529,8.1608 10.3529,5.1608 " stroke="black" stroke-width="0.010000" fill="none" id="id0000000698" pointer-events="none" class="rectangle" />
<text id="id0000000699" transform="matrix(1 0 0 1 7.35292 5.1608)" x="1.500000" y="-1.000000" text-anchor="middle" font-size="2.000000px" >
'.'
</text>

</g>

</g>

<g id="id0000000646" >
<g id="id0000000647" >
<clipPath id="id0000000647clipper" >
<polygon points="12.4033,5.1608 12.4033,8.1608 15.4033,8.1608 15.4033,5.1608 " id="id0000000700" class="rectangle" />
</clipPath>

<g clip-path="url(#id0000000647clipper)" id="id0000000649" >
<g id="id0000000701" >
<g opacity="1.000000" fill="#1f77b4" stroke-width="0.000000" id="id0000000702" >
<path id="id0000000704" d="M 13.9033 6.8608 C 13.9313 6.8608 13.9592 6.85487 13.9847 6.84351 C 14.0102 6.83215 14.0333 6.81538 14.052 6.79463 C 14.0706 6.77387 14.0849 6.74916 14.0935 6.7226 C 14.1022 6.69604 14.1052 6.66767 14.1022 6.63989 C 14.0993 6.61212 14.0905 6.58498 14.0765 6.5608 C 14.0626 6.53662 14.0435 6.51541 14.0209 6.499 C 13.9983 6.48258 13.9722 6.47098 13.9449 6.46517 C 13.9176 6.45936 13.8891 6.45936 13.8618 6.46517 C 13.8344 6.47098 13.8084 6.48258 13.7858 6.499 C 13.7632 6.51541 13.7441 6.53662 13.7301 6.5608 C 13.7162 6.58498 13.7073 6.61212 13.7044 6.63989 C 13.7015 6.66767 13.7045 6.69604 13.7131 6.7226 C 13.7218 6.74916 13.736 6.77387 13.7547 6.79463 C 13.7734 6.81538 13.7965 6.83215 13.822 6.84351 " />
</g>

</g>

</g>

<polygon points="12.4033,5.1608 12.4033,8.1608 15.4033,8.1608 15.4033,5.1608 " stroke="black" stroke-width="0.010000" fill="none" id="id0000000705" pointer-events="none" class="rectangle" />
<text id="id0000000706" transform="matrix(1 0 0 1 12.4033 5.1608)" x="1.500000" y="-1.000000" text-anchor="middle" font-size="2.000000px" >
','
</text>

</g>

</g>

<g id="id0000000650" >
<g id="id0000000651" >
<clipPath id="id0000000651clipper" >
<polygon points="17.4537,5.1608 17.4537,8.1608 20.4537,8.1608 20.4537,5.1608 " id="id0000000707" class="rectangle" />
</clipPath>

<g clip-path="url(#id0000000651clipper)" id="id0000000653" >
<g id="id0000000708" >
<g opacity="1.000000" fill="#1f77b4" stroke-width="0.000000" id="id0000000709" >
<polygon points="18.9537,7.6608 19.9537,5.6608 17.9537,5.6608 " id="id0000000711" class="triangle" />
</g>

</g>

</g>

<polygon points="17.4537,5.1608 17.4537,8.1608 20.4537,8.1608 20.4537,5.1608 " stroke="black" stroke-width="0.010000" fill="none" id="id0000000712" pointer-events="none" class="rectangle" />
<text id="id0000000713" transform="matrix(1 0 0 1 17.4537 5.1608)" x="1.500000" y="-1.000000" text-anchor="middle" font-size="2.000000px" >
'v'
</text>

</g>

</g>

<g id="id0000000654" >
<g id="id0000000655" >
<clipPath id="id0000000655clipper" >
<polygon points="22.5042,5.1608 22.5042,8.1608 25.5042,8.1608 25.5042,5.1608 " id="id0000000714" class="rectangle" />
</clipPath>

<g clip-path="url(#id0000000655clipper)" id="id0000000657" >
<g id="id0000000715" >
<g opacity="1.000000" fill="#1f77b4" stroke-width="0.000000" id="id0000000716" >
<polygon points="25.0042,6.6608 23.0042,7.6608 23.0042,5.6608 " id="id0000000718" class="triangle" />
</g>

</g>

</g>

<polygon points="22.5042,5.1608 22.5042,8.1608 25.5042,8.1608 25.5042,5.1608 " stroke="black" stroke-width="0.010000" fill="none" id="id0000000719" pointer-events="none" class="rectangle" />
<text id="id0000000720" transform="matrix(1 0 0 1 22.5042 5.1608)" x="1.500000" y="-1.000000" text-anchor="middle" font-size="2.000000px" >
'>'
</text>

</g>

</g>

<g id="id0000000658" >
<g id="id0000000659" >
<clipPath id="id0000000659clipper" >
<polygon points="27.5546,5.1608 27.5546,8.1608 30.5546,8.1608 30.5546,5.1608 " id="id0000000721" class="rectangle" />
</clipPath>

<g clip-path="url(#id0000000659clipper)" id="id0000000661" >
<g id="id0000000722" >
<g opacity="1.000000" fill="#1f77b4" stroke-width="0.000000" id="id0000000723" >
<polygon points="29.0546,5.6608 30.0546,7.6608 28.0546,7.6608 " id="id0000000725" class="triangle" />
</g>

</g>

</g>

<polygon points="27.5546,5.1608 27.5546,8.1608 30.5546,8.1608 30.5546,5.1608 " stroke="black" stroke-width="0.010000" fill="none" id="id0000000726" pointer-events="none" class="rectangle" />
<text id="id0000000727" transform="matrix(1 0 0 1 27.5546 5.1608)" x="1.500000" y="-1.000000" text-anchor="middle" font-size="2.000000px" >
'^'
</text>

</g>

</g>

<g id="id0000000662" >
<g id="id0000000663" >
<clipPath id="id0000000663clipper" >
<polygon points="2.3025,13.2412 2.3025,16.2412 5.3025,16.2412 5.3025,13.2412 " id="id0000000728" class="rectangle" />
</clipPath>

<g clip-path="url(#id0000000663clipper)" id="id0000000665" >
<g id="id0000000729" >
<g opacity="1.000000" fill="#1f77b4" stroke-width="0.000000" id="id0000000730" >
<polygon points="2.8025,14.7412 4.8025,15.7412 4.8025,13.7412 " id="id0000000732" class="triangle" />
</g>

</g>

</g>

<polygon points="2.3025,13.2412 2.3025,16.2412 5.3025,16.2412 5.3025,13.2412 " stroke="black" stroke-width="0.010000" fill="none" id="id0000000733" pointer-events="none" class="rectangle" />
<text id="id0000000734" transform="matrix(1 0 0 1 2.3025 13.2412)" x="1.500000" y="-1.000000" text-anchor="middle" font-size="2.000000px" >
'&lt;'
</text>

</g>

</g>

<g id="id0000000666" >
<g id="id0000000667" >
<clipPath id="id0000000667clipper" >
<polygon points="7.35292,13.2412 7.35292,16.2412 10.3529,16.2412 10.3529,13.2412 " id="id0000000735" class="rectangle" />
</clipPath>

<g clip-path="url(#id0000000667clipper)" id="id0000000669" >
<g id="id0000000736" >
<g opacity="1.000000" fill="#1f77b4" stroke-width="0.000000" id="id0000000737" >
<polygon points="7.85292,13.7412 7.85292,15.7412 9.85292,15.7412 9.85292,13.7412 " id="id0000000739" class="rectangle" />
</g>

</g>

</g>

<polygon points="7.35292,13.2412 7.35292,16.2412 10.3529,16.2412 10.3529,13.2412 " stroke="black" stroke-width="0.010000" fill="none" id="id0000000740" pointer-events="none" class="rectangle" />
<text id="id0000000741" transform="matrix(1 0 0 1 7.35292 13.2412)" x="1.500000" y="-1.000000" text-anchor="middle" font-size="2.000000px" >
's'
</text>

</g>

</g>

<g id="id0000000670" >
<g id="id0000000671" >
<clipPath id="id0000000671clipper" >
<polygon points="12.4033,13.2412 12.4033,16.2412 15.4033,16.2412 15.4033,13.2412 " id="id0000000742" class="rectangle" />
</clipPath>

<g clip-path="url(#id0000000671clipper)" id="id0000000673" >
<g id="id0000000743" >
<g stroke="#1f77b4" opacity="1.000000" fill="none" id="id0000000744" >
<g stroke-width="0.300000" class="plus" id="id0000000632" >
<polyline points="13.9033,15.7412 13.9033,13.7412 " fill="none" id="id0000000746" class="line" />
<polyline points="14.9033,14.7412 12.9033,14.7412 " fill="none" id="id0000000747" class="line" />
</g>

</g>

</g>

</g>

<polygon points="12.4033,13.2412 12.4033,16.2412 15.4033,16.2412 15.4033,13.2412 " stroke="black" stroke-width="0.010000" fill="none" id="id0000000748" pointer-events="none" class="rectangle" />
<text id="id0000000749" transform="matrix(1 0 0 1 12.4033 13.2412)" x="1.500000" y="-1.000000" text-anchor="middle" font-size="2.000000px" >
'+'
</text>

</g>

</g>

<g id="id0000000674" >
<g id="id0000000675" >
<clipPath id="id0000000675clipper" >
<polygon points="17.4537,13.2412 17.4537,16.2412 20.4537,16.2412 20.4537,13.2412 " id="id0000000750" class="rectangle" />
</clipPath>

<g clip-path="url(#id0000000675clipper)" id="id0000000677" >
<g id="id0000000751" >
<g stroke="#1f77b4" opacity="1.000000" fill="none" id="id0000000752" >
<g stroke-width="0.700000" class="plus" id="id0000000633" >
<polyline points="18.9537,15.7412 18.9537,13.7412 " fill="none" id="id0000000754" class="line" />
<polyline points="19.9537,14.7412 17.9537,14.7412 " fill="none" id="id0000000755" class="line" />
</g>

</g>

</g>

</g>

<polygon points="17.4537,13.2412 17.4537,16.2412 20.4537,16.2412 20.4537,13.2412 " stroke="black" stroke-width="0.010000" fill="none" id="id0000000756" pointer-events="none" class="rectangle" />
<text id="id0000000757" transform="matrix(1 0 0 1 17.4537 13.2412)" x="1.500000" y="-1.000000" text-anchor="middle" font-size="2.000000px" >
'P'
</text>

</g>

</g>

<g id="id0000000678" >
<g id="id0000000679" >
<clipPath id="id0000000679clipper" >
<polygon points="22.5042,13.2412 22.5042,16.2412 25.5042,16.2412 25.5042,13.2412 " id="id0000000758" class="rectangle" />
</clipPath>

<g clip-path="url(#id0000000679clipper)" id="id0000000681" >
<g id="id0000000759" >
<g stroke="#1f77b4" opacity="1.000000" fill="none" id="id0000000760" >
<g stroke-width="0.300000" class="times" id="id0000000634" >
<polyline points="25.0042,15.7412 23.0042,13.7412 " fill="none" id="id0000000762" class="line" />
<polyline points="25.0042,13.7412 23.0042,15.7412 " fill="none" id="id0000000763" class="line" />
</g>

</g>

</g>

</g>

<polygon points="22.5042,13.2412 22.5042,16.2412 25.5042,16.2412 25.5042,13.2412 " stroke="black" stroke-width="0.010000" fill="none" id="id0000000764" pointer-events="none" class="rectangle" />
<text id="id0000000765" transform="matrix(1 0 0 1 22.5042 13.2412)" x="1.500000" y="-1.000000" text-anchor="middle" font-size="2.000000px" >
'x'
</text>

</g>

</g>

<g id="id0000000682" >
<g id="id0000000683" >
<clipPath id="id0000000683clipper" >
<polygon points="27.5546,13.2412 27.5546,16.2412 30.5546,16.2412 30.5546,13.2412 " id="id0000000766" class="rectangle" />
</clipPath>

<g clip-path="url(#id0000000683clipper)" id="id0000000685" >
<g id="id0000000767" >
<g stroke="#1f77b4" opacity="1.000000" fill="none" id="id0000000768" >
<g stroke-width="0.700000" class="times" id="id0000000635" >
<polyline points="30.0546,15.7412 28.0546,13.7412 " fill="none" id="id0000000770" class="line" />
<polyline points="30.0546,13.7412 28.0546,15.7412 " fill="none" id="id0000000771" class="line" />
</g>

</g>

</g>

</g>

<polygon points="27.5546,13.2412 27.5546,16.2412 30.5546,16.2412 30.5546,13.2412 " stroke="black" stroke-width="0.010000" fill="none" id="id0000000772" pointer-events="none" class="rectangle" />
<text id="id0000000773" transform="matrix(1 0 0 1 27.5546 13.2412)" x="1.500000" y="-1.000000" text-anchor="middle" font-size="2.000000px" >
'X'
</text>

</g>

</g>


</g>

</svg>
