<svg viewBox="0 0 640 480" height="100%" width="100%" xmlns:xlink="http://www.w3.org/1999/xlink" xmlns="http://www.w3.org/2000/svg" id="id0000000187" >
<g id="id0000000188" >
<clipPath id="id0000000188clipper" >
<polygon points="36,1 36,458 639,458 639,1 " id="id0000000191" class="rectangle" />
</clipPath>

<g clip-path="url(#id0000000188clipper)" id="id0000000190" >
<g id="id0000000192" >
<g opacity="1.000000" fill="#1f77b4" stroke-width="0.000000" id="id0000000193" >
<path id="id0000000243" d="M 83.5255 431.852 C 83.8247 431.852 84.1208 431.71 84.3073 431.476 C 84.4939 431.242 84.567 430.921 84.5004 430.63 C 84.4339 430.338 84.229 430.081 83.9594 429.951 C 83.6898 429.821 83.3612 429.821 83.0916 429.951 C 82.8221 430.081 82.6172 430.338 82.5506 430.63 C 82.484 430.921 82.5571 431.242 82.7437 431.476 C 82.9302 431.71 83.2263 431.852 83.5255 431.852 " />
</g>

<g opacity="1.000000" fill="#1f77b4" stroke-width="0.000000" id="id0000000195" >
<path id="id0000000244" d="M 190.441 414.356 C 190.74 414.356 191.036 414.213 191.223 413.979 C 191.409 413.745 191.482 413.425 191.416 413.133 C 191.349 412.841 191.144 412.585 190.875 412.455 C 190.605 412.325 190.277 412.325 190.007 412.455 C 189.738 412.585 189.533 412.841 189.466 413.133 C 189.399 413.425 189.473 413.745 189.659 413.979 C 189.846 414.213 190.142 414.356 190.441 414.356 " />
</g>

<g opacity="1.000000" fill="#1f77b4" stroke-width="0.000000" id="id0000000197" >
<path id="id0000000245" d="M 156.928 445.48 C 157.227 445.48 157.524 445.338 157.71 445.104 C 157.897 444.87 157.97 444.549 157.903 444.258 C 157.837 443.966 157.632 443.709 157.362 443.579 C 157.093 443.449 156.764 443.449 156.494 443.579 C 156.225 443.709 156.02 443.966 155.953 444.258 C 155.887 444.549 155.96 444.87 156.146 445.104 C 156.333 445.338 156.629 445.48 156.928 445.48 " />
</g>

<g opacity="1.000000" fill="#1f77b4" stroke-width="0.000000" id="id0000000199" >
<path id="id0000000246" d="M 105.536 378.812 C 105.835 378.812 106.131 378.67 106.317 378.436 C 106.504 378.202 106.577 377.881 106.511 377.59 C 106.444 377.298 106.239 377.041 105.97 376.911 C 105.7 376.781 105.371 376.781 105.102 376.911 C 104.832 377.041 104.627 377.298 104.561 377.59 C 104.494 377.881 104.567 378.202 104.754 378.436 C 104.94 378.67 105.236 378.812 105.536 378.812 " />
</g>

<g opacity="1.000000" fill="#1f77b4" stroke-width="0.000000" id="id0000000201" >
<path id="id0000000247" d="M 221.934 360.211 C 222.233 360.211 222.529 360.068 222.716 359.834 C 222.902 359.6 222.975 359.28 222.909 358.988 C 222.842 358.696 222.637 358.439 222.368 358.31 C 222.098 358.18 221.77 358.18 221.5 358.31 C 221.23 358.439 221.026 358.696 220.959 358.988 C 220.892 359.28 220.966 359.6 221.152 359.834 C 221.339 360.068 221.635 360.211 221.934 360.211 " />
</g>

<g opacity="1.000000" fill="#1f77b4" stroke-width="0.000000" id="id0000000203" >
<path id="id0000000248" d="M 114.288 413.224 C 114.587 413.224 114.883 413.082 115.07 412.848 C 115.256 412.614 115.329 412.294 115.263 412.002 C 115.196 411.71 114.991 411.453 114.722 411.324 C 114.452 411.194 114.123 411.194 113.854 411.324 C 113.584 411.453 113.379 411.71 113.313 412.002 C 113.246 412.294 113.319 412.614 113.506 412.848 C 113.693 413.082 113.989 413.224 114.288 413.224 " />
</g>

<g opacity="1.000000" fill="#1f77b4" stroke-width="0.000000" id="id0000000205" >
<path id="id0000000249" d="M 263.671 331.138 C 263.97 331.138 264.266 330.996 264.452 330.762 C 264.639 330.528 264.712 330.207 264.645 329.916 C 264.579 329.624 264.374 329.367 264.104 329.237 C 263.835 329.108 263.506 329.108 263.237 329.237 C 262.967 329.367 262.762 329.624 262.696 329.916 C 262.629 330.207 262.702 330.528 262.889 330.762 C 263.075 330.996 263.371 331.138 263.671 331.138 " />
</g>

<g opacity="1.000000" fill="#1f77b4" stroke-width="0.000000" id="id0000000207" >
<path id="id0000000250" d="M 249.636 385.992 C 249.935 385.992 250.231 385.849 250.418 385.615 C 250.604 385.382 250.677 385.061 250.611 384.769 C 250.544 384.478 250.339 384.221 250.07 384.091 C 249.8 383.961 249.471 383.961 249.202 384.091 C 248.932 384.221 248.727 384.478 248.661 384.769 C 248.594 385.061 248.667 385.382 248.854 385.615 C 249.04 385.849 249.337 385.992 249.636 385.992 " />
</g>

<g opacity="1.000000" fill="#1f77b4" stroke-width="0.000000" id="id0000000209" >
<path id="id0000000251" d="M 275.428 340.216 C 275.727 340.216 276.023 340.073 276.21 339.839 C 276.396 339.605 276.469 339.285 276.403 338.993 C 276.336 338.701 276.131 338.444 275.862 338.315 C 275.592 338.185 275.264 338.185 274.994 338.315 C 274.724 338.444 274.52 338.701 274.453 338.993 C 274.386 339.285 274.46 339.605 274.646 339.839 C 274.833 340.073 275.129 340.216 275.428 340.216 " />
</g>

<g opacity="1.000000" fill="#1f77b4" stroke-width="0.000000" id="id0000000211" >
<path id="id0000000252" d="M 266.876 314.111 C 267.175 314.111 267.471 313.968 267.658 313.735 C 267.844 313.501 267.917 313.18 267.851 312.889 C 267.784 312.597 267.579 312.34 267.31 312.21 C 267.04 312.08 266.712 312.08 266.442 312.21 C 266.172 312.34 265.967 312.597 265.901 312.889 C 265.834 313.18 265.907 313.501 266.094 313.735 C 266.281 313.968 266.577 314.111 266.876 314.111 " />
</g>

<g opacity="1.000000" fill="#1f77b4" stroke-width="0.000000" id="id0000000213" >
<path id="id0000000253" d="M 315.88 356.931 C 316.179 356.931 316.475 356.788 316.662 356.554 C 316.848 356.32 316.921 356 316.855 355.708 C 316.788 355.416 316.583 355.16 316.314 355.03 C 316.044 354.9 315.716 354.9 315.446 355.03 C 315.176 355.16 314.971 355.416 314.905 355.708 C 314.838 356 314.911 356.32 315.098 356.554 C 315.285 356.788 315.581 356.931 315.88 356.931 " />
</g>

<g opacity="1.000000" fill="#1f77b4" stroke-width="0.000000" id="id0000000215" >
<path id="id0000000254" d="M 398.47 300.847 C 398.77 300.847 399.066 300.705 399.252 300.471 C 399.439 300.237 399.512 299.916 399.445 299.625 C 399.379 299.333 399.174 299.076 398.904 298.946 C 398.635 298.816 398.306 298.816 398.036 298.946 C 397.767 299.076 397.562 299.333 397.495 299.625 C 397.429 299.916 397.502 300.237 397.689 300.471 C 397.875 300.705 398.171 300.847 398.47 300.847 " />
</g>

<g opacity="1.000000" fill="#1f77b4" stroke-width="0.000000" id="id0000000217" >
<path id="id0000000255" d="M 296.54 346.905 C 296.839 346.905 297.135 346.763 297.321 346.529 C 297.508 346.295 297.581 345.974 297.515 345.683 C 297.448 345.391 297.243 345.134 296.973 345.004 C 296.704 344.874 296.375 344.874 296.106 345.004 C 295.836 345.134 295.631 345.391 295.565 345.683 C 295.498 345.974 295.571 346.295 295.758 346.529 C 295.944 346.763 296.24 346.905 296.54 346.905 " />
</g>

<g opacity="1.000000" fill="#1f77b4" stroke-width="0.000000" id="id0000000219" >
<path id="id0000000256" d="M 339.64 345.244 C 339.939 345.244 340.235 345.102 340.422 344.868 C 340.609 344.634 340.682 344.313 340.615 344.022 C 340.549 343.73 340.344 343.473 340.074 343.343 C 339.805 343.213 339.476 343.213 339.206 343.343 C 338.937 343.473 338.732 343.73 338.665 344.022 C 338.599 344.313 338.672 344.634 338.858 344.868 C 339.045 345.102 339.341 345.244 339.64 345.244 " />
</g>

<g opacity="1.000000" fill="#1f77b4" stroke-width="0.000000" id="id0000000221" >
<path id="id0000000257" d="M 372.829 271.909 C 373.128 271.909 373.424 271.766 373.611 271.532 C 373.797 271.298 373.87 270.978 373.804 270.686 C 373.737 270.394 373.532 270.137 373.263 270.008 C 372.993 269.878 372.664 269.878 372.395 270.008 C 372.125 270.137 371.92 270.394 371.854 270.686 C 371.787 270.978 371.86 271.298 372.047 271.532 C 372.233 271.766 372.53 271.909 372.829 271.909 " />
</g>

<g opacity="1.000000" fill="#1f77b4" stroke-width="0.000000" id="id0000000223" >
<path id="id0000000258" d="M 414.451 335.013 C 414.75 335.013 415.046 334.87 415.232 334.636 C 415.419 334.402 415.492 334.082 415.425 333.79 C 415.359 333.499 415.154 333.242 414.884 333.112 C 414.615 332.982 414.286 332.982 414.017 333.112 C 413.747 333.242 413.542 333.499 413.476 333.79 C 413.409 334.082 413.482 334.402 413.669 334.636 C 413.855 334.87 414.151 335.013 414.451 335.013 " />
</g>

<g opacity="1.000000" fill="#1f77b4" stroke-width="0.000000" id="id0000000225" >
<path id="id0000000259" d="M 379.052 278.27 C 379.351 278.27 379.647 278.127 379.834 277.894 C 380.02 277.66 380.094 277.339 380.027 277.048 C 379.96 276.756 379.755 276.499 379.486 276.369 C 379.216 276.239 378.888 276.239 378.618 276.369 C 378.349 276.499 378.144 276.756 378.077 277.048 C 378.01 277.339 378.084 277.66 378.27 277.894 C 378.457 278.127 378.753 278.27 379.052 278.27 " />
</g>

<g opacity="1.000000" fill="#1f77b4" stroke-width="0.000000" id="id0000000227" >
<path id="id0000000260" d="M 390.918 324.22 C 391.217 324.22 391.513 324.077 391.7 323.843 C 391.886 323.609 391.959 323.289 391.893 322.997 C 391.826 322.705 391.621 322.449 391.352 322.319 C 391.082 322.189 390.753 322.189 390.484 322.319 C 390.214 322.449 390.009 322.705 389.943 322.997 C 389.876 323.289 389.949 323.609 390.136 323.843 C 390.322 324.077 390.619 324.22 390.918 324.22 " />
</g>

<g opacity="1.000000" fill="#1f77b4" stroke-width="0.000000" id="id0000000229" >
<path id="id0000000261" d="M 469.068 339.548 C 469.367 339.548 469.663 339.405 469.85 339.172 C 470.036 338.938 470.109 338.617 470.043 338.326 C 469.976 338.034 469.771 337.777 469.502 337.647 C 469.232 337.517 468.904 337.517 468.634 337.647 C 468.365 337.777 468.16 338.034 468.093 338.326 C 468.026 338.617 468.1 338.938 468.286 339.172 C 468.473 339.405 468.769 339.548 469.068 339.548 " />
</g>

<g opacity="1.000000" fill="#1f77b4" stroke-width="0.000000" id="id0000000231" >
<path id="id0000000262" d="M 494.433 345.312 C 494.732 345.312 495.028 345.17 495.214 344.936 C 495.401 344.702 495.474 344.382 495.408 344.09 C 495.341 343.798 495.136 343.541 494.866 343.411 C 494.597 343.282 494.268 343.282 493.999 343.411 C 493.729 343.541 493.524 343.798 493.458 344.09 C 493.391 344.382 493.464 344.702 493.651 344.936 C 493.837 345.17 494.133 345.312 494.433 345.312 " />
</g>

<g opacity="1.000000" fill="#1f77b4" stroke-width="0.000000" id="id0000000233" >
<path id="id0000000263" d="M 501.281 281.203 C 501.58 281.203 501.876 281.061 502.062 280.827 C 502.249 280.593 502.322 280.272 502.255 279.981 C 502.189 279.689 501.984 279.432 501.714 279.302 C 501.445 279.172 501.116 279.172 500.847 279.302 C 500.577 279.432 500.372 279.689 500.306 279.981 C 500.239 280.272 500.312 280.593 500.499 280.827 C 500.685 281.061 500.981 281.203 501.281 281.203 " />
</g>

<g opacity="1.000000" fill="#1f77b4" stroke-width="0.000000" id="id0000000235" >
<path id="id0000000264" d="M 594.365 223.162 C 594.664 223.162 594.96 223.019 595.146 222.785 C 595.333 222.551 595.406 222.231 595.34 221.939 C 595.273 221.647 595.068 221.39 594.799 221.261 C 594.529 221.131 594.2 221.131 593.931 221.261 C 593.661 221.39 593.456 221.647 593.39 221.939 C 593.323 222.231 593.396 222.551 593.583 222.785 C 593.769 223.019 594.065 223.162 594.365 223.162 " />
</g>

<g opacity="1.000000" fill="#1f77b4" stroke-width="0.000000" id="id0000000237" >
<path id="id0000000265" d="M 572.025 289.571 C 572.324 289.571 572.62 289.428 572.807 289.194 C 572.993 288.96 573.066 288.64 573 288.348 C 572.933 288.057 572.728 287.8 572.459 287.67 C 572.189 287.54 571.86 287.54 571.591 287.67 C 571.321 287.8 571.116 288.057 571.05 288.348 C 570.983 288.64 571.056 288.96 571.243 289.194 C 571.429 289.428 571.725 289.571 572.025 289.571 " />
</g>

<g opacity="1.000000" fill="#1f77b4" stroke-width="0.000000" id="id0000000239" >
<path id="id0000000266" d="M 538.085 319.436 C 538.384 319.436 538.68 319.293 538.867 319.059 C 539.054 318.825 539.127 318.505 539.06 318.213 C 538.994 317.922 538.789 317.665 538.519 317.535 C 538.25 317.405 537.921 317.405 537.651 317.535 C 537.382 317.665 537.177 317.922 537.11 318.213 C 537.044 318.505 537.117 318.825 537.303 319.059 C 537.49 319.293 537.786 319.436 538.085 319.436 " />
</g>

<g opacity="1.000000" fill="#1f77b4" stroke-width="0.000000" id="id0000000241" >
<path id="id0000000267" d="M 619.181 284.671 C 619.481 284.671 619.777 284.529 619.963 284.295 C 620.15 284.061 620.223 283.74 620.156 283.449 C 620.09 283.157 619.885 282.9 619.615 282.77 C 619.346 282.64 619.017 282.64 618.747 282.77 C 618.478 282.9 618.273 283.157 618.206 283.449 C 618.14 283.74 618.213 284.061 618.4 284.295 C 618.586 284.529 618.882 284.671 619.181 284.671 " />
</g>

</g>

<g id="id0000000268" >
<g opacity="1.000000" fill="#ff7f0e" stroke-width="0.000000" id="id0000000269" >
<path id="id0000000319" d="M 232.358 283.906 C 232.657 283.906 232.953 283.764 233.139 283.53 C 233.326 283.296 233.399 282.975 233.333 282.684 C 233.266 282.392 233.061 282.135 232.791 282.005 C 232.522 281.875 232.193 281.875 231.924 282.005 C 231.654 282.135 231.449 282.392 231.383 282.684 C 231.316 282.975 231.389 283.296 231.576 283.53 C 231.762 283.764 232.058 283.906 232.358 283.906 " />
</g>

<g opacity="1.000000" fill="#ff7f0e" stroke-width="0.000000" id="id0000000271" >
<path id="id0000000320" d="M 140.195 275.996 C 140.494 275.996 140.79 275.853 140.977 275.619 C 141.163 275.385 141.237 275.065 141.17 274.773 C 141.103 274.481 140.898 274.225 140.629 274.095 C 140.359 273.965 140.031 273.965 139.761 274.095 C 139.492 274.225 139.287 274.481 139.22 274.773 C 139.154 275.065 139.227 275.385 139.413 275.619 C 139.6 275.853 139.896 275.996 140.195 275.996 " />
</g>

<g opacity="1.000000" fill="#ff7f0e" stroke-width="0.000000" id="id0000000273" >
<path id="id0000000321" d="M 55.5417 188.808 C 55.8409 188.808 56.137 188.666 56.3235 188.432 C 56.5101 188.198 56.5832 187.877 56.5166 187.586 C 56.45 187.294 56.2451 187.037 55.9756 186.907 C 55.706 186.777 55.3774 186.777 55.1078 186.907 C 54.8382 187.037 54.6333 187.294 54.5668 187.586 C 54.5002 187.877 54.5733 188.198 54.7599 188.432 C 54.9464 188.666 55.2425 188.808 55.5417 188.808 " />
</g>

<g opacity="1.000000" fill="#ff7f0e" stroke-width="0.000000" id="id0000000275" >
<path id="id0000000322" d="M 156.043 219.736 C 156.343 219.736 156.639 219.593 156.825 219.359 C 157.012 219.126 157.085 218.805 157.018 218.513 C 156.952 218.222 156.747 217.965 156.477 217.835 C 156.208 217.705 155.879 217.705 155.61 217.835 C 155.34 217.965 155.135 218.222 155.068 218.513 C 155.002 218.805 155.075 219.126 155.262 219.359 C 155.448 219.593 155.744 219.736 156.043 219.736 " />
</g>

<g opacity="1.000000" fill="#ff7f0e" stroke-width="0.000000" id="id0000000277" >
<path id="id0000000323" d="M 271.83 228.138 C 272.129 228.138 272.425 227.996 272.612 227.762 C 272.798 227.528 272.871 227.208 272.805 226.916 C 272.738 226.624 272.533 226.367 272.264 226.237 C 271.994 226.108 271.666 226.108 271.396 226.237 C 271.127 226.367 270.922 226.624 270.855 226.916 C 270.788 227.208 270.862 227.528 271.048 227.762 C 271.235 227.996 271.531 228.138 271.83 228.138 " />
</g>

<g opacity="1.000000" fill="#ff7f0e" stroke-width="0.000000" id="id0000000279" >
<path id="id0000000324" d="M 247.343 317.916 C 247.642 317.916 247.938 317.774 248.125 317.54 C 248.311 317.306 248.385 316.986 248.318 316.694 C 248.251 316.402 248.046 316.145 247.777 316.015 C 247.507 315.886 247.179 315.886 246.909 316.015 C 246.64 316.145 246.435 316.402 246.368 316.694 C 246.302 316.986 246.375 317.306 246.561 317.54 C 246.748 317.774 247.044 317.916 247.343 317.916 " />
</g>

<g opacity="1.000000" fill="#ff7f0e" stroke-width="0.000000" id="id0000000281" >
<path id="id0000000325" d="M 191.352 228.001 C 191.651 228.001 191.947 227.859 192.133 227.625 C 192.32 227.391 192.393 227.071 192.327 226.779 C 192.26 226.487 192.055 226.23 191.786 226.1 C 191.516 225.971 191.187 225.971 190.918 226.1 C 190.648 226.23 190.443 226.487 190.377 226.779 C 190.31 227.071 190.383 227.391 190.57 227.625 C 190.756 227.859 191.052 228.001 191.352 228.001 " />
</g>

<g opacity="1.000000" fill="#ff7f0e" stroke-width="0.000000" id="id0000000283" >
<path id="id0000000326" d="M 290.588 185.196 C 290.887 185.196 291.183 185.053 291.37 184.819 C 291.556 184.585 291.629 184.265 291.563 183.973 C 291.496 183.682 291.291 183.425 291.022 183.295 C 290.752 183.165 290.423 183.165 290.154 183.295 C 289.884 183.425 289.679 183.682 289.613 183.973 C 289.546 184.265 289.619 184.585 289.806 184.819 C 289.992 185.053 290.289 185.196 290.588 185.196 " />
</g>

<g opacity="1.000000" fill="#ff7f0e" stroke-width="0.000000" id="id0000000285" >
<path id="id0000000327" d="M 318.899 259.394 C 319.198 259.394 319.494 259.251 319.681 259.017 C 319.867 258.783 319.94 258.463 319.874 258.171 C 319.807 257.88 319.602 257.623 319.333 257.493 C 319.063 257.363 318.735 257.363 318.465 257.493 C 318.195 257.623 317.991 257.88 317.924 258.171 C 317.857 258.463 317.931 258.783 318.117 259.017 C 318.304 259.251 318.6 259.394 318.899 259.394 " />
</g>

<g opacity="1.000000" fill="#ff7f0e" stroke-width="0.000000" id="id0000000287" >
<path id="id0000000328" d="M 340.643 256.943 C 340.943 256.943 341.239 256.8 341.425 256.566 C 341.612 256.332 341.685 256.012 341.618 255.72 C 341.552 255.428 341.347 255.171 341.077 255.042 C 340.808 254.912 340.479 254.912 340.21 255.042 C 339.94 255.171 339.735 255.428 339.668 255.72 C 339.602 256.012 339.675 256.332 339.862 256.566 C 340.048 256.8 340.344 256.943 340.643 256.943 " />
</g>

<g opacity="1.000000" fill="#ff7f0e" stroke-width="0.000000" id="id0000000289" >
<path id="id0000000329" d="M 276.464 225.464 C 276.763 225.464 277.059 225.321 277.246 225.087 C 277.432 224.853 277.505 224.533 277.439 224.241 C 277.372 223.949 277.167 223.692 276.898 223.563 C 276.628 223.433 276.3 223.433 276.03 223.563 C 275.76 223.692 275.556 223.949 275.489 224.241 C 275.422 224.533 275.496 224.853 275.682 225.087 C 275.869 225.321 276.165 225.464 276.464 225.464 " />
</g>

<g opacity="1.000000" fill="#ff7f0e" stroke-width="0.000000" id="id0000000291" >
<path id="id0000000330" d="M 350.046 227.922 C 350.346 227.922 350.642 227.779 350.828 227.546 C 351.015 227.312 351.088 226.991 351.021 226.7 C 350.955 226.408 350.75 226.151 350.48 226.021 C 350.211 225.891 349.882 225.891 349.612 226.021 C 349.343 226.151 349.138 226.408 349.071 226.7 C 349.005 226.991 349.078 227.312 349.264 227.546 C 349.451 227.779 349.747 227.922 350.046 227.922 " />
</g>

<g opacity="1.000000" fill="#ff7f0e" stroke-width="0.000000" id="id0000000293" >
<path id="id0000000331" d="M 404.214 241.21 C 404.514 241.21 404.81 241.068 404.996 240.834 C 405.183 240.6 405.256 240.279 405.189 239.988 C 405.123 239.696 404.918 239.439 404.648 239.309 C 404.379 239.179 404.05 239.179 403.781 239.309 C 403.511 239.439 403.306 239.696 403.24 239.988 C 403.173 240.279 403.246 240.6 403.433 240.834 C 403.619 241.068 403.915 241.21 404.214 241.21 " />
</g>

<g opacity="1.000000" fill="#ff7f0e" stroke-width="0.000000" id="id0000000295" >
<path id="id0000000332" d="M 339.664 175.027 C 339.963 175.027 340.259 174.884 340.446 174.65 C 340.633 174.416 340.706 174.096 340.639 173.804 C 340.573 173.512 340.368 173.255 340.098 173.126 C 339.828 172.996 339.5 172.996 339.23 173.126 C 338.961 173.255 338.756 173.512 338.689 173.804 C 338.623 174.096 338.696 174.416 338.882 174.65 C 339.069 174.884 339.365 175.027 339.664 175.027 " />
</g>

<g opacity="1.000000" fill="#ff7f0e" stroke-width="0.000000" id="id0000000297" >
<path id="id0000000333" d="M 367.602 193.362 C 367.901 193.362 368.197 193.22 368.383 192.986 C 368.57 192.752 368.643 192.431 368.576 192.14 C 368.51 191.848 368.305 191.591 368.035 191.461 C 367.766 191.331 367.437 191.331 367.168 191.461 C 366.898 191.591 366.693 191.848 366.627 192.14 C 366.56 192.431 366.633 192.752 366.82 192.986 C 367.006 193.22 367.302 193.362 367.602 193.362 " />
</g>

<g opacity="1.000000" fill="#ff7f0e" stroke-width="0.000000" id="id0000000299" >
<path id="id0000000334" d="M 404.498 205.318 C 404.797 205.318 405.093 205.175 405.28 204.941 C 405.466 204.707 405.539 204.387 405.473 204.095 C 405.406 203.803 405.201 203.546 404.932 203.417 C 404.662 203.287 404.333 203.287 404.064 203.417 C 403.794 203.546 403.589 203.803 403.523 204.095 C 403.456 204.387 403.529 204.707 403.716 204.941 C 403.902 205.175 404.198 205.318 404.498 205.318 " />
</g>

<g opacity="1.000000" fill="#ff7f0e" stroke-width="0.000000" id="id0000000301" >
<path id="id0000000335" d="M 420.272 132.092 C 420.571 132.092 420.867 131.949 421.053 131.715 C 421.24 131.481 421.313 131.161 421.246 130.869 C 421.18 130.577 420.975 130.32 420.705 130.191 C 420.436 130.061 420.107 130.061 419.838 130.191 C 419.568 130.32 419.363 130.577 419.297 130.869 C 419.23 131.161 419.303 131.481 419.49 131.715 C 419.676 131.949 419.972 132.092 420.272 132.092 " />
</g>

<g opacity="1.000000" fill="#ff7f0e" stroke-width="0.000000" id="id0000000303" >
<path id="id0000000336" d="M 443.19 138.4 C 443.49 138.4 443.786 138.257 443.972 138.023 C 444.159 137.789 444.232 137.469 444.165 137.177 C 444.099 136.885 443.894 136.629 443.624 136.499 C 443.355 136.369 443.026 136.369 442.756 136.499 C 442.487 136.629 442.282 136.885 442.215 137.177 C 442.149 137.469 442.222 137.789 442.409 138.023 C 442.595 138.257 442.891 138.4 443.19 138.4 " />
</g>

<g opacity="1.000000" fill="#ff7f0e" stroke-width="0.000000" id="id0000000305" >
<path id="id0000000337" d="M 502.116 214.897 C 502.416 214.897 502.712 214.755 502.898 214.521 C 503.085 214.287 503.158 213.967 503.091 213.675 C 503.025 213.383 502.82 213.126 502.55 212.996 C 502.281 212.867 501.952 212.867 501.682 212.996 C 501.413 213.126 501.208 213.383 501.141 213.675 C 501.075 213.967 501.148 214.287 501.335 214.521 C 501.521 214.755 501.817 214.897 502.116 214.897 " />
</g>

<g opacity="1.000000" fill="#ff7f0e" stroke-width="0.000000" id="id0000000307" >
<path id="id0000000338" d="M 461.083 187.487 C 461.382 187.487 461.678 187.345 461.865 187.111 C 462.052 186.877 462.125 186.557 462.058 186.265 C 461.991 185.973 461.787 185.716 461.517 185.587 C 461.247 185.457 460.919 185.457 460.649 185.587 C 460.38 185.716 460.175 185.973 460.108 186.265 C 460.042 186.557 460.115 186.877 460.301 187.111 C 460.488 187.345 460.784 187.487 461.083 187.487 " />
</g>

<g opacity="1.000000" fill="#ff7f0e" stroke-width="0.000000" id="id0000000309" >
<path id="id0000000339" d="M 580.29 194.392 C 580.589 194.392 580.885 194.249 581.072 194.015 C 581.258 193.781 581.332 193.461 581.265 193.169 C 581.198 192.877 580.993 192.621 580.724 192.491 C 580.454 192.361 580.126 192.361 579.856 192.491 C 579.587 192.621 579.382 192.877 579.315 193.169 C 579.249 193.461 579.322 193.781 579.508 194.015 C 579.695 194.249 579.991 194.392 580.29 194.392 " />
</g>

<g opacity="1.000000" fill="#ff7f0e" stroke-width="0.000000" id="id0000000311" >
<path id="id0000000340" d="M 525.835 235.768 C 526.135 235.768 526.431 235.626 526.617 235.392 C 526.804 235.158 526.877 234.838 526.81 234.546 C 526.744 234.254 526.539 233.997 526.269 233.868 C 526 233.738 525.671 233.738 525.401 233.868 C 525.132 233.997 524.927 234.254 524.86 234.546 C 524.794 234.838 524.867 235.158 525.053 235.392 C 525.24 235.626 525.536 235.768 525.835 235.768 " />
</g>

<g opacity="1.000000" fill="#ff7f0e" stroke-width="0.000000" id="id0000000313" >
<path id="id0000000341" d="M 554.554 239.484 C 554.853 239.484 555.149 239.341 555.336 239.107 C 555.522 238.874 555.595 238.553 555.529 238.261 C 555.462 237.97 555.257 237.713 554.988 237.583 C 554.718 237.453 554.39 237.453 554.12 237.583 C 553.851 237.713 553.646 237.97 553.579 238.261 C 553.512 238.553 553.586 238.874 553.772 239.107 C 553.959 239.341 554.255 239.484 554.554 239.484 " />
</g>

<g opacity="1.000000" fill="#ff7f0e" stroke-width="0.000000" id="id0000000315" >
<path id="id0000000342" d="M 520.306 172.786 C 520.605 172.786 520.902 172.644 521.088 172.41 C 521.275 172.176 521.348 171.855 521.281 171.564 C 521.215 171.272 521.01 171.015 520.74 170.885 C 520.471 170.755 520.142 170.755 519.872 170.885 C 519.603 171.015 519.398 171.272 519.331 171.564 C 519.265 171.855 519.338 172.176 519.524 172.41 C 519.711 172.644 520.007 172.786 520.306 172.786 " />
</g>

<g opacity="1.000000" fill="#ff7f0e" stroke-width="0.000000" id="id0000000317" >
<path id="id0000000343" d="M 557.397 180.716 C 557.697 180.716 557.993 180.573 558.179 180.34 C 558.366 180.106 558.439 179.785 558.372 179.494 C 558.306 179.202 558.101 178.945 557.831 178.815 C 557.562 178.685 557.233 178.685 556.964 178.815 C 556.694 178.945 556.489 179.202 556.423 179.494 C 556.356 179.785 556.429 180.106 556.616 180.34 C 556.802 180.573 557.098 180.716 557.397 180.716 " />
</g>

</g>

<g id="id0000000344" >
<g opacity="1.000000" fill="#2ca02c" stroke-width="0.000000" id="id0000000345" >
<path id="id0000000395" d="M 67.0627 147.978 C 67.3619 147.978 67.658 147.836 67.8445 147.602 C 68.0311 147.368 68.1042 147.047 68.0376 146.756 C 67.971 146.464 67.7661 146.207 67.4966 146.077 C 67.227 145.947 66.8984 145.947 66.6288 146.077 C 66.3592 146.207 66.1543 146.464 66.0878 146.756 C 66.0212 147.047 66.0943 147.368 66.2809 147.602 C 66.4674 147.836 66.7635 147.978 67.0627 147.978 " />
</g>

<g opacity="1.000000" fill="#2ca02c" stroke-width="0.000000" id="id0000000347" >
<path id="id0000000396" d="M 86.7527 174.269 C 87.0519 174.269 87.348 174.127 87.5346 173.893 C 87.7211 173.659 87.7943 173.338 87.7277 173.047 C 87.6611 172.755 87.4562 172.498 87.1866 172.368 C 86.9171 172.238 86.5884 172.238 86.3189 172.368 C 86.0493 172.498 85.8444 172.755 85.7778 173.047 C 85.7112 173.338 85.7844 173.659 85.9709 173.893 C 86.1575 174.127 86.4535 174.269 86.7527 174.269 " />
</g>

<g opacity="1.000000" fill="#2ca02c" stroke-width="0.000000" id="id0000000349" >
<path id="id0000000397" d="M 135.698 147.843 C 135.997 147.843 136.293 147.701 136.48 147.467 C 136.666 147.233 136.739 146.912 136.673 146.621 C 136.606 146.329 136.401 146.072 136.132 145.942 C 135.862 145.812 135.534 145.812 135.264 145.942 C 134.994 146.072 134.79 146.329 134.723 146.621 C 134.656 146.912 134.73 147.233 134.916 147.467 C 135.103 147.701 135.399 147.843 135.698 147.843 " />
</g>

<g opacity="1.000000" fill="#2ca02c" stroke-width="0.000000" id="id0000000351" >
<path id="id0000000398" d="M 90.2773 75.9469 C 90.5765 75.9469 90.8726 75.8043 91.0592 75.5704 C 91.2457 75.3365 91.3188 75.0161 91.2523 74.7244 C 91.1857 74.4327 90.9808 74.1758 90.7112 74.0459 C 90.4417 73.9161 90.113 73.9161 89.8435 74.0459 C 89.5739 74.1758 89.369 74.4327 89.3024 74.7244 C 89.2358 75.0161 89.309 75.3365 89.4955 75.5704 C 89.6821 75.8043 89.9781 75.9469 90.2773 75.9469 " />
</g>

<g opacity="1.000000" fill="#2ca02c" stroke-width="0.000000" id="id0000000353" >
<path id="id0000000399" d="M 233.595 152.073 C 233.894 152.073 234.19 151.931 234.377 151.697 C 234.563 151.463 234.637 151.143 234.57 150.851 C 234.503 150.559 234.299 150.302 234.029 150.172 C 233.759 150.043 233.431 150.043 233.161 150.172 C 232.892 150.302 232.687 150.559 232.62 150.851 C 232.554 151.143 232.627 151.463 232.813 151.697 C 233 151.931 233.296 152.073 233.595 152.073 " />
</g>

<g opacity="1.000000" fill="#2ca02c" stroke-width="0.000000" id="id0000000355" >
<path id="id0000000400" d="M 248.789 167.451 C 249.088 167.451 249.384 167.308 249.57 167.074 C 249.757 166.84 249.83 166.52 249.764 166.228 C 249.697 165.936 249.492 165.679 249.223 165.55 C 248.953 165.42 248.624 165.42 248.355 165.55 C 248.085 165.679 247.88 165.936 247.814 166.228 C 247.747 166.52 247.82 166.84 248.007 167.074 C 248.193 167.308 248.489 167.451 248.789 167.451 " />
</g>

<g opacity="1.000000" fill="#2ca02c" stroke-width="0.000000" id="id0000000357" >
<path id="id0000000401" d="M 177.132 52.404 C 177.431 52.404 177.727 52.2614 177.913 52.0275 C 178.1 51.7936 178.173 51.4732 178.106 51.1815 C 178.04 50.8898 177.835 50.6328 177.565 50.503 C 177.296 50.3732 176.967 50.3732 176.698 50.503 C 176.428 50.6328 176.223 50.8898 176.157 51.1815 C 176.09 51.4732 176.163 51.7936 176.35 52.0275 C 176.536 52.2614 176.832 52.404 177.132 52.404 " />
</g>

<g opacity="1.000000" fill="#2ca02c" stroke-width="0.000000" id="id0000000359" >
<path id="id0000000402" d="M 230.011 63.0434 C 230.31 63.0434 230.606 62.9008 230.793 62.6669 C 230.979 62.433 231.052 62.1126 230.986 61.8209 C 230.919 61.5292 230.714 61.2723 230.445 61.1425 C 230.175 61.0126 229.846 61.0126 229.577 61.1425 C 229.307 61.2723 229.102 61.5292 229.036 61.8209 C 228.969 62.1126 229.042 62.433 229.229 62.6669 C 229.415 62.9008 229.712 63.0434 230.011 63.0434 " />
</g>

<g opacity="1.000000" fill="#2ca02c" stroke-width="0.000000" id="id0000000361" >
<path id="id0000000403" d="M 190.393 156.329 C 190.692 156.329 190.988 156.186 191.175 155.953 C 191.361 155.719 191.434 155.398 191.368 155.107 C 191.301 154.815 191.096 154.558 190.827 154.428 C 190.557 154.298 190.228 154.298 189.959 154.428 C 189.689 154.558 189.484 154.815 189.418 155.107 C 189.351 155.398 189.424 155.719 189.611 155.953 C 189.797 156.186 190.094 156.329 190.393 156.329 " />
</g>

<g opacity="1.000000" fill="#2ca02c" stroke-width="0.000000" id="id0000000363" >
<path id="id0000000404" d="M 272.042 110.565 C 272.341 110.565 272.637 110.423 272.824 110.189 C 273.01 109.955 273.083 109.635 273.017 109.343 C 272.95 109.051 272.745 108.794 272.476 108.664 C 272.206 108.535 271.877 108.535 271.608 108.664 C 271.338 108.794 271.133 109.051 271.067 109.343 C 271 109.635 271.073 109.955 271.26 110.189 C 271.447 110.423 271.743 110.565 272.042 110.565 " />
</g>

<g opacity="1.000000" fill="#2ca02c" stroke-width="0.000000" id="id0000000365" >
<path id="id0000000405" d="M 273.724 96.8452 C 274.024 96.8452 274.32 96.7027 274.506 96.4687 C 274.693 96.2348 274.766 95.9144 274.699 95.6227 C 274.633 95.331 274.428 95.0741 274.158 94.9443 C 273.889 94.8145 273.56 94.8145 273.291 94.9443 C 273.021 95.0741 272.816 95.331 272.75 95.6227 C 272.683 95.9144 272.756 96.2348 272.943 96.4687 C 273.129 96.7027 273.425 96.8452 273.724 96.8452 " />
</g>

<g opacity="1.000000" fill="#2ca02c" stroke-width="0.000000" id="id0000000367" >
<path id="id0000000406" d="M 291.138 159.798 C 291.437 159.798 291.733 159.655 291.92 159.421 C 292.106 159.187 292.179 158.867 292.113 158.575 C 292.046 158.283 291.841 158.026 291.572 157.897 C 291.302 157.767 290.974 157.767 290.704 157.897 C 290.434 158.026 290.229 158.283 290.163 158.575 C 290.096 158.867 290.169 159.187 290.356 159.421 C 290.543 159.655 290.839 159.798 291.138 159.798 " />
</g>

<g opacity="1.000000" fill="#2ca02c" stroke-width="0.000000" id="id0000000369" >
<path id="id0000000407" d="M 335.772 109.861 C 336.071 109.861 336.367 109.718 336.553 109.484 C 336.74 109.25 336.813 108.93 336.747 108.638 C 336.68 108.346 336.475 108.089 336.205 107.96 C 335.936 107.83 335.607 107.83 335.338 107.96 C 335.068 108.089 334.863 108.346 334.797 108.638 C 334.73 108.93 334.803 109.25 334.99 109.484 C 335.176 109.718 335.472 109.861 335.772 109.861 " />
</g>

<g opacity="1.000000" fill="#2ca02c" stroke-width="0.000000" id="id0000000371" >
<path id="id0000000408" d="M 360.056 108.654 C 360.355 108.654 360.651 108.512 360.838 108.278 C 361.024 108.044 361.097 107.723 361.031 107.432 C 360.964 107.14 360.759 106.883 360.49 106.753 C 360.22 106.623 359.892 106.623 359.622 106.753 C 359.352 106.883 359.148 107.14 359.081 107.432 C 359.014 107.723 359.087 108.044 359.274 108.278 C 359.461 108.512 359.757 108.654 360.056 108.654 " />
</g>

<g opacity="1.000000" fill="#2ca02c" stroke-width="0.000000" id="id0000000373" >
<path id="id0000000409" d="M 383.304 73.4335 C 383.603 73.4335 383.9 73.2909 384.086 73.057 C 384.273 72.8231 384.346 72.5027 384.279 72.211 C 384.213 71.9193 384.008 71.6624 383.738 71.5326 C 383.469 71.4027 383.14 71.4027 382.87 71.5326 C 382.601 71.6624 382.396 71.9193 382.329 72.211 C 382.263 72.5027 382.336 72.8231 382.522 73.057 C 382.709 73.2909 383.005 73.4335 383.304 73.4335 " />
</g>

<g opacity="1.000000" fill="#2ca02c" stroke-width="0.000000" id="id0000000375" >
<path id="id0000000410" d="M 371.597 116.445 C 371.896 116.445 372.193 116.303 372.379 116.069 C 372.566 115.835 372.639 115.515 372.572 115.223 C 372.506 114.931 372.301 114.674 372.031 114.544 C 371.762 114.415 371.433 114.415 371.163 114.544 C 370.894 114.674 370.689 114.931 370.622 115.223 C 370.556 115.515 370.629 115.835 370.815 116.069 C 371.002 116.303 371.298 116.445 371.597 116.445 " />
</g>

<g opacity="1.000000" fill="#2ca02c" stroke-width="0.000000" id="id0000000377" >
<path id="id0000000411" d="M 459.975 40.5338 C 460.274 40.5338 460.57 40.3912 460.756 40.1572 C 460.943 39.9233 461.016 39.6029 460.949 39.3112 C 460.883 39.0195 460.678 38.7626 460.408 38.6328 C 460.139 38.503 459.81 38.503 459.541 38.6328 C 459.271 38.7626 459.066 39.0195 459 39.3112 C 458.933 39.6029 459.006 39.9233 459.193 40.1572 C 459.379 40.3912 459.675 40.5338 459.975 40.5338 " />
</g>

<g opacity="1.000000" fill="#2ca02c" stroke-width="0.000000" id="id0000000379" >
<path id="id0000000412" d="M 440.247 24.0875 C 440.546 24.0875 440.842 23.9449 441.029 23.711 C 441.215 23.4771 441.288 23.1567 441.222 22.865 C 441.155 22.5733 440.95 22.3163 440.681 22.1865 C 440.411 22.0567 440.082 22.0567 439.813 22.1865 C 439.543 22.3163 439.338 22.5733 439.272 22.865 C 439.205 23.1567 439.278 23.4771 439.465 23.711 C 439.651 23.9449 439.948 24.0875 440.247 24.0875 " />
</g>

<g opacity="1.000000" fill="#2ca02c" stroke-width="0.000000" id="id0000000381" >
<path id="id0000000413" d="M 431.43 77.0107 C 431.729 77.0107 432.025 76.8681 432.212 76.6341 C 432.398 76.4002 432.471 76.0798 432.405 75.7881 C 432.338 75.4964 432.133 75.2395 431.864 75.1097 C 431.594 74.9799 431.266 74.9799 430.996 75.1097 C 430.726 75.2395 430.521 75.4964 430.455 75.7881 C 430.388 76.0798 430.461 76.4002 430.648 76.6341 C 430.835 76.8681 431.131 77.0107 431.43 77.0107 " />
</g>

<g opacity="1.000000" fill="#2ca02c" stroke-width="0.000000" id="id0000000383" >
<path id="id0000000414" d="M 492.867 121.147 C 493.166 121.147 493.462 121.005 493.649 120.771 C 493.835 120.537 493.909 120.217 493.842 119.925 C 493.775 119.633 493.571 119.376 493.301 119.247 C 493.031 119.117 492.703 119.117 492.433 119.247 C 492.164 119.376 491.959 119.633 491.892 119.925 C 491.826 120.217 491.899 120.537 492.085 120.771 C 492.272 121.005 492.568 121.147 492.867 121.147 " />
</g>

<g opacity="1.000000" fill="#2ca02c" stroke-width="0.000000" id="id0000000385" >
<path id="id0000000415" d="M 467.587 76.7297 C 467.886 76.7297 468.182 76.5871 468.369 76.3532 C 468.556 76.1193 468.629 75.7989 468.562 75.5072 C 468.496 75.2155 468.291 74.9586 468.021 74.8287 C 467.751 74.6989 467.423 74.6989 467.153 74.8287 C 466.884 74.9586 466.679 75.2155 466.612 75.5072 C 466.546 75.7989 466.619 76.1193 466.805 76.3532 C 466.992 76.5871 467.288 76.7297 467.587 76.7297 " />
</g>

<g opacity="1.000000" fill="#2ca02c" stroke-width="0.000000" id="id0000000387" >
<path id="id0000000416" d="M 502.546 42.8496 C 502.845 42.8496 503.141 42.7071 503.328 42.4731 C 503.514 42.2392 503.587 41.9188 503.521 41.6271 C 503.454 41.3354 503.249 41.0785 502.98 40.9487 C 502.71 40.8189 502.381 40.8189 502.112 40.9487 C 501.842 41.0785 501.637 41.3354 501.571 41.6271 C 501.504 41.9188 501.577 42.2392 501.764 42.4731 C 501.951 42.7071 502.247 42.8496 502.546 42.8496 " />
</g>

<g opacity="1.000000" fill="#2ca02c" stroke-width="0.000000" id="id0000000389" >
<path id="id0000000417" d="M 534.94 103.907 C 535.239 103.907 535.535 103.764 535.722 103.53 C 535.908 103.296 535.981 102.976 535.915 102.684 C 535.848 102.393 535.643 102.136 535.374 102.006 C 535.104 101.876 534.776 101.876 534.506 102.006 C 534.237 102.136 534.032 102.393 533.965 102.684 C 533.898 102.976 533.972 103.296 534.158 103.53 C 534.345 103.764 534.641 103.907 534.94 103.907 " />
</g>

<g opacity="1.000000" fill="#2ca02c" stroke-width="0.000000" id="id0000000391" >
<path id="id0000000418" d="M 578.091 33.5179 C 578.39 33.5179 578.686 33.3753 578.873 33.1413 C 579.059 32.9074 579.132 32.587 579.066 32.2953 C 578.999 32.0036 578.794 31.7467 578.525 31.6169 C 578.255 31.4871 577.927 31.4871 577.657 31.6169 C 577.388 31.7467 577.183 32.0036 577.116 32.2953 C 577.049 32.587 577.123 32.9074 577.309 33.1413 C 577.496 33.3753 577.792 33.5179 578.091 33.5179 " />
</g>

<g opacity="1.000000" fill="#2ca02c" stroke-width="0.000000" id="id0000000393" >
<path id="id0000000419" d="M 609.013 16.1829 C 609.312 16.1829 609.608 16.0403 609.795 15.8064 C 609.981 15.5724 610.055 15.252 609.988 14.9603 C 609.921 14.6686 609.716 14.4117 609.447 14.2819 C 609.177 14.1521 608.849 14.1521 608.579 14.2819 C 608.31 14.4117 608.105 14.6686 608.038 14.9603 C 607.971 15.252 608.045 15.5724 608.231 15.8064 C 608.418 16.0403 608.714 16.1829 609.013 16.1829 " />
</g>

</g>

</g>

<polygon points="36,1 36,458 639,458 639,1 " stroke="black" stroke-width="1.000000" fill="none" id="id0000000420" pointer-events="none" class="rectangle" />
<polyline points="44.9323,458 44.9323,461 " fill="none" stroke-width="1.000000" stroke="black" id="id0000000421" class="line" />
<text id="id0000000422" transform="matrix(1 0 0 1 36 1)" x="8.932269" y="462.000000" dominant-baseline="hanging" text-anchor="middle" font-size="14.000000px" >
-14
</text>

<polyline points="126.16,458 126.16,461 " fill="none" stroke-width="1.000000" stroke="black" id="id0000000423" class="line" />
<text id="id0000000424" transform="matrix(1 0 0 1 36 1)" x="90.159622" y="462.000000" dominant-baseline="hanging" text-anchor="middle" font-size="14.000000px" >
-12
</text>

<polyline points="207.387,458 207.387,461 " fill="none" stroke-width="1.000000" stroke="black" id="id0000000425" class="line" />
<text id="id0000000426" transform="matrix(1 0 0 1 36 1)" x="171.386978" y="462.000000" dominant-baseline="hanging" text-anchor="middle" font-size="14.000000px" >
-10
</text>

<polyline points="288.614,458 288.614,461 " fill="none" stroke-width="1.000000" stroke="black" id="id0000000427" class="line" />
<text id="id0000000428" transform="matrix(1 0 0 1 36 1)" x="252.614334" y="462.000000" dominant-baseline="hanging" text-anchor="middle" font-size="14.000000px" >
-8
</text>

<polyline points="369.842,458 369.842,461 " fill="none" stroke-width="1.000000" stroke="black" id="id0000000429" class="line" />
<text id="id0000000430" transform="matrix(1 0 0 1 36 1)" x="333.841675" y="462.000000" dominant-baseline="hanging" text-anchor="middle" font-size="14.000000px" >
-6
</text>

<polyline points="451.069,458 451.069,461 " fill="none" stroke-width="1.000000" stroke="black" id="id0000000431" class="line" />
<text id="id0000000432" transform="matrix(1 0 0 1 36 1)" x="415.069000" y="462.000000" dominant-baseline="hanging" text-anchor="middle" font-size="14.000000px" >
-4
</text>

<polyline points="532.296,458 532.296,461 " fill="none" stroke-width="1.000000" stroke="black" id="id0000000433" class="line" />
<text id="id0000000434" transform="matrix(1 0 0 1 36 1)" x="496.296356" y="462.000000" dominant-baseline="hanging" text-anchor="middle" font-size="14.000000px" >
-2
</text>

<polyline points="613.524,458 613.524,461 " fill="none" stroke-width="1.000000" stroke="black" id="id0000000435" class="line" />
<text id="id0000000436" transform="matrix(1 0 0 1 36 1)" x="577.523743" y="462.000000" dominant-baseline="hanging" text-anchor="middle" font-size="14.000000px" >
0
</text>

<polyline points="33,453.677 36,453.677 " fill="none" stroke-width="1.000000" stroke="black" id="id0000000437" class="line" />
<text id="id0000000438" transform="matrix(1 0 0 1 36 1)" x="-5.000000" y="452.677368" dominant-baseline="middle" text-anchor="end" font-size="14.000000px" >
-2
</text>

<polyline points="33,377.228 36,377.228 " fill="none" stroke-width="1.000000" stroke="black" id="id0000000439" class="line" />
<text id="id0000000440" transform="matrix(1 0 0 1 36 1)" x="-5.000000" y="376.227600" dominant-baseline="middle" text-anchor="end" font-size="14.000000px" >
0
</text>

<polyline points="33,300.778 36,300.778 " fill="none" stroke-width="1.000000" stroke="black" id="id0000000441" class="line" />
<text id="id0000000442" transform="matrix(1 0 0 1 36 1)" x="-5.000000" y="299.777863" dominant-baseline="middle" text-anchor="end" font-size="14.000000px" >
2
</text>

<polyline points="33,224.328 36,224.328 " fill="none" stroke-width="1.000000" stroke="black" id="id0000000443" class="line" />
<text id="id0000000444" transform="matrix(1 0 0 1 36 1)" x="-5.000000" y="223.328110" dominant-baseline="middle" text-anchor="end" font-size="14.000000px" >
4
</text>

<polyline points="33,147.878 36,147.878 " fill="none" stroke-width="1.000000" stroke="black" id="id0000000445" class="line" />
<text id="id0000000446" transform="matrix(1 0 0 1 36 1)" x="-5.000000" y="146.878326" dominant-baseline="middle" text-anchor="end" font-size="14.000000px" >
6
</text>

<polyline points="33,71.4286 36,71.4286 " fill="none" stroke-width="1.000000" stroke="black" id="id0000000447" class="line" />
<text id="id0000000448" transform="matrix(1 0 0 1 36 1)" x="-5.000000" y="70.428589" dominant-baseline="middle" text-anchor="end" font-size="14.000000px" >
8
</text>


</g>

</svg>
