<svg viewBox="0 0 640 480" height="100%" width="100%" xmlns:xlink="http://www.w3.org/1999/xlink" xmlns="http://www.w3.org/2000/svg" id="id0000000449" >
<g id="id0000000450" >
<clipPath id="id0000000450clipper" >
<polygon points="36,1 36,458 639,458 639,1 " id="id0000000453" class="rectangle" />
</clipPath>

<g clip-path="url(#id0000000450clipper)" id="id0000000452" >
<g id="id0000000454" >
<g opacity="0.500000" fill="red" stroke-width="0.000000" id="id0000000455" >
<path id="id0000000555" d="M 260.677 381.792 C 261.235 381.792 261.794 381.674 262.304 381.447 C 262.814 381.219 263.276 380.884 263.649 380.469 C 264.023 380.054 264.309 379.56 264.481 379.028 C 264.654 378.497 264.713 377.93 264.655 377.374 C 264.597 376.819 264.42 376.276 264.141 375.792 C 263.862 375.309 263.48 374.885 263.028 374.556 C 262.576 374.228 262.055 373.996 261.508 373.88 C 260.962 373.764 260.392 373.764 259.845 373.88 C 259.299 373.996 258.778 374.228 258.326 374.556 C 257.874 374.885 257.492 375.309 257.213 375.792 C 256.934 376.276 256.757 376.819 256.699 377.374 C 256.64 377.93 256.7 378.497 256.873 379.028 C 257.045 379.56 257.331 380.054 257.704 380.469 C 258.078 380.884 258.54 381.219 259.05 381.447 " />
</g>

<g opacity="0.500000" fill="red" stroke-width="0.000000" id="id0000000457" >
<path id="id0000000556" d="M 442.35 400.382 C 442.909 400.382 443.467 400.263 443.977 400.036 C 444.487 399.809 444.949 399.473 445.323 399.058 C 445.696 398.643 445.982 398.149 446.154 397.618 C 446.327 397.087 446.387 396.519 446.328 395.964 C 446.27 395.408 446.093 394.865 445.814 394.382 C 445.535 393.898 445.153 393.474 444.701 393.146 C 444.249 392.817 443.728 392.585 443.182 392.469 C 442.635 392.353 442.065 392.353 441.518 392.469 C 440.972 392.585 440.451 392.817 439.999 393.146 C 439.547 393.474 439.165 393.898 438.886 394.382 C 438.607 394.865 438.43 395.408 438.372 395.964 C 438.314 396.519 438.373 397.087 438.546 397.618 C 438.718 398.149 439.004 398.643 439.377 399.058 C 439.751 399.473 440.213 399.809 440.723 400.036 " />
</g>

<g opacity="0.500000" fill="red" stroke-width="0.000000" id="id0000000459" >
<path id="id0000000557" d="M 198.755 356.323 C 199.313 356.323 199.872 356.204 200.382 355.977 C 200.892 355.75 201.354 355.415 201.727 355 C 202.101 354.585 202.387 354.09 202.559 353.559 C 202.732 353.028 202.791 352.46 202.733 351.905 C 202.675 351.35 202.498 350.807 202.219 350.323 C 201.94 349.839 201.558 349.415 201.106 349.087 C 200.654 348.759 200.133 348.527 199.587 348.41 C 199.04 348.294 198.47 348.294 197.923 348.41 C 197.377 348.527 196.856 348.759 196.404 349.087 C 195.952 349.415 195.57 349.839 195.291 350.323 C 195.012 350.807 194.835 351.35 194.777 351.905 C 194.718 352.46 194.778 353.028 194.951 353.559 C 195.123 354.09 195.409 354.585 195.782 355 C 196.156 355.415 196.618 355.75 197.128 355.977 " />
</g>

<g opacity="0.500000" fill="red" stroke-width="0.000000" id="id0000000461" >
<path id="id0000000558" d="M 115.422 411.51 C 115.981 411.51 116.539 411.391 117.049 411.164 C 117.559 410.937 118.021 410.601 118.395 410.186 C 118.768 409.771 119.054 409.277 119.226 408.746 C 119.399 408.215 119.458 407.647 119.4 407.092 C 119.342 406.536 119.165 405.993 118.886 405.51 C 118.607 405.026 118.225 404.602 117.773 404.274 C 117.321 403.945 116.8 403.713 116.254 403.597 C 115.707 403.481 115.137 403.481 114.59 403.597 C 114.044 403.713 113.523 403.945 113.071 404.274 C 112.619 404.602 112.237 405.026 111.958 405.51 C 111.679 405.993 111.502 406.536 111.444 407.092 C 111.386 407.647 111.445 408.215 111.618 408.746 C 111.79 409.277 112.076 409.771 112.449 410.186 C 112.823 410.601 113.285 410.937 113.795 411.164 " />
</g>

<g opacity="0.500000" fill="red" stroke-width="0.000000" id="id0000000463" >
<path id="id0000000559" d="M 99.268 385.634 C 99.8265 385.634 100.385 385.515 100.895 385.288 C 101.405 385.061 101.867 384.726 102.241 384.311 C 102.614 383.896 102.9 383.401 103.072 382.87 C 103.245 382.339 103.304 381.771 103.246 381.216 C 103.188 380.661 103.011 380.118 102.732 379.634 C 102.453 379.15 102.071 378.726 101.619 378.398 C 101.167 378.07 100.646 377.838 100.1 377.722 C 99.5534 377.605 98.9827 377.605 98.4364 377.722 C 97.8901 377.838 97.3687 378.07 96.9169 378.398 C 96.465 378.726 96.0832 379.15 95.8039 379.634 C 95.5247 380.118 95.3483 380.661 95.2899 381.216 C 95.2315 381.771 95.2912 382.339 95.4638 382.87 C 95.6364 383.401 95.9217 383.896 96.2954 384.311 C 96.6691 384.726 97.1308 385.061 97.6411 385.288 " />
</g>

<g opacity="0.500000" fill="red" stroke-width="0.000000" id="id0000000465" >
<path id="id0000000560" d="M 123.753 419.001 C 124.311 419.001 124.869 418.882 125.38 418.655 C 125.89 418.428 126.352 418.093 126.725 417.677 C 127.099 417.262 127.384 416.768 127.557 416.237 C 127.73 415.706 127.789 415.138 127.731 414.583 C 127.672 414.027 127.496 413.485 127.217 413.001 C 126.938 412.517 126.556 412.093 126.104 411.765 C 125.652 411.437 125.131 411.204 124.584 411.088 C 124.038 410.972 123.467 410.972 122.921 411.088 C 122.375 411.204 121.853 411.437 121.402 411.765 C 120.95 412.093 120.568 412.517 120.289 413.001 C 120.009 413.485 119.833 414.027 119.775 414.583 C 119.716 415.138 119.776 415.706 119.948 416.237 C 120.121 416.768 120.406 417.262 120.78 417.677 C 121.154 418.093 121.616 418.428 122.126 418.655 " />
</g>

<g opacity="0.500000" fill="red" stroke-width="0.000000" id="id0000000467" >
<path id="id0000000561" d="M 575.732 426.086 C 576.291 426.086 576.849 425.967 577.359 425.74 C 577.869 425.513 578.331 425.177 578.705 424.762 C 579.078 424.347 579.364 423.853 579.536 423.322 C 579.709 422.791 579.768 422.223 579.71 421.668 C 579.652 421.112 579.475 420.57 579.196 420.086 C 578.917 419.602 578.535 419.178 578.083 418.85 C 577.631 418.522 577.11 418.289 576.564 418.173 C 576.017 418.057 575.447 418.057 574.9 418.173 C 574.354 418.289 573.833 418.522 573.381 418.85 C 572.929 419.178 572.547 419.602 572.268 420.086 C 571.989 420.57 571.812 421.112 571.754 421.668 C 571.696 422.223 571.755 422.791 571.928 423.322 C 572.1 423.853 572.386 424.347 572.759 424.762 C 573.133 425.177 573.595 425.513 574.105 425.74 " />
</g>

<g opacity="0.500000" fill="red" stroke-width="0.000000" id="id0000000469" >
<path id="id0000000562" d="M 161.666 354.522 C 162.225 354.522 162.783 354.403 163.293 354.176 C 163.804 353.949 164.265 353.614 164.639 353.199 C 165.013 352.783 165.298 352.289 165.471 351.758 C 165.643 351.227 165.703 350.659 165.645 350.104 C 165.586 349.548 165.41 349.006 165.131 348.522 C 164.851 348.038 164.469 347.614 164.018 347.286 C 163.566 346.958 163.044 346.726 162.498 346.609 C 161.952 346.493 161.381 346.493 160.835 346.609 C 160.288 346.726 159.767 346.958 159.315 347.286 C 158.863 347.614 158.482 348.038 158.202 348.522 C 157.923 349.006 157.747 349.548 157.688 350.104 C 157.63 350.659 157.69 351.227 157.862 351.758 C 158.035 352.289 158.32 352.783 158.694 353.199 C 159.068 353.614 159.529 353.949 160.039 354.176 " />
</g>

<g opacity="0.500000" fill="red" stroke-width="0.000000" id="id0000000471" >
<path id="id0000000563" d="M 129.224 404.178 C 129.782 404.178 130.34 404.06 130.851 403.832 C 131.361 403.605 131.822 403.27 132.196 402.855 C 132.57 402.44 132.855 401.945 133.028 401.414 C 133.2 400.883 133.26 400.316 133.202 399.76 C 133.143 399.205 132.967 398.662 132.688 398.178 C 132.408 397.695 132.027 397.27 131.575 396.942 C 131.123 396.614 130.602 396.382 130.055 396.266 C 129.509 396.15 128.938 396.15 128.392 396.266 C 127.846 396.382 127.324 396.614 126.872 396.942 C 126.421 397.27 126.039 397.695 125.759 398.178 C 125.48 398.662 125.304 399.205 125.246 399.76 C 125.187 400.316 125.247 400.883 125.419 401.414 C 125.592 401.945 125.877 402.44 126.251 402.855 C 126.625 403.27 127.086 403.605 127.597 403.832 " />
</g>

<g opacity="0.500000" fill="red" stroke-width="0.000000" id="id0000000473" >
<path id="id0000000564" d="M 158.578 354.445 C 159.137 354.445 159.695 354.326 160.205 354.099 C 160.715 353.872 161.177 353.537 161.551 353.122 C 161.925 352.706 162.21 352.212 162.383 351.681 C 162.555 351.15 162.615 350.582 162.556 350.027 C 162.498 349.471 162.322 348.929 162.042 348.445 C 161.763 347.961 161.381 347.537 160.929 347.209 C 160.478 346.881 159.956 346.649 159.41 346.532 C 158.864 346.416 158.293 346.416 157.747 346.532 C 157.2 346.649 156.679 346.881 156.227 347.209 C 155.775 347.537 155.393 347.961 155.114 348.445 C 154.835 348.929 154.659 349.471 154.6 350.027 C 154.542 350.582 154.601 351.15 154.774 351.681 C 154.947 352.212 155.232 352.706 155.606 353.122 C 155.979 353.537 156.441 353.872 156.951 354.099 " />
</g>

<g opacity="0.500000" fill="red" stroke-width="0.000000" id="id0000000475" >
<path id="id0000000565" d="M 290.146 418.626 C 290.704 418.626 291.263 418.507 291.773 418.28 C 292.283 418.053 292.745 417.718 293.118 417.303 C 293.492 416.887 293.778 416.393 293.95 415.862 C 294.123 415.331 294.182 414.763 294.124 414.208 C 294.066 413.652 293.889 413.11 293.61 412.626 C 293.331 412.142 292.949 411.718 292.497 411.39 C 292.045 411.062 291.524 410.83 290.978 410.713 C 290.431 410.597 289.861 410.597 289.314 410.713 C 288.768 410.83 288.247 411.062 287.795 411.39 C 287.343 411.718 286.961 412.142 286.682 412.626 C 286.403 413.11 286.226 413.652 286.168 414.208 C 286.109 414.763 286.169 415.331 286.342 415.862 C 286.514 416.393 286.8 416.887 287.173 417.303 C 287.547 417.718 288.009 418.053 288.519 418.28 " />
</g>

<g opacity="0.500000" fill="red" stroke-width="0.000000" id="id0000000477" >
<path id="id0000000566" d="M 171.718 431.914 C 172.277 431.914 172.835 431.795 173.345 431.568 C 173.856 431.341 174.317 431.005 174.691 430.59 C 175.065 430.175 175.35 429.681 175.523 429.15 C 175.695 428.619 175.755 428.051 175.697 427.496 C 175.638 426.94 175.462 426.398 175.183 425.914 C 174.903 425.43 174.521 425.006 174.07 424.678 C 173.618 424.349 173.096 424.117 172.55 424.001 C 172.004 423.885 171.433 423.885 170.887 424.001 C 170.34 424.117 169.819 424.349 169.367 424.678 C 168.915 425.006 168.534 425.43 168.254 425.914 C 167.975 426.398 167.799 426.94 167.74 427.496 C 167.682 428.051 167.742 428.619 167.914 429.15 C 168.087 429.681 168.372 430.175 168.746 430.59 C 169.12 431.005 169.581 431.341 170.091 431.568 " />
</g>

<g opacity="0.500000" fill="red" stroke-width="0.000000" id="id0000000479" >
<path id="id0000000567" d="M 125.235 389.195 C 125.793 389.195 126.351 389.076 126.861 388.849 C 127.372 388.622 127.833 388.287 128.207 387.872 C 128.581 387.457 128.866 386.962 129.039 386.431 C 129.211 385.9 129.271 385.332 129.213 384.777 C 129.154 384.221 128.978 383.679 128.699 383.195 C 128.419 382.711 128.037 382.287 127.586 381.959 C 127.134 381.631 126.612 381.399 126.066 381.282 C 125.52 381.166 124.949 381.166 124.403 381.282 C 123.857 381.399 123.335 381.631 122.883 381.959 C 122.432 382.287 122.05 382.711 121.77 383.195 C 121.491 383.679 121.315 384.221 121.256 384.777 C 121.198 385.332 121.258 385.9 121.43 386.431 C 121.603 386.962 121.888 387.457 122.262 387.872 C 122.636 388.287 123.097 388.622 123.608 388.849 " />
</g>

<g opacity="0.500000" fill="red" stroke-width="0.000000" id="id0000000481" >
<path id="id0000000568" d="M 250.499 349.741 C 251.057 349.741 251.616 349.622 252.126 349.395 C 252.636 349.168 253.098 348.832 253.472 348.417 C 253.845 348.002 254.131 347.508 254.303 346.977 C 254.476 346.446 254.535 345.878 254.477 345.323 C 254.419 344.767 254.242 344.225 253.963 343.741 C 253.684 343.257 253.302 342.833 252.85 342.505 C 252.398 342.177 251.877 341.944 251.331 341.828 C 250.784 341.712 250.214 341.712 249.667 341.828 C 249.121 341.944 248.6 342.177 248.148 342.505 C 247.696 342.833 247.314 343.257 247.035 343.741 C 246.756 344.225 246.579 344.767 246.521 345.323 C 246.462 345.878 246.522 346.446 246.695 346.977 C 246.867 347.508 247.153 348.002 247.526 348.417 C 247.9 348.832 248.362 349.168 248.872 349.395 " />
</g>

<g opacity="0.500000" fill="red" stroke-width="0.000000" id="id0000000483" >
<path id="id0000000569" d="M 139.845 387.272 C 140.403 387.272 140.962 387.153 141.472 386.926 C 141.982 386.699 142.444 386.363 142.817 385.948 C 143.191 385.533 143.477 385.039 143.649 384.508 C 143.822 383.977 143.881 383.409 143.823 382.854 C 143.765 382.298 143.588 381.755 143.309 381.272 C 143.03 380.788 142.648 380.364 142.196 380.036 C 141.744 379.707 141.223 379.475 140.677 379.359 C 140.13 379.243 139.56 379.243 139.013 379.359 C 138.467 379.475 137.946 379.707 137.494 380.036 C 137.042 380.364 136.66 380.788 136.381 381.272 C 136.102 381.755 135.925 382.298 135.867 382.854 C 135.808 383.409 135.868 383.977 136.041 384.508 C 136.213 385.039 136.499 385.533 136.872 385.948 C 137.246 386.363 137.708 386.699 138.218 386.926 " />
</g>

<g opacity="0.500000" fill="red" stroke-width="0.000000" id="id0000000485" >
<path id="id0000000570" d="M 179.153 432.336 C 179.711 432.336 180.27 432.217 180.78 431.99 C 181.29 431.763 181.752 431.428 182.125 431.012 C 182.499 430.597 182.784 430.103 182.957 429.572 C 183.13 429.041 183.189 428.473 183.131 427.918 C 183.072 427.362 182.896 426.82 182.617 426.336 C 182.338 425.852 181.956 425.428 181.504 425.1 C 181.052 424.772 180.531 424.539 179.984 424.423 C 179.438 424.307 178.867 424.307 178.321 424.423 C 177.775 424.539 177.253 424.772 176.802 425.1 C 176.35 425.428 175.968 425.852 175.689 426.336 C 175.409 426.82 175.233 427.362 175.175 427.918 C 175.116 428.473 175.176 429.041 175.349 429.572 C 175.521 430.103 175.806 430.597 176.18 431.012 C 176.554 431.428 177.016 431.763 177.526 431.99 " />
</g>

<g opacity="0.500000" fill="red" stroke-width="0.000000" id="id0000000487" >
<path id="id0000000571" d="M 537.5 403.238 C 538.059 403.238 538.617 403.119 539.127 402.892 C 539.638 402.665 540.099 402.33 540.473 401.914 C 540.847 401.499 541.132 401.005 541.305 400.474 C 541.477 399.943 541.537 399.375 541.479 398.82 C 541.42 398.264 541.244 397.722 540.965 397.238 C 540.685 396.754 540.303 396.33 539.852 396.002 C 539.4 395.674 538.878 395.441 538.332 395.325 C 537.786 395.209 537.215 395.209 536.669 395.325 C 536.122 395.441 535.601 395.674 535.149 396.002 C 534.697 396.33 534.316 396.754 534.036 397.238 C 533.757 397.722 533.581 398.264 533.522 398.82 C 533.464 399.375 533.524 399.943 533.696 400.474 C 533.869 401.005 534.154 401.499 534.528 401.914 C 534.902 402.33 535.363 402.665 535.873 402.892 " />
</g>

<g opacity="0.500000" fill="red" stroke-width="0.000000" id="id0000000489" >
<path id="id0000000572" d="M 124.877 427.68 C 125.435 427.68 125.994 427.562 126.504 427.335 C 127.014 427.107 127.476 426.772 127.85 426.357 C 128.223 425.942 128.509 425.448 128.681 424.916 C 128.854 424.385 128.913 423.818 128.855 423.262 C 128.797 422.707 128.62 422.164 128.341 421.68 C 128.062 421.197 127.68 420.773 127.228 420.444 C 126.776 420.116 126.255 419.884 125.709 419.768 C 125.162 419.652 124.592 419.652 124.045 419.768 C 123.499 419.884 122.978 420.116 122.526 420.444 C 122.074 420.773 121.692 421.197 121.413 421.68 C 121.134 422.164 120.957 422.707 120.899 423.262 C 120.84 423.818 120.9 424.385 121.073 424.916 C 121.245 425.448 121.531 425.942 121.904 426.357 C 122.278 426.772 122.74 427.107 123.25 427.335 " />
</g>

<g opacity="0.500000" fill="red" stroke-width="0.000000" id="id0000000491" >
<path id="id0000000573" d="M 225.017 421.378 C 225.576 421.378 226.134 421.26 226.644 421.033 C 227.154 420.805 227.616 420.47 227.99 420.055 C 228.363 419.64 228.649 419.146 228.821 418.614 C 228.994 418.083 229.053 417.516 228.995 416.96 C 228.937 416.405 228.76 415.862 228.481 415.378 C 228.202 414.895 227.82 414.471 227.368 414.142 C 226.916 413.814 226.395 413.582 225.849 413.466 C 225.302 413.35 224.732 413.35 224.185 413.466 C 223.639 413.582 223.118 413.814 222.666 414.142 C 222.214 414.471 221.832 414.895 221.553 415.378 C 221.274 415.862 221.097 416.405 221.039 416.96 C 220.981 417.516 221.04 418.083 221.213 418.614 C 221.385 419.146 221.671 419.64 222.044 420.055 C 222.418 420.47 222.88 420.805 223.39 421.033 " />
</g>

<g opacity="0.500000" fill="red" stroke-width="0.000000" id="id0000000493" >
<path id="id0000000574" d="M 199.286 261.792 C 199.845 261.792 200.403 261.673 200.913 261.446 C 201.423 261.219 201.885 260.883 202.259 260.468 C 202.633 260.053 202.918 259.559 203.091 259.028 C 203.263 258.497 203.323 257.929 203.264 257.374 C 203.206 256.818 203.03 256.275 202.75 255.792 C 202.471 255.308 202.089 254.884 201.637 254.556 C 201.186 254.227 200.664 253.995 200.118 253.879 C 199.572 253.763 199.001 253.763 198.455 253.879 C 197.908 253.995 197.387 254.227 196.935 254.556 C 196.483 254.884 196.101 255.308 195.822 255.792 C 195.543 256.275 195.367 256.818 195.308 257.374 C 195.25 257.929 195.309 258.497 195.482 259.028 C 195.655 259.559 195.94 260.053 196.314 260.468 C 196.687 260.883 197.149 261.219 197.659 261.446 " />
</g>

<g opacity="0.500000" fill="red" stroke-width="0.000000" id="id0000000495" >
<path id="id0000000575" d="M 106.916 435.639 C 107.474 435.639 108.032 435.52 108.542 435.293 C 109.053 435.066 109.514 434.73 109.888 434.315 C 110.262 433.9 110.547 433.406 110.72 432.875 C 110.892 432.343 110.952 431.776 110.894 431.22 C 110.835 430.665 110.659 430.122 110.38 429.639 C 110.1 429.155 109.719 428.731 109.267 428.403 C 108.815 428.074 108.293 427.842 107.747 427.726 C 107.201 427.61 106.63 427.61 106.084 427.726 C 105.538 427.842 105.016 428.074 104.564 428.403 C 104.113 428.731 103.731 429.155 103.451 429.639 C 103.172 430.122 102.996 430.665 102.937 431.22 C 102.879 431.776 102.939 432.343 103.111 432.875 C 103.284 433.406 103.569 433.9 103.943 434.315 C 104.317 434.73 104.778 435.066 105.289 435.293 " />
</g>

<g opacity="0.500000" fill="red" stroke-width="0.000000" id="id0000000497" >
<path id="id0000000576" d="M 115.081 434.74 C 115.639 434.74 116.197 434.622 116.708 434.395 C 117.218 434.167 117.68 433.832 118.053 433.417 C 118.427 433.002 118.712 432.508 118.885 431.977 C 119.057 431.445 119.117 430.878 119.059 430.322 C 119 429.767 118.824 429.224 118.545 428.74 C 118.266 428.257 117.884 427.833 117.432 427.504 C 116.98 427.176 116.459 426.944 115.912 426.828 C 115.366 426.712 114.795 426.712 114.249 426.828 C 113.703 426.944 113.181 427.176 112.73 427.504 C 112.278 427.833 111.896 428.257 111.617 428.74 C 111.337 429.224 111.161 429.767 111.103 430.322 C 111.044 430.878 111.104 431.445 111.276 431.977 C 111.449 432.508 111.734 433.002 112.108 433.417 C 112.482 433.832 112.943 434.167 113.454 434.395 " />
</g>

<g opacity="0.500000" fill="red" stroke-width="0.000000" id="id0000000499" >
<path id="id0000000577" d="M 140.099 443.572 C 140.657 443.572 141.215 443.453 141.726 443.226 C 142.236 442.999 142.698 442.663 143.071 442.248 C 143.445 441.833 143.73 441.339 143.903 440.808 C 144.076 440.276 144.135 439.709 144.077 439.153 C 144.018 438.598 143.842 438.055 143.563 437.572 C 143.284 437.088 142.902 436.664 142.45 436.336 C 141.998 436.007 141.477 435.775 140.93 435.659 C 140.384 435.543 139.813 435.543 139.267 435.659 C 138.721 435.775 138.199 436.007 137.748 436.336 C 137.296 436.664 136.914 437.088 136.635 437.572 C 136.355 438.055 136.179 438.598 136.121 439.153 C 136.062 439.709 136.122 440.276 136.295 440.808 C 136.467 441.339 136.752 441.833 137.126 442.248 C 137.5 442.663 137.962 442.999 138.472 443.226 " />
</g>

<g opacity="0.500000" fill="red" stroke-width="0.000000" id="id0000000501" >
<path id="id0000000578" d="M 445.157 343.979 C 445.716 343.979 446.274 343.86 446.784 343.633 C 447.294 343.406 447.756 343.07 448.13 342.655 C 448.504 342.24 448.789 341.746 448.961 341.215 C 449.134 340.684 449.194 340.116 449.135 339.561 C 449.077 339.005 448.901 338.463 448.621 337.979 C 448.342 337.495 447.96 337.071 447.508 336.743 C 447.057 336.415 446.535 336.182 445.989 336.066 C 445.443 335.95 444.872 335.95 444.326 336.066 C 443.779 336.182 443.258 336.415 442.806 336.743 C 442.354 337.071 441.972 337.495 441.693 337.979 C 441.414 338.463 441.238 339.005 441.179 339.561 C 441.121 340.116 441.18 340.684 441.353 341.215 C 441.526 341.746 441.811 342.24 442.185 342.655 C 442.558 343.07 443.02 343.406 443.53 343.633 " />
</g>

<g opacity="0.500000" fill="red" stroke-width="0.000000" id="id0000000503" >
<path id="id0000000579" d="M 140.232 270.362 C 140.79 270.362 141.349 270.243 141.859 270.016 C 142.369 269.789 142.831 269.453 143.204 269.038 C 143.578 268.623 143.864 268.129 144.036 267.598 C 144.209 267.067 144.268 266.499 144.21 265.944 C 144.152 265.388 143.975 264.846 143.696 264.362 C 143.417 263.878 143.035 263.454 142.583 263.126 C 142.131 262.798 141.61 262.565 141.064 262.449 C 140.517 262.333 139.947 262.333 139.4 262.449 C 138.854 262.565 138.333 262.798 137.881 263.126 C 137.429 263.454 137.047 263.878 136.768 264.362 C 136.489 264.846 136.312 265.388 136.254 265.944 C 136.195 266.499 136.255 267.067 136.428 267.598 C 136.6 268.129 136.886 268.623 137.259 269.038 C 137.633 269.453 138.095 269.789 138.605 270.016 " />
</g>

<g opacity="0.500000" fill="red" stroke-width="0.000000" id="id0000000505" >
<path id="id0000000580" d="M 240.014 345.548 C 240.572 345.548 241.13 345.43 241.641 345.202 C 242.151 344.975 242.613 344.64 242.986 344.225 C 243.36 343.81 243.645 343.315 243.818 342.784 C 243.99 342.253 244.05 341.686 243.992 341.13 C 243.933 340.575 243.757 340.032 243.478 339.548 C 243.199 339.065 242.817 338.64 242.365 338.312 C 241.913 337.984 241.392 337.752 240.845 337.636 C 240.299 337.52 239.728 337.52 239.182 337.636 C 238.636 337.752 238.114 337.984 237.663 338.312 C 237.211 338.64 236.829 339.065 236.55 339.548 C 236.27 340.032 236.094 340.575 236.036 341.13 C 235.977 341.686 236.037 342.253 236.209 342.784 C 236.382 343.315 236.667 343.81 237.041 344.225 C 237.415 344.64 237.876 344.975 238.387 345.202 " />
</g>

<g opacity="0.500000" fill="red" stroke-width="0.000000" id="id0000000507" >
<path id="id0000000581" d="M 152.25 405.88 C 152.808 405.88 153.366 405.761 153.877 405.534 C 154.387 405.307 154.849 404.971 155.222 404.556 C 155.596 404.141 155.881 403.647 156.054 403.116 C 156.227 402.584 156.286 402.017 156.228 401.461 C 156.169 400.906 155.993 400.363 155.714 399.88 C 155.435 399.396 155.053 398.972 154.601 398.643 C 154.149 398.315 153.628 398.083 153.081 397.967 C 152.535 397.851 151.964 397.851 151.418 397.967 C 150.872 398.083 150.35 398.315 149.899 398.643 C 149.447 398.972 149.065 399.396 148.786 399.88 C 148.506 400.363 148.33 400.906 148.272 401.461 C 148.213 402.017 148.273 402.584 148.445 403.116 C 148.618 403.647 148.903 404.141 149.277 404.556 C 149.651 404.971 150.113 405.307 150.623 405.534 " />
</g>

<g opacity="0.500000" fill="red" stroke-width="0.000000" id="id0000000509" >
<path id="id0000000582" d="M 124.972 428.334 C 125.53 428.334 126.089 428.215 126.599 427.988 C 127.109 427.761 127.571 427.425 127.944 427.01 C 128.318 426.595 128.603 426.101 128.776 425.57 C 128.949 425.039 129.008 424.471 128.95 423.916 C 128.892 423.36 128.715 422.818 128.436 422.334 C 128.157 421.85 127.775 421.426 127.323 421.098 C 126.871 420.77 126.35 420.537 125.803 420.421 C 125.257 420.305 124.686 420.305 124.14 420.421 C 123.594 420.537 123.073 420.77 122.621 421.098 C 122.169 421.426 121.787 421.85 121.508 422.334 C 121.228 422.818 121.052 423.36 120.994 423.916 C 120.935 424.471 120.995 425.039 121.168 425.57 C 121.34 426.101 121.626 426.595 121.999 427.01 C 122.373 427.425 122.835 427.761 123.345 427.988 " />
</g>

<g opacity="0.500000" fill="red" stroke-width="0.000000" id="id0000000511" >
<path id="id0000000583" d="M 164.512 425.266 C 165.071 425.266 165.629 425.147 166.139 424.92 C 166.649 424.693 167.111 424.358 167.485 423.943 C 167.858 423.527 168.144 423.033 168.316 422.502 C 168.489 421.971 168.549 421.403 168.49 420.848 C 168.432 420.292 168.255 419.75 167.976 419.266 C 167.697 418.782 167.315 418.358 166.863 418.03 C 166.411 417.702 165.89 417.47 165.344 417.353 C 164.797 417.237 164.227 417.237 163.68 417.353 C 163.134 417.47 162.613 417.702 162.161 418.03 C 161.709 418.358 161.327 418.782 161.048 419.266 C 160.769 419.75 160.592 420.292 160.534 420.848 C 160.476 421.403 160.535 421.971 160.708 422.502 C 160.881 423.033 161.166 423.527 161.54 423.943 C 161.913 424.358 162.375 424.693 162.885 424.92 " />
</g>

<g opacity="0.500000" fill="red" stroke-width="0.000000" id="id0000000513" >
<path id="id0000000584" d="M 150.839 333.18 C 151.397 333.18 151.955 333.061 152.465 332.834 C 152.976 332.607 153.437 332.272 153.811 331.856 C 154.185 331.441 154.47 330.947 154.643 330.416 C 154.815 329.885 154.875 329.317 154.817 328.762 C 154.758 328.206 154.582 327.664 154.303 327.18 C 154.023 326.696 153.642 326.272 153.19 325.944 C 152.738 325.616 152.216 325.383 151.67 325.267 C 151.124 325.151 150.553 325.151 150.007 325.267 C 149.461 325.383 148.939 325.616 148.487 325.944 C 148.036 326.272 147.654 326.696 147.374 327.18 C 147.095 327.664 146.919 328.206 146.86 328.762 C 146.802 329.317 146.862 329.885 147.034 330.416 C 147.207 330.947 147.492 331.441 147.866 331.856 C 148.24 332.272 148.701 332.607 149.212 332.834 " />
</g>

<g opacity="0.500000" fill="red" stroke-width="0.000000" id="id0000000515" >
<path id="id0000000585" d="M 106.293 420.587 C 106.852 420.587 107.41 420.468 107.92 420.241 C 108.431 420.014 108.892 419.678 109.266 419.263 C 109.64 418.848 109.925 418.354 110.098 417.823 C 110.27 417.292 110.33 416.724 110.272 416.169 C 110.213 415.613 110.037 415.07 109.758 414.587 C 109.478 414.103 109.096 413.679 108.645 413.351 C 108.193 413.022 107.671 412.79 107.125 412.674 C 106.579 412.558 106.008 412.558 105.462 412.674 C 104.916 412.79 104.394 413.022 103.942 413.351 C 103.49 413.679 103.109 414.103 102.829 414.587 C 102.55 415.07 102.374 415.613 102.315 416.169 C 102.257 416.724 102.317 417.292 102.489 417.823 C 102.662 418.354 102.947 418.848 103.321 419.263 C 103.695 419.678 104.156 420.014 104.667 420.241 " />
</g>

<g opacity="0.500000" fill="red" stroke-width="0.000000" id="id0000000517" >
<path id="id0000000586" d="M 404.999 381.968 C 405.557 381.968 406.115 381.849 406.626 381.622 C 407.136 381.395 407.598 381.059 407.971 380.644 C 408.345 380.229 408.63 379.735 408.803 379.204 C 408.976 378.673 409.035 378.105 408.977 377.549 C 408.918 376.994 408.742 376.451 408.463 375.968 C 408.184 375.484 407.802 375.06 407.35 374.732 C 406.898 374.403 406.377 374.171 405.83 374.055 C 405.284 373.939 404.713 373.939 404.167 374.055 C 403.621 374.171 403.099 374.403 402.648 374.732 C 402.196 375.06 401.814 375.484 401.535 375.968 C 401.255 376.451 401.079 376.994 401.021 377.549 C 400.962 378.105 401.022 378.673 401.194 379.204 C 401.367 379.735 401.652 380.229 402.026 380.644 C 402.4 381.059 402.862 381.395 403.372 381.622 " />
</g>

<g opacity="0.500000" fill="red" stroke-width="0.000000" id="id0000000519" >
<path id="id0000000587" d="M 345.671 436.142 C 346.229 436.142 346.787 436.023 347.297 435.796 C 347.808 435.569 348.269 435.233 348.643 434.818 C 349.017 434.403 349.302 433.909 349.475 433.378 C 349.647 432.847 349.707 432.279 349.649 431.724 C 349.59 431.168 349.414 430.625 349.135 430.142 C 348.855 429.658 348.474 429.234 348.022 428.906 C 347.57 428.577 347.048 428.345 346.502 428.229 C 345.956 428.113 345.385 428.113 344.839 428.229 C 344.293 428.345 343.771 428.577 343.319 428.906 C 342.868 429.234 342.486 429.658 342.206 430.142 C 341.927 430.625 341.751 431.168 341.692 431.724 C 341.634 432.279 341.694 432.847 341.866 433.378 C 342.039 433.909 342.324 434.403 342.698 434.818 C 343.072 435.233 343.533 435.569 344.044 435.796 " />
</g>

<g opacity="0.500000" fill="red" stroke-width="0.000000" id="id0000000521" >
<path id="id0000000588" d="M 199.132 427.764 C 199.69 427.764 200.248 427.646 200.759 427.418 C 201.269 427.191 201.731 426.856 202.104 426.441 C 202.478 426.026 202.763 425.532 202.936 425 C 203.108 424.469 203.168 423.902 203.11 423.346 C 203.051 422.791 202.875 422.248 202.596 421.764 C 202.317 421.281 201.935 420.857 201.483 420.528 C 201.031 420.2 200.51 419.968 199.963 419.852 C 199.417 419.736 198.846 419.736 198.3 419.852 C 197.754 419.968 197.232 420.2 196.781 420.528 C 196.329 420.857 195.947 421.281 195.668 421.764 C 195.388 422.248 195.212 422.791 195.154 423.346 C 195.095 423.902 195.155 424.469 195.327 425 C 195.5 425.532 195.785 426.026 196.159 426.441 C 196.533 426.856 196.995 427.191 197.505 427.418 " />
</g>

<g opacity="0.500000" fill="red" stroke-width="0.000000" id="id0000000523" >
<path id="id0000000589" d="M 154.856 377.01 C 155.415 377.01 155.973 376.892 156.483 376.665 C 156.993 376.437 157.455 376.102 157.829 375.687 C 158.202 375.272 158.488 374.778 158.66 374.246 C 158.833 373.715 158.893 373.148 158.834 372.592 C 158.776 372.037 158.599 371.494 158.32 371.01 C 158.041 370.527 157.659 370.103 157.207 369.774 C 156.755 369.446 156.234 369.214 155.688 369.098 C 155.141 368.982 154.571 368.982 154.024 369.098 C 153.478 369.214 152.957 369.446 152.505 369.774 C 152.053 370.103 151.671 370.527 151.392 371.01 C 151.113 371.494 150.936 372.037 150.878 372.592 C 150.82 373.148 150.879 373.715 151.052 374.246 C 151.224 374.778 151.51 375.272 151.883 375.687 C 152.257 376.102 152.719 376.437 153.229 376.665 " />
</g>

<g opacity="0.500000" fill="red" stroke-width="0.000000" id="id0000000525" >
<path id="id0000000590" d="M 147.247 23.4285 C 147.805 23.4285 148.364 23.3098 148.874 23.0827 C 149.384 22.8555 149.846 22.5201 150.219 22.105 C 150.593 21.69 150.879 21.1957 151.051 20.6646 C 151.224 20.1334 151.283 19.5658 151.225 19.0104 C 151.167 18.4549 150.99 17.9122 150.711 17.4285 C 150.432 16.9448 150.05 16.5207 149.598 16.1924 C 149.146 15.8641 148.625 15.632 148.079 15.5159 C 147.532 15.3998 146.962 15.3998 146.415 15.5159 C 145.869 15.632 145.348 15.8641 144.896 16.1924 C 144.444 16.5207 144.062 16.9448 143.783 17.4285 C 143.504 17.9122 143.327 18.4549 143.269 19.0104 C 143.21 19.5658 143.27 20.1334 143.443 20.6646 C 143.615 21.1957 143.901 21.69 144.274 22.105 C 144.648 22.5201 145.11 22.8555 145.62 23.0827 " />
</g>

<g opacity="0.500000" fill="red" stroke-width="0.000000" id="id0000000527" >
<path id="id0000000591" d="M 303.66 442.543 C 304.219 442.543 304.777 442.425 305.287 442.197 C 305.797 441.97 306.259 441.635 306.633 441.22 C 307.006 440.805 307.292 440.31 307.464 439.779 C 307.637 439.248 307.697 438.681 307.638 438.125 C 307.58 437.57 307.404 437.027 307.124 436.543 C 306.845 436.06 306.463 435.635 306.011 435.307 C 305.559 434.979 305.038 434.747 304.492 434.631 C 303.945 434.514 303.375 434.514 302.829 434.631 C 302.282 434.747 301.761 434.979 301.309 435.307 C 300.857 435.635 300.475 436.06 300.196 436.543 C 299.917 437.027 299.74 437.57 299.682 438.125 C 299.624 438.681 299.683 439.248 299.856 439.779 C 300.029 440.31 300.314 440.805 300.688 441.22 C 301.061 441.635 301.523 441.97 302.033 442.197 " />
</g>

<g opacity="0.500000" fill="red" stroke-width="0.000000" id="id0000000529" >
<path id="id0000000592" d="M 178.615 406.803 C 179.173 406.803 179.731 406.684 180.242 406.457 C 180.752 406.23 181.213 405.895 181.587 405.48 C 181.961 405.065 182.246 404.57 182.419 404.039 C 182.591 403.508 182.651 402.94 182.593 402.385 C 182.534 401.83 182.358 401.287 182.079 400.803 C 181.799 400.319 181.418 399.895 180.966 399.567 C 180.514 399.239 179.993 399.007 179.446 398.891 C 178.9 398.774 178.329 398.774 177.783 398.891 C 177.237 399.007 176.715 399.239 176.263 399.567 C 175.812 399.895 175.43 400.319 175.151 400.803 C 174.871 401.287 174.695 401.83 174.637 402.385 C 174.578 402.94 174.638 403.508 174.81 404.039 C 174.983 404.57 175.268 405.065 175.642 405.48 C 176.016 405.895 176.477 406.23 176.988 406.457 " />
</g>

<g opacity="0.500000" fill="red" stroke-width="0.000000" id="id0000000531" >
<path id="id0000000593" d="M 239.508 356.785 C 240.066 356.785 240.624 356.666 241.135 356.439 C 241.645 356.212 242.107 355.876 242.48 355.461 C 242.854 355.046 243.139 354.552 243.312 354.021 C 243.485 353.49 243.544 352.922 243.486 352.367 C 243.427 351.811 243.251 351.268 242.972 350.785 C 242.693 350.301 242.311 349.877 241.859 349.549 C 241.407 349.22 240.886 348.988 240.339 348.872 C 239.793 348.756 239.222 348.756 238.676 348.872 C 238.13 348.988 237.608 349.22 237.157 349.549 C 236.705 349.877 236.323 350.301 236.044 350.785 C 235.764 351.268 235.588 351.811 235.53 352.367 C 235.471 352.922 235.531 353.49 235.704 354.021 C 235.876 354.552 236.161 355.046 236.535 355.461 C 236.909 355.876 237.371 356.212 237.881 356.439 " />
</g>

<g opacity="0.500000" fill="red" stroke-width="0.000000" id="id0000000533" >
<path id="id0000000594" d="M 270.289 248.026 C 270.847 248.026 271.406 247.907 271.916 247.68 C 272.426 247.453 272.888 247.117 273.262 246.702 C 273.635 246.287 273.921 245.793 274.093 245.262 C 274.266 244.731 274.325 244.163 274.267 243.608 C 274.209 243.052 274.032 242.51 273.753 242.026 C 273.474 241.542 273.092 241.118 272.64 240.79 C 272.188 240.461 271.667 240.229 271.121 240.113 C 270.574 239.997 270.004 239.997 269.457 240.113 C 268.911 240.229 268.39 240.461 267.938 240.79 C 267.486 241.118 267.104 241.542 266.825 242.026 C 266.546 242.51 266.369 243.052 266.311 243.608 C 266.252 244.163 266.312 244.731 266.485 245.262 C 266.657 245.793 266.943 246.287 267.316 246.702 C 267.69 247.117 268.152 247.453 268.662 247.68 " />
</g>

<g opacity="0.500000" fill="red" stroke-width="0.000000" id="id0000000535" >
<path id="id0000000595" d="M 283.556 417.129 C 284.115 417.129 284.673 417.01 285.183 416.783 C 285.694 416.556 286.155 416.221 286.529 415.805 C 286.903 415.39 287.188 414.896 287.361 414.365 C 287.533 413.834 287.593 413.266 287.535 412.711 C 287.476 412.155 287.3 411.613 287.021 411.129 C 286.741 410.645 286.359 410.221 285.908 409.893 C 285.456 409.565 284.934 409.332 284.388 409.216 C 283.842 409.1 283.271 409.1 282.725 409.216 C 282.179 409.332 281.657 409.565 281.205 409.893 C 280.754 410.221 280.372 410.645 280.092 411.129 C 279.813 411.613 279.637 412.155 279.578 412.711 C 279.52 413.266 279.58 413.834 279.752 414.365 C 279.925 414.896 280.21 415.39 280.584 415.805 C 280.958 416.221 281.419 416.556 281.93 416.783 " />
</g>

<g opacity="0.500000" fill="red" stroke-width="0.000000" id="id0000000537" >
<path id="id0000000596" d="M 333.316 425.175 C 333.874 425.175 334.432 425.056 334.943 424.829 C 335.453 424.602 335.915 424.267 336.288 423.852 C 336.662 423.437 336.947 422.942 337.12 422.411 C 337.293 421.88 337.352 421.312 337.294 420.757 C 337.235 420.202 337.059 419.659 336.78 419.175 C 336.501 418.691 336.119 418.267 335.667 417.939 C 335.215 417.611 334.694 417.379 334.147 417.263 C 333.601 417.146 333.03 417.146 332.484 417.263 C 331.938 417.379 331.416 417.611 330.965 417.939 C 330.513 418.267 330.131 418.691 329.852 419.175 C 329.572 419.659 329.396 420.202 329.338 420.757 C 329.279 421.312 329.339 421.88 329.511 422.411 C 329.684 422.942 329.969 423.437 330.343 423.852 C 330.717 424.267 331.179 424.602 331.689 424.829 " />
</g>

<g opacity="0.500000" fill="red" stroke-width="0.000000" id="id0000000539" >
<path id="id0000000597" d="M 125.693 433.471 C 126.251 433.471 126.81 433.353 127.32 433.125 C 127.83 432.898 128.292 432.563 128.666 432.148 C 129.039 431.733 129.325 431.238 129.497 430.707 C 129.67 430.176 129.729 429.609 129.671 429.053 C 129.613 428.498 129.436 427.955 129.157 427.471 C 128.878 426.988 128.496 426.563 128.044 426.235 C 127.592 425.907 127.071 425.675 126.525 425.559 C 125.978 425.442 125.408 425.442 124.861 425.559 C 124.315 425.675 123.794 425.907 123.342 426.235 C 122.89 426.563 122.508 426.988 122.229 427.471 C 121.95 427.955 121.773 428.498 121.715 429.053 C 121.656 429.609 121.716 430.176 121.889 430.707 C 122.061 431.238 122.347 431.733 122.72 432.148 C 123.094 432.563 123.556 432.898 124.066 433.125 " />
</g>

<g opacity="0.500000" fill="red" stroke-width="0.000000" id="id0000000541" >
<path id="id0000000598" d="M 170.341 429.129 C 170.9 429.129 171.458 429.01 171.968 428.783 C 172.478 428.556 172.94 428.22 173.314 427.805 C 173.688 427.39 173.973 426.896 174.145 426.365 C 174.318 425.834 174.378 425.266 174.319 424.711 C 174.261 424.155 174.085 423.612 173.805 423.129 C 173.526 422.645 173.144 422.221 172.692 421.893 C 172.241 421.564 171.719 421.332 171.173 421.216 C 170.627 421.1 170.056 421.1 169.51 421.216 C 168.963 421.332 168.442 421.564 167.99 421.893 C 167.538 422.221 167.156 422.645 166.877 423.129 C 166.598 423.612 166.422 424.155 166.363 424.711 C 166.305 425.266 166.364 425.834 166.537 426.365 C 166.71 426.896 166.995 427.39 167.369 427.805 C 167.742 428.22 168.204 428.556 168.714 428.783 " />
</g>

<g opacity="0.500000" fill="red" stroke-width="0.000000" id="id0000000543" >
<path id="id0000000599" d="M 206.999 283.942 C 207.558 283.942 208.116 283.823 208.626 283.596 C 209.136 283.369 209.598 283.034 209.972 282.619 C 210.345 282.204 210.631 281.709 210.803 281.178 C 210.976 280.647 211.035 280.079 210.977 279.524 C 210.919 278.969 210.742 278.426 210.463 277.942 C 210.184 277.458 209.802 277.034 209.35 276.706 C 208.898 276.378 208.377 276.146 207.831 276.029 C 207.284 275.913 206.714 275.913 206.167 276.029 C 205.621 276.146 205.1 276.378 204.648 276.706 C 204.196 277.034 203.814 277.458 203.535 277.942 C 203.256 278.426 203.079 278.969 203.021 279.524 C 202.963 280.079 203.022 280.647 203.195 281.178 C 203.367 281.709 203.653 282.204 204.026 282.619 C 204.4 283.034 204.862 283.369 205.372 283.596 " />
</g>

<g opacity="0.500000" fill="red" stroke-width="0.000000" id="id0000000545" >
<path id="id0000000600" d="M 126.275 427.902 C 126.833 427.902 127.391 427.783 127.901 427.556 C 128.412 427.329 128.873 426.993 129.247 426.578 C 129.621 426.163 129.906 425.669 130.079 425.138 C 130.251 424.607 130.311 424.039 130.253 423.484 C 130.194 422.928 130.018 422.385 129.739 421.902 C 129.459 421.418 129.077 420.994 128.626 420.666 C 128.174 420.337 127.652 420.105 127.106 419.989 C 126.56 419.873 125.989 419.873 125.443 419.989 C 124.897 420.105 124.375 420.337 123.923 420.666 C 123.472 420.994 123.09 421.418 122.81 421.902 C 122.531 422.385 122.355 422.928 122.296 423.484 C 122.238 424.039 122.298 424.607 122.47 425.138 C 122.643 425.669 122.928 426.163 123.302 426.578 C 123.676 426.993 124.137 427.329 124.648 427.556 " />
</g>

<g opacity="0.500000" fill="red" stroke-width="0.000000" id="id0000000547" >
<path id="id0000000601" d="M 199.582 404.687 C 200.141 404.687 200.699 404.568 201.209 404.341 C 201.719 404.114 202.181 403.779 202.555 403.364 C 202.928 402.949 203.214 402.454 203.386 401.923 C 203.559 401.392 203.619 400.824 203.56 400.269 C 203.502 399.713 203.325 399.171 203.046 398.687 C 202.767 398.203 202.385 397.779 201.933 397.451 C 201.481 397.123 200.96 396.891 200.414 396.774 C 199.867 396.658 199.297 396.658 198.75 396.774 C 198.204 396.891 197.683 397.123 197.231 397.451 C 196.779 397.779 196.397 398.203 196.118 398.687 C 195.839 399.171 195.662 399.713 195.604 400.269 C 195.546 400.824 195.605 401.392 195.778 401.923 C 195.95 402.454 196.236 402.949 196.61 403.364 C 196.983 403.779 197.445 404.114 197.955 404.341 " />
</g>

<g opacity="0.500000" fill="red" stroke-width="0.000000" id="id0000000549" >
<path id="id0000000602" d="M 231.758 413.969 C 232.317 413.969 232.875 413.851 233.385 413.623 C 233.896 413.396 234.357 413.061 234.731 412.646 C 235.105 412.231 235.39 411.736 235.563 411.205 C 235.735 410.674 235.795 410.107 235.737 409.551 C 235.678 408.996 235.502 408.453 235.223 407.969 C 234.943 407.486 234.561 407.061 234.11 406.733 C 233.658 406.405 233.136 406.173 232.59 406.057 C 232.044 405.941 231.473 405.941 230.927 406.057 C 230.381 406.173 229.859 406.405 229.407 406.733 C 228.955 407.061 228.574 407.486 228.294 407.969 C 228.015 408.453 227.839 408.996 227.78 409.551 C 227.722 410.107 227.782 410.674 227.954 411.205 C 228.127 411.736 228.412 412.231 228.786 412.646 C 229.16 413.061 229.621 413.396 230.132 413.623 " />
</g>

<g opacity="0.500000" fill="red" stroke-width="0.000000" id="id0000000551" >
<path id="id0000000603" d="M 349.075 418.331 C 349.633 418.331 350.191 418.212 350.702 417.985 C 351.212 417.758 351.673 417.423 352.047 417.008 C 352.421 416.592 352.706 416.098 352.879 415.567 C 353.051 415.036 353.111 414.468 353.053 413.913 C 352.994 413.357 352.818 412.815 352.539 412.331 C 352.259 411.847 351.878 411.423 351.426 411.095 C 350.974 410.767 350.453 410.535 349.906 410.418 C 349.36 410.302 348.789 410.302 348.243 410.418 C 347.697 410.535 347.175 410.767 346.723 411.095 C 346.272 411.423 345.89 411.847 345.61 412.331 C 345.331 412.815 345.155 413.357 345.096 413.913 C 345.038 414.468 345.098 415.036 345.27 415.567 C 345.443 416.098 345.728 416.592 346.102 417.008 C 346.476 417.423 346.937 417.758 347.448 417.985 " />
</g>

<g opacity="0.500000" fill="red" stroke-width="0.000000" id="id0000000553" >
<path id="id0000000604" d="M 192.873 402.863 C 193.432 402.863 193.99 402.745 194.5 402.518 C 195.01 402.29 195.472 401.955 195.846 401.54 C 196.219 401.125 196.505 400.631 196.677 400.099 C 196.85 399.568 196.91 399.001 196.851 398.445 C 196.793 397.89 196.616 397.347 196.337 396.863 C 196.058 396.38 195.676 395.956 195.224 395.627 C 194.772 395.299 194.251 395.067 193.705 394.951 C 193.158 394.835 192.588 394.835 192.041 394.951 C 191.495 395.067 190.974 395.299 190.522 395.627 C 190.07 395.956 189.688 396.38 189.409 396.863 C 189.13 397.347 188.953 397.89 188.895 398.445 C 188.837 399.001 188.896 399.568 189.069 400.099 C 189.241 400.631 189.527 401.125 189.9 401.54 C 190.274 401.955 190.736 402.29 191.246 402.518 " />
</g>

</g>

</g>

<polygon points="36,1 36,458 639,458 639,1 " stroke="black" stroke-width="1.000000" fill="none" id="id0000000605" pointer-events="none" class="rectangle" />
<polyline points="87.5597,458 87.5597,461 " fill="none" stroke-width="1.000000" stroke="black" id="id0000000606" class="line" />
<text id="id0000000607" transform="matrix(1 0 0 1 36 1)" x="51.559708" y="462.000000" dominant-baseline="hanging" text-anchor="middle" font-size="14.000000px" >
0
</text>

<polyline points="194.916,458 194.916,461 " fill="none" stroke-width="1.000000" stroke="black" id="id0000000608" class="line" />
<text id="id0000000609" transform="matrix(1 0 0 1 36 1)" x="158.915695" y="462.000000" dominant-baseline="hanging" text-anchor="middle" font-size="14.000000px" >
1
</text>

<polyline points="302.272,458 302.272,461 " fill="none" stroke-width="1.000000" stroke="black" id="id0000000610" class="line" />
<text id="id0000000611" transform="matrix(1 0 0 1 36 1)" x="266.271698" y="462.000000" dominant-baseline="hanging" text-anchor="middle" font-size="14.000000px" >
2
</text>

<polyline points="409.628,458 409.628,461 " fill="none" stroke-width="1.000000" stroke="black" id="id0000000612" class="line" />
<text id="id0000000613" transform="matrix(1 0 0 1 36 1)" x="373.627655" y="462.000000" dominant-baseline="hanging" text-anchor="middle" font-size="14.000000px" >
3
</text>

<polyline points="516.984,458 516.984,461 " fill="none" stroke-width="1.000000" stroke="black" id="id0000000614" class="line" />
<text id="id0000000615" transform="matrix(1 0 0 1 36 1)" x="480.983673" y="462.000000" dominant-baseline="hanging" text-anchor="middle" font-size="14.000000px" >
4
</text>

<polyline points="624.34,458 624.34,461 " fill="none" stroke-width="1.000000" stroke="black" id="id0000000616" class="line" />
<text id="id0000000617" transform="matrix(1 0 0 1 36 1)" x="588.339661" y="462.000000" dominant-baseline="hanging" text-anchor="middle" font-size="14.000000px" >
5
</text>

<polyline points="33,441.55 36,441.55 " fill="none" stroke-width="1.000000" stroke="black" id="id0000000618" class="line" />
<text id="id0000000619" transform="matrix(1 0 0 1 36 1)" x="-5.000000" y="440.550446" dominant-baseline="middle" text-anchor="end" font-size="14.000000px" >
0
</text>

<polyline points="33,374.822 36,374.822 " fill="none" stroke-width="1.000000" stroke="black" id="id0000000620" class="line" />
<text id="id0000000621" transform="matrix(1 0 0 1 36 1)" x="-5.000000" y="373.822083" dominant-baseline="middle" text-anchor="end" font-size="14.000000px" >
2
</text>

<polyline points="33,308.094 36,308.094 " fill="none" stroke-width="1.000000" stroke="black" id="id0000000622" class="line" />
<text id="id0000000623" transform="matrix(1 0 0 1 36 1)" x="-5.000000" y="307.093750" dominant-baseline="middle" text-anchor="end" font-size="14.000000px" >
4
</text>

<polyline points="33,241.365 36,241.365 " fill="none" stroke-width="1.000000" stroke="black" id="id0000000624" class="line" />
<text id="id0000000625" transform="matrix(1 0 0 1 36 1)" x="-5.000000" y="240.365387" dominant-baseline="middle" text-anchor="end" font-size="14.000000px" >
6
</text>

<polyline points="33,174.637 36,174.637 " fill="none" stroke-width="1.000000" stroke="black" id="id0000000626" class="line" />
<text id="id0000000627" transform="matrix(1 0 0 1 36 1)" x="-5.000000" y="173.637054" dominant-baseline="middle" text-anchor="end" font-size="14.000000px" >
8
</text>

<polyline points="33,107.909 36,107.909 " fill="none" stroke-width="1.000000" stroke="black" id="id0000000628" class="line" />
<text id="id0000000629" transform="matrix(1 0 0 1 36 1)" x="-5.000000" y="106.908722" dominant-baseline="middle" text-anchor="end" font-size="14.000000px" >
10
</text>

<polyline points="33,41.1804 36,41.1804 " fill="none" stroke-width="1.000000" stroke="black" id="id0000000630" class="line" />
<text id="id0000000631" transform="matrix(1 0 0 1 36 1)" x="-5.000000" y="40.180389" dominant-baseline="middle" text-anchor="end" font-size="14.000000px" >
12
</text>


</g>

</svg>
