<svg viewBox="0 0 926.12 926.12" height="100%" width="100%" xmlns:xlink="http://www.w3.org/1999/xlink" xmlns="http://www.w3.org/2000/svg" id="id0000000284" >
<g id="id0000000285" >
<g id="id0000000286" >
<g id="id0000000287" >
<clipPath id="id0000000287clipper" >
<polygon points="82.06,11.06 82.06,252.06 309.06,252.06 309.06,11.06 " id="id0000000331" class="rectangle" />
</clipPath>

<g clip-path="url(#id0000000287clipper)" id="id0000000289" >
<polyline id="id0000000332" points="88.7365,244.972 89.8101,243.832 90.8837,242.692 91.9573,241.552 93.0309,240.412 94.1045,239.273 95.1781,238.133 96.2517,236.993 97.3253,235.853 98.3989,234.713 99.4725,233.574 100.546,232.434 101.62,231.294 102.693,230.154 103.767,229.014 104.841,227.875 105.914,226.735 106.988,225.595 108.061,224.455 109.135,223.315 110.209,222.175 111.282,221.036 112.356,219.896 113.429,218.756 114.503,217.616 115.577,216.476 116.65,215.337 117.724,214.197 118.797,213.057 119.871,211.917 120.945,210.777 122.018,209.637 123.092,208.498 124.165,207.358 125.239,206.218 126.313,205.078 127.386,203.938 128.46,202.799 129.533,201.659 130.607,200.519 131.681,199.379 132.754,198.239 133.828,197.099 134.901,195.96 135.975,194.82 137.049,193.68 138.122,192.54 139.196,191.4 140.269,190.261 141.343,189.121 142.417,187.981 143.49,186.841 144.564,185.701 145.637,184.561 146.711,183.422 147.785,182.282 148.858,181.142 149.932,180.002 151.005,178.862 152.079,177.723 153.153,176.583 154.226,175.443 155.3,174.303 156.373,173.163 157.447,172.023 158.521,170.884 159.594,169.744 160.668,168.604 161.741,167.464 162.815,166.324 163.889,165.185 164.962,164.045 166.036,162.905 167.109,161.765 168.183,160.625 169.257,159.486 170.33,158.346 171.404,157.206 172.478,156.066 173.551,154.926 174.625,153.786 175.698,152.647 176.772,151.507 177.846,150.367 178.919,149.227 179.993,148.087 181.066,146.948 182.14,145.808 183.214,144.668 184.287,143.528 185.361,142.388 186.434,141.248 187.508,140.109 188.582,138.969 189.655,137.829 190.729,136.689 191.802,135.549 192.876,134.41 193.95,133.27 195.023,132.13 196.097,130.99 197.17,129.85 198.244,128.71 199.318,127.571 200.391,126.431 201.465,125.291 202.538,124.151 203.612,123.011 204.686,121.872 205.759,120.732 206.833,119.592 207.906,118.452 208.98,117.312 210.054,116.172 211.127,115.033 212.201,113.893 213.274,112.753 214.348,111.613 215.422,110.473 216.495,109.334 217.569,108.194 218.642,107.054 219.716,105.914 220.79,104.774 221.863,103.634 222.937,102.495 224.01,101.355 225.084,100.215 226.158,99.0752 227.231,97.9354 228.305,96.7956 229.379,95.6557 230.452,94.5159 231.526,93.3761 232.599,92.2363 233.673,91.0965 234.747,89.9567 235.82,88.8168 236.894,87.677 237.967,86.5372 239.041,85.3974 240.115,84.2576 241.188,83.1178 242.262,81.978 243.335,80.8381 244.409,79.6983 245.483,78.5585 246.556,77.4187 247.63,76.2789 248.703,75.1391 249.777,73.9992 250.851,72.8594 251.924,71.7196 252.998,70.5798 254.071,69.44 255.145,68.3001 256.219,67.1603 257.292,66.0205 258.366,64.8807 259.439,63.7409 260.513,62.6011 261.587,61.4613 262.66,60.3214 263.734,59.1816 264.807,58.0418 265.881,56.902 266.955,55.7622 268.028,54.6224 269.102,53.4825 270.175,52.3427 271.249,51.2029 272.323,50.0631 273.396,48.9233 274.47,47.7835 275.543,46.6436 276.617,45.5038 277.691,44.364 278.764,43.2242 279.838,42.0844 280.911,40.9446 281.985,39.8047 283.059,38.6649 284.132,37.5251 285.206,36.3853 286.279,35.2455 287.353,34.1057 288.427,32.9658 289.5,31.826 290.574,30.6862 291.647,29.5464 292.721,28.4066 293.795,27.2668 294.868,26.1269 295.942,24.9871 297.016,23.8473 298.089,22.7075 299.163,21.5677 300.236,20.4279 301.31,19.288 302.384,18.1482 " fill="none" stroke-opacity="1.000000" stroke-linecap="round" stroke="#1f77b4" stroke-width="1.000000" />
</g>

<polygon points="82.06,11.06 82.06,252.06 309.06,252.06 309.06,11.06 " stroke="black" stroke-width="1.000000" fill="none" id="id0000000333" pointer-events="none" class="rectangle" />
<polyline points="88.7365,252.06 88.7365,255.06 " fill="none" stroke-width="1.000000" stroke="black" id="id0000000334" class="line" />
<text id="id0000000335" transform="matrix(1 0 0 1 82.06 11.06)" x="6.676468" y="246.000000" dominant-baseline="hanging" text-anchor="middle" font-size="14.000000px" >
-1
</text>

<polyline points="115.577,252.06 115.577,255.06 " fill="none" stroke-width="1.000000" stroke="black" id="id0000000336" class="line" />
<text id="id0000000337" transform="matrix(1 0 0 1 82.06 11.06)" x="33.516567" y="246.000000" dominant-baseline="hanging" text-anchor="middle" font-size="14.000000px" >
-0.75
</text>

<polyline points="142.417,252.06 142.417,255.06 " fill="none" stroke-width="1.000000" stroke="black" id="id0000000338" class="line" />
<text id="id0000000339" transform="matrix(1 0 0 1 82.06 11.06)" x="60.356667" y="246.000000" dominant-baseline="hanging" text-anchor="middle" font-size="14.000000px" >
-0.5
</text>

<polyline points="169.257,252.06 169.257,255.06 " fill="none" stroke-width="1.000000" stroke="black" id="id0000000340" class="line" />
<text id="id0000000341" transform="matrix(1 0 0 1 82.06 11.06)" x="87.196762" y="246.000000" dominant-baseline="hanging" text-anchor="middle" font-size="14.000000px" >
-0.25
</text>

<polyline points="196.097,252.06 196.097,255.06 " fill="none" stroke-width="1.000000" stroke="black" id="id0000000342" class="line" />
<text id="id0000000343" transform="matrix(1 0 0 1 82.06 11.06)" x="114.036865" y="246.000000" dominant-baseline="hanging" text-anchor="middle" font-size="14.000000px" >
0
</text>

<polyline points="222.937,252.06 222.937,255.06 " fill="none" stroke-width="1.000000" stroke="black" id="id0000000344" class="line" />
<text id="id0000000345" transform="matrix(1 0 0 1 82.06 11.06)" x="140.876968" y="246.000000" dominant-baseline="hanging" text-anchor="middle" font-size="14.000000px" >
0.25
</text>

<polyline points="249.777,252.06 249.777,255.06 " fill="none" stroke-width="1.000000" stroke="black" id="id0000000346" class="line" />
<text id="id0000000347" transform="matrix(1 0 0 1 82.06 11.06)" x="167.717072" y="246.000000" dominant-baseline="hanging" text-anchor="middle" font-size="14.000000px" >
0.5
</text>

<polyline points="276.617,252.06 276.617,255.06 " fill="none" stroke-width="1.000000" stroke="black" id="id0000000348" class="line" />
<text id="id0000000349" transform="matrix(1 0 0 1 82.06 11.06)" x="194.557159" y="246.000000" dominant-baseline="hanging" text-anchor="middle" font-size="14.000000px" >
0.75
</text>

<polyline points="303.457,252.06 303.457,255.06 " fill="none" stroke-width="1.000000" stroke="black" id="id0000000350" class="line" />
<text id="id0000000351" transform="matrix(1 0 0 1 82.06 11.06)" x="221.397263" y="246.000000" dominant-baseline="hanging" text-anchor="middle" font-size="14.000000px" >
1
</text>

<polyline points="79.06,244.972 82.06,244.972 " fill="none" stroke-width="1.000000" stroke="black" id="id0000000352" class="line" />
<text id="id0000000353" transform="matrix(1 0 0 1 82.06 11.06)" x="-5.000000" y="233.911774" dominant-baseline="middle" text-anchor="end" font-size="14.000000px" >
-1
</text>

<polyline points="79.06,216.476 82.06,216.476 " fill="none" stroke-width="1.000000" stroke="black" id="id0000000354" class="line" />
<text id="id0000000355" transform="matrix(1 0 0 1 82.06 11.06)" x="-5.000000" y="205.416321" dominant-baseline="middle" text-anchor="end" font-size="14.000000px" >
-0.75
</text>

<polyline points="79.06,187.981 82.06,187.981 " fill="none" stroke-width="1.000000" stroke="black" id="id0000000356" class="line" />
<text id="id0000000357" transform="matrix(1 0 0 1 82.06 11.06)" x="-5.000000" y="176.920898" dominant-baseline="middle" text-anchor="end" font-size="14.000000px" >
-0.5
</text>

<polyline points="79.06,159.485 82.06,159.485 " fill="none" stroke-width="1.000000" stroke="black" id="id0000000358" class="line" />
<text id="id0000000359" transform="matrix(1 0 0 1 82.06 11.06)" x="-5.000000" y="148.425461" dominant-baseline="middle" text-anchor="end" font-size="14.000000px" >
-0.25
</text>

<polyline points="79.06,130.99 82.06,130.99 " fill="none" stroke-width="1.000000" stroke="black" id="id0000000360" class="line" />
<text id="id0000000361" transform="matrix(1 0 0 1 82.06 11.06)" x="-5.000000" y="119.930023" dominant-baseline="middle" text-anchor="end" font-size="14.000000px" >
0
</text>

<polyline points="79.06,102.495 82.06,102.495 " fill="none" stroke-width="1.000000" stroke="black" id="id0000000362" class="line" />
<text id="id0000000363" transform="matrix(1 0 0 1 82.06 11.06)" x="-5.000000" y="91.434586" dominant-baseline="middle" text-anchor="end" font-size="14.000000px" >
0.25
</text>

<polyline points="79.06,73.9991 82.06,73.9991 " fill="none" stroke-width="1.000000" stroke="black" id="id0000000364" class="line" />
<text id="id0000000365" transform="matrix(1 0 0 1 82.06 11.06)" x="-5.000000" y="62.939148" dominant-baseline="middle" text-anchor="end" font-size="14.000000px" >
0.5
</text>

<polyline points="79.06,45.5037 82.06,45.5037 " fill="none" stroke-width="1.000000" stroke="black" id="id0000000366" class="line" />
<text id="id0000000367" transform="matrix(1 0 0 1 82.06 11.06)" x="-5.000000" y="34.443710" dominant-baseline="middle" text-anchor="end" font-size="14.000000px" >
0.75
</text>

<polyline points="79.06,17.0083 82.06,17.0083 " fill="none" stroke-width="1.000000" stroke="black" id="id0000000368" class="line" />
<text id="id0000000369" transform="matrix(1 0 0 1 82.06 11.06)" x="-5.000000" y="5.948273" dominant-baseline="middle" text-anchor="end" font-size="14.000000px" >
1
</text>

<text id="id0000000370" transform="matrix(1 0 0 1 82.06 11.06)" x="113.500000" y="269.000000" text-anchor="middle" font-size="18.000000px" >
linear
</text>

<g id="id0000000290" >
<text id="id0000000371" transform="matrix(-4.37114e-08 -1 1 -4.37114e-08 54.06 131.56)" x="0.000000" y="0.000000" text-anchor="middle" font-size="18.000000px" >
linear
</text>

</g>

</g>

</g>

<g id="id0000000291" >
<g id="id0000000292" >
<clipPath id="id0000000292clipper" >
<polygon points="385.08,11.06 385.08,252.06 612.08,252.06 612.08,11.06 " id="id0000000372" class="rectangle" />
</clipPath>

<g clip-path="url(#id0000000292clipper)" id="id0000000294" >
<polyline id="id0000000373" points="500.19,191.812 501.264,173.674 502.338,163.064 503.411,155.536 504.485,149.697 505.558,144.927 506.632,140.893 507.706,137.399 508.779,134.317 509.853,131.56 510.926,129.066 512,126.789 513.074,124.695 514.147,122.756 515.221,120.951 516.294,119.262 517.368,117.676 518.442,116.18 519.515,114.765 520.589,113.423 521.662,112.146 522.736,110.929 523.81,109.766 524.883,108.652 525.957,107.584 527.031,106.558 528.104,105.57 529.178,104.619 530.251,103.701 531.325,102.813 532.398,101.956 533.472,101.125 534.546,100.32 535.619,99.5384 536.693,98.7799 537.767,98.0428 538.84,97.3259 539.914,96.6281 540.987,95.9484 542.061,95.2859 543.135,94.6398 544.208,94.0093 545.282,93.3936 546.355,92.792 547.429,92.204 548.503,91.6289 549.576,91.0661 550.65,90.5153 551.723,89.9757 552.797,89.4471 553.871,88.9289 554.944,88.4208 556.018,87.9224 557.091,87.4333 558.165,86.9532 559.239,86.4817 560.312,86.0186 561.386,85.5635 562.459,85.1162 563.533,84.6764 564.607,84.2439 565.68,83.8184 566.754,83.3998 567.827,82.9877 568.901,82.582 569.975,82.1825 571.048,81.789 572.122,81.4014 573.195,81.0194 574.269,80.6429 575.343,80.2717 576.416,79.9057 577.49,79.5448 578.563,79.1888 579.637,78.8376 580.711,78.491 581.784,78.149 582.858,77.8113 583.931,77.478 585.005,77.1489 586.079,76.8238 587.152,76.5027 588.226,76.1856 589.299,75.8722 590.373,75.5625 591.447,75.2565 592.52,74.954 593.594,74.6549 594.667,74.3593 595.741,74.0669 596.815,73.7778 597.888,73.4918 598.962,73.2089 600.036,72.9291 601.109,72.6522 602.183,72.3782 603.256,72.107 604.33,71.8387 605.404,71.573 " fill="none" stroke-opacity="1.000000" stroke-linecap="round" stroke="#1f77b4" stroke-width="1.000000" />
</g>

<polygon points="385.08,11.06 385.08,252.06 612.08,252.06 612.08,11.06 " stroke="black" stroke-width="1.000000" fill="none" id="id0000000374" pointer-events="none" class="rectangle" />
<polyline points="391.756,252.06 391.756,255.06 " fill="none" stroke-width="1.000000" stroke="black" id="id0000000375" class="line" />
<text id="id0000000376" transform="matrix(1 0 0 1 385.08 11.06)" x="6.676468" y="246.000000" dominant-baseline="hanging" text-anchor="middle" font-size="14.000000px" >
-1
</text>

<polyline points="418.597,252.06 418.597,255.06 " fill="none" stroke-width="1.000000" stroke="black" id="id0000000377" class="line" />
<text id="id0000000378" transform="matrix(1 0 0 1 385.08 11.06)" x="33.516567" y="246.000000" dominant-baseline="hanging" text-anchor="middle" font-size="14.000000px" >
-0.75
</text>

<polyline points="445.437,252.06 445.437,255.06 " fill="none" stroke-width="1.000000" stroke="black" id="id0000000379" class="line" />
<text id="id0000000380" transform="matrix(1 0 0 1 385.08 11.06)" x="60.356667" y="246.000000" dominant-baseline="hanging" text-anchor="middle" font-size="14.000000px" >
-0.5
</text>

<polyline points="472.277,252.06 472.277,255.06 " fill="none" stroke-width="1.000000" stroke="black" id="id0000000381" class="line" />
<text id="id0000000382" transform="matrix(1 0 0 1 385.08 11.06)" x="87.196762" y="246.000000" dominant-baseline="hanging" text-anchor="middle" font-size="14.000000px" >
-0.25
</text>

<polyline points="499.117,252.06 499.117,255.06 " fill="none" stroke-width="1.000000" stroke="black" id="id0000000383" class="line" />
<text id="id0000000384" transform="matrix(1 0 0 1 385.08 11.06)" x="114.036865" y="246.000000" dominant-baseline="hanging" text-anchor="middle" font-size="14.000000px" >
0
</text>

<polyline points="525.957,252.06 525.957,255.06 " fill="none" stroke-width="1.000000" stroke="black" id="id0000000385" class="line" />
<text id="id0000000386" transform="matrix(1 0 0 1 385.08 11.06)" x="140.876968" y="246.000000" dominant-baseline="hanging" text-anchor="middle" font-size="14.000000px" >
0.25
</text>

<polyline points="552.797,252.06 552.797,255.06 " fill="none" stroke-width="1.000000" stroke="black" id="id0000000387" class="line" />
<text id="id0000000388" transform="matrix(1 0 0 1 385.08 11.06)" x="167.717072" y="246.000000" dominant-baseline="hanging" text-anchor="middle" font-size="14.000000px" >
0.5
</text>

<polyline points="579.637,252.06 579.637,255.06 " fill="none" stroke-width="1.000000" stroke="black" id="id0000000389" class="line" />
<text id="id0000000390" transform="matrix(1 0 0 1 385.08 11.06)" x="194.557159" y="246.000000" dominant-baseline="hanging" text-anchor="middle" font-size="14.000000px" >
0.75
</text>

<polyline points="606.477,252.06 606.477,255.06 " fill="none" stroke-width="1.000000" stroke="black" id="id0000000391" class="line" />
<text id="id0000000392" transform="matrix(1 0 0 1 385.08 11.06)" x="221.397263" y="246.000000" dominant-baseline="hanging" text-anchor="middle" font-size="14.000000px" >
1
</text>

<polyline points="382.08,252.06 385.08,252.06 " fill="none" stroke-width="1.000000" stroke="black" id="id0000000393" class="line" />
<text id="id0000000394" transform="matrix(1 0 0 1 385.08 11.06)" x="-5.000000" y="241.000000" dominant-baseline="middle" text-anchor="end" font-size="14.000000px" >
10<tspan dy="-7" font-size=".7em">-3</tspan>
</text>

<polyline points="382.08,191.81 385.08,191.81 " fill="none" stroke-width="1.000000" stroke="black" id="id0000000395" class="line" />
<text id="id0000000396" transform="matrix(1 0 0 1 385.08 11.06)" x="-5.000000" y="180.750000" dominant-baseline="middle" text-anchor="end" font-size="14.000000px" >
10<tspan dy="-7" font-size=".7em">-2</tspan>
</text>

<polyline points="382.08,131.56 385.08,131.56 " fill="none" stroke-width="1.000000" stroke="black" id="id0000000397" class="line" />
<text id="id0000000398" transform="matrix(1 0 0 1 385.08 11.06)" x="-5.000000" y="120.500000" dominant-baseline="middle" text-anchor="end" font-size="14.000000px" >
10<tspan dy="-7" font-size=".7em">-1</tspan>
</text>

<polyline points="382.08,71.31 385.08,71.31 " fill="none" stroke-width="1.000000" stroke="black" id="id0000000399" class="line" />
<text id="id0000000400" transform="matrix(1 0 0 1 385.08 11.06)" x="-5.000000" y="60.250000" dominant-baseline="middle" text-anchor="end" font-size="14.000000px" >
10<tspan dy="-7" font-size=".7em">0</tspan>
</text>

<polyline points="382.08,11.06 385.08,11.06 " fill="none" stroke-width="1.000000" stroke="black" id="id0000000401" class="line" />
<text id="id0000000402" transform="matrix(1 0 0 1 385.08 11.06)" x="-5.000000" y="0.000000" dominant-baseline="middle" text-anchor="end" font-size="14.000000px" >
10<tspan dy="-7" font-size=".7em">1</tspan>
</text>

<text id="id0000000403" transform="matrix(1 0 0 1 385.08 11.06)" x="113.500000" y="269.000000" text-anchor="middle" font-size="18.000000px" >
linear
</text>

<g id="id0000000295" >
<text id="id0000000404" transform="matrix(-4.37114e-08 -1 1 -4.37114e-08 357.08 131.56)" x="0.000000" y="0.000000" text-anchor="middle" font-size="18.000000px" >
log
</text>

</g>

</g>

</g>

<g id="id0000000296" >
<g id="id0000000297" >
<clipPath id="id0000000297clipper" >
<polygon points="688.1,11.06 688.1,252.06 915.1,252.06 915.1,11.06 " id="id0000000405" class="rectangle" />
</clipPath>

<g clip-path="url(#id0000000297clipper)" id="id0000000299" >
<polyline id="id0000000406" points="694.776,222.749 695.85,222.621 696.924,222.492 697.997,222.361 699.071,222.23 700.144,222.096 701.218,221.962 702.292,221.825 703.365,221.688 704.439,221.549 705.512,221.408 706.586,221.266 707.66,221.122 708.733,220.976 709.807,220.829 710.88,220.68 711.954,220.53 713.028,220.377 714.101,220.223 715.175,220.067 716.249,219.909 717.322,219.749 718.396,219.586 719.469,219.422 720.543,219.256 721.617,219.087 722.69,218.916 723.764,218.743 724.837,218.567 725.911,218.389 726.985,218.209 728.058,218.026 729.132,217.84 730.205,217.651 731.279,217.46 732.353,217.266 733.426,217.068 734.5,216.868 735.573,216.664 736.647,216.457 737.721,216.247 738.794,216.033 739.868,215.815 740.941,215.594 742.015,215.368 743.089,215.139 744.162,214.905 745.236,214.667 746.309,214.425 747.383,214.178 748.457,213.926 749.53,213.669 750.604,213.406 751.677,213.138 752.751,212.864 753.825,212.585 754.898,212.299 755.972,212.006 757.045,211.706 758.119,211.4 759.193,211.085 760.266,210.763 761.34,210.432 762.413,210.093 763.487,209.744 764.561,209.385 765.634,209.016 766.708,208.636 767.781,208.245 768.855,207.841 769.929,207.423 771.002,206.992 772.076,206.545 773.149,206.082 774.223,205.602 775.297,205.102 776.37,204.583 777.444,204.041 778.517,203.475 779.591,202.883 780.665,202.262 781.738,201.609 782.812,200.921 783.885,200.193 784.959,199.421 786.033,198.6 787.106,197.722 788.18,196.778 789.254,195.759 790.327,194.652 791.401,193.438 792.474,192.097 793.548,190.598 794.622,188.898 795.695,186.936 796.769,184.615 797.842,181.775 798.916,178.113 799.99,172.951 801.063,164.128 802.137,131.562 803.21,98.9946 804.284,90.1694 805.358,85.0079 806.431,81.3458 807.505,78.5052 808.578,76.1843 809.652,74.222 810.726,72.5222 811.799,71.0229 812.873,69.6817 813.946,68.4684 815.02,67.3608 816.094,66.3419 817.167,65.3986 818.241,64.5203 819.314,63.6987 820.388,62.927 821.462,62.1994 822.535,61.5112 823.609,60.8582 824.682,60.2372 825.756,59.645 826.83,59.0791 827.903,58.5374 828.977,58.0177 830.05,57.5184 831.124,57.038 832.198,56.5751 833.271,56.1284 834.345,55.6968 835.419,55.2794 836.492,54.8753 837.566,54.4836 838.639,54.1036 839.713,53.7346 840.786,53.376 841.86,53.0272 842.934,52.6877 844.007,52.3571 845.081,52.0348 846.155,51.7205 847.228,51.4137 848.302,51.1142 849.375,50.8215 850.449,50.5355 851.523,50.2557 852.596,49.9819 853.67,49.7139 854.743,49.4514 855.817,49.1943 856.891,48.9422 857.964,48.695 859.038,48.4525 860.111,48.2146 861.185,47.981 862.259,47.7516 863.332,47.5263 864.406,47.3049 865.479,47.0873 866.553,46.8734 867.627,46.663 868.7,46.456 869.774,46.2523 870.847,46.0519 871.921,45.8545 872.995,45.6601 874.068,45.4687 875.142,45.2801 876.215,45.0943 877.289,44.9111 878.363,44.7306 879.436,44.5525 880.51,44.3769 881.583,44.2038 882.657,44.0329 883.731,43.8643 884.804,43.6979 885.878,43.5336 886.951,43.3715 888.025,43.2113 889.099,43.0532 890.172,42.897 891.246,42.7427 892.319,42.5903 893.393,42.4396 894.467,42.2907 895.54,42.1436 896.614,41.9981 897.687,41.8542 898.761,41.712 899.835,41.5714 900.908,41.4322 901.982,41.2946 903.055,41.1585 904.129,41.0238 905.203,40.8905 906.276,40.7586 907.35,40.628 908.423,40.4988 " fill="none" stroke-opacity="1.000000" stroke-linecap="round" stroke="#1f77b4" stroke-width="1.000000" />
</g>

<polygon points="688.1,11.06 688.1,252.06 915.1,252.06 915.1,11.06 " stroke="black" stroke-width="1.000000" fill="none" id="id0000000407" pointer-events="none" class="rectangle" />
<polyline points="694.776,252.06 694.776,255.06 " fill="none" stroke-width="1.000000" stroke="black" id="id0000000408" class="line" />
<text id="id0000000409" transform="matrix(1 0 0 1 688.1 11.06)" x="6.676468" y="246.000000" dominant-baseline="hanging" text-anchor="middle" font-size="14.000000px" >
-1
</text>

<polyline points="721.617,252.06 721.617,255.06 " fill="none" stroke-width="1.000000" stroke="black" id="id0000000410" class="line" />
<text id="id0000000411" transform="matrix(1 0 0 1 688.1 11.06)" x="33.516567" y="246.000000" dominant-baseline="hanging" text-anchor="middle" font-size="14.000000px" >
-0.75
</text>

<polyline points="748.457,252.06 748.457,255.06 " fill="none" stroke-width="1.000000" stroke="black" id="id0000000412" class="line" />
<text id="id0000000413" transform="matrix(1 0 0 1 688.1 11.06)" x="60.356667" y="246.000000" dominant-baseline="hanging" text-anchor="middle" font-size="14.000000px" >
-0.5
</text>

<polyline points="775.297,252.06 775.297,255.06 " fill="none" stroke-width="1.000000" stroke="black" id="id0000000414" class="line" />
<text id="id0000000415" transform="matrix(1 0 0 1 688.1 11.06)" x="87.196762" y="246.000000" dominant-baseline="hanging" text-anchor="middle" font-size="14.000000px" >
-0.25
</text>

<polyline points="802.137,252.06 802.137,255.06 " fill="none" stroke-width="1.000000" stroke="black" id="id0000000416" class="line" />
<text id="id0000000417" transform="matrix(1 0 0 1 688.1 11.06)" x="114.036865" y="246.000000" dominant-baseline="hanging" text-anchor="middle" font-size="14.000000px" >
0
</text>

<polyline points="828.977,252.06 828.977,255.06 " fill="none" stroke-width="1.000000" stroke="black" id="id0000000418" class="line" />
<text id="id0000000419" transform="matrix(1 0 0 1 688.1 11.06)" x="140.876968" y="246.000000" dominant-baseline="hanging" text-anchor="middle" font-size="14.000000px" >
0.25
</text>

<polyline points="855.817,252.06 855.817,255.06 " fill="none" stroke-width="1.000000" stroke="black" id="id0000000420" class="line" />
<text id="id0000000421" transform="matrix(1 0 0 1 688.1 11.06)" x="167.717072" y="246.000000" dominant-baseline="hanging" text-anchor="middle" font-size="14.000000px" >
0.5
</text>

<polyline points="882.657,252.06 882.657,255.06 " fill="none" stroke-width="1.000000" stroke="black" id="id0000000422" class="line" />
<text id="id0000000423" transform="matrix(1 0 0 1 688.1 11.06)" x="194.557159" y="246.000000" dominant-baseline="hanging" text-anchor="middle" font-size="14.000000px" >
0.75
</text>

<polyline points="909.497,252.06 909.497,255.06 " fill="none" stroke-width="1.000000" stroke="black" id="id0000000424" class="line" />
<text id="id0000000425" transform="matrix(1 0 0 1 688.1 11.06)" x="221.397263" y="246.000000" dominant-baseline="hanging" text-anchor="middle" font-size="14.000000px" >
1
</text>

<polyline points="685.1,252.06 688.1,252.06 " fill="none" stroke-width="1.000000" stroke="black" id="id0000000426" class="line" />
<text id="id0000000427" transform="matrix(1 0 0 1 688.1 11.06)" x="-5.000000" y="241.000000" dominant-baseline="middle" text-anchor="end" font-size="14.000000px" >
-10<tspan dy="-7" font-size=".7em">1</tspan>
</text>

<polyline points="685.1,164.128 688.1,164.128 " fill="none" stroke-width="1.000000" stroke="black" id="id0000000428" class="line" />
<text id="id0000000429" transform="matrix(1 0 0 1 688.1 11.06)" x="-5.000000" y="153.067566" dominant-baseline="middle" text-anchor="end" font-size="14.000000px" >
-10<tspan dy="-7" font-size=".7em">-2</tspan>
</text>

<polyline points="685.1,131.56 688.1,131.56 " fill="none" stroke-width="1.000000" stroke="black" id="id0000000430" class="line" />
<text id="id0000000431" transform="matrix(1 0 0 1 688.1 11.06)" x="-5.000000" y="120.500000" dominant-baseline="middle" text-anchor="end" font-size="14.000000px" >
0
</text>

<polyline points="685.1,98.9924 688.1,98.9924 " fill="none" stroke-width="1.000000" stroke="black" id="id0000000432" class="line" />
<text id="id0000000433" transform="matrix(1 0 0 1 688.1 11.06)" x="-5.000000" y="87.932434" dominant-baseline="middle" text-anchor="end" font-size="14.000000px" >
10<tspan dy="-7" font-size=".7em">-2</tspan>
</text>

<polyline points="685.1,11.06 688.1,11.06 " fill="none" stroke-width="1.000000" stroke="black" id="id0000000434" class="line" />
<text id="id0000000435" transform="matrix(1 0 0 1 688.1 11.06)" x="-5.000000" y="0.000000" dominant-baseline="middle" text-anchor="end" font-size="14.000000px" >
10<tspan dy="-7" font-size=".7em">1</tspan>
</text>

<text id="id0000000436" transform="matrix(1 0 0 1 688.1 11.06)" x="113.500000" y="269.000000" text-anchor="middle" font-size="18.000000px" >
linear
</text>

<g id="id0000000300" >
<text id="id0000000437" transform="matrix(-4.37114e-08 -1 1 -4.37114e-08 660.1 131.56)" x="0.000000" y="0.000000" text-anchor="middle" font-size="18.000000px" >
symlog
</text>

</g>

</g>

</g>

<g id="id0000000301" >
<g id="id0000000302" >
<clipPath id="id0000000302clipper" >
<polygon points="82.06,314.08 82.06,555.08 309.06,555.08 309.06,314.08 " id="id0000000438" class="rectangle" />
</clipPath>

<g clip-path="url(#id0000000302clipper)" id="id0000000304" >
<polyline id="id0000000439" points="138.808,432.87 155.893,431.73 165.886,430.591 172.976,429.451 178.476,428.311 182.97,427.171 186.769,426.031 190.06,424.892 192.963,423.752 195.56,422.612 197.909,421.472 200.053,420.332 202.026,419.192 203.853,418.053 205.553,416.913 207.144,415.773 208.638,414.633 210.047,413.493 211.379,412.354 212.643,411.214 213.846,410.074 214.992,408.934 216.088,407.794 217.137,406.654 218.143,405.515 219.11,404.375 220.04,403.235 220.936,402.095 221.801,400.955 222.637,399.816 223.445,398.676 224.227,397.536 224.986,396.396 225.721,395.256 226.436,394.116 227.13,392.977 227.805,391.837 228.463,390.697 229.103,389.557 229.727,388.417 230.335,387.278 230.929,386.138 231.509,384.998 232.076,383.858 232.63,382.718 233.171,381.578 233.702,380.439 234.22,379.299 234.729,378.159 235.227,377.019 235.715,375.879 236.193,374.74 236.663,373.6 237.123,372.46 237.576,371.32 238.02,370.18 238.456,369.041 238.884,367.901 239.306,366.761 239.72,365.621 240.127,364.481 240.528,363.341 240.923,362.202 241.311,361.062 241.693,359.922 242.069,358.782 242.44,357.642 242.805,356.503 243.165,355.363 243.519,354.223 243.869,353.083 244.214,351.943 244.554,350.803 244.889,349.664 245.22,348.524 245.546,347.384 245.868,346.244 246.186,345.104 246.5,343.965 246.81,342.825 247.116,341.685 247.419,340.545 247.718,339.405 248.013,338.265 248.304,337.126 248.593,335.986 248.878,334.846 249.159,333.706 249.438,332.566 249.713,331.427 249.986,330.287 250.255,329.147 250.521,328.007 250.785,326.867 251.046,325.728 251.304,324.588 251.559,323.448 251.812,322.308 252.062,321.168 " fill="none" stroke-opacity="1.000000" stroke-linecap="round" stroke="#1f77b4" stroke-width="1.000000" />
</g>

<polygon points="82.06,314.08 82.06,555.08 309.06,555.08 309.06,314.08 " stroke="black" stroke-width="1.000000" fill="none" id="id0000000440" pointer-events="none" class="rectangle" />
<polyline points="82.06,555.08 82.06,558.08 " fill="none" stroke-width="1.000000" stroke="black" id="id0000000441" class="line" />
<text id="id0000000442" transform="matrix(1 0 0 1 82.06 314.08)" x="0.000000" y="246.000000" dominant-baseline="hanging" text-anchor="middle" font-size="14.000000px" >
10<tspan dy="-7" font-size=".7em">-3</tspan>
</text>

<polyline points="138.81,555.08 138.81,558.08 " fill="none" stroke-width="1.000000" stroke="black" id="id0000000443" class="line" />
<text id="id0000000444" transform="matrix(1 0 0 1 82.06 314.08)" x="56.750000" y="246.000000" dominant-baseline="hanging" text-anchor="middle" font-size="14.000000px" >
10<tspan dy="-7" font-size=".7em">-2</tspan>
</text>

<polyline points="195.56,555.08 195.56,558.08 " fill="none" stroke-width="1.000000" stroke="black" id="id0000000445" class="line" />
<text id="id0000000446" transform="matrix(1 0 0 1 82.06 314.08)" x="113.500000" y="246.000000" dominant-baseline="hanging" text-anchor="middle" font-size="14.000000px" >
10<tspan dy="-7" font-size=".7em">-1</tspan>
</text>

<polyline points="252.31,555.08 252.31,558.08 " fill="none" stroke-width="1.000000" stroke="black" id="id0000000447" class="line" />
<text id="id0000000448" transform="matrix(1 0 0 1 82.06 314.08)" x="170.250000" y="246.000000" dominant-baseline="hanging" text-anchor="middle" font-size="14.000000px" >
10<tspan dy="-7" font-size=".7em">0</tspan>
</text>

<polyline points="309.06,555.08 309.06,558.08 " fill="none" stroke-width="1.000000" stroke="black" id="id0000000449" class="line" />
<text id="id0000000450" transform="matrix(1 0 0 1 82.06 314.08)" x="227.000000" y="246.000000" dominant-baseline="hanging" text-anchor="middle" font-size="14.000000px" >
10<tspan dy="-7" font-size=".7em">1</tspan>
</text>

<polyline points="79.06,547.992 82.06,547.992 " fill="none" stroke-width="1.000000" stroke="black" id="id0000000451" class="line" />
<text id="id0000000452" transform="matrix(1 0 0 1 82.06 314.08)" x="-5.000000" y="233.911774" dominant-baseline="middle" text-anchor="end" font-size="14.000000px" >
-1
</text>

<polyline points="79.06,519.496 82.06,519.496 " fill="none" stroke-width="1.000000" stroke="black" id="id0000000453" class="line" />
<text id="id0000000454" transform="matrix(1 0 0 1 82.06 314.08)" x="-5.000000" y="205.416321" dominant-baseline="middle" text-anchor="end" font-size="14.000000px" >
-0.75
</text>

<polyline points="79.06,491.001 82.06,491.001 " fill="none" stroke-width="1.000000" stroke="black" id="id0000000455" class="line" />
<text id="id0000000456" transform="matrix(1 0 0 1 82.06 314.08)" x="-5.000000" y="176.920898" dominant-baseline="middle" text-anchor="end" font-size="14.000000px" >
-0.5
</text>

<polyline points="79.06,462.505 82.06,462.505 " fill="none" stroke-width="1.000000" stroke="black" id="id0000000457" class="line" />
<text id="id0000000458" transform="matrix(1 0 0 1 82.06 314.08)" x="-5.000000" y="148.425461" dominant-baseline="middle" text-anchor="end" font-size="14.000000px" >
-0.25
</text>

<polyline points="79.06,434.01 82.06,434.01 " fill="none" stroke-width="1.000000" stroke="black" id="id0000000459" class="line" />
<text id="id0000000460" transform="matrix(1 0 0 1 82.06 314.08)" x="-5.000000" y="119.930023" dominant-baseline="middle" text-anchor="end" font-size="14.000000px" >
0
</text>

<polyline points="79.06,405.515 82.06,405.515 " fill="none" stroke-width="1.000000" stroke="black" id="id0000000461" class="line" />
<text id="id0000000462" transform="matrix(1 0 0 1 82.06 314.08)" x="-5.000000" y="91.434586" dominant-baseline="middle" text-anchor="end" font-size="14.000000px" >
0.25
</text>

<polyline points="79.06,377.019 82.06,377.019 " fill="none" stroke-width="1.000000" stroke="black" id="id0000000463" class="line" />
<text id="id0000000464" transform="matrix(1 0 0 1 82.06 314.08)" x="-5.000000" y="62.939148" dominant-baseline="middle" text-anchor="end" font-size="14.000000px" >
0.5
</text>

<polyline points="79.06,348.524 82.06,348.524 " fill="none" stroke-width="1.000000" stroke="black" id="id0000000465" class="line" />
<text id="id0000000466" transform="matrix(1 0 0 1 82.06 314.08)" x="-5.000000" y="34.443710" dominant-baseline="middle" text-anchor="end" font-size="14.000000px" >
0.75
</text>

<polyline points="79.06,320.028 82.06,320.028 " fill="none" stroke-width="1.000000" stroke="black" id="id0000000467" class="line" />
<text id="id0000000468" transform="matrix(1 0 0 1 82.06 314.08)" x="-5.000000" y="5.948273" dominant-baseline="middle" text-anchor="end" font-size="14.000000px" >
1
</text>

<text id="id0000000469" transform="matrix(1 0 0 1 82.06 314.08)" x="113.500000" y="269.000000" text-anchor="middle" font-size="18.000000px" >
log
</text>

<g id="id0000000305" >
<text id="id0000000470" transform="matrix(-4.37114e-08 -1 1 -4.37114e-08 54.06 434.58)" x="0.000000" y="0.000000" text-anchor="middle" font-size="18.000000px" >
linear
</text>

</g>

</g>

</g>

<g id="id0000000306" >
<g id="id0000000307" >
<clipPath id="id0000000307clipper" >
<polygon points="385.08,314.08 385.08,555.08 612.08,555.08 612.08,314.08 " id="id0000000471" class="rectangle" />
</clipPath>

<g clip-path="url(#id0000000307clipper)" id="id0000000309" >
<polyline id="id0000000472" points="441.828,494.832 458.913,476.694 468.906,466.084 475.996,458.556 481.496,452.717 485.99,447.947 489.789,443.913 493.08,440.419 495.983,437.337 498.58,434.58 500.929,432.086 503.073,429.809 505.046,427.715 506.873,425.776 508.573,423.971 510.164,422.282 511.658,420.696 513.067,419.2 514.399,417.785 515.663,416.443 516.866,415.166 518.012,413.949 519.108,412.786 520.157,411.672 521.163,410.604 522.13,409.578 523.06,408.59 523.956,407.639 524.821,406.721 525.657,405.833 526.465,404.975 527.247,404.145 528.006,403.34 528.741,402.558 529.456,401.8 530.15,401.063 530.825,400.346 531.483,399.648 532.123,398.968 532.747,398.306 533.355,397.66 533.949,397.029 534.529,396.414 535.096,395.812 535.65,395.224 536.191,394.649 536.721,394.086 537.24,393.535 537.749,392.996 538.246,392.467 538.734,391.949 539.213,391.441 539.683,390.942 540.143,390.453 540.596,389.973 541.04,389.502 541.476,389.039 541.904,388.583 542.326,388.136 542.74,387.696 543.147,387.264 543.548,386.838 543.943,386.42 544.331,386.008 544.713,385.602 545.089,385.203 545.46,384.809 545.825,384.421 546.185,384.039 546.539,383.663 546.889,383.292 547.234,382.926 547.573,382.565 547.909,382.209 548.24,381.858 548.566,381.511 548.888,381.169 549.206,380.831 549.52,380.498 549.83,380.169 550.136,379.844 550.439,379.523 550.738,379.206 551.033,378.892 551.324,378.583 551.613,378.276 551.898,377.974 552.179,377.675 552.458,377.379 552.733,377.087 553.005,376.798 553.275,376.512 553.541,376.229 553.805,375.949 554.066,375.672 554.324,375.398 554.579,375.127 554.832,374.859 555.082,374.593 " fill="none" stroke-opacity="1.000000" stroke-linecap="round" stroke="#1f77b4" stroke-width="1.000000" />
</g>

<polygon points="385.08,314.08 385.08,555.08 612.08,555.08 612.08,314.08 " stroke="black" stroke-width="1.000000" fill="none" id="id0000000473" pointer-events="none" class="rectangle" />
<polyline points="385.08,555.08 385.08,558.08 " fill="none" stroke-width="1.000000" stroke="black" id="id0000000474" class="line" />
<text id="id0000000475" transform="matrix(1 0 0 1 385.08 314.08)" x="0.000000" y="246.000000" dominant-baseline="hanging" text-anchor="middle" font-size="14.000000px" >
10<tspan dy="-7" font-size=".7em">-3</tspan>
</text>

<polyline points="441.83,555.08 441.83,558.08 " fill="none" stroke-width="1.000000" stroke="black" id="id0000000476" class="line" />
<text id="id0000000477" transform="matrix(1 0 0 1 385.08 314.08)" x="56.750000" y="246.000000" dominant-baseline="hanging" text-anchor="middle" font-size="14.000000px" >
10<tspan dy="-7" font-size=".7em">-2</tspan>
</text>

<polyline points="498.58,555.08 498.58,558.08 " fill="none" stroke-width="1.000000" stroke="black" id="id0000000478" class="line" />
<text id="id0000000479" transform="matrix(1 0 0 1 385.08 314.08)" x="113.500000" y="246.000000" dominant-baseline="hanging" text-anchor="middle" font-size="14.000000px" >
10<tspan dy="-7" font-size=".7em">-1</tspan>
</text>

<polyline points="555.33,555.08 555.33,558.08 " fill="none" stroke-width="1.000000" stroke="black" id="id0000000480" class="line" />
<text id="id0000000481" transform="matrix(1 0 0 1 385.08 314.08)" x="170.250000" y="246.000000" dominant-baseline="hanging" text-anchor="middle" font-size="14.000000px" >
10<tspan dy="-7" font-size=".7em">0</tspan>
</text>

<polyline points="612.08,555.08 612.08,558.08 " fill="none" stroke-width="1.000000" stroke="black" id="id0000000482" class="line" />
<text id="id0000000483" transform="matrix(1 0 0 1 385.08 314.08)" x="227.000000" y="246.000000" dominant-baseline="hanging" text-anchor="middle" font-size="14.000000px" >
10<tspan dy="-7" font-size=".7em">1</tspan>
</text>

<polyline points="382.08,555.08 385.08,555.08 " fill="none" stroke-width="1.000000" stroke="black" id="id0000000484" class="line" />
<text id="id0000000485" transform="matrix(1 0 0 1 385.08 314.08)" x="-5.000000" y="241.000000" dominant-baseline="middle" text-anchor="end" font-size="14.000000px" >
10<tspan dy="-7" font-size=".7em">-3</tspan>
</text>

<polyline points="382.08,494.83 385.08,494.83 " fill="none" stroke-width="1.000000" stroke="black" id="id0000000486" class="line" />
<text id="id0000000487" transform="matrix(1 0 0 1 385.08 314.08)" x="-5.000000" y="180.750000" dominant-baseline="middle" text-anchor="end" font-size="14.000000px" >
10<tspan dy="-7" font-size=".7em">-2</tspan>
</text>

<polyline points="382.08,434.58 385.08,434.58 " fill="none" stroke-width="1.000000" stroke="black" id="id0000000488" class="line" />
<text id="id0000000489" transform="matrix(1 0 0 1 385.08 314.08)" x="-5.000000" y="120.500000" dominant-baseline="middle" text-anchor="end" font-size="14.000000px" >
10<tspan dy="-7" font-size=".7em">-1</tspan>
</text>

<polyline points="382.08,374.33 385.08,374.33 " fill="none" stroke-width="1.000000" stroke="black" id="id0000000490" class="line" />
<text id="id0000000491" transform="matrix(1 0 0 1 385.08 314.08)" x="-5.000000" y="60.250000" dominant-baseline="middle" text-anchor="end" font-size="14.000000px" >
10<tspan dy="-7" font-size=".7em">0</tspan>
</text>

<polyline points="382.08,314.08 385.08,314.08 " fill="none" stroke-width="1.000000" stroke="black" id="id0000000492" class="line" />
<text id="id0000000493" transform="matrix(1 0 0 1 385.08 314.08)" x="-5.000000" y="0.000000" dominant-baseline="middle" text-anchor="end" font-size="14.000000px" >
10<tspan dy="-7" font-size=".7em">1</tspan>
</text>

<text id="id0000000494" transform="matrix(1 0 0 1 385.08 314.08)" x="113.500000" y="269.000000" text-anchor="middle" font-size="18.000000px" >
log
</text>

<g id="id0000000310" >
<text id="id0000000495" transform="matrix(-4.37114e-08 -1 1 -4.37114e-08 357.08 434.58)" x="0.000000" y="0.000000" text-anchor="middle" font-size="18.000000px" >
log
</text>

</g>

</g>

</g>

<g id="id0000000311" >
<g id="id0000000312" >
<clipPath id="id0000000312clipper" >
<polygon points="688.1,314.08 688.1,555.08 915.1,555.08 915.1,314.08 " id="id0000000496" class="rectangle" />
</clipPath>

<g clip-path="url(#id0000000312clipper)" id="id0000000314" >
<polyline id="id0000000497" points="744.848,402.015 761.933,393.189 771.926,388.028 779.016,384.366 784.516,381.525 789.01,379.204 792.809,377.242 796.1,375.542 799.003,374.043 801.6,372.702 803.949,371.488 806.093,370.381 808.066,369.362 809.893,368.419 811.593,367.54 813.184,366.719 814.678,365.947 816.087,365.219 817.419,364.531 818.683,363.878 819.886,363.257 821.032,362.665 822.128,362.099 823.177,361.557 824.183,361.038 825.15,360.538 826.08,360.058 826.976,359.595 827.841,359.148 828.677,358.717 829.485,358.299 830.267,357.895 831.026,357.504 831.761,357.124 832.476,356.755 833.17,356.396 833.845,356.047 834.503,355.708 835.143,355.377 835.767,355.055 836.375,354.74 836.969,354.434 837.549,354.134 838.116,353.842 838.67,353.555 839.211,353.276 839.741,353.002 840.26,352.734 840.769,352.471 841.266,352.214 841.755,351.962 842.233,351.715 842.703,351.473 843.163,351.235 843.616,351.001 844.06,350.772 844.496,350.546 844.924,350.325 845.346,350.107 845.76,349.893 846.167,349.683 846.568,349.476 846.963,349.272 847.351,349.072 847.733,348.874 848.109,348.68 848.48,348.489 848.845,348.3 849.205,348.114 849.559,347.931 849.909,347.751 850.254,347.573 850.594,347.397 850.929,347.224 851.26,347.053 851.586,346.884 851.908,346.718 852.226,346.554 852.54,346.391 852.85,346.231 853.156,346.073 853.459,345.917 853.758,345.763 854.053,345.61 854.344,345.46 854.633,345.311 854.918,345.164 855.199,345.018 855.478,344.874 855.753,344.732 856.026,344.591 856.295,344.452 856.561,344.315 856.825,344.178 857.086,344.044 857.344,343.91 857.599,343.779 857.852,343.648 858.102,343.519 " fill="none" stroke-opacity="1.000000" stroke-linecap="round" stroke="#1f77b4" stroke-width="1.000000" />
</g>

<polygon points="688.1,314.08 688.1,555.08 915.1,555.08 915.1,314.08 " stroke="black" stroke-width="1.000000" fill="none" id="id0000000498" pointer-events="none" class="rectangle" />
<polyline points="688.1,555.08 688.1,558.08 " fill="none" stroke-width="1.000000" stroke="black" id="id0000000499" class="line" />
<text id="id0000000500" transform="matrix(1 0 0 1 688.1 314.08)" x="0.000000" y="246.000000" dominant-baseline="hanging" text-anchor="middle" font-size="14.000000px" >
10<tspan dy="-7" font-size=".7em">-3</tspan>
</text>

<polyline points="744.85,555.08 744.85,558.08 " fill="none" stroke-width="1.000000" stroke="black" id="id0000000501" class="line" />
<text id="id0000000502" transform="matrix(1 0 0 1 688.1 314.08)" x="56.750000" y="246.000000" dominant-baseline="hanging" text-anchor="middle" font-size="14.000000px" >
10<tspan dy="-7" font-size=".7em">-2</tspan>
</text>

<polyline points="801.6,555.08 801.6,558.08 " fill="none" stroke-width="1.000000" stroke="black" id="id0000000503" class="line" />
<text id="id0000000504" transform="matrix(1 0 0 1 688.1 314.08)" x="113.500000" y="246.000000" dominant-baseline="hanging" text-anchor="middle" font-size="14.000000px" >
10<tspan dy="-7" font-size=".7em">-1</tspan>
</text>

<polyline points="858.35,555.08 858.35,558.08 " fill="none" stroke-width="1.000000" stroke="black" id="id0000000505" class="line" />
<text id="id0000000506" transform="matrix(1 0 0 1 688.1 314.08)" x="170.250000" y="246.000000" dominant-baseline="hanging" text-anchor="middle" font-size="14.000000px" >
10<tspan dy="-7" font-size=".7em">0</tspan>
</text>

<polyline points="915.1,555.08 915.1,558.08 " fill="none" stroke-width="1.000000" stroke="black" id="id0000000507" class="line" />
<text id="id0000000508" transform="matrix(1 0 0 1 688.1 314.08)" x="227.000000" y="246.000000" dominant-baseline="hanging" text-anchor="middle" font-size="14.000000px" >
10<tspan dy="-7" font-size=".7em">1</tspan>
</text>

<polyline points="685.1,555.08 688.1,555.08 " fill="none" stroke-width="1.000000" stroke="black" id="id0000000509" class="line" />
<text id="id0000000510" transform="matrix(1 0 0 1 688.1 314.08)" x="-5.000000" y="241.000000" dominant-baseline="middle" text-anchor="end" font-size="14.000000px" >
-10<tspan dy="-7" font-size=".7em">1</tspan>
</text>

<polyline points="685.1,467.148 688.1,467.148 " fill="none" stroke-width="1.000000" stroke="black" id="id0000000511" class="line" />
<text id="id0000000512" transform="matrix(1 0 0 1 688.1 314.08)" x="-5.000000" y="153.067566" dominant-baseline="middle" text-anchor="end" font-size="14.000000px" >
-10<tspan dy="-7" font-size=".7em">-2</tspan>
</text>

<polyline points="685.1,434.58 688.1,434.58 " fill="none" stroke-width="1.000000" stroke="black" id="id0000000513" class="line" />
<text id="id0000000514" transform="matrix(1 0 0 1 688.1 314.08)" x="-5.000000" y="120.500000" dominant-baseline="middle" text-anchor="end" font-size="14.000000px" >
0
</text>

<polyline points="685.1,402.012 688.1,402.012 " fill="none" stroke-width="1.000000" stroke="black" id="id0000000515" class="line" />
<text id="id0000000516" transform="matrix(1 0 0 1 688.1 314.08)" x="-5.000000" y="87.932434" dominant-baseline="middle" text-anchor="end" font-size="14.000000px" >
10<tspan dy="-7" font-size=".7em">-2</tspan>
</text>

<polyline points="685.1,314.08 688.1,314.08 " fill="none" stroke-width="1.000000" stroke="black" id="id0000000517" class="line" />
<text id="id0000000518" transform="matrix(1 0 0 1 688.1 314.08)" x="-5.000000" y="0.000000" dominant-baseline="middle" text-anchor="end" font-size="14.000000px" >
10<tspan dy="-7" font-size=".7em">1</tspan>
</text>

<text id="id0000000519" transform="matrix(1 0 0 1 688.1 314.08)" x="113.500000" y="269.000000" text-anchor="middle" font-size="18.000000px" >
log
</text>

<g id="id0000000315" >
<text id="id0000000520" transform="matrix(-4.37114e-08 -1 1 -4.37114e-08 660.1 434.58)" x="0.000000" y="0.000000" text-anchor="middle" font-size="18.000000px" >
symlog
</text>

</g>

</g>

</g>

<g id="id0000000316" >
<g id="id0000000317" >
<clipPath id="id0000000317clipper" >
<polygon points="82.06,617.1 82.06,858.1 309.06,858.1 309.06,617.1 " id="id0000000521" class="rectangle" />
</clipPath>

<g clip-path="url(#id0000000317clipper)" id="id0000000319" >
<polyline id="id0000000522" points="109.668,851.012 109.789,849.872 109.91,848.732 110.033,847.592 110.158,846.452 110.283,845.313 110.41,844.173 110.538,843.033 110.668,841.893 110.799,840.753 110.931,839.614 111.065,838.474 111.201,837.334 111.338,836.194 111.476,835.054 111.617,833.914 111.759,832.775 111.902,831.635 112.048,830.495 112.195,829.355 112.344,828.215 112.494,827.076 112.647,825.936 112.802,824.796 112.959,823.656 113.117,822.516 113.278,821.376 113.442,820.237 113.607,819.097 113.775,817.957 113.945,816.817 114.117,815.677 114.292,814.538 114.47,813.398 114.65,812.258 114.833,811.118 115.019,809.978 115.208,808.839 115.4,807.699 115.595,806.559 115.793,805.419 115.994,804.279 116.199,803.139 116.408,802 116.62,800.86 116.836,799.72 117.056,798.58 117.28,797.44 117.509,796.301 117.742,795.161 117.979,794.021 118.221,792.881 118.468,791.741 118.721,790.601 118.979,789.462 119.242,788.322 119.512,787.182 119.787,786.042 120.069,784.902 120.358,783.763 120.654,782.623 120.958,781.483 121.269,780.343 121.589,779.203 121.918,778.063 122.256,776.924 122.603,775.784 122.961,774.644 123.33,773.504 123.711,772.364 124.104,771.225 124.51,770.085 124.931,768.945 125.367,767.805 125.82,766.665 126.29,765.526 126.779,764.386 127.29,763.246 127.823,762.106 128.38,760.966 128.965,759.826 129.58,758.687 130.229,757.547 130.914,756.407 131.641,755.267 132.415,754.127 133.242,752.987 134.13,751.848 135.09,750.708 136.133,749.568 137.276,748.428 138.539,747.288 139.952,746.149 141.553,745.009 143.401,743.869 145.587,742.729 148.262,741.589 151.712,740.45 156.573,739.31 164.884,738.17 195.558,737.03 226.234,735.89 234.546,734.75 239.408,733.611 242.857,732.471 245.533,731.331 247.719,730.191 249.567,729.051 251.168,727.911 252.58,726.772 253.844,725.632 254.986,724.492 256.03,723.352 256.989,722.212 257.878,721.073 258.705,719.933 259.479,718.793 260.206,717.653 260.891,716.513 261.54,715.374 262.155,714.234 262.74,713.094 263.297,711.954 263.83,710.814 264.341,709.674 264.83,708.535 265.3,707.395 265.753,706.255 266.189,705.115 266.61,703.975 267.016,702.836 267.409,701.696 267.79,700.556 268.159,699.416 268.517,698.276 268.864,697.136 269.202,695.997 269.531,694.857 269.85,693.717 270.162,692.577 270.465,691.437 270.762,690.298 271.051,689.158 271.333,688.018 271.608,686.878 271.878,685.738 272.141,684.598 272.399,683.459 272.652,682.319 272.899,681.179 273.141,680.039 273.378,678.899 273.611,677.76 273.84,676.62 274.064,675.48 274.284,674.34 274.5,673.2 274.712,672.06 274.921,670.921 275.126,669.781 275.327,668.641 275.525,667.501 275.72,666.361 275.912,665.222 276.101,664.082 276.287,662.942 276.47,661.802 276.65,660.662 276.828,659.523 277.003,658.383 277.175,657.243 277.345,656.103 277.513,654.963 277.678,653.823 277.842,652.684 278.003,651.544 278.161,650.404 278.318,649.264 278.473,648.124 278.626,646.984 278.776,645.845 278.925,644.705 279.072,643.565 279.218,642.425 279.361,641.285 279.503,640.146 279.643,639.006 279.782,637.866 279.919,636.726 280.055,635.586 280.189,634.447 280.321,633.307 280.452,632.167 280.582,631.027 280.71,629.887 280.837,628.747 280.962,627.608 281.087,626.468 281.21,625.328 281.331,624.188 " fill="none" stroke-opacity="1.000000" stroke-linecap="round" stroke="#1f77b4" stroke-width="1.000000" />
</g>

<polygon points="82.06,617.1 82.06,858.1 309.06,858.1 309.06,617.1 " stroke="black" stroke-width="1.000000" fill="none" id="id0000000523" pointer-events="none" class="rectangle" />
<polyline points="82.06,858.1 82.06,861.1 " fill="none" stroke-width="1.000000" stroke="black" id="id0000000524" class="line" />
<text id="id0000000525" transform="matrix(1 0 0 1 82.06 617.1)" x="0.000000" y="246.000000" dominant-baseline="hanging" text-anchor="middle" font-size="14.000000px" >
-10<tspan dy="-7" font-size=".7em">1</tspan>
</text>

<polyline points="164.884,858.1 164.884,861.1 " fill="none" stroke-width="1.000000" stroke="black" id="id0000000526" class="line" />
<text id="id0000000527" transform="matrix(1 0 0 1 82.06 617.1)" x="82.824326" y="246.000000" dominant-baseline="hanging" text-anchor="middle" font-size="14.000000px" >
-10<tspan dy="-7" font-size=".7em">-2</tspan>
</text>

<polyline points="195.56,858.1 195.56,861.1 " fill="none" stroke-width="1.000000" stroke="black" id="id0000000528" class="line" />
<text id="id0000000529" transform="matrix(1 0 0 1 82.06 617.1)" x="113.499992" y="246.000000" dominant-baseline="hanging" text-anchor="middle" font-size="14.000000px" >
0
</text>

<polyline points="226.236,858.1 226.236,861.1 " fill="none" stroke-width="1.000000" stroke="black" id="id0000000530" class="line" />
<text id="id0000000531" transform="matrix(1 0 0 1 82.06 617.1)" x="144.175674" y="246.000000" dominant-baseline="hanging" text-anchor="middle" font-size="14.000000px" >
10<tspan dy="-7" font-size=".7em">-2</tspan>
</text>

<polyline points="309.06,858.1 309.06,861.1 " fill="none" stroke-width="1.000000" stroke="black" id="id0000000532" class="line" />
<text id="id0000000533" transform="matrix(1 0 0 1 82.06 617.1)" x="226.999985" y="246.000000" dominant-baseline="hanging" text-anchor="middle" font-size="14.000000px" >
10<tspan dy="-7" font-size=".7em">1</tspan>
</text>

<polyline points="79.06,851.012 82.06,851.012 " fill="none" stroke-width="1.000000" stroke="black" id="id0000000534" class="line" />
<text id="id0000000535" transform="matrix(1 0 0 1 82.06 617.1)" x="-5.000000" y="233.911774" dominant-baseline="middle" text-anchor="end" font-size="14.000000px" >
-1
</text>

<polyline points="79.06,822.516 82.06,822.516 " fill="none" stroke-width="1.000000" stroke="black" id="id0000000536" class="line" />
<text id="id0000000537" transform="matrix(1 0 0 1 82.06 617.1)" x="-5.000000" y="205.416321" dominant-baseline="middle" text-anchor="end" font-size="14.000000px" >
-0.75
</text>

<polyline points="79.06,794.021 82.06,794.021 " fill="none" stroke-width="1.000000" stroke="black" id="id0000000538" class="line" />
<text id="id0000000539" transform="matrix(1 0 0 1 82.06 617.1)" x="-5.000000" y="176.920898" dominant-baseline="middle" text-anchor="end" font-size="14.000000px" >
-0.5
</text>

<polyline points="79.06,765.525 82.06,765.525 " fill="none" stroke-width="1.000000" stroke="black" id="id0000000540" class="line" />
<text id="id0000000541" transform="matrix(1 0 0 1 82.06 617.1)" x="-5.000000" y="148.425461" dominant-baseline="middle" text-anchor="end" font-size="14.000000px" >
-0.25
</text>

<polyline points="79.06,737.03 82.06,737.03 " fill="none" stroke-width="1.000000" stroke="black" id="id0000000542" class="line" />
<text id="id0000000543" transform="matrix(1 0 0 1 82.06 617.1)" x="-5.000000" y="119.930023" dominant-baseline="middle" text-anchor="end" font-size="14.000000px" >
0
</text>

<polyline points="79.06,708.535 82.06,708.535 " fill="none" stroke-width="1.000000" stroke="black" id="id0000000544" class="line" />
<text id="id0000000545" transform="matrix(1 0 0 1 82.06 617.1)" x="-5.000000" y="91.434586" dominant-baseline="middle" text-anchor="end" font-size="14.000000px" >
0.25
</text>

<polyline points="79.06,680.039 82.06,680.039 " fill="none" stroke-width="1.000000" stroke="black" id="id0000000546" class="line" />
<text id="id0000000547" transform="matrix(1 0 0 1 82.06 617.1)" x="-5.000000" y="62.939148" dominant-baseline="middle" text-anchor="end" font-size="14.000000px" >
0.5
</text>

<polyline points="79.06,651.544 82.06,651.544 " fill="none" stroke-width="1.000000" stroke="black" id="id0000000548" class="line" />
<text id="id0000000549" transform="matrix(1 0 0 1 82.06 617.1)" x="-5.000000" y="34.443710" dominant-baseline="middle" text-anchor="end" font-size="14.000000px" >
0.75
</text>

<polyline points="79.06,623.048 82.06,623.048 " fill="none" stroke-width="1.000000" stroke="black" id="id0000000550" class="line" />
<text id="id0000000551" transform="matrix(1 0 0 1 82.06 617.1)" x="-5.000000" y="5.948273" dominant-baseline="middle" text-anchor="end" font-size="14.000000px" >
1
</text>

<text id="id0000000552" transform="matrix(1 0 0 1 82.06 617.1)" x="113.500000" y="269.000000" text-anchor="middle" font-size="18.000000px" >
symlog
</text>

<g id="id0000000320" >
<text id="id0000000553" transform="matrix(-4.37114e-08 -1 1 -4.37114e-08 54.06 737.6)" x="0.000000" y="0.000000" text-anchor="middle" font-size="18.000000px" >
linear
</text>

</g>

</g>

</g>

<g id="id0000000321" >
<g id="id0000000322" >
<clipPath id="id0000000322clipper" >
<polygon points="385.08,617.1 385.08,858.1 612.08,858.1 612.08,617.1 " id="id0000000554" class="rectangle" />
</clipPath>

<g clip-path="url(#id0000000322clipper)" id="id0000000324" >
<polyline id="id0000000555" points="529.254,797.852 537.566,779.714 542.428,769.104 545.877,761.576 548.553,755.737 550.739,750.967 552.587,746.933 554.188,743.439 555.6,740.357 556.864,737.6 558.006,735.106 559.05,732.829 560.009,730.735 560.898,728.796 561.725,726.991 562.499,725.302 563.226,723.716 563.911,722.22 564.56,720.805 565.175,719.463 565.76,718.186 566.317,716.969 566.85,715.806 567.361,714.692 567.85,713.624 568.32,712.598 568.773,711.61 569.209,710.659 569.63,709.741 570.036,708.853 570.429,707.995 570.81,707.165 571.179,706.36 571.537,705.578 571.884,704.82 572.222,704.083 572.551,703.366 572.87,702.668 573.182,701.988 573.485,701.326 573.782,700.68 574.07,700.049 574.353,699.434 574.628,698.832 574.898,698.244 575.161,697.669 575.419,697.106 575.672,696.555 575.919,696.016 576.161,695.487 576.398,694.969 576.631,694.461 576.86,693.962 577.084,693.473 577.304,692.993 577.52,692.522 577.732,692.059 577.941,691.603 578.146,691.156 578.347,690.716 578.545,690.284 578.74,689.858 578.932,689.44 579.121,689.028 579.307,688.622 579.49,688.222 579.67,687.829 579.848,687.441 580.023,687.059 580.195,686.683 580.365,686.312 580.533,685.946 580.698,685.585 580.862,685.229 581.023,684.878 581.181,684.531 581.338,684.189 581.493,683.851 581.646,683.518 581.796,683.189 581.945,682.864 582.092,682.543 582.238,682.226 582.381,681.912 582.523,681.603 582.663,681.297 582.802,680.994 582.939,680.695 583.075,680.399 583.209,680.107 583.341,679.818 583.472,679.532 583.602,679.249 583.73,678.969 583.857,678.692 583.982,678.418 584.107,678.147 584.23,677.879 584.351,677.613 " fill="none" stroke-opacity="1.000000" stroke-linecap="round" stroke="#1f77b4" stroke-width="1.000000" />
</g>

<polygon points="385.08,617.1 385.08,858.1 612.08,858.1 612.08,617.1 " stroke="black" stroke-width="1.000000" fill="none" id="id0000000556" pointer-events="none" class="rectangle" />
<polyline points="385.08,858.1 385.08,861.1 " fill="none" stroke-width="1.000000" stroke="black" id="id0000000557" class="line" />
<text id="id0000000558" transform="matrix(1 0 0 1 385.08 617.1)" x="0.000000" y="246.000000" dominant-baseline="hanging" text-anchor="middle" font-size="14.000000px" >
-10<tspan dy="-7" font-size=".7em">1</tspan>
</text>

<polyline points="467.904,858.1 467.904,861.1 " fill="none" stroke-width="1.000000" stroke="black" id="id0000000559" class="line" />
<text id="id0000000560" transform="matrix(1 0 0 1 385.08 617.1)" x="82.824326" y="246.000000" dominant-baseline="hanging" text-anchor="middle" font-size="14.000000px" >
-10<tspan dy="-7" font-size=".7em">-2</tspan>
</text>

<polyline points="498.58,858.1 498.58,861.1 " fill="none" stroke-width="1.000000" stroke="black" id="id0000000561" class="line" />
<text id="id0000000562" transform="matrix(1 0 0 1 385.08 617.1)" x="113.499992" y="246.000000" dominant-baseline="hanging" text-anchor="middle" font-size="14.000000px" >
0
</text>

<polyline points="529.256,858.1 529.256,861.1 " fill="none" stroke-width="1.000000" stroke="black" id="id0000000563" class="line" />
<text id="id0000000564" transform="matrix(1 0 0 1 385.08 617.1)" x="144.175674" y="246.000000" dominant-baseline="hanging" text-anchor="middle" font-size="14.000000px" >
10<tspan dy="-7" font-size=".7em">-2</tspan>
</text>

<polyline points="612.08,858.1 612.08,861.1 " fill="none" stroke-width="1.000000" stroke="black" id="id0000000565" class="line" />
<text id="id0000000566" transform="matrix(1 0 0 1 385.08 617.1)" x="226.999985" y="246.000000" dominant-baseline="hanging" text-anchor="middle" font-size="14.000000px" >
10<tspan dy="-7" font-size=".7em">1</tspan>
</text>

<polyline points="382.08,858.1 385.08,858.1 " fill="none" stroke-width="1.000000" stroke="black" id="id0000000567" class="line" />
<text id="id0000000568" transform="matrix(1 0 0 1 385.08 617.1)" x="-5.000000" y="241.000000" dominant-baseline="middle" text-anchor="end" font-size="14.000000px" >
10<tspan dy="-7" font-size=".7em">-3</tspan>
</text>

<polyline points="382.08,797.85 385.08,797.85 " fill="none" stroke-width="1.000000" stroke="black" id="id0000000569" class="line" />
<text id="id0000000570" transform="matrix(1 0 0 1 385.08 617.1)" x="-5.000000" y="180.750000" dominant-baseline="middle" text-anchor="end" font-size="14.000000px" >
10<tspan dy="-7" font-size=".7em">-2</tspan>
</text>

<polyline points="382.08,737.6 385.08,737.6 " fill="none" stroke-width="1.000000" stroke="black" id="id0000000571" class="line" />
<text id="id0000000572" transform="matrix(1 0 0 1 385.08 617.1)" x="-5.000000" y="120.500000" dominant-baseline="middle" text-anchor="end" font-size="14.000000px" >
10<tspan dy="-7" font-size=".7em">-1</tspan>
</text>

<polyline points="382.08,677.35 385.08,677.35 " fill="none" stroke-width="1.000000" stroke="black" id="id0000000573" class="line" />
<text id="id0000000574" transform="matrix(1 0 0 1 385.08 617.1)" x="-5.000000" y="60.250000" dominant-baseline="middle" text-anchor="end" font-size="14.000000px" >
10<tspan dy="-7" font-size=".7em">0</tspan>
</text>

<polyline points="382.08,617.1 385.08,617.1 " fill="none" stroke-width="1.000000" stroke="black" id="id0000000575" class="line" />
<text id="id0000000576" transform="matrix(1 0 0 1 385.08 617.1)" x="-5.000000" y="0.000000" dominant-baseline="middle" text-anchor="end" font-size="14.000000px" >
10<tspan dy="-7" font-size=".7em">1</tspan>
</text>

<text id="id0000000577" transform="matrix(1 0 0 1 385.08 617.1)" x="113.500000" y="269.000000" text-anchor="middle" font-size="18.000000px" >
symlog
</text>

<g id="id0000000325" >
<text id="id0000000578" transform="matrix(-4.37114e-08 -1 1 -4.37114e-08 357.08 737.6)" x="0.000000" y="0.000000" text-anchor="middle" font-size="18.000000px" >
log
</text>

</g>

</g>

</g>

<g id="id0000000326" >
<g id="id0000000327" >
<clipPath id="id0000000327clipper" >
<polygon points="688.1,617.1 688.1,858.1 915.1,858.1 915.1,617.1 " id="id0000000579" class="rectangle" />
</clipPath>

<g clip-path="url(#id0000000327clipper)" id="id0000000329" >
<polyline id="id0000000580" points="715.708,828.789 715.829,828.661 715.95,828.532 716.073,828.401 716.198,828.27 716.323,828.136 716.45,828.002 716.578,827.865 716.708,827.728 716.839,827.589 716.971,827.448 717.105,827.306 717.241,827.162 717.378,827.016 717.516,826.869 717.657,826.72 717.799,826.57 717.942,826.417 718.088,826.263 718.235,826.107 718.384,825.949 718.534,825.789 718.687,825.626 718.842,825.462 718.999,825.296 719.157,825.127 719.318,824.956 719.482,824.783 719.647,824.607 719.815,824.429 719.985,824.249 720.157,824.066 720.332,823.88 720.51,823.691 720.69,823.5 720.873,823.306 721.059,823.108 721.248,822.908 721.44,822.704 721.635,822.497 721.833,822.287 722.034,822.073 722.239,821.855 722.448,821.634 722.66,821.408 722.876,821.179 723.096,820.945 723.32,820.707 723.549,820.465 723.781,820.218 724.019,819.966 724.261,819.709 724.508,819.446 724.761,819.178 725.019,818.904 725.282,818.625 725.552,818.339 725.827,818.046 726.109,817.746 726.398,817.44 726.694,817.125 726.998,816.803 727.309,816.472 727.629,816.133 727.958,815.784 728.295,815.425 728.643,815.056 729.001,814.676 729.37,814.285 729.751,813.881 730.144,813.463 730.55,813.032 730.971,812.585 731.407,812.122 731.859,811.642 732.33,811.142 732.819,810.623 733.33,810.081 733.863,809.515 734.42,808.923 735.005,808.302 735.62,807.649 736.269,806.961 736.954,806.233 737.681,805.461 738.455,804.64 739.282,803.762 740.17,802.818 741.13,801.799 742.173,800.692 743.316,799.478 744.579,798.137 745.992,796.638 747.593,794.938 749.441,792.976 751.627,790.655 754.302,787.815 757.752,784.153 762.613,778.991 770.924,770.168 801.598,737.602 832.274,705.035 840.586,696.209 845.448,691.048 848.897,687.386 851.573,684.545 853.759,682.224 855.607,680.262 857.208,678.562 858.62,677.063 859.884,675.722 861.026,674.508 862.07,673.401 863.029,672.382 863.918,671.439 864.745,670.56 865.519,669.739 866.246,668.967 866.931,668.239 867.58,667.551 868.195,666.898 868.78,666.277 869.337,665.685 869.87,665.119 870.381,664.577 870.87,664.058 871.34,663.558 871.793,663.078 872.229,662.615 872.65,662.168 873.056,661.737 873.449,661.319 873.83,660.915 874.199,660.524 874.557,660.144 874.904,659.775 875.242,659.416 875.571,659.067 875.89,658.728 876.202,658.397 876.505,658.075 876.802,657.76 877.09,657.454 877.373,657.154 877.648,656.862 877.918,656.575 878.181,656.296 878.439,656.022 878.692,655.754 878.939,655.491 879.181,655.234 879.418,654.982 879.651,654.735 879.88,654.492 880.104,654.255 880.324,654.021 880.54,653.792 880.752,653.566 880.961,653.345 881.166,653.127 881.367,652.913 881.565,652.703 881.76,652.496 881.952,652.292 882.141,652.092 882.327,651.894 882.51,651.7 882.69,651.509 882.868,651.32 883.043,651.134 883.215,650.951 883.385,650.771 883.553,650.593 883.718,650.417 883.882,650.244 884.043,650.073 884.201,649.904 884.358,649.738 884.513,649.574 884.666,649.411 884.816,649.251 884.965,649.093 885.112,648.937 885.258,648.783 885.401,648.63 885.543,648.48 885.683,648.331 885.822,648.184 885.959,648.038 886.095,647.894 886.229,647.752 886.361,647.611 886.492,647.472 886.622,647.335 886.75,647.198 886.877,647.064 887.002,646.93 887.127,646.799 887.25,646.668 887.371,646.539 " fill="none" stroke-opacity="1.000000" stroke-linecap="round" stroke="#1f77b4" stroke-width="1.000000" />
</g>

<polygon points="688.1,617.1 688.1,858.1 915.1,858.1 915.1,617.1 " stroke="black" stroke-width="1.000000" fill="none" id="id0000000581" pointer-events="none" class="rectangle" />
<polyline points="688.1,858.1 688.1,861.1 " fill="none" stroke-width="1.000000" stroke="black" id="id0000000582" class="line" />
<text id="id0000000583" transform="matrix(1 0 0 1 688.1 617.1)" x="0.000000" y="246.000000" dominant-baseline="hanging" text-anchor="middle" font-size="14.000000px" >
-10<tspan dy="-7" font-size=".7em">1</tspan>
</text>

<polyline points="770.924,858.1 770.924,861.1 " fill="none" stroke-width="1.000000" stroke="black" id="id0000000584" class="line" />
<text id="id0000000585" transform="matrix(1 0 0 1 688.1 617.1)" x="82.824326" y="246.000000" dominant-baseline="hanging" text-anchor="middle" font-size="14.000000px" >
-10<tspan dy="-7" font-size=".7em">-2</tspan>
</text>

<polyline points="801.6,858.1 801.6,861.1 " fill="none" stroke-width="1.000000" stroke="black" id="id0000000586" class="line" />
<text id="id0000000587" transform="matrix(1 0 0 1 688.1 617.1)" x="113.499992" y="246.000000" dominant-baseline="hanging" text-anchor="middle" font-size="14.000000px" >
0
</text>

<polyline points="832.276,858.1 832.276,861.1 " fill="none" stroke-width="1.000000" stroke="black" id="id0000000588" class="line" />
<text id="id0000000589" transform="matrix(1 0 0 1 688.1 617.1)" x="144.175674" y="246.000000" dominant-baseline="hanging" text-anchor="middle" font-size="14.000000px" >
10<tspan dy="-7" font-size=".7em">-2</tspan>
</text>

<polyline points="915.1,858.1 915.1,861.1 " fill="none" stroke-width="1.000000" stroke="black" id="id0000000590" class="line" />
<text id="id0000000591" transform="matrix(1 0 0 1 688.1 617.1)" x="226.999985" y="246.000000" dominant-baseline="hanging" text-anchor="middle" font-size="14.000000px" >
10<tspan dy="-7" font-size=".7em">1</tspan>
</text>

<polyline points="685.1,858.1 688.1,858.1 " fill="none" stroke-width="1.000000" stroke="black" id="id0000000592" class="line" />
<text id="id0000000593" transform="matrix(1 0 0 1 688.1 617.1)" x="-5.000000" y="241.000000" dominant-baseline="middle" text-anchor="end" font-size="14.000000px" >
-10<tspan dy="-7" font-size=".7em">1</tspan>
</text>

<polyline points="685.1,770.168 688.1,770.168 " fill="none" stroke-width="1.000000" stroke="black" id="id0000000594" class="line" />
<text id="id0000000595" transform="matrix(1 0 0 1 688.1 617.1)" x="-5.000000" y="153.067566" dominant-baseline="middle" text-anchor="end" font-size="14.000000px" >
-10<tspan dy="-7" font-size=".7em">-2</tspan>
</text>

<polyline points="685.1,737.6 688.1,737.6 " fill="none" stroke-width="1.000000" stroke="black" id="id0000000596" class="line" />
<text id="id0000000597" transform="matrix(1 0 0 1 688.1 617.1)" x="-5.000000" y="120.500000" dominant-baseline="middle" text-anchor="end" font-size="14.000000px" >
0
</text>

<polyline points="685.1,705.032 688.1,705.032 " fill="none" stroke-width="1.000000" stroke="black" id="id0000000598" class="line" />
<text id="id0000000599" transform="matrix(1 0 0 1 688.1 617.1)" x="-5.000000" y="87.932434" dominant-baseline="middle" text-anchor="end" font-size="14.000000px" >
10<tspan dy="-7" font-size=".7em">-2</tspan>
</text>

<polyline points="685.1,617.1 688.1,617.1 " fill="none" stroke-width="1.000000" stroke="black" id="id0000000600" class="line" />
<text id="id0000000601" transform="matrix(1 0 0 1 688.1 617.1)" x="-5.000000" y="0.000000" dominant-baseline="middle" text-anchor="end" font-size="14.000000px" >
10<tspan dy="-7" font-size=".7em">1</tspan>
</text>

<text id="id0000000602" transform="matrix(1 0 0 1 688.1 617.1)" x="113.500000" y="269.000000" text-anchor="middle" font-size="18.000000px" >
symlog
</text>

<g id="id0000000330" >
<text id="id0000000603" transform="matrix(-4.37114e-08 -1 1 -4.37114e-08 660.1 737.6)" x="0.000000" y="0.000000" text-anchor="middle" font-size="18.000000px" >
symlog
</text>

</g>

</g>

</g>


</g>

</svg>
