<svg viewBox="0 0 926.12 926.12" height="100%" width="100%" xmlns:xlink="http://www.w3.org/1999/xlink" xmlns="http://www.w3.org/2000/svg" id="id0000000200" >
<g id="id0000000201" >
<g id="id0000000202" >
<g id="id0000000203" >
<clipPath id="id0000000203clipper" >
<polygon points="82.06,11.06 82.06,252.06 309.06,252.06 309.06,11.06 " id="id0000000247" class="rectangle" />
</clipPath>

<g clip-path="url(#id0000000203clipper)" id="id0000000205" >
<polyline id="id0000000248" points="82.06,252.06 83.2007,250.849 84.3414,249.638 85.4821,248.427 86.6228,247.216 87.7635,246.005 88.9042,244.794 90.0449,243.583 91.1856,242.372 92.3263,241.161 93.467,239.949 94.6077,238.738 95.7484,237.527 96.8891,236.316 98.0298,235.105 99.1706,233.894 100.311,232.683 101.452,231.472 102.593,230.261 103.733,229.05 104.874,227.839 106.015,226.628 107.155,225.417 108.296,224.206 109.437,222.995 110.578,221.784 111.718,220.573 112.859,219.362 114,218.15 115.14,216.939 116.281,215.728 117.422,214.517 118.563,213.306 119.703,212.095 120.844,210.884 121.985,209.673 123.125,208.462 124.266,207.251 125.407,206.04 126.547,204.829 127.688,203.618 128.829,202.407 129.97,201.196 131.11,199.985 132.251,198.774 133.392,197.563 134.532,196.351 135.673,195.14 136.814,193.929 137.954,192.718 139.095,191.507 140.236,190.296 141.377,189.085 142.517,187.874 143.658,186.663 144.799,185.452 145.939,184.241 147.08,183.03 148.221,181.819 149.361,180.608 150.502,179.397 151.643,178.186 152.784,176.975 153.924,175.764 155.065,174.552 156.206,173.341 157.346,172.13 158.487,170.919 159.628,169.708 160.769,168.497 161.909,167.286 163.05,166.075 164.191,164.864 165.331,163.653 166.472,162.442 167.613,161.231 168.753,160.02 169.894,158.809 171.035,157.598 172.176,156.387 173.316,155.176 174.457,153.965 175.598,152.753 176.738,151.542 177.879,150.331 179.02,149.12 180.16,147.909 181.301,146.698 182.442,145.487 183.583,144.276 184.723,143.065 185.864,141.854 187.005,140.643 188.145,139.432 189.286,138.221 190.427,137.01 191.568,135.799 192.708,134.588 193.849,133.377 194.99,132.166 196.13,130.954 197.271,129.743 198.412,128.532 199.552,127.321 200.693,126.11 201.834,124.899 202.975,123.688 204.115,122.477 205.256,121.266 206.397,120.055 207.537,118.844 208.678,117.633 209.819,116.422 210.96,115.211 212.1,114 213.241,112.789 214.382,111.578 215.522,110.367 216.663,109.155 217.804,107.944 218.944,106.733 220.085,105.522 221.226,104.311 222.367,103.1 223.507,101.889 224.648,100.678 225.789,99.467 226.929,98.256 228.07,97.0449 229.211,95.8338 230.351,94.6228 231.492,93.4117 232.633,92.2007 233.774,90.9896 234.914,89.7786 236.055,88.5675 237.196,87.3565 238.336,86.1454 239.477,84.9344 240.618,83.7233 241.759,82.5122 242.899,81.3012 244.04,80.0901 245.181,78.8791 246.321,77.668 247.462,76.457 248.603,75.2459 249.743,74.0349 250.884,72.8238 252.025,71.6127 253.166,70.4017 254.306,69.1906 255.447,67.9796 256.588,66.7685 257.728,65.5575 258.869,64.3464 260.01,63.1354 261.15,61.9243 262.291,60.7132 263.432,59.5022 264.573,58.2911 265.713,57.0801 266.854,55.869 267.995,54.658 269.135,53.4469 270.276,52.2359 271.417,51.0248 272.557,49.8138 273.698,48.6027 274.839,47.3916 275.98,46.1806 277.12,44.9695 278.261,43.7585 279.402,42.5474 280.542,41.3364 281.683,40.1253 282.824,38.9143 283.965,37.7032 285.105,36.4921 286.246,35.2811 287.387,34.07 288.527,32.859 289.668,31.6479 290.809,30.4369 291.949,29.2258 293.09,28.0148 294.231,26.8037 295.372,25.5927 296.512,24.3816 297.653,23.1705 298.794,21.9595 299.934,20.7484 301.075,19.5374 302.216,18.3263 303.357,17.1153 304.497,15.9042 305.638,14.6932 306.779,13.4821 307.919,12.2711 309.06,11.06 " fill="none" stroke-opacity="1.000000" stroke-linecap="round" stroke="#1f77b4" stroke-width="1.000000" />
</g>

<polygon points="82.06,11.06 82.06,252.06 309.06,252.06 309.06,11.06 " stroke="black" stroke-width="1.000000" fill="none" id="id0000000249" pointer-events="none" class="rectangle" />
<polyline points="82.06,252.06 82.06,255.06 " fill="none" stroke-width="1.000000" stroke="black" id="id0000000250" class="line" />
<text id="id0000000251" transform="matrix(1 0 0 1 82.06 11.06)" x="0.000000" y="246.000000" dominant-baseline="hanging" text-anchor="middle" font-size="14.000000px" >
-1
</text>

<polyline points="139.095,252.06 139.095,255.06 " fill="none" stroke-width="1.000000" stroke="black" id="id0000000252" class="line" />
<text id="id0000000253" transform="matrix(1 0 0 1 82.06 11.06)" x="57.035213" y="246.000000" dominant-baseline="hanging" text-anchor="middle" font-size="14.000000px" >
-0.5
</text>

<polyline points="196.13,252.06 196.13,255.06 " fill="none" stroke-width="1.000000" stroke="black" id="id0000000254" class="line" />
<text id="id0000000255" transform="matrix(1 0 0 1 82.06 11.06)" x="114.070427" y="246.000000" dominant-baseline="hanging" text-anchor="middle" font-size="14.000000px" >
0
</text>

<polyline points="253.166,252.06 253.166,255.06 " fill="none" stroke-width="1.000000" stroke="black" id="id0000000256" class="line" />
<text id="id0000000257" transform="matrix(1 0 0 1 82.06 11.06)" x="171.105637" y="246.000000" dominant-baseline="hanging" text-anchor="middle" font-size="14.000000px" >
0.5
</text>

<polyline points="310.201,252.06 310.201,255.06 " fill="none" stroke-width="1.000000" stroke="black" id="id0000000258" class="line" />
<text id="id0000000259" transform="matrix(1 0 0 1 82.06 11.06)" x="228.140854" y="246.000000" dominant-baseline="hanging" text-anchor="middle" font-size="14.000000px" >
1
</text>

<polyline points="79.06,252.06 82.06,252.06 " fill="none" stroke-width="1.000000" stroke="black" id="id0000000260" class="line" />
<text id="id0000000261" transform="matrix(1 0 0 1 82.06 11.06)" x="-5.000000" y="241.000000" dominant-baseline="middle" text-anchor="end" font-size="14.000000px" >
-1
</text>

<polyline points="79.06,191.507 82.06,191.507 " fill="none" stroke-width="1.000000" stroke="black" id="id0000000262" class="line" />
<text id="id0000000263" transform="matrix(1 0 0 1 82.06 11.06)" x="-5.000000" y="180.447205" dominant-baseline="middle" text-anchor="end" font-size="14.000000px" >
-0.5
</text>

<polyline points="79.06,130.954 82.06,130.954 " fill="none" stroke-width="1.000000" stroke="black" id="id0000000264" class="line" />
<text id="id0000000265" transform="matrix(1 0 0 1 82.06 11.06)" x="-5.000000" y="119.894394" dominant-baseline="middle" text-anchor="end" font-size="14.000000px" >
0
</text>

<polyline points="79.06,70.4016 82.06,70.4016 " fill="none" stroke-width="1.000000" stroke="black" id="id0000000266" class="line" />
<text id="id0000000267" transform="matrix(1 0 0 1 82.06 11.06)" x="-5.000000" y="59.341583" dominant-baseline="middle" text-anchor="end" font-size="14.000000px" >
0.5
</text>

<polyline points="79.06,9.84878 82.06,9.84878 " fill="none" stroke-width="1.000000" stroke="black" id="id0000000268" class="line" />
<text id="id0000000269" transform="matrix(1 0 0 1 82.06 11.06)" x="-5.000000" y="-1.211212" dominant-baseline="middle" text-anchor="end" font-size="14.000000px" >
1
</text>

<text id="id0000000270" transform="matrix(1 0 0 1 82.06 11.06)" x="113.500000" y="269.000000" text-anchor="middle" font-size="18.000000px" >
linear
</text>

<g id="id0000000206" >
<text id="id0000000271" transform="matrix(-4.37114e-08 -1 1 -4.37114e-08 54.06 131.56)" x="0.000000" y="0.000000" text-anchor="middle" font-size="18.000000px" >
linear
</text>

</g>

</g>

</g>

<g id="id0000000207" >
<g id="id0000000208" >
<clipPath id="id0000000208clipper" >
<polygon points="385.08,11.06 385.08,252.06 612.08,252.06 612.08,11.06 " id="id0000000272" class="rectangle" />
</clipPath>

<g clip-path="url(#id0000000208clipper)" id="id0000000210" >
<polyline id="id0000000273" points="385.08,171.729 387.396,147.545 389.713,133.399 392.029,123.362 394.345,115.577 396.662,109.216 398.978,103.837 401.294,99.1787 403.611,95.0694 405.927,91.3936 408.243,88.0683 410.56,85.0326 412.876,82.2401 415.192,79.6545 417.509,77.2475 419.825,74.9958 422.141,72.8807 424.458,70.8866 426.774,69.0002 429.09,67.2107 431.407,65.5085 433.723,63.8855 436.039,62.3346 438.356,60.8498 440.672,59.4256 442.988,58.0572 445.305,56.7405 447.621,55.4717 449.937,54.2474 452.254,53.0647 454.57,51.9207 456.886,50.813 459.202,49.7394 461.519,48.6979 463.835,47.6866 466.151,46.7038 468.468,45.7479 470.784,44.8174 473.1,43.9112 475.417,43.0279 477.733,42.1664 480.049,41.3257 482.366,40.5048 484.682,39.7027 486.998,38.9187 489.315,38.1518 491.631,37.4015 493.947,36.667 496.264,35.9476 498.58,35.2428 500.896,34.5519 503.213,33.8744 505.529,33.2099 507.845,32.5578 510.162,31.9176 512.478,31.2889 514.794,30.6714 517.111,30.0647 519.427,29.4683 521.743,28.8819 524.06,28.3052 526.376,27.7379 528.692,27.1797 531.009,26.6303 533.325,26.0893 535.641,25.5567 537.958,25.032 540.274,24.5152 542.59,24.0058 544.907,23.5038 547.223,23.009 549.539,22.521 551.856,22.0398 554.172,21.5651 556.488,21.0968 558.805,20.6347 561.121,20.1786 563.437,19.7284 565.753,19.284 568.07,18.8451 570.386,18.4117 572.702,17.9837 575.019,17.5608 577.335,17.1429 579.651,16.7301 581.968,16.322 584.284,15.9187 586.6,15.5199 588.917,15.1257 591.233,14.7359 593.549,14.3504 595.866,13.9691 598.182,13.5919 600.498,13.2188 602.815,12.8496 605.131,12.4842 607.447,12.1227 609.764,11.7649 612.08,11.4107 " fill="none" stroke-opacity="1.000000" stroke-linecap="round" stroke="#1f77b4" stroke-width="1.000000" />
</g>

<polygon points="385.08,11.06 385.08,252.06 612.08,252.06 612.08,11.06 " stroke="black" stroke-width="1.000000" fill="none" id="id0000000274" pointer-events="none" class="rectangle" />
<polyline points="429.09,252.06 429.09,255.06 " fill="none" stroke-width="1.000000" stroke="black" id="id0000000275" class="line" />
<text id="id0000000276" transform="matrix(1 0 0 1 385.08 11.06)" x="44.010387" y="246.000000" dominant-baseline="hanging" text-anchor="middle" font-size="14.000000px" >
0.2
</text>

<polyline points="475.417,252.06 475.417,255.06 " fill="none" stroke-width="1.000000" stroke="black" id="id0000000277" class="line" />
<text id="id0000000278" transform="matrix(1 0 0 1 385.08 11.06)" x="90.336945" y="246.000000" dominant-baseline="hanging" text-anchor="middle" font-size="14.000000px" >
0.4
</text>

<polyline points="521.744,252.06 521.744,255.06 " fill="none" stroke-width="1.000000" stroke="black" id="id0000000279" class="line" />
<text id="id0000000280" transform="matrix(1 0 0 1 385.08 11.06)" x="136.663513" y="246.000000" dominant-baseline="hanging" text-anchor="middle" font-size="14.000000px" >
0.6
</text>

<polyline points="568.07,252.06 568.07,255.06 " fill="none" stroke-width="1.000000" stroke="black" id="id0000000281" class="line" />
<text id="id0000000282" transform="matrix(1 0 0 1 385.08 11.06)" x="182.990067" y="246.000000" dominant-baseline="hanging" text-anchor="middle" font-size="14.000000px" >
0.8
</text>

<polyline points="614.397,252.06 614.397,255.06 " fill="none" stroke-width="1.000000" stroke="black" id="id0000000283" class="line" />
<text id="id0000000284" transform="matrix(1 0 0 1 385.08 11.06)" x="229.316620" y="246.000000" dominant-baseline="hanging" text-anchor="middle" font-size="14.000000px" >
1
</text>

<polyline points="382.08,252.06 385.08,252.06 " fill="none" stroke-width="1.000000" stroke="black" id="id0000000285" class="line" />
<text id="id0000000286" transform="matrix(1 0 0 1 385.08 11.06)" x="-5.000000" y="241.000000" dominant-baseline="middle" text-anchor="end" font-size="14.000000px" >
<tspan dy="2" font-size=".9em">10</tspan><tspan dy="-6" font-size=".7em">-3</tspan>
</text>

<polyline points="382.08,171.727 385.08,171.727 " fill="none" stroke-width="1.000000" stroke="black" id="id0000000287" class="line" />
<text id="id0000000288" transform="matrix(1 0 0 1 385.08 11.06)" x="-5.000000" y="160.666656" dominant-baseline="middle" text-anchor="end" font-size="14.000000px" >
<tspan dy="2" font-size=".9em">10</tspan><tspan dy="-6" font-size=".7em">-2</tspan>
</text>

<polyline points="382.08,91.3933 385.08,91.3933 " fill="none" stroke-width="1.000000" stroke="black" id="id0000000289" class="line" />
<text id="id0000000290" transform="matrix(1 0 0 1 385.08 11.06)" x="-5.000000" y="80.333328" dominant-baseline="middle" text-anchor="end" font-size="14.000000px" >
<tspan dy="2" font-size=".9em">10</tspan><tspan dy="-6" font-size=".7em">-1</tspan>
</text>

<polyline points="382.08,11.06 385.08,11.06 " fill="none" stroke-width="1.000000" stroke="black" id="id0000000291" class="line" />
<text id="id0000000292" transform="matrix(1 0 0 1 385.08 11.06)" x="-5.000000" y="0.000000" dominant-baseline="middle" text-anchor="end" font-size="14.000000px" >
<tspan dy="2" font-size=".9em">10</tspan><tspan dy="-6" font-size=".7em">0</tspan>
</text>

<text id="id0000000293" transform="matrix(1 0 0 1 385.08 11.06)" x="113.500000" y="269.000000" text-anchor="middle" font-size="18.000000px" >
linear
</text>

<g id="id0000000211" >
<text id="id0000000294" transform="matrix(-4.37114e-08 -1 1 -4.37114e-08 357.08 131.56)" x="0.000000" y="0.000000" text-anchor="middle" font-size="18.000000px" >
log
</text>

</g>

</g>

</g>

<g id="id0000000212" >
<g id="id0000000213" >
<clipPath id="id0000000213clipper" >
<polygon points="688.1,11.06 688.1,252.06 915.1,252.06 915.1,11.06 " id="id0000000295" class="rectangle" />
</clipPath>

<g clip-path="url(#id0000000213clipper)" id="id0000000215" >
<polyline id="id0000000296" points="688.1,252.06 689.241,251.891 690.381,251.72 691.522,251.548 692.663,251.373 693.803,251.197 694.944,251.019 696.085,250.839 697.226,250.657 698.366,250.474 699.507,250.288 700.648,250.1 701.788,249.91 702.929,249.717 704.07,249.523 705.211,249.326 706.351,249.127 707.492,248.926 708.633,248.722 709.773,248.515 710.914,248.306 712.055,248.095 713.195,247.881 714.336,247.664 715.477,247.444 716.618,247.221 717.758,246.995 718.899,246.766 720.04,246.534 721.18,246.299 722.321,246.06 723.462,245.818 724.602,245.573 725.743,245.324 726.884,245.071 728.025,244.814 729.165,244.553 730.306,244.288 731.447,244.019 732.587,243.745 733.728,243.467 734.869,243.185 736.01,242.897 737.15,242.605 738.291,242.307 739.432,242.004 740.572,241.695 741.713,241.381 742.854,241.06 743.994,240.734 745.135,240.4 746.276,240.061 747.417,239.714 748.557,239.36 749.698,238.998 750.839,238.628 751.979,238.25 753.12,237.863 754.261,237.468 755.401,237.062 756.542,236.647 757.683,236.221 758.824,235.784 759.964,235.336 761.105,234.875 762.246,234.401 763.386,233.913 764.527,233.411 765.668,232.893 766.808,232.359 767.949,231.808 769.09,231.238 770.231,230.647 771.371,230.036 772.512,229.401 773.653,228.741 774.793,228.054 775.934,227.338 777.075,226.591 778.216,225.808 779.356,224.987 780.497,224.125 781.638,223.215 782.778,222.254 783.919,221.234 785.06,220.148 786.201,218.988 787.341,217.741 788.482,216.395 789.623,214.931 790.763,213.328 791.904,211.556 793.045,209.574 794.185,207.328 795.326,204.735 796.467,201.669 797.608,197.915 798.748,193.076 799.889,186.256 801.03,174.597 802.17,131.563 803.311,88.5272 804.452,76.8653 805.592,70.0447 806.733,65.2055 807.874,61.4519 809.015,58.385 810.155,55.792 811.296,53.5458 812.437,51.5646 813.577,49.7923 814.718,48.189 815.859,46.7254 817,45.379 818.14,44.1324 819.281,42.9718 820.422,41.8862 821.562,40.8664 822.703,39.905 823.844,38.9955 824.984,38.1327 826.125,37.312 827.266,36.5294 828.407,35.7817 829.547,35.0658 830.688,34.3791 831.829,33.7194 832.969,33.0845 834.11,32.4728 835.251,31.8825 836.391,31.3122 837.532,30.7607 838.673,30.2266 839.814,29.709 840.954,29.2069 842.095,28.7193 843.236,28.2454 844.376,27.7845 845.517,27.3359 846.658,26.899 847.798,26.4731 848.939,26.0577 850.08,25.6524 851.221,25.2566 852.361,24.8699 853.502,24.4919 854.643,24.1221 855.783,23.7604 856.924,23.4062 858.065,23.0594 859.206,22.7196 860.346,22.3865 861.487,22.0598 862.628,21.7394 863.768,21.425 864.909,21.1163 866.05,20.8132 867.19,20.5155 868.331,20.223 869.472,19.9354 870.613,19.6527 871.753,19.3747 872.894,19.1011 874.035,18.832 875.175,18.5671 876.316,18.3063 877.457,18.0495 878.597,17.7965 879.738,17.5473 880.879,17.3017 882.02,17.0597 883.16,16.8211 884.301,16.5859 885.442,16.3538 886.582,16.125 887.723,15.8992 888.864,15.6764 890.005,15.4565 891.145,15.2394 892.286,15.0252 893.427,14.8136 894.567,14.6046 895.708,14.3982 896.849,14.1943 897.989,13.9929 899.13,13.7938 900.271,13.597 901.412,13.4026 902.552,13.2103 903.693,13.0203 904.834,12.8323 905.974,12.6464 907.115,12.4626 908.256,12.2808 909.396,12.1008 910.537,11.9228 911.678,11.7467 912.819,11.5724 913.959,11.3999 915.1,11.2291 " fill="none" stroke-opacity="1.000000" stroke-linecap="round" stroke="#1f77b4" stroke-width="1.000000" />
</g>

<polygon points="688.1,11.06 688.1,252.06 915.1,252.06 915.1,11.06 " stroke="black" stroke-width="1.000000" fill="none" id="id0000000297" pointer-events="none" class="rectangle" />
<polyline points="688.1,252.06 688.1,255.06 " fill="none" stroke-width="1.000000" stroke="black" id="id0000000298" class="line" />
<text id="id0000000299" transform="matrix(1 0 0 1 688.1 11.06)" x="0.000000" y="246.000000" dominant-baseline="hanging" text-anchor="middle" font-size="14.000000px" >
-1
</text>

<polyline points="745.135,252.06 745.135,255.06 " fill="none" stroke-width="1.000000" stroke="black" id="id0000000300" class="line" />
<text id="id0000000301" transform="matrix(1 0 0 1 688.1 11.06)" x="57.035213" y="246.000000" dominant-baseline="hanging" text-anchor="middle" font-size="14.000000px" >
-0.5
</text>

<polyline points="802.17,252.06 802.17,255.06 " fill="none" stroke-width="1.000000" stroke="black" id="id0000000302" class="line" />
<text id="id0000000303" transform="matrix(1 0 0 1 688.1 11.06)" x="114.070427" y="246.000000" dominant-baseline="hanging" text-anchor="middle" font-size="14.000000px" >
0
</text>

<polyline points="859.206,252.06 859.206,255.06 " fill="none" stroke-width="1.000000" stroke="black" id="id0000000304" class="line" />
<text id="id0000000305" transform="matrix(1 0 0 1 688.1 11.06)" x="171.105637" y="246.000000" dominant-baseline="hanging" text-anchor="middle" font-size="14.000000px" >
0.5
</text>

<polyline points="916.241,252.06 916.241,255.06 " fill="none" stroke-width="1.000000" stroke="black" id="id0000000306" class="line" />
<text id="id0000000307" transform="matrix(1 0 0 1 688.1 11.06)" x="228.140854" y="246.000000" dominant-baseline="hanging" text-anchor="middle" font-size="14.000000px" >
1
</text>

<polyline points="685.1,252.06 688.1,252.06 " fill="none" stroke-width="1.000000" stroke="black" id="id0000000308" class="line" />
<text id="id0000000309" transform="matrix(1 0 0 1 688.1 11.06)" x="-5.000000" y="241.000000" dominant-baseline="middle" text-anchor="end" font-size="14.000000px" >
-<tspan dy="2" font-size=".9em">10</tspan><tspan dy="-6" font-size=".7em">0</tspan>
</text>

<polyline points="685.1,174.596 688.1,174.596 " fill="none" stroke-width="1.000000" stroke="black" id="id0000000310" class="line" />
<text id="id0000000311" transform="matrix(1 0 0 1 688.1 11.06)" x="-5.000000" y="163.535721" dominant-baseline="middle" text-anchor="end" font-size="14.000000px" >
-<tspan dy="2" font-size=".9em">10</tspan><tspan dy="-6" font-size=".7em">-2</tspan>
</text>

<polyline points="685.1,131.56 688.1,131.56 " fill="none" stroke-width="1.000000" stroke="black" id="id0000000312" class="line" />
<text id="id0000000313" transform="matrix(1 0 0 1 688.1 11.06)" x="-5.000000" y="120.500000" dominant-baseline="middle" text-anchor="end" font-size="14.000000px" >
0
</text>

<polyline points="685.1,88.5243 688.1,88.5243 " fill="none" stroke-width="1.000000" stroke="black" id="id0000000314" class="line" />
<text id="id0000000315" transform="matrix(1 0 0 1 688.1 11.06)" x="-5.000000" y="77.464279" dominant-baseline="middle" text-anchor="end" font-size="14.000000px" >
<tspan dy="2" font-size=".9em">10</tspan><tspan dy="-6" font-size=".7em">-2</tspan>
</text>

<polyline points="685.1,11.06 688.1,11.06 " fill="none" stroke-width="1.000000" stroke="black" id="id0000000316" class="line" />
<text id="id0000000317" transform="matrix(1 0 0 1 688.1 11.06)" x="-5.000000" y="0.000000" dominant-baseline="middle" text-anchor="end" font-size="14.000000px" >
<tspan dy="2" font-size=".9em">10</tspan><tspan dy="-6" font-size=".7em">0</tspan>
</text>

<text id="id0000000318" transform="matrix(1 0 0 1 688.1 11.06)" x="113.500000" y="269.000000" text-anchor="middle" font-size="18.000000px" >
linear
</text>

<g id="id0000000216" >
<text id="id0000000319" transform="matrix(-4.37114e-08 -1 1 -4.37114e-08 660.1 131.56)" x="0.000000" y="0.000000" text-anchor="middle" font-size="18.000000px" >
symlog
</text>

</g>

</g>

</g>

<g id="id0000000217" >
<g id="id0000000218" >
<clipPath id="id0000000218clipper" >
<polygon points="82.06,314.08 82.06,555.08 309.06,555.08 309.06,314.08 " id="id0000000320" class="rectangle" />
</clipPath>

<g clip-path="url(#id0000000218clipper)" id="id0000000220" >
<polyline id="id0000000321" points="157.724,555.08 180.504,552.621 193.828,550.162 203.282,547.702 210.615,545.243 216.606,542.784 221.672,540.325 226.06,537.866 229.931,535.406 233.393,532.947 236.525,530.488 239.385,528.029 242.015,525.57 244.45,523.111 246.717,520.651 248.838,518.192 250.831,515.733 252.709,513.274 254.486,510.815 256.171,508.355 257.774,505.896 259.303,503.437 260.764,500.978 262.163,498.519 263.504,496.06 264.793,493.6 266.033,491.141 267.228,488.682 268.381,486.223 269.495,483.764 270.573,481.304 271.616,478.845 272.627,476.386 273.608,473.927 274.561,471.468 275.487,469.009 276.387,466.549 277.264,464.09 278.117,461.631 278.949,459.172 279.761,456.713 280.552,454.253 281.326,451.794 282.081,449.335 282.82,446.876 283.542,444.417 284.249,441.957 284.941,439.498 285.618,437.039 286.282,434.58 286.933,432.121 287.571,429.662 288.197,427.202 288.811,424.743 289.414,422.284 290.006,419.825 290.588,417.366 291.159,414.906 291.721,412.447 292.273,409.988 292.817,407.529 293.351,405.07 293.877,402.611 294.394,400.151 294.904,397.692 295.405,395.233 295.9,392.774 296.386,390.315 296.866,387.855 297.339,385.396 297.805,382.937 298.265,380.478 298.718,378.019 299.165,375.56 299.606,373.1 300.042,370.641 300.471,368.182 300.895,365.723 301.314,363.264 301.727,360.804 302.135,358.345 302.539,355.886 302.937,353.427 303.33,350.968 303.719,348.509 304.104,346.049 304.484,343.59 304.859,341.131 305.23,338.672 305.598,336.213 305.961,333.753 306.32,331.294 306.675,328.835 307.027,326.376 307.374,323.917 307.718,321.458 308.059,318.998 308.396,316.539 308.73,314.08 " fill="none" stroke-opacity="1.000000" stroke-linecap="round" stroke="#1f77b4" stroke-width="1.000000" />
</g>

<polygon points="82.06,314.08 82.06,555.08 309.06,555.08 309.06,314.08 " stroke="black" stroke-width="1.000000" fill="none" id="id0000000322" pointer-events="none" class="rectangle" />
<polyline points="82.06,555.08 82.06,558.08 " fill="none" stroke-width="1.000000" stroke="black" id="id0000000323" class="line" />
<text id="id0000000324" transform="matrix(1 0 0 1 82.06 314.08)" x="0.000000" y="246.000000" dominant-baseline="hanging" text-anchor="middle" font-size="14.000000px" >
<tspan dy="2" font-size=".9em">10</tspan><tspan dy="-6" font-size=".7em">-3</tspan>
</text>

<polyline points="157.727,555.08 157.727,558.08 " fill="none" stroke-width="1.000000" stroke="black" id="id0000000325" class="line" />
<text id="id0000000326" transform="matrix(1 0 0 1 82.06 314.08)" x="75.666664" y="246.000000" dominant-baseline="hanging" text-anchor="middle" font-size="14.000000px" >
<tspan dy="2" font-size=".9em">10</tspan><tspan dy="-6" font-size=".7em">-2</tspan>
</text>

<polyline points="233.393,555.08 233.393,558.08 " fill="none" stroke-width="1.000000" stroke="black" id="id0000000327" class="line" />
<text id="id0000000328" transform="matrix(1 0 0 1 82.06 314.08)" x="151.333328" y="246.000000" dominant-baseline="hanging" text-anchor="middle" font-size="14.000000px" >
<tspan dy="2" font-size=".9em">10</tspan><tspan dy="-6" font-size=".7em">-1</tspan>
</text>

<polyline points="309.06,555.08 309.06,558.08 " fill="none" stroke-width="1.000000" stroke="black" id="id0000000329" class="line" />
<text id="id0000000330" transform="matrix(1 0 0 1 82.06 314.08)" x="227.000000" y="246.000000" dominant-baseline="hanging" text-anchor="middle" font-size="14.000000px" >
<tspan dy="2" font-size=".9em">10</tspan><tspan dy="-6" font-size=".7em">0</tspan>
</text>

<polyline points="79.06,508.355 82.06,508.355 " fill="none" stroke-width="1.000000" stroke="black" id="id0000000331" class="line" />
<text id="id0000000332" transform="matrix(1 0 0 1 82.06 314.08)" x="-5.000000" y="194.275314" dominant-baseline="middle" text-anchor="end" font-size="14.000000px" >
0.2
</text>

<polyline points="79.06,459.172 82.06,459.172 " fill="none" stroke-width="1.000000" stroke="black" id="id0000000333" class="line" />
<text id="id0000000334" transform="matrix(1 0 0 1 82.06 314.08)" x="-5.000000" y="145.091614" dominant-baseline="middle" text-anchor="end" font-size="14.000000px" >
0.4
</text>

<polyline points="79.06,409.988 82.06,409.988 " fill="none" stroke-width="1.000000" stroke="black" id="id0000000335" class="line" />
<text id="id0000000336" transform="matrix(1 0 0 1 82.06 314.08)" x="-5.000000" y="95.907898" dominant-baseline="middle" text-anchor="end" font-size="14.000000px" >
0.6
</text>

<polyline points="79.06,360.804 82.06,360.804 " fill="none" stroke-width="1.000000" stroke="black" id="id0000000337" class="line" />
<text id="id0000000338" transform="matrix(1 0 0 1 82.06 314.08)" x="-5.000000" y="46.724197" dominant-baseline="middle" text-anchor="end" font-size="14.000000px" >
0.8
</text>

<polyline points="79.06,311.62 82.06,311.62 " fill="none" stroke-width="1.000000" stroke="black" id="id0000000339" class="line" />
<text id="id0000000340" transform="matrix(1 0 0 1 82.06 314.08)" x="-5.000000" y="-2.459503" dominant-baseline="middle" text-anchor="end" font-size="14.000000px" >
1
</text>

<text id="id0000000341" transform="matrix(1 0 0 1 82.06 314.08)" x="113.500000" y="269.000000" text-anchor="middle" font-size="18.000000px" >
log
</text>

<g id="id0000000221" >
<text id="id0000000342" transform="matrix(-4.37114e-08 -1 1 -4.37114e-08 54.06 434.58)" x="0.000000" y="0.000000" text-anchor="middle" font-size="18.000000px" >
linear
</text>

</g>

</g>

</g>

<g id="id0000000222" >
<g id="id0000000223" >
<clipPath id="id0000000223clipper" >
<polygon points="385.08,314.08 385.08,555.08 612.08,555.08 612.08,314.08 " id="id0000000343" class="rectangle" />
</clipPath>

<g clip-path="url(#id0000000223clipper)" id="id0000000225" >
<polyline id="id0000000344" points="460.744,474.749 483.523,450.565 496.848,436.419 506.302,426.382 513.635,418.597 519.626,412.236 524.692,406.857 529.08,402.199 532.951,398.089 536.413,394.414 539.545,391.088 542.404,388.053 545.035,385.26 547.47,382.675 549.737,380.267 551.858,378.016 553.85,375.901 555.729,373.907 557.506,372.02 559.191,370.231 560.794,368.528 562.323,366.905 563.784,365.355 565.182,363.87 566.524,362.446 567.813,361.077 569.053,359.76 570.248,358.492 571.401,357.267 572.515,356.085 573.593,354.941 574.636,353.833 575.647,352.759 576.628,351.718 577.581,350.707 578.507,349.724 579.407,348.768 580.284,347.837 581.137,346.931 581.969,346.048 582.781,345.186 583.572,344.346 584.346,343.525 585.101,342.723 585.84,341.939 586.562,341.172 587.269,340.422 587.961,339.687 588.638,338.968 589.302,338.263 589.953,337.572 590.591,336.894 591.217,336.23 591.831,335.578 592.434,334.938 593.026,334.309 593.608,333.691 594.179,333.085 594.741,332.488 595.293,331.902 595.837,331.325 596.371,330.758 596.897,330.2 597.414,329.65 597.924,329.109 598.425,328.577 598.92,328.052 599.406,327.535 599.886,327.026 600.359,326.524 600.825,326.029 601.285,325.541 601.738,325.06 602.185,324.585 602.626,324.117 603.061,323.655 603.491,323.199 603.915,322.748 604.334,322.304 604.747,321.865 605.155,321.432 605.558,321.004 605.957,320.581 606.35,320.163 606.739,319.75 607.124,319.342 607.504,318.939 607.879,318.54 608.25,318.146 608.618,317.756 608.981,317.37 609.34,316.989 609.695,316.612 610.047,316.239 610.394,315.87 610.738,315.504 611.079,315.143 611.416,314.785 611.75,314.431 " fill="none" stroke-opacity="1.000000" stroke-linecap="round" stroke="#1f77b4" stroke-width="1.000000" />
</g>

<polygon points="385.08,314.08 385.08,555.08 612.08,555.08 612.08,314.08 " stroke="black" stroke-width="1.000000" fill="none" id="id0000000345" pointer-events="none" class="rectangle" />
<polyline points="385.08,555.08 385.08,558.08 " fill="none" stroke-width="1.000000" stroke="black" id="id0000000346" class="line" />
<text id="id0000000347" transform="matrix(1 0 0 1 385.08 314.08)" x="0.000000" y="246.000000" dominant-baseline="hanging" text-anchor="middle" font-size="14.000000px" >
<tspan dy="2" font-size=".9em">10</tspan><tspan dy="-6" font-size=".7em">-3</tspan>
</text>

<polyline points="460.747,555.08 460.747,558.08 " fill="none" stroke-width="1.000000" stroke="black" id="id0000000348" class="line" />
<text id="id0000000349" transform="matrix(1 0 0 1 385.08 314.08)" x="75.666664" y="246.000000" dominant-baseline="hanging" text-anchor="middle" font-size="14.000000px" >
<tspan dy="2" font-size=".9em">10</tspan><tspan dy="-6" font-size=".7em">-2</tspan>
</text>

<polyline points="536.413,555.08 536.413,558.08 " fill="none" stroke-width="1.000000" stroke="black" id="id0000000350" class="line" />
<text id="id0000000351" transform="matrix(1 0 0 1 385.08 314.08)" x="151.333328" y="246.000000" dominant-baseline="hanging" text-anchor="middle" font-size="14.000000px" >
<tspan dy="2" font-size=".9em">10</tspan><tspan dy="-6" font-size=".7em">-1</tspan>
</text>

<polyline points="612.08,555.08 612.08,558.08 " fill="none" stroke-width="1.000000" stroke="black" id="id0000000352" class="line" />
<text id="id0000000353" transform="matrix(1 0 0 1 385.08 314.08)" x="227.000000" y="246.000000" dominant-baseline="hanging" text-anchor="middle" font-size="14.000000px" >
<tspan dy="2" font-size=".9em">10</tspan><tspan dy="-6" font-size=".7em">0</tspan>
</text>

<polyline points="382.08,555.08 385.08,555.08 " fill="none" stroke-width="1.000000" stroke="black" id="id0000000354" class="line" />
<text id="id0000000355" transform="matrix(1 0 0 1 385.08 314.08)" x="-5.000000" y="241.000000" dominant-baseline="middle" text-anchor="end" font-size="14.000000px" >
<tspan dy="2" font-size=".9em">10</tspan><tspan dy="-6" font-size=".7em">-3</tspan>
</text>

<polyline points="382.08,474.747 385.08,474.747 " fill="none" stroke-width="1.000000" stroke="black" id="id0000000356" class="line" />
<text id="id0000000357" transform="matrix(1 0 0 1 385.08 314.08)" x="-5.000000" y="160.666656" dominant-baseline="middle" text-anchor="end" font-size="14.000000px" >
<tspan dy="2" font-size=".9em">10</tspan><tspan dy="-6" font-size=".7em">-2</tspan>
</text>

<polyline points="382.08,394.413 385.08,394.413 " fill="none" stroke-width="1.000000" stroke="black" id="id0000000358" class="line" />
<text id="id0000000359" transform="matrix(1 0 0 1 385.08 314.08)" x="-5.000000" y="80.333328" dominant-baseline="middle" text-anchor="end" font-size="14.000000px" >
<tspan dy="2" font-size=".9em">10</tspan><tspan dy="-6" font-size=".7em">-1</tspan>
</text>

<polyline points="382.08,314.08 385.08,314.08 " fill="none" stroke-width="1.000000" stroke="black" id="id0000000360" class="line" />
<text id="id0000000361" transform="matrix(1 0 0 1 385.08 314.08)" x="-5.000000" y="0.000000" dominant-baseline="middle" text-anchor="end" font-size="14.000000px" >
<tspan dy="2" font-size=".9em">10</tspan><tspan dy="-6" font-size=".7em">0</tspan>
</text>

<text id="id0000000362" transform="matrix(1 0 0 1 385.08 314.08)" x="113.500000" y="269.000000" text-anchor="middle" font-size="18.000000px" >
log
</text>

<g id="id0000000226" >
<text id="id0000000363" transform="matrix(-4.37114e-08 -1 1 -4.37114e-08 357.08 434.58)" x="0.000000" y="0.000000" text-anchor="middle" font-size="18.000000px" >
log
</text>

</g>

</g>

</g>

<g id="id0000000227" >
<g id="id0000000228" >
<clipPath id="id0000000228clipper" >
<polygon points="688.1,314.08 688.1,555.08 915.1,555.08 915.1,314.08 " id="id0000000364" class="rectangle" />
</clipPath>

<g clip-path="url(#id0000000228clipper)" id="id0000000230" >
<polyline id="id0000000365" points="763.764,463.672 786.543,441.152 799.868,427.982 809.322,418.637 816.655,411.389 822.646,405.466 827.712,400.459 832.1,396.122 835.971,392.296 839.433,388.873 842.565,385.777 845.424,382.951 848.055,380.351 850.49,377.944 852.757,375.703 854.878,373.606 856.87,371.637 858.749,369.781 860.526,368.024 862.211,366.358 863.814,364.773 865.343,363.262 866.804,361.818 868.203,360.436 869.544,359.11 870.833,357.836 872.073,356.61 873.268,355.429 874.421,354.289 875.535,353.188 876.613,352.123 877.656,351.091 878.667,350.092 879.648,349.122 880.601,348.181 881.527,347.266 882.427,346.376 883.304,345.509 884.157,344.666 884.989,343.843 885.801,343.041 886.592,342.258 887.366,341.494 888.121,340.747 888.86,340.017 889.582,339.303 890.289,338.605 890.981,337.921 891.658,337.251 892.322,336.595 892.973,335.952 893.611,335.321 894.237,334.702 894.851,334.095 895.454,333.499 896.046,332.914 896.628,332.339 897.199,331.774 897.761,331.219 898.313,330.673 898.857,330.136 899.391,329.608 899.917,329.088 900.434,328.576 900.944,328.073 901.445,327.577 901.94,327.088 902.426,326.607 902.906,326.133 903.379,325.666 903.845,325.205 904.305,324.751 904.758,324.303 905.205,323.861 905.646,323.425 906.081,322.994 906.511,322.57 906.935,322.151 907.354,321.737 907.767,321.328 908.175,320.925 908.578,320.526 908.977,320.132 909.37,319.743 909.759,319.359 910.144,318.979 910.524,318.604 910.899,318.232 911.27,317.865 911.638,317.502 912.001,317.143 912.36,316.788 912.715,316.437 913.067,316.09 913.414,315.746 913.758,315.406 914.099,315.069 914.436,314.736 914.77,314.406 " fill="none" stroke-opacity="1.000000" stroke-linecap="round" stroke="#1f77b4" stroke-width="1.000000" />
</g>

<polygon points="688.1,314.08 688.1,555.08 915.1,555.08 915.1,314.08 " stroke="black" stroke-width="1.000000" fill="none" id="id0000000366" pointer-events="none" class="rectangle" />
<polyline points="688.1,555.08 688.1,558.08 " fill="none" stroke-width="1.000000" stroke="black" id="id0000000367" class="line" />
<text id="id0000000368" transform="matrix(1 0 0 1 688.1 314.08)" x="0.000000" y="246.000000" dominant-baseline="hanging" text-anchor="middle" font-size="14.000000px" >
<tspan dy="2" font-size=".9em">10</tspan><tspan dy="-6" font-size=".7em">-3</tspan>
</text>

<polyline points="763.767,555.08 763.767,558.08 " fill="none" stroke-width="1.000000" stroke="black" id="id0000000369" class="line" />
<text id="id0000000370" transform="matrix(1 0 0 1 688.1 314.08)" x="75.666664" y="246.000000" dominant-baseline="hanging" text-anchor="middle" font-size="14.000000px" >
<tspan dy="2" font-size=".9em">10</tspan><tspan dy="-6" font-size=".7em">-2</tspan>
</text>

<polyline points="839.433,555.08 839.433,558.08 " fill="none" stroke-width="1.000000" stroke="black" id="id0000000371" class="line" />
<text id="id0000000372" transform="matrix(1 0 0 1 688.1 314.08)" x="151.333328" y="246.000000" dominant-baseline="hanging" text-anchor="middle" font-size="14.000000px" >
<tspan dy="2" font-size=".9em">10</tspan><tspan dy="-6" font-size=".7em">-1</tspan>
</text>

<polyline points="915.1,555.08 915.1,558.08 " fill="none" stroke-width="1.000000" stroke="black" id="id0000000373" class="line" />
<text id="id0000000374" transform="matrix(1 0 0 1 688.1 314.08)" x="227.000000" y="246.000000" dominant-baseline="hanging" text-anchor="middle" font-size="14.000000px" >
<tspan dy="2" font-size=".9em">10</tspan><tspan dy="-6" font-size=".7em">0</tspan>
</text>

<polyline points="685.1,546.77 688.1,546.77 " fill="none" stroke-width="1.000000" stroke="black" id="id0000000375" class="line" />
<text id="id0000000376" transform="matrix(1 0 0 1 688.1 314.08)" x="-5.000000" y="232.689651" dominant-baseline="middle" text-anchor="end" font-size="14.000000px" >
0
</text>

<polyline points="685.1,463.666 688.1,463.666 " fill="none" stroke-width="1.000000" stroke="black" id="id0000000377" class="line" />
<text id="id0000000378" transform="matrix(1 0 0 1 688.1 314.08)" x="-5.000000" y="149.586212" dominant-baseline="middle" text-anchor="end" font-size="14.000000px" >
<tspan dy="2" font-size=".9em">10</tspan><tspan dy="-6" font-size=".7em">-2</tspan>
</text>

<polyline points="685.1,314.08 688.1,314.08 " fill="none" stroke-width="1.000000" stroke="black" id="id0000000379" class="line" />
<text id="id0000000380" transform="matrix(1 0 0 1 688.1 314.08)" x="-5.000000" y="0.000000" dominant-baseline="middle" text-anchor="end" font-size="14.000000px" >
<tspan dy="2" font-size=".9em">10</tspan><tspan dy="-6" font-size=".7em">0</tspan>
</text>

<text id="id0000000381" transform="matrix(1 0 0 1 688.1 314.08)" x="113.500000" y="269.000000" text-anchor="middle" font-size="18.000000px" >
log
</text>

<g id="id0000000231" >
<text id="id0000000382" transform="matrix(-4.37114e-08 -1 1 -4.37114e-08 660.1 434.58)" x="0.000000" y="0.000000" text-anchor="middle" font-size="18.000000px" >
symlog
</text>

</g>

</g>

</g>

<g id="id0000000232" >
<g id="id0000000233" >
<clipPath id="id0000000233clipper" >
<polygon points="82.06,617.1 82.06,858.1 309.06,858.1 309.06,617.1 " id="id0000000383" class="rectangle" />
</clipPath>

<g clip-path="url(#id0000000233clipper)" id="id0000000235" >
<polyline id="id0000000384" points="82.06,858.1 82.2192,856.889 82.3801,855.678 82.5426,854.467 82.7068,853.256 82.8727,852.045 83.0404,850.834 83.2098,849.623 83.3811,848.412 83.5543,847.201 83.7293,845.989 83.9064,844.778 84.0854,843.567 84.2665,842.356 84.4496,841.145 84.6349,839.934 84.8224,838.723 85.0122,837.512 85.2043,836.301 85.3987,835.09 85.5955,833.879 85.7948,832.668 85.9966,831.457 86.2011,830.246 86.4082,829.035 86.618,827.824 86.8307,826.613 87.0463,825.401 87.2648,824.19 87.4864,822.979 87.7112,821.768 87.9391,820.557 88.1704,819.346 88.4052,818.135 88.6434,816.924 88.8853,815.713 89.131,814.502 89.3805,813.291 89.634,812.08 89.8916,810.869 90.1535,809.658 90.4198,808.447 90.6907,807.236 90.9662,806.025 91.2466,804.814 91.5321,803.603 91.8228,802.391 92.119,801.18 92.4208,799.969 92.7285,798.758 93.0422,797.547 93.3623,796.336 93.689,795.125 94.0226,793.914 94.3633,792.703 94.7115,791.492 95.0676,790.281 95.4318,789.07 95.8047,787.859 96.1865,786.648 96.5777,785.437 96.9788,784.226 97.3904,783.015 97.8129,781.804 98.247,780.592 98.6933,779.381 99.1526,778.17 99.6256,776.959 100.113,775.748 100.616,774.537 101.136,773.326 101.673,772.115 102.229,770.904 102.805,769.693 103.403,768.482 104.024,767.271 104.671,766.06 105.345,764.849 106.05,763.638 106.787,762.427 107.56,761.216 108.373,760.005 109.229,758.793 110.135,757.582 111.095,756.371 112.118,755.16 113.211,753.949 114.385,752.738 115.653,751.527 117.032,750.316 118.542,749.105 120.211,747.894 122.077,746.683 124.193,745.472 126.635,744.261 129.524,743.05 133.06,741.839 137.618,740.628 144.042,739.417 155.023,738.206 195.557,736.994 236.093,735.783 247.077,734.572 253.502,733.361 258.06,732.15 261.595,730.939 264.484,729.728 266.927,728.517 269.042,727.306 270.908,726.095 272.578,724.884 274.088,723.673 275.466,722.462 276.735,721.251 277.909,720.04 279.002,718.829 280.025,717.618 280.985,716.406 281.891,715.195 282.747,713.984 283.56,712.773 284.333,711.562 285.07,710.351 285.774,709.14 286.449,707.929 287.096,706.718 287.717,705.507 288.315,704.296 288.891,703.085 289.447,701.874 289.984,700.663 290.504,699.452 291.007,698.241 291.494,697.03 291.967,695.819 292.427,694.607 292.873,693.396 293.307,692.185 293.73,690.974 294.141,689.763 294.542,688.552 294.933,687.341 295.315,686.13 295.688,684.919 296.052,683.708 296.408,682.497 296.757,681.286 297.097,680.075 297.431,678.864 297.758,677.653 298.078,676.442 298.392,675.231 298.699,674.02 299.001,672.809 299.297,671.597 299.588,670.386 299.873,669.175 300.154,667.964 300.429,666.753 300.7,665.542 300.966,664.331 301.228,663.12 301.486,661.909 301.739,660.698 301.989,659.487 302.235,658.276 302.477,657.065 302.715,655.854 302.95,654.643 303.181,653.432 303.409,652.221 303.634,651.01 303.855,649.798 304.074,648.587 304.289,647.376 304.502,646.165 304.712,644.954 304.919,643.743 305.123,642.532 305.325,641.321 305.524,640.11 305.721,638.899 305.916,637.688 306.108,636.477 306.298,635.266 306.485,634.055 306.67,632.844 306.854,631.633 307.035,630.422 307.214,629.211 307.391,628 307.566,626.788 307.739,625.577 307.91,624.366 308.08,623.155 308.247,621.944 308.413,620.733 308.577,619.522 308.74,618.311 308.901,617.1 " fill="none" stroke-opacity="1.000000" stroke-linecap="round" stroke="#1f77b4" stroke-width="1.000000" />
</g>

<polygon points="82.06,617.1 82.06,858.1 309.06,858.1 309.06,617.1 " stroke="black" stroke-width="1.000000" fill="none" id="id0000000385" pointer-events="none" class="rectangle" />
<polyline points="82.06,858.1 82.06,861.1 " fill="none" stroke-width="1.000000" stroke="black" id="id0000000386" class="line" />
<text id="id0000000387" transform="matrix(1 0 0 1 82.06 617.1)" x="0.000000" y="246.000000" dominant-baseline="hanging" text-anchor="middle" font-size="14.000000px" >
-<tspan dy="2" font-size=".9em">10</tspan><tspan dy="-6" font-size=".7em">0</tspan>
</text>

<polyline points="155.024,858.1 155.024,861.1 " fill="none" stroke-width="1.000000" stroke="black" id="id0000000388" class="line" />
<text id="id0000000389" transform="matrix(1 0 0 1 82.06 617.1)" x="72.964287" y="246.000000" dominant-baseline="hanging" text-anchor="middle" font-size="14.000000px" >
-<tspan dy="2" font-size=".9em">10</tspan><tspan dy="-6" font-size=".7em">-2</tspan>
</text>

<polyline points="195.56,858.1 195.56,861.1 " fill="none" stroke-width="1.000000" stroke="black" id="id0000000390" class="line" />
<text id="id0000000391" transform="matrix(1 0 0 1 82.06 617.1)" x="113.500000" y="246.000000" dominant-baseline="hanging" text-anchor="middle" font-size="14.000000px" >
0
</text>

<polyline points="236.096,858.1 236.096,861.1 " fill="none" stroke-width="1.000000" stroke="black" id="id0000000392" class="line" />
<text id="id0000000393" transform="matrix(1 0 0 1 82.06 617.1)" x="154.035721" y="246.000000" dominant-baseline="hanging" text-anchor="middle" font-size="14.000000px" >
<tspan dy="2" font-size=".9em">10</tspan><tspan dy="-6" font-size=".7em">-2</tspan>
</text>

<polyline points="309.06,858.1 309.06,861.1 " fill="none" stroke-width="1.000000" stroke="black" id="id0000000394" class="line" />
<text id="id0000000395" transform="matrix(1 0 0 1 82.06 617.1)" x="227.000000" y="246.000000" dominant-baseline="hanging" text-anchor="middle" font-size="14.000000px" >
<tspan dy="2" font-size=".9em">10</tspan><tspan dy="-6" font-size=".7em">0</tspan>
</text>

<polyline points="79.06,858.1 82.06,858.1 " fill="none" stroke-width="1.000000" stroke="black" id="id0000000396" class="line" />
<text id="id0000000397" transform="matrix(1 0 0 1 82.06 617.1)" x="-5.000000" y="241.000000" dominant-baseline="middle" text-anchor="end" font-size="14.000000px" >
-1
</text>

<polyline points="79.06,797.547 82.06,797.547 " fill="none" stroke-width="1.000000" stroke="black" id="id0000000398" class="line" />
<text id="id0000000399" transform="matrix(1 0 0 1 82.06 617.1)" x="-5.000000" y="180.447205" dominant-baseline="middle" text-anchor="end" font-size="14.000000px" >
-0.5
</text>

<polyline points="79.06,736.994 82.06,736.994 " fill="none" stroke-width="1.000000" stroke="black" id="id0000000400" class="line" />
<text id="id0000000401" transform="matrix(1 0 0 1 82.06 617.1)" x="-5.000000" y="119.894394" dominant-baseline="middle" text-anchor="end" font-size="14.000000px" >
0
</text>

<polyline points="79.06,676.442 82.06,676.442 " fill="none" stroke-width="1.000000" stroke="black" id="id0000000402" class="line" />
<text id="id0000000403" transform="matrix(1 0 0 1 82.06 617.1)" x="-5.000000" y="59.341583" dominant-baseline="middle" text-anchor="end" font-size="14.000000px" >
0.5
</text>

<polyline points="79.06,615.889 82.06,615.889 " fill="none" stroke-width="1.000000" stroke="black" id="id0000000404" class="line" />
<text id="id0000000405" transform="matrix(1 0 0 1 82.06 617.1)" x="-5.000000" y="-1.211212" dominant-baseline="middle" text-anchor="end" font-size="14.000000px" >
1
</text>

<text id="id0000000406" transform="matrix(1 0 0 1 82.06 617.1)" x="113.500000" y="269.000000" text-anchor="middle" font-size="18.000000px" >
symlog
</text>

<g id="id0000000236" >
<text id="id0000000407" transform="matrix(-4.37114e-08 -1 1 -4.37114e-08 54.06 737.6)" x="0.000000" y="0.000000" text-anchor="middle" font-size="18.000000px" >
linear
</text>

</g>

</g>

</g>

<g id="id0000000237" >
<g id="id0000000238" >
<clipPath id="id0000000238clipper" >
<polygon points="385.08,617.1 385.08,858.1 612.08,858.1 612.08,617.1 " id="id0000000408" class="rectangle" />
</clipPath>

<g clip-path="url(#id0000000238clipper)" id="id0000000240" >
<polyline id="id0000000409" points="471.178,777.769 492.389,753.585 504.795,739.439 513.597,729.402 520.424,721.617 526.003,715.256 530.719,709.877 534.804,705.219 538.408,701.109 541.631,697.434 544.548,694.108 547.21,691.073 549.659,688.28 551.926,685.695 554.037,683.287 556.011,681.036 557.866,678.921 559.615,676.927 561.269,675.04 562.839,673.251 564.331,671.548 565.755,669.925 567.115,668.375 568.417,666.89 569.666,665.466 570.866,664.097 572.02,662.781 573.133,661.512 574.207,660.287 575.244,659.105 576.247,657.961 577.219,656.853 578.16,655.779 579.073,654.738 579.96,653.727 580.822,652.744 581.66,651.788 582.476,650.857 583.271,649.951 584.046,649.068 584.801,648.206 585.539,647.366 586.258,646.545 586.962,645.743 587.649,644.959 588.322,644.192 588.98,643.442 589.624,642.707 590.255,641.988 590.873,641.283 591.479,640.592 592.073,639.914 592.656,639.25 593.228,638.598 593.789,637.958 594.34,637.329 594.882,636.711 595.414,636.105 595.937,635.508 596.451,634.922 596.957,634.345 597.454,633.778 597.944,633.22 598.426,632.67 598.9,632.129 599.367,631.597 599.827,631.072 600.28,630.555 600.727,630.046 601.167,629.544 601.601,629.049 602.029,628.561 602.451,628.08 602.868,627.605 603.278,627.137 603.683,626.675 604.083,626.219 604.478,625.768 604.868,625.324 605.253,624.885 605.633,624.452 606.008,624.024 606.379,623.601 606.746,623.183 607.108,622.77 607.465,622.362 607.819,621.959 608.169,621.56 608.515,621.166 608.856,620.776 609.194,620.39 609.529,620.009 609.86,619.632 610.187,619.259 610.511,618.89 610.831,618.524 611.148,618.163 611.462,617.805 611.772,617.451 " fill="none" stroke-opacity="1.000000" stroke-linecap="round" stroke="#1f77b4" stroke-width="1.000000" />
</g>

<polygon points="385.08,617.1 385.08,858.1 612.08,858.1 612.08,617.1 " stroke="black" stroke-width="1.000000" fill="none" id="id0000000410" pointer-events="none" class="rectangle" />
<polyline points="392.908,858.1 392.908,861.1 " fill="none" stroke-width="1.000000" stroke="black" id="id0000000411" class="line" />
<text id="id0000000412" transform="matrix(1 0 0 1 385.08 617.1)" x="7.827587" y="246.000000" dominant-baseline="hanging" text-anchor="middle" font-size="14.000000px" >
0
</text>

<polyline points="471.183,858.1 471.183,861.1 " fill="none" stroke-width="1.000000" stroke="black" id="id0000000413" class="line" />
<text id="id0000000414" transform="matrix(1 0 0 1 385.08 617.1)" x="86.103455" y="246.000000" dominant-baseline="hanging" text-anchor="middle" font-size="14.000000px" >
<tspan dy="2" font-size=".9em">10</tspan><tspan dy="-6" font-size=".7em">-2</tspan>
</text>

<polyline points="612.08,858.1 612.08,861.1 " fill="none" stroke-width="1.000000" stroke="black" id="id0000000415" class="line" />
<text id="id0000000416" transform="matrix(1 0 0 1 385.08 617.1)" x="227.000000" y="246.000000" dominant-baseline="hanging" text-anchor="middle" font-size="14.000000px" >
<tspan dy="2" font-size=".9em">10</tspan><tspan dy="-6" font-size=".7em">0</tspan>
</text>

<polyline points="382.08,858.1 385.08,858.1 " fill="none" stroke-width="1.000000" stroke="black" id="id0000000417" class="line" />
<text id="id0000000418" transform="matrix(1 0 0 1 385.08 617.1)" x="-5.000000" y="241.000000" dominant-baseline="middle" text-anchor="end" font-size="14.000000px" >
<tspan dy="2" font-size=".9em">10</tspan><tspan dy="-6" font-size=".7em">-3</tspan>
</text>

<polyline points="382.08,777.767 385.08,777.767 " fill="none" stroke-width="1.000000" stroke="black" id="id0000000419" class="line" />
<text id="id0000000420" transform="matrix(1 0 0 1 385.08 617.1)" x="-5.000000" y="160.666656" dominant-baseline="middle" text-anchor="end" font-size="14.000000px" >
<tspan dy="2" font-size=".9em">10</tspan><tspan dy="-6" font-size=".7em">-2</tspan>
</text>

<polyline points="382.08,697.433 385.08,697.433 " fill="none" stroke-width="1.000000" stroke="black" id="id0000000421" class="line" />
<text id="id0000000422" transform="matrix(1 0 0 1 385.08 617.1)" x="-5.000000" y="80.333328" dominant-baseline="middle" text-anchor="end" font-size="14.000000px" >
<tspan dy="2" font-size=".9em">10</tspan><tspan dy="-6" font-size=".7em">-1</tspan>
</text>

<polyline points="382.08,617.1 385.08,617.1 " fill="none" stroke-width="1.000000" stroke="black" id="id0000000423" class="line" />
<text id="id0000000424" transform="matrix(1 0 0 1 385.08 617.1)" x="-5.000000" y="0.000000" dominant-baseline="middle" text-anchor="end" font-size="14.000000px" >
<tspan dy="2" font-size=".9em">10</tspan><tspan dy="-6" font-size=".7em">0</tspan>
</text>

<text id="id0000000425" transform="matrix(1 0 0 1 385.08 617.1)" x="113.500000" y="269.000000" text-anchor="middle" font-size="18.000000px" >
symlog
</text>

<g id="id0000000241" >
<text id="id0000000426" transform="matrix(-4.37114e-08 -1 1 -4.37114e-08 357.08 737.6)" x="0.000000" y="0.000000" text-anchor="middle" font-size="18.000000px" >
log
</text>

</g>

</g>

</g>

<g id="id0000000242" >
<g id="id0000000243" >
<clipPath id="id0000000243clipper" >
<polygon points="688.1,617.1 688.1,858.1 915.1,858.1 915.1,617.1 " id="id0000000427" class="rectangle" />
</clipPath>

<g clip-path="url(#id0000000243clipper)" id="id0000000245" >
<polyline id="id0000000428" points="688.1,858.1 688.259,857.931 688.42,857.76 688.583,857.588 688.747,857.413 688.913,857.237 689.08,857.059 689.25,856.879 689.421,856.697 689.594,856.514 689.769,856.328 689.946,856.14 690.125,855.95 690.306,855.757 690.49,855.563 690.675,855.366 690.862,855.167 691.052,854.966 691.244,854.762 691.439,854.555 691.635,854.346 691.835,854.135 692.037,853.921 692.241,853.703 692.448,853.484 692.658,853.261 692.871,853.035 693.086,852.806 693.305,852.574 693.526,852.339 693.751,852.1 693.979,851.858 694.21,851.613 694.445,851.363 694.683,851.111 694.925,850.854 695.171,850.593 695.42,850.328 695.674,850.059 695.932,849.785 696.193,849.507 696.46,849.225 696.731,848.937 697.006,848.644 697.287,848.347 697.572,848.044 697.863,847.735 698.159,847.421 698.461,847.1 698.768,846.774 699.082,846.44 699.402,846.101 699.729,845.754 700.063,845.4 700.403,845.038 700.752,844.668 701.108,844.29 701.472,843.903 701.845,843.508 702.226,843.102 702.618,842.687 703.019,842.261 703.43,841.824 703.853,841.376 704.287,840.915 704.733,840.441 705.193,839.953 705.666,839.451 706.153,838.933 706.656,838.399 707.176,837.848 707.713,837.278 708.269,836.687 708.845,836.076 709.443,835.441 710.064,834.781 710.711,834.094 711.385,833.378 712.09,832.631 712.827,831.848 713.6,831.027 714.413,830.165 715.269,829.255 716.175,828.294 717.135,827.274 718.158,826.188 719.251,825.028 720.425,823.781 721.693,822.435 723.072,820.971 724.582,819.368 726.251,817.596 728.117,815.614 730.233,813.368 732.675,810.775 735.564,807.708 739.1,803.955 743.658,799.116 750.081,792.296 761.063,780.637 801.597,737.603 842.133,694.567 853.117,682.905 859.542,676.085 864.1,671.245 867.635,667.492 870.524,664.425 872.966,661.832 875.082,659.586 876.948,657.605 878.618,655.832 880.128,654.229 881.506,652.765 882.775,651.419 883.949,650.172 885.042,649.012 886.065,647.926 887.025,646.906 887.931,645.945 888.787,645.035 889.6,644.173 890.373,643.352 891.11,642.569 891.814,641.822 892.489,641.106 893.135,640.419 893.757,639.759 894.355,639.125 894.931,638.513 895.487,637.922 896.024,637.352 896.544,636.801 897.047,636.267 897.534,635.749 898.007,635.247 898.467,634.759 898.913,634.285 899.347,633.824 899.77,633.376 900.181,632.939 900.582,632.513 900.973,632.098 901.355,631.692 901.728,631.297 902.092,630.91 902.448,630.532 902.797,630.162 903.137,629.8 903.471,629.446 903.798,629.099 904.118,628.76 904.431,628.426 904.739,628.1 905.041,627.779 905.337,627.465 905.628,627.156 905.913,626.853 906.194,626.555 906.469,626.263 906.74,625.975 907.006,625.693 907.268,625.415 907.526,625.141 907.779,624.872 908.029,624.607 908.275,624.346 908.517,624.089 908.755,623.836 908.99,623.587 909.221,623.342 909.449,623.1 909.674,622.861 909.895,622.626 910.114,622.394 910.329,622.165 910.542,621.939 910.752,621.716 910.959,621.496 911.163,621.279 911.365,621.065 911.564,620.854 911.761,620.645 911.956,620.438 912.148,620.234 912.338,620.033 912.525,619.834 912.71,619.637 912.893,619.443 913.075,619.25 913.254,619.06 913.431,618.872 913.606,618.686 913.779,618.503 913.95,618.321 914.12,618.141 914.287,617.963 914.453,617.787 914.617,617.612 914.78,617.44 914.941,617.269 " fill="none" stroke-opacity="1.000000" stroke-linecap="round" stroke="#1f77b4" stroke-width="1.000000" />
</g>

<polygon points="688.1,617.1 688.1,858.1 915.1,858.1 915.1,617.1 " stroke="black" stroke-width="1.000000" fill="none" id="id0000000429" pointer-events="none" class="rectangle" />
<polyline points="688.1,858.1 688.1,861.1 " fill="none" stroke-width="1.000000" stroke="black" id="id0000000430" class="line" />
<text id="id0000000431" transform="matrix(1 0 0 1 688.1 617.1)" x="0.000000" y="246.000000" dominant-baseline="hanging" text-anchor="middle" font-size="14.000000px" >
-<tspan dy="2" font-size=".9em">10</tspan><tspan dy="-6" font-size=".7em">0</tspan>
</text>

<polyline points="761.064,858.1 761.064,861.1 " fill="none" stroke-width="1.000000" stroke="black" id="id0000000432" class="line" />
<text id="id0000000433" transform="matrix(1 0 0 1 688.1 617.1)" x="72.964287" y="246.000000" dominant-baseline="hanging" text-anchor="middle" font-size="14.000000px" >
-<tspan dy="2" font-size=".9em">10</tspan><tspan dy="-6" font-size=".7em">-2</tspan>
</text>

<polyline points="801.6,858.1 801.6,861.1 " fill="none" stroke-width="1.000000" stroke="black" id="id0000000434" class="line" />
<text id="id0000000435" transform="matrix(1 0 0 1 688.1 617.1)" x="113.500000" y="246.000000" dominant-baseline="hanging" text-anchor="middle" font-size="14.000000px" >
0
</text>

<polyline points="842.136,858.1 842.136,861.1 " fill="none" stroke-width="1.000000" stroke="black" id="id0000000436" class="line" />
<text id="id0000000437" transform="matrix(1 0 0 1 688.1 617.1)" x="154.035721" y="246.000000" dominant-baseline="hanging" text-anchor="middle" font-size="14.000000px" >
<tspan dy="2" font-size=".9em">10</tspan><tspan dy="-6" font-size=".7em">-2</tspan>
</text>

<polyline points="915.1,858.1 915.1,861.1 " fill="none" stroke-width="1.000000" stroke="black" id="id0000000438" class="line" />
<text id="id0000000439" transform="matrix(1 0 0 1 688.1 617.1)" x="227.000000" y="246.000000" dominant-baseline="hanging" text-anchor="middle" font-size="14.000000px" >
<tspan dy="2" font-size=".9em">10</tspan><tspan dy="-6" font-size=".7em">0</tspan>
</text>

<polyline points="685.1,858.1 688.1,858.1 " fill="none" stroke-width="1.000000" stroke="black" id="id0000000440" class="line" />
<text id="id0000000441" transform="matrix(1 0 0 1 688.1 617.1)" x="-5.000000" y="241.000000" dominant-baseline="middle" text-anchor="end" font-size="14.000000px" >
-<tspan dy="2" font-size=".9em">10</tspan><tspan dy="-6" font-size=".7em">0</tspan>
</text>

<polyline points="685.1,780.636 688.1,780.636 " fill="none" stroke-width="1.000000" stroke="black" id="id0000000442" class="line" />
<text id="id0000000443" transform="matrix(1 0 0 1 688.1 617.1)" x="-5.000000" y="163.535721" dominant-baseline="middle" text-anchor="end" font-size="14.000000px" >
-<tspan dy="2" font-size=".9em">10</tspan><tspan dy="-6" font-size=".7em">-2</tspan>
</text>

<polyline points="685.1,737.6 688.1,737.6 " fill="none" stroke-width="1.000000" stroke="black" id="id0000000444" class="line" />
<text id="id0000000445" transform="matrix(1 0 0 1 688.1 617.1)" x="-5.000000" y="120.500000" dominant-baseline="middle" text-anchor="end" font-size="14.000000px" >
0
</text>

<polyline points="685.1,694.564 688.1,694.564 " fill="none" stroke-width="1.000000" stroke="black" id="id0000000446" class="line" />
<text id="id0000000447" transform="matrix(1 0 0 1 688.1 617.1)" x="-5.000000" y="77.464279" dominant-baseline="middle" text-anchor="end" font-size="14.000000px" >
<tspan dy="2" font-size=".9em">10</tspan><tspan dy="-6" font-size=".7em">-2</tspan>
</text>

<polyline points="685.1,617.1 688.1,617.1 " fill="none" stroke-width="1.000000" stroke="black" id="id0000000448" class="line" />
<text id="id0000000449" transform="matrix(1 0 0 1 688.1 617.1)" x="-5.000000" y="0.000000" dominant-baseline="middle" text-anchor="end" font-size="14.000000px" >
<tspan dy="2" font-size=".9em">10</tspan><tspan dy="-6" font-size=".7em">0</tspan>
</text>

<text id="id0000000450" transform="matrix(1 0 0 1 688.1 617.1)" x="113.500000" y="269.000000" text-anchor="middle" font-size="18.000000px" >
symlog
</text>

<g id="id0000000246" >
<text id="id0000000451" transform="matrix(-4.37114e-08 -1 1 -4.37114e-08 660.1 737.6)" x="0.000000" y="0.000000" text-anchor="middle" font-size="18.000000px" >
symlog
</text>

</g>

</g>

</g>


</g>

</svg>
