<svg viewBox="0 0 926.12 926.12" height="100%" width="100%" xmlns:xlink="http://www.w3.org/1999/xlink" xmlns="http://www.w3.org/2000/svg" id="id0000000248" >
<g id="id0000000249" >
<g id="id0000000250" >
<g id="id0000000251" >
<clipPath id="id0000000251clipper" >
<polygon points="82.06,11.06 82.06,252.06 309.06,252.06 309.06,11.06 " id="id0000000295" class="rectangle" />
</clipPath>

<g clip-path="url(#id0000000251clipper)" id="id0000000253" >
<polyline id="id0000000296" points="82.06,252.06 83.195,250.855 84.33,249.65 85.465,248.445 86.6,247.24 87.735,246.035 88.87,244.83 90.005,243.625 91.14,242.42 92.275,241.215 93.41,240.01 94.545,238.805 95.68,237.6 96.815,236.395 97.95,235.19 99.085,233.985 100.22,232.78 101.355,231.575 102.49,230.37 103.625,229.165 104.76,227.96 105.895,226.755 107.03,225.55 108.165,224.345 109.3,223.14 110.435,221.935 111.57,220.73 112.705,219.525 113.84,218.32 114.975,217.115 116.11,215.91 117.245,214.705 118.38,213.5 119.515,212.295 120.65,211.09 121.785,209.885 122.92,208.68 124.055,207.475 125.19,206.27 126.325,205.065 127.46,203.86 128.595,202.655 129.73,201.45 130.865,200.245 132,199.04 133.135,197.835 134.27,196.63 135.405,195.425 136.54,194.22 137.675,193.015 138.81,191.81 139.945,190.605 141.08,189.4 142.215,188.195 143.35,186.99 144.485,185.785 145.62,184.58 146.755,183.375 147.89,182.17 149.025,180.965 150.16,179.76 151.295,178.555 152.43,177.35 153.565,176.145 154.7,174.94 155.835,173.735 156.97,172.53 158.105,171.325 159.24,170.12 160.375,168.915 161.51,167.71 162.645,166.505 163.78,165.3 164.915,164.095 166.05,162.89 167.185,161.685 168.32,160.48 169.455,159.275 170.59,158.07 171.725,156.865 172.86,155.66 173.995,154.455 175.13,153.25 176.265,152.045 177.4,150.84 178.535,149.635 179.67,148.43 180.805,147.225 181.94,146.02 183.075,144.815 184.21,143.61 185.345,142.405 186.48,141.2 187.615,139.995 188.75,138.79 189.885,137.585 191.02,136.38 192.155,135.175 193.29,133.97 194.425,132.765 195.56,131.56 196.695,130.355 197.83,129.15 198.965,127.945 200.1,126.74 201.235,125.535 202.37,124.33 203.505,123.125 204.64,121.92 205.775,120.715 206.91,119.51 208.045,118.305 209.18,117.1 210.315,115.895 211.45,114.69 212.585,113.485 213.72,112.28 214.855,111.075 215.99,109.87 217.125,108.665 218.26,107.46 219.395,106.255 220.53,105.05 221.665,103.845 222.8,102.64 223.935,101.435 225.07,100.23 226.205,99.025 227.34,97.82 228.475,96.615 229.61,95.41 230.745,94.205 231.88,93 233.015,91.795 234.15,90.59 235.285,89.385 236.42,88.18 237.555,86.975 238.69,85.77 239.825,84.565 240.96,83.36 242.095,82.155 243.23,80.95 244.365,79.745 245.5,78.54 246.635,77.335 247.77,76.13 248.905,74.925 250.04,73.72 251.175,72.515 252.31,71.31 253.445,70.105 254.58,68.9 255.715,67.695 256.85,66.49 257.985,65.285 259.12,64.08 260.255,62.875 261.39,61.67 262.525,60.465 263.66,59.26 264.795,58.055 265.93,56.85 267.065,55.645 268.2,54.44 269.335,53.235 270.47,52.03 271.605,50.825 272.74,49.62 273.875,48.415 275.01,47.21 276.145,46.005 277.28,44.8 278.415,43.595 279.55,42.39 280.685,41.185 281.82,39.98 282.955,38.775 284.09,37.57 285.225,36.365 286.36,35.16 287.495,33.955 288.63,32.75 289.765,31.545 290.9,30.34 292.035,29.135 293.17,27.93 294.305,26.725 295.44,25.52 296.575,24.315 297.71,23.11 298.845,21.905 299.98,20.7 301.115,19.495 302.25,18.29 303.385,17.085 304.52,15.88 305.655,14.675 306.79,13.47 307.925,12.265 309.06,11.06 " fill="none" stroke-opacity="1.000000" stroke-linecap="round" stroke="#1f77b4" stroke-width="1.000000" />
</g>

<polygon points="82.06,11.06 82.06,252.06 309.06,252.06 309.06,11.06 " stroke="black" stroke-width="1.000000" fill="none" id="id0000000297" pointer-events="none" class="rectangle" />
<polyline points="82.06,252.06 82.06,255.06 " fill="none" stroke-width="1.000000" stroke="black" id="id0000000298" class="line" />
<text id="id0000000299" transform="matrix(1 0 0 1 82.06 11.06)" x="0.000000" y="246.000000" dominant-baseline="hanging" text-anchor="middle" font-size="14.000000px" >
-1
</text>

<polyline points="110.435,252.06 110.435,255.06 " fill="none" stroke-width="1.000000" stroke="black" id="id0000000300" class="line" />
<text id="id0000000301" transform="matrix(1 0 0 1 82.06 11.06)" x="28.375019" y="246.000000" dominant-baseline="hanging" text-anchor="middle" font-size="14.000000px" >
-0.75
</text>

<polyline points="138.81,252.06 138.81,255.06 " fill="none" stroke-width="1.000000" stroke="black" id="id0000000302" class="line" />
<text id="id0000000303" transform="matrix(1 0 0 1 82.06 11.06)" x="56.750038" y="246.000000" dominant-baseline="hanging" text-anchor="middle" font-size="14.000000px" >
-0.5
</text>

<polyline points="167.185,252.06 167.185,255.06 " fill="none" stroke-width="1.000000" stroke="black" id="id0000000304" class="line" />
<text id="id0000000305" transform="matrix(1 0 0 1 82.06 11.06)" x="85.125053" y="246.000000" dominant-baseline="hanging" text-anchor="middle" font-size="14.000000px" >
-0.25
</text>

<polyline points="195.56,252.06 195.56,255.06 " fill="none" stroke-width="1.000000" stroke="black" id="id0000000306" class="line" />
<text id="id0000000307" transform="matrix(1 0 0 1 82.06 11.06)" x="113.500076" y="246.000000" dominant-baseline="hanging" text-anchor="middle" font-size="14.000000px" >
0
</text>

<polyline points="223.935,252.06 223.935,255.06 " fill="none" stroke-width="1.000000" stroke="black" id="id0000000308" class="line" />
<text id="id0000000309" transform="matrix(1 0 0 1 82.06 11.06)" x="141.875092" y="246.000000" dominant-baseline="hanging" text-anchor="middle" font-size="14.000000px" >
0.25
</text>

<polyline points="252.31,252.06 252.31,255.06 " fill="none" stroke-width="1.000000" stroke="black" id="id0000000310" class="line" />
<text id="id0000000311" transform="matrix(1 0 0 1 82.06 11.06)" x="170.250107" y="246.000000" dominant-baseline="hanging" text-anchor="middle" font-size="14.000000px" >
0.5
</text>

<polyline points="280.685,252.06 280.685,255.06 " fill="none" stroke-width="1.000000" stroke="black" id="id0000000312" class="line" />
<text id="id0000000313" transform="matrix(1 0 0 1 82.06 11.06)" x="198.625137" y="246.000000" dominant-baseline="hanging" text-anchor="middle" font-size="14.000000px" >
0.75
</text>

<polyline points="79.06,252.06 82.06,252.06 " fill="none" stroke-width="1.000000" stroke="black" id="id0000000314" class="line" />
<text id="id0000000315" transform="matrix(1 0 0 1 82.06 11.06)" x="-5.000000" y="241.000000" dominant-baseline="middle" text-anchor="end" font-size="14.000000px" >
-1
</text>

<polyline points="79.06,221.935 82.06,221.935 " fill="none" stroke-width="1.000000" stroke="black" id="id0000000316" class="line" />
<text id="id0000000317" transform="matrix(1 0 0 1 82.06 11.06)" x="-5.000000" y="210.874985" dominant-baseline="middle" text-anchor="end" font-size="14.000000px" >
-0.75
</text>

<polyline points="79.06,191.81 82.06,191.81 " fill="none" stroke-width="1.000000" stroke="black" id="id0000000318" class="line" />
<text id="id0000000319" transform="matrix(1 0 0 1 82.06 11.06)" x="-5.000000" y="180.749969" dominant-baseline="middle" text-anchor="end" font-size="14.000000px" >
-0.5
</text>

<polyline points="79.06,161.685 82.06,161.685 " fill="none" stroke-width="1.000000" stroke="black" id="id0000000320" class="line" />
<text id="id0000000321" transform="matrix(1 0 0 1 82.06 11.06)" x="-5.000000" y="150.624939" dominant-baseline="middle" text-anchor="end" font-size="14.000000px" >
-0.25
</text>

<polyline points="79.06,131.56 82.06,131.56 " fill="none" stroke-width="1.000000" stroke="black" id="id0000000322" class="line" />
<text id="id0000000323" transform="matrix(1 0 0 1 82.06 11.06)" x="-5.000000" y="120.499924" dominant-baseline="middle" text-anchor="end" font-size="14.000000px" >
0
</text>

<polyline points="79.06,101.435 82.06,101.435 " fill="none" stroke-width="1.000000" stroke="black" id="id0000000324" class="line" />
<text id="id0000000325" transform="matrix(1 0 0 1 82.06 11.06)" x="-5.000000" y="90.374908" dominant-baseline="middle" text-anchor="end" font-size="14.000000px" >
0.25
</text>

<polyline points="79.06,71.3099 82.06,71.3099 " fill="none" stroke-width="1.000000" stroke="black" id="id0000000326" class="line" />
<text id="id0000000327" transform="matrix(1 0 0 1 82.06 11.06)" x="-5.000000" y="60.249878" dominant-baseline="middle" text-anchor="end" font-size="14.000000px" >
0.5
</text>

<polyline points="79.06,41.1849 82.06,41.1849 " fill="none" stroke-width="1.000000" stroke="black" id="id0000000328" class="line" />
<text id="id0000000329" transform="matrix(1 0 0 1 82.06 11.06)" x="-5.000000" y="30.124863" dominant-baseline="middle" text-anchor="end" font-size="14.000000px" >
0.75
</text>

<text id="id0000000330" transform="matrix(1 0 0 1 82.06 11.06)" x="113.500000" y="269.000000" text-anchor="middle" font-size="18.000000px" >
linear
</text>

<g id="id0000000254" >
<text id="id0000000331" transform="matrix(-4.37114e-08 -1 1 -4.37114e-08 54.06 131.56)" x="0.000000" y="0.000000" text-anchor="middle" font-size="18.000000px" >
linear
</text>

</g>

</g>

</g>

<g id="id0000000255" >
<g id="id0000000256" >
<clipPath id="id0000000256clipper" >
<polygon points="385.08,11.06 385.08,252.06 612.08,252.06 612.08,11.06 " id="id0000000332" class="rectangle" />
</clipPath>

<g clip-path="url(#id0000000256clipper)" id="id0000000258" >
<polyline id="id0000000333" points="499.715,171.729 500.85,147.545 501.985,133.399 503.12,123.362 504.255,115.577 505.39,109.216 506.525,103.837 507.66,99.1787 508.795,95.0694 509.93,91.3936 511.065,88.0683 512.2,85.0326 513.335,82.2401 514.47,79.6545 515.605,77.2475 516.74,74.9958 517.875,72.8807 519.01,70.8866 520.145,69.0002 521.28,67.2107 522.415,65.5085 523.55,63.8855 524.685,62.3346 525.82,60.8498 526.955,59.4256 528.09,58.0572 529.225,56.7405 530.36,55.4717 531.495,54.2474 532.63,53.0647 533.765,51.9207 534.9,50.813 536.035,49.7394 537.17,48.6979 538.305,47.6866 539.44,46.7038 540.575,45.7479 541.71,44.8174 542.845,43.9112 543.98,43.0279 545.115,42.1664 546.25,41.3257 547.385,40.5048 548.52,39.7027 549.655,38.9187 550.79,38.1518 551.925,37.4015 553.06,36.667 554.195,35.9476 555.33,35.2428 556.465,34.5519 557.6,33.8744 558.735,33.2099 559.87,32.5578 561.005,31.9176 562.14,31.2889 563.275,30.6714 564.41,30.0647 565.545,29.4683 566.68,28.8819 567.815,28.3052 568.95,27.7379 570.085,27.1797 571.22,26.6303 572.355,26.0893 573.49,25.5567 574.625,25.032 575.76,24.5152 576.895,24.0058 578.03,23.5038 579.165,23.009 580.3,22.521 581.435,22.0398 582.57,21.5651 583.705,21.0968 584.84,20.6347 585.975,20.1786 587.11,19.7284 588.245,19.284 589.38,18.8451 590.515,18.4117 591.65,17.9837 592.785,17.5608 593.92,17.1429 595.055,16.7301 596.19,16.322 597.325,15.9187 598.46,15.5199 599.595,15.1257 600.73,14.7359 601.865,14.3504 603,13.9691 604.135,13.5919 605.27,13.2188 606.405,12.8496 607.54,12.4842 608.675,12.1227 609.81,11.7649 610.945,11.4107 612.08,11.06 " fill="none" stroke-opacity="1.000000" stroke-linecap="round" stroke="#1f77b4" stroke-width="1.000000" />
</g>

<polygon points="385.08,11.06 385.08,252.06 612.08,252.06 612.08,11.06 " stroke="black" stroke-width="1.000000" fill="none" id="id0000000334" pointer-events="none" class="rectangle" />
<polyline points="385.08,252.06 385.08,255.06 " fill="none" stroke-width="1.000000" stroke="black" id="id0000000335" class="line" />
<text id="id0000000336" transform="matrix(1 0 0 1 385.08 11.06)" x="0.000000" y="246.000000" dominant-baseline="hanging" text-anchor="middle" font-size="14.000000px" >
-1
</text>

<polyline points="413.455,252.06 413.455,255.06 " fill="none" stroke-width="1.000000" stroke="black" id="id0000000337" class="line" />
<text id="id0000000338" transform="matrix(1 0 0 1 385.08 11.06)" x="28.375019" y="246.000000" dominant-baseline="hanging" text-anchor="middle" font-size="14.000000px" >
-0.75
</text>

<polyline points="441.83,252.06 441.83,255.06 " fill="none" stroke-width="1.000000" stroke="black" id="id0000000339" class="line" />
<text id="id0000000340" transform="matrix(1 0 0 1 385.08 11.06)" x="56.750038" y="246.000000" dominant-baseline="hanging" text-anchor="middle" font-size="14.000000px" >
-0.5
</text>

<polyline points="470.205,252.06 470.205,255.06 " fill="none" stroke-width="1.000000" stroke="black" id="id0000000341" class="line" />
<text id="id0000000342" transform="matrix(1 0 0 1 385.08 11.06)" x="85.125053" y="246.000000" dominant-baseline="hanging" text-anchor="middle" font-size="14.000000px" >
-0.25
</text>

<polyline points="498.58,252.06 498.58,255.06 " fill="none" stroke-width="1.000000" stroke="black" id="id0000000343" class="line" />
<text id="id0000000344" transform="matrix(1 0 0 1 385.08 11.06)" x="113.500076" y="246.000000" dominant-baseline="hanging" text-anchor="middle" font-size="14.000000px" >
0
</text>

<polyline points="526.955,252.06 526.955,255.06 " fill="none" stroke-width="1.000000" stroke="black" id="id0000000345" class="line" />
<text id="id0000000346" transform="matrix(1 0 0 1 385.08 11.06)" x="141.875092" y="246.000000" dominant-baseline="hanging" text-anchor="middle" font-size="14.000000px" >
0.25
</text>

<polyline points="555.33,252.06 555.33,255.06 " fill="none" stroke-width="1.000000" stroke="black" id="id0000000347" class="line" />
<text id="id0000000348" transform="matrix(1 0 0 1 385.08 11.06)" x="170.250107" y="246.000000" dominant-baseline="hanging" text-anchor="middle" font-size="14.000000px" >
0.5
</text>

<polyline points="583.705,252.06 583.705,255.06 " fill="none" stroke-width="1.000000" stroke="black" id="id0000000349" class="line" />
<text id="id0000000350" transform="matrix(1 0 0 1 385.08 11.06)" x="198.625137" y="246.000000" dominant-baseline="hanging" text-anchor="middle" font-size="14.000000px" >
0.75
</text>

<polyline points="382.08,252.06 385.08,252.06 " fill="none" stroke-width="1.000000" stroke="black" id="id0000000351" class="line" />
<text id="id0000000352" transform="matrix(1 0 0 1 385.08 11.06)" x="-5.000000" y="241.000000" dominant-baseline="middle" text-anchor="end" font-size="14.000000px" >
10<tspan dy="-7" font-size=".7em">-3</tspan>
</text>

<polyline points="382.08,171.727 385.08,171.727 " fill="none" stroke-width="1.000000" stroke="black" id="id0000000353" class="line" />
<text id="id0000000354" transform="matrix(1 0 0 1 385.08 11.06)" x="-5.000000" y="160.666656" dominant-baseline="middle" text-anchor="end" font-size="14.000000px" >
10<tspan dy="-7" font-size=".7em">-2</tspan>
</text>

<polyline points="382.08,91.3933 385.08,91.3933 " fill="none" stroke-width="1.000000" stroke="black" id="id0000000355" class="line" />
<text id="id0000000356" transform="matrix(1 0 0 1 385.08 11.06)" x="-5.000000" y="80.333328" dominant-baseline="middle" text-anchor="end" font-size="14.000000px" >
10<tspan dy="-7" font-size=".7em">-1</tspan>
</text>

<polyline points="382.08,11.06 385.08,11.06 " fill="none" stroke-width="1.000000" stroke="black" id="id0000000357" class="line" />
<text id="id0000000358" transform="matrix(1 0 0 1 385.08 11.06)" x="-5.000000" y="0.000000" dominant-baseline="middle" text-anchor="end" font-size="14.000000px" >
10<tspan dy="-7" font-size=".7em">0</tspan>
</text>

<text id="id0000000359" transform="matrix(1 0 0 1 385.08 11.06)" x="113.500000" y="269.000000" text-anchor="middle" font-size="18.000000px" >
linear
</text>

<g id="id0000000259" >
<text id="id0000000360" transform="matrix(-4.37114e-08 -1 1 -4.37114e-08 357.08 131.56)" x="0.000000" y="0.000000" text-anchor="middle" font-size="18.000000px" >
log
</text>

</g>

</g>

</g>

<g id="id0000000260" >
<g id="id0000000261" >
<clipPath id="id0000000261clipper" >
<polygon points="688.1,11.06 688.1,252.06 915.1,252.06 915.1,11.06 " id="id0000000361" class="rectangle" />
</clipPath>

<g clip-path="url(#id0000000261clipper)" id="id0000000263" >
<polyline id="id0000000362" points="688.1,252.06 689.235,251.891 690.37,251.72 691.505,251.548 692.64,251.373 693.775,251.197 694.91,251.019 696.045,250.839 697.18,250.657 698.315,250.474 699.45,250.288 700.585,250.1 701.72,249.91 702.855,249.717 703.99,249.523 705.125,249.326 706.26,249.127 707.395,248.926 708.53,248.722 709.665,248.515 710.8,248.306 711.935,248.095 713.07,247.881 714.205,247.664 715.34,247.444 716.475,247.221 717.61,246.995 718.745,246.766 719.88,246.534 721.015,246.299 722.15,246.06 723.285,245.818 724.42,245.573 725.555,245.324 726.69,245.071 727.825,244.814 728.96,244.553 730.095,244.288 731.23,244.019 732.365,243.745 733.5,243.467 734.635,243.185 735.77,242.897 736.905,242.605 738.04,242.307 739.175,242.004 740.31,241.695 741.445,241.381 742.58,241.06 743.715,240.734 744.85,240.4 745.985,240.061 747.12,239.714 748.255,239.36 749.39,238.998 750.525,238.628 751.66,238.25 752.795,237.863 753.93,237.468 755.065,237.062 756.2,236.647 757.335,236.221 758.47,235.784 759.605,235.336 760.74,234.875 761.875,234.401 763.01,233.913 764.145,233.411 765.28,232.893 766.415,232.359 767.55,231.808 768.685,231.238 769.82,230.647 770.955,230.036 772.09,229.401 773.225,228.741 774.36,228.054 775.495,227.338 776.63,226.591 777.765,225.808 778.9,224.987 780.035,224.125 781.17,223.215 782.305,222.254 783.44,221.234 784.575,220.148 785.71,218.988 786.845,217.741 787.98,216.395 789.115,214.931 790.25,213.328 791.385,211.556 792.52,209.574 793.655,207.328 794.79,204.735 795.925,201.669 797.06,197.915 798.195,193.076 799.33,186.256 800.465,174.597 801.6,131.563 802.735,88.5272 803.87,76.8653 805.005,70.0447 806.14,65.2055 807.275,61.4519 808.41,58.385 809.545,55.792 810.68,53.5458 811.815,51.5646 812.95,49.7923 814.085,48.189 815.22,46.7254 816.355,45.379 817.49,44.1324 818.625,42.9718 819.76,41.8862 820.895,40.8664 822.03,39.905 823.165,38.9955 824.3,38.1327 825.435,37.312 826.57,36.5294 827.705,35.7817 828.84,35.0658 829.975,34.3791 831.11,33.7194 832.245,33.0845 833.38,32.4728 834.515,31.8825 835.65,31.3122 836.785,30.7607 837.92,30.2266 839.055,29.709 840.19,29.2069 841.325,28.7193 842.46,28.2454 843.595,27.7845 844.73,27.3359 845.865,26.899 847,26.4731 848.135,26.0577 849.27,25.6524 850.405,25.2566 851.54,24.8699 852.675,24.4919 853.81,24.1221 854.945,23.7604 856.08,23.4062 857.215,23.0594 858.35,22.7196 859.485,22.3865 860.62,22.0598 861.755,21.7394 862.89,21.425 864.025,21.1163 865.16,20.8132 866.295,20.5155 867.43,20.223 868.565,19.9354 869.7,19.6527 870.835,19.3747 871.97,19.1011 873.105,18.832 874.24,18.5671 875.375,18.3063 876.51,18.0495 877.645,17.7965 878.78,17.5473 879.915,17.3017 881.05,17.0597 882.185,16.8211 883.32,16.5859 884.455,16.3538 885.59,16.125 886.725,15.8992 887.86,15.6764 888.995,15.4565 890.13,15.2394 891.265,15.0252 892.4,14.8136 893.535,14.6046 894.67,14.3982 895.805,14.1943 896.94,13.9929 898.075,13.7938 899.21,13.597 900.345,13.4026 901.48,13.2103 902.615,13.0203 903.75,12.8323 904.885,12.6464 906.02,12.4626 907.155,12.2808 908.29,12.1008 909.425,11.9228 910.56,11.7467 911.695,11.5724 912.83,11.3999 913.965,11.2291 915.1,11.06 " fill="none" stroke-opacity="1.000000" stroke-linecap="round" stroke="#1f77b4" stroke-width="1.000000" />
</g>

<polygon points="688.1,11.06 688.1,252.06 915.1,252.06 915.1,11.06 " stroke="black" stroke-width="1.000000" fill="none" id="id0000000363" pointer-events="none" class="rectangle" />
<polyline points="688.1,252.06 688.1,255.06 " fill="none" stroke-width="1.000000" stroke="black" id="id0000000364" class="line" />
<text id="id0000000365" transform="matrix(1 0 0 1 688.1 11.06)" x="0.000000" y="246.000000" dominant-baseline="hanging" text-anchor="middle" font-size="14.000000px" >
-1
</text>

<polyline points="716.475,252.06 716.475,255.06 " fill="none" stroke-width="1.000000" stroke="black" id="id0000000366" class="line" />
<text id="id0000000367" transform="matrix(1 0 0 1 688.1 11.06)" x="28.375019" y="246.000000" dominant-baseline="hanging" text-anchor="middle" font-size="14.000000px" >
-0.75
</text>

<polyline points="744.85,252.06 744.85,255.06 " fill="none" stroke-width="1.000000" stroke="black" id="id0000000368" class="line" />
<text id="id0000000369" transform="matrix(1 0 0 1 688.1 11.06)" x="56.750038" y="246.000000" dominant-baseline="hanging" text-anchor="middle" font-size="14.000000px" >
-0.5
</text>

<polyline points="773.225,252.06 773.225,255.06 " fill="none" stroke-width="1.000000" stroke="black" id="id0000000370" class="line" />
<text id="id0000000371" transform="matrix(1 0 0 1 688.1 11.06)" x="85.125053" y="246.000000" dominant-baseline="hanging" text-anchor="middle" font-size="14.000000px" >
-0.25
</text>

<polyline points="801.6,252.06 801.6,255.06 " fill="none" stroke-width="1.000000" stroke="black" id="id0000000372" class="line" />
<text id="id0000000373" transform="matrix(1 0 0 1 688.1 11.06)" x="113.500076" y="246.000000" dominant-baseline="hanging" text-anchor="middle" font-size="14.000000px" >
0
</text>

<polyline points="829.975,252.06 829.975,255.06 " fill="none" stroke-width="1.000000" stroke="black" id="id0000000374" class="line" />
<text id="id0000000375" transform="matrix(1 0 0 1 688.1 11.06)" x="141.875092" y="246.000000" dominant-baseline="hanging" text-anchor="middle" font-size="14.000000px" >
0.25
</text>

<polyline points="858.35,252.06 858.35,255.06 " fill="none" stroke-width="1.000000" stroke="black" id="id0000000376" class="line" />
<text id="id0000000377" transform="matrix(1 0 0 1 688.1 11.06)" x="170.250107" y="246.000000" dominant-baseline="hanging" text-anchor="middle" font-size="14.000000px" >
0.5
</text>

<polyline points="886.725,252.06 886.725,255.06 " fill="none" stroke-width="1.000000" stroke="black" id="id0000000378" class="line" />
<text id="id0000000379" transform="matrix(1 0 0 1 688.1 11.06)" x="198.625137" y="246.000000" dominant-baseline="hanging" text-anchor="middle" font-size="14.000000px" >
0.75
</text>

<polyline points="685.1,252.06 688.1,252.06 " fill="none" stroke-width="1.000000" stroke="black" id="id0000000380" class="line" />
<text id="id0000000381" transform="matrix(1 0 0 1 688.1 11.06)" x="-5.000000" y="241.000000" dominant-baseline="middle" text-anchor="end" font-size="14.000000px" >
-10<tspan dy="-7" font-size=".7em">0</tspan>
</text>

<polyline points="685.1,174.596 688.1,174.596 " fill="none" stroke-width="1.000000" stroke="black" id="id0000000382" class="line" />
<text id="id0000000383" transform="matrix(1 0 0 1 688.1 11.06)" x="-5.000000" y="163.535721" dominant-baseline="middle" text-anchor="end" font-size="14.000000px" >
-10<tspan dy="-7" font-size=".7em">-2</tspan>
</text>

<polyline points="685.1,131.56 688.1,131.56 " fill="none" stroke-width="1.000000" stroke="black" id="id0000000384" class="line" />
<text id="id0000000385" transform="matrix(1 0 0 1 688.1 11.06)" x="-5.000000" y="120.500000" dominant-baseline="middle" text-anchor="end" font-size="14.000000px" >
0
</text>

<polyline points="685.1,88.5243 688.1,88.5243 " fill="none" stroke-width="1.000000" stroke="black" id="id0000000386" class="line" />
<text id="id0000000387" transform="matrix(1 0 0 1 688.1 11.06)" x="-5.000000" y="77.464279" dominant-baseline="middle" text-anchor="end" font-size="14.000000px" >
10<tspan dy="-7" font-size=".7em">-2</tspan>
</text>

<polyline points="685.1,11.06 688.1,11.06 " fill="none" stroke-width="1.000000" stroke="black" id="id0000000388" class="line" />
<text id="id0000000389" transform="matrix(1 0 0 1 688.1 11.06)" x="-5.000000" y="0.000000" dominant-baseline="middle" text-anchor="end" font-size="14.000000px" >
10<tspan dy="-7" font-size=".7em">0</tspan>
</text>

<text id="id0000000390" transform="matrix(1 0 0 1 688.1 11.06)" x="113.500000" y="269.000000" text-anchor="middle" font-size="18.000000px" >
linear
</text>

<g id="id0000000264" >
<text id="id0000000391" transform="matrix(-4.37114e-08 -1 1 -4.37114e-08 660.1 131.56)" x="0.000000" y="0.000000" text-anchor="middle" font-size="18.000000px" >
symlog
</text>

</g>

</g>

</g>

<g id="id0000000265" >
<g id="id0000000266" >
<clipPath id="id0000000266clipper" >
<polygon points="82.06,314.08 82.06,555.08 309.06,555.08 309.06,314.08 " id="id0000000392" class="rectangle" />
</clipPath>

<g clip-path="url(#id0000000266clipper)" id="id0000000268" >
<polyline id="id0000000393" points="157.724,433.375 180.504,432.17 193.828,430.965 203.282,429.76 210.615,428.555 216.606,427.35 221.672,426.145 226.06,424.94 229.931,423.735 233.393,422.53 236.525,421.325 239.385,420.12 242.015,418.915 244.45,417.71 246.717,416.505 248.838,415.3 250.831,414.095 252.709,412.89 254.486,411.685 256.171,410.48 257.774,409.275 259.303,408.07 260.764,406.865 262.163,405.66 263.504,404.455 264.793,403.25 266.033,402.045 267.228,400.84 268.381,399.635 269.495,398.43 270.573,397.225 271.616,396.02 272.627,394.815 273.608,393.61 274.561,392.405 275.487,391.2 276.387,389.995 277.264,388.79 278.117,387.585 278.949,386.38 279.761,385.175 280.552,383.97 281.326,382.765 282.081,381.56 282.82,380.355 283.542,379.15 284.249,377.945 284.941,376.74 285.618,375.535 286.282,374.33 286.933,373.125 287.571,371.92 288.197,370.715 288.811,369.51 289.414,368.305 290.006,367.1 290.588,365.895 291.159,364.69 291.721,363.485 292.273,362.28 292.817,361.075 293.351,359.87 293.877,358.665 294.394,357.46 294.904,356.255 295.405,355.05 295.9,353.845 296.386,352.64 296.866,351.435 297.339,350.23 297.805,349.025 298.265,347.82 298.718,346.615 299.165,345.41 299.606,344.205 300.042,343 300.471,341.795 300.895,340.59 301.314,339.385 301.727,338.18 302.135,336.975 302.539,335.77 302.937,334.565 303.33,333.36 303.719,332.155 304.104,330.95 304.484,329.745 304.859,328.54 305.23,327.335 305.598,326.13 305.961,324.925 306.32,323.72 306.675,322.515 307.027,321.31 307.374,320.105 307.718,318.9 308.059,317.695 308.396,316.49 308.73,315.285 309.06,314.08 " fill="none" stroke-opacity="1.000000" stroke-linecap="round" stroke="#1f77b4" stroke-width="1.000000" />
</g>

<polygon points="82.06,314.08 82.06,555.08 309.06,555.08 309.06,314.08 " stroke="black" stroke-width="1.000000" fill="none" id="id0000000394" pointer-events="none" class="rectangle" />
<polyline points="82.06,555.08 82.06,558.08 " fill="none" stroke-width="1.000000" stroke="black" id="id0000000395" class="line" />
<text id="id0000000396" transform="matrix(1 0 0 1 82.06 314.08)" x="0.000000" y="246.000000" dominant-baseline="hanging" text-anchor="middle" font-size="14.000000px" >
10<tspan dy="-7" font-size=".7em">-3</tspan>
</text>

<polyline points="157.727,555.08 157.727,558.08 " fill="none" stroke-width="1.000000" stroke="black" id="id0000000397" class="line" />
<text id="id0000000398" transform="matrix(1 0 0 1 82.06 314.08)" x="75.666664" y="246.000000" dominant-baseline="hanging" text-anchor="middle" font-size="14.000000px" >
10<tspan dy="-7" font-size=".7em">-2</tspan>
</text>

<polyline points="233.393,555.08 233.393,558.08 " fill="none" stroke-width="1.000000" stroke="black" id="id0000000399" class="line" />
<text id="id0000000400" transform="matrix(1 0 0 1 82.06 314.08)" x="151.333328" y="246.000000" dominant-baseline="hanging" text-anchor="middle" font-size="14.000000px" >
10<tspan dy="-7" font-size=".7em">-1</tspan>
</text>

<polyline points="309.06,555.08 309.06,558.08 " fill="none" stroke-width="1.000000" stroke="black" id="id0000000401" class="line" />
<text id="id0000000402" transform="matrix(1 0 0 1 82.06 314.08)" x="227.000000" y="246.000000" dominant-baseline="hanging" text-anchor="middle" font-size="14.000000px" >
10<tspan dy="-7" font-size=".7em">0</tspan>
</text>

<polyline points="79.06,555.08 82.06,555.08 " fill="none" stroke-width="1.000000" stroke="black" id="id0000000403" class="line" />
<text id="id0000000404" transform="matrix(1 0 0 1 82.06 314.08)" x="-5.000000" y="241.000000" dominant-baseline="middle" text-anchor="end" font-size="14.000000px" >
-1
</text>

<polyline points="79.06,524.955 82.06,524.955 " fill="none" stroke-width="1.000000" stroke="black" id="id0000000405" class="line" />
<text id="id0000000406" transform="matrix(1 0 0 1 82.06 314.08)" x="-5.000000" y="210.874985" dominant-baseline="middle" text-anchor="end" font-size="14.000000px" >
-0.75
</text>

<polyline points="79.06,494.83 82.06,494.83 " fill="none" stroke-width="1.000000" stroke="black" id="id0000000407" class="line" />
<text id="id0000000408" transform="matrix(1 0 0 1 82.06 314.08)" x="-5.000000" y="180.749969" dominant-baseline="middle" text-anchor="end" font-size="14.000000px" >
-0.5
</text>

<polyline points="79.06,464.705 82.06,464.705 " fill="none" stroke-width="1.000000" stroke="black" id="id0000000409" class="line" />
<text id="id0000000410" transform="matrix(1 0 0 1 82.06 314.08)" x="-5.000000" y="150.624939" dominant-baseline="middle" text-anchor="end" font-size="14.000000px" >
-0.25
</text>

<polyline points="79.06,434.58 82.06,434.58 " fill="none" stroke-width="1.000000" stroke="black" id="id0000000411" class="line" />
<text id="id0000000412" transform="matrix(1 0 0 1 82.06 314.08)" x="-5.000000" y="120.499924" dominant-baseline="middle" text-anchor="end" font-size="14.000000px" >
0
</text>

<polyline points="79.06,404.455 82.06,404.455 " fill="none" stroke-width="1.000000" stroke="black" id="id0000000413" class="line" />
<text id="id0000000414" transform="matrix(1 0 0 1 82.06 314.08)" x="-5.000000" y="90.374908" dominant-baseline="middle" text-anchor="end" font-size="14.000000px" >
0.25
</text>

<polyline points="79.06,374.33 82.06,374.33 " fill="none" stroke-width="1.000000" stroke="black" id="id0000000415" class="line" />
<text id="id0000000416" transform="matrix(1 0 0 1 82.06 314.08)" x="-5.000000" y="60.249878" dominant-baseline="middle" text-anchor="end" font-size="14.000000px" >
0.5
</text>

<polyline points="79.06,344.205 82.06,344.205 " fill="none" stroke-width="1.000000" stroke="black" id="id0000000417" class="line" />
<text id="id0000000418" transform="matrix(1 0 0 1 82.06 314.08)" x="-5.000000" y="30.124863" dominant-baseline="middle" text-anchor="end" font-size="14.000000px" >
0.75
</text>

<text id="id0000000419" transform="matrix(1 0 0 1 82.06 314.08)" x="113.500000" y="269.000000" text-anchor="middle" font-size="18.000000px" >
log
</text>

<g id="id0000000269" >
<text id="id0000000420" transform="matrix(-4.37114e-08 -1 1 -4.37114e-08 54.06 434.58)" x="0.000000" y="0.000000" text-anchor="middle" font-size="18.000000px" >
linear
</text>

</g>

</g>

</g>

<g id="id0000000270" >
<g id="id0000000271" >
<clipPath id="id0000000271clipper" >
<polygon points="385.08,314.08 385.08,555.08 612.08,555.08 612.08,314.08 " id="id0000000421" class="rectangle" />
</clipPath>

<g clip-path="url(#id0000000271clipper)" id="id0000000273" >
<polyline id="id0000000422" points="460.744,474.749 483.523,450.565 496.848,436.419 506.302,426.382 513.635,418.597 519.626,412.236 524.692,406.857 529.08,402.199 532.951,398.089 536.413,394.414 539.545,391.088 542.404,388.053 545.035,385.26 547.47,382.675 549.737,380.267 551.858,378.016 553.85,375.901 555.729,373.907 557.506,372.02 559.191,370.231 560.794,368.528 562.323,366.905 563.784,365.355 565.182,363.87 566.524,362.446 567.813,361.077 569.053,359.76 570.248,358.492 571.401,357.267 572.515,356.085 573.593,354.941 574.636,353.833 575.647,352.759 576.628,351.718 577.581,350.707 578.507,349.724 579.407,348.768 580.284,347.837 581.137,346.931 581.969,346.048 582.781,345.186 583.572,344.346 584.346,343.525 585.101,342.723 585.84,341.939 586.562,341.172 587.269,340.422 587.961,339.687 588.638,338.968 589.302,338.263 589.953,337.572 590.591,336.894 591.217,336.23 591.831,335.578 592.434,334.938 593.026,334.309 593.608,333.691 594.179,333.085 594.741,332.488 595.293,331.902 595.837,331.325 596.371,330.758 596.897,330.2 597.414,329.65 597.924,329.109 598.425,328.577 598.92,328.052 599.406,327.535 599.886,327.026 600.359,326.524 600.825,326.029 601.285,325.541 601.738,325.06 602.185,324.585 602.626,324.117 603.061,323.655 603.491,323.199 603.915,322.748 604.334,322.304 604.747,321.865 605.155,321.432 605.558,321.004 605.957,320.581 606.35,320.163 606.739,319.75 607.124,319.342 607.504,318.939 607.879,318.54 608.25,318.146 608.618,317.756 608.981,317.37 609.34,316.989 609.695,316.612 610.047,316.239 610.394,315.87 610.738,315.504 611.079,315.143 611.416,314.785 611.75,314.431 612.08,314.08 " fill="none" stroke-opacity="1.000000" stroke-linecap="round" stroke="#1f77b4" stroke-width="1.000000" />
</g>

<polygon points="385.08,314.08 385.08,555.08 612.08,555.08 612.08,314.08 " stroke="black" stroke-width="1.000000" fill="none" id="id0000000423" pointer-events="none" class="rectangle" />
<polyline points="385.08,555.08 385.08,558.08 " fill="none" stroke-width="1.000000" stroke="black" id="id0000000424" class="line" />
<text id="id0000000425" transform="matrix(1 0 0 1 385.08 314.08)" x="0.000000" y="246.000000" dominant-baseline="hanging" text-anchor="middle" font-size="14.000000px" >
10<tspan dy="-7" font-size=".7em">-3</tspan>
</text>

<polyline points="460.747,555.08 460.747,558.08 " fill="none" stroke-width="1.000000" stroke="black" id="id0000000426" class="line" />
<text id="id0000000427" transform="matrix(1 0 0 1 385.08 314.08)" x="75.666664" y="246.000000" dominant-baseline="hanging" text-anchor="middle" font-size="14.000000px" >
10<tspan dy="-7" font-size=".7em">-2</tspan>
</text>

<polyline points="536.413,555.08 536.413,558.08 " fill="none" stroke-width="1.000000" stroke="black" id="id0000000428" class="line" />
<text id="id0000000429" transform="matrix(1 0 0 1 385.08 314.08)" x="151.333328" y="246.000000" dominant-baseline="hanging" text-anchor="middle" font-size="14.000000px" >
10<tspan dy="-7" font-size=".7em">-1</tspan>
</text>

<polyline points="612.08,555.08 612.08,558.08 " fill="none" stroke-width="1.000000" stroke="black" id="id0000000430" class="line" />
<text id="id0000000431" transform="matrix(1 0 0 1 385.08 314.08)" x="227.000000" y="246.000000" dominant-baseline="hanging" text-anchor="middle" font-size="14.000000px" >
10<tspan dy="-7" font-size=".7em">0</tspan>
</text>

<polyline points="382.08,555.08 385.08,555.08 " fill="none" stroke-width="1.000000" stroke="black" id="id0000000432" class="line" />
<text id="id0000000433" transform="matrix(1 0 0 1 385.08 314.08)" x="-5.000000" y="241.000000" dominant-baseline="middle" text-anchor="end" font-size="14.000000px" >
10<tspan dy="-7" font-size=".7em">-3</tspan>
</text>

<polyline points="382.08,474.747 385.08,474.747 " fill="none" stroke-width="1.000000" stroke="black" id="id0000000434" class="line" />
<text id="id0000000435" transform="matrix(1 0 0 1 385.08 314.08)" x="-5.000000" y="160.666656" dominant-baseline="middle" text-anchor="end" font-size="14.000000px" >
10<tspan dy="-7" font-size=".7em">-2</tspan>
</text>

<polyline points="382.08,394.413 385.08,394.413 " fill="none" stroke-width="1.000000" stroke="black" id="id0000000436" class="line" />
<text id="id0000000437" transform="matrix(1 0 0 1 385.08 314.08)" x="-5.000000" y="80.333328" dominant-baseline="middle" text-anchor="end" font-size="14.000000px" >
10<tspan dy="-7" font-size=".7em">-1</tspan>
</text>

<polyline points="382.08,314.08 385.08,314.08 " fill="none" stroke-width="1.000000" stroke="black" id="id0000000438" class="line" />
<text id="id0000000439" transform="matrix(1 0 0 1 385.08 314.08)" x="-5.000000" y="0.000000" dominant-baseline="middle" text-anchor="end" font-size="14.000000px" >
10<tspan dy="-7" font-size=".7em">0</tspan>
</text>

<text id="id0000000440" transform="matrix(1 0 0 1 385.08 314.08)" x="113.500000" y="269.000000" text-anchor="middle" font-size="18.000000px" >
log
</text>

<g id="id0000000274" >
<text id="id0000000441" transform="matrix(-4.37114e-08 -1 1 -4.37114e-08 357.08 434.58)" x="0.000000" y="0.000000" text-anchor="middle" font-size="18.000000px" >
log
</text>

</g>

</g>

</g>

<g id="id0000000275" >
<g id="id0000000276" >
<clipPath id="id0000000276clipper" >
<polygon points="688.1,314.08 688.1,555.08 915.1,555.08 915.1,314.08 " id="id0000000442" class="rectangle" />
</clipPath>

<g clip-path="url(#id0000000276clipper)" id="id0000000278" >
<polyline id="id0000000443" points="763.764,391.547 786.543,379.885 799.868,373.065 809.322,368.225 816.655,364.472 822.646,361.405 827.712,358.812 832.1,356.566 835.971,354.585 839.433,352.812 842.565,351.209 845.424,349.745 848.055,348.399 850.49,347.152 852.757,345.992 854.878,344.906 856.87,343.886 858.749,342.925 860.526,342.015 862.211,341.153 863.814,340.332 865.343,339.549 866.804,338.802 868.203,338.086 869.544,337.399 870.833,336.739 872.073,336.105 873.268,335.493 874.421,334.902 875.535,334.332 876.613,333.781 877.656,333.247 878.667,332.729 879.648,332.227 880.601,331.739 881.527,331.265 882.427,330.805 883.304,330.356 884.157,329.919 884.989,329.493 885.801,329.078 886.592,328.672 887.366,328.277 888.121,327.89 888.86,327.512 889.582,327.142 890.289,326.78 890.981,326.426 891.658,326.079 892.322,325.74 892.973,325.406 893.611,325.08 894.237,324.759 894.851,324.445 895.454,324.136 896.046,323.833 896.628,323.536 897.199,323.243 897.761,322.955 898.313,322.673 898.857,322.395 899.391,322.121 899.917,321.852 900.434,321.587 900.944,321.326 901.445,321.069 901.94,320.817 902.426,320.567 902.906,320.322 903.379,320.08 903.845,319.841 904.305,319.606 904.758,319.374 905.205,319.145 905.646,318.919 906.081,318.696 906.511,318.476 906.935,318.259 907.354,318.045 907.767,317.834 908.175,317.625 908.578,317.418 908.977,317.214 909.37,317.013 909.759,316.814 910.144,316.617 910.524,316.423 910.899,316.23 911.27,316.04 911.638,315.852 912.001,315.666 912.36,315.483 912.715,315.301 913.067,315.121 913.414,314.943 913.758,314.767 914.099,314.592 914.436,314.42 914.77,314.249 915.1,314.08 " fill="none" stroke-opacity="1.000000" stroke-linecap="round" stroke="#1f77b4" stroke-width="1.000000" />
</g>

<polygon points="688.1,314.08 688.1,555.08 915.1,555.08 915.1,314.08 " stroke="black" stroke-width="1.000000" fill="none" id="id0000000444" pointer-events="none" class="rectangle" />
<polyline points="688.1,555.08 688.1,558.08 " fill="none" stroke-width="1.000000" stroke="black" id="id0000000445" class="line" />
<text id="id0000000446" transform="matrix(1 0 0 1 688.1 314.08)" x="0.000000" y="246.000000" dominant-baseline="hanging" text-anchor="middle" font-size="14.000000px" >
10<tspan dy="-7" font-size=".7em">-3</tspan>
</text>

<polyline points="763.767,555.08 763.767,558.08 " fill="none" stroke-width="1.000000" stroke="black" id="id0000000447" class="line" />
<text id="id0000000448" transform="matrix(1 0 0 1 688.1 314.08)" x="75.666664" y="246.000000" dominant-baseline="hanging" text-anchor="middle" font-size="14.000000px" >
10<tspan dy="-7" font-size=".7em">-2</tspan>
</text>

<polyline points="839.433,555.08 839.433,558.08 " fill="none" stroke-width="1.000000" stroke="black" id="id0000000449" class="line" />
<text id="id0000000450" transform="matrix(1 0 0 1 688.1 314.08)" x="151.333328" y="246.000000" dominant-baseline="hanging" text-anchor="middle" font-size="14.000000px" >
10<tspan dy="-7" font-size=".7em">-1</tspan>
</text>

<polyline points="915.1,555.08 915.1,558.08 " fill="none" stroke-width="1.000000" stroke="black" id="id0000000451" class="line" />
<text id="id0000000452" transform="matrix(1 0 0 1 688.1 314.08)" x="227.000000" y="246.000000" dominant-baseline="hanging" text-anchor="middle" font-size="14.000000px" >
10<tspan dy="-7" font-size=".7em">0</tspan>
</text>

<polyline points="685.1,555.08 688.1,555.08 " fill="none" stroke-width="1.000000" stroke="black" id="id0000000453" class="line" />
<text id="id0000000454" transform="matrix(1 0 0 1 688.1 314.08)" x="-5.000000" y="241.000000" dominant-baseline="middle" text-anchor="end" font-size="14.000000px" >
-10<tspan dy="-7" font-size=".7em">0</tspan>
</text>

<polyline points="685.1,477.616 688.1,477.616 " fill="none" stroke-width="1.000000" stroke="black" id="id0000000455" class="line" />
<text id="id0000000456" transform="matrix(1 0 0 1 688.1 314.08)" x="-5.000000" y="163.535721" dominant-baseline="middle" text-anchor="end" font-size="14.000000px" >
-10<tspan dy="-7" font-size=".7em">-2</tspan>
</text>

<polyline points="685.1,434.58 688.1,434.58 " fill="none" stroke-width="1.000000" stroke="black" id="id0000000457" class="line" />
<text id="id0000000458" transform="matrix(1 0 0 1 688.1 314.08)" x="-5.000000" y="120.500000" dominant-baseline="middle" text-anchor="end" font-size="14.000000px" >
0
</text>

<polyline points="685.1,391.544 688.1,391.544 " fill="none" stroke-width="1.000000" stroke="black" id="id0000000459" class="line" />
<text id="id0000000460" transform="matrix(1 0 0 1 688.1 314.08)" x="-5.000000" y="77.464279" dominant-baseline="middle" text-anchor="end" font-size="14.000000px" >
10<tspan dy="-7" font-size=".7em">-2</tspan>
</text>

<polyline points="685.1,314.08 688.1,314.08 " fill="none" stroke-width="1.000000" stroke="black" id="id0000000461" class="line" />
<text id="id0000000462" transform="matrix(1 0 0 1 688.1 314.08)" x="-5.000000" y="0.000000" dominant-baseline="middle" text-anchor="end" font-size="14.000000px" >
10<tspan dy="-7" font-size=".7em">0</tspan>
</text>

<text id="id0000000463" transform="matrix(1 0 0 1 688.1 314.08)" x="113.500000" y="269.000000" text-anchor="middle" font-size="18.000000px" >
log
</text>

<g id="id0000000279" >
<text id="id0000000464" transform="matrix(-4.37114e-08 -1 1 -4.37114e-08 660.1 434.58)" x="0.000000" y="0.000000" text-anchor="middle" font-size="18.000000px" >
symlog
</text>

</g>

</g>

</g>

<g id="id0000000280" >
<g id="id0000000281" >
<clipPath id="id0000000281clipper" >
<polygon points="82.06,617.1 82.06,858.1 309.06,858.1 309.06,617.1 " id="id0000000465" class="rectangle" />
</clipPath>

<g clip-path="url(#id0000000281clipper)" id="id0000000283" >
<polyline id="id0000000466" points="82.06,858.1 82.2192,856.895 82.3801,855.69 82.5426,854.485 82.7068,853.28 82.8727,852.075 83.0404,850.87 83.2098,849.665 83.3811,848.46 83.5543,847.255 83.7293,846.05 83.9064,844.845 84.0854,843.64 84.2665,842.435 84.4496,841.23 84.6349,840.025 84.8224,838.82 85.0122,837.615 85.2043,836.41 85.3987,835.205 85.5955,834 85.7948,832.795 85.9966,831.59 86.2011,830.385 86.4082,829.18 86.618,827.975 86.8307,826.77 87.0463,825.565 87.2648,824.36 87.4864,823.155 87.7112,821.95 87.9391,820.745 88.1704,819.54 88.4052,818.335 88.6434,817.13 88.8853,815.925 89.131,814.72 89.3805,813.515 89.634,812.31 89.8916,811.105 90.1535,809.9 90.4198,808.695 90.6907,807.49 90.9662,806.285 91.2466,805.08 91.5321,803.875 91.8228,802.67 92.119,801.465 92.4208,800.26 92.7285,799.055 93.0422,797.85 93.3623,796.645 93.689,795.44 94.0226,794.235 94.3633,793.03 94.7115,791.825 95.0676,790.62 95.4318,789.415 95.8047,788.21 96.1865,787.005 96.5777,785.8 96.9788,784.595 97.3904,783.39 97.8129,782.185 98.247,780.98 98.6933,779.775 99.1526,778.57 99.6256,777.365 100.113,776.16 100.616,774.955 101.136,773.75 101.673,772.545 102.229,771.34 102.805,770.135 103.403,768.93 104.024,767.725 104.671,766.52 105.345,765.315 106.05,764.11 106.787,762.905 107.56,761.7 108.373,760.495 109.229,759.29 110.135,758.085 111.095,756.88 112.118,755.675 113.211,754.47 114.385,753.265 115.653,752.06 117.032,750.855 118.542,749.65 120.211,748.445 122.077,747.24 124.193,746.035 126.635,744.83 129.524,743.625 133.06,742.42 137.618,741.215 144.042,740.01 155.023,738.805 195.557,737.6 236.093,736.395 247.077,735.19 253.502,733.985 258.06,732.78 261.595,731.575 264.484,730.37 266.927,729.165 269.042,727.96 270.908,726.755 272.578,725.55 274.088,724.345 275.466,723.14 276.735,721.935 277.909,720.73 279.002,719.525 280.025,718.32 280.985,717.115 281.891,715.91 282.747,714.705 283.56,713.5 284.333,712.295 285.07,711.09 285.774,709.885 286.449,708.68 287.096,707.475 287.717,706.27 288.315,705.065 288.891,703.86 289.447,702.655 289.984,701.45 290.504,700.245 291.007,699.04 291.494,697.835 291.967,696.63 292.427,695.425 292.873,694.22 293.307,693.015 293.73,691.81 294.141,690.605 294.542,689.4 294.933,688.195 295.315,686.99 295.688,685.785 296.052,684.58 296.408,683.375 296.757,682.17 297.097,680.965 297.431,679.76 297.758,678.555 298.078,677.35 298.392,676.145 298.699,674.94 299.001,673.735 299.297,672.53 299.588,671.325 299.873,670.12 300.154,668.915 300.429,667.71 300.7,666.505 300.966,665.3 301.228,664.095 301.486,662.89 301.739,661.685 301.989,660.48 302.235,659.275 302.477,658.07 302.715,656.865 302.95,655.66 303.181,654.455 303.409,653.25 303.634,652.045 303.855,650.84 304.074,649.635 304.289,648.43 304.502,647.225 304.712,646.02 304.919,644.815 305.123,643.61 305.325,642.405 305.524,641.2 305.721,639.995 305.916,638.79 306.108,637.585 306.298,636.38 306.485,635.175 306.67,633.97 306.854,632.765 307.035,631.56 307.214,630.355 307.391,629.15 307.566,627.945 307.739,626.74 307.91,625.535 308.08,624.33 308.247,623.125 308.413,621.92 308.577,620.715 308.74,619.51 308.901,618.305 309.06,617.1 " fill="none" stroke-opacity="1.000000" stroke-linecap="round" stroke="#1f77b4" stroke-width="1.000000" />
</g>

<polygon points="82.06,617.1 82.06,858.1 309.06,858.1 309.06,617.1 " stroke="black" stroke-width="1.000000" fill="none" id="id0000000467" pointer-events="none" class="rectangle" />
<polyline points="82.06,858.1 82.06,861.1 " fill="none" stroke-width="1.000000" stroke="black" id="id0000000468" class="line" />
<text id="id0000000469" transform="matrix(1 0 0 1 82.06 617.1)" x="0.000000" y="246.000000" dominant-baseline="hanging" text-anchor="middle" font-size="14.000000px" >
-10<tspan dy="-7" font-size=".7em">0</tspan>
</text>

<polyline points="155.024,858.1 155.024,861.1 " fill="none" stroke-width="1.000000" stroke="black" id="id0000000470" class="line" />
<text id="id0000000471" transform="matrix(1 0 0 1 82.06 617.1)" x="72.964287" y="246.000000" dominant-baseline="hanging" text-anchor="middle" font-size="14.000000px" >
-10<tspan dy="-7" font-size=".7em">-2</tspan>
</text>

<polyline points="195.56,858.1 195.56,861.1 " fill="none" stroke-width="1.000000" stroke="black" id="id0000000472" class="line" />
<text id="id0000000473" transform="matrix(1 0 0 1 82.06 617.1)" x="113.500000" y="246.000000" dominant-baseline="hanging" text-anchor="middle" font-size="14.000000px" >
0
</text>

<polyline points="236.096,858.1 236.096,861.1 " fill="none" stroke-width="1.000000" stroke="black" id="id0000000474" class="line" />
<text id="id0000000475" transform="matrix(1 0 0 1 82.06 617.1)" x="154.035721" y="246.000000" dominant-baseline="hanging" text-anchor="middle" font-size="14.000000px" >
10<tspan dy="-7" font-size=".7em">-2</tspan>
</text>

<polyline points="309.06,858.1 309.06,861.1 " fill="none" stroke-width="1.000000" stroke="black" id="id0000000476" class="line" />
<text id="id0000000477" transform="matrix(1 0 0 1 82.06 617.1)" x="227.000000" y="246.000000" dominant-baseline="hanging" text-anchor="middle" font-size="14.000000px" >
10<tspan dy="-7" font-size=".7em">0</tspan>
</text>

<polyline points="79.06,858.1 82.06,858.1 " fill="none" stroke-width="1.000000" stroke="black" id="id0000000478" class="line" />
<text id="id0000000479" transform="matrix(1 0 0 1 82.06 617.1)" x="-5.000000" y="241.000000" dominant-baseline="middle" text-anchor="end" font-size="14.000000px" >
-1
</text>

<polyline points="79.06,827.975 82.06,827.975 " fill="none" stroke-width="1.000000" stroke="black" id="id0000000480" class="line" />
<text id="id0000000481" transform="matrix(1 0 0 1 82.06 617.1)" x="-5.000000" y="210.874985" dominant-baseline="middle" text-anchor="end" font-size="14.000000px" >
-0.75
</text>

<polyline points="79.06,797.85 82.06,797.85 " fill="none" stroke-width="1.000000" stroke="black" id="id0000000482" class="line" />
<text id="id0000000483" transform="matrix(1 0 0 1 82.06 617.1)" x="-5.000000" y="180.749969" dominant-baseline="middle" text-anchor="end" font-size="14.000000px" >
-0.5
</text>

<polyline points="79.06,767.725 82.06,767.725 " fill="none" stroke-width="1.000000" stroke="black" id="id0000000484" class="line" />
<text id="id0000000485" transform="matrix(1 0 0 1 82.06 617.1)" x="-5.000000" y="150.624939" dominant-baseline="middle" text-anchor="end" font-size="14.000000px" >
-0.25
</text>

<polyline points="79.06,737.6 82.06,737.6 " fill="none" stroke-width="1.000000" stroke="black" id="id0000000486" class="line" />
<text id="id0000000487" transform="matrix(1 0 0 1 82.06 617.1)" x="-5.000000" y="120.499924" dominant-baseline="middle" text-anchor="end" font-size="14.000000px" >
0
</text>

<polyline points="79.06,707.475 82.06,707.475 " fill="none" stroke-width="1.000000" stroke="black" id="id0000000488" class="line" />
<text id="id0000000489" transform="matrix(1 0 0 1 82.06 617.1)" x="-5.000000" y="90.374908" dominant-baseline="middle" text-anchor="end" font-size="14.000000px" >
0.25
</text>

<polyline points="79.06,677.35 82.06,677.35 " fill="none" stroke-width="1.000000" stroke="black" id="id0000000490" class="line" />
<text id="id0000000491" transform="matrix(1 0 0 1 82.06 617.1)" x="-5.000000" y="60.249878" dominant-baseline="middle" text-anchor="end" font-size="14.000000px" >
0.5
</text>

<polyline points="79.06,647.225 82.06,647.225 " fill="none" stroke-width="1.000000" stroke="black" id="id0000000492" class="line" />
<text id="id0000000493" transform="matrix(1 0 0 1 82.06 617.1)" x="-5.000000" y="30.124863" dominant-baseline="middle" text-anchor="end" font-size="14.000000px" >
0.75
</text>

<text id="id0000000494" transform="matrix(1 0 0 1 82.06 617.1)" x="113.500000" y="269.000000" text-anchor="middle" font-size="18.000000px" >
symlog
</text>

<g id="id0000000284" >
<text id="id0000000495" transform="matrix(-4.37114e-08 -1 1 -4.37114e-08 54.06 737.6)" x="0.000000" y="0.000000" text-anchor="middle" font-size="18.000000px" >
linear
</text>

</g>

</g>

</g>

<g id="id0000000285" >
<g id="id0000000286" >
<clipPath id="id0000000286clipper" >
<polygon points="385.08,617.1 385.08,858.1 612.08,858.1 612.08,617.1 " id="id0000000496" class="rectangle" />
</clipPath>

<g clip-path="url(#id0000000286clipper)" id="id0000000288" >
<polyline id="id0000000497" points="539.113,777.769 550.097,753.585 556.522,739.439 561.08,729.402 564.615,721.617 567.504,715.256 569.947,709.877 572.062,705.219 573.928,701.109 575.598,697.434 577.108,694.108 578.486,691.073 579.755,688.28 580.929,685.695 582.022,683.287 583.044,681.036 584.005,678.921 584.911,676.927 585.767,675.04 586.58,673.251 587.353,671.548 588.09,669.925 588.794,668.375 589.469,666.89 590.115,665.466 590.737,664.097 591.335,662.781 591.911,661.512 592.467,660.287 593.004,659.105 593.524,657.961 594.027,656.853 594.514,655.779 594.987,654.738 595.447,653.727 595.893,652.744 596.327,651.788 596.75,650.857 597.161,649.951 597.562,649.068 597.953,648.206 598.335,647.366 598.708,646.545 599.072,645.743 599.428,644.959 599.777,644.192 600.117,643.442 600.451,642.707 600.778,641.988 601.098,641.283 601.411,640.592 601.719,639.914 602.021,639.25 602.317,638.598 602.608,637.958 602.893,637.329 603.174,636.711 603.449,636.105 603.72,635.508 603.986,634.922 604.248,634.345 604.506,633.778 604.759,633.22 605.009,632.67 605.255,632.129 605.497,631.597 605.735,631.072 605.969,630.555 606.201,630.046 606.429,629.544 606.654,629.049 606.875,628.561 607.094,628.08 607.309,627.605 607.522,627.137 607.732,626.675 607.939,626.219 608.143,625.768 608.345,625.324 608.544,624.885 608.741,624.452 608.936,624.024 609.128,623.601 609.318,623.183 609.505,622.77 609.69,622.362 609.873,621.959 610.055,621.56 610.234,621.166 610.411,620.776 610.586,620.39 610.759,620.009 610.93,619.632 611.1,619.259 611.267,618.89 611.433,618.524 611.597,618.163 611.76,617.805 611.921,617.451 612.08,617.1 " fill="none" stroke-opacity="1.000000" stroke-linecap="round" stroke="#1f77b4" stroke-width="1.000000" />
</g>

<polygon points="385.08,617.1 385.08,858.1 612.08,858.1 612.08,617.1 " stroke="black" stroke-width="1.000000" fill="none" id="id0000000498" pointer-events="none" class="rectangle" />
<polyline points="385.08,858.1 385.08,861.1 " fill="none" stroke-width="1.000000" stroke="black" id="id0000000499" class="line" />
<text id="id0000000500" transform="matrix(1 0 0 1 385.08 617.1)" x="0.000000" y="246.000000" dominant-baseline="hanging" text-anchor="middle" font-size="14.000000px" >
-10<tspan dy="-7" font-size=".7em">0</tspan>
</text>

<polyline points="458.044,858.1 458.044,861.1 " fill="none" stroke-width="1.000000" stroke="black" id="id0000000501" class="line" />
<text id="id0000000502" transform="matrix(1 0 0 1 385.08 617.1)" x="72.964287" y="246.000000" dominant-baseline="hanging" text-anchor="middle" font-size="14.000000px" >
-10<tspan dy="-7" font-size=".7em">-2</tspan>
</text>

<polyline points="498.58,858.1 498.58,861.1 " fill="none" stroke-width="1.000000" stroke="black" id="id0000000503" class="line" />
<text id="id0000000504" transform="matrix(1 0 0 1 385.08 617.1)" x="113.500000" y="246.000000" dominant-baseline="hanging" text-anchor="middle" font-size="14.000000px" >
0
</text>

<polyline points="539.116,858.1 539.116,861.1 " fill="none" stroke-width="1.000000" stroke="black" id="id0000000505" class="line" />
<text id="id0000000506" transform="matrix(1 0 0 1 385.08 617.1)" x="154.035721" y="246.000000" dominant-baseline="hanging" text-anchor="middle" font-size="14.000000px" >
10<tspan dy="-7" font-size=".7em">-2</tspan>
</text>

<polyline points="612.08,858.1 612.08,861.1 " fill="none" stroke-width="1.000000" stroke="black" id="id0000000507" class="line" />
<text id="id0000000508" transform="matrix(1 0 0 1 385.08 617.1)" x="227.000000" y="246.000000" dominant-baseline="hanging" text-anchor="middle" font-size="14.000000px" >
10<tspan dy="-7" font-size=".7em">0</tspan>
</text>

<polyline points="382.08,858.1 385.08,858.1 " fill="none" stroke-width="1.000000" stroke="black" id="id0000000509" class="line" />
<text id="id0000000510" transform="matrix(1 0 0 1 385.08 617.1)" x="-5.000000" y="241.000000" dominant-baseline="middle" text-anchor="end" font-size="14.000000px" >
10<tspan dy="-7" font-size=".7em">-3</tspan>
</text>

<polyline points="382.08,777.767 385.08,777.767 " fill="none" stroke-width="1.000000" stroke="black" id="id0000000511" class="line" />
<text id="id0000000512" transform="matrix(1 0 0 1 385.08 617.1)" x="-5.000000" y="160.666656" dominant-baseline="middle" text-anchor="end" font-size="14.000000px" >
10<tspan dy="-7" font-size=".7em">-2</tspan>
</text>

<polyline points="382.08,697.433 385.08,697.433 " fill="none" stroke-width="1.000000" stroke="black" id="id0000000513" class="line" />
<text id="id0000000514" transform="matrix(1 0 0 1 385.08 617.1)" x="-5.000000" y="80.333328" dominant-baseline="middle" text-anchor="end" font-size="14.000000px" >
10<tspan dy="-7" font-size=".7em">-1</tspan>
</text>

<polyline points="382.08,617.1 385.08,617.1 " fill="none" stroke-width="1.000000" stroke="black" id="id0000000515" class="line" />
<text id="id0000000516" transform="matrix(1 0 0 1 385.08 617.1)" x="-5.000000" y="0.000000" dominant-baseline="middle" text-anchor="end" font-size="14.000000px" >
10<tspan dy="-7" font-size=".7em">0</tspan>
</text>

<text id="id0000000517" transform="matrix(1 0 0 1 385.08 617.1)" x="113.500000" y="269.000000" text-anchor="middle" font-size="18.000000px" >
symlog
</text>

<g id="id0000000289" >
<text id="id0000000518" transform="matrix(-4.37114e-08 -1 1 -4.37114e-08 357.08 737.6)" x="0.000000" y="0.000000" text-anchor="middle" font-size="18.000000px" >
log
</text>

</g>

</g>

</g>

<g id="id0000000290" >
<g id="id0000000291" >
<clipPath id="id0000000291clipper" >
<polygon points="688.1,617.1 688.1,858.1 915.1,858.1 915.1,617.1 " id="id0000000519" class="rectangle" />
</clipPath>

<g clip-path="url(#id0000000291clipper)" id="id0000000293" >
<polyline id="id0000000520" points="688.1,858.1 688.259,857.931 688.42,857.76 688.583,857.588 688.747,857.413 688.913,857.237 689.08,857.059 689.25,856.879 689.421,856.697 689.594,856.514 689.769,856.328 689.946,856.14 690.125,855.95 690.306,855.757 690.49,855.563 690.675,855.366 690.862,855.167 691.052,854.966 691.244,854.762 691.439,854.555 691.635,854.346 691.835,854.135 692.037,853.921 692.241,853.703 692.448,853.484 692.658,853.261 692.871,853.035 693.086,852.806 693.305,852.574 693.526,852.339 693.751,852.1 693.979,851.858 694.21,851.613 694.445,851.363 694.683,851.111 694.925,850.854 695.171,850.593 695.42,850.328 695.674,850.059 695.932,849.785 696.193,849.507 696.46,849.225 696.731,848.937 697.006,848.644 697.287,848.347 697.572,848.044 697.863,847.735 698.159,847.421 698.461,847.1 698.768,846.774 699.082,846.44 699.402,846.101 699.729,845.754 700.063,845.4 700.403,845.038 700.752,844.668 701.108,844.29 701.472,843.903 701.845,843.508 702.226,843.102 702.618,842.687 703.019,842.261 703.43,841.824 703.853,841.376 704.287,840.915 704.733,840.441 705.193,839.953 705.666,839.451 706.153,838.933 706.656,838.399 707.176,837.848 707.713,837.278 708.269,836.687 708.845,836.076 709.443,835.441 710.064,834.781 710.711,834.094 711.385,833.378 712.09,832.631 712.827,831.848 713.6,831.027 714.413,830.165 715.269,829.255 716.175,828.294 717.135,827.274 718.158,826.188 719.251,825.028 720.425,823.781 721.693,822.435 723.072,820.971 724.582,819.368 726.251,817.596 728.117,815.614 730.233,813.368 732.675,810.775 735.564,807.708 739.1,803.955 743.658,799.116 750.081,792.296 761.063,780.637 801.597,737.603 842.133,694.567 853.117,682.905 859.542,676.085 864.1,671.245 867.635,667.492 870.524,664.425 872.966,661.832 875.082,659.586 876.948,657.605 878.618,655.832 880.128,654.229 881.506,652.765 882.775,651.419 883.949,650.172 885.042,649.012 886.065,647.926 887.025,646.906 887.931,645.945 888.787,645.035 889.6,644.173 890.373,643.352 891.11,642.569 891.814,641.822 892.489,641.106 893.135,640.419 893.757,639.759 894.355,639.125 894.931,638.513 895.487,637.922 896.024,637.352 896.544,636.801 897.047,636.267 897.534,635.749 898.007,635.247 898.467,634.759 898.913,634.285 899.347,633.824 899.77,633.376 900.181,632.939 900.582,632.513 900.973,632.098 901.355,631.692 901.728,631.297 902.092,630.91 902.448,630.532 902.797,630.162 903.137,629.8 903.471,629.446 903.798,629.099 904.118,628.76 904.431,628.426 904.739,628.1 905.041,627.779 905.337,627.465 905.628,627.156 905.913,626.853 906.194,626.555 906.469,626.263 906.74,625.975 907.006,625.693 907.268,625.415 907.526,625.141 907.779,624.872 908.029,624.607 908.275,624.346 908.517,624.089 908.755,623.836 908.99,623.587 909.221,623.342 909.449,623.1 909.674,622.861 909.895,622.626 910.114,622.394 910.329,622.165 910.542,621.939 910.752,621.716 910.959,621.496 911.163,621.279 911.365,621.065 911.564,620.854 911.761,620.645 911.956,620.438 912.148,620.234 912.338,620.033 912.525,619.834 912.71,619.637 912.893,619.443 913.075,619.25 913.254,619.06 913.431,618.872 913.606,618.686 913.779,618.503 913.95,618.321 914.12,618.141 914.287,617.963 914.453,617.787 914.617,617.612 914.78,617.44 914.941,617.269 915.1,617.1 " fill="none" stroke-opacity="1.000000" stroke-linecap="round" stroke="#1f77b4" stroke-width="1.000000" />
</g>

<polygon points="688.1,617.1 688.1,858.1 915.1,858.1 915.1,617.1 " stroke="black" stroke-width="1.000000" fill="none" id="id0000000521" pointer-events="none" class="rectangle" />
<polyline points="688.1,858.1 688.1,861.1 " fill="none" stroke-width="1.000000" stroke="black" id="id0000000522" class="line" />
<text id="id0000000523" transform="matrix(1 0 0 1 688.1 617.1)" x="0.000000" y="246.000000" dominant-baseline="hanging" text-anchor="middle" font-size="14.000000px" >
-10<tspan dy="-7" font-size=".7em">0</tspan>
</text>

<polyline points="761.064,858.1 761.064,861.1 " fill="none" stroke-width="1.000000" stroke="black" id="id0000000524" class="line" />
<text id="id0000000525" transform="matrix(1 0 0 1 688.1 617.1)" x="72.964287" y="246.000000" dominant-baseline="hanging" text-anchor="middle" font-size="14.000000px" >
-10<tspan dy="-7" font-size=".7em">-2</tspan>
</text>

<polyline points="801.6,858.1 801.6,861.1 " fill="none" stroke-width="1.000000" stroke="black" id="id0000000526" class="line" />
<text id="id0000000527" transform="matrix(1 0 0 1 688.1 617.1)" x="113.500000" y="246.000000" dominant-baseline="hanging" text-anchor="middle" font-size="14.000000px" >
0
</text>

<polyline points="842.136,858.1 842.136,861.1 " fill="none" stroke-width="1.000000" stroke="black" id="id0000000528" class="line" />
<text id="id0000000529" transform="matrix(1 0 0 1 688.1 617.1)" x="154.035721" y="246.000000" dominant-baseline="hanging" text-anchor="middle" font-size="14.000000px" >
10<tspan dy="-7" font-size=".7em">-2</tspan>
</text>

<polyline points="915.1,858.1 915.1,861.1 " fill="none" stroke-width="1.000000" stroke="black" id="id0000000530" class="line" />
<text id="id0000000531" transform="matrix(1 0 0 1 688.1 617.1)" x="227.000000" y="246.000000" dominant-baseline="hanging" text-anchor="middle" font-size="14.000000px" >
10<tspan dy="-7" font-size=".7em">0</tspan>
</text>

<polyline points="685.1,858.1 688.1,858.1 " fill="none" stroke-width="1.000000" stroke="black" id="id0000000532" class="line" />
<text id="id0000000533" transform="matrix(1 0 0 1 688.1 617.1)" x="-5.000000" y="241.000000" dominant-baseline="middle" text-anchor="end" font-size="14.000000px" >
-10<tspan dy="-7" font-size=".7em">0</tspan>
</text>

<polyline points="685.1,780.636 688.1,780.636 " fill="none" stroke-width="1.000000" stroke="black" id="id0000000534" class="line" />
<text id="id0000000535" transform="matrix(1 0 0 1 688.1 617.1)" x="-5.000000" y="163.535721" dominant-baseline="middle" text-anchor="end" font-size="14.000000px" >
-10<tspan dy="-7" font-size=".7em">-2</tspan>
</text>

<polyline points="685.1,737.6 688.1,737.6 " fill="none" stroke-width="1.000000" stroke="black" id="id0000000536" class="line" />
<text id="id0000000537" transform="matrix(1 0 0 1 688.1 617.1)" x="-5.000000" y="120.500000" dominant-baseline="middle" text-anchor="end" font-size="14.000000px" >
0
</text>

<polyline points="685.1,694.564 688.1,694.564 " fill="none" stroke-width="1.000000" stroke="black" id="id0000000538" class="line" />
<text id="id0000000539" transform="matrix(1 0 0 1 688.1 617.1)" x="-5.000000" y="77.464279" dominant-baseline="middle" text-anchor="end" font-size="14.000000px" >
10<tspan dy="-7" font-size=".7em">-2</tspan>
</text>

<polyline points="685.1,617.1 688.1,617.1 " fill="none" stroke-width="1.000000" stroke="black" id="id0000000540" class="line" />
<text id="id0000000541" transform="matrix(1 0 0 1 688.1 617.1)" x="-5.000000" y="0.000000" dominant-baseline="middle" text-anchor="end" font-size="14.000000px" >
10<tspan dy="-7" font-size=".7em">0</tspan>
</text>

<text id="id0000000542" transform="matrix(1 0 0 1 688.1 617.1)" x="113.500000" y="269.000000" text-anchor="middle" font-size="18.000000px" >
symlog
</text>

<g id="id0000000294" >
<text id="id0000000543" transform="matrix(-4.37114e-08 -1 1 -4.37114e-08 660.1 737.6)" x="0.000000" y="0.000000" text-anchor="middle" font-size="18.000000px" >
symlog
</text>

</g>

</g>

</g>


</g>

</svg>
