<svg viewBox="0 0 1973.46 491.6" height="100%" width="100%" xmlns:xlink="http://www.w3.org/1999/xlink" xmlns="http://www.w3.org/2000/svg" id="id0000000544" >
<g id="id0000000545" >
<g id="id0000000546" >
<g id="id0000000547" >
<clipPath id="id0000000547clipper" >
<polygon points="56.328,42.8 56.328,463.8 659.328,463.8 659.328,42.8 " id="id0000000561" class="rectangle" />
</clipPath>

<g clip-path="url(#id0000000547clipper)" id="id0000000549" >
<g id="id0000000550" >
<polygon points="56.328,463.8 56.328,463.379 183.275,463.379 183.275,463.8 " fill="#1f77b4" stroke-width="0.000000" id="id0000000562" fill-opacity="1.000000" class="rectangle" />
<polygon points="215.012,463.8 215.012,459.59 341.96,459.59 341.96,463.8 " fill="#1f77b4" stroke-width="0.000000" id="id0000000563" fill-opacity="1.000000" class="rectangle" />
<polygon points="373.696,463.8 373.696,421.7 500.644,421.7 500.644,463.8 " fill="#1f77b4" stroke-width="0.000000" id="id0000000564" fill-opacity="1.000000" class="rectangle" />
<polygon points="532.381,463.8 532.381,42.8 659.328,42.8 659.328,463.8 " fill="#1f77b4" stroke-width="0.000000" id="id0000000565" fill-opacity="1.000000" class="rectangle" />
</g>

</g>

<polygon points="56.328,42.8 56.328,463.8 659.328,463.8 659.328,42.8 " stroke="black" stroke-width="1.000000" fill="none" id="id0000000566" pointer-events="none" class="rectangle" />
<polyline points="119.802,463.8 119.802,466.8 " fill="none" stroke-width="1.000000" stroke="black" id="id0000000567" class="line" />
<text id="id0000000568" transform="matrix(1 0 0 1 56.328 42.8)" x="63.473679" y="426.000000" dominant-baseline="hanging" text-anchor="middle" font-size="14.000000px" >
A
</text>

<polyline points="278.486,463.8 278.486,466.8 " fill="none" stroke-width="1.000000" stroke="black" id="id0000000569" class="line" />
<text id="id0000000570" transform="matrix(1 0 0 1 56.328 42.8)" x="222.157883" y="426.000000" dominant-baseline="hanging" text-anchor="middle" font-size="14.000000px" >
B
</text>

<polyline points="437.17,463.8 437.17,466.8 " fill="none" stroke-width="1.000000" stroke="black" id="id0000000571" class="line" />
<text id="id0000000572" transform="matrix(1 0 0 1 56.328 42.8)" x="380.842102" y="426.000000" dominant-baseline="hanging" text-anchor="middle" font-size="14.000000px" >
C
</text>

<polyline points="595.854,463.8 595.854,466.8 " fill="none" stroke-width="1.000000" stroke="black" id="id0000000573" class="line" />
<text id="id0000000574" transform="matrix(1 0 0 1 56.328 42.8)" x="539.526306" y="426.000000" dominant-baseline="hanging" text-anchor="middle" font-size="14.000000px" >
D
</text>

<polyline points="53.328,463.8 56.328,463.8 " fill="none" stroke-width="1.000000" stroke="black" id="id0000000575" class="line" />
<text id="id0000000576" transform="matrix(1 0 0 1 56.328 42.8)" x="-5.000000" y="421.000000" dominant-baseline="middle" text-anchor="end" font-size="14.000000px" >
0
</text>

<polyline points="53.328,379.6 56.328,379.6 " fill="none" stroke-width="1.000000" stroke="black" id="id0000000577" class="line" />
<text id="id0000000578" transform="matrix(1 0 0 1 56.328 42.8)" x="-5.000000" y="336.799988" dominant-baseline="middle" text-anchor="end" font-size="14.000000px" >
200
</text>

<polyline points="53.328,295.4 56.328,295.4 " fill="none" stroke-width="1.000000" stroke="black" id="id0000000579" class="line" />
<text id="id0000000580" transform="matrix(1 0 0 1 56.328 42.8)" x="-5.000000" y="252.600006" dominant-baseline="middle" text-anchor="end" font-size="14.000000px" >
400
</text>

<polyline points="53.328,211.2 56.328,211.2 " fill="none" stroke-width="1.000000" stroke="black" id="id0000000581" class="line" />
<text id="id0000000582" transform="matrix(1 0 0 1 56.328 42.8)" x="-5.000000" y="168.399994" dominant-baseline="middle" text-anchor="end" font-size="14.000000px" >
600
</text>

<polyline points="53.328,127 56.328,127 " fill="none" stroke-width="1.000000" stroke="black" id="id0000000583" class="line" />
<text id="id0000000584" transform="matrix(1 0 0 1 56.328 42.8)" x="-5.000000" y="84.200012" dominant-baseline="middle" text-anchor="end" font-size="14.000000px" >
800
</text>

<polyline points="53.328,42.8 56.328,42.8 " fill="none" stroke-width="1.000000" stroke="black" id="id0000000585" class="line" />
<text id="id0000000586" transform="matrix(1 0 0 1 56.328 42.8)" x="-5.000000" y="0.000000" dominant-baseline="middle" text-anchor="end" font-size="14.000000px" >
1000
</text>

<text id="id0000000587" transform="matrix(1 0 0 1 56.328 42.8)" x="301.500000" y="-12.000000" text-anchor="middle" font-size="24.000000px" >
Linear
</text>

</g>

</g>

<g id="id0000000551" >
<g id="id0000000552" >
<clipPath id="id0000000552clipper" >
<polygon points="702.771,42.8 702.771,463.8 1305.77,463.8 1305.77,42.8 " id="id0000000588" class="rectangle" />
</clipPath>

<g clip-path="url(#id0000000552clipper)" id="id0000000554" >
<g id="id0000000555" >
<polygon points="702.771,883.359 702.771,463.8 829.718,463.8 829.718,883.359 " fill="#1f77b4" stroke-width="0.000000" id="id0000000589" fill-opacity="1.000000" class="rectangle" />
<polygon points="861.455,883.359 861.455,323.947 988.402,323.947 988.402,883.359 " fill="#1f77b4" stroke-width="0.000000" id="id0000000590" fill-opacity="1.000000" class="rectangle" />
<polygon points="1020.14,883.359 1020.14,184.094 1147.09,184.094 1147.09,883.359 " fill="#1f77b4" stroke-width="0.000000" id="id0000000591" fill-opacity="1.000000" class="rectangle" />
<polygon points="1178.82,883.359 1178.82,44.2405 1305.77,44.2405 1305.77,883.359 " fill="#1f77b4" stroke-width="0.000000" id="id0000000592" fill-opacity="1.000000" class="rectangle" />
</g>

</g>

<polygon points="702.771,42.8 702.771,463.8 1305.77,463.8 1305.77,42.8 " stroke="black" stroke-width="1.000000" fill="none" id="id0000000593" pointer-events="none" class="rectangle" />
<polyline points="766.244,463.8 766.244,466.8 " fill="none" stroke-width="1.000000" stroke="black" id="id0000000594" class="line" />
<text id="id0000000595" transform="matrix(1 0 0 1 702.771 42.8)" x="63.473679" y="426.000000" dominant-baseline="hanging" text-anchor="middle" font-size="14.000000px" >
A
</text>

<polyline points="924.929,463.8 924.929,466.8 " fill="none" stroke-width="1.000000" stroke="black" id="id0000000596" class="line" />
<text id="id0000000597" transform="matrix(1 0 0 1 702.771 42.8)" x="222.157883" y="426.000000" dominant-baseline="hanging" text-anchor="middle" font-size="14.000000px" >
B
</text>

<polyline points="1083.61,463.8 1083.61,466.8 " fill="none" stroke-width="1.000000" stroke="black" id="id0000000598" class="line" />
<text id="id0000000599" transform="matrix(1 0 0 1 702.771 42.8)" x="380.842102" y="426.000000" dominant-baseline="hanging" text-anchor="middle" font-size="14.000000px" >
C
</text>

<polyline points="1242.3,463.8 1242.3,466.8 " fill="none" stroke-width="1.000000" stroke="black" id="id0000000600" class="line" />
<text id="id0000000601" transform="matrix(1 0 0 1 702.771 42.8)" x="539.526306" y="426.000000" dominant-baseline="hanging" text-anchor="middle" font-size="14.000000px" >
D
</text>

<polyline points="699.771,463.8 702.771,463.8 " fill="none" stroke-width="1.000000" stroke="black" id="id0000000602" class="line" />
<text id="id0000000603" transform="matrix(1 0 0 1 702.771 42.8)" x="-5.000000" y="421.000000" dominant-baseline="middle" text-anchor="end" font-size="14.000000px" >
2<tspan dy="-7" font-size=".7em">0</tspan>
</text>

<polyline points="699.771,379.6 702.771,379.6 " fill="none" stroke-width="1.000000" stroke="black" id="id0000000604" class="line" />
<text id="id0000000605" transform="matrix(1 0 0 1 702.771 42.8)" x="-5.000000" y="336.799988" dominant-baseline="middle" text-anchor="end" font-size="14.000000px" >
2<tspan dy="-7" font-size=".7em">2</tspan>
</text>

<polyline points="699.771,295.4 702.771,295.4 " fill="none" stroke-width="1.000000" stroke="black" id="id0000000606" class="line" />
<text id="id0000000607" transform="matrix(1 0 0 1 702.771 42.8)" x="-5.000000" y="252.600006" dominant-baseline="middle" text-anchor="end" font-size="14.000000px" >
2<tspan dy="-7" font-size=".7em">4</tspan>
</text>

<polyline points="699.771,211.2 702.771,211.2 " fill="none" stroke-width="1.000000" stroke="black" id="id0000000608" class="line" />
<text id="id0000000609" transform="matrix(1 0 0 1 702.771 42.8)" x="-5.000000" y="168.399994" dominant-baseline="middle" text-anchor="end" font-size="14.000000px" >
2<tspan dy="-7" font-size=".7em">6</tspan>
</text>

<polyline points="699.771,127 702.771,127 " fill="none" stroke-width="1.000000" stroke="black" id="id0000000610" class="line" />
<text id="id0000000611" transform="matrix(1 0 0 1 702.771 42.8)" x="-5.000000" y="84.200012" dominant-baseline="middle" text-anchor="end" font-size="14.000000px" >
2<tspan dy="-7" font-size=".7em">8</tspan>
</text>

<polyline points="699.771,42.8 702.771,42.8 " fill="none" stroke-width="1.000000" stroke="black" id="id0000000612" class="line" />
<text id="id0000000613" transform="matrix(1 0 0 1 702.771 42.8)" x="-5.000000" y="0.000000" dominant-baseline="middle" text-anchor="end" font-size="14.000000px" >
2<tspan dy="-7" font-size=".7em">10</tspan>
</text>

<text id="id0000000614" transform="matrix(1 0 0 1 702.771 42.8)" x="301.500000" y="-12.000000" text-anchor="middle" font-size="24.000000px" >
Log base 2
</text>

</g>

</g>

<g id="id0000000556" >
<g id="id0000000557" >
<clipPath id="id0000000557clipper" >
<polygon points="1349.21,42.8 1349.21,463.8 1952.21,463.8 1952.21,42.8 " id="id0000000615" class="rectangle" />
</clipPath>

<g clip-path="url(#id0000000557clipper)" id="id0000000559" >
<g id="id0000000560" >
<polygon points="1349.21,884.8 1349.21,463.8 1476.16,463.8 1476.16,884.8 " fill="#1f77b4" stroke-width="0.000000" id="id0000000616" fill-opacity="1.000000" class="rectangle" />
<polygon points="1507.9,884.8 1507.9,323.467 1634.84,323.467 1634.84,884.8 " fill="#1f77b4" stroke-width="0.000000" id="id0000000617" fill-opacity="1.000000" class="rectangle" />
<polygon points="1666.58,884.8 1666.58,183.133 1793.53,183.133 1793.53,884.8 " fill="#1f77b4" stroke-width="0.000000" id="id0000000618" fill-opacity="1.000000" class="rectangle" />
<polygon points="1825.27,884.8 1825.27,42.8 1952.21,42.8 1952.21,884.8 " fill="#1f77b4" stroke-width="0.000000" id="id0000000619" fill-opacity="1.000000" class="rectangle" />
</g>

</g>

<polygon points="1349.21,42.8 1349.21,463.8 1952.21,463.8 1952.21,42.8 " stroke="black" stroke-width="1.000000" fill="none" id="id0000000620" pointer-events="none" class="rectangle" />
<polyline points="1412.69,463.8 1412.69,466.8 " fill="none" stroke-width="1.000000" stroke="black" id="id0000000621" class="line" />
<text id="id0000000622" transform="matrix(1 0 0 1 1349.21 42.8)" x="63.473679" y="426.000000" dominant-baseline="hanging" text-anchor="middle" font-size="14.000000px" >
A
</text>

<polyline points="1571.37,463.8 1571.37,466.8 " fill="none" stroke-width="1.000000" stroke="black" id="id0000000623" class="line" />
<text id="id0000000624" transform="matrix(1 0 0 1 1349.21 42.8)" x="222.157883" y="426.000000" dominant-baseline="hanging" text-anchor="middle" font-size="14.000000px" >
B
</text>

<polyline points="1730.06,463.8 1730.06,466.8 " fill="none" stroke-width="1.000000" stroke="black" id="id0000000625" class="line" />
<text id="id0000000626" transform="matrix(1 0 0 1 1349.21 42.8)" x="380.842102" y="426.000000" dominant-baseline="hanging" text-anchor="middle" font-size="14.000000px" >
C
</text>

<polyline points="1888.74,463.8 1888.74,466.8 " fill="none" stroke-width="1.000000" stroke="black" id="id0000000627" class="line" />
<text id="id0000000628" transform="matrix(1 0 0 1 1349.21 42.8)" x="539.526306" y="426.000000" dominant-baseline="hanging" text-anchor="middle" font-size="14.000000px" >
D
</text>

<polyline points="1346.21,463.8 1349.21,463.8 " fill="none" stroke-width="1.000000" stroke="black" id="id0000000629" class="line" />
<text id="id0000000630" transform="matrix(1 0 0 1 1349.21 42.8)" x="-5.000000" y="421.000000" dominant-baseline="middle" text-anchor="end" font-size="14.000000px" >
10<tspan dy="-7" font-size=".7em">0</tspan>
</text>

<polyline points="1346.21,323.467 1349.21,323.467 " fill="none" stroke-width="1.000000" stroke="black" id="id0000000631" class="line" />
<text id="id0000000632" transform="matrix(1 0 0 1 1349.21 42.8)" x="-5.000000" y="280.666687" dominant-baseline="middle" text-anchor="end" font-size="14.000000px" >
10<tspan dy="-7" font-size=".7em">1</tspan>
</text>

<polyline points="1346.21,183.133 1349.21,183.133 " fill="none" stroke-width="1.000000" stroke="black" id="id0000000633" class="line" />
<text id="id0000000634" transform="matrix(1 0 0 1 1349.21 42.8)" x="-5.000000" y="140.333344" dominant-baseline="middle" text-anchor="end" font-size="14.000000px" >
10<tspan dy="-7" font-size=".7em">2</tspan>
</text>

<polyline points="1346.21,42.8 1349.21,42.8 " fill="none" stroke-width="1.000000" stroke="black" id="id0000000635" class="line" />
<text id="id0000000636" transform="matrix(1 0 0 1 1349.21 42.8)" x="-5.000000" y="0.000000" dominant-baseline="middle" text-anchor="end" font-size="14.000000px" >
10<tspan dy="-7" font-size=".7em">3</tspan>
</text>

<text id="id0000000637" transform="matrix(1 0 0 1 1349.21 42.8)" x="301.500000" y="-12.000000" text-anchor="middle" font-size="24.000000px" >
Log base 10
</text>

</g>

</g>


</g>

</svg>
