<svg viewBox="0 0 926.12 926.12" height="100%" width="100%" xmlns:xlink="http://www.w3.org/1999/xlink" xmlns="http://www.w3.org/2000/svg" id="id0000000000" >
<g id="id0000000001" >
<g id="id0000000002" >
<g id="id0000000003" >
<clipPath id="id0000000003clipper" >
<polygon points="82.06,11.06 82.06,252.06 309.06,252.06 309.06,11.06 " id="id0000000047" class="rectangle" />
</clipPath>

<g clip-path="url(#id0000000003clipper)" id="id0000000005" >
<polyline id="id0000000048" points="88.7365,244.972 91.137,242.423 93.5375,239.875 95.9381,237.326 98.3386,234.777 100.739,232.229 103.14,229.68 105.54,227.132 107.941,224.583 110.341,222.035 112.742,219.486 115.142,216.937 117.543,214.389 119.943,211.84 122.344,209.292 124.744,206.743 127.145,204.194 129.546,201.646 131.946,199.097 134.347,196.549 136.747,194 139.148,191.452 141.548,188.903 143.949,186.354 146.349,183.806 148.75,181.257 151.15,178.709 153.551,176.16 155.951,173.612 158.352,171.063 160.752,168.514 163.153,165.966 165.553,163.417 167.954,160.869 170.354,158.32 172.755,155.771 175.156,153.223 177.556,150.674 179.957,148.126 182.357,145.577 184.758,143.029 187.158,140.48 189.559,137.931 191.959,135.383 194.36,132.834 196.76,130.286 199.161,127.737 201.561,125.189 203.962,122.64 206.362,120.091 208.763,117.543 211.163,114.994 213.564,112.446 215.965,109.897 218.365,107.348 220.766,104.8 223.166,102.251 225.567,99.7027 227.967,97.1542 230.368,94.6056 232.768,92.057 235.169,89.5084 237.569,86.9598 239.97,84.4113 242.37,81.8627 244.771,79.3141 247.171,76.7655 249.572,74.2169 251.972,71.6684 254.373,69.1198 256.773,66.5712 259.174,64.0226 261.575,61.4741 263.975,58.9255 266.376,56.3769 268.776,53.8283 271.177,51.2797 273.577,48.7312 275.978,46.1826 278.378,43.634 280.779,41.0854 283.179,38.5368 285.58,35.9883 287.98,33.4397 290.381,30.8911 292.781,28.3425 295.182,25.794 297.582,23.2454 299.983,20.6968 302.384,18.1482 " fill="none" stroke-opacity="1.000000" stroke-linecap="round" stroke="#1f77b4" stroke-width="1.000000" />
</g>

<polygon points="82.06,11.06 82.06,252.06 309.06,252.06 309.06,11.06 " stroke="black" stroke-width="1.000000" fill="none" id="id0000000049" pointer-events="none" class="rectangle" />
<polyline points="88.7365,252.06 88.7365,255.06 " fill="none" stroke-width="1.000000" stroke="black" id="id0000000050" class="line" />
<text id="id0000000051" transform="matrix(1 0 0 1 82.06 11.06)" x="6.676471" y="246.000000" dominant-baseline="hanging" text-anchor="middle" font-size="14.000000px" >
0.1
</text>

<polyline points="112.742,252.06 112.742,255.06 " fill="none" stroke-width="1.000000" stroke="black" id="id0000000052" class="line" />
<text id="id0000000053" transform="matrix(1 0 0 1 82.06 11.06)" x="30.681776" y="246.000000" dominant-baseline="hanging" text-anchor="middle" font-size="14.000000px" >
0.2
</text>

<polyline points="136.747,252.06 136.747,255.06 " fill="none" stroke-width="1.000000" stroke="black" id="id0000000054" class="line" />
<text id="id0000000055" transform="matrix(1 0 0 1 82.06 11.06)" x="54.687088" y="246.000000" dominant-baseline="hanging" text-anchor="middle" font-size="14.000000px" >
0.3
</text>

<polyline points="160.752,252.06 160.752,255.06 " fill="none" stroke-width="1.000000" stroke="black" id="id0000000056" class="line" />
<text id="id0000000057" transform="matrix(1 0 0 1 82.06 11.06)" x="78.692398" y="246.000000" dominant-baseline="hanging" text-anchor="middle" font-size="14.000000px" >
0.4
</text>

<polyline points="184.758,252.06 184.758,255.06 " fill="none" stroke-width="1.000000" stroke="black" id="id0000000058" class="line" />
<text id="id0000000059" transform="matrix(1 0 0 1 82.06 11.06)" x="102.697701" y="246.000000" dominant-baseline="hanging" text-anchor="middle" font-size="14.000000px" >
0.5
</text>

<polyline points="208.763,252.06 208.763,255.06 " fill="none" stroke-width="1.000000" stroke="black" id="id0000000060" class="line" />
<text id="id0000000061" transform="matrix(1 0 0 1 82.06 11.06)" x="126.703003" y="246.000000" dominant-baseline="hanging" text-anchor="middle" font-size="14.000000px" >
0.6
</text>

<polyline points="232.768,252.06 232.768,255.06 " fill="none" stroke-width="1.000000" stroke="black" id="id0000000062" class="line" />
<text id="id0000000063" transform="matrix(1 0 0 1 82.06 11.06)" x="150.708328" y="246.000000" dominant-baseline="hanging" text-anchor="middle" font-size="14.000000px" >
0.7
</text>

<polyline points="256.774,252.06 256.774,255.06 " fill="none" stroke-width="1.000000" stroke="black" id="id0000000064" class="line" />
<text id="id0000000065" transform="matrix(1 0 0 1 82.06 11.06)" x="174.713623" y="246.000000" dominant-baseline="hanging" text-anchor="middle" font-size="14.000000px" >
0.8
</text>

<polyline points="280.779,252.06 280.779,255.06 " fill="none" stroke-width="1.000000" stroke="black" id="id0000000066" class="line" />
<text id="id0000000067" transform="matrix(1 0 0 1 82.06 11.06)" x="198.718948" y="246.000000" dominant-baseline="hanging" text-anchor="middle" font-size="14.000000px" >
0.9
</text>

<polyline points="304.784,252.06 304.784,255.06 " fill="none" stroke-width="1.000000" stroke="black" id="id0000000068" class="line" />
<text id="id0000000069" transform="matrix(1 0 0 1 82.06 11.06)" x="222.724258" y="246.000000" dominant-baseline="hanging" text-anchor="middle" font-size="14.000000px" >
1
</text>

<polyline points="79.06,244.972 82.06,244.972 " fill="none" stroke-width="1.000000" stroke="black" id="id0000000070" class="line" />
<text id="id0000000071" transform="matrix(1 0 0 1 82.06 11.06)" x="-5.000000" y="233.911758" dominant-baseline="middle" text-anchor="end" font-size="14.000000px" >
0.1
</text>

<polyline points="79.06,219.486 82.06,219.486 " fill="none" stroke-width="1.000000" stroke="black" id="id0000000072" class="line" />
<text id="id0000000073" transform="matrix(1 0 0 1 82.06 11.06)" x="-5.000000" y="208.425949" dominant-baseline="middle" text-anchor="end" font-size="14.000000px" >
0.2
</text>

<polyline points="79.06,194 82.06,194 " fill="none" stroke-width="1.000000" stroke="black" id="id0000000074" class="line" />
<text id="id0000000075" transform="matrix(1 0 0 1 82.06 11.06)" x="-5.000000" y="182.940140" dominant-baseline="middle" text-anchor="end" font-size="14.000000px" >
0.3
</text>

<polyline points="79.06,168.514 82.06,168.514 " fill="none" stroke-width="1.000000" stroke="black" id="id0000000076" class="line" />
<text id="id0000000077" transform="matrix(1 0 0 1 82.06 11.06)" x="-5.000000" y="157.454330" dominant-baseline="middle" text-anchor="end" font-size="14.000000px" >
0.4
</text>

<polyline points="79.06,143.029 82.06,143.029 " fill="none" stroke-width="1.000000" stroke="black" id="id0000000078" class="line" />
<text id="id0000000079" transform="matrix(1 0 0 1 82.06 11.06)" x="-5.000000" y="131.968521" dominant-baseline="middle" text-anchor="end" font-size="14.000000px" >
0.5
</text>

<polyline points="79.06,117.543 82.06,117.543 " fill="none" stroke-width="1.000000" stroke="black" id="id0000000080" class="line" />
<text id="id0000000081" transform="matrix(1 0 0 1 82.06 11.06)" x="-5.000000" y="106.482712" dominant-baseline="middle" text-anchor="end" font-size="14.000000px" >
0.6
</text>

<polyline points="79.06,92.0569 82.06,92.0569 " fill="none" stroke-width="1.000000" stroke="black" id="id0000000082" class="line" />
<text id="id0000000083" transform="matrix(1 0 0 1 82.06 11.06)" x="-5.000000" y="80.996902" dominant-baseline="middle" text-anchor="end" font-size="14.000000px" >
0.7
</text>

<polyline points="79.06,66.5711 82.06,66.5711 " fill="none" stroke-width="1.000000" stroke="black" id="id0000000084" class="line" />
<text id="id0000000085" transform="matrix(1 0 0 1 82.06 11.06)" x="-5.000000" y="55.511078" dominant-baseline="middle" text-anchor="end" font-size="14.000000px" >
0.8
</text>

<polyline points="79.06,41.0853 82.06,41.0853 " fill="none" stroke-width="1.000000" stroke="black" id="id0000000086" class="line" />
<text id="id0000000087" transform="matrix(1 0 0 1 82.06 11.06)" x="-5.000000" y="30.025269" dominant-baseline="middle" text-anchor="end" font-size="14.000000px" >
0.9
</text>

<polyline points="79.06,15.5994 82.06,15.5994 " fill="none" stroke-width="1.000000" stroke="black" id="id0000000088" class="line" />
<text id="id0000000089" transform="matrix(1 0 0 1 82.06 11.06)" x="-5.000000" y="4.539444" dominant-baseline="middle" text-anchor="end" font-size="14.000000px" >
1
</text>

<text id="id0000000090" transform="matrix(1 0 0 1 82.06 11.06)" x="113.500000" y="269.000000" text-anchor="middle" font-size="18.000000px" >
linear
</text>

<g id="id0000000006" >
<text id="id0000000091" transform="matrix(-4.37114e-08 -1 1 -4.37114e-08 54.06 131.56)" x="0.000000" y="0.000000" text-anchor="middle" font-size="18.000000px" >
linear
</text>

</g>

</g>

</g>

<g id="id0000000007" >
<g id="id0000000008" >
<clipPath id="id0000000008clipper" >
<polygon points="385.08,11.06 385.08,252.06 612.08,252.06 612.08,11.06 " id="id0000000092" class="rectangle" />
</clipPath>

<g clip-path="url(#id0000000008clipper)" id="id0000000010" >
<polyline id="id0000000093" points="391.756,171.727 394.157,168.401 396.558,165.366 398.958,162.573 401.359,159.988 403.759,157.581 406.16,155.329 408.56,153.214 410.961,151.22 413.361,149.333 415.762,147.544 418.162,145.842 420.563,144.219 422.963,142.668 425.364,141.183 427.764,139.759 430.165,138.39 432.565,137.074 434.966,135.805 437.367,134.581 439.767,133.398 442.168,132.254 444.568,131.146 446.969,130.073 449.369,129.031 451.77,128.02 454.17,127.037 456.571,126.081 458.971,125.151 461.372,124.244 463.772,123.361 466.173,122.5 468.573,121.659 470.974,120.838 473.374,120.036 475.775,119.252 478.176,118.485 480.576,117.735 482.977,117 485.377,116.281 487.778,115.576 490.178,114.885 492.579,114.208 494.979,113.543 497.38,112.891 499.78,112.251 502.181,111.622 504.581,111.005 506.982,110.398 509.382,109.802 511.783,109.215 514.183,108.639 516.584,108.071 518.984,107.513 521.385,106.964 523.786,106.423 526.186,105.89 528.587,105.365 530.987,104.848 533.388,104.339 535.788,103.837 538.189,103.342 540.589,102.854 542.99,102.373 545.39,101.898 547.791,101.43 550.191,100.968 552.592,100.512 554.992,100.062 557.393,99.6173 559.794,99.1785 562.194,98.745 564.595,98.317 566.995,97.8941 569.396,97.4762 571.796,97.0634 574.197,96.6553 576.597,96.252 578.998,95.8532 581.398,95.459 583.799,95.0692 586.199,94.6837 588.6,94.3024 591,93.9252 593.401,93.5521 595.801,93.1829 598.202,92.8176 600.602,92.456 603.003,92.0982 605.404,91.744 " fill="none" stroke-opacity="1.000000" stroke-linecap="round" stroke="#1f77b4" stroke-width="1.000000" />
</g>

<polygon points="385.08,11.06 385.08,252.06 612.08,252.06 612.08,11.06 " stroke="black" stroke-width="1.000000" fill="none" id="id0000000094" pointer-events="none" class="rectangle" />
<polyline points="391.756,252.06 391.756,255.06 " fill="none" stroke-width="1.000000" stroke="black" id="id0000000095" class="line" />
<text id="id0000000096" transform="matrix(1 0 0 1 385.08 11.06)" x="6.676471" y="246.000000" dominant-baseline="hanging" text-anchor="middle" font-size="14.000000px" >
0.1
</text>

<polyline points="415.762,252.06 415.762,255.06 " fill="none" stroke-width="1.000000" stroke="black" id="id0000000097" class="line" />
<text id="id0000000098" transform="matrix(1 0 0 1 385.08 11.06)" x="30.681776" y="246.000000" dominant-baseline="hanging" text-anchor="middle" font-size="14.000000px" >
0.2
</text>

<polyline points="439.767,252.06 439.767,255.06 " fill="none" stroke-width="1.000000" stroke="black" id="id0000000099" class="line" />
<text id="id0000000100" transform="matrix(1 0 0 1 385.08 11.06)" x="54.687088" y="246.000000" dominant-baseline="hanging" text-anchor="middle" font-size="14.000000px" >
0.3
</text>

<polyline points="463.772,252.06 463.772,255.06 " fill="none" stroke-width="1.000000" stroke="black" id="id0000000101" class="line" />
<text id="id0000000102" transform="matrix(1 0 0 1 385.08 11.06)" x="78.692398" y="246.000000" dominant-baseline="hanging" text-anchor="middle" font-size="14.000000px" >
0.4
</text>

<polyline points="487.778,252.06 487.778,255.06 " fill="none" stroke-width="1.000000" stroke="black" id="id0000000103" class="line" />
<text id="id0000000104" transform="matrix(1 0 0 1 385.08 11.06)" x="102.697701" y="246.000000" dominant-baseline="hanging" text-anchor="middle" font-size="14.000000px" >
0.5
</text>

<polyline points="511.783,252.06 511.783,255.06 " fill="none" stroke-width="1.000000" stroke="black" id="id0000000105" class="line" />
<text id="id0000000106" transform="matrix(1 0 0 1 385.08 11.06)" x="126.703003" y="246.000000" dominant-baseline="hanging" text-anchor="middle" font-size="14.000000px" >
0.6
</text>

<polyline points="535.788,252.06 535.788,255.06 " fill="none" stroke-width="1.000000" stroke="black" id="id0000000107" class="line" />
<text id="id0000000108" transform="matrix(1 0 0 1 385.08 11.06)" x="150.708328" y="246.000000" dominant-baseline="hanging" text-anchor="middle" font-size="14.000000px" >
0.7
</text>

<polyline points="559.794,252.06 559.794,255.06 " fill="none" stroke-width="1.000000" stroke="black" id="id0000000109" class="line" />
<text id="id0000000110" transform="matrix(1 0 0 1 385.08 11.06)" x="174.713623" y="246.000000" dominant-baseline="hanging" text-anchor="middle" font-size="14.000000px" >
0.8
</text>

<polyline points="583.799,252.06 583.799,255.06 " fill="none" stroke-width="1.000000" stroke="black" id="id0000000111" class="line" />
<text id="id0000000112" transform="matrix(1 0 0 1 385.08 11.06)" x="198.718948" y="246.000000" dominant-baseline="hanging" text-anchor="middle" font-size="14.000000px" >
0.9
</text>

<polyline points="607.804,252.06 607.804,255.06 " fill="none" stroke-width="1.000000" stroke="black" id="id0000000113" class="line" />
<text id="id0000000114" transform="matrix(1 0 0 1 385.08 11.06)" x="222.724258" y="246.000000" dominant-baseline="hanging" text-anchor="middle" font-size="14.000000px" >
1
</text>

<polyline points="382.08,252.06 385.08,252.06 " fill="none" stroke-width="1.000000" stroke="black" id="id0000000115" class="line" />
<text id="id0000000116" transform="matrix(1 0 0 1 385.08 11.06)" x="-5.000000" y="241.000000" dominant-baseline="middle" text-anchor="end" font-size="14.000000px" >
10<tspan dy="-7" font-size=".7em">-2</tspan>
</text>

<polyline points="382.08,171.727 385.08,171.727 " fill="none" stroke-width="1.000000" stroke="black" id="id0000000117" class="line" />
<text id="id0000000118" transform="matrix(1 0 0 1 385.08 11.06)" x="-5.000000" y="160.666656" dominant-baseline="middle" text-anchor="end" font-size="14.000000px" >
10<tspan dy="-7" font-size=".7em">-1</tspan>
</text>

<polyline points="382.08,91.3933 385.08,91.3933 " fill="none" stroke-width="1.000000" stroke="black" id="id0000000119" class="line" />
<text id="id0000000120" transform="matrix(1 0 0 1 385.08 11.06)" x="-5.000000" y="80.333328" dominant-baseline="middle" text-anchor="end" font-size="14.000000px" >
10<tspan dy="-7" font-size=".7em">0</tspan>
</text>

<polyline points="382.08,11.06 385.08,11.06 " fill="none" stroke-width="1.000000" stroke="black" id="id0000000121" class="line" />
<text id="id0000000122" transform="matrix(1 0 0 1 385.08 11.06)" x="-5.000000" y="0.000000" dominant-baseline="middle" text-anchor="end" font-size="14.000000px" >
10<tspan dy="-7" font-size=".7em">1</tspan>
</text>

<text id="id0000000123" transform="matrix(1 0 0 1 385.08 11.06)" x="113.500000" y="269.000000" text-anchor="middle" font-size="18.000000px" >
linear
</text>

<g id="id0000000011" >
<text id="id0000000124" transform="matrix(-4.37114e-08 -1 1 -4.37114e-08 357.08 131.56)" x="0.000000" y="0.000000" text-anchor="middle" font-size="18.000000px" >
log
</text>

</g>

</g>

</g>

<g id="id0000000012" >
<g id="id0000000013" >
<clipPath id="id0000000013clipper" >
<polygon points="688.1,11.06 688.1,252.06 915.1,252.06 915.1,11.06 " id="id0000000125" class="rectangle" />
</clipPath>

<g clip-path="url(#id0000000013clipper)" id="id0000000015" >
<polyline id="id0000000126" points="694.776,222.378 697.177,213.698 699.578,205.773 701.978,198.483 704.379,191.734 706.779,185.45 709.18,179.572 711.58,174.051 713.981,168.845 716.381,163.921 718.782,159.249 721.182,154.805 723.583,150.568 725.983,146.52 728.384,142.644 730.784,138.926 733.185,135.354 735.585,131.917 737.986,128.604 740.387,125.409 742.787,122.321 745.188,119.335 747.588,116.443 749.989,113.64 752.389,110.922 754.79,108.282 757.19,105.716 759.591,103.22 761.991,100.792 764.392,98.4258 766.792,96.12 769.193,93.8712 771.593,91.6765 773.994,89.5333 776.394,87.4395 778.795,85.3928 781.195,83.3911 783.596,81.4324 785.997,79.515 788.397,77.637 790.798,75.7971 793.198,73.9935 795.599,72.225 797.999,70.4902 800.4,68.7878 802.8,67.1165 805.201,65.4755 807.601,63.8635 810.002,62.2795 812.402,60.7227 814.803,59.192 817.203,57.6865 819.604,56.2056 822.005,54.7484 824.405,53.314 826.806,51.902 829.206,50.5114 831.607,49.1418 834.007,47.7926 836.408,46.463 838.808,45.1525 841.209,43.8606 843.609,42.5868 846.01,41.3306 848.41,40.0914 850.811,38.8689 853.211,37.6626 855.612,36.4721 858.012,35.2969 860.413,34.1367 862.813,32.991 865.214,31.8596 867.615,30.7421 870.015,29.6381 872.416,28.5474 874.816,27.4696 877.217,26.4043 879.617,25.3514 882.018,24.3106 884.418,23.2815 886.819,22.2639 889.219,21.2574 891.62,20.2621 894.02,19.2775 896.421,18.3034 898.821,17.3396 901.222,16.3859 903.622,15.4421 906.023,14.508 908.424,13.5834 " fill="none" stroke-opacity="1.000000" stroke-linecap="round" stroke="#1f77b4" stroke-width="1.000000" />
</g>

<polygon points="688.1,11.06 688.1,252.06 915.1,252.06 915.1,11.06 " stroke="black" stroke-width="1.000000" fill="none" id="id0000000127" pointer-events="none" class="rectangle" />
<polyline points="694.776,252.06 694.776,255.06 " fill="none" stroke-width="1.000000" stroke="black" id="id0000000128" class="line" />
<text id="id0000000129" transform="matrix(1 0 0 1 688.1 11.06)" x="6.676471" y="246.000000" dominant-baseline="hanging" text-anchor="middle" font-size="14.000000px" >
0.1
</text>

<polyline points="718.782,252.06 718.782,255.06 " fill="none" stroke-width="1.000000" stroke="black" id="id0000000130" class="line" />
<text id="id0000000131" transform="matrix(1 0 0 1 688.1 11.06)" x="30.681776" y="246.000000" dominant-baseline="hanging" text-anchor="middle" font-size="14.000000px" >
0.2
</text>

<polyline points="742.787,252.06 742.787,255.06 " fill="none" stroke-width="1.000000" stroke="black" id="id0000000132" class="line" />
<text id="id0000000133" transform="matrix(1 0 0 1 688.1 11.06)" x="54.687088" y="246.000000" dominant-baseline="hanging" text-anchor="middle" font-size="14.000000px" >
0.3
</text>

<polyline points="766.792,252.06 766.792,255.06 " fill="none" stroke-width="1.000000" stroke="black" id="id0000000134" class="line" />
<text id="id0000000135" transform="matrix(1 0 0 1 688.1 11.06)" x="78.692398" y="246.000000" dominant-baseline="hanging" text-anchor="middle" font-size="14.000000px" >
0.4
</text>

<polyline points="790.798,252.06 790.798,255.06 " fill="none" stroke-width="1.000000" stroke="black" id="id0000000136" class="line" />
<text id="id0000000137" transform="matrix(1 0 0 1 688.1 11.06)" x="102.697701" y="246.000000" dominant-baseline="hanging" text-anchor="middle" font-size="14.000000px" >
0.5
</text>

<polyline points="814.803,252.06 814.803,255.06 " fill="none" stroke-width="1.000000" stroke="black" id="id0000000138" class="line" />
<text id="id0000000139" transform="matrix(1 0 0 1 688.1 11.06)" x="126.703003" y="246.000000" dominant-baseline="hanging" text-anchor="middle" font-size="14.000000px" >
0.6
</text>

<polyline points="838.808,252.06 838.808,255.06 " fill="none" stroke-width="1.000000" stroke="black" id="id0000000140" class="line" />
<text id="id0000000141" transform="matrix(1 0 0 1 688.1 11.06)" x="150.708328" y="246.000000" dominant-baseline="hanging" text-anchor="middle" font-size="14.000000px" >
0.7
</text>

<polyline points="862.814,252.06 862.814,255.06 " fill="none" stroke-width="1.000000" stroke="black" id="id0000000142" class="line" />
<text id="id0000000143" transform="matrix(1 0 0 1 688.1 11.06)" x="174.713623" y="246.000000" dominant-baseline="hanging" text-anchor="middle" font-size="14.000000px" >
0.8
</text>

<polyline points="886.819,252.06 886.819,255.06 " fill="none" stroke-width="1.000000" stroke="black" id="id0000000144" class="line" />
<text id="id0000000145" transform="matrix(1 0 0 1 688.1 11.06)" x="198.718948" y="246.000000" dominant-baseline="hanging" text-anchor="middle" font-size="14.000000px" >
0.9
</text>

<polyline points="910.824,252.06 910.824,255.06 " fill="none" stroke-width="1.000000" stroke="black" id="id0000000146" class="line" />
<text id="id0000000147" transform="matrix(1 0 0 1 688.1 11.06)" x="222.724258" y="246.000000" dominant-baseline="hanging" text-anchor="middle" font-size="14.000000px" >
1
</text>

<polyline points="685.1,12.6679 688.1,12.6679 " fill="none" stroke-width="1.000000" stroke="black" id="id0000000148" class="line" />
<text id="id0000000149" transform="matrix(1 0 0 1 688.1 11.06)" x="-5.000000" y="1.607941" dominant-baseline="middle" text-anchor="end" font-size="14.000000px" >
1
</text>

<text id="id0000000150" transform="matrix(1 0 0 1 688.1 11.06)" x="113.500000" y="269.000000" text-anchor="middle" font-size="18.000000px" >
linear
</text>

<g id="id0000000016" >
<text id="id0000000151" transform="matrix(-4.37114e-08 -1 1 -4.37114e-08 660.1 131.56)" x="0.000000" y="0.000000" text-anchor="middle" font-size="18.000000px" >
symlog
</text>

</g>

</g>

</g>

<g id="id0000000017" >
<g id="id0000000018" >
<clipPath id="id0000000018clipper" >
<polygon points="82.06,314.08 82.06,555.08 309.06,555.08 309.06,314.08 " id="id0000000152" class="rectangle" />
</clipPath>

<g clip-path="url(#id0000000018clipper)" id="id0000000020" >
<polyline id="id0000000153" points="157.727,547.992 160.859,545.443 163.718,542.895 166.348,540.346 168.784,537.797 171.051,535.249 173.172,532.7 175.164,530.152 177.042,527.603 178.819,525.055 180.505,522.506 182.108,519.957 183.637,517.409 185.097,514.86 186.496,512.312 187.837,509.763 189.126,507.214 190.367,504.666 191.562,502.117 192.715,499.569 193.829,497.02 194.906,494.472 195.95,491.923 196.961,489.374 197.942,486.826 198.894,484.277 199.82,481.729 200.721,479.18 201.597,476.631 202.451,474.083 203.283,471.534 204.094,468.986 204.886,466.437 205.659,463.889 206.415,461.34 207.153,458.791 207.875,456.243 208.582,453.694 209.274,451.146 209.951,448.597 210.615,446.049 211.266,443.5 211.904,440.951 212.53,438.403 213.144,435.854 213.747,433.306 214.34,430.757 214.921,428.208 215.493,425.66 216.054,423.111 216.607,420.563 217.15,418.014 217.684,415.466 218.21,412.917 218.728,410.368 219.237,407.82 219.739,405.271 220.233,402.723 220.72,400.174 221.2,397.626 221.672,395.077 222.139,392.528 222.598,389.98 223.051,387.431 223.499,384.883 223.94,382.334 224.375,379.785 224.804,377.237 225.228,374.688 225.647,372.14 226.06,369.591 226.469,367.043 226.872,364.494 227.27,361.945 227.664,359.397 228.053,356.848 228.437,354.3 228.817,351.751 229.192,349.203 229.564,346.654 229.931,344.105 230.294,341.557 230.653,339.008 231.009,336.46 231.36,333.911 231.708,331.362 232.052,328.814 232.392,326.265 232.729,323.717 233.063,321.168 " fill="none" stroke-opacity="1.000000" stroke-linecap="round" stroke="#1f77b4" stroke-width="1.000000" />
</g>

<polygon points="82.06,314.08 82.06,555.08 309.06,555.08 309.06,314.08 " stroke="black" stroke-width="1.000000" fill="none" id="id0000000154" pointer-events="none" class="rectangle" />
<polyline points="82.06,555.08 82.06,558.08 " fill="none" stroke-width="1.000000" stroke="black" id="id0000000155" class="line" />
<text id="id0000000156" transform="matrix(1 0 0 1 82.06 314.08)" x="0.000000" y="246.000000" dominant-baseline="hanging" text-anchor="middle" font-size="14.000000px" >
10<tspan dy="-7" font-size=".7em">-2</tspan>
</text>

<polyline points="157.727,555.08 157.727,558.08 " fill="none" stroke-width="1.000000" stroke="black" id="id0000000157" class="line" />
<text id="id0000000158" transform="matrix(1 0 0 1 82.06 314.08)" x="75.666664" y="246.000000" dominant-baseline="hanging" text-anchor="middle" font-size="14.000000px" >
10<tspan dy="-7" font-size=".7em">-1</tspan>
</text>

<polyline points="233.393,555.08 233.393,558.08 " fill="none" stroke-width="1.000000" stroke="black" id="id0000000159" class="line" />
<text id="id0000000160" transform="matrix(1 0 0 1 82.06 314.08)" x="151.333328" y="246.000000" dominant-baseline="hanging" text-anchor="middle" font-size="14.000000px" >
10<tspan dy="-7" font-size=".7em">0</tspan>
</text>

<polyline points="309.06,555.08 309.06,558.08 " fill="none" stroke-width="1.000000" stroke="black" id="id0000000161" class="line" />
<text id="id0000000162" transform="matrix(1 0 0 1 82.06 314.08)" x="227.000000" y="246.000000" dominant-baseline="hanging" text-anchor="middle" font-size="14.000000px" >
10<tspan dy="-7" font-size=".7em">1</tspan>
</text>

<polyline points="79.06,547.992 82.06,547.992 " fill="none" stroke-width="1.000000" stroke="black" id="id0000000163" class="line" />
<text id="id0000000164" transform="matrix(1 0 0 1 82.06 314.08)" x="-5.000000" y="233.911758" dominant-baseline="middle" text-anchor="end" font-size="14.000000px" >
0.1
</text>

<polyline points="79.06,522.506 82.06,522.506 " fill="none" stroke-width="1.000000" stroke="black" id="id0000000165" class="line" />
<text id="id0000000166" transform="matrix(1 0 0 1 82.06 314.08)" x="-5.000000" y="208.425949" dominant-baseline="middle" text-anchor="end" font-size="14.000000px" >
0.2
</text>

<polyline points="79.06,497.02 82.06,497.02 " fill="none" stroke-width="1.000000" stroke="black" id="id0000000167" class="line" />
<text id="id0000000168" transform="matrix(1 0 0 1 82.06 314.08)" x="-5.000000" y="182.940140" dominant-baseline="middle" text-anchor="end" font-size="14.000000px" >
0.3
</text>

<polyline points="79.06,471.534 82.06,471.534 " fill="none" stroke-width="1.000000" stroke="black" id="id0000000169" class="line" />
<text id="id0000000170" transform="matrix(1 0 0 1 82.06 314.08)" x="-5.000000" y="157.454330" dominant-baseline="middle" text-anchor="end" font-size="14.000000px" >
0.4
</text>

<polyline points="79.06,446.049 82.06,446.049 " fill="none" stroke-width="1.000000" stroke="black" id="id0000000171" class="line" />
<text id="id0000000172" transform="matrix(1 0 0 1 82.06 314.08)" x="-5.000000" y="131.968521" dominant-baseline="middle" text-anchor="end" font-size="14.000000px" >
0.5
</text>

<polyline points="79.06,420.563 82.06,420.563 " fill="none" stroke-width="1.000000" stroke="black" id="id0000000173" class="line" />
<text id="id0000000174" transform="matrix(1 0 0 1 82.06 314.08)" x="-5.000000" y="106.482712" dominant-baseline="middle" text-anchor="end" font-size="14.000000px" >
0.6
</text>

<polyline points="79.06,395.077 82.06,395.077 " fill="none" stroke-width="1.000000" stroke="black" id="id0000000175" class="line" />
<text id="id0000000176" transform="matrix(1 0 0 1 82.06 314.08)" x="-5.000000" y="80.996902" dominant-baseline="middle" text-anchor="end" font-size="14.000000px" >
0.7
</text>

<polyline points="79.06,369.591 82.06,369.591 " fill="none" stroke-width="1.000000" stroke="black" id="id0000000177" class="line" />
<text id="id0000000178" transform="matrix(1 0 0 1 82.06 314.08)" x="-5.000000" y="55.511078" dominant-baseline="middle" text-anchor="end" font-size="14.000000px" >
0.8
</text>

<polyline points="79.06,344.105 82.06,344.105 " fill="none" stroke-width="1.000000" stroke="black" id="id0000000179" class="line" />
<text id="id0000000180" transform="matrix(1 0 0 1 82.06 314.08)" x="-5.000000" y="30.025269" dominant-baseline="middle" text-anchor="end" font-size="14.000000px" >
0.9
</text>

<polyline points="79.06,318.619 82.06,318.619 " fill="none" stroke-width="1.000000" stroke="black" id="id0000000181" class="line" />
<text id="id0000000182" transform="matrix(1 0 0 1 82.06 314.08)" x="-5.000000" y="4.539444" dominant-baseline="middle" text-anchor="end" font-size="14.000000px" >
1
</text>

<text id="id0000000183" transform="matrix(1 0 0 1 82.06 314.08)" x="113.500000" y="269.000000" text-anchor="middle" font-size="18.000000px" >
log
</text>

<g id="id0000000021" >
<text id="id0000000184" transform="matrix(-4.37114e-08 -1 1 -4.37114e-08 54.06 434.58)" x="0.000000" y="0.000000" text-anchor="middle" font-size="18.000000px" >
linear
</text>

</g>

</g>

</g>

<g id="id0000000022" >
<g id="id0000000023" >
<clipPath id="id0000000023clipper" >
<polygon points="385.08,314.08 385.08,555.08 612.08,555.08 612.08,314.08 " id="id0000000185" class="rectangle" />
</clipPath>

<g clip-path="url(#id0000000023clipper)" id="id0000000025" >
<polyline id="id0000000186" points="460.747,474.747 463.879,471.421 466.738,468.386 469.368,465.593 471.804,463.008 474.071,460.601 476.192,458.349 478.184,456.234 480.062,454.24 481.839,452.353 483.525,450.564 485.128,448.862 486.657,447.239 488.117,445.688 489.516,444.203 490.857,442.779 492.146,441.41 493.387,440.094 494.582,438.825 495.735,437.601 496.849,436.418 497.926,435.274 498.97,434.166 499.981,433.093 500.962,432.051 501.914,431.04 502.84,430.057 503.741,429.101 504.617,428.171 505.471,427.264 506.303,426.381 507.114,425.52 507.906,424.679 508.679,423.858 509.435,423.056 510.173,422.272 510.895,421.505 511.602,420.755 512.294,420.02 512.971,419.301 513.635,418.596 514.286,417.905 514.924,417.228 515.55,416.563 516.164,415.911 516.767,415.271 517.36,414.642 517.941,414.025 518.513,413.418 519.074,412.822 519.627,412.235 520.17,411.659 520.704,411.091 521.23,410.533 521.748,409.984 522.257,409.443 522.759,408.91 523.253,408.385 523.74,407.868 524.22,407.359 524.692,406.857 525.159,406.362 525.618,405.874 526.071,405.393 526.518,404.918 526.96,404.45 527.395,403.988 527.824,403.532 528.248,403.082 528.667,402.637 529.08,402.198 529.489,401.765 529.892,401.337 530.29,400.914 530.684,400.496 531.073,400.083 531.457,399.675 531.837,399.272 532.213,398.873 532.584,398.479 532.951,398.089 533.314,397.704 533.673,397.322 534.029,396.945 534.38,396.572 534.728,396.203 535.072,395.838 535.412,395.476 535.749,395.118 536.083,394.764 " fill="none" stroke-opacity="1.000000" stroke-linecap="round" stroke="#1f77b4" stroke-width="1.000000" />
</g>

<polygon points="385.08,314.08 385.08,555.08 612.08,555.08 612.08,314.08 " stroke="black" stroke-width="1.000000" fill="none" id="id0000000187" pointer-events="none" class="rectangle" />
<polyline points="385.08,555.08 385.08,558.08 " fill="none" stroke-width="1.000000" stroke="black" id="id0000000188" class="line" />
<text id="id0000000189" transform="matrix(1 0 0 1 385.08 314.08)" x="0.000000" y="246.000000" dominant-baseline="hanging" text-anchor="middle" font-size="14.000000px" >
10<tspan dy="-7" font-size=".7em">-2</tspan>
</text>

<polyline points="460.747,555.08 460.747,558.08 " fill="none" stroke-width="1.000000" stroke="black" id="id0000000190" class="line" />
<text id="id0000000191" transform="matrix(1 0 0 1 385.08 314.08)" x="75.666664" y="246.000000" dominant-baseline="hanging" text-anchor="middle" font-size="14.000000px" >
10<tspan dy="-7" font-size=".7em">-1</tspan>
</text>

<polyline points="536.413,555.08 536.413,558.08 " fill="none" stroke-width="1.000000" stroke="black" id="id0000000192" class="line" />
<text id="id0000000193" transform="matrix(1 0 0 1 385.08 314.08)" x="151.333328" y="246.000000" dominant-baseline="hanging" text-anchor="middle" font-size="14.000000px" >
10<tspan dy="-7" font-size=".7em">0</tspan>
</text>

<polyline points="612.08,555.08 612.08,558.08 " fill="none" stroke-width="1.000000" stroke="black" id="id0000000194" class="line" />
<text id="id0000000195" transform="matrix(1 0 0 1 385.08 314.08)" x="227.000000" y="246.000000" dominant-baseline="hanging" text-anchor="middle" font-size="14.000000px" >
10<tspan dy="-7" font-size=".7em">1</tspan>
</text>

<polyline points="382.08,555.08 385.08,555.08 " fill="none" stroke-width="1.000000" stroke="black" id="id0000000196" class="line" />
<text id="id0000000197" transform="matrix(1 0 0 1 385.08 314.08)" x="-5.000000" y="241.000000" dominant-baseline="middle" text-anchor="end" font-size="14.000000px" >
10<tspan dy="-7" font-size=".7em">-2</tspan>
</text>

<polyline points="382.08,474.747 385.08,474.747 " fill="none" stroke-width="1.000000" stroke="black" id="id0000000198" class="line" />
<text id="id0000000199" transform="matrix(1 0 0 1 385.08 314.08)" x="-5.000000" y="160.666656" dominant-baseline="middle" text-anchor="end" font-size="14.000000px" >
10<tspan dy="-7" font-size=".7em">-1</tspan>
</text>

<polyline points="382.08,394.413 385.08,394.413 " fill="none" stroke-width="1.000000" stroke="black" id="id0000000200" class="line" />
<text id="id0000000201" transform="matrix(1 0 0 1 385.08 314.08)" x="-5.000000" y="80.333328" dominant-baseline="middle" text-anchor="end" font-size="14.000000px" >
10<tspan dy="-7" font-size=".7em">0</tspan>
</text>

<polyline points="382.08,314.08 385.08,314.08 " fill="none" stroke-width="1.000000" stroke="black" id="id0000000202" class="line" />
<text id="id0000000203" transform="matrix(1 0 0 1 385.08 314.08)" x="-5.000000" y="0.000000" dominant-baseline="middle" text-anchor="end" font-size="14.000000px" >
10<tspan dy="-7" font-size=".7em">1</tspan>
</text>

<text id="id0000000204" transform="matrix(1 0 0 1 385.08 314.08)" x="113.500000" y="269.000000" text-anchor="middle" font-size="18.000000px" >
log
</text>

<g id="id0000000026" >
<text id="id0000000205" transform="matrix(-4.37114e-08 -1 1 -4.37114e-08 357.08 434.58)" x="0.000000" y="0.000000" text-anchor="middle" font-size="18.000000px" >
log
</text>

</g>

</g>

</g>

<g id="id0000000027" >
<g id="id0000000028" >
<clipPath id="id0000000028clipper" >
<polygon points="688.1,314.08 688.1,555.08 915.1,555.08 915.1,314.08 " id="id0000000206" class="rectangle" />
</clipPath>

<g clip-path="url(#id0000000028clipper)" id="id0000000030" >
<polyline id="id0000000207" points="763.767,525.398 766.899,516.718 769.758,508.793 772.388,501.503 774.824,494.754 777.091,488.47 779.212,482.592 781.204,477.071 783.082,471.865 784.859,466.941 786.545,462.269 788.148,457.825 789.677,453.589 791.137,449.54 792.536,445.664 793.877,441.946 795.166,438.374 796.406,434.937 797.602,431.625 798.755,428.429 799.869,425.341 800.946,422.355 801.99,419.463 803.001,416.66 803.982,413.942 804.934,411.302 805.86,408.736 806.761,406.24 807.637,403.812 808.49,401.446 809.323,399.14 810.134,396.891 810.926,394.696 811.699,392.553 812.455,390.46 813.193,388.413 813.915,386.411 814.622,384.452 815.314,382.535 815.991,380.657 816.655,378.817 817.306,377.013 817.944,375.245 818.57,373.51 819.184,371.808 819.787,370.137 820.38,368.496 820.961,366.884 821.533,365.3 822.094,363.743 822.647,362.212 823.19,360.707 823.724,359.226 824.25,357.768 824.768,356.334 825.277,354.922 825.779,353.531 826.273,352.162 826.76,350.813 827.24,349.483 827.712,348.173 828.178,346.881 828.638,345.607 829.091,344.351 829.538,343.111 829.98,341.889 830.415,340.683 830.844,339.492 831.268,338.317 831.687,337.157 832.1,336.011 832.509,334.88 832.912,333.762 833.31,332.658 833.704,331.567 834.093,330.49 834.477,329.424 834.857,328.371 835.232,327.331 835.604,326.302 835.971,325.284 836.334,324.277 836.693,323.282 837.048,322.297 837.4,321.323 837.748,320.36 838.092,319.406 838.432,318.462 838.769,317.528 839.103,316.603 " fill="none" stroke-opacity="1.000000" stroke-linecap="round" stroke="#1f77b4" stroke-width="1.000000" />
</g>

<polygon points="688.1,314.08 688.1,555.08 915.1,555.08 915.1,314.08 " stroke="black" stroke-width="1.000000" fill="none" id="id0000000208" pointer-events="none" class="rectangle" />
<polyline points="688.1,555.08 688.1,558.08 " fill="none" stroke-width="1.000000" stroke="black" id="id0000000209" class="line" />
<text id="id0000000210" transform="matrix(1 0 0 1 688.1 314.08)" x="0.000000" y="246.000000" dominant-baseline="hanging" text-anchor="middle" font-size="14.000000px" >
10<tspan dy="-7" font-size=".7em">-2</tspan>
</text>

<polyline points="763.767,555.08 763.767,558.08 " fill="none" stroke-width="1.000000" stroke="black" id="id0000000211" class="line" />
<text id="id0000000212" transform="matrix(1 0 0 1 688.1 314.08)" x="75.666664" y="246.000000" dominant-baseline="hanging" text-anchor="middle" font-size="14.000000px" >
10<tspan dy="-7" font-size=".7em">-1</tspan>
</text>

<polyline points="839.433,555.08 839.433,558.08 " fill="none" stroke-width="1.000000" stroke="black" id="id0000000213" class="line" />
<text id="id0000000214" transform="matrix(1 0 0 1 688.1 314.08)" x="151.333328" y="246.000000" dominant-baseline="hanging" text-anchor="middle" font-size="14.000000px" >
10<tspan dy="-7" font-size=".7em">0</tspan>
</text>

<polyline points="915.1,555.08 915.1,558.08 " fill="none" stroke-width="1.000000" stroke="black" id="id0000000215" class="line" />
<text id="id0000000216" transform="matrix(1 0 0 1 688.1 314.08)" x="227.000000" y="246.000000" dominant-baseline="hanging" text-anchor="middle" font-size="14.000000px" >
10<tspan dy="-7" font-size=".7em">1</tspan>
</text>

<polyline points="685.1,315.688 688.1,315.688 " fill="none" stroke-width="1.000000" stroke="black" id="id0000000217" class="line" />
<text id="id0000000218" transform="matrix(1 0 0 1 688.1 314.08)" x="-5.000000" y="1.607941" dominant-baseline="middle" text-anchor="end" font-size="14.000000px" >
1
</text>

<text id="id0000000219" transform="matrix(1 0 0 1 688.1 314.08)" x="113.500000" y="269.000000" text-anchor="middle" font-size="18.000000px" >
log
</text>

<g id="id0000000031" >
<text id="id0000000220" transform="matrix(-4.37114e-08 -1 1 -4.37114e-08 660.1 434.58)" x="0.000000" y="0.000000" text-anchor="middle" font-size="18.000000px" >
symlog
</text>

</g>

</g>

</g>

<g id="id0000000032" >
<g id="id0000000033" >
<clipPath id="id0000000033clipper" >
<polygon points="82.06,617.1 82.06,858.1 309.06,858.1 309.06,617.1 " id="id0000000221" class="rectangle" />
</clipPath>

<g clip-path="url(#id0000000033clipper)" id="id0000000035" >
<polyline id="id0000000222" points="110.018,851.012 118.194,848.463 125.658,845.915 132.525,843.366 138.882,840.817 144.801,838.269 150.337,835.72 155.538,833.172 160.441,830.623 165.079,828.075 169.479,825.526 173.665,822.977 177.656,820.429 181.469,817.88 185.12,815.332 188.622,812.783 191.986,810.234 195.224,807.686 198.344,805.137 201.354,802.589 204.262,800.04 207.075,797.492 209.799,794.943 212.439,792.394 215,789.846 217.486,787.297 219.903,784.749 222.253,782.2 224.541,779.651 226.769,777.103 228.941,774.554 231.059,772.006 233.127,769.457 235.145,766.909 237.117,764.36 239.045,761.811 240.931,759.263 242.776,756.714 244.582,754.166 246.351,751.617 248.084,749.069 249.782,746.52 251.448,743.971 253.082,741.423 254.686,738.874 256.26,736.326 257.806,733.777 259.324,731.229 260.816,728.68 262.282,726.131 263.724,723.583 265.142,721.034 266.537,718.486 267.91,715.937 269.261,713.388 270.591,710.84 271.9,708.291 273.19,705.743 274.461,703.194 275.714,700.646 276.948,698.097 278.165,695.548 279.365,693 280.548,690.451 281.715,687.903 282.867,685.354 284.003,682.806 285.124,680.257 286.231,677.708 287.324,675.16 288.403,672.611 289.469,670.063 290.521,667.514 291.561,664.965 292.588,662.417 293.604,659.868 294.607,657.32 295.599,654.771 296.579,652.223 297.548,649.674 298.507,647.125 299.455,644.577 300.392,642.028 301.32,639.48 302.237,636.931 303.145,634.383 304.043,631.834 304.932,629.285 305.812,626.737 306.683,624.188 " fill="none" stroke-opacity="1.000000" stroke-linecap="round" stroke="#1f77b4" stroke-width="1.000000" />
</g>

<polygon points="82.06,617.1 82.06,858.1 309.06,858.1 309.06,617.1 " stroke="black" stroke-width="1.000000" fill="none" id="id0000000223" pointer-events="none" class="rectangle" />
<polyline points="307.545,858.1 307.545,861.1 " fill="none" stroke-width="1.000000" stroke="black" id="id0000000224" class="line" />
<text id="id0000000225" transform="matrix(1 0 0 1 82.06 617.1)" x="225.485474" y="246.000000" dominant-baseline="hanging" text-anchor="middle" font-size="14.000000px" >
1
</text>

<polyline points="79.06,851.012 82.06,851.012 " fill="none" stroke-width="1.000000" stroke="black" id="id0000000226" class="line" />
<text id="id0000000227" transform="matrix(1 0 0 1 82.06 617.1)" x="-5.000000" y="233.911758" dominant-baseline="middle" text-anchor="end" font-size="14.000000px" >
0.1
</text>

<polyline points="79.06,825.526 82.06,825.526 " fill="none" stroke-width="1.000000" stroke="black" id="id0000000228" class="line" />
<text id="id0000000229" transform="matrix(1 0 0 1 82.06 617.1)" x="-5.000000" y="208.425949" dominant-baseline="middle" text-anchor="end" font-size="14.000000px" >
0.2
</text>

<polyline points="79.06,800.04 82.06,800.04 " fill="none" stroke-width="1.000000" stroke="black" id="id0000000230" class="line" />
<text id="id0000000231" transform="matrix(1 0 0 1 82.06 617.1)" x="-5.000000" y="182.940140" dominant-baseline="middle" text-anchor="end" font-size="14.000000px" >
0.3
</text>

<polyline points="79.06,774.554 82.06,774.554 " fill="none" stroke-width="1.000000" stroke="black" id="id0000000232" class="line" />
<text id="id0000000233" transform="matrix(1 0 0 1 82.06 617.1)" x="-5.000000" y="157.454330" dominant-baseline="middle" text-anchor="end" font-size="14.000000px" >
0.4
</text>

<polyline points="79.06,749.068 82.06,749.068 " fill="none" stroke-width="1.000000" stroke="black" id="id0000000234" class="line" />
<text id="id0000000235" transform="matrix(1 0 0 1 82.06 617.1)" x="-5.000000" y="131.968521" dominant-baseline="middle" text-anchor="end" font-size="14.000000px" >
0.5
</text>

<polyline points="79.06,723.583 82.06,723.583 " fill="none" stroke-width="1.000000" stroke="black" id="id0000000236" class="line" />
<text id="id0000000237" transform="matrix(1 0 0 1 82.06 617.1)" x="-5.000000" y="106.482712" dominant-baseline="middle" text-anchor="end" font-size="14.000000px" >
0.6
</text>

<polyline points="79.06,698.097 82.06,698.097 " fill="none" stroke-width="1.000000" stroke="black" id="id0000000238" class="line" />
<text id="id0000000239" transform="matrix(1 0 0 1 82.06 617.1)" x="-5.000000" y="80.996902" dominant-baseline="middle" text-anchor="end" font-size="14.000000px" >
0.7
</text>

<polyline points="79.06,672.611 82.06,672.611 " fill="none" stroke-width="1.000000" stroke="black" id="id0000000240" class="line" />
<text id="id0000000241" transform="matrix(1 0 0 1 82.06 617.1)" x="-5.000000" y="55.511078" dominant-baseline="middle" text-anchor="end" font-size="14.000000px" >
0.8
</text>

<polyline points="79.06,647.125 82.06,647.125 " fill="none" stroke-width="1.000000" stroke="black" id="id0000000242" class="line" />
<text id="id0000000243" transform="matrix(1 0 0 1 82.06 617.1)" x="-5.000000" y="30.025269" dominant-baseline="middle" text-anchor="end" font-size="14.000000px" >
0.9
</text>

<polyline points="79.06,621.639 82.06,621.639 " fill="none" stroke-width="1.000000" stroke="black" id="id0000000244" class="line" />
<text id="id0000000245" transform="matrix(1 0 0 1 82.06 617.1)" x="-5.000000" y="4.539444" dominant-baseline="middle" text-anchor="end" font-size="14.000000px" >
1
</text>

<text id="id0000000246" transform="matrix(1 0 0 1 82.06 617.1)" x="113.500000" y="269.000000" text-anchor="middle" font-size="18.000000px" >
symlog
</text>

<g id="id0000000036" >
<text id="id0000000247" transform="matrix(-4.37114e-08 -1 1 -4.37114e-08 54.06 737.6)" x="0.000000" y="0.000000" text-anchor="middle" font-size="18.000000px" >
linear
</text>

</g>

</g>

</g>

<g id="id0000000037" >
<g id="id0000000038" >
<clipPath id="id0000000038clipper" >
<polygon points="385.08,617.1 385.08,858.1 612.08,858.1 612.08,617.1 " id="id0000000248" class="rectangle" />
</clipPath>

<g clip-path="url(#id0000000038clipper)" id="id0000000040" >
<polyline id="id0000000249" points="413.038,777.767 421.214,774.441 428.678,771.406 435.545,768.613 441.902,766.028 447.821,763.621 453.357,761.369 458.558,759.254 463.461,757.26 468.099,755.373 472.499,753.584 476.685,751.882 480.676,750.259 484.489,748.708 488.14,747.223 491.642,745.799 495.006,744.43 498.244,743.114 501.364,741.845 504.374,740.621 507.282,739.438 510.095,738.294 512.819,737.186 515.459,736.113 518.02,735.071 520.506,734.06 522.923,733.077 525.273,732.121 527.561,731.191 529.789,730.284 531.961,729.401 534.079,728.54 536.147,727.699 538.165,726.878 540.137,726.076 542.065,725.292 543.951,724.525 545.796,723.775 547.602,723.04 549.371,722.321 551.104,721.616 552.802,720.925 554.468,720.248 556.102,719.583 557.706,718.931 559.28,718.291 560.826,717.662 562.344,717.045 563.836,716.438 565.302,715.842 566.744,715.255 568.162,714.678 569.557,714.111 570.93,713.553 572.281,713.004 573.611,712.463 574.92,711.93 576.21,711.405 577.481,710.888 578.734,710.379 579.968,709.877 581.185,709.382 582.385,708.894 583.568,708.413 584.735,707.938 585.887,707.47 587.023,707.008 588.144,706.552 589.251,706.102 590.344,705.657 591.423,705.218 592.489,704.785 593.541,704.357 594.581,703.934 595.608,703.516 596.624,703.103 597.627,702.695 598.619,702.292 599.599,701.893 600.568,701.499 601.527,701.109 602.475,700.724 603.412,700.342 604.34,699.965 605.257,699.592 606.165,699.223 607.063,698.858 607.952,698.496 608.832,698.138 609.703,697.784 " fill="none" stroke-opacity="1.000000" stroke-linecap="round" stroke="#1f77b4" stroke-width="1.000000" />
</g>

<polygon points="385.08,617.1 385.08,858.1 612.08,858.1 612.08,617.1 " stroke="black" stroke-width="1.000000" fill="none" id="id0000000250" pointer-events="none" class="rectangle" />
<polyline points="610.565,858.1 610.565,861.1 " fill="none" stroke-width="1.000000" stroke="black" id="id0000000251" class="line" />
<text id="id0000000252" transform="matrix(1 0 0 1 385.08 617.1)" x="225.485474" y="246.000000" dominant-baseline="hanging" text-anchor="middle" font-size="14.000000px" >
1
</text>

<polyline points="382.08,858.1 385.08,858.1 " fill="none" stroke-width="1.000000" stroke="black" id="id0000000253" class="line" />
<text id="id0000000254" transform="matrix(1 0 0 1 385.08 617.1)" x="-5.000000" y="241.000000" dominant-baseline="middle" text-anchor="end" font-size="14.000000px" >
10<tspan dy="-7" font-size=".7em">-2</tspan>
</text>

<polyline points="382.08,777.767 385.08,777.767 " fill="none" stroke-width="1.000000" stroke="black" id="id0000000255" class="line" />
<text id="id0000000256" transform="matrix(1 0 0 1 385.08 617.1)" x="-5.000000" y="160.666656" dominant-baseline="middle" text-anchor="end" font-size="14.000000px" >
10<tspan dy="-7" font-size=".7em">-1</tspan>
</text>

<polyline points="382.08,697.433 385.08,697.433 " fill="none" stroke-width="1.000000" stroke="black" id="id0000000257" class="line" />
<text id="id0000000258" transform="matrix(1 0 0 1 385.08 617.1)" x="-5.000000" y="80.333328" dominant-baseline="middle" text-anchor="end" font-size="14.000000px" >
10<tspan dy="-7" font-size=".7em">0</tspan>
</text>

<polyline points="382.08,617.1 385.08,617.1 " fill="none" stroke-width="1.000000" stroke="black" id="id0000000259" class="line" />
<text id="id0000000260" transform="matrix(1 0 0 1 385.08 617.1)" x="-5.000000" y="0.000000" dominant-baseline="middle" text-anchor="end" font-size="14.000000px" >
10<tspan dy="-7" font-size=".7em">1</tspan>
</text>

<text id="id0000000261" transform="matrix(1 0 0 1 385.08 617.1)" x="113.500000" y="269.000000" text-anchor="middle" font-size="18.000000px" >
symlog
</text>

<g id="id0000000041" >
<text id="id0000000262" transform="matrix(-4.37114e-08 -1 1 -4.37114e-08 357.08 737.6)" x="0.000000" y="0.000000" text-anchor="middle" font-size="18.000000px" >
log
</text>

</g>

</g>

</g>

<g id="id0000000042" >
<g id="id0000000043" >
<clipPath id="id0000000043clipper" >
<polygon points="688.1,617.1 688.1,858.1 915.1,858.1 915.1,617.1 " id="id0000000263" class="rectangle" />
</clipPath>

<g clip-path="url(#id0000000043clipper)" id="id0000000045" >
<polyline id="id0000000264" points="716.058,828.418 724.234,819.738 731.698,811.813 738.565,804.523 744.922,797.773 750.841,791.49 756.377,785.612 761.578,780.091 766.481,774.885 771.119,769.961 775.519,765.289 779.705,760.845 783.696,756.608 787.509,752.56 791.16,748.684 794.662,744.966 798.026,741.394 801.264,737.957 804.384,734.644 807.394,731.448 810.302,728.361 813.115,725.375 815.839,722.483 818.479,719.68 821.04,716.961 823.526,714.321 825.943,711.756 828.293,709.26 830.581,706.832 832.809,704.466 834.981,702.16 837.099,699.911 839.167,697.716 841.185,695.573 843.157,693.479 845.085,691.433 846.971,689.431 848.816,687.472 850.622,685.555 852.391,683.677 854.124,681.837 855.822,680.033 857.488,678.265 859.122,676.53 860.726,674.828 862.3,673.156 863.846,671.515 865.364,669.903 866.856,668.319 868.322,666.763 869.764,665.232 871.182,663.726 872.577,662.245 873.95,660.788 875.301,659.354 876.631,657.942 877.94,656.551 879.23,655.182 880.501,653.833 881.754,652.503 882.988,651.192 884.205,649.901 885.405,648.627 886.588,647.37 887.755,646.131 888.906,644.909 890.043,643.703 891.164,642.512 892.271,641.337 893.364,640.177 894.443,639.031 895.509,637.899 896.561,636.782 897.601,635.678 898.628,634.587 899.644,633.51 900.647,632.444 901.639,631.391 902.619,630.351 903.589,629.321 904.547,628.304 905.495,627.297 906.432,626.302 907.36,625.317 908.277,624.343 909.185,623.38 910.083,622.426 910.972,621.482 911.852,620.548 912.723,619.623 " fill="none" stroke-opacity="1.000000" stroke-linecap="round" stroke="#1f77b4" stroke-width="1.000000" />
</g>

<polygon points="688.1,617.1 688.1,858.1 915.1,858.1 915.1,617.1 " stroke="black" stroke-width="1.000000" fill="none" id="id0000000265" pointer-events="none" class="rectangle" />
<polyline points="913.585,858.1 913.585,861.1 " fill="none" stroke-width="1.000000" stroke="black" id="id0000000266" class="line" />
<text id="id0000000267" transform="matrix(1 0 0 1 688.1 617.1)" x="225.485474" y="246.000000" dominant-baseline="hanging" text-anchor="middle" font-size="14.000000px" >
1
</text>

<polyline points="685.1,618.708 688.1,618.708 " fill="none" stroke-width="1.000000" stroke="black" id="id0000000268" class="line" />
<text id="id0000000269" transform="matrix(1 0 0 1 688.1 617.1)" x="-5.000000" y="1.607941" dominant-baseline="middle" text-anchor="end" font-size="14.000000px" >
1
</text>

<text id="id0000000270" transform="matrix(1 0 0 1 688.1 617.1)" x="113.500000" y="269.000000" text-anchor="middle" font-size="18.000000px" >
symlog
</text>

<g id="id0000000046" >
<text id="id0000000271" transform="matrix(-4.37114e-08 -1 1 -4.37114e-08 660.1 737.6)" x="0.000000" y="0.000000" text-anchor="middle" font-size="18.000000px" >
symlog
</text>

</g>

</g>

</g>


</g>

</svg>
