<svg viewBox="0 0 926.12 926.12" height="100%" width="100%" xmlns:xlink="http://www.w3.org/1999/xlink" xmlns="http://www.w3.org/2000/svg" id="id0000000000" >
<g id="id0000000001" >
<g id="id0000000002" >
<g id="id0000000003" >
<clipPath id="id0000000003clipper" >
<polygon points="82.06,11.06 82.06,252.06 309.06,252.06 309.06,11.06 " id="id0000000047" class="rectangle" />
</clipPath>

<g clip-path="url(#id0000000003clipper)" id="id0000000005" >
<polyline id="id0000000048" points="88.7365,244.972 91.137,242.423 93.5375,239.875 95.9381,237.326 98.3386,234.777 100.739,232.229 103.14,229.68 105.54,227.132 107.941,224.583 110.341,222.035 112.742,219.486 115.142,216.937 117.543,214.389 119.943,211.84 122.344,209.292 124.744,206.743 127.145,204.194 129.546,201.646 131.946,199.097 134.347,196.549 136.747,194 139.148,191.452 141.548,188.903 143.949,186.354 146.349,183.806 148.75,181.257 151.15,178.709 153.551,176.16 155.951,173.612 158.352,171.063 160.752,168.514 163.153,165.966 165.553,163.417 167.954,160.869 170.354,158.32 172.755,155.771 175.156,153.223 177.556,150.674 179.957,148.126 182.357,145.577 184.758,143.029 187.158,140.48 189.559,137.931 191.959,135.383 194.36,132.834 196.76,130.286 199.161,127.737 201.561,125.189 203.962,122.64 206.362,120.091 208.763,117.543 211.163,114.994 213.564,112.446 215.965,109.897 218.365,107.348 220.766,104.8 223.166,102.251 225.567,99.7027 227.967,97.1542 230.368,94.6056 232.768,92.057 235.169,89.5084 237.569,86.9598 239.97,84.4113 242.37,81.8627 244.771,79.3141 247.171,76.7655 249.572,74.2169 251.972,71.6684 254.373,69.1198 256.773,66.5712 259.174,64.0226 261.575,61.4741 263.975,58.9255 266.376,56.3769 268.776,53.8283 271.177,51.2797 273.577,48.7312 275.978,46.1826 278.378,43.634 280.779,41.0854 283.179,38.5368 285.58,35.9883 287.98,33.4397 290.381,30.8911 292.781,28.3425 295.182,25.794 297.582,23.2454 299.983,20.6968 302.384,18.1482 " fill="none" stroke-opacity="1.000000" stroke-linecap="round" stroke="#1f77b4" stroke-width="1.000000" />
</g>

<polygon points="82.06,11.06 82.06,252.06 309.06,252.06 309.06,11.06 " stroke="black" stroke-width="1.000000" fill="none" id="id0000000049" pointer-events="none" class="rectangle" />
<polyline points="88.7365,252.06 88.7365,255.06 " fill="none" stroke-width="1.000000" stroke="black" id="id0000000050" class="line" />
<text id="id0000000051" transform="matrix(1 0 0 1 82.06 11.06)" x="6.676471" y="246.000000" dominant-baseline="hanging" text-anchor="middle" font-size="14.000000px" >
0.1
</text>

<polyline points="112.742,252.06 112.742,255.06 " fill="none" stroke-width="1.000000" stroke="black" id="id0000000052" class="line" />
<text id="id0000000053" transform="matrix(1 0 0 1 82.06 11.06)" x="30.681776" y="246.000000" dominant-baseline="hanging" text-anchor="middle" font-size="14.000000px" >
0.2
</text>

<polyline points="136.747,252.06 136.747,255.06 " fill="none" stroke-width="1.000000" stroke="black" id="id0000000054" class="line" />
<text id="id0000000055" transform="matrix(1 0 0 1 82.06 11.06)" x="54.687088" y="246.000000" dominant-baseline="hanging" text-anchor="middle" font-size="14.000000px" >
0.3
</text>

<polyline points="160.752,252.06 160.752,255.06 " fill="none" stroke-width="1.000000" stroke="black" id="id0000000056" class="line" />
<text id="id0000000057" transform="matrix(1 0 0 1 82.06 11.06)" x="78.692398" y="246.000000" dominant-baseline="hanging" text-anchor="middle" font-size="14.000000px" >
0.4
</text>

<polyline points="184.758,252.06 184.758,255.06 " fill="none" stroke-width="1.000000" stroke="black" id="id0000000058" class="line" />
<text id="id0000000059" transform="matrix(1 0 0 1 82.06 11.06)" x="102.697701" y="246.000000" dominant-baseline="hanging" text-anchor="middle" font-size="14.000000px" >
0.5
</text>

<polyline points="208.763,252.06 208.763,255.06 " fill="none" stroke-width="1.000000" stroke="black" id="id0000000060" class="line" />
<text id="id0000000061" transform="matrix(1 0 0 1 82.06 11.06)" x="126.703003" y="246.000000" dominant-baseline="hanging" text-anchor="middle" font-size="14.000000px" >
0.6
</text>

<polyline points="232.768,252.06 232.768,255.06 " fill="none" stroke-width="1.000000" stroke="black" id="id0000000062" class="line" />
<text id="id0000000063" transform="matrix(1 0 0 1 82.06 11.06)" x="150.708328" y="246.000000" dominant-baseline="hanging" text-anchor="middle" font-size="14.000000px" >
0.7
</text>

<polyline points="256.774,252.06 256.774,255.06 " fill="none" stroke-width="1.000000" stroke="black" id="id0000000064" class="line" />
<text id="id0000000065" transform="matrix(1 0 0 1 82.06 11.06)" x="174.713623" y="246.000000" dominant-baseline="hanging" text-anchor="middle" font-size="14.000000px" >
0.8
</text>

<polyline points="280.779,252.06 280.779,255.06 " fill="none" stroke-width="1.000000" stroke="black" id="id0000000066" class="line" />
<text id="id0000000067" transform="matrix(1 0 0 1 82.06 11.06)" x="198.718948" y="246.000000" dominant-baseline="hanging" text-anchor="middle" font-size="14.000000px" >
0.9
</text>

<polyline points="304.784,252.06 304.784,255.06 " fill="none" stroke-width="1.000000" stroke="black" id="id0000000068" class="line" />
<text id="id0000000069" transform="matrix(1 0 0 1 82.06 11.06)" x="222.724258" y="246.000000" dominant-baseline="hanging" text-anchor="middle" font-size="14.000000px" >
1
</text>

<polyline points="79.06,244.972 82.06,244.972 " fill="none" stroke-width="1.000000" stroke="black" id="id0000000070" class="line" />
<text id="id0000000071" transform="matrix(1 0 0 1 82.06 11.06)" x="-5.000000" y="233.911758" dominant-baseline="middle" text-anchor="end" font-size="14.000000px" >
0.1
</text>

<polyline points="79.06,219.486 82.06,219.486 " fill="none" stroke-width="1.000000" stroke="black" id="id0000000072" class="line" />
<text id="id0000000073" transform="matrix(1 0 0 1 82.06 11.06)" x="-5.000000" y="208.425949" dominant-baseline="middle" text-anchor="end" font-size="14.000000px" >
0.2
</text>

<polyline points="79.06,194 82.06,194 " fill="none" stroke-width="1.000000" stroke="black" id="id0000000074" class="line" />
<text id="id0000000075" transform="matrix(1 0 0 1 82.06 11.06)" x="-5.000000" y="182.940140" dominant-baseline="middle" text-anchor="end" font-size="14.000000px" >
0.3
</text>

<polyline points="79.06,168.514 82.06,168.514 " fill="none" stroke-width="1.000000" stroke="black" id="id0000000076" class="line" />
<text id="id0000000077" transform="matrix(1 0 0 1 82.06 11.06)" x="-5.000000" y="157.454330" dominant-baseline="middle" text-anchor="end" font-size="14.000000px" >
0.4
</text>

<polyline points="79.06,143.029 82.06,143.029 " fill="none" stroke-width="1.000000" stroke="black" id="id0000000078" class="line" />
<text id="id0000000079" transform="matrix(1 0 0 1 82.06 11.06)" x="-5.000000" y="131.968521" dominant-baseline="middle" text-anchor="end" font-size="14.000000px" >
0.5
</text>

<polyline points="79.06,117.543 82.06,117.543 " fill="none" stroke-width="1.000000" stroke="black" id="id0000000080" class="line" />
<text id="id0000000081" transform="matrix(1 0 0 1 82.06 11.06)" x="-5.000000" y="106.482712" dominant-baseline="middle" text-anchor="end" font-size="14.000000px" >
0.6
</text>

<polyline points="79.06,92.0569 82.06,92.0569 " fill="none" stroke-width="1.000000" stroke="black" id="id0000000082" class="line" />
<text id="id0000000083" transform="matrix(1 0 0 1 82.06 11.06)" x="-5.000000" y="80.996902" dominant-baseline="middle" text-anchor="end" font-size="14.000000px" >
0.7
</text>

<polyline points="79.06,66.5711 82.06,66.5711 " fill="none" stroke-width="1.000000" stroke="black" id="id0000000084" class="line" />
<text id="id0000000085" transform="matrix(1 0 0 1 82.06 11.06)" x="-5.000000" y="55.511078" dominant-baseline="middle" text-anchor="end" font-size="14.000000px" >
0.8
</text>

<polyline points="79.06,41.0853 82.06,41.0853 " fill="none" stroke-width="1.000000" stroke="black" id="id0000000086" class="line" />
<text id="id0000000087" transform="matrix(1 0 0 1 82.06 11.06)" x="-5.000000" y="30.025269" dominant-baseline="middle" text-anchor="end" font-size="14.000000px" >
0.9
</text>

<polyline points="79.06,15.5994 82.06,15.5994 " fill="none" stroke-width="1.000000" stroke="black" id="id0000000088" class="line" />
<text id="id0000000089" transform="matrix(1 0 0 1 82.06 11.06)" x="-5.000000" y="4.539444" dominant-baseline="middle" text-anchor="end" font-size="14.000000px" >
1
</text>

<text id="id0000000090" transform="matrix(1 0 0 1 82.06 11.06)" x="113.500000" y="269.000000" text-anchor="middle" font-size="18.000000px" >
linear
</text>

<g id="id0000000006" >
<text id="id0000000091" transform="matrix(-4.37114e-08 -1 1 -4.37114e-08 54.06 131.56)" x="0.000000" y="0.000000" text-anchor="middle" font-size="18.000000px" >
linear
</text>

</g>

</g>

</g>

<g id="id0000000007" >
<g id="id0000000008" >
<clipPath id="id0000000008clipper" >
<polygon points="385.08,11.06 385.08,252.06 612.08,252.06 612.08,11.06 " id="id0000000092" class="rectangle" />
</clipPath>

<g clip-path="url(#id0000000008clipper)" id="id0000000010" >
<polyline id="id0000000093" points="391.756,171.727 394.157,168.401 396.558,165.366 398.958,162.573 401.359,159.988 403.759,157.581 406.16,155.329 408.56,153.214 410.961,151.22 413.361,149.333 415.762,147.544 418.162,145.842 420.563,144.219 422.963,142.668 425.364,141.183 427.764,139.759 430.165,138.39 432.565,137.074 434.966,135.805 437.367,134.581 439.767,133.398 442.168,132.254 444.568,131.146 446.969,130.073 449.369,129.031 451.77,128.02 454.17,127.037 456.571,126.081 458.971,125.151 461.372,124.244 463.772,123.361 466.173,122.5 468.573,121.659 470.974,120.838 473.374,120.036 475.775,119.252 478.176,118.485 480.576,117.735 482.977,117 485.377,116.281 487.778,115.576 490.178,114.885 492.579,114.208 494.979,113.543 497.38,112.891 499.78,112.251 502.181,111.622 504.581,111.005 506.982,110.398 509.382,109.802 511.783,109.215 514.183,108.639 516.584,108.071 518.984,107.513 521.385,106.964 523.786,106.423 526.186,105.89 528.587,105.365 530.987,104.848 533.388,104.339 535.788,103.837 538.189,103.342 540.589,102.854 542.99,102.373 545.39,101.898 547.791,101.43 550.191,100.968 552.592,100.512 554.992,100.062 557.393,99.6173 559.794,99.1785 562.194,98.745 564.595,98.317 566.995,97.8941 569.396,97.4762 571.796,97.0634 574.197,96.6553 576.597,96.252 578.998,95.8532 581.398,95.459 583.799,95.0692 586.199,94.6837 588.6,94.3024 591,93.9252 593.401,93.5521 595.801,93.1829 598.202,92.8176 600.602,92.456 603.003,92.0982 605.404,91.744 " fill="none" stroke-opacity="1.000000" stroke-linecap="round" stroke="#1f77b4" stroke-width="1.000000" />
</g>

<polygon points="385.08,11.06 385.08,252.06 612.08,252.06 612.08,11.06 " stroke="black" stroke-width="1.000000" fill="none" id="id0000000094" pointer-events="none" class="rectangle" />
<polyline points="391.756,252.06 391.756,255.06 " fill="none" stroke-width="1.000000" stroke="black" id="id0000000095" class="line" />
<text id="id0000000096" transform="matrix(1 0 0 1 385.08 11.06)" x="6.676471" y="246.000000" dominant-baseline="hanging" text-anchor="middle" font-size="14.000000px" >
0.1
</text>

<polyline points="415.762,252.06 415.762,255.06 " fill="none" stroke-width="1.000000" stroke="black" id="id0000000097" class="line" />
<text id="id0000000098" transform="matrix(1 0 0 1 385.08 11.06)" x="30.681776" y="246.000000" dominant-baseline="hanging" text-anchor="middle" font-size="14.000000px" >
0.2
</text>

<polyline points="439.767,252.06 439.767,255.06 " fill="none" stroke-width="1.000000" stroke="black" id="id0000000099" class="line" />
<text id="id0000000100" transform="matrix(1 0 0 1 385.08 11.06)" x="54.687088" y="246.000000" dominant-baseline="hanging" text-anchor="middle" font-size="14.000000px" >
0.3
</text>

<polyline points="463.772,252.06 463.772,255.06 " fill="none" stroke-width="1.000000" stroke="black" id="id0000000101" class="line" />
<text id="id0000000102" transform="matrix(1 0 0 1 385.08 11.06)" x="78.692398" y="246.000000" dominant-baseline="hanging" text-anchor="middle" font-size="14.000000px" >
0.4
</text>

<polyline points="487.778,252.06 487.778,255.06 " fill="none" stroke-width="1.000000" stroke="black" id="id0000000103" class="line" />
<text id="id0000000104" transform="matrix(1 0 0 1 385.08 11.06)" x="102.697701" y="246.000000" dominant-baseline="hanging" text-anchor="middle" font-size="14.000000px" >
0.5
</text>

<polyline points="511.783,252.06 511.783,255.06 " fill="none" stroke-width="1.000000" stroke="black" id="id0000000105" class="line" />
<text id="id0000000106" transform="matrix(1 0 0 1 385.08 11.06)" x="126.703003" y="246.000000" dominant-baseline="hanging" text-anchor="middle" font-size="14.000000px" >
0.6
</text>

<polyline points="535.788,252.06 535.788,255.06 " fill="none" stroke-width="1.000000" stroke="black" id="id0000000107" class="line" />
<text id="id0000000108" transform="matrix(1 0 0 1 385.08 11.06)" x="150.708328" y="246.000000" dominant-baseline="hanging" text-anchor="middle" font-size="14.000000px" >
0.7
</text>

<polyline points="559.794,252.06 559.794,255.06 " fill="none" stroke-width="1.000000" stroke="black" id="id0000000109" class="line" />
<text id="id0000000110" transform="matrix(1 0 0 1 385.08 11.06)" x="174.713623" y="246.000000" dominant-baseline="hanging" text-anchor="middle" font-size="14.000000px" >
0.8
</text>

<polyline points="583.799,252.06 583.799,255.06 " fill="none" stroke-width="1.000000" stroke="black" id="id0000000111" class="line" />
<text id="id0000000112" transform="matrix(1 0 0 1 385.08 11.06)" x="198.718948" y="246.000000" dominant-baseline="hanging" text-anchor="middle" font-size="14.000000px" >
0.9
</text>

<polyline points="607.804,252.06 607.804,255.06 " fill="none" stroke-width="1.000000" stroke="black" id="id0000000113" class="line" />
<text id="id0000000114" transform="matrix(1 0 0 1 385.08 11.06)" x="222.724258" y="246.000000" dominant-baseline="hanging" text-anchor="middle" font-size="14.000000px" >
1
</text>

<polyline points="382.08,252.06 385.08,252.06 " fill="none" stroke-width="1.000000" stroke="black" id="id0000000115" class="line" />
<text id="id0000000116" transform="matrix(1 0 0 1 385.08 11.06)" x="-5.000000" y="241.000000" dominant-baseline="middle" text-anchor="end" font-size="14.000000px" >
10<tspan dy="-7" font-size=".7em">-2</tspan>
</text>

<polyline points="382.08,171.727 385.08,171.727 " fill="none" stroke-width="1.000000" stroke="black" id="id0000000117" class="line" />
<text id="id0000000118" transform="matrix(1 0 0 1 385.08 11.06)" x="-5.000000" y="160.666656" dominant-baseline="middle" text-anchor="end" font-size="14.000000px" >
10<tspan dy="-7" font-size=".7em">-1</tspan>
</text>

<polyline points="382.08,91.3933 385.08,91.3933 " fill="none" stroke-width="1.000000" stroke="black" id="id0000000119" class="line" />
<text id="id0000000120" transform="matrix(1 0 0 1 385.08 11.06)" x="-5.000000" y="80.333328" dominant-baseline="middle" text-anchor="end" font-size="14.000000px" >
10<tspan dy="-7" font-size=".7em">0</tspan>
</text>

<polyline points="382.08,11.06 385.08,11.06 " fill="none" stroke-width="1.000000" stroke="black" id="id0000000121" class="line" />
<text id="id0000000122" transform="matrix(1 0 0 1 385.08 11.06)" x="-5.000000" y="0.000000" dominant-baseline="middle" text-anchor="end" font-size="14.000000px" >
10<tspan dy="-7" font-size=".7em">1</tspan>
</text>

<text id="id0000000123" transform="matrix(1 0 0 1 385.08 11.06)" x="113.500000" y="269.000000" text-anchor="middle" font-size="18.000000px" >
linear
</text>

<g id="id0000000011" >
<text id="id0000000124" transform="matrix(-4.37114e-08 -1 1 -4.37114e-08 357.08 131.56)" x="0.000000" y="0.000000" text-anchor="middle" font-size="18.000000px" >
log
</text>

</g>

</g>

</g>

<g id="id0000000012" >
<g id="id0000000013" >
<clipPath id="id0000000013clipper" >
<polygon points="688.1,11.06 688.1,252.06 915.1,252.06 915.1,11.06 " id="id0000000125" class="rectangle" />
</clipPath>

<g clip-path="url(#id0000000013clipper)" id="id0000000015" >
<polyline id="id0000000126" points="694.776,171.727 697.177,168.401 699.578,165.366 701.978,162.573 704.379,159.988 706.779,157.581 709.18,155.329 711.58,153.214 713.981,151.22 716.381,149.333 718.782,147.544 721.182,145.842 723.583,144.219 725.983,142.668 728.384,141.183 730.784,139.759 733.185,138.39 735.585,137.074 737.986,135.805 740.387,134.581 742.787,133.398 745.188,132.254 747.588,131.146 749.989,130.073 752.389,129.031 754.79,128.02 757.19,127.037 759.591,126.081 761.991,125.151 764.392,124.244 766.792,123.361 769.193,122.5 771.593,121.659 773.994,120.838 776.394,120.036 778.795,119.252 781.195,118.485 783.596,117.735 785.997,117 788.397,116.281 790.798,115.576 793.198,114.885 795.599,114.208 797.999,113.543 800.4,112.891 802.8,112.251 805.201,111.622 807.601,111.005 810.002,110.398 812.402,109.802 814.803,109.215 817.203,108.639 819.604,108.071 822.005,107.513 824.405,106.964 826.806,106.423 829.206,105.89 831.607,105.365 834.007,104.848 836.408,104.339 838.808,103.837 841.209,103.342 843.609,102.854 846.01,102.373 848.41,101.898 850.811,101.43 853.211,100.968 855.612,100.512 858.012,100.062 860.413,99.6173 862.813,99.1785 865.214,98.745 867.615,98.317 870.015,97.8941 872.416,97.4763 874.816,97.0634 877.217,96.6553 879.617,96.252 882.018,95.8533 884.418,95.459 886.819,95.0692 889.219,94.6837 891.62,94.3024 894.02,93.9252 896.421,93.5521 898.821,93.1829 901.222,92.8176 903.622,92.456 906.023,92.0982 908.424,91.744 " fill="none" stroke-opacity="1.000000" stroke-linecap="round" stroke="#1f77b4" stroke-width="1.000000" />
</g>

<polygon points="688.1,11.06 688.1,252.06 915.1,252.06 915.1,11.06 " stroke="black" stroke-width="1.000000" fill="none" id="id0000000127" pointer-events="none" class="rectangle" />
<polyline points="694.776,252.06 694.776,255.06 " fill="none" stroke-width="1.000000" stroke="black" id="id0000000128" class="line" />
<text id="id0000000129" transform="matrix(1 0 0 1 688.1 11.06)" x="6.676471" y="246.000000" dominant-baseline="hanging" text-anchor="middle" font-size="14.000000px" >
0.1
</text>

<polyline points="718.782,252.06 718.782,255.06 " fill="none" stroke-width="1.000000" stroke="black" id="id0000000130" class="line" />
<text id="id0000000131" transform="matrix(1 0 0 1 688.1 11.06)" x="30.681776" y="246.000000" dominant-baseline="hanging" text-anchor="middle" font-size="14.000000px" >
0.2
</text>

<polyline points="742.787,252.06 742.787,255.06 " fill="none" stroke-width="1.000000" stroke="black" id="id0000000132" class="line" />
<text id="id0000000133" transform="matrix(1 0 0 1 688.1 11.06)" x="54.687088" y="246.000000" dominant-baseline="hanging" text-anchor="middle" font-size="14.000000px" >
0.3
</text>

<polyline points="766.792,252.06 766.792,255.06 " fill="none" stroke-width="1.000000" stroke="black" id="id0000000134" class="line" />
<text id="id0000000135" transform="matrix(1 0 0 1 688.1 11.06)" x="78.692398" y="246.000000" dominant-baseline="hanging" text-anchor="middle" font-size="14.000000px" >
0.4
</text>

<polyline points="790.798,252.06 790.798,255.06 " fill="none" stroke-width="1.000000" stroke="black" id="id0000000136" class="line" />
<text id="id0000000137" transform="matrix(1 0 0 1 688.1 11.06)" x="102.697701" y="246.000000" dominant-baseline="hanging" text-anchor="middle" font-size="14.000000px" >
0.5
</text>

<polyline points="814.803,252.06 814.803,255.06 " fill="none" stroke-width="1.000000" stroke="black" id="id0000000138" class="line" />
<text id="id0000000139" transform="matrix(1 0 0 1 688.1 11.06)" x="126.703003" y="246.000000" dominant-baseline="hanging" text-anchor="middle" font-size="14.000000px" >
0.6
</text>

<polyline points="838.808,252.06 838.808,255.06 " fill="none" stroke-width="1.000000" stroke="black" id="id0000000140" class="line" />
<text id="id0000000141" transform="matrix(1 0 0 1 688.1 11.06)" x="150.708328" y="246.000000" dominant-baseline="hanging" text-anchor="middle" font-size="14.000000px" >
0.7
</text>

<polyline points="862.814,252.06 862.814,255.06 " fill="none" stroke-width="1.000000" stroke="black" id="id0000000142" class="line" />
<text id="id0000000143" transform="matrix(1 0 0 1 688.1 11.06)" x="174.713623" y="246.000000" dominant-baseline="hanging" text-anchor="middle" font-size="14.000000px" >
0.8
</text>

<polyline points="886.819,252.06 886.819,255.06 " fill="none" stroke-width="1.000000" stroke="black" id="id0000000144" class="line" />
<text id="id0000000145" transform="matrix(1 0 0 1 688.1 11.06)" x="198.718948" y="246.000000" dominant-baseline="hanging" text-anchor="middle" font-size="14.000000px" >
0.9
</text>

<polyline points="910.824,252.06 910.824,255.06 " fill="none" stroke-width="1.000000" stroke="black" id="id0000000146" class="line" />
<text id="id0000000147" transform="matrix(1 0 0 1 688.1 11.06)" x="222.724258" y="246.000000" dominant-baseline="hanging" text-anchor="middle" font-size="14.000000px" >
1
</text>

<polyline points="685.1,252.06 688.1,252.06 " fill="none" stroke-width="1.000000" stroke="black" id="id0000000148" class="line" />
<text id="id0000000149" transform="matrix(1 0 0 1 688.1 11.06)" x="-5.000000" y="241.000000" dominant-baseline="middle" text-anchor="end" font-size="14.000000px" >
10<tspan dy="-7" font-size=".7em">-2</tspan>
</text>

<polyline points="685.1,11.06 688.1,11.06 " fill="none" stroke-width="1.000000" stroke="black" id="id0000000150" class="line" />
<text id="id0000000151" transform="matrix(1 0 0 1 688.1 11.06)" x="-5.000000" y="0.000000" dominant-baseline="middle" text-anchor="end" font-size="14.000000px" >
10<tspan dy="-7" font-size=".7em">1</tspan>
</text>

<text id="id0000000152" transform="matrix(1 0 0 1 688.1 11.06)" x="113.500000" y="269.000000" text-anchor="middle" font-size="18.000000px" >
linear
</text>

<g id="id0000000016" >
<text id="id0000000153" transform="matrix(-4.37114e-08 -1 1 -4.37114e-08 660.1 131.56)" x="0.000000" y="0.000000" text-anchor="middle" font-size="18.000000px" >
symlog
</text>

</g>

</g>

</g>

<g id="id0000000017" >
<g id="id0000000018" >
<clipPath id="id0000000018clipper" >
<polygon points="82.06,314.08 82.06,555.08 309.06,555.08 309.06,314.08 " id="id0000000154" class="rectangle" />
</clipPath>

<g clip-path="url(#id0000000018clipper)" id="id0000000020" >
<polyline id="id0000000155" points="157.727,547.992 160.859,545.443 163.718,542.895 166.348,540.346 168.784,537.797 171.051,535.249 173.172,532.7 175.164,530.152 177.042,527.603 178.819,525.055 180.505,522.506 182.108,519.957 183.637,517.409 185.097,514.86 186.496,512.312 187.837,509.763 189.126,507.214 190.367,504.666 191.562,502.117 192.715,499.569 193.829,497.02 194.906,494.472 195.95,491.923 196.961,489.374 197.942,486.826 198.894,484.277 199.82,481.729 200.721,479.18 201.597,476.631 202.451,474.083 203.283,471.534 204.094,468.986 204.886,466.437 205.659,463.889 206.415,461.34 207.153,458.791 207.875,456.243 208.582,453.694 209.274,451.146 209.951,448.597 210.615,446.049 211.266,443.5 211.904,440.951 212.53,438.403 213.144,435.854 213.747,433.306 214.34,430.757 214.921,428.208 215.493,425.66 216.054,423.111 216.607,420.563 217.15,418.014 217.684,415.466 218.21,412.917 218.728,410.368 219.237,407.82 219.739,405.271 220.233,402.723 220.72,400.174 221.2,397.626 221.672,395.077 222.139,392.528 222.598,389.98 223.051,387.431 223.499,384.883 223.94,382.334 224.375,379.785 224.804,377.237 225.228,374.688 225.647,372.14 226.06,369.591 226.469,367.043 226.872,364.494 227.27,361.945 227.664,359.397 228.053,356.848 228.437,354.3 228.817,351.751 229.192,349.203 229.564,346.654 229.931,344.105 230.294,341.557 230.653,339.008 231.009,336.46 231.36,333.911 231.708,331.362 232.052,328.814 232.392,326.265 232.729,323.717 233.063,321.168 " fill="none" stroke-opacity="1.000000" stroke-linecap="round" stroke="#1f77b4" stroke-width="1.000000" />
</g>

<polygon points="82.06,314.08 82.06,555.08 309.06,555.08 309.06,314.08 " stroke="black" stroke-width="1.000000" fill="none" id="id0000000156" pointer-events="none" class="rectangle" />
<polyline points="82.06,555.08 82.06,558.08 " fill="none" stroke-width="1.000000" stroke="black" id="id0000000157" class="line" />
<text id="id0000000158" transform="matrix(1 0 0 1 82.06 314.08)" x="0.000000" y="246.000000" dominant-baseline="hanging" text-anchor="middle" font-size="14.000000px" >
10<tspan dy="-7" font-size=".7em">-2</tspan>
</text>

<polyline points="157.727,555.08 157.727,558.08 " fill="none" stroke-width="1.000000" stroke="black" id="id0000000159" class="line" />
<text id="id0000000160" transform="matrix(1 0 0 1 82.06 314.08)" x="75.666664" y="246.000000" dominant-baseline="hanging" text-anchor="middle" font-size="14.000000px" >
10<tspan dy="-7" font-size=".7em">-1</tspan>
</text>

<polyline points="233.393,555.08 233.393,558.08 " fill="none" stroke-width="1.000000" stroke="black" id="id0000000161" class="line" />
<text id="id0000000162" transform="matrix(1 0 0 1 82.06 314.08)" x="151.333328" y="246.000000" dominant-baseline="hanging" text-anchor="middle" font-size="14.000000px" >
10<tspan dy="-7" font-size=".7em">0</tspan>
</text>

<polyline points="309.06,555.08 309.06,558.08 " fill="none" stroke-width="1.000000" stroke="black" id="id0000000163" class="line" />
<text id="id0000000164" transform="matrix(1 0 0 1 82.06 314.08)" x="227.000000" y="246.000000" dominant-baseline="hanging" text-anchor="middle" font-size="14.000000px" >
10<tspan dy="-7" font-size=".7em">1</tspan>
</text>

<polyline points="79.06,547.992 82.06,547.992 " fill="none" stroke-width="1.000000" stroke="black" id="id0000000165" class="line" />
<text id="id0000000166" transform="matrix(1 0 0 1 82.06 314.08)" x="-5.000000" y="233.911758" dominant-baseline="middle" text-anchor="end" font-size="14.000000px" >
0.1
</text>

<polyline points="79.06,522.506 82.06,522.506 " fill="none" stroke-width="1.000000" stroke="black" id="id0000000167" class="line" />
<text id="id0000000168" transform="matrix(1 0 0 1 82.06 314.08)" x="-5.000000" y="208.425949" dominant-baseline="middle" text-anchor="end" font-size="14.000000px" >
0.2
</text>

<polyline points="79.06,497.02 82.06,497.02 " fill="none" stroke-width="1.000000" stroke="black" id="id0000000169" class="line" />
<text id="id0000000170" transform="matrix(1 0 0 1 82.06 314.08)" x="-5.000000" y="182.940140" dominant-baseline="middle" text-anchor="end" font-size="14.000000px" >
0.3
</text>

<polyline points="79.06,471.534 82.06,471.534 " fill="none" stroke-width="1.000000" stroke="black" id="id0000000171" class="line" />
<text id="id0000000172" transform="matrix(1 0 0 1 82.06 314.08)" x="-5.000000" y="157.454330" dominant-baseline="middle" text-anchor="end" font-size="14.000000px" >
0.4
</text>

<polyline points="79.06,446.049 82.06,446.049 " fill="none" stroke-width="1.000000" stroke="black" id="id0000000173" class="line" />
<text id="id0000000174" transform="matrix(1 0 0 1 82.06 314.08)" x="-5.000000" y="131.968521" dominant-baseline="middle" text-anchor="end" font-size="14.000000px" >
0.5
</text>

<polyline points="79.06,420.563 82.06,420.563 " fill="none" stroke-width="1.000000" stroke="black" id="id0000000175" class="line" />
<text id="id0000000176" transform="matrix(1 0 0 1 82.06 314.08)" x="-5.000000" y="106.482712" dominant-baseline="middle" text-anchor="end" font-size="14.000000px" >
0.6
</text>

<polyline points="79.06,395.077 82.06,395.077 " fill="none" stroke-width="1.000000" stroke="black" id="id0000000177" class="line" />
<text id="id0000000178" transform="matrix(1 0 0 1 82.06 314.08)" x="-5.000000" y="80.996902" dominant-baseline="middle" text-anchor="end" font-size="14.000000px" >
0.7
</text>

<polyline points="79.06,369.591 82.06,369.591 " fill="none" stroke-width="1.000000" stroke="black" id="id0000000179" class="line" />
<text id="id0000000180" transform="matrix(1 0 0 1 82.06 314.08)" x="-5.000000" y="55.511078" dominant-baseline="middle" text-anchor="end" font-size="14.000000px" >
0.8
</text>

<polyline points="79.06,344.105 82.06,344.105 " fill="none" stroke-width="1.000000" stroke="black" id="id0000000181" class="line" />
<text id="id0000000182" transform="matrix(1 0 0 1 82.06 314.08)" x="-5.000000" y="30.025269" dominant-baseline="middle" text-anchor="end" font-size="14.000000px" >
0.9
</text>

<polyline points="79.06,318.619 82.06,318.619 " fill="none" stroke-width="1.000000" stroke="black" id="id0000000183" class="line" />
<text id="id0000000184" transform="matrix(1 0 0 1 82.06 314.08)" x="-5.000000" y="4.539444" dominant-baseline="middle" text-anchor="end" font-size="14.000000px" >
1
</text>

<text id="id0000000185" transform="matrix(1 0 0 1 82.06 314.08)" x="113.500000" y="269.000000" text-anchor="middle" font-size="18.000000px" >
log
</text>

<g id="id0000000021" >
<text id="id0000000186" transform="matrix(-4.37114e-08 -1 1 -4.37114e-08 54.06 434.58)" x="0.000000" y="0.000000" text-anchor="middle" font-size="18.000000px" >
linear
</text>

</g>

</g>

</g>

<g id="id0000000022" >
<g id="id0000000023" >
<clipPath id="id0000000023clipper" >
<polygon points="385.08,314.08 385.08,555.08 612.08,555.08 612.08,314.08 " id="id0000000187" class="rectangle" />
</clipPath>

<g clip-path="url(#id0000000023clipper)" id="id0000000025" >
<polyline id="id0000000188" points="460.747,474.747 463.879,471.421 466.738,468.386 469.368,465.593 471.804,463.008 474.071,460.601 476.192,458.349 478.184,456.234 480.062,454.24 481.839,452.353 483.525,450.564 485.128,448.862 486.657,447.239 488.117,445.688 489.516,444.203 490.857,442.779 492.146,441.41 493.387,440.094 494.582,438.825 495.735,437.601 496.849,436.418 497.926,435.274 498.97,434.166 499.981,433.093 500.962,432.051 501.914,431.04 502.84,430.057 503.741,429.101 504.617,428.171 505.471,427.264 506.303,426.381 507.114,425.52 507.906,424.679 508.679,423.858 509.435,423.056 510.173,422.272 510.895,421.505 511.602,420.755 512.294,420.02 512.971,419.301 513.635,418.596 514.286,417.905 514.924,417.228 515.55,416.563 516.164,415.911 516.767,415.271 517.36,414.642 517.941,414.025 518.513,413.418 519.074,412.822 519.627,412.235 520.17,411.659 520.704,411.091 521.23,410.533 521.748,409.984 522.257,409.443 522.759,408.91 523.253,408.385 523.74,407.868 524.22,407.359 524.692,406.857 525.159,406.362 525.618,405.874 526.071,405.393 526.518,404.918 526.96,404.45 527.395,403.988 527.824,403.532 528.248,403.082 528.667,402.637 529.08,402.198 529.489,401.765 529.892,401.337 530.29,400.914 530.684,400.496 531.073,400.083 531.457,399.675 531.837,399.272 532.213,398.873 532.584,398.479 532.951,398.089 533.314,397.704 533.673,397.322 534.029,396.945 534.38,396.572 534.728,396.203 535.072,395.838 535.412,395.476 535.749,395.118 536.083,394.764 " fill="none" stroke-opacity="1.000000" stroke-linecap="round" stroke="#1f77b4" stroke-width="1.000000" />
</g>

<polygon points="385.08,314.08 385.08,555.08 612.08,555.08 612.08,314.08 " stroke="black" stroke-width="1.000000" fill="none" id="id0000000189" pointer-events="none" class="rectangle" />
<polyline points="385.08,555.08 385.08,558.08 " fill="none" stroke-width="1.000000" stroke="black" id="id0000000190" class="line" />
<text id="id0000000191" transform="matrix(1 0 0 1 385.08 314.08)" x="0.000000" y="246.000000" dominant-baseline="hanging" text-anchor="middle" font-size="14.000000px" >
10<tspan dy="-7" font-size=".7em">-2</tspan>
</text>

<polyline points="460.747,555.08 460.747,558.08 " fill="none" stroke-width="1.000000" stroke="black" id="id0000000192" class="line" />
<text id="id0000000193" transform="matrix(1 0 0 1 385.08 314.08)" x="75.666664" y="246.000000" dominant-baseline="hanging" text-anchor="middle" font-size="14.000000px" >
10<tspan dy="-7" font-size=".7em">-1</tspan>
</text>

<polyline points="536.413,555.08 536.413,558.08 " fill="none" stroke-width="1.000000" stroke="black" id="id0000000194" class="line" />
<text id="id0000000195" transform="matrix(1 0 0 1 385.08 314.08)" x="151.333328" y="246.000000" dominant-baseline="hanging" text-anchor="middle" font-size="14.000000px" >
10<tspan dy="-7" font-size=".7em">0</tspan>
</text>

<polyline points="612.08,555.08 612.08,558.08 " fill="none" stroke-width="1.000000" stroke="black" id="id0000000196" class="line" />
<text id="id0000000197" transform="matrix(1 0 0 1 385.08 314.08)" x="227.000000" y="246.000000" dominant-baseline="hanging" text-anchor="middle" font-size="14.000000px" >
10<tspan dy="-7" font-size=".7em">1</tspan>
</text>

<polyline points="382.08,555.08 385.08,555.08 " fill="none" stroke-width="1.000000" stroke="black" id="id0000000198" class="line" />
<text id="id0000000199" transform="matrix(1 0 0 1 385.08 314.08)" x="-5.000000" y="241.000000" dominant-baseline="middle" text-anchor="end" font-size="14.000000px" >
10<tspan dy="-7" font-size=".7em">-2</tspan>
</text>

<polyline points="382.08,474.747 385.08,474.747 " fill="none" stroke-width="1.000000" stroke="black" id="id0000000200" class="line" />
<text id="id0000000201" transform="matrix(1 0 0 1 385.08 314.08)" x="-5.000000" y="160.666656" dominant-baseline="middle" text-anchor="end" font-size="14.000000px" >
10<tspan dy="-7" font-size=".7em">-1</tspan>
</text>

<polyline points="382.08,394.413 385.08,394.413 " fill="none" stroke-width="1.000000" stroke="black" id="id0000000202" class="line" />
<text id="id0000000203" transform="matrix(1 0 0 1 385.08 314.08)" x="-5.000000" y="80.333328" dominant-baseline="middle" text-anchor="end" font-size="14.000000px" >
10<tspan dy="-7" font-size=".7em">0</tspan>
</text>

<polyline points="382.08,314.08 385.08,314.08 " fill="none" stroke-width="1.000000" stroke="black" id="id0000000204" class="line" />
<text id="id0000000205" transform="matrix(1 0 0 1 385.08 314.08)" x="-5.000000" y="0.000000" dominant-baseline="middle" text-anchor="end" font-size="14.000000px" >
10<tspan dy="-7" font-size=".7em">1</tspan>
</text>

<text id="id0000000206" transform="matrix(1 0 0 1 385.08 314.08)" x="113.500000" y="269.000000" text-anchor="middle" font-size="18.000000px" >
log
</text>

<g id="id0000000026" >
<text id="id0000000207" transform="matrix(-4.37114e-08 -1 1 -4.37114e-08 357.08 434.58)" x="0.000000" y="0.000000" text-anchor="middle" font-size="18.000000px" >
log
</text>

</g>

</g>

</g>

<g id="id0000000027" >
<g id="id0000000028" >
<clipPath id="id0000000028clipper" >
<polygon points="688.1,314.08 688.1,555.08 915.1,555.08 915.1,314.08 " id="id0000000208" class="rectangle" />
</clipPath>

<g clip-path="url(#id0000000028clipper)" id="id0000000030" >
<polyline id="id0000000209" points="763.767,474.747 766.899,471.421 769.758,468.386 772.388,465.593 774.824,463.008 777.091,460.601 779.212,458.349 781.204,456.234 783.082,454.24 784.859,452.353 786.545,450.564 788.148,448.862 789.677,447.239 791.137,445.688 792.536,444.203 793.877,442.779 795.166,441.41 796.406,440.094 797.602,438.825 798.755,437.601 799.869,436.418 800.946,435.274 801.99,434.166 803.001,433.093 803.982,432.051 804.934,431.04 805.86,430.057 806.761,429.101 807.637,428.171 808.49,427.264 809.323,426.381 810.134,425.52 810.926,424.679 811.699,423.858 812.455,423.056 813.193,422.272 813.915,421.505 814.622,420.755 815.314,420.02 815.991,419.301 816.655,418.596 817.306,417.905 817.944,417.228 818.57,416.563 819.184,415.911 819.787,415.271 820.38,414.642 820.961,414.025 821.533,413.418 822.094,412.822 822.647,412.235 823.19,411.659 823.724,411.091 824.25,410.533 824.768,409.984 825.277,409.443 825.779,408.91 826.273,408.385 826.76,407.868 827.24,407.359 827.712,406.857 828.178,406.362 828.638,405.874 829.091,405.393 829.538,404.918 829.98,404.45 830.415,403.988 830.844,403.532 831.268,403.082 831.687,402.637 832.1,402.198 832.509,401.765 832.912,401.337 833.31,400.914 833.704,400.496 834.093,400.083 834.477,399.675 834.857,399.272 835.232,398.873 835.604,398.479 835.971,398.089 836.334,397.704 836.693,397.322 837.048,396.945 837.4,396.572 837.748,396.203 838.092,395.838 838.432,395.476 838.769,395.118 839.103,394.764 " fill="none" stroke-opacity="1.000000" stroke-linecap="round" stroke="#1f77b4" stroke-width="1.000000" />
</g>

<polygon points="688.1,314.08 688.1,555.08 915.1,555.08 915.1,314.08 " stroke="black" stroke-width="1.000000" fill="none" id="id0000000210" pointer-events="none" class="rectangle" />
<polyline points="688.1,555.08 688.1,558.08 " fill="none" stroke-width="1.000000" stroke="black" id="id0000000211" class="line" />
<text id="id0000000212" transform="matrix(1 0 0 1 688.1 314.08)" x="0.000000" y="246.000000" dominant-baseline="hanging" text-anchor="middle" font-size="14.000000px" >
10<tspan dy="-7" font-size=".7em">-2</tspan>
</text>

<polyline points="763.767,555.08 763.767,558.08 " fill="none" stroke-width="1.000000" stroke="black" id="id0000000213" class="line" />
<text id="id0000000214" transform="matrix(1 0 0 1 688.1 314.08)" x="75.666664" y="246.000000" dominant-baseline="hanging" text-anchor="middle" font-size="14.000000px" >
10<tspan dy="-7" font-size=".7em">-1</tspan>
</text>

<polyline points="839.433,555.08 839.433,558.08 " fill="none" stroke-width="1.000000" stroke="black" id="id0000000215" class="line" />
<text id="id0000000216" transform="matrix(1 0 0 1 688.1 314.08)" x="151.333328" y="246.000000" dominant-baseline="hanging" text-anchor="middle" font-size="14.000000px" >
10<tspan dy="-7" font-size=".7em">0</tspan>
</text>

<polyline points="915.1,555.08 915.1,558.08 " fill="none" stroke-width="1.000000" stroke="black" id="id0000000217" class="line" />
<text id="id0000000218" transform="matrix(1 0 0 1 688.1 314.08)" x="227.000000" y="246.000000" dominant-baseline="hanging" text-anchor="middle" font-size="14.000000px" >
10<tspan dy="-7" font-size=".7em">1</tspan>
</text>

<polyline points="685.1,555.08 688.1,555.08 " fill="none" stroke-width="1.000000" stroke="black" id="id0000000219" class="line" />
<text id="id0000000220" transform="matrix(1 0 0 1 688.1 314.08)" x="-5.000000" y="241.000000" dominant-baseline="middle" text-anchor="end" font-size="14.000000px" >
10<tspan dy="-7" font-size=".7em">-2</tspan>
</text>

<polyline points="685.1,314.08 688.1,314.08 " fill="none" stroke-width="1.000000" stroke="black" id="id0000000221" class="line" />
<text id="id0000000222" transform="matrix(1 0 0 1 688.1 314.08)" x="-5.000000" y="0.000000" dominant-baseline="middle" text-anchor="end" font-size="14.000000px" >
10<tspan dy="-7" font-size=".7em">1</tspan>
</text>

<text id="id0000000223" transform="matrix(1 0 0 1 688.1 314.08)" x="113.500000" y="269.000000" text-anchor="middle" font-size="18.000000px" >
log
</text>

<g id="id0000000031" >
<text id="id0000000224" transform="matrix(-4.37114e-08 -1 1 -4.37114e-08 660.1 434.58)" x="0.000000" y="0.000000" text-anchor="middle" font-size="18.000000px" >
symlog
</text>

</g>

</g>

</g>

<g id="id0000000032" >
<g id="id0000000033" >
<clipPath id="id0000000033clipper" >
<polygon points="82.06,617.1 82.06,858.1 309.06,858.1 309.06,617.1 " id="id0000000225" class="rectangle" />
</clipPath>

<g clip-path="url(#id0000000033clipper)" id="id0000000035" >
<polyline id="id0000000226" points="157.727,851.012 160.859,848.463 163.718,845.915 166.348,843.366 168.784,840.817 171.051,838.269 173.172,835.72 175.164,833.172 177.042,830.623 178.819,828.075 180.505,825.526 182.108,822.977 183.637,820.429 185.097,817.88 186.496,815.332 187.837,812.783 189.126,810.234 190.367,807.686 191.562,805.137 192.715,802.589 193.829,800.04 194.906,797.492 195.95,794.943 196.961,792.394 197.942,789.846 198.894,787.297 199.82,784.749 200.721,782.2 201.597,779.651 202.451,777.103 203.283,774.554 204.094,772.006 204.886,769.457 205.659,766.909 206.415,764.36 207.153,761.811 207.875,759.263 208.582,756.714 209.274,754.166 209.951,751.617 210.615,749.069 211.266,746.52 211.904,743.971 212.53,741.423 213.144,738.874 213.747,736.326 214.34,733.777 214.921,731.229 215.493,728.68 216.054,726.131 216.607,723.583 217.15,721.034 217.684,718.486 218.21,715.937 218.728,713.388 219.237,710.84 219.739,708.291 220.233,705.743 220.72,703.194 221.2,700.646 221.672,698.097 222.139,695.548 222.598,693 223.051,690.451 223.499,687.903 223.94,685.354 224.375,682.806 224.804,680.257 225.228,677.708 225.647,675.16 226.06,672.611 226.469,670.063 226.872,667.514 227.27,664.965 227.664,662.417 228.053,659.868 228.437,657.32 228.817,654.771 229.192,652.223 229.564,649.674 229.931,647.125 230.294,644.577 230.653,642.028 231.009,639.48 231.36,636.931 231.708,634.383 232.052,631.834 232.392,629.285 232.729,626.737 233.063,624.188 " fill="none" stroke-opacity="1.000000" stroke-linecap="round" stroke="#1f77b4" stroke-width="1.000000" />
</g>

<polygon points="82.06,617.1 82.06,858.1 309.06,858.1 309.06,617.1 " stroke="black" stroke-width="1.000000" fill="none" id="id0000000227" pointer-events="none" class="rectangle" />
<polyline points="82.06,858.1 82.06,861.1 " fill="none" stroke-width="1.000000" stroke="black" id="id0000000228" class="line" />
<text id="id0000000229" transform="matrix(1 0 0 1 82.06 617.1)" x="0.000000" y="246.000000" dominant-baseline="hanging" text-anchor="middle" font-size="14.000000px" >
10<tspan dy="-7" font-size=".7em">-2</tspan>
</text>

<polyline points="309.06,858.1 309.06,861.1 " fill="none" stroke-width="1.000000" stroke="black" id="id0000000230" class="line" />
<text id="id0000000231" transform="matrix(1 0 0 1 82.06 617.1)" x="227.000000" y="246.000000" dominant-baseline="hanging" text-anchor="middle" font-size="14.000000px" >
10<tspan dy="-7" font-size=".7em">1</tspan>
</text>

<polyline points="79.06,851.012 82.06,851.012 " fill="none" stroke-width="1.000000" stroke="black" id="id0000000232" class="line" />
<text id="id0000000233" transform="matrix(1 0 0 1 82.06 617.1)" x="-5.000000" y="233.911758" dominant-baseline="middle" text-anchor="end" font-size="14.000000px" >
0.1
</text>

<polyline points="79.06,825.526 82.06,825.526 " fill="none" stroke-width="1.000000" stroke="black" id="id0000000234" class="line" />
<text id="id0000000235" transform="matrix(1 0 0 1 82.06 617.1)" x="-5.000000" y="208.425949" dominant-baseline="middle" text-anchor="end" font-size="14.000000px" >
0.2
</text>

<polyline points="79.06,800.04 82.06,800.04 " fill="none" stroke-width="1.000000" stroke="black" id="id0000000236" class="line" />
<text id="id0000000237" transform="matrix(1 0 0 1 82.06 617.1)" x="-5.000000" y="182.940140" dominant-baseline="middle" text-anchor="end" font-size="14.000000px" >
0.3
</text>

<polyline points="79.06,774.554 82.06,774.554 " fill="none" stroke-width="1.000000" stroke="black" id="id0000000238" class="line" />
<text id="id0000000239" transform="matrix(1 0 0 1 82.06 617.1)" x="-5.000000" y="157.454330" dominant-baseline="middle" text-anchor="end" font-size="14.000000px" >
0.4
</text>

<polyline points="79.06,749.068 82.06,749.068 " fill="none" stroke-width="1.000000" stroke="black" id="id0000000240" class="line" />
<text id="id0000000241" transform="matrix(1 0 0 1 82.06 617.1)" x="-5.000000" y="131.968521" dominant-baseline="middle" text-anchor="end" font-size="14.000000px" >
0.5
</text>

<polyline points="79.06,723.583 82.06,723.583 " fill="none" stroke-width="1.000000" stroke="black" id="id0000000242" class="line" />
<text id="id0000000243" transform="matrix(1 0 0 1 82.06 617.1)" x="-5.000000" y="106.482712" dominant-baseline="middle" text-anchor="end" font-size="14.000000px" >
0.6
</text>

<polyline points="79.06,698.097 82.06,698.097 " fill="none" stroke-width="1.000000" stroke="black" id="id0000000244" class="line" />
<text id="id0000000245" transform="matrix(1 0 0 1 82.06 617.1)" x="-5.000000" y="80.996902" dominant-baseline="middle" text-anchor="end" font-size="14.000000px" >
0.7
</text>

<polyline points="79.06,672.611 82.06,672.611 " fill="none" stroke-width="1.000000" stroke="black" id="id0000000246" class="line" />
<text id="id0000000247" transform="matrix(1 0 0 1 82.06 617.1)" x="-5.000000" y="55.511078" dominant-baseline="middle" text-anchor="end" font-size="14.000000px" >
0.8
</text>

<polyline points="79.06,647.125 82.06,647.125 " fill="none" stroke-width="1.000000" stroke="black" id="id0000000248" class="line" />
<text id="id0000000249" transform="matrix(1 0 0 1 82.06 617.1)" x="-5.000000" y="30.025269" dominant-baseline="middle" text-anchor="end" font-size="14.000000px" >
0.9
</text>

<polyline points="79.06,621.639 82.06,621.639 " fill="none" stroke-width="1.000000" stroke="black" id="id0000000250" class="line" />
<text id="id0000000251" transform="matrix(1 0 0 1 82.06 617.1)" x="-5.000000" y="4.539444" dominant-baseline="middle" text-anchor="end" font-size="14.000000px" >
1
</text>

<text id="id0000000252" transform="matrix(1 0 0 1 82.06 617.1)" x="113.500000" y="269.000000" text-anchor="middle" font-size="18.000000px" >
symlog
</text>

<g id="id0000000036" >
<text id="id0000000253" transform="matrix(-4.37114e-08 -1 1 -4.37114e-08 54.06 737.6)" x="0.000000" y="0.000000" text-anchor="middle" font-size="18.000000px" >
linear
</text>

</g>

</g>

</g>

<g id="id0000000037" >
<g id="id0000000038" >
<clipPath id="id0000000038clipper" >
<polygon points="385.08,617.1 385.08,858.1 612.08,858.1 612.08,617.1 " id="id0000000254" class="rectangle" />
</clipPath>

<g clip-path="url(#id0000000038clipper)" id="id0000000040" >
<polyline id="id0000000255" points="460.747,777.767 463.879,774.441 466.738,771.406 469.368,768.613 471.804,766.028 474.071,763.621 476.192,761.369 478.184,759.254 480.062,757.26 481.839,755.373 483.525,753.584 485.128,751.882 486.657,750.259 488.117,748.708 489.516,747.223 490.857,745.799 492.146,744.43 493.387,743.114 494.582,741.845 495.735,740.621 496.849,739.438 497.926,738.294 498.97,737.186 499.981,736.113 500.962,735.071 501.914,734.06 502.84,733.077 503.741,732.121 504.617,731.191 505.471,730.284 506.303,729.401 507.114,728.54 507.906,727.699 508.679,726.878 509.435,726.076 510.173,725.292 510.895,724.525 511.602,723.775 512.294,723.04 512.971,722.321 513.635,721.616 514.286,720.925 514.924,720.248 515.55,719.583 516.164,718.931 516.767,718.291 517.359,717.662 517.941,717.045 518.513,716.438 519.074,715.842 519.627,715.255 520.17,714.678 520.704,714.111 521.23,713.553 521.748,713.004 522.257,712.463 522.759,711.93 523.253,711.405 523.74,710.888 524.22,710.379 524.692,709.877 525.159,709.382 525.618,708.894 526.071,708.413 526.519,707.938 526.96,707.47 527.395,707.008 527.824,706.552 528.248,706.102 528.667,705.657 529.08,705.218 529.489,704.785 529.892,704.357 530.29,703.934 530.684,703.516 531.073,703.103 531.457,702.695 531.837,702.292 532.212,701.893 532.584,701.499 532.951,701.109 533.314,700.724 533.673,700.342 534.029,699.965 534.38,699.592 534.728,699.223 535.072,698.858 535.412,698.496 535.749,698.138 536.083,697.784 " fill="none" stroke-opacity="1.000000" stroke-linecap="round" stroke="#1f77b4" stroke-width="1.000000" />
</g>

<polygon points="385.08,617.1 385.08,858.1 612.08,858.1 612.08,617.1 " stroke="black" stroke-width="1.000000" fill="none" id="id0000000256" pointer-events="none" class="rectangle" />
<polyline points="385.08,858.1 385.08,861.1 " fill="none" stroke-width="1.000000" stroke="black" id="id0000000257" class="line" />
<text id="id0000000258" transform="matrix(1 0 0 1 385.08 617.1)" x="0.000000" y="246.000000" dominant-baseline="hanging" text-anchor="middle" font-size="14.000000px" >
10<tspan dy="-7" font-size=".7em">-2</tspan>
</text>

<polyline points="612.08,858.1 612.08,861.1 " fill="none" stroke-width="1.000000" stroke="black" id="id0000000259" class="line" />
<text id="id0000000260" transform="matrix(1 0 0 1 385.08 617.1)" x="227.000000" y="246.000000" dominant-baseline="hanging" text-anchor="middle" font-size="14.000000px" >
10<tspan dy="-7" font-size=".7em">1</tspan>
</text>

<polyline points="382.08,858.1 385.08,858.1 " fill="none" stroke-width="1.000000" stroke="black" id="id0000000261" class="line" />
<text id="id0000000262" transform="matrix(1 0 0 1 385.08 617.1)" x="-5.000000" y="241.000000" dominant-baseline="middle" text-anchor="end" font-size="14.000000px" >
10<tspan dy="-7" font-size=".7em">-2</tspan>
</text>

<polyline points="382.08,777.767 385.08,777.767 " fill="none" stroke-width="1.000000" stroke="black" id="id0000000263" class="line" />
<text id="id0000000264" transform="matrix(1 0 0 1 385.08 617.1)" x="-5.000000" y="160.666656" dominant-baseline="middle" text-anchor="end" font-size="14.000000px" >
10<tspan dy="-7" font-size=".7em">-1</tspan>
</text>

<polyline points="382.08,697.433 385.08,697.433 " fill="none" stroke-width="1.000000" stroke="black" id="id0000000265" class="line" />
<text id="id0000000266" transform="matrix(1 0 0 1 385.08 617.1)" x="-5.000000" y="80.333328" dominant-baseline="middle" text-anchor="end" font-size="14.000000px" >
10<tspan dy="-7" font-size=".7em">0</tspan>
</text>

<polyline points="382.08,617.1 385.08,617.1 " fill="none" stroke-width="1.000000" stroke="black" id="id0000000267" class="line" />
<text id="id0000000268" transform="matrix(1 0 0 1 385.08 617.1)" x="-5.000000" y="0.000000" dominant-baseline="middle" text-anchor="end" font-size="14.000000px" >
10<tspan dy="-7" font-size=".7em">1</tspan>
</text>

<text id="id0000000269" transform="matrix(1 0 0 1 385.08 617.1)" x="113.500000" y="269.000000" text-anchor="middle" font-size="18.000000px" >
symlog
</text>

<g id="id0000000041" >
<text id="id0000000270" transform="matrix(-4.37114e-08 -1 1 -4.37114e-08 357.08 737.6)" x="0.000000" y="0.000000" text-anchor="middle" font-size="18.000000px" >
log
</text>

</g>

</g>

</g>

<g id="id0000000042" >
<g id="id0000000043" >
<clipPath id="id0000000043clipper" >
<polygon points="688.1,617.1 688.1,858.1 915.1,858.1 915.1,617.1 " id="id0000000271" class="rectangle" />
</clipPath>

<g clip-path="url(#id0000000043clipper)" id="id0000000045" >
<polyline id="id0000000272" points="763.767,777.767 766.899,774.441 769.758,771.406 772.388,768.613 774.824,766.028 777.091,763.621 779.212,761.369 781.204,759.254 783.082,757.26 784.859,755.373 786.545,753.584 788.148,751.882 789.677,750.259 791.137,748.708 792.536,747.223 793.877,745.799 795.166,744.43 796.406,743.114 797.602,741.845 798.755,740.621 799.869,739.438 800.946,738.294 801.99,737.186 803.001,736.113 803.982,735.071 804.934,734.06 805.86,733.077 806.76,732.121 807.637,731.191 808.49,730.284 809.323,729.401 810.134,728.54 810.926,727.699 811.699,726.878 812.455,726.076 813.193,725.292 813.915,724.525 814.622,723.775 815.314,723.04 815.991,722.321 816.655,721.616 817.306,720.925 817.944,720.248 818.57,719.583 819.184,718.931 819.787,718.291 820.38,717.662 820.961,717.045 821.533,716.438 822.094,715.842 822.647,715.255 823.19,714.679 823.724,714.111 824.25,713.553 824.768,713.004 825.277,712.463 825.779,711.93 826.273,711.405 826.76,710.888 827.24,710.379 827.712,709.877 828.178,709.382 828.638,708.894 829.091,708.413 829.538,707.938 829.98,707.47 830.415,707.008 830.844,706.552 831.268,706.102 831.687,705.657 832.1,705.218 832.509,704.785 832.912,704.357 833.31,703.934 833.704,703.516 834.093,703.103 834.477,702.695 834.857,702.292 835.232,701.893 835.604,701.499 835.971,701.109 836.334,700.724 836.693,700.342 837.048,699.965 837.4,699.592 837.748,699.223 838.092,698.858 838.432,698.496 838.769,698.138 839.103,697.784 " fill="none" stroke-opacity="1.000000" stroke-linecap="round" stroke="#1f77b4" stroke-width="1.000000" />
</g>

<polygon points="688.1,617.1 688.1,858.1 915.1,858.1 915.1,617.1 " stroke="black" stroke-width="1.000000" fill="none" id="id0000000273" pointer-events="none" class="rectangle" />
<polyline points="688.1,858.1 688.1,861.1 " fill="none" stroke-width="1.000000" stroke="black" id="id0000000274" class="line" />
<text id="id0000000275" transform="matrix(1 0 0 1 688.1 617.1)" x="0.000000" y="246.000000" dominant-baseline="hanging" text-anchor="middle" font-size="14.000000px" >
10<tspan dy="-7" font-size=".7em">-2</tspan>
</text>

<polyline points="915.1,858.1 915.1,861.1 " fill="none" stroke-width="1.000000" stroke="black" id="id0000000276" class="line" />
<text id="id0000000277" transform="matrix(1 0 0 1 688.1 617.1)" x="227.000000" y="246.000000" dominant-baseline="hanging" text-anchor="middle" font-size="14.000000px" >
10<tspan dy="-7" font-size=".7em">1</tspan>
</text>

<polyline points="685.1,858.1 688.1,858.1 " fill="none" stroke-width="1.000000" stroke="black" id="id0000000278" class="line" />
<text id="id0000000279" transform="matrix(1 0 0 1 688.1 617.1)" x="-5.000000" y="241.000000" dominant-baseline="middle" text-anchor="end" font-size="14.000000px" >
10<tspan dy="-7" font-size=".7em">-2</tspan>
</text>

<polyline points="685.1,617.1 688.1,617.1 " fill="none" stroke-width="1.000000" stroke="black" id="id0000000280" class="line" />
<text id="id0000000281" transform="matrix(1 0 0 1 688.1 617.1)" x="-5.000000" y="0.000000" dominant-baseline="middle" text-anchor="end" font-size="14.000000px" >
10<tspan dy="-7" font-size=".7em">1</tspan>
</text>

<text id="id0000000282" transform="matrix(1 0 0 1 688.1 617.1)" x="113.500000" y="269.000000" text-anchor="middle" font-size="18.000000px" >
symlog
</text>

<g id="id0000000046" >
<text id="id0000000283" transform="matrix(-4.37114e-08 -1 1 -4.37114e-08 660.1 737.6)" x="0.000000" y="0.000000" text-anchor="middle" font-size="18.000000px" >
symlog
</text>

</g>

</g>

</g>


</g>

</svg>
