<svg viewBox="-0.1 -0.1 100.2 100.2" height="100%" xmlns="http://www.w3.org/2000/svg" width="100%" >
   <g id="graph-2d" >
   <style type="text/css" >
/* <![CDATA[ */
.plot1 {
stroke-width: 1.000000; stroke: yellow; stroke-linecap: round; fill: none; 
}
.axis {
stroke-width: 1.000000; stroke: black; stroke-linecap: round; fill: none; 
}
/* ]]> */


</style>

   <path class="plot1" d="M 0 50.0001 C 0.3367 54.2305 0.673401 58.4715 1.0101 62.6594 C 1.3468 66.8472 1.6835 71.037 2.0202 75.1149 C 2.3569 79.1928 2.6936 83.264 3.03031 87.1664 C 3.36701 91.0688 3.70371 94.9557 4.04041 98.6198 C 4.08247 99.0776 4.12454 99.5459 4.16661 99.9994 " fill="none" />
   <path class="plot1" d="M 20.8333 99.9998 C 21.5488 92.0315 21.8855 88.2 22.2222 84.2018 C 22.5589 80.2035 22.8956 76.172 23.2323 72.0308 C 23.569 67.8895 23.9057 63.723 24.2424 59.5053 C 24.5791 55.2877 24.9158 51.0531 25.2525 46.8269 C 25.5892 42.6008 25.9259 38.3662 26.2626 34.1996 C 26.5993 30.0329 26.936 25.8666 27.2727 21.8265 C 27.6094 17.7863 27.9461 13.7553 28.2828 9.90667 C 28.5774 6.5394 28.872 3.1765 29.1666 0.000408292 " fill="none" />
   <path class="plot1" d="M 45.8334 0.000226498 C 46.8014 10.8693 47.1381 14.7568 47.4748 18.7969 C 47.8115 22.837 48.1482 26.9085 48.4849 31.0751 C 48.8216 35.2418 49.1583 39.4317 49.495 43.6579 C 49.8317 47.884 50.1684 52.125 50.5051 56.3426 C 50.8418 60.5602 51.1785 64.7841 51.5152 68.9254 C 51.8519 73.0666 52.1886 77.2053 52.5253 81.2036 C 52.862 85.2018 53.1987 89.1888 53.5354 92.9797 C 53.7458 95.3488 53.9562 97.7309 54.1666 99.9995 " fill="none" />
   <path class="plot1" d="M 70.8334 99.9998 C 72.0539 86.1905 72.3906 82.251 72.7273 78.173 C 73.064 74.0951 73.4007 69.9878 73.7374 65.7999 C 74.0741 61.6121 74.4108 57.403 74.7475 53.1726 C 75.0842 48.9422 75.4209 44.699 75.7576 40.4942 C 76.0943 36.2893 76.431 32.0804 76.7677 27.9687 C 77.1044 23.8571 77.4411 19.7501 77.7778 15.7978 C 78.1145 11.8455 78.4512 7.90649 78.7879 4.17713 C 78.9141 2.77884 79.0404 1.3615 79.1666 0.000435114 " fill="none" />
   <path class="plot1" d="M 95.8334 0.000271201 C 96.2963 5.10995 96.633 8.88178 96.9697 12.8341 C 97.3064 16.7863 97.6431 20.7739 97.9798 24.8855 C 98.3165 28.9972 98.6532 33.1363 98.9899 37.3411 C 99.3266 41.5458 99.6633 45.7697 100 49.9999 " fill="none" />
   <path class="axis" d="M 50 0 C 50 33.3333 50 66.6667 50 100 " fill="none" />
   <path class="axis" d="M 0 50 C 33.3333 50 66.6667 50 100 50 " fill="none" />

</g>


</svg>
