<svg viewBox="0 0 640 480" height="100%" width="100%" xmlns:xlink="http://www.w3.org/1999/xlink" xmlns="http://www.w3.org/2000/svg" id="id0000000101" >
<g id="id0000000102" >
<clipPath id="id0000000102clipper" >
<polygon points="36,1 36,458 639,458 639,1 " id="id0000000105" class="rectangle" />
</clipPath>

<g clip-path="url(#id0000000102clipper)" id="id0000000104" >
<polyline id="id0000000106" points="53.7353,144.327 59.4679,144.171 65.2005,143.703 70.9332,142.927 76.6658,141.845 82.3984,140.463 88.131,138.789 93.8636,136.83 99.5963,134.596 105.329,132.1 111.062,129.352 116.794,126.369 122.527,123.163 128.259,119.754 133.992,116.157 139.725,112.391 145.457,108.477 151.19,104.435 156.922,100.287 162.655,96.0547 168.388,91.7614 174.12,87.4309 179.853,83.0872 185.586,78.755 191.318,74.4592 197.051,70.2248 202.783,66.0772 208.516,62.0417 214.249,58.1435 219.981,54.4076 225.714,50.8589 231.446,47.5217 237.179,44.4199 242.912,41.577 248.644,39.0156 254.377,36.7577 260.11,34.8243 265.842,33.2355 271.575,32.0104 277.307,31.167 283.04,30.722 288.773,30.6909 294.505,31.0878 300.238,31.9253 305.97,33.2146 311.703,34.9655 317.436,37.1857 323.168,39.8818 328.901,43.0584 334.634,46.7183 340.366,50.8626 346.099,55.4907 351.831,60.6 357.564,66.1861 363.297,72.2427 369.029,78.7618 374.762,85.7333 380.494,93.1454 386.227,100.985 391.96,109.235 397.692,117.88 403.425,126.9 409.158,136.274 414.89,145.981 420.623,155.995 426.355,166.293 432.088,176.845 437.821,187.625 443.553,198.602 449.286,209.745 455.018,221.022 460.751,232.399 466.484,243.843 472.216,255.319 477.949,266.789 483.682,278.218 489.414,289.569 495.147,300.804 500.879,311.885 506.612,322.773 512.345,333.432 518.077,343.821 523.81,353.904 529.542,363.643 535.275,373 541.008,381.938 546.74,390.422 552.473,398.416 558.206,405.885 563.938,412.797 569.671,419.118 575.404,424.819 581.136,429.869 586.869,434.24 592.602,437.906 598.334,440.842 604.067,443.026 609.799,444.435 615.532,445.051 621.265,444.858 " fill="none" stroke-opacity="1.000000" stroke-linecap="round" stroke="#1f77b4" stroke-width="1.000000" />
<polyline id="id0000000107" points="53.7353,144.327 59.4679,130.358 65.2005,124.573 70.9332,120.133 76.6658,116.39 82.3984,113.093 88.131,110.111 93.8636,107.37 99.5963,104.818 105.329,102.422 111.062,100.155 116.794,97.999 122.527,95.939 128.259,93.9632 133.992,92.062 139.725,90.2276 145.457,88.4533 151.19,86.7338 156.922,85.064 162.655,83.4401 168.388,81.8584 174.12,80.3157 179.853,78.8094 185.586,77.3369 191.318,75.8961 197.051,74.485 202.783,73.1018 208.516,71.745 214.249,70.4132 219.981,69.1049 225.714,67.8189 231.446,66.5542 237.179,65.3098 242.912,64.0847 248.644,62.8779 254.377,61.6888 260.11,60.5166 265.842,59.3606 271.575,58.22 277.307,57.0944 283.04,55.9831 288.773,54.8856 294.505,53.8014 300.238,52.7301 305.97,51.6711 311.703,50.6242 317.436,49.5887 323.168,48.5645 328.901,47.5511 334.634,46.5482 340.366,45.5555 346.099,44.5727 351.831,43.5995 357.564,42.6356 363.297,41.6807 369.029,40.7346 374.762,39.7971 380.494,38.868 386.227,37.9469 391.96,37.0337 397.692,36.1283 403.425,35.2304 409.158,34.3398 414.89,33.4563 420.623,32.5799 426.355,31.7102 432.088,30.8473 437.821,29.9908 443.553,29.1407 449.286,28.2968 455.018,27.4591 460.751,26.6273 466.484,25.8013 472.216,24.981 477.949,24.1664 483.682,23.3572 489.414,22.5534 495.147,21.7549 500.879,20.9615 506.612,20.1732 512.345,19.3899 518.077,18.6115 523.81,17.8379 529.542,17.0689 535.275,16.3046 541.008,15.5448 546.74,14.7895 552.473,14.0385 558.206,13.2919 563.938,12.5495 569.671,11.8112 575.404,11.077 581.136,10.3469 586.869,9.62071 592.602,8.89842 598.334,8.17995 604.067,7.46527 609.799,6.75429 615.532,6.04697 621.265,5.34325 " fill="none" stroke-opacity="1.000000" stroke-linecap="round" stroke="#ff7f0e" stroke-width="1.000000" />
</g>

<polygon points="36,1 36,458 639,458 639,1 " stroke="black" stroke-width="1.000000" fill="none" id="id0000000108" pointer-events="none" class="rectangle" />
<polyline points="53.7353,458 53.7353,461 " fill="none" stroke-width="1.000000" stroke="black" id="id0000000109" class="line" />
<text id="id0000000110" transform="matrix(1 0 0 1 36 1)" x="17.735294" y="462.000000" dominant-baseline="hanging" text-anchor="middle" font-size="14.000000px" >
0
</text>

<polyline points="168.388,458 168.388,461 " fill="none" stroke-width="1.000000" stroke="black" id="id0000000111" class="line" />
<text id="id0000000112" transform="matrix(1 0 0 1 36 1)" x="132.387680" y="462.000000" dominant-baseline="hanging" text-anchor="middle" font-size="14.000000px" >
1
</text>

<polyline points="283.04,458 283.04,461 " fill="none" stroke-width="1.000000" stroke="black" id="id0000000113" class="line" />
<text id="id0000000114" transform="matrix(1 0 0 1 36 1)" x="247.040070" y="462.000000" dominant-baseline="hanging" text-anchor="middle" font-size="14.000000px" >
2
</text>

<polyline points="397.692,458 397.692,461 " fill="none" stroke-width="1.000000" stroke="black" id="id0000000115" class="line" />
<text id="id0000000116" transform="matrix(1 0 0 1 36 1)" x="361.692474" y="462.000000" dominant-baseline="hanging" text-anchor="middle" font-size="14.000000px" >
3
</text>

<polyline points="512.345,458 512.345,461 " fill="none" stroke-width="1.000000" stroke="black" id="id0000000117" class="line" />
<text id="id0000000118" transform="matrix(1 0 0 1 36 1)" x="476.344879" y="462.000000" dominant-baseline="hanging" text-anchor="middle" font-size="14.000000px" >
4
</text>

<polyline points="626.997,458 626.997,461 " fill="none" stroke-width="1.000000" stroke="black" id="id0000000119" class="line" />
<text id="id0000000120" transform="matrix(1 0 0 1 36 1)" x="590.997253" y="462.000000" dominant-baseline="hanging" text-anchor="middle" font-size="14.000000px" >
5
</text>

<polyline points="33,456.669 36,456.669 " fill="none" stroke-width="1.000000" stroke="black" id="id0000000121" class="line" />
<text id="id0000000122" transform="matrix(1 0 0 1 36 1)" x="-5.000000" y="455.669250" dominant-baseline="middle" text-anchor="end" font-size="14.000000px" >
-5
</text>

<polyline points="33,394.201 36,394.201 " fill="none" stroke-width="1.000000" stroke="black" id="id0000000123" class="line" />
<text id="id0000000124" transform="matrix(1 0 0 1 36 1)" x="-5.000000" y="393.200775" dominant-baseline="middle" text-anchor="end" font-size="14.000000px" >
-4
</text>

<polyline points="33,331.732 36,331.732 " fill="none" stroke-width="1.000000" stroke="black" id="id0000000125" class="line" />
<text id="id0000000126" transform="matrix(1 0 0 1 36 1)" x="-5.000000" y="330.732300" dominant-baseline="middle" text-anchor="end" font-size="14.000000px" >
-3
</text>

<polyline points="33,269.264 36,269.264 " fill="none" stroke-width="1.000000" stroke="black" id="id0000000127" class="line" />
<text id="id0000000128" transform="matrix(1 0 0 1 36 1)" x="-5.000000" y="268.263794" dominant-baseline="middle" text-anchor="end" font-size="14.000000px" >
-2
</text>

<polyline points="33,206.795 36,206.795 " fill="none" stroke-width="1.000000" stroke="black" id="id0000000129" class="line" />
<text id="id0000000130" transform="matrix(1 0 0 1 36 1)" x="-5.000000" y="205.795319" dominant-baseline="middle" text-anchor="end" font-size="14.000000px" >
-1
</text>

<polyline points="33,144.327 36,144.327 " fill="none" stroke-width="1.000000" stroke="black" id="id0000000131" class="line" />
<text id="id0000000132" transform="matrix(1 0 0 1 36 1)" x="-5.000000" y="143.326843" dominant-baseline="middle" text-anchor="end" font-size="14.000000px" >
0
</text>

<polyline points="33,81.8583 36,81.8583 " fill="none" stroke-width="1.000000" stroke="black" id="id0000000133" class="line" />
<text id="id0000000134" transform="matrix(1 0 0 1 36 1)" x="-5.000000" y="80.858337" dominant-baseline="middle" text-anchor="end" font-size="14.000000px" >
1
</text>

<polyline points="33,19.3899 36,19.3899 " fill="none" stroke-width="1.000000" stroke="black" id="id0000000135" class="line" />
<text id="id0000000136" transform="matrix(1 0 0 1 36 1)" x="-5.000000" y="18.389862" dominant-baseline="middle" text-anchor="end" font-size="14.000000px" >
2
</text>


</g>

</svg>
