<svg viewBox="0 0 640 480" height="100%" width="100%" xmlns:xlink="http://www.w3.org/1999/xlink" xmlns="http://www.w3.org/2000/svg" id="id0000000000" >
<g id="id0000000001" >
<clipPath id="id0000000001clipper" >
<polygon points="70,5 70,460 635,460 635,5 " id="id0000000005" class="rectangle" />
</clipPath>

<g clip-path="url(#id0000000001clipper)" id="id0000000003" >
<polyline id="id0000000006" points="86.6176,446.618 263.873,303.873 441.127,161.127 618.382,18.3823 " fill="none" stroke-opacity="1.000000" stroke-linecap="round" stroke="#1f77b4" stroke-width="1.000000" />
</g>

<polygon points="70,5 70,460 635,460 635,5 " stroke="black" stroke-width="1.000000" fill="none" id="id0000000007" pointer-events="none" class="rectangle" />
<polyline points="86.6176,460 86.6176,463 " fill="none" stroke-width="1.000000" stroke="black" id="id0000000008" class="line" />
<text id="id0000000009" transform="matrix(1 0 0 1 70 5)" x="16.617647" y="460.000000" dominant-baseline="hanging" text-anchor="middle" font-size="10.000000px" >
0
</text>

<polyline points="175.245,460 175.245,463 " fill="none" stroke-width="1.000000" stroke="black" id="id0000000010" class="line" />
<text id="id0000000011" transform="matrix(1 0 0 1 70 5)" x="105.245094" y="460.000000" dominant-baseline="hanging" text-anchor="middle" font-size="10.000000px" >
0.5
</text>

<polyline points="263.873,460 263.873,463 " fill="none" stroke-width="1.000000" stroke="black" id="id0000000012" class="line" />
<text id="id0000000013" transform="matrix(1 0 0 1 70 5)" x="193.872543" y="460.000000" dominant-baseline="hanging" text-anchor="middle" font-size="10.000000px" >
1
</text>

<polyline points="352.5,460 352.5,463 " fill="none" stroke-width="1.000000" stroke="black" id="id0000000014" class="line" />
<text id="id0000000015" transform="matrix(1 0 0 1 70 5)" x="282.500000" y="460.000000" dominant-baseline="hanging" text-anchor="middle" font-size="10.000000px" >
1.5
</text>

<polyline points="441.127,460 441.127,463 " fill="none" stroke-width="1.000000" stroke="black" id="id0000000016" class="line" />
<text id="id0000000017" transform="matrix(1 0 0 1 70 5)" x="371.127441" y="460.000000" dominant-baseline="hanging" text-anchor="middle" font-size="10.000000px" >
2
</text>

<polyline points="529.755,460 529.755,463 " fill="none" stroke-width="1.000000" stroke="black" id="id0000000018" class="line" />
<text id="id0000000019" transform="matrix(1 0 0 1 70 5)" x="459.754913" y="460.000000" dominant-baseline="hanging" text-anchor="middle" font-size="10.000000px" >
2.5
</text>

<polyline points="618.382,460 618.382,463 " fill="none" stroke-width="1.000000" stroke="black" id="id0000000020" class="line" />
<text id="id0000000021" transform="matrix(1 0 0 1 70 5)" x="548.382324" y="460.000000" dominant-baseline="hanging" text-anchor="middle" font-size="10.000000px" >
3
</text>

<polyline points="67,446.618 70,446.618 " fill="none" stroke-width="1.000000" stroke="black" id="id0000000022" class="line" />
<text id="id0000000023" transform="matrix(1 0 0 1 70 5)" x="-5.000000" y="441.617645" dominant-baseline="middle" text-anchor="end" font-size="10.000000px" >
1
</text>

<polyline points="67,375.245 70,375.245 " fill="none" stroke-width="1.000000" stroke="black" id="id0000000024" class="line" />
<text id="id0000000025" transform="matrix(1 0 0 1 70 5)" x="-5.000000" y="370.245087" dominant-baseline="middle" text-anchor="end" font-size="10.000000px" >
1.5
</text>

<polyline points="67,303.873 70,303.873 " fill="none" stroke-width="1.000000" stroke="black" id="id0000000026" class="line" />
<text id="id0000000027" transform="matrix(1 0 0 1 70 5)" x="-5.000000" y="298.872559" dominant-baseline="middle" text-anchor="end" font-size="10.000000px" >
2
</text>

<polyline points="67,232.5 70,232.5 " fill="none" stroke-width="1.000000" stroke="black" id="id0000000028" class="line" />
<text id="id0000000029" transform="matrix(1 0 0 1 70 5)" x="-5.000000" y="227.500000" dominant-baseline="middle" text-anchor="end" font-size="10.000000px" >
2.5
</text>

<polyline points="67,161.127 70,161.127 " fill="none" stroke-width="1.000000" stroke="black" id="id0000000030" class="line" />
<text id="id0000000031" transform="matrix(1 0 0 1 70 5)" x="-5.000000" y="156.127441" dominant-baseline="middle" text-anchor="end" font-size="10.000000px" >
3
</text>

<polyline points="67,89.7549 70,89.7549 " fill="none" stroke-width="1.000000" stroke="black" id="id0000000032" class="line" />
<text id="id0000000033" transform="matrix(1 0 0 1 70 5)" x="-5.000000" y="84.754913" dominant-baseline="middle" text-anchor="end" font-size="10.000000px" >
3.5
</text>

<polyline points="67,18.3824 70,18.3824 " fill="none" stroke-width="1.000000" stroke="black" id="id0000000034" class="line" />
<text id="id0000000035" transform="matrix(1 0 0 1 70 5)" x="-5.000000" y="13.382355" dominant-baseline="middle" text-anchor="end" font-size="10.000000px" >
4
</text>

<g id="id0000000004" >
<text id="id0000000036" transform="matrix(-4.37114e-08 -1 1 -4.37114e-08 44 232.5)" x="0.000000" y="0.000000" text-anchor="middle" font-size="14.000000px" >
some numbers
</text>

</g>


</g>

</svg>
