<svg viewBox="0 0 200 150" height="100%" width="100%" xmlns:xlink="http://www.w3.org/1999/xlink" xmlns="http://www.w3.org/2000/svg" id="id0000000070" >
<g id="id0000000071" >
<g id="id0000000072" >
<g clip-path="url(#id0000000072clipper)" style="pointer-events: all; " vector-effect="non-scaling-stroke" fill="none" class="area" id="id0000000073" >
<polyline id="id0000000075" points="34.8529,31.3624 36.4216,103.524 37.9902,31.0016 39.5588,103.887 41.1275,30.6372 42.6961,104.253 44.2647,30.2691 45.8333,104.623 47.402,29.8973 48.9706,104.997 50.5392,29.5218 52.1078,105.374 53.6765,29.1426 55.2451,105.755 56.8137,28.7595 58.3824,106.14 59.951,28.3726 61.5196,106.529 63.0882,27.9818 64.6569,106.922 66.2255,27.5871 67.7941,107.318 69.3627,27.1885 70.9314,107.719 72.5,26.7858 74.0686,108.124 75.6372,26.3791 77.2059,108.532 78.7745,25.9684 80.3431,108.945 81.9118,25.5535 83.4804,109.362 85.049,25.1344 86.6176,109.783 88.1862,24.7112 89.7549,110.209 91.3235,24.2837 92.8921,110.638 94.4608,23.8519 96.0294,111.072 97.598,23.4158 99.1666,111.51 100.735,22.9754 102.304,111.953 103.873,22.5305 105.441,112.4 107.01,22.0811 108.578,112.852 110.147,21.6273 111.716,113.308 113.284,21.1689 114.853,113.769 116.422,20.7059 117.99,114.234 119.559,20.2382 121.127,114.704 122.696,19.7659 124.265,115.179 125.833,19.2888 127.402,115.658 128.971,18.807 130.539,116.142 132.108,18.3203 133.676,116.631 135.245,17.8288 136.814,117.125 138.382,17.3323 139.951,117.624 141.52,16.8308 143.088,118.128 144.657,16.3243 146.225,118.637 147.794,15.8128 149.363,119.152 150.931,15.2961 152.5,119.671 154.069,14.7742 155.637,120.195 157.206,14.2471 158.774,120.725 160.343,13.7147 161.912,121.26 163.48,13.177 165.049,121.801 166.618,12.6339 168.186,122.346 169.755,12.0853 171.323,122.898 172.892,11.5312 174.461,123.454 176.029,10.9716 177.598,124.017 179.167,10.4064 180.735,124.585 182.304,9.83549 183.873,125.159 185.441,9.25887 187.01,125.738 188.578,8.67647 190.147,126.324 " fill="none" stroke-linecap="round" stroke="#1f77b4" stroke-width="1.000000" />
</g>

<clipPath id="id0000000072clipper" >
<polygon points="30,5 30,130 195,130 195,5 " id="id0000000076" class="rectangle" />
</clipPath>

<polyline points="34.8529,130 34.8529,133 " fill="none" stroke-width="1.000000" stroke="black" id="id0000000077" class="line" />
<text id="id0000000078" transform="matrix(1 0 0 1 30 5)" x="4.852942" y="130.000000" dominant-baseline="hanging" text-anchor="middle" font-size="10.000000px" >
0
</text>

<polyline points="66.2255,130 66.2255,133 " fill="none" stroke-width="1.000000" stroke="black" id="id0000000079" class="line" />
<text id="id0000000080" transform="matrix(1 0 0 1 30 5)" x="36.225487" y="130.000000" dominant-baseline="hanging" text-anchor="middle" font-size="10.000000px" >
1
</text>

<polyline points="97.598,130 97.598,133 " fill="none" stroke-width="1.000000" stroke="black" id="id0000000081" class="line" />
<text id="id0000000082" transform="matrix(1 0 0 1 30 5)" x="67.598022" y="130.000000" dominant-baseline="hanging" text-anchor="middle" font-size="10.000000px" >
2
</text>

<polyline points="128.971,130 128.971,133 " fill="none" stroke-width="1.000000" stroke="black" id="id0000000083" class="line" />
<text id="id0000000084" transform="matrix(1 0 0 1 30 5)" x="98.970581" y="130.000000" dominant-baseline="hanging" text-anchor="middle" font-size="10.000000px" >
3
</text>

<polyline points="160.343,130 160.343,133 " fill="none" stroke-width="1.000000" stroke="black" id="id0000000085" class="line" />
<text id="id0000000086" transform="matrix(1 0 0 1 30 5)" x="130.343124" y="130.000000" dominant-baseline="hanging" text-anchor="middle" font-size="10.000000px" >
4
</text>

<polyline points="191.716,130 191.716,133 " fill="none" stroke-width="1.000000" stroke="black" id="id0000000087" class="line" />
<text id="id0000000088" transform="matrix(1 0 0 1 30 5)" x="161.715668" y="130.000000" dominant-baseline="hanging" text-anchor="middle" font-size="10.000000px" >
5
</text>

<polyline points="27,121.071 30,121.071 " fill="none" stroke-width="1.000000" stroke="black" id="id0000000089" class="line" />
<text id="id0000000090" transform="matrix(1 0 0 1 30 5)" x="-5.000000" y="116.071075" dominant-baseline="middle" text-anchor="end" font-size="10.000000px" >
-1.5
</text>

<polyline points="27,103.165 30,103.165 " fill="none" stroke-width="1.000000" stroke="black" id="id0000000091" class="line" />
<text id="id0000000092" transform="matrix(1 0 0 1 30 5)" x="-5.000000" y="98.165154" dominant-baseline="middle" text-anchor="end" font-size="10.000000px" >
-1
</text>

<polyline points="27,85.2592 30,85.2592 " fill="none" stroke-width="1.000000" stroke="black" id="id0000000093" class="line" />
<text id="id0000000094" transform="matrix(1 0 0 1 30 5)" x="-5.000000" y="80.259232" dominant-baseline="middle" text-anchor="end" font-size="10.000000px" >
-0.5
</text>

<polyline points="27,67.3533 30,67.3533 " fill="none" stroke-width="1.000000" stroke="black" id="id0000000095" class="line" />
<text id="id0000000096" transform="matrix(1 0 0 1 30 5)" x="-5.000000" y="62.353310" dominant-baseline="middle" text-anchor="end" font-size="10.000000px" >
0
</text>

<polyline points="27,49.4474 30,49.4474 " fill="none" stroke-width="1.000000" stroke="black" id="id0000000097" class="line" />
<text id="id0000000098" transform="matrix(1 0 0 1 30 5)" x="-5.000000" y="44.447388" dominant-baseline="middle" text-anchor="end" font-size="10.000000px" >
0.5
</text>

<polyline points="27,31.5415 30,31.5415 " fill="none" stroke-width="1.000000" stroke="black" id="id0000000099" class="line" />
<text id="id0000000100" transform="matrix(1 0 0 1 30 5)" x="-5.000000" y="26.541466" dominant-baseline="middle" text-anchor="end" font-size="10.000000px" >
1
</text>

<polyline points="27,13.6355 30,13.6355 " fill="none" stroke-width="1.000000" stroke="black" id="id0000000101" class="line" />
<text id="id0000000102" transform="matrix(1 0 0 1 30 5)" x="-5.000000" y="8.635544" dominant-baseline="middle" text-anchor="end" font-size="10.000000px" >
1.5
</text>

<polygon points="30,5 30,130 195,130 195,5 " stroke="black" stroke-width="1.000000" fill="none" id="id0000000103" pointer-events="none" class="border" />
</g>


</g>

</svg>
