<svg viewBox="-26 -1 227 167" height="100%" width="100%" xmlns:xlink="http://www.w3.org/1999/xlink" xmlns="http://www.w3.org/2000/svg" id="id0000001056" >
<g id="id0000001057" >
<g clip-path="url(#id0000001057clipper)" style="pointer-events: all; " vector-effect="non-scaling-stroke" fill="none" class="area" id="id0000001058" >
<polyline id="id0000001060" fill="none" points="5.88235,74.9951 7.23656,71.4666 8.59077,67.947 9.94498,64.445 11.2992,60.9693 12.6534,57.5287 14.0076,54.1318 15.3618,50.787 16.716,47.5027 18.0702,44.2871 19.4244,41.1483 20.7787,38.0941 22.1329,35.1321 23.4871,32.2698 24.8413,29.5142 26.1955,26.8723 27.5497,24.3507 28.9039,21.9557 30.2581,19.6933 31.6123,17.5691 32.9665,15.5884 34.3207,13.7562 35.6749,12.0771 37.0292,10.5552 38.3834,9.19444 39.7376,7.99812 41.0918,6.96925 42.446,6.1104 43.8002,5.42373 45.1544,4.91095 46.5086,4.57336 47.8628,4.41177 49.217,4.42661 50.5712,4.61782 51.9254,4.98495 53.2797,5.52706 54.6339,6.24281 55.9881,7.1304 57.3423,8.18762 58.6965,9.41182 60.0507,10.7999 61.4049,12.3485 62.7591,14.0537 64.1133,15.9112 65.4675,17.9163 66.8217,20.0642 68.1759,22.3493 69.5302,24.766 70.8844,27.3083 72.2386,29.9697 73.5928,32.7437 74.947,35.6233 76.3012,38.6013 77.6554,41.6703 79.0096,44.8226 80.3638,48.0503 81.718,51.3453 83.0722,54.6994 84.4264,58.1043 85.7806,61.5514 87.1348,65.0321 88.4891,68.5377 89.8433,72.0594 91.1975,75.5885 92.5517,79.1161 93.9059,82.6334 95.2601,86.1316 96.6143,89.6019 97.9685,93.0358 99.3227,96.4245 100.677,99.7597 102.031,103.033 103.385,106.236 104.74,109.361 106.094,112.401 107.448,115.346 108.802,118.191 110.156,120.928 111.511,123.55 112.865,126.051 114.219,128.424 115.573,130.664 116.927,132.764 118.282,134.72 119.636,136.527 120.99,138.18 122.344,139.675 123.699,141.008 125.053,142.177 126.407,143.177 127.761,144.007 129.115,144.665 130.47,145.148 131.824,145.456 133.178,145.588 134.532,145.544 135.886,145.323 137.241,144.926 138.595,144.355 139.949,143.61 141.303,142.694 142.658,141.608 144.012,140.356 145.366,138.941 146.72,137.366 148.074,135.635 149.429,133.752 150.783,131.722 152.137,129.551 153.491,127.243 154.845,124.805 156.2,122.242 157.554,119.561 158.908,116.769 160.262,113.872 161.617,110.879 162.971,107.795 164.325,104.63 165.679,101.39 167.033,98.0844 168.388,94.7211 169.742,91.3085 171.096,87.8551 172.45,84.3696 173.804,80.8607 175.159,77.3371 176.513,73.8076 177.867,70.2811 179.221,66.7664 180.576,63.2723 181.93,59.8075 183.284,56.3806 184.638,53.0002 185.992,49.6749 187.347,46.4128 188.701,43.2221 190.055,40.1109 191.409,37.0869 192.763,34.1576 194.118,31.3304 " stroke-dasharray="3.000000 2.000000 1.000000 2.000000" stroke-linecap="round" stroke="rgb( 255, 0, 53 )" stroke-width="1.000000" />
<g id="id0000001061" >
<polygon points="3.88235,72.9951 3.88235,76.9951 7.88235,76.9951 7.88235,72.9951 " fill="rgb( 51, 204, 51 )" stroke-width="0.000000" id="id0000001076" class="rectangle" />
<polygon points="17.4244,39.1483 17.4244,43.1483 21.4244,43.1483 21.4244,39.1483 " fill="rgb( 51, 204, 51 )" stroke-width="0.000000" id="id0000001077" class="rectangle" />
<polygon points="30.9665,13.5884 30.9665,17.5884 34.9665,17.5884 34.9665,13.5884 " fill="rgb( 51, 204, 51 )" stroke-width="0.000000" id="id0000001078" class="rectangle" />
<polygon points="44.5086,2.57335 44.5086,6.57335 48.5086,6.57335 48.5086,2.57335 " fill="rgb( 51, 204, 51 )" stroke-width="0.000000" id="id0000001079" class="rectangle" />
<polygon points="58.0507,8.79997 58.0507,12.8 62.0507,12.8 62.0507,8.79997 " fill="rgb( 51, 204, 51 )" stroke-width="0.000000" id="id0000001080" class="rectangle" />
<polygon points="71.5928,30.7438 71.5928,34.7438 75.5928,34.7438 75.5928,30.7438 " fill="rgb( 51, 204, 51 )" stroke-width="0.000000" id="id0000001081" class="rectangle" />
<polygon points="85.1349,63.0322 85.1349,67.0322 89.1349,67.0322 89.1349,63.0322 " fill="rgb( 51, 204, 51 )" stroke-width="0.000000" id="id0000001082" class="rectangle" />
<polygon points="98.677,97.7599 98.677,101.76 102.677,101.76 102.677,97.7599 " fill="rgb( 51, 204, 51 )" stroke-width="0.000000" id="id0000001083" class="rectangle" />
<polygon points="112.219,126.424 112.219,130.424 116.219,130.424 116.219,126.424 " fill="rgb( 51, 204, 51 )" stroke-width="0.000000" id="id0000001084" class="rectangle" />
<polygon points="125.761,142.007 125.761,146.007 129.761,146.007 129.761,142.007 " fill="rgb( 51, 204, 51 )" stroke-width="0.000000" id="id0000001085" class="rectangle" />
<polygon points="139.303,140.694 139.303,144.694 143.303,144.694 143.303,140.694 " fill="rgb( 51, 204, 51 )" stroke-width="0.000000" id="id0000001086" class="rectangle" />
<polygon points="152.845,122.805 152.845,126.805 156.845,126.805 156.845,122.805 " fill="rgb( 51, 204, 51 )" stroke-width="0.000000" id="id0000001087" class="rectangle" />
<polygon points="166.387,92.7214 166.387,96.7214 170.387,96.7214 170.387,92.7214 " fill="rgb( 51, 204, 51 )" stroke-width="0.000000" id="id0000001088" class="rectangle" />
<polygon points="179.93,57.8079 179.93,61.8079 183.93,61.8079 183.93,57.8079 " fill="rgb( 51, 204, 51 )" stroke-width="0.000000" id="id0000001089" class="rectangle" />
</g>

</g>

<clipPath id="id0000001057clipper" >
<polygon points="0,0 0,150 200,150 200,0 " id="id0000001090" class="rectangle" />
</clipPath>

<polyline points="5.88235,150 5.88235,153 " fill="none" stroke-width="1.000000" stroke="black" id="id0000001091" class="line" />
<text id="id0000001092" transform="matrix(1 0 0 1 0 0)" x="5.882353" y="155.000000" dominant-baseline="hanging" text-anchor="middle" font-size="10.000000px" >
0
</text>

<polyline points="32.9665,150 32.9665,153 " fill="none" stroke-width="1.000000" stroke="black" id="id0000001093" class="line" />
<text id="id0000001094" transform="matrix(1 0 0 1 0 0)" x="32.966534" y="155.000000" dominant-baseline="hanging" text-anchor="middle" font-size="10.000000px" >
1
</text>

<polyline points="60.0507,150 60.0507,153 " fill="none" stroke-width="1.000000" stroke="black" id="id0000001095" class="line" />
<text id="id0000001096" transform="matrix(1 0 0 1 0 0)" x="60.050716" y="155.000000" dominant-baseline="hanging" text-anchor="middle" font-size="10.000000px" >
2
</text>

<polyline points="87.1349,150 87.1349,153 " fill="none" stroke-width="1.000000" stroke="black" id="id0000001097" class="line" />
<text id="id0000001098" transform="matrix(1 0 0 1 0 0)" x="87.134895" y="155.000000" dominant-baseline="hanging" text-anchor="middle" font-size="10.000000px" >
3
</text>

<polyline points="114.219,150 114.219,153 " fill="none" stroke-width="1.000000" stroke="black" id="id0000001099" class="line" />
<text id="id0000001100" transform="matrix(1 0 0 1 0 0)" x="114.219078" y="155.000000" dominant-baseline="hanging" text-anchor="middle" font-size="10.000000px" >
4
</text>

<polyline points="141.303,150 141.303,153 " fill="none" stroke-width="1.000000" stroke="black" id="id0000001101" class="line" />
<text id="id0000001102" transform="matrix(1 0 0 1 0 0)" x="141.303268" y="155.000000" dominant-baseline="hanging" text-anchor="middle" font-size="10.000000px" >
5
</text>

<polyline points="168.387,150 168.387,153 " fill="none" stroke-width="1.000000" stroke="black" id="id0000001103" class="line" />
<text id="id0000001104" transform="matrix(1 0 0 1 0 0)" x="168.387451" y="155.000000" dominant-baseline="hanging" text-anchor="middle" font-size="10.000000px" >
6
</text>

<polyline points="195.472,150 195.472,153 " fill="none" stroke-width="1.000000" stroke="black" id="id0000001105" class="line" />
<text id="id0000001106" transform="matrix(1 0 0 1 0 0)" x="195.471634" y="155.000000" dominant-baseline="hanging" text-anchor="middle" font-size="10.000000px" >
7
</text>

<polyline points="-3,145.594 0,145.594 " fill="none" stroke-width="1.000000" stroke="black" id="id0000001107" class="line" />
<text id="id0000001108" transform="matrix(1 0 0 1 0 0)" x="-5.000000" y="145.593658" dominant-baseline="middle" text-anchor="end" font-size="10.000000px" >
-1
</text>

<polyline points="-3,127.944 0,127.944 " fill="none" stroke-width="1.000000" stroke="black" id="id0000001109" class="line" />
<text id="id0000001110" transform="matrix(1 0 0 1 0 0)" x="-5.000000" y="127.944016" dominant-baseline="middle" text-anchor="end" font-size="10.000000px" >
-0.75
</text>

<polyline points="-3,110.294 0,110.294 " fill="none" stroke-width="1.000000" stroke="black" id="id0000001111" class="line" />
<text id="id0000001112" transform="matrix(1 0 0 1 0 0)" x="-5.000000" y="110.294373" dominant-baseline="middle" text-anchor="end" font-size="10.000000px" >
-0.5
</text>

<polyline points="-3,92.6447 0,92.6447 " fill="none" stroke-width="1.000000" stroke="black" id="id0000001113" class="line" />
<text id="id0000001114" transform="matrix(1 0 0 1 0 0)" x="-5.000000" y="92.644722" dominant-baseline="middle" text-anchor="end" font-size="10.000000px" >
-0.25
</text>

<polyline points="-3,74.9951 0,74.9951 " fill="none" stroke-width="1.000000" stroke="black" id="id0000001115" class="line" />
<text id="id0000001116" transform="matrix(1 0 0 1 0 0)" x="-5.000000" y="74.995079" dominant-baseline="middle" text-anchor="end" font-size="10.000000px" >
0
</text>

<polyline points="-3,57.3454 0,57.3454 " fill="none" stroke-width="1.000000" stroke="black" id="id0000001117" class="line" />
<text id="id0000001118" transform="matrix(1 0 0 1 0 0)" x="-5.000000" y="57.345428" dominant-baseline="middle" text-anchor="end" font-size="10.000000px" >
0.25
</text>

<polyline points="-3,39.6958 0,39.6958 " fill="none" stroke-width="1.000000" stroke="black" id="id0000001119" class="line" />
<text id="id0000001120" transform="matrix(1 0 0 1 0 0)" x="-5.000000" y="39.695786" dominant-baseline="middle" text-anchor="end" font-size="10.000000px" >
0.5
</text>

<polyline points="-3,22.0461 0,22.0461 " fill="none" stroke-width="1.000000" stroke="black" id="id0000001121" class="line" />
<text id="id0000001122" transform="matrix(1 0 0 1 0 0)" x="-5.000000" y="22.046135" dominant-baseline="middle" text-anchor="end" font-size="10.000000px" >
0.75
</text>

<polyline points="-3,4.39648 0,4.39648 " fill="none" stroke-width="1.000000" stroke="black" id="id0000001123" class="line" />
<text id="id0000001124" transform="matrix(1 0 0 1 0 0)" x="-5.000000" y="4.396484" dominant-baseline="middle" text-anchor="end" font-size="10.000000px" >
1
</text>

<polygon points="0,0 0,150 200,150 200,0 " stroke="black" stroke-width="1.000000" fill="none" id="id0000001125" pointer-events="none" class="border" />

</g>

</svg>
