<svg viewBox="0 0 640 480" height="100%" width="100%" xmlns:xlink="http://www.w3.org/1999/xlink" xmlns="http://www.w3.org/2000/svg" id="id0000000037" >
<g id="id0000000038" >
<clipPath id="id0000000038clipper" >
<polygon points="36,1 36,458 639,458 639,1 " id="id0000000041" class="rectangle" />
</clipPath>

<g clip-path="url(#id0000000038clipper)" id="id0000000040" >
<polyline id="id0000000042" points="53.7353,444.559 242.912,358.535 432.088,215.163 621.265,14.4412 " fill="none" stroke-opacity="1.000000" stroke-linecap="round" stroke="#1f77b4" stroke-width="1.000000" />
</g>

<polygon points="36,1 36,458 639,458 639,1 " stroke="black" stroke-width="1.000000" fill="none" id="id0000000043" pointer-events="none" class="rectangle" />
<polyline points="53.7353,458 53.7353,461 " fill="none" stroke-width="1.000000" stroke="black" id="id0000000044" class="line" />
<text id="id0000000045" transform="matrix(1 0 0 1 36 1)" x="17.735294" y="462.000000" dominant-baseline="hanging" text-anchor="middle" font-size="14.000000px" >
1
</text>

<polyline points="148.324,458 148.324,461 " fill="none" stroke-width="1.000000" stroke="black" id="id0000000046" class="line" />
<text id="id0000000047" transform="matrix(1 0 0 1 36 1)" x="112.323532" y="462.000000" dominant-baseline="hanging" text-anchor="middle" font-size="14.000000px" >
1.5
</text>

<polyline points="242.912,458 242.912,461 " fill="none" stroke-width="1.000000" stroke="black" id="id0000000048" class="line" />
<text id="id0000000049" transform="matrix(1 0 0 1 36 1)" x="206.911758" y="462.000000" dominant-baseline="hanging" text-anchor="middle" font-size="14.000000px" >
2
</text>

<polyline points="337.5,458 337.5,461 " fill="none" stroke-width="1.000000" stroke="black" id="id0000000050" class="line" />
<text id="id0000000051" transform="matrix(1 0 0 1 36 1)" x="301.500000" y="462.000000" dominant-baseline="hanging" text-anchor="middle" font-size="14.000000px" >
2.5
</text>

<polyline points="432.088,458 432.088,461 " fill="none" stroke-width="1.000000" stroke="black" id="id0000000052" class="line" />
<text id="id0000000053" transform="matrix(1 0 0 1 36 1)" x="396.088226" y="462.000000" dominant-baseline="hanging" text-anchor="middle" font-size="14.000000px" >
3
</text>

<polyline points="526.677,458 526.677,461 " fill="none" stroke-width="1.000000" stroke="black" id="id0000000054" class="line" />
<text id="id0000000055" transform="matrix(1 0 0 1 36 1)" x="490.676483" y="462.000000" dominant-baseline="hanging" text-anchor="middle" font-size="14.000000px" >
3.5
</text>

<polyline points="621.265,458 621.265,461 " fill="none" stroke-width="1.000000" stroke="black" id="id0000000056" class="line" />
<text id="id0000000057" transform="matrix(1 0 0 1 36 1)" x="585.264709" y="462.000000" dominant-baseline="hanging" text-anchor="middle" font-size="14.000000px" >
4
</text>

<polyline points="33,387.21 36,387.21 " fill="none" stroke-width="1.000000" stroke="black" id="id0000000058" class="line" />
<text id="id0000000059" transform="matrix(1 0 0 1 36 1)" x="-5.000000" y="386.209808" dominant-baseline="middle" text-anchor="end" font-size="14.000000px" >
3
</text>

<polyline points="33,301.186 36,301.186 " fill="none" stroke-width="1.000000" stroke="black" id="id0000000060" class="line" />
<text id="id0000000061" transform="matrix(1 0 0 1 36 1)" x="-5.000000" y="300.186279" dominant-baseline="middle" text-anchor="end" font-size="14.000000px" >
6
</text>

<polyline points="33,215.163 36,215.163 " fill="none" stroke-width="1.000000" stroke="black" id="id0000000062" class="line" />
<text id="id0000000063" transform="matrix(1 0 0 1 36 1)" x="-5.000000" y="214.162750" dominant-baseline="middle" text-anchor="end" font-size="14.000000px" >
9
</text>

<polyline points="33,129.139 36,129.139 " fill="none" stroke-width="1.000000" stroke="black" id="id0000000064" class="line" />
<text id="id0000000065" transform="matrix(1 0 0 1 36 1)" x="-5.000000" y="128.139221" dominant-baseline="middle" text-anchor="end" font-size="14.000000px" >
12
</text>

<polyline points="33,43.1157 36,43.1157 " fill="none" stroke-width="1.000000" stroke="black" id="id0000000066" class="line" />
<text id="id0000000067" transform="matrix(1 0 0 1 36 1)" x="-5.000000" y="42.115692" dominant-baseline="middle" text-anchor="end" font-size="14.000000px" >
15
</text>


</g>

</svg>
