<svg viewBox="0 0 640 480" height="100%" width="100%" xmlns:xlink="http://www.w3.org/1999/xlink" xmlns="http://www.w3.org/2000/svg" id="id0000000101" >
<g id="id0000000102" >
<clipPath id="id0000000102clipper" >
<polygon points="30,5 30,460 635,460 635,5 " id="id0000000105" class="rectangle" />
</clipPath>

<g clip-path="url(#id0000000102clipper)" id="id0000000104" >
<polyline id="id0000000106" points="47.7941,147.7 53.5458,147.544 59.2974,147.079 65.049,146.305 70.8007,145.228 76.5523,143.853 82.3039,142.186 88.0556,140.235 93.8072,138.012 99.5588,135.526 105.31,132.791 111.062,129.82 116.814,126.629 122.565,123.234 128.317,119.653 134.069,115.904 139.82,112.007 145.572,107.983 151.324,103.852 157.075,99.6387 162.827,95.3642 168.578,91.0527 174.33,86.728 180.082,82.4147 185.833,78.1377 191.585,73.9219 197.337,69.7924 203.088,65.7746 208.84,61.8934 214.591,58.1739 220.343,54.6407 226.095,51.3181 231.846,48.2299 237.598,45.3994 243.35,42.8493 249.101,40.6012 254.853,38.6762 260.604,37.0944 266.356,35.8747 272.108,35.035 277.859,34.5919 283.611,34.5609 289.363,34.9561 295.114,35.7899 300.866,37.0736 306.618,38.8168 312.369,41.0274 318.121,43.7117 323.872,46.8743 329.624,50.5182 335.376,54.6444 341.127,59.2522 346.879,64.3392 352.631,69.9008 358.382,75.9309 364.134,82.4214 369.885,89.3624 375.637,96.7422 381.389,104.547 387.14,112.761 392.892,121.368 398.644,130.349 404.395,139.682 410.147,149.346 415.898,159.317 421.65,169.569 427.402,180.076 433.153,190.808 438.905,201.737 444.657,212.831 450.408,224.059 456.16,235.386 461.911,246.78 467.663,258.206 473.415,269.626 479.166,281.005 484.918,292.306 490.67,303.492 496.421,314.524 502.173,325.365 507.924,335.977 513.676,346.321 519.428,356.36 525.179,366.056 530.931,375.372 536.683,384.271 542.434,392.718 548.186,400.677 553.938,408.113 559.689,414.995 565.441,421.289 571.193,426.964 576.944,431.992 582.696,436.344 588.448,439.994 594.199,442.917 599.951,445.091 605.703,446.494 611.454,447.108 617.206,446.915 " fill="none" stroke-opacity="1.000000" stroke-linecap="round" stroke="#1f77b4" stroke-width="1.000000" />
<polyline id="id0000000107" points="47.7941,147.7 53.5458,133.792 59.2974,128.032 65.049,123.612 70.8007,119.885 76.5523,116.602 82.3039,113.634 88.0556,110.904 93.8072,108.364 99.5588,105.978 105.31,103.721 111.062,101.574 116.814,99.5235 122.565,97.5563 128.317,95.6634 134.069,93.8371 139.82,92.0706 145.572,90.3586 151.324,88.6961 157.075,87.0793 162.827,85.5045 168.578,83.9686 174.33,82.4688 180.082,81.0028 185.833,79.5683 191.585,78.1634 197.337,76.7863 203.088,75.4354 208.84,74.1094 214.591,72.8068 220.343,71.5265 226.095,70.2673 231.846,69.0283 237.598,67.8086 243.35,66.6071 249.101,65.4232 254.853,64.2561 260.604,63.1051 266.356,61.9696 272.108,60.8489 277.859,59.7425 283.611,58.6498 289.363,57.5704 295.114,56.5037 300.866,55.4494 306.618,54.407 312.369,53.3761 318.121,52.3563 323.872,51.3474 329.624,50.3489 335.376,49.3605 341.127,48.382 346.879,47.413 352.631,46.4533 358.382,45.5026 364.134,44.5607 369.885,43.6273 375.637,42.7022 381.389,41.7852 387.14,40.876 392.892,39.9746 398.644,39.0806 404.395,38.1939 410.147,37.3143 415.898,36.4417 421.65,35.5758 427.402,34.7166 433.153,33.8639 438.905,33.0175 444.657,32.1774 450.408,31.3433 456.16,30.5151 461.911,29.6927 467.663,28.8761 473.415,28.065 479.166,27.2594 484.918,26.4591 490.67,25.664 496.421,24.8742 502.173,24.0893 507.924,23.3094 513.676,22.5344 519.428,21.7642 525.179,20.9986 530.931,20.2376 536.683,19.4812 542.434,18.7291 548.186,17.9815 553.938,17.2381 559.689,16.4989 565.441,15.7639 571.193,15.0329 576.944,14.306 582.696,13.583 588.448,12.8638 594.199,12.1485 599.951,11.437 605.703,10.7291 611.454,10.0249 617.206,9.32423 " fill="none" stroke-opacity="1.000000" stroke-linecap="round" stroke="#ff7f0e" stroke-width="1.000000" />
</g>

<polygon points="30,5 30,460 635,460 635,5 " stroke="black" stroke-width="1.000000" fill="none" id="id0000000108" pointer-events="none" class="rectangle" />
<polyline points="47.7941,460 47.7941,463 " fill="none" stroke-width="1.000000" stroke="black" id="id0000000109" class="line" />
<text id="id0000000110" transform="matrix(1 0 0 1 30 5)" x="17.794119" y="460.000000" dominant-baseline="hanging" text-anchor="middle" font-size="10.000000px" >
0
</text>

<polyline points="162.827,460 162.827,463 " fill="none" stroke-width="1.000000" stroke="black" id="id0000000111" class="line" />
<text id="id0000000112" transform="matrix(1 0 0 1 30 5)" x="132.826782" y="460.000000" dominant-baseline="hanging" text-anchor="middle" font-size="10.000000px" >
1
</text>

<polyline points="277.859,460 277.859,463 " fill="none" stroke-width="1.000000" stroke="black" id="id0000000113" class="line" />
<text id="id0000000114" transform="matrix(1 0 0 1 30 5)" x="247.859451" y="460.000000" dominant-baseline="hanging" text-anchor="middle" font-size="10.000000px" >
2
</text>

<polyline points="392.892,460 392.892,463 " fill="none" stroke-width="1.000000" stroke="black" id="id0000000115" class="line" />
<text id="id0000000116" transform="matrix(1 0 0 1 30 5)" x="362.892120" y="460.000000" dominant-baseline="hanging" text-anchor="middle" font-size="10.000000px" >
3
</text>

<polyline points="507.925,460 507.925,463 " fill="none" stroke-width="1.000000" stroke="black" id="id0000000117" class="line" />
<text id="id0000000118" transform="matrix(1 0 0 1 30 5)" x="477.924774" y="460.000000" dominant-baseline="hanging" text-anchor="middle" font-size="10.000000px" >
4
</text>

<polyline points="622.957,460 622.957,463 " fill="none" stroke-width="1.000000" stroke="black" id="id0000000119" class="line" />
<text id="id0000000120" transform="matrix(1 0 0 1 30 5)" x="592.957458" y="460.000000" dominant-baseline="hanging" text-anchor="middle" font-size="10.000000px" >
5
</text>

<polyline points="27,458.675 30,458.675 " fill="none" stroke-width="1.000000" stroke="black" id="id0000000121" class="line" />
<text id="id0000000122" transform="matrix(1 0 0 1 30 5)" x="-5.000000" y="453.675079" dominant-baseline="middle" text-anchor="end" font-size="10.000000px" >
-5
</text>

<polyline points="27,396.48 30,396.48 " fill="none" stroke-width="1.000000" stroke="black" id="id0000000123" class="line" />
<text id="id0000000124" transform="matrix(1 0 0 1 30 5)" x="-5.000000" y="391.479980" dominant-baseline="middle" text-anchor="end" font-size="10.000000px" >
-4
</text>

<polyline points="27,334.285 30,334.285 " fill="none" stroke-width="1.000000" stroke="black" id="id0000000125" class="line" />
<text id="id0000000126" transform="matrix(1 0 0 1 30 5)" x="-5.000000" y="329.284882" dominant-baseline="middle" text-anchor="end" font-size="10.000000px" >
-3
</text>

<polyline points="27,272.09 30,272.09 " fill="none" stroke-width="1.000000" stroke="black" id="id0000000127" class="line" />
<text id="id0000000128" transform="matrix(1 0 0 1 30 5)" x="-5.000000" y="267.089783" dominant-baseline="middle" text-anchor="end" font-size="10.000000px" >
-2
</text>

<polyline points="27,209.895 30,209.895 " fill="none" stroke-width="1.000000" stroke="black" id="id0000000129" class="line" />
<text id="id0000000130" transform="matrix(1 0 0 1 30 5)" x="-5.000000" y="204.894684" dominant-baseline="middle" text-anchor="end" font-size="10.000000px" >
-1
</text>

<polyline points="27,147.7 30,147.7 " fill="none" stroke-width="1.000000" stroke="black" id="id0000000131" class="line" />
<text id="id0000000132" transform="matrix(1 0 0 1 30 5)" x="-5.000000" y="142.699585" dominant-baseline="middle" text-anchor="end" font-size="10.000000px" >
0
</text>

<polyline points="27,85.5045 30,85.5045 " fill="none" stroke-width="1.000000" stroke="black" id="id0000000133" class="line" />
<text id="id0000000134" transform="matrix(1 0 0 1 30 5)" x="-5.000000" y="80.504517" dominant-baseline="middle" text-anchor="end" font-size="10.000000px" >
1
</text>

<polyline points="27,23.3094 30,23.3094 " fill="none" stroke-width="1.000000" stroke="black" id="id0000000135" class="line" />
<text id="id0000000136" transform="matrix(1 0 0 1 30 5)" x="-5.000000" y="18.309418" dominant-baseline="middle" text-anchor="end" font-size="10.000000px" >
2
</text>


</g>

</svg>
