<svg viewBox="0 0 200 150" height="100%" width="100%" xmlns:xlink="http://www.w3.org/1999/xlink" xmlns="http://www.w3.org/2000/svg" id="id0000001061" >
<g id="id0000001062" >
<g id="id0000001063" >
<g clip-path="url(#id0000001063clipper)" style="pointer-events: all; " vector-effect="non-scaling-stroke" fill="none" class="area" id="id0000001064" >
<polyline id="id0000001066" fill="none" points="34.8529,67.4959 35.9702,64.5555 37.0874,61.6225 38.2046,58.7041 39.3218,55.8078 40.4391,52.9406 41.5563,50.1098 42.6735,47.3225 43.7907,44.5856 44.9079,41.9059 46.0252,39.2903 47.1424,36.7451 48.2596,34.2768 49.3768,31.8915 50.4941,29.5952 51.6113,27.3936 52.7285,25.2923 53.8457,23.2964 54.9629,21.4111 56.0802,19.6409 57.1974,17.9903 58.3146,16.4635 59.4318,15.0642 60.5491,13.796 61.6663,12.662 62.7835,11.6651 63.9007,10.8077 65.0179,10.092 66.1352,9.51977 67.2524,9.09246 68.3696,8.81112 69.4868,8.67647 70.604,8.68883 71.7213,8.84818 72.8385,9.15412 73.9557,9.60588 75.0729,10.2023 76.1902,10.942 77.3074,11.823 78.4246,12.8432 79.5418,14 80.659,15.2904 81.7763,16.7114 82.8935,18.2593 84.0107,19.9303 85.1279,21.7201 86.2451,23.6244 87.3624,25.6383 88.4796,27.7569 89.5968,29.9748 90.714,32.2864 91.8313,34.6861 92.9485,37.1678 94.0657,39.7253 95.1829,42.3521 96.3001,45.0419 97.4174,47.7877 98.5346,50.5829 99.6518,53.4203 100.769,56.2928 101.886,59.1934 103.003,62.1147 104.121,65.0495 105.238,67.9904 106.355,70.9301 107.472,73.8611 108.59,76.7763 109.707,79.6683 110.824,82.5298 111.941,85.3538 113.058,88.1331 114.176,90.8609 115.293,93.5302 116.41,96.1345 117.527,98.6672 118.645,101.122 119.762,103.493 120.879,105.773 121.996,107.959 123.113,110.043 124.231,112.02 125.348,113.886 126.465,115.637 127.582,117.267 128.7,118.773 129.817,120.15 130.934,121.396 132.051,122.507 133.168,123.481 134.286,124.314 135.403,125.006 136.52,125.554 137.637,125.957 138.755,126.214 139.872,126.324 140.989,126.286 142.106,126.102 143.224,125.772 144.341,125.296 145.458,124.675 146.575,123.911 147.692,123.007 148.81,121.964 149.927,120.784 151.044,119.471 152.161,118.029 153.279,116.46 154.396,114.769 155.513,112.959 156.63,111.036 157.747,109.004 158.865,106.869 159.982,104.635 161.099,102.308 162.216,99.8937 163.334,97.3988 164.451,94.8292 165.568,92.1913 166.685,89.4916 167.803,86.737 168.92,83.9342 170.037,81.0904 171.154,78.2126 172.271,75.308 173.389,72.3839 174.506,69.4476 175.623,66.5063 176.74,63.5676 177.858,60.6387 178.975,57.7269 180.092,54.8395 181.209,51.9838 182.326,49.1669 183.444,46.3957 184.561,43.6773 185.678,41.0184 186.795,38.4257 187.913,35.9057 189.03,33.4646 190.147,31.1086 " stroke-dasharray="3.000000 2.000000 1.000000 2.000000" stroke-linecap="round" stroke="rgb( 255, 0, 53 )" stroke-width="1.000000" />
<g id="id0000001067" >
<polygon points="32.8529,65.4959 32.8529,69.4959 36.8529,69.4959 36.8529,65.4959 " fill="rgb( 51, 204, 51 )" stroke-width="0.000000" id="id0000001082" class="rectangle" />
<polygon points="44.0252,37.2903 44.0252,41.2903 48.0252,41.2903 48.0252,37.2903 " fill="rgb( 51, 204, 51 )" stroke-width="0.000000" id="id0000001083" class="rectangle" />
<polygon points="55.1974,15.9903 55.1974,19.9903 59.1974,19.9903 59.1974,15.9903 " fill="rgb( 51, 204, 51 )" stroke-width="0.000000" id="id0000001084" class="rectangle" />
<polygon points="66.3696,6.81112 66.3696,10.8111 70.3696,10.8111 70.3696,6.81112 " fill="rgb( 51, 204, 51 )" stroke-width="0.000000" id="id0000001085" class="rectangle" />
<polygon points="77.5418,12 77.5418,16 81.5418,16 81.5418,12 " fill="rgb( 51, 204, 51 )" stroke-width="0.000000" id="id0000001086" class="rectangle" />
<polygon points="88.7141,30.2865 88.7141,34.2865 92.7141,34.2865 92.7141,30.2865 " fill="rgb( 51, 204, 51 )" stroke-width="0.000000" id="id0000001087" class="rectangle" />
<polygon points="99.8863,57.1935 99.8863,61.1935 103.886,61.1935 103.886,57.1935 " fill="rgb( 51, 204, 51 )" stroke-width="0.000000" id="id0000001088" class="rectangle" />
<polygon points="111.059,86.1332 111.059,90.1332 115.059,90.1332 115.059,86.1332 " fill="rgb( 51, 204, 51 )" stroke-width="0.000000" id="id0000001089" class="rectangle" />
<polygon points="122.231,110.02 122.231,114.02 126.231,114.02 126.231,110.02 " fill="rgb( 51, 204, 51 )" stroke-width="0.000000" id="id0000001090" class="rectangle" />
<polygon points="133.403,123.006 133.403,127.006 137.403,127.006 137.403,123.006 " fill="rgb( 51, 204, 51 )" stroke-width="0.000000" id="id0000001091" class="rectangle" />
<polygon points="144.575,121.911 144.575,125.911 148.575,125.911 148.575,121.911 " fill="rgb( 51, 204, 51 )" stroke-width="0.000000" id="id0000001092" class="rectangle" />
<polygon points="155.747,107.004 155.747,111.004 159.747,111.004 159.747,107.004 " fill="rgb( 51, 204, 51 )" stroke-width="0.000000" id="id0000001093" class="rectangle" />
<polygon points="166.92,81.9345 166.92,85.9345 170.92,85.9345 170.92,81.9345 " fill="rgb( 51, 204, 51 )" stroke-width="0.000000" id="id0000001094" class="rectangle" />
<polygon points="178.092,52.8399 178.092,56.8399 182.092,56.8399 182.092,52.8399 " fill="rgb( 51, 204, 51 )" stroke-width="0.000000" id="id0000001095" class="rectangle" />
</g>

</g>

<clipPath id="id0000001063clipper" >
<polygon points="30,5 30,130 195,130 195,5 " id="id0000001096" class="rectangle" />
</clipPath>

<polyline points="34.8529,130 34.8529,133 " fill="none" stroke-width="1.000000" stroke="black" id="id0000001097" class="line" />
<text id="id0000001098" transform="matrix(1 0 0 1 30 5)" x="4.852941" y="130.000000" dominant-baseline="hanging" text-anchor="middle" font-size="10.000000px" >
0
</text>

<polyline points="57.1974,130 57.1974,133 " fill="none" stroke-width="1.000000" stroke="black" id="id0000001099" class="line" />
<text id="id0000001100" transform="matrix(1 0 0 1 30 5)" x="27.197392" y="130.000000" dominant-baseline="hanging" text-anchor="middle" font-size="10.000000px" >
1
</text>

<polyline points="79.5418,130 79.5418,133 " fill="none" stroke-width="1.000000" stroke="black" id="id0000001101" class="line" />
<text id="id0000001102" transform="matrix(1 0 0 1 30 5)" x="49.541843" y="130.000000" dominant-baseline="hanging" text-anchor="middle" font-size="10.000000px" >
2
</text>

<polyline points="101.886,130 101.886,133 " fill="none" stroke-width="1.000000" stroke="black" id="id0000001103" class="line" />
<text id="id0000001104" transform="matrix(1 0 0 1 30 5)" x="71.886292" y="130.000000" dominant-baseline="hanging" text-anchor="middle" font-size="10.000000px" >
3
</text>

<polyline points="124.231,130 124.231,133 " fill="none" stroke-width="1.000000" stroke="black" id="id0000001105" class="line" />
<text id="id0000001106" transform="matrix(1 0 0 1 30 5)" x="94.230743" y="130.000000" dominant-baseline="hanging" text-anchor="middle" font-size="10.000000px" >
4
</text>

<polyline points="146.575,130 146.575,133 " fill="none" stroke-width="1.000000" stroke="black" id="id0000001107" class="line" />
<text id="id0000001108" transform="matrix(1 0 0 1 30 5)" x="116.575195" y="130.000000" dominant-baseline="hanging" text-anchor="middle" font-size="10.000000px" >
5
</text>

<polyline points="168.92,130 168.92,133 " fill="none" stroke-width="1.000000" stroke="black" id="id0000001109" class="line" />
<text id="id0000001110" transform="matrix(1 0 0 1 30 5)" x="138.919647" y="130.000000" dominant-baseline="hanging" text-anchor="middle" font-size="10.000000px" >
6
</text>

<polyline points="191.264,130 191.264,133 " fill="none" stroke-width="1.000000" stroke="black" id="id0000001111" class="line" />
<text id="id0000001112" transform="matrix(1 0 0 1 30 5)" x="161.264099" y="130.000000" dominant-baseline="hanging" text-anchor="middle" font-size="10.000000px" >
7
</text>

<polyline points="27,126.328 30,126.328 " fill="none" stroke-width="1.000000" stroke="black" id="id0000001113" class="line" />
<text id="id0000001114" transform="matrix(1 0 0 1 30 5)" x="-5.000000" y="121.328049" dominant-baseline="middle" text-anchor="end" font-size="10.000000px" >
-1
</text>

<polyline points="27,111.62 30,111.62 " fill="none" stroke-width="1.000000" stroke="black" id="id0000001115" class="line" />
<text id="id0000001116" transform="matrix(1 0 0 1 30 5)" x="-5.000000" y="106.620010" dominant-baseline="middle" text-anchor="end" font-size="10.000000px" >
-0.75
</text>

<polyline points="27,96.912 30,96.912 " fill="none" stroke-width="1.000000" stroke="black" id="id0000001117" class="line" />
<text id="id0000001118" transform="matrix(1 0 0 1 30 5)" x="-5.000000" y="91.911972" dominant-baseline="middle" text-anchor="end" font-size="10.000000px" >
-0.5
</text>

<polyline points="27,82.2039 30,82.2039 " fill="none" stroke-width="1.000000" stroke="black" id="id0000001119" class="line" />
<text id="id0000001120" transform="matrix(1 0 0 1 30 5)" x="-5.000000" y="77.203934" dominant-baseline="middle" text-anchor="end" font-size="10.000000px" >
-0.25
</text>

<polyline points="27,67.4959 30,67.4959 " fill="none" stroke-width="1.000000" stroke="black" id="id0000001121" class="line" />
<text id="id0000001122" transform="matrix(1 0 0 1 30 5)" x="-5.000000" y="62.495895" dominant-baseline="middle" text-anchor="end" font-size="10.000000px" >
0
</text>

<polyline points="27,52.7879 30,52.7879 " fill="none" stroke-width="1.000000" stroke="black" id="id0000001123" class="line" />
<text id="id0000001124" transform="matrix(1 0 0 1 30 5)" x="-5.000000" y="47.787857" dominant-baseline="middle" text-anchor="end" font-size="10.000000px" >
0.25
</text>

<polyline points="27,38.0798 30,38.0798 " fill="none" stroke-width="1.000000" stroke="black" id="id0000001125" class="line" />
<text id="id0000001126" transform="matrix(1 0 0 1 30 5)" x="-5.000000" y="33.079819" dominant-baseline="middle" text-anchor="end" font-size="10.000000px" >
0.5
</text>

<polyline points="27,23.3718 30,23.3718 " fill="none" stroke-width="1.000000" stroke="black" id="id0000001127" class="line" />
<text id="id0000001128" transform="matrix(1 0 0 1 30 5)" x="-5.000000" y="18.371780" dominant-baseline="middle" text-anchor="end" font-size="10.000000px" >
0.75
</text>

<polyline points="27,8.66375 30,8.66375 " fill="none" stroke-width="1.000000" stroke="black" id="id0000001129" class="line" />
<text id="id0000001130" transform="matrix(1 0 0 1 30 5)" x="-5.000000" y="3.663750" dominant-baseline="middle" text-anchor="end" font-size="10.000000px" >
1
</text>

<polygon points="30,5 30,130 195,130 195,5 " stroke="black" stroke-width="1.000000" fill="none" id="id0000001131" pointer-events="none" class="border" />
</g>


</g>

</svg>
