<svg viewBox="0 0 640 480" height="100%" width="100%" xmlns:xlink="http://www.w3.org/1999/xlink" xmlns="http://www.w3.org/2000/svg" id="id0000000137" >
<g id="id0000000138" >
<clipPath id="id0000000138clipper" >
<polygon points="36,1 36,458 639,458 639,1 " id="id0000000546" class="rectangle" />
</clipPath>

<g clip-path="url(#id0000000138clipper)" id="id0000000140" >
<polyline id="id0000000547" points="53.7353,353.024 55.1577,353.012 56.5801,352.974 58.0024,352.912 59.4248,352.825 60.8472,352.715 62.2696,352.58 63.692,352.423 65.1143,352.244 66.5367,352.044 67.9591,351.824 69.3815,351.584 70.8039,351.327 72.2263,351.054 73.6486,350.766 75.071,350.464 76.4934,350.15 77.9158,349.826 79.3382,349.493 80.7605,349.154 82.1829,348.809 83.6053,348.462 85.0277,348.114 86.4501,347.766 87.8724,347.422 89.2948,347.082 90.7172,346.75 92.1396,346.426 93.562,346.114 94.9843,345.814 96.4067,345.53 97.8291,345.262 99.2515,345.013 100.674,344.785 102.096,344.58 103.519,344.399 104.941,344.244 106.363,344.116 107.786,344.018 109.208,343.951 110.631,343.915 112.053,343.912 113.475,343.944 114.898,344.011 116.32,344.115 117.742,344.255 119.165,344.433 120.587,344.649 122.01,344.904 123.432,345.198 124.854,345.53 126.277,345.901 127.699,346.311 129.121,346.759 130.544,347.244 131.966,347.767 133.389,348.326 134.811,348.92 136.233,349.549 137.656,350.211 139.078,350.904 140.5,351.627 141.923,352.379 143.345,353.157 144.768,353.96 146.19,354.786 147.612,355.632 149.035,356.496 150.457,357.376 151.88,358.27 153.302,359.174 154.724,360.086 156.147,361.004 157.569,361.924 158.991,362.844 160.414,363.761 161.836,364.671 163.259,365.572 164.681,366.46 166.103,367.333 167.526,368.188 168.948,369.021 170.37,369.829 171.793,370.61 173.215,371.361 174.638,372.077 176.06,372.758 177.482,373.399 178.905,373.998 180.327,374.552 181.75,375.059 183.172,375.516 184.594,375.921 186.017,376.271 187.439,376.565 188.861,376.801 190.284,376.976 191.706,377.089 193.129,377.138 194.551,377.123 195.973,377.041 197.396,376.892 198.818,376.675 200.241,376.39 201.663,376.036 203.085,375.612 204.508,375.119 205.93,374.557 207.353,373.927 208.775,373.228 210.197,372.462 211.62,371.629 213.042,370.732 214.464,369.771 215.887,368.747 217.309,367.664 218.732,366.522 220.154,365.325 221.576,364.074 222.999,362.772 224.421,361.422 225.844,360.027 227.266,358.59 228.688,357.115 230.111,355.605 231.533,354.063 232.955,352.494 234.378,350.901 235.8,349.288 237.223,347.66 238.645,346.02 240.067,344.374 241.49,342.725 242.912,341.078 244.335,339.437 245.757,337.808 247.179,336.194 248.602,334.6 250.024,333.032 251.446,331.493 252.869,329.988 254.291,328.522 255.714,327.099 257.136,325.724 258.558,324.4 259.981,323.133 261.403,321.927 262.826,320.785 264.248,319.712 265.67,318.711 267.093,317.785 268.515,316.94 269.938,316.177 271.36,315.499 272.782,314.911 274.205,314.414 275.627,314.011 277.049,313.704 278.472,313.495 279.894,313.386 281.317,313.378 282.739,313.474 284.161,313.673 285.584,313.976 287.006,314.385 288.429,314.898 289.851,315.517 291.273,316.24 292.696,317.066 294.118,317.996 295.54,319.028 296.963,320.159 298.385,321.388 299.808,322.714 301.23,324.133 302.652,325.644 304.075,327.242 305.497,328.925 306.92,330.689 308.342,332.531 309.764,334.446 311.187,336.431 312.609,338.48 314.031,340.589 315.454,342.754 316.876,344.968 318.299,347.228 319.721,349.526 321.143,351.859 322.566,354.219 323.988,356.601 325.411,359 326.833,361.408 328.255,363.82 329.678,366.23 331.1,368.63 332.522,371.015 333.945,373.379 335.367,375.714 336.79,378.015 338.212,380.276 339.634,382.489 341.057,384.648 342.479,386.749 343.902,388.783 345.324,390.747 346.746,392.633 348.169,394.436 349.591,396.15 351.014,397.771 352.436,399.293 353.858,400.711 355.281,402.021 356.703,403.218 358.125,404.298 359.548,405.257 360.97,406.091 362.393,406.798 363.815,407.374 365.237,407.817 366.66,408.124 368.082,408.293 369.505,408.322 370.927,408.211 372.349,407.957 373.772,407.562 375.194,407.024 376.616,406.343 378.039,405.521 379.461,404.557 380.884,403.453 382.306,402.212 383.728,400.834 385.151,399.323 386.573,397.68 387.996,395.91 389.418,394.015 390.84,392 392.263,389.869 393.685,387.626 395.108,385.276 396.53,382.824 397.952,380.276 399.375,377.637 400.797,374.914 402.219,372.113 403.642,369.241 405.064,366.304 406.487,363.309 407.909,360.263 409.331,357.175 410.754,354.052 412.176,350.9 413.599,347.729 415.021,344.547 416.443,341.361 417.866,338.179 419.288,335.01 420.71,331.862 422.133,328.743 423.555,325.662 424.978,322.627 426.4,319.645 427.822,316.725 429.245,313.875 430.667,311.103 432.09,308.416 433.512,305.822 434.934,303.328 436.357,300.941 437.779,298.669 439.201,296.518 440.624,294.494 442.046,292.604 443.469,290.853 444.891,289.247 446.313,287.79 447.736,286.489 449.158,285.347 450.581,284.368 452.003,283.556 453.425,282.914 454.848,282.445 456.27,282.152 457.693,282.036 459.115,282.099 460.537,282.343 461.96,282.767 463.382,283.372 464.804,284.157 466.227,285.122 467.649,286.266 469.072,287.587 470.494,289.083 471.916,290.751 473.339,292.587 474.761,294.59 476.184,296.753 477.606,299.074 479.028,301.547 480.451,304.167 481.873,306.927 483.295,309.823 484.718,312.848 486.14,315.994 487.563,319.254 488.985,322.622 490.407,326.088 491.83,329.645 493.252,333.284 494.675,336.997 496.097,340.775 497.519,344.608 498.942,348.486 500.364,352.401 501.786,356.343 503.209,360.302 504.631,364.267 506.054,368.228 507.476,372.177 508.898,376.102 510.321,379.993 511.743,383.84 513.165,387.633 514.588,391.363 516.01,395.018 517.433,398.591 518.855,402.07 520.277,405.446 521.7,408.711 523.122,411.855 524.544,414.87 525.967,417.746 527.389,420.477 528.811,423.054 530.234,425.469 531.656,427.716 533.078,429.788 534.501,431.679 535.923,433.382 537.346,434.892 538.768,436.204 540.19,437.315 541.613,438.219 543.035,438.913 544.457,439.395 545.88,439.662 547.302,439.711 548.724,439.542 550.147,439.154 551.569,438.546 552.992,437.719 554.414,436.674 555.836,435.411 557.259,433.934 558.681,432.244 560.103,430.345 561.526,428.24 562.948,425.933 564.37,423.43 565.793,420.735 567.215,417.854 568.637,414.794 570.06,411.562 571.482,408.163 572.905,404.607 574.327,400.902 575.749,397.055 577.172,393.076 578.594,388.975 580.016,384.761 581.439,380.444 582.861,376.034 584.283,371.543 585.706,366.981 587.128,362.359 588.55,357.689 589.973,352.983 591.395,348.251 592.818,343.506 594.24,338.761 595.662,334.026 597.085,329.314 598.507,324.637 599.929,320.007 601.352,315.436 602.774,310.936 604.196,306.519 605.619,302.196 607.041,297.979 608.464,293.878 609.886,289.906 611.308,286.072 612.731,282.387 614.153,278.861 615.575,275.504 616.998,272.326 618.42,269.334 619.842,266.538 621.265,263.946 " fill="none" stroke-opacity="1.000000" stroke-linecap="round" stroke="green" stroke-width="1.000000" />
<polyline id="id0000000548" fill="none" points="53.7353,353.024 55.1577,352.783 56.5801,352.535 58.0024,352.283 59.4248,352.029 60.8472,351.775 62.2696,351.522 63.692,351.272 65.1143,351.028 66.5367,350.791 67.9591,350.563 69.3815,350.346 70.8039,350.141 72.2263,349.95 73.6486,349.776 75.071,349.619 76.4934,349.481 77.9158,349.363 79.3382,349.268 80.7605,349.196 82.1829,349.148 83.6053,349.126 85.0277,349.13 86.4501,349.162 87.8724,349.222 89.2948,349.311 90.7172,349.429 92.1396,349.577 93.562,349.755 94.9843,349.964 96.4067,350.203 97.8291,350.472 99.2515,350.771 100.674,351.1 102.096,351.458 103.519,351.845 104.941,352.259 106.363,352.701 107.786,353.168 109.208,353.659 110.631,354.174 112.053,354.711 113.475,355.269 114.898,355.845 116.32,356.439 117.742,357.048 119.165,357.67 120.587,358.303 122.01,358.946 123.432,359.596 124.854,360.25 126.277,360.907 127.699,361.563 129.121,362.218 130.544,362.867 131.966,363.509 133.389,364.141 134.811,364.76 136.233,365.364 137.656,365.951 139.078,366.518 140.5,367.062 141.923,367.58 143.345,368.071 144.768,368.532 146.19,368.96 147.612,369.354 149.035,369.711 150.457,370.029 151.88,370.305 153.302,370.539 154.724,370.728 156.147,370.87 157.569,370.964 158.991,371.008 160.414,371.001 161.836,370.942 163.259,370.83 164.681,370.664 166.103,370.442 167.526,370.166 168.948,369.833 170.37,369.445 171.793,369 173.215,368.5 174.638,367.944 176.06,367.333 177.482,366.667 178.905,365.948 180.327,365.176 181.75,364.352 183.172,363.479 184.594,362.557 186.017,361.589 187.439,360.576 188.861,359.521 190.284,358.425 191.706,357.291 193.129,356.122 194.551,354.921 195.973,353.689 197.396,352.431 198.818,351.15 200.241,349.848 201.663,348.529 203.085,347.197 204.508,345.855 205.93,344.507 207.353,343.156 208.775,341.807 210.197,340.463 211.62,339.128 213.042,337.806 214.464,336.501 215.887,335.217 217.309,333.958 218.732,332.728 220.154,331.531 221.576,330.37 222.999,329.25 224.421,328.174 225.844,327.147 227.266,326.171 228.688,325.25 230.111,324.388 231.533,323.587 232.955,322.852 234.378,322.185 235.8,321.589 237.223,321.066 238.645,320.62 240.067,320.252 241.49,319.965 242.912,319.76 244.335,319.64 245.757,319.606 247.179,319.66 248.602,319.802 250.024,320.033 251.446,320.354 252.869,320.765 254.291,321.267 255.714,321.859 257.136,322.541 258.558,323.313 259.981,324.173 261.403,325.12 262.826,326.153 264.248,327.27 265.67,328.47 267.093,329.75 268.515,331.108 269.938,332.541 271.36,334.046 272.782,335.621 274.205,337.261 275.627,338.964 277.049,340.725 278.472,342.541 279.894,344.407 281.317,346.319 282.739,348.272 284.161,350.262 285.584,352.284 287.006,354.333 288.429,356.404 289.851,358.491 291.273,360.589 292.696,362.694 294.118,364.798 295.54,366.897 296.963,368.984 298.385,371.056 299.808,373.105 301.23,375.125 302.652,377.113 304.075,379.06 305.497,380.964 306.92,382.816 308.342,384.613 309.764,386.349 311.187,388.018 312.609,389.615 314.031,391.136 315.454,392.576 316.876,393.93 318.299,395.193 319.721,396.361 321.143,397.431 322.566,398.398 323.988,399.259 325.411,400.01 326.833,400.648 328.255,401.171 329.678,401.576 331.1,401.86 332.522,402.022 333.945,402.06 335.367,401.972 336.79,401.758 338.212,401.418 339.634,400.949 341.057,400.354 342.479,399.631 343.902,398.781 345.324,397.806 346.746,396.707 348.169,395.486 349.591,394.144 351.014,392.684 352.436,391.108 353.858,389.42 355.281,387.623 356.703,385.72 358.125,383.716 359.548,381.614 360.97,379.42 362.393,377.138 363.815,374.773 365.237,372.331 366.66,369.818 368.082,367.238 369.505,364.599 370.927,361.906 372.349,359.167 373.772,356.387 375.194,353.574 376.616,350.734 378.039,347.875 379.461,345.004 380.884,342.129 382.306,339.256 383.728,336.393 385.151,333.547 386.573,330.727 387.996,327.939 389.418,325.192 390.84,322.492 392.263,319.846 393.685,317.263 395.108,314.749 396.53,312.312 397.952,309.958 399.375,307.693 400.797,305.526 402.219,303.461 403.642,301.506 405.064,299.665 406.487,297.945 407.909,296.352 409.331,294.889 410.754,293.563 412.176,292.377 413.599,291.336 415.021,290.443 416.443,289.702 417.866,289.116 419.288,288.688 420.71,288.42 422.133,288.314 423.555,288.371 424.978,288.593 426.4,288.98 427.822,289.533 429.245,290.251 430.667,291.134 432.09,292.18 433.512,293.389 434.934,294.758 436.357,296.286 437.779,297.968 439.201,299.803 440.624,301.787 442.046,303.915 443.469,306.183 444.891,308.586 446.313,311.12 447.736,313.778 449.158,316.555 450.581,319.445 452.003,322.44 453.425,325.534 454.848,328.721 456.27,331.991 457.693,335.338 459.115,338.753 460.537,342.229 461.96,345.756 463.382,349.326 464.804,352.931 466.227,356.561 467.649,360.207 469.072,363.86 470.494,367.511 471.916,371.15 473.339,374.768 474.761,378.355 476.184,381.903 477.606,385.402 479.028,388.842 480.451,392.215 481.873,395.511 483.295,398.721 484.718,401.838 486.14,404.851 487.563,407.754 488.985,410.536 490.407,413.192 491.83,415.713 493.252,418.092 494.675,420.322 496.097,422.396 497.519,424.308 498.942,426.052 500.364,427.623 501.786,429.015 503.209,430.224 504.631,431.246 506.054,432.076 507.476,432.712 508.898,433.15 510.321,433.389 511.743,433.426 513.165,433.26 514.588,432.89 516.01,432.317 517.433,431.539 518.855,430.559 520.277,429.376 521.7,427.994 523.122,426.414 524.544,424.639 525.967,422.672 527.389,420.517 528.811,418.179 530.234,415.663 531.656,412.973 533.078,410.116 534.501,407.098 535.923,403.925 537.346,400.605 538.768,397.146 540.19,393.554 541.613,389.84 543.035,386.01 544.457,382.076 545.88,378.045 547.302,373.927 548.724,369.733 550.147,365.472 551.569,361.156 552.992,356.795 554.414,352.399 555.836,347.979 557.259,343.547 558.681,339.114 560.103,334.691 561.526,330.289 562.948,325.92 564.37,321.595 565.793,317.325 567.215,313.121 568.637,308.995 570.06,304.956 571.482,301.017 572.905,297.187 574.327,293.476 575.749,289.896 577.172,286.455 578.594,283.163 580.016,280.029 581.439,277.062 582.861,274.271 584.283,271.663 585.706,269.247 587.128,267.028 588.55,265.015 589.973,263.212 591.395,261.626 592.818,260.262 594.24,259.125 595.662,258.218 597.085,257.546 598.507,257.11 599.929,256.914 601.352,256.959 602.774,257.246 604.196,257.776 605.619,258.549 607.041,259.563 608.464,260.819 609.886,262.313 611.308,264.043 612.731,266.006 614.153,268.198 615.575,270.616 616.998,273.253 618.42,276.104 619.842,279.163 621.265,282.424 " stroke-dasharray="3.000000 3.000000" stroke-opacity="1.000000" stroke-linecap="round" stroke="red" stroke-width="1.000000" />
<polyline id="id0000000549" fill="none" points="53.7353,353.024 55.1577,352.887 56.5801,352.772 58.0024,352.679 59.4248,352.608 60.8472,352.562 62.2696,352.54 63.692,352.543 65.1143,352.571 66.5367,352.625 67.9591,352.704 69.3815,352.809 70.8039,352.939 72.2263,353.095 73.6486,353.276 75.071,353.48 76.4934,353.709 77.9158,353.961 79.3382,354.234 80.7605,354.529 82.1829,354.844 83.6053,355.177 85.0277,355.528 86.4501,355.895 87.8724,356.277 89.2948,356.671 90.7172,357.077 92.1396,357.492 93.562,357.915 94.9843,358.343 96.4067,358.775 97.8291,359.209 99.2515,359.643 100.674,360.074 102.096,360.501 103.519,360.921 104.941,361.332 106.363,361.732 107.786,362.119 109.208,362.491 110.631,362.845 112.053,363.179 113.475,363.492 114.898,363.781 116.32,364.044 117.742,364.28 119.165,364.487 120.587,364.662 122.01,364.804 123.432,364.912 124.854,364.984 126.277,365.019 127.699,365.015 129.121,364.972 130.544,364.887 131.966,364.761 133.389,364.593 134.811,364.381 136.233,364.126 137.656,363.827 139.078,363.484 140.5,363.097 141.923,362.666 143.345,362.191 144.768,361.673 146.19,361.112 147.612,360.509 149.035,359.865 150.457,359.182 151.88,358.459 153.302,357.699 154.724,356.903 156.147,356.074 157.569,355.212 158.991,354.319 160.414,353.398 161.836,352.452 163.259,351.482 164.681,350.49 166.103,349.48 167.526,348.455 168.948,347.416 170.37,346.368 171.793,345.312 173.215,344.253 174.638,343.192 176.06,342.134 177.482,341.082 178.905,340.038 180.327,339.007 181.75,337.991 183.172,336.994 184.594,336.02 186.017,335.071 187.439,334.151 188.861,333.263 190.284,332.411 191.706,331.597 193.129,330.825 194.551,330.098 195.973,329.419 197.396,328.79 198.818,328.215 200.241,327.695 201.663,327.235 203.085,326.835 204.508,326.498 205.93,326.227 207.353,326.023 208.775,325.888 210.197,325.823 211.62,325.831 213.042,325.911 214.464,326.066 215.887,326.296 217.309,326.601 218.732,326.983 220.154,327.44 221.576,327.974 222.999,328.584 224.421,329.269 225.844,330.029 227.266,330.862 228.688,331.768 230.111,332.746 231.533,333.793 232.955,334.908 234.378,336.088 235.8,337.333 237.223,338.638 238.645,340.001 240.067,341.421 241.49,342.892 242.912,344.413 244.335,345.979 245.757,347.588 247.179,349.234 248.602,350.916 250.024,352.627 251.446,354.365 252.869,356.124 254.291,357.9 255.714,359.689 257.136,361.486 258.558,363.286 259.981,365.084 261.403,366.876 262.826,368.656 264.248,370.42 265.67,372.163 267.093,373.879 268.515,375.564 269.938,377.213 271.36,378.82 272.782,380.382 274.205,381.893 275.627,383.348 277.049,384.744 278.472,386.075 279.894,387.337 281.317,388.526 282.739,389.638 284.161,390.669 285.584,391.615 287.006,392.473 288.429,393.239 289.851,393.911 291.273,394.485 292.696,394.958 294.118,395.329 295.54,395.595 296.963,395.754 298.385,395.804 299.808,395.745 301.23,395.574 302.652,395.292 304.075,394.898 305.497,394.391 306.92,393.772 308.342,393.041 309.764,392.198 311.187,391.245 312.609,390.183 314.031,389.014 315.454,387.739 316.876,386.362 318.299,384.883 319.721,383.306 321.143,381.635 322.566,379.872 323.988,378.022 325.411,376.088 326.833,374.074 328.255,371.985 329.678,369.825 331.1,367.601 332.522,365.315 333.945,362.975 335.367,360.586 336.79,358.153 338.212,355.682 339.634,353.179 341.057,350.651 342.479,348.104 343.902,345.545 345.324,342.979 346.746,340.414 348.169,337.856 349.591,335.312 351.014,332.789 352.436,330.293 353.858,327.832 355.281,325.411 356.703,323.038 358.125,320.72 359.548,318.462 360.97,316.271 362.393,314.154 363.815,312.116 365.237,310.164 366.66,308.304 368.082,306.541 369.505,304.88 370.927,303.328 372.349,301.888 373.772,300.565 375.194,299.365 376.616,298.29 378.039,297.346 379.461,296.535 380.884,295.861 382.306,295.327 383.728,294.936 385.151,294.689 386.573,294.588 387.996,294.635 389.418,294.832 390.84,295.178 392.263,295.675 393.685,296.321 395.108,297.118 396.53,298.063 397.952,299.156 399.375,300.395 400.797,301.779 402.219,303.304 403.642,304.968 405.064,306.767 406.487,308.699 407.909,310.76 409.331,312.944 410.754,315.248 412.176,317.666 413.599,320.193 415.021,322.824 416.443,325.553 417.866,328.372 419.288,331.277 420.71,334.259 422.133,337.312 423.555,340.429 424.978,343.601 426.4,346.822 427.822,350.084 429.245,353.378 430.667,356.696 432.09,360.029 433.512,363.371 434.934,366.711 436.357,370.041 437.779,373.353 439.201,376.638 440.624,379.888 442.046,383.093 443.469,386.246 444.891,389.338 446.313,392.36 447.736,395.304 449.158,398.163 450.581,400.928 452.003,403.591 453.425,406.145 454.848,408.583 456.27,410.898 457.693,413.082 459.115,415.129 460.537,417.034 461.96,418.79 463.382,420.392 464.804,421.834 466.227,423.112 467.649,424.221 469.072,425.158 470.494,425.919 471.916,426.5 473.339,426.899 474.761,427.114 476.184,427.143 477.606,426.985 479.028,426.638 480.451,426.103 481.873,425.379 483.295,424.468 484.718,423.369 486.14,422.086 487.563,420.619 488.985,418.972 490.407,417.147 491.83,415.148 493.252,412.979 494.675,410.644 496.097,408.148 497.519,405.497 498.942,402.696 500.364,399.752 501.786,396.67 503.209,393.459 504.631,390.125 506.054,386.677 507.476,383.121 508.898,379.467 510.321,375.724 511.743,371.9 513.165,368.004 514.588,364.046 516.01,360.036 517.433,355.983 518.855,351.898 520.277,347.791 521.7,343.671 523.122,339.551 524.544,335.439 525.967,331.347 527.389,327.285 528.811,323.263 530.234,319.292 531.656,315.383 533.078,311.545 534.501,307.789 535.923,304.126 537.346,300.563 538.768,297.113 540.19,293.783 541.613,290.583 543.035,287.522 544.457,284.608 545.88,281.85 547.302,279.256 548.724,276.833 550.147,274.588 551.569,272.528 552.992,270.66 554.414,268.988 555.836,267.52 557.259,266.258 558.681,265.208 560.103,264.374 561.526,263.758 562.948,263.364 564.37,263.195 565.793,263.25 567.215,263.533 568.637,264.043 570.06,264.779 571.482,265.743 572.905,266.932 574.327,268.344 575.749,269.978 577.172,271.83 578.594,273.897 580.016,276.174 581.439,278.658 582.861,281.342 584.283,284.222 585.706,287.29 587.128,290.541 588.55,293.966 589.973,297.559 591.395,301.311 592.818,305.212 594.24,309.255 595.662,313.43 597.085,317.726 598.507,322.133 599.929,326.642 601.352,331.241 602.774,335.918 604.196,340.663 605.619,345.464 607.041,350.308 608.464,355.184 609.886,360.08 611.308,364.983 612.731,369.881 614.153,374.762 615.575,379.613 616.998,384.421 618.42,389.175 619.842,393.862 621.265,398.469 " stroke-dasharray="3.000000 2.000000 1.000000 2.000000" stroke-opacity="1.000000" stroke-linecap="round" stroke="blue" stroke-width="1.000000" />
<polyline id="id0000000550" fill="none" points="53.7353,353.024 55.1577,353.182 56.5801,353.358 58.0024,353.552 59.4248,353.763 60.8472,353.988 62.2696,354.227 63.692,354.479 65.1143,354.74 66.5367,355.011 67.9591,355.288 69.3815,355.57 70.8039,355.855 72.2263,356.142 73.6486,356.428 75.071,356.712 76.4934,356.991 77.9158,357.264 79.3382,357.528 80.7605,357.783 82.1829,358.025 83.6053,358.254 85.0277,358.466 86.4501,358.661 87.8724,358.837 89.2948,358.992 90.7172,359.124 92.1396,359.233 93.562,359.316 94.9843,359.372 96.4067,359.4 97.8291,359.399 99.2515,359.368 100.674,359.306 102.096,359.211 103.519,359.084 104.941,358.924 106.363,358.73 107.786,358.502 109.208,358.24 110.631,357.944 112.053,357.613 113.475,357.249 114.898,356.851 116.32,356.42 117.742,355.957 119.165,355.463 120.587,354.938 122.01,354.383 123.432,353.8 124.854,353.191 126.277,352.555 127.699,351.896 129.121,351.215 130.544,350.514 131.966,349.794 133.389,349.058 134.811,348.308 136.233,347.546 137.656,346.774 139.078,345.996 140.5,345.213 141.923,344.427 143.345,343.643 144.768,342.862 146.19,342.087 147.612,341.32 149.035,340.566 150.457,339.825 151.88,339.102 153.302,338.399 154.724,337.719 156.147,337.064 157.569,336.437 158.991,335.841 160.414,335.279 161.836,334.753 163.259,334.265 164.681,333.819 166.103,333.416 167.526,333.059 168.948,332.749 170.37,332.49 171.793,332.282 173.215,332.128 174.638,332.028 176.06,331.986 177.482,332.001 178.905,332.075 180.327,332.21 181.75,332.405 183.172,332.663 184.594,332.982 186.017,333.364 187.439,333.808 188.861,334.315 190.284,334.884 191.706,335.515 193.129,336.207 194.551,336.959 195.973,337.77 197.396,338.64 198.818,339.566 200.241,340.547 201.663,341.581 203.085,342.666 204.508,343.8 205.93,344.98 207.353,346.205 208.775,347.471 210.197,348.775 211.62,350.114 213.042,351.486 214.464,352.887 215.887,354.313 217.309,355.76 218.732,357.226 220.154,358.706 221.576,360.197 222.999,361.693 224.421,363.193 225.844,364.69 227.266,366.181 228.688,367.662 230.111,369.128 231.533,370.576 232.955,372 234.378,373.397 235.8,374.762 237.223,376.091 238.645,377.381 240.067,378.625 241.49,379.822 242.912,380.966 244.335,382.054 245.757,383.082 247.179,384.047 248.602,384.944 250.024,385.77 251.446,386.523 252.869,387.199 254.291,387.795 255.714,388.308 257.136,388.737 258.558,389.078 259.981,389.329 261.403,389.49 262.826,389.557 264.248,389.53 265.67,389.407 267.093,389.187 268.515,388.871 269.938,388.457 271.36,387.945 272.782,387.336 274.205,386.629 275.627,385.826 277.049,384.927 278.472,383.934 279.894,382.848 281.317,381.671 282.739,380.405 284.161,379.052 285.584,377.615 287.006,376.096 288.429,374.499 289.851,372.827 291.273,371.083 292.696,369.272 294.118,367.397 295.54,365.462 296.963,363.472 298.385,361.432 299.808,359.347 301.23,357.221 302.652,355.059 304.075,352.868 305.497,350.651 306.92,348.416 308.342,346.167 309.764,343.911 311.187,341.653 312.609,339.399 314.031,337.155 315.454,334.928 316.876,332.722 318.299,330.545 319.721,328.403 321.143,326.3 322.566,324.244 323.988,322.239 325.411,320.293 326.833,318.41 328.255,316.596 329.678,314.857 331.1,313.198 332.522,311.623 333.945,310.139 335.367,308.75 336.79,307.46 338.212,306.274 339.634,305.195 341.057,304.229 342.479,303.377 343.902,302.645 345.324,302.034 346.746,301.548 348.169,301.188 349.591,300.958 351.014,300.859 352.436,300.892 353.858,301.059 355.281,301.36 356.703,301.796 358.125,302.368 359.548,303.074 360.97,303.914 362.393,304.887 363.815,305.993 365.237,307.228 366.66,308.592 368.082,310.082 369.505,311.695 370.927,313.428 372.349,315.278 373.772,317.24 375.194,319.311 376.616,321.487 378.039,323.762 379.461,326.132 380.884,328.591 382.306,331.134 383.728,333.755 385.151,336.448 386.573,339.206 387.996,342.023 389.418,344.892 390.84,347.806 392.263,350.758 393.685,353.741 395.108,356.747 396.53,359.769 397.952,362.799 399.375,365.829 400.797,368.851 402.219,371.859 403.642,374.842 405.064,377.795 406.487,380.709 407.909,383.576 409.331,386.389 410.754,389.139 412.176,391.819 413.599,394.423 415.021,396.941 416.443,399.368 417.866,401.697 419.288,403.92 420.71,406.031 422.133,408.024 423.555,409.893 424.978,411.632 426.4,413.236 427.822,414.699 429.245,416.016 430.667,417.184 432.09,418.198 433.512,419.054 434.934,419.749 436.357,420.28 437.779,420.644 439.201,420.84 440.624,420.865 442.046,420.718 443.469,420.398 444.891,419.906 446.313,419.24 447.736,418.401 449.158,417.391 450.581,416.21 452.003,414.86 453.425,413.345 454.848,411.665 456.27,409.825 457.693,407.828 459.115,405.678 460.537,403.38 461.96,400.938 463.382,398.358 464.804,395.644 466.227,392.804 467.649,389.844 469.072,386.77 470.494,383.589 471.916,380.31 473.339,376.938 474.761,373.484 476.184,369.954 477.606,366.357 479.028,362.703 480.451,358.999 481.873,355.256 483.295,351.482 484.718,347.687 486.14,343.88 487.563,340.071 488.985,336.27 490.407,332.486 491.83,328.73 493.252,325.01 494.675,321.338 496.097,317.721 497.519,314.171 498.942,310.695 500.364,307.305 501.786,304.008 503.209,300.815 504.631,297.733 506.054,294.771 507.476,291.938 508.898,289.242 510.321,286.689 511.743,284.289 513.165,282.047 514.588,279.97 516.01,278.065 517.433,276.338 518.855,274.794 520.277,273.438 521.7,272.274 523.122,271.308 524.544,270.542 525.967,269.979 527.389,269.623 528.811,269.476 530.234,269.538 531.656,269.812 533.078,270.297 534.501,270.994 535.923,271.902 537.346,273.021 538.768,274.348 540.19,275.881 541.613,277.618 543.035,279.556 544.457,281.69 545.88,284.016 547.302,286.531 548.724,289.227 550.147,292.1 551.569,295.143 552.992,298.35 554.414,301.713 555.836,305.225 557.259,308.877 558.681,312.661 560.103,316.568 561.526,320.59 562.948,324.715 564.37,328.936 565.793,333.24 567.215,337.619 568.637,342.06 570.06,346.554 571.482,351.089 572.905,355.654 574.327,360.237 575.749,364.828 577.172,369.413 578.594,373.982 580.016,378.524 581.439,383.025 582.861,387.476 584.283,391.863 585.706,396.176 587.128,400.404 588.55,404.534 589.973,408.557 591.395,412.462 592.818,416.237 594.24,419.873 595.662,423.36 597.085,426.687 598.507,429.847 599.929,432.83 601.352,435.627 602.774,438.231 604.196,440.633 605.619,442.827 607.041,444.807 608.464,446.565 609.886,448.097 611.308,449.397 612.731,450.461 614.153,451.285 615.575,451.866 616.998,452.2 618.42,452.287 619.842,452.124 621.265,451.711 " stroke-dasharray="1.000000 2.000000" stroke-opacity="1.000000" stroke-linecap="round" stroke="yellow" stroke-width="1.000000" />
<polyline id="id0000000551" points="53.7353,353.024 55.1577,353.258 56.5801,353.483 58.0024,353.696 59.4248,353.897 60.8472,354.083 62.2696,354.253 63.692,354.405 65.1143,354.538 66.5367,354.652 67.9591,354.744 69.3815,354.813 70.8039,354.859 72.2263,354.881 73.6486,354.877 75.071,354.847 76.4934,354.791 77.9158,354.708 79.3382,354.598 80.7605,354.461 82.1829,354.296 83.6053,354.103 85.0277,353.884 86.4501,353.637 87.8724,353.365 89.2948,353.066 90.7172,352.742 92.1396,352.394 93.562,352.022 94.9843,351.629 96.4067,351.214 97.8291,350.779 99.2515,350.326 100.674,349.856 102.096,349.371 103.519,348.873 104.941,348.363 106.363,347.843 107.786,347.315 109.208,346.782 110.631,346.244 112.053,345.706 113.475,345.168 114.898,344.633 116.32,344.103 117.742,343.581 119.165,343.069 120.587,342.569 122.01,342.084 123.432,341.616 124.854,341.167 126.277,340.74 127.699,340.336 129.121,339.959 130.544,339.61 131.966,339.291 133.389,339.004 134.811,338.752 136.233,338.536 137.656,338.359 139.078,338.22 140.5,338.124 141.923,338.07 143.345,338.06 144.768,338.095 146.19,338.177 147.612,338.306 149.035,338.484 150.457,338.71 151.88,338.985 153.302,339.311 154.724,339.686 156.147,340.111 157.569,340.586 158.991,341.11 160.414,341.683 161.836,342.305 163.259,342.974 164.681,343.689 166.103,344.45 167.526,345.255 168.948,346.102 170.37,346.99 171.793,347.917 173.215,348.881 174.638,349.88 176.06,350.912 177.482,351.974 178.905,353.063 180.327,354.178 181.75,355.314 183.172,356.47 184.594,357.642 186.017,358.827 187.439,360.021 188.861,361.223 190.284,362.427 191.706,363.63 193.129,364.83 194.551,366.022 195.973,367.203 197.396,368.369 198.818,369.516 200.241,370.642 201.663,371.742 203.085,372.812 204.508,373.849 205.93,374.85 207.353,375.811 208.775,376.729 210.197,377.599 211.62,378.42 213.042,379.187 214.464,379.898 215.887,380.549 217.309,381.138 218.732,381.663 220.154,382.12 221.576,382.507 222.999,382.823 224.421,383.064 225.844,383.23 227.266,383.318 228.688,383.327 230.111,383.256 231.533,383.103 232.955,382.869 234.378,382.551 235.8,382.151 237.223,381.667 238.645,381.1 240.067,380.451 241.49,379.719 242.912,378.905 244.335,378.011 245.757,377.038 247.179,375.987 248.602,374.86 250.024,373.66 251.446,372.388 252.869,371.046 254.291,369.638 255.714,368.167 257.136,366.635 258.558,365.045 259.981,363.402 261.403,361.71 262.826,359.971 264.248,358.19 265.67,356.371 267.093,354.52 268.515,352.639 269.938,350.734 271.36,348.811 272.782,346.872 274.205,344.925 275.627,342.973 277.049,341.022 278.472,339.077 279.894,337.144 281.317,335.227 282.739,333.333 284.161,331.466 285.584,329.631 287.006,327.835 288.429,326.082 289.851,324.377 291.273,322.725 292.696,321.132 294.118,319.602 295.54,318.141 296.963,316.752 298.385,315.441 299.808,314.211 301.23,313.068 302.652,312.014 304.075,311.054 305.497,310.191 306.92,309.429 308.342,308.77 309.764,308.218 311.187,307.776 312.609,307.444 314.031,307.227 315.454,307.125 316.876,307.14 318.299,307.273 319.721,307.525 321.143,307.897 322.566,308.389 323.988,309.001 325.411,309.732 326.833,310.582 328.255,311.55 329.678,312.634 331.1,313.834 332.522,315.146 333.945,316.569 335.367,318.1 336.79,319.736 338.212,321.473 339.634,323.309 341.057,325.24 342.479,327.261 343.902,329.368 345.324,331.556 346.746,333.821 348.169,336.156 349.591,338.558 351.014,341.02 352.436,343.536 353.858,346.101 355.281,348.708 356.703,351.35 358.125,354.022 359.548,356.716 360.97,359.426 362.393,362.145 363.815,364.865 365.237,367.581 366.66,370.284 368.082,372.968 369.505,375.625 370.927,378.249 372.349,380.832 373.772,383.368 375.194,385.848 376.616,388.267 378.039,390.618 379.461,392.893 380.884,395.087 382.306,397.193 383.728,399.204 385.151,401.115 386.573,402.92 387.996,404.614 389.418,406.191 390.84,407.646 392.263,408.974 393.685,410.171 395.108,411.232 396.53,412.154 397.952,412.934 399.375,413.567 400.797,414.052 402.219,414.385 403.642,414.565 405.064,414.591 406.487,414.459 407.909,414.171 409.331,413.725 410.754,413.121 412.176,412.359 413.599,411.441 415.021,410.367 416.443,409.138 417.866,407.758 419.288,406.227 420.71,404.55 422.133,402.729 423.555,400.767 424.978,398.669 426.4,396.439 427.822,394.082 429.245,391.602 430.667,389.006 432.09,386.299 433.512,383.487 434.934,380.576 436.357,377.574 437.779,374.487 439.201,371.323 440.624,368.089 442.046,364.792 443.469,361.442 444.891,358.046 446.313,354.612 447.736,351.15 449.158,347.667 450.581,344.172 452.003,340.675 453.425,337.184 454.848,333.708 456.27,330.256 457.693,326.838 459.115,323.461 460.537,320.136 461.96,316.871 463.382,313.674 464.804,310.555 466.227,307.522 467.649,304.583 469.072,301.747 470.494,299.02 471.916,296.412 473.339,293.929 474.761,291.579 476.184,289.368 477.606,287.304 479.028,285.392 480.451,283.638 481.873,282.049 483.295,280.628 484.718,279.38 486.14,278.311 487.563,277.424 488.985,276.722 490.407,276.209 491.83,275.886 493.252,275.757 494.675,275.822 496.097,276.082 497.519,276.539 498.942,277.192 500.364,278.041 501.786,279.085 503.209,280.322 504.631,281.751 506.054,283.37 507.476,285.174 508.898,287.161 510.321,289.327 511.743,291.668 513.165,294.178 514.588,296.853 516.01,299.686 517.433,302.671 518.855,305.802 520.277,309.071 521.7,312.471 523.122,315.994 524.544,319.633 525.967,323.377 527.389,327.22 528.811,331.15 530.234,335.159 531.656,339.238 533.078,343.375 534.501,347.562 535.923,351.787 537.346,356.04 538.768,360.311 540.19,364.589 541.613,368.862 543.035,373.121 544.457,377.353 545.88,381.549 547.302,385.697 548.724,389.787 550.147,393.807 551.569,397.748 552.992,401.598 554.414,405.348 555.836,408.987 557.259,412.506 558.681,415.895 560.103,419.144 561.526,422.245 562.948,425.188 564.37,427.967 565.793,430.571 567.215,432.995 568.637,435.23 570.06,437.27 571.482,439.11 572.905,440.742 574.327,442.162 575.749,443.366 577.172,444.348 578.594,445.105 580.016,445.634 581.439,445.932 582.861,445.998 584.283,445.83 585.706,445.428 587.128,444.79 588.55,443.917 589.973,442.811 591.395,441.472 592.818,439.904 594.24,438.108 595.662,436.089 597.085,433.849 598.507,431.394 599.929,428.729 601.352,425.859 602.774,422.791 604.196,419.531 605.619,416.086 607.041,412.465 608.464,408.676 609.886,404.727 611.308,400.627 612.731,396.386 614.153,392.015 615.575,387.523 616.998,382.922 618.42,378.221 619.842,373.434 621.265,368.571 " fill="none" stroke-opacity="1.000000" stroke-linecap="round" stroke="black" stroke-width="1.000000" />
<g id="id0000000141" >
<g opacity="1.000000" fill="green" stroke="black" stroke-width="0.000000" id="id0000000142" >
</g>

<g opacity="1.000000" fill="green" stroke="black" stroke-width="0.000000" id="id0000000143" >
</g>

<g opacity="1.000000" fill="green" stroke="black" stroke-width="0.000000" id="id0000000144" >
</g>

<g opacity="1.000000" fill="green" stroke="black" stroke-width="0.000000" id="id0000000145" >
</g>

<g opacity="1.000000" fill="green" stroke="black" stroke-width="0.000000" id="id0000000146" >
</g>

<g opacity="1.000000" fill="green" stroke="black" stroke-width="0.000000" id="id0000000147" >
</g>

<g opacity="1.000000" fill="green" stroke="black" stroke-width="0.000000" id="id0000000148" >
</g>

<g opacity="1.000000" fill="green" stroke="black" stroke-width="0.000000" id="id0000000149" >
</g>

<g opacity="1.000000" fill="green" stroke="black" stroke-width="0.000000" id="id0000000150" >
</g>

<g opacity="1.000000" fill="green" stroke="black" stroke-width="0.000000" id="id0000000151" >
</g>

<g opacity="1.000000" fill="green" stroke="black" stroke-width="0.000000" id="id0000000152" >
</g>

<g opacity="1.000000" fill="green" stroke="black" stroke-width="0.000000" id="id0000000153" >
</g>

<g opacity="1.000000" fill="green" stroke="black" stroke-width="0.000000" id="id0000000154" >
</g>

<g opacity="1.000000" fill="green" stroke="black" stroke-width="0.000000" id="id0000000155" >
</g>

<g opacity="1.000000" fill="green" stroke="black" stroke-width="0.000000" id="id0000000156" >
</g>

<g opacity="1.000000" fill="green" stroke="black" stroke-width="0.000000" id="id0000000157" >
</g>

<g opacity="1.000000" fill="green" stroke="black" stroke-width="0.000000" id="id0000000158" >
</g>

<g opacity="1.000000" fill="green" stroke="black" stroke-width="0.000000" id="id0000000159" >
</g>

<g opacity="1.000000" fill="green" stroke="black" stroke-width="0.000000" id="id0000000160" >
</g>

<g opacity="1.000000" fill="green" stroke="black" stroke-width="0.000000" id="id0000000161" >
</g>

<g opacity="1.000000" fill="green" stroke="black" stroke-width="0.000000" id="id0000000162" >
</g>

<g opacity="1.000000" fill="green" stroke="black" stroke-width="0.000000" id="id0000000163" >
</g>

<g opacity="1.000000" fill="green" stroke="black" stroke-width="0.000000" id="id0000000164" >
</g>

<g opacity="1.000000" fill="green" stroke="black" stroke-width="0.000000" id="id0000000165" >
</g>

<g opacity="1.000000" fill="green" stroke="black" stroke-width="0.000000" id="id0000000166" >
</g>

<g opacity="1.000000" fill="green" stroke="black" stroke-width="0.000000" id="id0000000167" >
</g>

<g opacity="1.000000" fill="green" stroke="black" stroke-width="0.000000" id="id0000000168" >
</g>

<g opacity="1.000000" fill="green" stroke="black" stroke-width="0.000000" id="id0000000169" >
</g>

<g opacity="1.000000" fill="green" stroke="black" stroke-width="0.000000" id="id0000000170" >
</g>

<g opacity="1.000000" fill="green" stroke="black" stroke-width="0.000000" id="id0000000171" >
</g>

<g opacity="1.000000" fill="green" stroke="black" stroke-width="0.000000" id="id0000000172" >
</g>

<g opacity="1.000000" fill="green" stroke="black" stroke-width="0.000000" id="id0000000173" >
</g>

<g opacity="1.000000" fill="green" stroke="black" stroke-width="0.000000" id="id0000000174" >
</g>

<g opacity="1.000000" fill="green" stroke="black" stroke-width="0.000000" id="id0000000175" >
</g>

<g opacity="1.000000" fill="green" stroke="black" stroke-width="0.000000" id="id0000000176" >
</g>

<g opacity="1.000000" fill="green" stroke="black" stroke-width="0.000000" id="id0000000177" >
</g>

<g opacity="1.000000" fill="green" stroke="black" stroke-width="0.000000" id="id0000000178" >
</g>

<g opacity="1.000000" fill="green" stroke="black" stroke-width="0.000000" id="id0000000179" >
</g>

<g opacity="1.000000" fill="green" stroke="black" stroke-width="0.000000" id="id0000000180" >
</g>

<g opacity="1.000000" fill="green" stroke="black" stroke-width="0.000000" id="id0000000181" >
</g>

<g opacity="1.000000" fill="green" stroke="black" stroke-width="0.000000" id="id0000000182" >
</g>

<g opacity="1.000000" fill="green" stroke="black" stroke-width="0.000000" id="id0000000183" >
</g>

<g opacity="1.000000" fill="green" stroke="black" stroke-width="0.000000" id="id0000000184" >
</g>

<g opacity="1.000000" fill="green" stroke="black" stroke-width="0.000000" id="id0000000185" >
</g>

<g opacity="1.000000" fill="green" stroke="black" stroke-width="0.000000" id="id0000000186" >
</g>

<g opacity="1.000000" fill="green" stroke="black" stroke-width="0.000000" id="id0000000187" >
</g>

<g opacity="1.000000" fill="green" stroke="black" stroke-width="0.000000" id="id0000000188" >
</g>

<g opacity="1.000000" fill="green" stroke="black" stroke-width="0.000000" id="id0000000189" >
</g>

<g opacity="1.000000" fill="green" stroke="black" stroke-width="0.000000" id="id0000000190" >
</g>

<g opacity="1.000000" fill="green" stroke="black" stroke-width="0.000000" id="id0000000191" >
</g>

<g opacity="1.000000" fill="green" stroke="black" stroke-width="0.000000" id="id0000000192" >
</g>

<g opacity="1.000000" fill="green" stroke="black" stroke-width="0.000000" id="id0000000193" >
</g>

<g opacity="1.000000" fill="green" stroke="black" stroke-width="0.000000" id="id0000000194" >
</g>

<g opacity="1.000000" fill="green" stroke="black" stroke-width="0.000000" id="id0000000195" >
</g>

<g opacity="1.000000" fill="green" stroke="black" stroke-width="0.000000" id="id0000000196" >
</g>

<g opacity="1.000000" fill="green" stroke="black" stroke-width="0.000000" id="id0000000197" >
</g>

<g opacity="1.000000" fill="green" stroke="black" stroke-width="0.000000" id="id0000000198" >
</g>

<g opacity="1.000000" fill="green" stroke="black" stroke-width="0.000000" id="id0000000199" >
</g>

<g opacity="1.000000" fill="green" stroke="black" stroke-width="0.000000" id="id0000000200" >
</g>

<g opacity="1.000000" fill="green" stroke="black" stroke-width="0.000000" id="id0000000201" >
</g>

<g opacity="1.000000" fill="green" stroke="black" stroke-width="0.000000" id="id0000000202" >
</g>

<g opacity="1.000000" fill="green" stroke="black" stroke-width="0.000000" id="id0000000203" >
</g>

<g opacity="1.000000" fill="green" stroke="black" stroke-width="0.000000" id="id0000000204" >
</g>

<g opacity="1.000000" fill="green" stroke="black" stroke-width="0.000000" id="id0000000205" >
</g>

<g opacity="1.000000" fill="green" stroke="black" stroke-width="0.000000" id="id0000000206" >
</g>

<g opacity="1.000000" fill="green" stroke="black" stroke-width="0.000000" id="id0000000207" >
</g>

<g opacity="1.000000" fill="green" stroke="black" stroke-width="0.000000" id="id0000000208" >
</g>

<g opacity="1.000000" fill="green" stroke="black" stroke-width="0.000000" id="id0000000209" >
</g>

<g opacity="1.000000" fill="green" stroke="black" stroke-width="0.000000" id="id0000000210" >
</g>

<g opacity="1.000000" fill="green" stroke="black" stroke-width="0.000000" id="id0000000211" >
</g>

<g opacity="1.000000" fill="green" stroke="black" stroke-width="0.000000" id="id0000000212" >
</g>

<g opacity="1.000000" fill="green" stroke="black" stroke-width="0.000000" id="id0000000213" >
</g>

<g opacity="1.000000" fill="green" stroke="black" stroke-width="0.000000" id="id0000000214" >
</g>

<g opacity="1.000000" fill="green" stroke="black" stroke-width="0.000000" id="id0000000215" >
</g>

<g opacity="1.000000" fill="green" stroke="black" stroke-width="0.000000" id="id0000000216" >
</g>

<g opacity="1.000000" fill="green" stroke="black" stroke-width="0.000000" id="id0000000217" >
</g>

<g opacity="1.000000" fill="green" stroke="black" stroke-width="0.000000" id="id0000000218" >
</g>

<g opacity="1.000000" fill="green" stroke="black" stroke-width="0.000000" id="id0000000219" >
</g>

<g opacity="1.000000" fill="green" stroke="black" stroke-width="0.000000" id="id0000000220" >
</g>

<g opacity="1.000000" fill="green" stroke="black" stroke-width="0.000000" id="id0000000221" >
</g>

</g>

<g id="id0000000222" >
<g opacity="1.000000" fill="red" stroke="black" stroke-width="0.000000" id="id0000000223" >
</g>

<g opacity="1.000000" fill="red" stroke="black" stroke-width="0.000000" id="id0000000224" >
</g>

<g opacity="1.000000" fill="red" stroke="black" stroke-width="0.000000" id="id0000000225" >
</g>

<g opacity="1.000000" fill="red" stroke="black" stroke-width="0.000000" id="id0000000226" >
</g>

<g opacity="1.000000" fill="red" stroke="black" stroke-width="0.000000" id="id0000000227" >
</g>

<g opacity="1.000000" fill="red" stroke="black" stroke-width="0.000000" id="id0000000228" >
</g>

<g opacity="1.000000" fill="red" stroke="black" stroke-width="0.000000" id="id0000000229" >
</g>

<g opacity="1.000000" fill="red" stroke="black" stroke-width="0.000000" id="id0000000230" >
</g>

<g opacity="1.000000" fill="red" stroke="black" stroke-width="0.000000" id="id0000000231" >
</g>

<g opacity="1.000000" fill="red" stroke="black" stroke-width="0.000000" id="id0000000232" >
</g>

<g opacity="1.000000" fill="red" stroke="black" stroke-width="0.000000" id="id0000000233" >
</g>

<g opacity="1.000000" fill="red" stroke="black" stroke-width="0.000000" id="id0000000234" >
</g>

<g opacity="1.000000" fill="red" stroke="black" stroke-width="0.000000" id="id0000000235" >
</g>

<g opacity="1.000000" fill="red" stroke="black" stroke-width="0.000000" id="id0000000236" >
</g>

<g opacity="1.000000" fill="red" stroke="black" stroke-width="0.000000" id="id0000000237" >
</g>

<g opacity="1.000000" fill="red" stroke="black" stroke-width="0.000000" id="id0000000238" >
</g>

<g opacity="1.000000" fill="red" stroke="black" stroke-width="0.000000" id="id0000000239" >
</g>

<g opacity="1.000000" fill="red" stroke="black" stroke-width="0.000000" id="id0000000240" >
</g>

<g opacity="1.000000" fill="red" stroke="black" stroke-width="0.000000" id="id0000000241" >
</g>

<g opacity="1.000000" fill="red" stroke="black" stroke-width="0.000000" id="id0000000242" >
</g>

<g opacity="1.000000" fill="red" stroke="black" stroke-width="0.000000" id="id0000000243" >
</g>

<g opacity="1.000000" fill="red" stroke="black" stroke-width="0.000000" id="id0000000244" >
</g>

<g opacity="1.000000" fill="red" stroke="black" stroke-width="0.000000" id="id0000000245" >
</g>

<g opacity="1.000000" fill="red" stroke="black" stroke-width="0.000000" id="id0000000246" >
</g>

<g opacity="1.000000" fill="red" stroke="black" stroke-width="0.000000" id="id0000000247" >
</g>

<g opacity="1.000000" fill="red" stroke="black" stroke-width="0.000000" id="id0000000248" >
</g>

<g opacity="1.000000" fill="red" stroke="black" stroke-width="0.000000" id="id0000000249" >
</g>

<g opacity="1.000000" fill="red" stroke="black" stroke-width="0.000000" id="id0000000250" >
</g>

<g opacity="1.000000" fill="red" stroke="black" stroke-width="0.000000" id="id0000000251" >
</g>

<g opacity="1.000000" fill="red" stroke="black" stroke-width="0.000000" id="id0000000252" >
</g>

<g opacity="1.000000" fill="red" stroke="black" stroke-width="0.000000" id="id0000000253" >
</g>

<g opacity="1.000000" fill="red" stroke="black" stroke-width="0.000000" id="id0000000254" >
</g>

<g opacity="1.000000" fill="red" stroke="black" stroke-width="0.000000" id="id0000000255" >
</g>

<g opacity="1.000000" fill="red" stroke="black" stroke-width="0.000000" id="id0000000256" >
</g>

<g opacity="1.000000" fill="red" stroke="black" stroke-width="0.000000" id="id0000000257" >
</g>

<g opacity="1.000000" fill="red" stroke="black" stroke-width="0.000000" id="id0000000258" >
</g>

<g opacity="1.000000" fill="red" stroke="black" stroke-width="0.000000" id="id0000000259" >
</g>

<g opacity="1.000000" fill="red" stroke="black" stroke-width="0.000000" id="id0000000260" >
</g>

<g opacity="1.000000" fill="red" stroke="black" stroke-width="0.000000" id="id0000000261" >
</g>

<g opacity="1.000000" fill="red" stroke="black" stroke-width="0.000000" id="id0000000262" >
</g>

<g opacity="1.000000" fill="red" stroke="black" stroke-width="0.000000" id="id0000000263" >
</g>

<g opacity="1.000000" fill="red" stroke="black" stroke-width="0.000000" id="id0000000264" >
</g>

<g opacity="1.000000" fill="red" stroke="black" stroke-width="0.000000" id="id0000000265" >
</g>

<g opacity="1.000000" fill="red" stroke="black" stroke-width="0.000000" id="id0000000266" >
</g>

<g opacity="1.000000" fill="red" stroke="black" stroke-width="0.000000" id="id0000000267" >
</g>

<g opacity="1.000000" fill="red" stroke="black" stroke-width="0.000000" id="id0000000268" >
</g>

<g opacity="1.000000" fill="red" stroke="black" stroke-width="0.000000" id="id0000000269" >
</g>

<g opacity="1.000000" fill="red" stroke="black" stroke-width="0.000000" id="id0000000270" >
</g>

<g opacity="1.000000" fill="red" stroke="black" stroke-width="0.000000" id="id0000000271" >
</g>

<g opacity="1.000000" fill="red" stroke="black" stroke-width="0.000000" id="id0000000272" >
</g>

<g opacity="1.000000" fill="red" stroke="black" stroke-width="0.000000" id="id0000000273" >
</g>

<g opacity="1.000000" fill="red" stroke="black" stroke-width="0.000000" id="id0000000274" >
</g>

<g opacity="1.000000" fill="red" stroke="black" stroke-width="0.000000" id="id0000000275" >
</g>

<g opacity="1.000000" fill="red" stroke="black" stroke-width="0.000000" id="id0000000276" >
</g>

<g opacity="1.000000" fill="red" stroke="black" stroke-width="0.000000" id="id0000000277" >
</g>

<g opacity="1.000000" fill="red" stroke="black" stroke-width="0.000000" id="id0000000278" >
</g>

<g opacity="1.000000" fill="red" stroke="black" stroke-width="0.000000" id="id0000000279" >
</g>

<g opacity="1.000000" fill="red" stroke="black" stroke-width="0.000000" id="id0000000280" >
</g>

<g opacity="1.000000" fill="red" stroke="black" stroke-width="0.000000" id="id0000000281" >
</g>

<g opacity="1.000000" fill="red" stroke="black" stroke-width="0.000000" id="id0000000282" >
</g>

<g opacity="1.000000" fill="red" stroke="black" stroke-width="0.000000" id="id0000000283" >
</g>

<g opacity="1.000000" fill="red" stroke="black" stroke-width="0.000000" id="id0000000284" >
</g>

<g opacity="1.000000" fill="red" stroke="black" stroke-width="0.000000" id="id0000000285" >
</g>

<g opacity="1.000000" fill="red" stroke="black" stroke-width="0.000000" id="id0000000286" >
</g>

<g opacity="1.000000" fill="red" stroke="black" stroke-width="0.000000" id="id0000000287" >
</g>

<g opacity="1.000000" fill="red" stroke="black" stroke-width="0.000000" id="id0000000288" >
</g>

<g opacity="1.000000" fill="red" stroke="black" stroke-width="0.000000" id="id0000000289" >
</g>

<g opacity="1.000000" fill="red" stroke="black" stroke-width="0.000000" id="id0000000290" >
</g>

<g opacity="1.000000" fill="red" stroke="black" stroke-width="0.000000" id="id0000000291" >
</g>

<g opacity="1.000000" fill="red" stroke="black" stroke-width="0.000000" id="id0000000292" >
</g>

<g opacity="1.000000" fill="red" stroke="black" stroke-width="0.000000" id="id0000000293" >
</g>

<g opacity="1.000000" fill="red" stroke="black" stroke-width="0.000000" id="id0000000294" >
</g>

<g opacity="1.000000" fill="red" stroke="black" stroke-width="0.000000" id="id0000000295" >
</g>

<g opacity="1.000000" fill="red" stroke="black" stroke-width="0.000000" id="id0000000296" >
</g>

<g opacity="1.000000" fill="red" stroke="black" stroke-width="0.000000" id="id0000000297" >
</g>

<g opacity="1.000000" fill="red" stroke="black" stroke-width="0.000000" id="id0000000298" >
</g>

<g opacity="1.000000" fill="red" stroke="black" stroke-width="0.000000" id="id0000000299" >
</g>

<g opacity="1.000000" fill="red" stroke="black" stroke-width="0.000000" id="id0000000300" >
</g>

<g opacity="1.000000" fill="red" stroke="black" stroke-width="0.000000" id="id0000000301" >
</g>

<g opacity="1.000000" fill="red" stroke="black" stroke-width="0.000000" id="id0000000302" >
</g>

</g>

<g id="id0000000303" >
<g opacity="1.000000" fill="blue" stroke="black" stroke-width="0.000000" id="id0000000304" >
</g>

<g opacity="1.000000" fill="blue" stroke="black" stroke-width="0.000000" id="id0000000305" >
</g>

<g opacity="1.000000" fill="blue" stroke="black" stroke-width="0.000000" id="id0000000306" >
</g>

<g opacity="1.000000" fill="blue" stroke="black" stroke-width="0.000000" id="id0000000307" >
</g>

<g opacity="1.000000" fill="blue" stroke="black" stroke-width="0.000000" id="id0000000308" >
</g>

<g opacity="1.000000" fill="blue" stroke="black" stroke-width="0.000000" id="id0000000309" >
</g>

<g opacity="1.000000" fill="blue" stroke="black" stroke-width="0.000000" id="id0000000310" >
</g>

<g opacity="1.000000" fill="blue" stroke="black" stroke-width="0.000000" id="id0000000311" >
</g>

<g opacity="1.000000" fill="blue" stroke="black" stroke-width="0.000000" id="id0000000312" >
</g>

<g opacity="1.000000" fill="blue" stroke="black" stroke-width="0.000000" id="id0000000313" >
</g>

<g opacity="1.000000" fill="blue" stroke="black" stroke-width="0.000000" id="id0000000314" >
</g>

<g opacity="1.000000" fill="blue" stroke="black" stroke-width="0.000000" id="id0000000315" >
</g>

<g opacity="1.000000" fill="blue" stroke="black" stroke-width="0.000000" id="id0000000316" >
</g>

<g opacity="1.000000" fill="blue" stroke="black" stroke-width="0.000000" id="id0000000317" >
</g>

<g opacity="1.000000" fill="blue" stroke="black" stroke-width="0.000000" id="id0000000318" >
</g>

<g opacity="1.000000" fill="blue" stroke="black" stroke-width="0.000000" id="id0000000319" >
</g>

<g opacity="1.000000" fill="blue" stroke="black" stroke-width="0.000000" id="id0000000320" >
</g>

<g opacity="1.000000" fill="blue" stroke="black" stroke-width="0.000000" id="id0000000321" >
</g>

<g opacity="1.000000" fill="blue" stroke="black" stroke-width="0.000000" id="id0000000322" >
</g>

<g opacity="1.000000" fill="blue" stroke="black" stroke-width="0.000000" id="id0000000323" >
</g>

<g opacity="1.000000" fill="blue" stroke="black" stroke-width="0.000000" id="id0000000324" >
</g>

<g opacity="1.000000" fill="blue" stroke="black" stroke-width="0.000000" id="id0000000325" >
</g>

<g opacity="1.000000" fill="blue" stroke="black" stroke-width="0.000000" id="id0000000326" >
</g>

<g opacity="1.000000" fill="blue" stroke="black" stroke-width="0.000000" id="id0000000327" >
</g>

<g opacity="1.000000" fill="blue" stroke="black" stroke-width="0.000000" id="id0000000328" >
</g>

<g opacity="1.000000" fill="blue" stroke="black" stroke-width="0.000000" id="id0000000329" >
</g>

<g opacity="1.000000" fill="blue" stroke="black" stroke-width="0.000000" id="id0000000330" >
</g>

<g opacity="1.000000" fill="blue" stroke="black" stroke-width="0.000000" id="id0000000331" >
</g>

<g opacity="1.000000" fill="blue" stroke="black" stroke-width="0.000000" id="id0000000332" >
</g>

<g opacity="1.000000" fill="blue" stroke="black" stroke-width="0.000000" id="id0000000333" >
</g>

<g opacity="1.000000" fill="blue" stroke="black" stroke-width="0.000000" id="id0000000334" >
</g>

<g opacity="1.000000" fill="blue" stroke="black" stroke-width="0.000000" id="id0000000335" >
</g>

<g opacity="1.000000" fill="blue" stroke="black" stroke-width="0.000000" id="id0000000336" >
</g>

<g opacity="1.000000" fill="blue" stroke="black" stroke-width="0.000000" id="id0000000337" >
</g>

<g opacity="1.000000" fill="blue" stroke="black" stroke-width="0.000000" id="id0000000338" >
</g>

<g opacity="1.000000" fill="blue" stroke="black" stroke-width="0.000000" id="id0000000339" >
</g>

<g opacity="1.000000" fill="blue" stroke="black" stroke-width="0.000000" id="id0000000340" >
</g>

<g opacity="1.000000" fill="blue" stroke="black" stroke-width="0.000000" id="id0000000341" >
</g>

<g opacity="1.000000" fill="blue" stroke="black" stroke-width="0.000000" id="id0000000342" >
</g>

<g opacity="1.000000" fill="blue" stroke="black" stroke-width="0.000000" id="id0000000343" >
</g>

<g opacity="1.000000" fill="blue" stroke="black" stroke-width="0.000000" id="id0000000344" >
</g>

<g opacity="1.000000" fill="blue" stroke="black" stroke-width="0.000000" id="id0000000345" >
</g>

<g opacity="1.000000" fill="blue" stroke="black" stroke-width="0.000000" id="id0000000346" >
</g>

<g opacity="1.000000" fill="blue" stroke="black" stroke-width="0.000000" id="id0000000347" >
</g>

<g opacity="1.000000" fill="blue" stroke="black" stroke-width="0.000000" id="id0000000348" >
</g>

<g opacity="1.000000" fill="blue" stroke="black" stroke-width="0.000000" id="id0000000349" >
</g>

<g opacity="1.000000" fill="blue" stroke="black" stroke-width="0.000000" id="id0000000350" >
</g>

<g opacity="1.000000" fill="blue" stroke="black" stroke-width="0.000000" id="id0000000351" >
</g>

<g opacity="1.000000" fill="blue" stroke="black" stroke-width="0.000000" id="id0000000352" >
</g>

<g opacity="1.000000" fill="blue" stroke="black" stroke-width="0.000000" id="id0000000353" >
</g>

<g opacity="1.000000" fill="blue" stroke="black" stroke-width="0.000000" id="id0000000354" >
</g>

<g opacity="1.000000" fill="blue" stroke="black" stroke-width="0.000000" id="id0000000355" >
</g>

<g opacity="1.000000" fill="blue" stroke="black" stroke-width="0.000000" id="id0000000356" >
</g>

<g opacity="1.000000" fill="blue" stroke="black" stroke-width="0.000000" id="id0000000357" >
</g>

<g opacity="1.000000" fill="blue" stroke="black" stroke-width="0.000000" id="id0000000358" >
</g>

<g opacity="1.000000" fill="blue" stroke="black" stroke-width="0.000000" id="id0000000359" >
</g>

<g opacity="1.000000" fill="blue" stroke="black" stroke-width="0.000000" id="id0000000360" >
</g>

<g opacity="1.000000" fill="blue" stroke="black" stroke-width="0.000000" id="id0000000361" >
</g>

<g opacity="1.000000" fill="blue" stroke="black" stroke-width="0.000000" id="id0000000362" >
</g>

<g opacity="1.000000" fill="blue" stroke="black" stroke-width="0.000000" id="id0000000363" >
</g>

<g opacity="1.000000" fill="blue" stroke="black" stroke-width="0.000000" id="id0000000364" >
</g>

<g opacity="1.000000" fill="blue" stroke="black" stroke-width="0.000000" id="id0000000365" >
</g>

<g opacity="1.000000" fill="blue" stroke="black" stroke-width="0.000000" id="id0000000366" >
</g>

<g opacity="1.000000" fill="blue" stroke="black" stroke-width="0.000000" id="id0000000367" >
</g>

<g opacity="1.000000" fill="blue" stroke="black" stroke-width="0.000000" id="id0000000368" >
</g>

<g opacity="1.000000" fill="blue" stroke="black" stroke-width="0.000000" id="id0000000369" >
</g>

<g opacity="1.000000" fill="blue" stroke="black" stroke-width="0.000000" id="id0000000370" >
</g>

<g opacity="1.000000" fill="blue" stroke="black" stroke-width="0.000000" id="id0000000371" >
</g>

<g opacity="1.000000" fill="blue" stroke="black" stroke-width="0.000000" id="id0000000372" >
</g>

<g opacity="1.000000" fill="blue" stroke="black" stroke-width="0.000000" id="id0000000373" >
</g>

<g opacity="1.000000" fill="blue" stroke="black" stroke-width="0.000000" id="id0000000374" >
</g>

<g opacity="1.000000" fill="blue" stroke="black" stroke-width="0.000000" id="id0000000375" >
</g>

<g opacity="1.000000" fill="blue" stroke="black" stroke-width="0.000000" id="id0000000376" >
</g>

<g opacity="1.000000" fill="blue" stroke="black" stroke-width="0.000000" id="id0000000377" >
</g>

<g opacity="1.000000" fill="blue" stroke="black" stroke-width="0.000000" id="id0000000378" >
</g>

<g opacity="1.000000" fill="blue" stroke="black" stroke-width="0.000000" id="id0000000379" >
</g>

<g opacity="1.000000" fill="blue" stroke="black" stroke-width="0.000000" id="id0000000380" >
</g>

<g opacity="1.000000" fill="blue" stroke="black" stroke-width="0.000000" id="id0000000381" >
</g>

<g opacity="1.000000" fill="blue" stroke="black" stroke-width="0.000000" id="id0000000382" >
</g>

<g opacity="1.000000" fill="blue" stroke="black" stroke-width="0.000000" id="id0000000383" >
</g>

</g>

<g id="id0000000384" >
<g opacity="1.000000" fill="yellow" stroke="black" stroke-width="0.000000" id="id0000000385" >
</g>

<g opacity="1.000000" fill="yellow" stroke="black" stroke-width="0.000000" id="id0000000386" >
</g>

<g opacity="1.000000" fill="yellow" stroke="black" stroke-width="0.000000" id="id0000000387" >
</g>

<g opacity="1.000000" fill="yellow" stroke="black" stroke-width="0.000000" id="id0000000388" >
</g>

<g opacity="1.000000" fill="yellow" stroke="black" stroke-width="0.000000" id="id0000000389" >
</g>

<g opacity="1.000000" fill="yellow" stroke="black" stroke-width="0.000000" id="id0000000390" >
</g>

<g opacity="1.000000" fill="yellow" stroke="black" stroke-width="0.000000" id="id0000000391" >
</g>

<g opacity="1.000000" fill="yellow" stroke="black" stroke-width="0.000000" id="id0000000392" >
</g>

<g opacity="1.000000" fill="yellow" stroke="black" stroke-width="0.000000" id="id0000000393" >
</g>

<g opacity="1.000000" fill="yellow" stroke="black" stroke-width="0.000000" id="id0000000394" >
</g>

<g opacity="1.000000" fill="yellow" stroke="black" stroke-width="0.000000" id="id0000000395" >
</g>

<g opacity="1.000000" fill="yellow" stroke="black" stroke-width="0.000000" id="id0000000396" >
</g>

<g opacity="1.000000" fill="yellow" stroke="black" stroke-width="0.000000" id="id0000000397" >
</g>

<g opacity="1.000000" fill="yellow" stroke="black" stroke-width="0.000000" id="id0000000398" >
</g>

<g opacity="1.000000" fill="yellow" stroke="black" stroke-width="0.000000" id="id0000000399" >
</g>

<g opacity="1.000000" fill="yellow" stroke="black" stroke-width="0.000000" id="id0000000400" >
</g>

<g opacity="1.000000" fill="yellow" stroke="black" stroke-width="0.000000" id="id0000000401" >
</g>

<g opacity="1.000000" fill="yellow" stroke="black" stroke-width="0.000000" id="id0000000402" >
</g>

<g opacity="1.000000" fill="yellow" stroke="black" stroke-width="0.000000" id="id0000000403" >
</g>

<g opacity="1.000000" fill="yellow" stroke="black" stroke-width="0.000000" id="id0000000404" >
</g>

<g opacity="1.000000" fill="yellow" stroke="black" stroke-width="0.000000" id="id0000000405" >
</g>

<g opacity="1.000000" fill="yellow" stroke="black" stroke-width="0.000000" id="id0000000406" >
</g>

<g opacity="1.000000" fill="yellow" stroke="black" stroke-width="0.000000" id="id0000000407" >
</g>

<g opacity="1.000000" fill="yellow" stroke="black" stroke-width="0.000000" id="id0000000408" >
</g>

<g opacity="1.000000" fill="yellow" stroke="black" stroke-width="0.000000" id="id0000000409" >
</g>

<g opacity="1.000000" fill="yellow" stroke="black" stroke-width="0.000000" id="id0000000410" >
</g>

<g opacity="1.000000" fill="yellow" stroke="black" stroke-width="0.000000" id="id0000000411" >
</g>

<g opacity="1.000000" fill="yellow" stroke="black" stroke-width="0.000000" id="id0000000412" >
</g>

<g opacity="1.000000" fill="yellow" stroke="black" stroke-width="0.000000" id="id0000000413" >
</g>

<g opacity="1.000000" fill="yellow" stroke="black" stroke-width="0.000000" id="id0000000414" >
</g>

<g opacity="1.000000" fill="yellow" stroke="black" stroke-width="0.000000" id="id0000000415" >
</g>

<g opacity="1.000000" fill="yellow" stroke="black" stroke-width="0.000000" id="id0000000416" >
</g>

<g opacity="1.000000" fill="yellow" stroke="black" stroke-width="0.000000" id="id0000000417" >
</g>

<g opacity="1.000000" fill="yellow" stroke="black" stroke-width="0.000000" id="id0000000418" >
</g>

<g opacity="1.000000" fill="yellow" stroke="black" stroke-width="0.000000" id="id0000000419" >
</g>

<g opacity="1.000000" fill="yellow" stroke="black" stroke-width="0.000000" id="id0000000420" >
</g>

<g opacity="1.000000" fill="yellow" stroke="black" stroke-width="0.000000" id="id0000000421" >
</g>

<g opacity="1.000000" fill="yellow" stroke="black" stroke-width="0.000000" id="id0000000422" >
</g>

<g opacity="1.000000" fill="yellow" stroke="black" stroke-width="0.000000" id="id0000000423" >
</g>

<g opacity="1.000000" fill="yellow" stroke="black" stroke-width="0.000000" id="id0000000424" >
</g>

<g opacity="1.000000" fill="yellow" stroke="black" stroke-width="0.000000" id="id0000000425" >
</g>

<g opacity="1.000000" fill="yellow" stroke="black" stroke-width="0.000000" id="id0000000426" >
</g>

<g opacity="1.000000" fill="yellow" stroke="black" stroke-width="0.000000" id="id0000000427" >
</g>

<g opacity="1.000000" fill="yellow" stroke="black" stroke-width="0.000000" id="id0000000428" >
</g>

<g opacity="1.000000" fill="yellow" stroke="black" stroke-width="0.000000" id="id0000000429" >
</g>

<g opacity="1.000000" fill="yellow" stroke="black" stroke-width="0.000000" id="id0000000430" >
</g>

<g opacity="1.000000" fill="yellow" stroke="black" stroke-width="0.000000" id="id0000000431" >
</g>

<g opacity="1.000000" fill="yellow" stroke="black" stroke-width="0.000000" id="id0000000432" >
</g>

<g opacity="1.000000" fill="yellow" stroke="black" stroke-width="0.000000" id="id0000000433" >
</g>

<g opacity="1.000000" fill="yellow" stroke="black" stroke-width="0.000000" id="id0000000434" >
</g>

<g opacity="1.000000" fill="yellow" stroke="black" stroke-width="0.000000" id="id0000000435" >
</g>

<g opacity="1.000000" fill="yellow" stroke="black" stroke-width="0.000000" id="id0000000436" >
</g>

<g opacity="1.000000" fill="yellow" stroke="black" stroke-width="0.000000" id="id0000000437" >
</g>

<g opacity="1.000000" fill="yellow" stroke="black" stroke-width="0.000000" id="id0000000438" >
</g>

<g opacity="1.000000" fill="yellow" stroke="black" stroke-width="0.000000" id="id0000000439" >
</g>

<g opacity="1.000000" fill="yellow" stroke="black" stroke-width="0.000000" id="id0000000440" >
</g>

<g opacity="1.000000" fill="yellow" stroke="black" stroke-width="0.000000" id="id0000000441" >
</g>

<g opacity="1.000000" fill="yellow" stroke="black" stroke-width="0.000000" id="id0000000442" >
</g>

<g opacity="1.000000" fill="yellow" stroke="black" stroke-width="0.000000" id="id0000000443" >
</g>

<g opacity="1.000000" fill="yellow" stroke="black" stroke-width="0.000000" id="id0000000444" >
</g>

<g opacity="1.000000" fill="yellow" stroke="black" stroke-width="0.000000" id="id0000000445" >
</g>

<g opacity="1.000000" fill="yellow" stroke="black" stroke-width="0.000000" id="id0000000446" >
</g>

<g opacity="1.000000" fill="yellow" stroke="black" stroke-width="0.000000" id="id0000000447" >
</g>

<g opacity="1.000000" fill="yellow" stroke="black" stroke-width="0.000000" id="id0000000448" >
</g>

<g opacity="1.000000" fill="yellow" stroke="black" stroke-width="0.000000" id="id0000000449" >
</g>

<g opacity="1.000000" fill="yellow" stroke="black" stroke-width="0.000000" id="id0000000450" >
</g>

<g opacity="1.000000" fill="yellow" stroke="black" stroke-width="0.000000" id="id0000000451" >
</g>

<g opacity="1.000000" fill="yellow" stroke="black" stroke-width="0.000000" id="id0000000452" >
</g>

<g opacity="1.000000" fill="yellow" stroke="black" stroke-width="0.000000" id="id0000000453" >
</g>

<g opacity="1.000000" fill="yellow" stroke="black" stroke-width="0.000000" id="id0000000454" >
</g>

<g opacity="1.000000" fill="yellow" stroke="black" stroke-width="0.000000" id="id0000000455" >
</g>

<g opacity="1.000000" fill="yellow" stroke="black" stroke-width="0.000000" id="id0000000456" >
</g>

<g opacity="1.000000" fill="yellow" stroke="black" stroke-width="0.000000" id="id0000000457" >
</g>

<g opacity="1.000000" fill="yellow" stroke="black" stroke-width="0.000000" id="id0000000458" >
</g>

<g opacity="1.000000" fill="yellow" stroke="black" stroke-width="0.000000" id="id0000000459" >
</g>

<g opacity="1.000000" fill="yellow" stroke="black" stroke-width="0.000000" id="id0000000460" >
</g>

<g opacity="1.000000" fill="yellow" stroke="black" stroke-width="0.000000" id="id0000000461" >
</g>

<g opacity="1.000000" fill="yellow" stroke="black" stroke-width="0.000000" id="id0000000462" >
</g>

<g opacity="1.000000" fill="yellow" stroke="black" stroke-width="0.000000" id="id0000000463" >
</g>

<g opacity="1.000000" fill="yellow" stroke="black" stroke-width="0.000000" id="id0000000464" >
</g>

</g>

<g id="id0000000465" >
<g opacity="1.000000" fill="black" stroke="black" stroke-width="0.000000" id="id0000000466" >
</g>

<g opacity="1.000000" fill="black" stroke="black" stroke-width="0.000000" id="id0000000467" >
</g>

<g opacity="1.000000" fill="black" stroke="black" stroke-width="0.000000" id="id0000000468" >
</g>

<g opacity="1.000000" fill="black" stroke="black" stroke-width="0.000000" id="id0000000469" >
</g>

<g opacity="1.000000" fill="black" stroke="black" stroke-width="0.000000" id="id0000000470" >
</g>

<g opacity="1.000000" fill="black" stroke="black" stroke-width="0.000000" id="id0000000471" >
</g>

<g opacity="1.000000" fill="black" stroke="black" stroke-width="0.000000" id="id0000000472" >
</g>

<g opacity="1.000000" fill="black" stroke="black" stroke-width="0.000000" id="id0000000473" >
</g>

<g opacity="1.000000" fill="black" stroke="black" stroke-width="0.000000" id="id0000000474" >
</g>

<g opacity="1.000000" fill="black" stroke="black" stroke-width="0.000000" id="id0000000475" >
</g>

<g opacity="1.000000" fill="black" stroke="black" stroke-width="0.000000" id="id0000000476" >
</g>

<g opacity="1.000000" fill="black" stroke="black" stroke-width="0.000000" id="id0000000477" >
</g>

<g opacity="1.000000" fill="black" stroke="black" stroke-width="0.000000" id="id0000000478" >
</g>

<g opacity="1.000000" fill="black" stroke="black" stroke-width="0.000000" id="id0000000479" >
</g>

<g opacity="1.000000" fill="black" stroke="black" stroke-width="0.000000" id="id0000000480" >
</g>

<g opacity="1.000000" fill="black" stroke="black" stroke-width="0.000000" id="id0000000481" >
</g>

<g opacity="1.000000" fill="black" stroke="black" stroke-width="0.000000" id="id0000000482" >
</g>

<g opacity="1.000000" fill="black" stroke="black" stroke-width="0.000000" id="id0000000483" >
</g>

<g opacity="1.000000" fill="black" stroke="black" stroke-width="0.000000" id="id0000000484" >
</g>

<g opacity="1.000000" fill="black" stroke="black" stroke-width="0.000000" id="id0000000485" >
</g>

<g opacity="1.000000" fill="black" stroke="black" stroke-width="0.000000" id="id0000000486" >
</g>

<g opacity="1.000000" fill="black" stroke="black" stroke-width="0.000000" id="id0000000487" >
</g>

<g opacity="1.000000" fill="black" stroke="black" stroke-width="0.000000" id="id0000000488" >
</g>

<g opacity="1.000000" fill="black" stroke="black" stroke-width="0.000000" id="id0000000489" >
</g>

<g opacity="1.000000" fill="black" stroke="black" stroke-width="0.000000" id="id0000000490" >
</g>

<g opacity="1.000000" fill="black" stroke="black" stroke-width="0.000000" id="id0000000491" >
</g>

<g opacity="1.000000" fill="black" stroke="black" stroke-width="0.000000" id="id0000000492" >
</g>

<g opacity="1.000000" fill="black" stroke="black" stroke-width="0.000000" id="id0000000493" >
</g>

<g opacity="1.000000" fill="black" stroke="black" stroke-width="0.000000" id="id0000000494" >
</g>

<g opacity="1.000000" fill="black" stroke="black" stroke-width="0.000000" id="id0000000495" >
</g>

<g opacity="1.000000" fill="black" stroke="black" stroke-width="0.000000" id="id0000000496" >
</g>

<g opacity="1.000000" fill="black" stroke="black" stroke-width="0.000000" id="id0000000497" >
</g>

<g opacity="1.000000" fill="black" stroke="black" stroke-width="0.000000" id="id0000000498" >
</g>

<g opacity="1.000000" fill="black" stroke="black" stroke-width="0.000000" id="id0000000499" >
</g>

<g opacity="1.000000" fill="black" stroke="black" stroke-width="0.000000" id="id0000000500" >
</g>

<g opacity="1.000000" fill="black" stroke="black" stroke-width="0.000000" id="id0000000501" >
</g>

<g opacity="1.000000" fill="black" stroke="black" stroke-width="0.000000" id="id0000000502" >
</g>

<g opacity="1.000000" fill="black" stroke="black" stroke-width="0.000000" id="id0000000503" >
</g>

<g opacity="1.000000" fill="black" stroke="black" stroke-width="0.000000" id="id0000000504" >
</g>

<g opacity="1.000000" fill="black" stroke="black" stroke-width="0.000000" id="id0000000505" >
</g>

<g opacity="1.000000" fill="black" stroke="black" stroke-width="0.000000" id="id0000000506" >
</g>

<g opacity="1.000000" fill="black" stroke="black" stroke-width="0.000000" id="id0000000507" >
</g>

<g opacity="1.000000" fill="black" stroke="black" stroke-width="0.000000" id="id0000000508" >
</g>

<g opacity="1.000000" fill="black" stroke="black" stroke-width="0.000000" id="id0000000509" >
</g>

<g opacity="1.000000" fill="black" stroke="black" stroke-width="0.000000" id="id0000000510" >
</g>

<g opacity="1.000000" fill="black" stroke="black" stroke-width="0.000000" id="id0000000511" >
</g>

<g opacity="1.000000" fill="black" stroke="black" stroke-width="0.000000" id="id0000000512" >
</g>

<g opacity="1.000000" fill="black" stroke="black" stroke-width="0.000000" id="id0000000513" >
</g>

<g opacity="1.000000" fill="black" stroke="black" stroke-width="0.000000" id="id0000000514" >
</g>

<g opacity="1.000000" fill="black" stroke="black" stroke-width="0.000000" id="id0000000515" >
</g>

<g opacity="1.000000" fill="black" stroke="black" stroke-width="0.000000" id="id0000000516" >
</g>

<g opacity="1.000000" fill="black" stroke="black" stroke-width="0.000000" id="id0000000517" >
</g>

<g opacity="1.000000" fill="black" stroke="black" stroke-width="0.000000" id="id0000000518" >
</g>

<g opacity="1.000000" fill="black" stroke="black" stroke-width="0.000000" id="id0000000519" >
</g>

<g opacity="1.000000" fill="black" stroke="black" stroke-width="0.000000" id="id0000000520" >
</g>

<g opacity="1.000000" fill="black" stroke="black" stroke-width="0.000000" id="id0000000521" >
</g>

<g opacity="1.000000" fill="black" stroke="black" stroke-width="0.000000" id="id0000000522" >
</g>

<g opacity="1.000000" fill="black" stroke="black" stroke-width="0.000000" id="id0000000523" >
</g>

<g opacity="1.000000" fill="black" stroke="black" stroke-width="0.000000" id="id0000000524" >
</g>

<g opacity="1.000000" fill="black" stroke="black" stroke-width="0.000000" id="id0000000525" >
</g>

<g opacity="1.000000" fill="black" stroke="black" stroke-width="0.000000" id="id0000000526" >
</g>

<g opacity="1.000000" fill="black" stroke="black" stroke-width="0.000000" id="id0000000527" >
</g>

<g opacity="1.000000" fill="black" stroke="black" stroke-width="0.000000" id="id0000000528" >
</g>

<g opacity="1.000000" fill="black" stroke="black" stroke-width="0.000000" id="id0000000529" >
</g>

<g opacity="1.000000" fill="black" stroke="black" stroke-width="0.000000" id="id0000000530" >
</g>

<g opacity="1.000000" fill="black" stroke="black" stroke-width="0.000000" id="id0000000531" >
</g>

<g opacity="1.000000" fill="black" stroke="black" stroke-width="0.000000" id="id0000000532" >
</g>

<g opacity="1.000000" fill="black" stroke="black" stroke-width="0.000000" id="id0000000533" >
</g>

<g opacity="1.000000" fill="black" stroke="black" stroke-width="0.000000" id="id0000000534" >
</g>

<g opacity="1.000000" fill="black" stroke="black" stroke-width="0.000000" id="id0000000535" >
</g>

<g opacity="1.000000" fill="black" stroke="black" stroke-width="0.000000" id="id0000000536" >
</g>

<g opacity="1.000000" fill="black" stroke="black" stroke-width="0.000000" id="id0000000537" >
</g>

<g opacity="1.000000" fill="black" stroke="black" stroke-width="0.000000" id="id0000000538" >
</g>

<g opacity="1.000000" fill="black" stroke="black" stroke-width="0.000000" id="id0000000539" >
</g>

<g opacity="1.000000" fill="black" stroke="black" stroke-width="0.000000" id="id0000000540" >
</g>

<g opacity="1.000000" fill="black" stroke="black" stroke-width="0.000000" id="id0000000541" >
</g>

<g opacity="1.000000" fill="black" stroke="black" stroke-width="0.000000" id="id0000000542" >
</g>

<g opacity="1.000000" fill="black" stroke="black" stroke-width="0.000000" id="id0000000543" >
</g>

<g opacity="1.000000" fill="black" stroke="black" stroke-width="0.000000" id="id0000000544" >
</g>

<g opacity="1.000000" fill="black" stroke="black" stroke-width="0.000000" id="id0000000545" >
</g>

</g>

</g>

<polygon points="36,1 36,458 639,458 639,1 " stroke="black" stroke-width="1.000000" fill="none" id="id0000000552" pointer-events="none" class="rectangle" />
<polyline points="53.7353,458 53.7353,461 " fill="none" stroke-width="1.000000" stroke="black" id="id0000000553" class="line" />
<text id="id0000000554" transform="matrix(1 0 0 1 36 1)" x="17.735296" y="462.000000" dominant-baseline="hanging" text-anchor="middle" font-size="14.000000px" >
0
</text>

<polyline points="167.526,458 167.526,461 " fill="none" stroke-width="1.000000" stroke="black" id="id0000000555" class="line" />
<text id="id0000000556" transform="matrix(1 0 0 1 36 1)" x="131.525757" y="462.000000" dominant-baseline="hanging" text-anchor="middle" font-size="14.000000px" >
4
</text>

<polyline points="281.316,458 281.316,461 " fill="none" stroke-width="1.000000" stroke="black" id="id0000000557" class="line" />
<text id="id0000000558" transform="matrix(1 0 0 1 36 1)" x="245.316254" y="462.000000" dominant-baseline="hanging" text-anchor="middle" font-size="14.000000px" >
8
</text>

<polyline points="395.107,458 395.107,461 " fill="none" stroke-width="1.000000" stroke="black" id="id0000000559" class="line" />
<text id="id0000000560" transform="matrix(1 0 0 1 36 1)" x="359.106720" y="462.000000" dominant-baseline="hanging" text-anchor="middle" font-size="14.000000px" >
12
</text>

<polyline points="508.897,458 508.897,461 " fill="none" stroke-width="1.000000" stroke="black" id="id0000000561" class="line" />
<text id="id0000000562" transform="matrix(1 0 0 1 36 1)" x="472.897156" y="462.000000" dominant-baseline="hanging" text-anchor="middle" font-size="14.000000px" >
16
</text>

<polyline points="622.688,458 622.688,461 " fill="none" stroke-width="1.000000" stroke="black" id="id0000000563" class="line" />
<text id="id0000000564" transform="matrix(1 0 0 1 36 1)" x="586.687622" y="462.000000" dominant-baseline="hanging" text-anchor="middle" font-size="14.000000px" >
20
</text>

<polyline points="33,443.187 36,443.187 " fill="none" stroke-width="1.000000" stroke="black" id="id0000000565" class="line" />
<text id="id0000000566" transform="matrix(1 0 0 1 36 1)" x="-5.000000" y="442.187378" dominant-baseline="middle" text-anchor="end" font-size="14.000000px" >
-18
</text>

<polyline points="33,353.024 36,353.024 " fill="none" stroke-width="1.000000" stroke="black" id="id0000000567" class="line" />
<text id="id0000000568" transform="matrix(1 0 0 1 36 1)" x="-5.000000" y="352.024384" dominant-baseline="middle" text-anchor="end" font-size="14.000000px" >
0
</text>

<polyline points="33,262.861 36,262.861 " fill="none" stroke-width="1.000000" stroke="black" id="id0000000569" class="line" />
<text id="id0000000570" transform="matrix(1 0 0 1 36 1)" x="-5.000000" y="261.861359" dominant-baseline="middle" text-anchor="end" font-size="14.000000px" >
18
</text>

<polyline points="33,172.698 36,172.698 " fill="none" stroke-width="1.000000" stroke="black" id="id0000000571" class="line" />
<text id="id0000000572" transform="matrix(1 0 0 1 36 1)" x="-5.000000" y="171.698364" dominant-baseline="middle" text-anchor="end" font-size="14.000000px" >
36
</text>

<polyline points="33,82.5353 36,82.5353 " fill="none" stroke-width="1.000000" stroke="black" id="id0000000573" class="line" />
<text id="id0000000574" transform="matrix(1 0 0 1 36 1)" x="-5.000000" y="81.535339" dominant-baseline="middle" text-anchor="end" font-size="14.000000px" >
54
</text>


</g>

</svg>
