<svg viewBox="0 0 640 480" height="100%" width="100%" xmlns:xlink="http://www.w3.org/1999/xlink" xmlns="http://www.w3.org/2000/svg" id="id0000000068" >
<g id="id0000000069" >
<clipPath id="id0000000069clipper" >
<polygon points="36,1 36,458 639,458 639,1 " id="id0000000072" class="rectangle" />
</clipPath>

<g clip-path="url(#id0000000069clipper)" id="id0000000071" >
<polyline id="id0000000073" points="53.7353,97.3809 59.4679,361.204 65.2005,96.0618 70.9332,362.53 76.6658,94.7295 82.3984,363.869 88.131,93.3838 93.8636,365.221 99.5963,92.0246 105.329,366.587 111.062,90.6518 116.794,367.967 122.527,89.2652 128.259,369.361 133.992,87.8647 139.725,370.768 145.457,86.4502 151.19,372.19 156.922,85.0215 162.655,373.626 168.388,83.5785 174.12,375.076 179.853,82.121 185.586,376.541 191.318,80.6489 197.051,378.02 202.783,79.1621 208.516,379.514 214.249,77.6603 219.981,381.023 225.714,76.1435 231.446,382.548 237.179,74.6115 242.912,384.088 248.644,73.0641 254.377,385.643 260.11,71.5012 265.842,387.213 271.575,69.9227 277.307,388.8 283.04,68.3283 288.773,390.402 294.505,66.7179 300.238,392.021 305.97,65.0914 311.703,393.655 317.436,63.4486 323.168,395.306 328.901,61.7893 334.634,396.974 340.366,60.1134 346.099,398.658 351.831,58.4206 357.564,400.359 363.297,56.7109 369.029,402.078 374.762,54.9841 380.494,403.813 386.227,53.24 391.96,405.566 397.692,51.4783 403.425,407.336 409.158,49.6991 414.89,409.125 420.623,47.9019 426.355,410.931 432.088,46.0868 437.821,412.755 443.553,44.2534 449.286,414.597 455.018,42.4017 460.751,416.458 466.484,40.5315 472.216,418.338 477.949,38.6424 483.682,420.237 489.414,36.7344 495.147,422.154 500.879,34.8073 506.612,424.091 512.345,32.8609 518.077,426.047 523.81,30.895 529.542,428.023 535.275,28.9094 541.008,430.018 546.74,26.9038 552.473,432.034 558.206,24.8782 563.938,434.07 569.671,22.8322 575.404,436.126 581.136,20.7657 586.869,438.203 592.602,18.6785 598.334,440.3 604.067,16.5704 609.799,442.419 615.532,14.4412 621.265,444.559 " fill="none" stroke-opacity="1.000000" stroke-linecap="round" stroke="#1f77b4" stroke-width="1.000000" />
</g>

<polygon points="36,1 36,458 639,458 639,1 " stroke="black" stroke-width="1.000000" fill="none" id="id0000000074" pointer-events="none" class="rectangle" />
<polyline points="53.7353,458 53.7353,461 " fill="none" stroke-width="1.000000" stroke="black" id="id0000000075" class="line" />
<text id="id0000000076" transform="matrix(1 0 0 1 36 1)" x="17.735294" y="462.000000" dominant-baseline="hanging" text-anchor="middle" font-size="14.000000px" >
0
</text>

<polyline points="168.388,458 168.388,461 " fill="none" stroke-width="1.000000" stroke="black" id="id0000000077" class="line" />
<text id="id0000000078" transform="matrix(1 0 0 1 36 1)" x="132.387680" y="462.000000" dominant-baseline="hanging" text-anchor="middle" font-size="14.000000px" >
1
</text>

<polyline points="283.04,458 283.04,461 " fill="none" stroke-width="1.000000" stroke="black" id="id0000000079" class="line" />
<text id="id0000000080" transform="matrix(1 0 0 1 36 1)" x="247.040070" y="462.000000" dominant-baseline="hanging" text-anchor="middle" font-size="14.000000px" >
2
</text>

<polyline points="397.692,458 397.692,461 " fill="none" stroke-width="1.000000" stroke="black" id="id0000000081" class="line" />
<text id="id0000000082" transform="matrix(1 0 0 1 36 1)" x="361.692474" y="462.000000" dominant-baseline="hanging" text-anchor="middle" font-size="14.000000px" >
3
</text>

<polyline points="512.345,458 512.345,461 " fill="none" stroke-width="1.000000" stroke="black" id="id0000000083" class="line" />
<text id="id0000000084" transform="matrix(1 0 0 1 36 1)" x="476.344879" y="462.000000" dominant-baseline="hanging" text-anchor="middle" font-size="14.000000px" >
4
</text>

<polyline points="626.997,458 626.997,461 " fill="none" stroke-width="1.000000" stroke="black" id="id0000000085" class="line" />
<text id="id0000000086" transform="matrix(1 0 0 1 36 1)" x="590.997253" y="462.000000" dominant-baseline="hanging" text-anchor="middle" font-size="14.000000px" >
5
</text>

<polyline points="33,425.356 36,425.356 " fill="none" stroke-width="1.000000" stroke="black" id="id0000000087" class="line" />
<text id="id0000000088" transform="matrix(1 0 0 1 36 1)" x="-5.000000" y="424.355865" dominant-baseline="middle" text-anchor="end" font-size="14.000000px" >
-1.5
</text>

<polyline points="33,359.892 36,359.892 " fill="none" stroke-width="1.000000" stroke="black" id="id0000000089" class="line" />
<text id="id0000000090" transform="matrix(1 0 0 1 36 1)" x="-5.000000" y="358.891815" dominant-baseline="middle" text-anchor="end" font-size="14.000000px" >
-1
</text>

<polyline points="33,294.428 36,294.428 " fill="none" stroke-width="1.000000" stroke="black" id="id0000000091" class="line" />
<text id="id0000000092" transform="matrix(1 0 0 1 36 1)" x="-5.000000" y="293.427734" dominant-baseline="middle" text-anchor="end" font-size="14.000000px" >
-0.5
</text>

<polyline points="33,228.964 36,228.964 " fill="none" stroke-width="1.000000" stroke="black" id="id0000000093" class="line" />
<text id="id0000000094" transform="matrix(1 0 0 1 36 1)" x="-5.000000" y="227.963699" dominant-baseline="middle" text-anchor="end" font-size="14.000000px" >
0
</text>

<polyline points="33,163.5 36,163.5 " fill="none" stroke-width="1.000000" stroke="black" id="id0000000095" class="line" />
<text id="id0000000096" transform="matrix(1 0 0 1 36 1)" x="-5.000000" y="162.499664" dominant-baseline="middle" text-anchor="end" font-size="14.000000px" >
0.5
</text>

<polyline points="33,98.0356 36,98.0356 " fill="none" stroke-width="1.000000" stroke="black" id="id0000000097" class="line" />
<text id="id0000000098" transform="matrix(1 0 0 1 36 1)" x="-5.000000" y="97.035614" dominant-baseline="middle" text-anchor="end" font-size="14.000000px" >
1
</text>

<polyline points="33,32.5716 36,32.5716 " fill="none" stroke-width="1.000000" stroke="black" id="id0000000099" class="line" />
<text id="id0000000100" transform="matrix(1 0 0 1 36 1)" x="-5.000000" y="31.571564" dominant-baseline="middle" text-anchor="end" font-size="14.000000px" >
1.5
</text>


</g>

</svg>
