<svg viewBox="0 0 410 310" height="100%" width="100%" xmlns:xlink="http://www.w3.org/1999/xlink" xmlns="http://www.w3.org/2000/svg" id="id0000000199" >
<g id="id0000000200" >
<g id="id0000000201" >
<g id="id0000000202" >
<clipPath id="id0000000202clipper" >
<polygon points="35,40 35,135 200,135 200,40 " id="id0000000217" class="rectangle" />
</clipPath>

<g clip-path="url(#id0000000202clipper)" id="id0000000204" >
<g id="id0000000218" >
<polygon points="35,135 35,134.416 51.5,134.416 51.5,135 " fill="#1f77b4" stroke-width="0.000000" id="id0000000219" fill-opacity="1.000000" class="rectangle" />
<polygon points="51.5,135 51.5,133.249 68,133.249 68,135 " fill="#1f77b4" stroke-width="0.000000" id="id0000000220" fill-opacity="1.000000" class="rectangle" />
<polygon points="68,135 68,122.162 84.5,122.162 84.5,135 " fill="#1f77b4" stroke-width="0.000000" id="id0000000221" fill-opacity="1.000000" class="rectangle" />
<polygon points="84.5,135 84.5,97.6536 101,97.6536 101,135 " fill="#1f77b4" stroke-width="0.000000" id="id0000000222" fill-opacity="1.000000" class="rectangle" />
<polygon points="101,135 101,48.6364 117.5,48.6364 117.5,135 " fill="#1f77b4" stroke-width="0.000000" id="id0000000223" fill-opacity="1.000000" class="rectangle" />
<polygon points="117.5,135 117.5,49.2199 134,49.2199 134,135 " fill="#1f77b4" stroke-width="0.000000" id="id0000000224" fill-opacity="1.000000" class="rectangle" />
<polygon points="134,135 134,88.0252 150.5,88.0252 150.5,135 " fill="#1f77b4" stroke-width="0.000000" id="id0000000225" fill-opacity="1.000000" class="rectangle" />
<polygon points="150.5,135 150.5,118.369 167,118.369 167,135 " fill="#1f77b4" stroke-width="0.000000" id="id0000000226" fill-opacity="1.000000" class="rectangle" />
<polygon points="167,135 167,132.082 183.5,132.082 183.5,135 " fill="#1f77b4" stroke-width="0.000000" id="id0000000227" fill-opacity="1.000000" class="rectangle" />
<polygon points="183.5,135 183.5,134.708 200,134.708 200,135 " fill="#1f77b4" stroke-width="0.000000" id="id0000000228" fill-opacity="1.000000" class="rectangle" />
</g>

</g>

<polygon points="35,40 35,135 200,135 200,40 " stroke="black" stroke-width="1.000000" fill="none" id="id0000000229" pointer-events="none" class="rectangle" />
<polyline points="35.8684,135 35.8684,138 " fill="none" stroke-width="1.000000" stroke="black" id="id0000000230" class="line" />
<text id="id0000000231" transform="matrix(1 0 0 1 35 40)" x="0.868396" y="100.000000" dominant-baseline="hanging" text-anchor="middle" font-size="10.000000px" >
-3
</text>

<polyline points="67.7295,135 67.7295,138 " fill="none" stroke-width="1.000000" stroke="black" id="id0000000232" class="line" />
<text id="id0000000233" transform="matrix(1 0 0 1 35 40)" x="32.729473" y="100.000000" dominant-baseline="hanging" text-anchor="middle" font-size="10.000000px" >
0
</text>

<polyline points="99.5905,135 99.5905,138 " fill="none" stroke-width="1.000000" stroke="black" id="id0000000234" class="line" />
<text id="id0000000235" transform="matrix(1 0 0 1 35 40)" x="64.590546" y="100.000000" dominant-baseline="hanging" text-anchor="middle" font-size="10.000000px" >
3
</text>

<polyline points="131.452,135 131.452,138 " fill="none" stroke-width="1.000000" stroke="black" id="id0000000236" class="line" />
<text id="id0000000237" transform="matrix(1 0 0 1 35 40)" x="96.451622" y="100.000000" dominant-baseline="hanging" text-anchor="middle" font-size="10.000000px" >
6
</text>

<polyline points="163.313,135 163.313,138 " fill="none" stroke-width="1.000000" stroke="black" id="id0000000238" class="line" />
<text id="id0000000239" transform="matrix(1 0 0 1 35 40)" x="128.312698" y="100.000000" dominant-baseline="hanging" text-anchor="middle" font-size="10.000000px" >
9
</text>

<polyline points="195.174,135 195.174,138 " fill="none" stroke-width="1.000000" stroke="black" id="id0000000240" class="line" />
<text id="id0000000241" transform="matrix(1 0 0 1 35 40)" x="160.173767" y="100.000000" dominant-baseline="hanging" text-anchor="middle" font-size="10.000000px" >
12
</text>

<polyline points="32,135 35,135 " fill="none" stroke-width="1.000000" stroke="black" id="id0000000242" class="line" />
<text id="id0000000243" transform="matrix(1 0 0 1 35 40)" x="-5.000000" y="95.000000" dominant-baseline="middle" text-anchor="end" font-size="10.000000px" >
0
</text>

<polyline points="32,116.035 35,116.035 " fill="none" stroke-width="1.000000" stroke="black" id="id0000000244" class="line" />
<text id="id0000000245" transform="matrix(1 0 0 1 35 40)" x="-5.000000" y="76.035011" dominant-baseline="middle" text-anchor="end" font-size="10.000000px" >
65
</text>

<polyline points="32,97.07 35,97.07 " fill="none" stroke-width="1.000000" stroke="black" id="id0000000246" class="line" />
<text id="id0000000247" transform="matrix(1 0 0 1 35 40)" x="-5.000000" y="57.070026" dominant-baseline="middle" text-anchor="end" font-size="10.000000px" >
130
</text>

<polyline points="32,78.105 35,78.105 " fill="none" stroke-width="1.000000" stroke="black" id="id0000000248" class="line" />
<text id="id0000000249" transform="matrix(1 0 0 1 35 40)" x="-5.000000" y="38.105038" dominant-baseline="middle" text-anchor="end" font-size="10.000000px" >
195
</text>

<polyline points="32,59.1401 35,59.1401 " fill="none" stroke-width="1.000000" stroke="black" id="id0000000250" class="line" />
<text id="id0000000251" transform="matrix(1 0 0 1 35 40)" x="-5.000000" y="19.140053" dominant-baseline="middle" text-anchor="end" font-size="10.000000px" >
260
</text>

<polyline points="32,40.1751 35,40.1751 " fill="none" stroke-width="1.000000" stroke="black" id="id0000000252" class="line" />
<text id="id0000000253" transform="matrix(1 0 0 1 35 40)" x="-5.000000" y="0.175064" dominant-baseline="middle" text-anchor="end" font-size="10.000000px" >
325
</text>

<text id="id0000000254" transform="matrix(1 0 0 1 35 40)" x="82.500000" y="-10.000000" text-anchor="middle" font-size="16.000000px" >
Standard
</text>

</g>

</g>

<g id="id0000000205" >
<g id="id0000000206" >
<clipPath id="id0000000206clipper" >
<polygon points="235,40 235,135 400,135 400,40 " id="id0000000255" class="rectangle" />
</clipPath>

<g clip-path="url(#id0000000206clipper)" id="id0000000208" >
<g id="id0000000256" >
<polygon points="235,135 235,134.827 251.5,134.827 251.5,135 " fill="#1f77b4" stroke-width="0.000000" id="id0000000257" fill-opacity="1.000000" class="rectangle" />
<polygon points="251.5,135 251.5,134.308 268,134.308 268,135 " fill="#1f77b4" stroke-width="0.000000" id="id0000000258" fill-opacity="1.000000" class="rectangle" />
<polygon points="268,135 268,130.505 284.5,130.505 284.5,135 " fill="#1f77b4" stroke-width="0.000000" id="id0000000259" fill-opacity="1.000000" class="rectangle" />
<polygon points="284.5,135 284.5,119.439 301,119.439 301,135 " fill="#1f77b4" stroke-width="0.000000" id="id0000000260" fill-opacity="1.000000" class="rectangle" />
<polygon points="301,135 301,93.8498 317.5,93.8498 317.5,135 " fill="#1f77b4" stroke-width="0.000000" id="id0000000261" fill-opacity="1.000000" class="rectangle" />
<polygon points="317.5,135 317.5,68.4334 334,68.4334 334,135 " fill="#1f77b4" stroke-width="0.000000" id="id0000000262" fill-opacity="1.000000" class="rectangle" />
<polygon points="334,135 334,54.515 350.5,54.515 350.5,135 " fill="#1f77b4" stroke-width="0.000000" id="id0000000263" fill-opacity="1.000000" class="rectangle" />
<polygon points="350.5,135 350.5,49.5873 367,49.5873 367,135 " fill="#1f77b4" stroke-width="0.000000" id="id0000000264" fill-opacity="1.000000" class="rectangle" />
<polygon points="367,135 367,48.7228 383.5,48.7228 383.5,135 " fill="#1f77b4" stroke-width="0.000000" id="id0000000265" fill-opacity="1.000000" class="rectangle" />
<polygon points="383.5,135 383.5,48.6364 400,48.6364 400,135 " fill="#1f77b4" stroke-width="0.000000" id="id0000000266" fill-opacity="1.000000" class="rectangle" />
</g>

</g>

<polygon points="235,40 235,135 400,135 400,40 " stroke="black" stroke-width="1.000000" fill="none" id="id0000000267" pointer-events="none" class="rectangle" />
<polyline points="235.868,135 235.868,138 " fill="none" stroke-width="1.000000" stroke="black" id="id0000000268" class="line" />
<text id="id0000000269" transform="matrix(1 0 0 1 235 40)" x="0.868396" y="100.000000" dominant-baseline="hanging" text-anchor="middle" font-size="10.000000px" >
-3
</text>

<polyline points="267.729,135 267.729,138 " fill="none" stroke-width="1.000000" stroke="black" id="id0000000270" class="line" />
<text id="id0000000271" transform="matrix(1 0 0 1 235 40)" x="32.729473" y="100.000000" dominant-baseline="hanging" text-anchor="middle" font-size="10.000000px" >
0
</text>

<polyline points="299.591,135 299.591,138 " fill="none" stroke-width="1.000000" stroke="black" id="id0000000272" class="line" />
<text id="id0000000273" transform="matrix(1 0 0 1 235 40)" x="64.590546" y="100.000000" dominant-baseline="hanging" text-anchor="middle" font-size="10.000000px" >
3
</text>

<polyline points="331.452,135 331.452,138 " fill="none" stroke-width="1.000000" stroke="black" id="id0000000274" class="line" />
<text id="id0000000275" transform="matrix(1 0 0 1 235 40)" x="96.451622" y="100.000000" dominant-baseline="hanging" text-anchor="middle" font-size="10.000000px" >
6
</text>

<polyline points="363.313,135 363.313,138 " fill="none" stroke-width="1.000000" stroke="black" id="id0000000276" class="line" />
<text id="id0000000277" transform="matrix(1 0 0 1 235 40)" x="128.312698" y="100.000000" dominant-baseline="hanging" text-anchor="middle" font-size="10.000000px" >
9
</text>

<polyline points="395.174,135 395.174,138 " fill="none" stroke-width="1.000000" stroke="black" id="id0000000278" class="line" />
<text id="id0000000279" transform="matrix(1 0 0 1 235 40)" x="160.173767" y="100.000000" dominant-baseline="hanging" text-anchor="middle" font-size="10.000000px" >
12
</text>

<polyline points="232,135 235,135 " fill="none" stroke-width="1.000000" stroke="black" id="id0000000280" class="line" />
<text id="id0000000281" transform="matrix(1 0 0 1 235 40)" x="-5.000000" y="95.000000" dominant-baseline="middle" text-anchor="end" font-size="10.000000px" >
0
</text>

<polyline points="232,116.067 235,116.067 " fill="none" stroke-width="1.000000" stroke="black" id="id0000000282" class="line" />
<text id="id0000000283" transform="matrix(1 0 0 1 235 40)" x="-5.000000" y="76.067429" dominant-baseline="middle" text-anchor="end" font-size="10.000000px" >
219
</text>

<polyline points="232,97.1349 235,97.1349 " fill="none" stroke-width="1.000000" stroke="black" id="id0000000284" class="line" />
<text id="id0000000285" transform="matrix(1 0 0 1 235 40)" x="-5.000000" y="57.134865" dominant-baseline="middle" text-anchor="end" font-size="10.000000px" >
438
</text>

<polyline points="232,78.2023 235,78.2023 " fill="none" stroke-width="1.000000" stroke="black" id="id0000000286" class="line" />
<text id="id0000000287" transform="matrix(1 0 0 1 235 40)" x="-5.000000" y="38.202293" dominant-baseline="middle" text-anchor="end" font-size="10.000000px" >
657
</text>

<polyline points="232,59.2697 235,59.2697 " fill="none" stroke-width="1.000000" stroke="black" id="id0000000288" class="line" />
<text id="id0000000289" transform="matrix(1 0 0 1 235 40)" x="-5.000000" y="19.269730" dominant-baseline="middle" text-anchor="end" font-size="10.000000px" >
876
</text>

<polyline points="232,40.3372 235,40.3372 " fill="none" stroke-width="1.000000" stroke="black" id="id0000000290" class="line" />
<text id="id0000000291" transform="matrix(1 0 0 1 235 40)" x="-5.000000" y="0.337158" dominant-baseline="middle" text-anchor="end" font-size="10.000000px" >
1095
</text>

<text id="id0000000292" transform="matrix(1 0 0 1 235 40)" x="82.500000" y="-10.000000" text-anchor="middle" font-size="16.000000px" >
Cumulative
</text>

</g>

</g>

<g id="id0000000209" >
<g id="id0000000210" >
<clipPath id="id0000000210clipper" >
<polygon points="35,190 35,285 200,285 200,190 " id="id0000000293" class="rectangle" />
</clipPath>

<g clip-path="url(#id0000000210clipper)" id="id0000000212" >
<g id="id0000000294" >
<polygon points="35,285 35,284.416 51.5,284.416 51.5,285 " fill="#1f77b4" stroke-width="0.000000" id="id0000000295" fill-opacity="1.000000" class="rectangle" />
<polygon points="51.5,285 51.5,283.249 68,283.249 68,285 " fill="#1f77b4" stroke-width="0.000000" id="id0000000296" fill-opacity="1.000000" class="rectangle" />
<polygon points="68,285 68,272.162 84.5,272.162 84.5,285 " fill="#1f77b4" stroke-width="0.000000" id="id0000000297" fill-opacity="1.000000" class="rectangle" />
<polygon points="84.5,285 84.5,247.654 101,247.654 101,285 " fill="#1f77b4" stroke-width="0.000000" id="id0000000298" fill-opacity="1.000000" class="rectangle" />
<polygon points="101,285 101,198.636 117.5,198.636 117.5,285 " fill="#1f77b4" stroke-width="0.000000" id="id0000000299" fill-opacity="1.000000" class="rectangle" />
<polygon points="117.5,285 117.5,199.22 134,199.22 134,285 " fill="#1f77b4" stroke-width="0.000000" id="id0000000300" fill-opacity="1.000000" class="rectangle" />
<polygon points="134,285 134,238.025 150.5,238.025 150.5,285 " fill="#1f77b4" stroke-width="0.000000" id="id0000000301" fill-opacity="1.000000" class="rectangle" />
<polygon points="150.5,285 150.5,268.369 167,268.369 167,285 " fill="#1f77b4" stroke-width="0.000000" id="id0000000302" fill-opacity="1.000000" class="rectangle" />
<polygon points="167,285 167,282.082 183.5,282.082 183.5,285 " fill="#1f77b4" stroke-width="0.000000" id="id0000000303" fill-opacity="1.000000" class="rectangle" />
<polygon points="183.5,285 183.5,284.708 200,284.708 200,285 " fill="#1f77b4" stroke-width="0.000000" id="id0000000304" fill-opacity="1.000000" class="rectangle" />
</g>

</g>

<polygon points="35,190 35,285 200,285 200,190 " stroke="black" stroke-width="1.000000" fill="none" id="id0000000305" pointer-events="none" class="rectangle" />
<polyline points="35.8684,285 35.8684,288 " fill="none" stroke-width="1.000000" stroke="black" id="id0000000306" class="line" />
<text id="id0000000307" transform="matrix(1 0 0 1 35 190)" x="0.868396" y="100.000000" dominant-baseline="hanging" text-anchor="middle" font-size="10.000000px" >
-3
</text>

<polyline points="67.7295,285 67.7295,288 " fill="none" stroke-width="1.000000" stroke="black" id="id0000000308" class="line" />
<text id="id0000000309" transform="matrix(1 0 0 1 35 190)" x="32.729473" y="100.000000" dominant-baseline="hanging" text-anchor="middle" font-size="10.000000px" >
0
</text>

<polyline points="99.5905,285 99.5905,288 " fill="none" stroke-width="1.000000" stroke="black" id="id0000000310" class="line" />
<text id="id0000000311" transform="matrix(1 0 0 1 35 190)" x="64.590546" y="100.000000" dominant-baseline="hanging" text-anchor="middle" font-size="10.000000px" >
3
</text>

<polyline points="131.452,285 131.452,288 " fill="none" stroke-width="1.000000" stroke="black" id="id0000000312" class="line" />
<text id="id0000000313" transform="matrix(1 0 0 1 35 190)" x="96.451622" y="100.000000" dominant-baseline="hanging" text-anchor="middle" font-size="10.000000px" >
6
</text>

<polyline points="163.313,285 163.313,288 " fill="none" stroke-width="1.000000" stroke="black" id="id0000000314" class="line" />
<text id="id0000000315" transform="matrix(1 0 0 1 35 190)" x="128.312698" y="100.000000" dominant-baseline="hanging" text-anchor="middle" font-size="10.000000px" >
9
</text>

<polyline points="195.174,285 195.174,288 " fill="none" stroke-width="1.000000" stroke="black" id="id0000000316" class="line" />
<text id="id0000000317" transform="matrix(1 0 0 1 35 190)" x="160.173767" y="100.000000" dominant-baseline="hanging" text-anchor="middle" font-size="10.000000px" >
12
</text>

<polyline points="32,285 35,285 " fill="none" stroke-width="1.000000" stroke="black" id="id0000000318" class="line" />
<text id="id0000000319" transform="matrix(1 0 0 1 35 190)" x="-5.000000" y="95.000000" dominant-baseline="middle" text-anchor="end" font-size="10.000000px" >
0
</text>

<polyline points="32,270.412 35,270.412 " fill="none" stroke-width="1.000000" stroke="black" id="id0000000320" class="line" />
<text id="id0000000321" transform="matrix(1 0 0 1 35 190)" x="-5.000000" y="80.411545" dominant-baseline="middle" text-anchor="end" font-size="10.000000px" >
0.05
</text>

<polyline points="32,255.823 35,255.823 " fill="none" stroke-width="1.000000" stroke="black" id="id0000000322" class="line" />
<text id="id0000000323" transform="matrix(1 0 0 1 35 190)" x="-5.000000" y="65.823097" dominant-baseline="middle" text-anchor="end" font-size="10.000000px" >
0.1
</text>

<polyline points="32,241.235 35,241.235 " fill="none" stroke-width="1.000000" stroke="black" id="id0000000324" class="line" />
<text id="id0000000325" transform="matrix(1 0 0 1 35 190)" x="-5.000000" y="51.234642" dominant-baseline="middle" text-anchor="end" font-size="10.000000px" >
0.15
</text>

<polyline points="32,226.646 35,226.646 " fill="none" stroke-width="1.000000" stroke="black" id="id0000000326" class="line" />
<text id="id0000000327" transform="matrix(1 0 0 1 35 190)" x="-5.000000" y="36.646191" dominant-baseline="middle" text-anchor="end" font-size="10.000000px" >
0.2
</text>

<polyline points="32,212.058 35,212.058 " fill="none" stroke-width="1.000000" stroke="black" id="id0000000328" class="line" />
<text id="id0000000329" transform="matrix(1 0 0 1 35 190)" x="-5.000000" y="22.057739" dominant-baseline="middle" text-anchor="end" font-size="10.000000px" >
0.25
</text>

<polyline points="32,197.469 35,197.469 " fill="none" stroke-width="1.000000" stroke="black" id="id0000000330" class="line" />
<text id="id0000000331" transform="matrix(1 0 0 1 35 190)" x="-5.000000" y="7.469284" dominant-baseline="middle" text-anchor="end" font-size="10.000000px" >
0.3
</text>

<text id="id0000000332" transform="matrix(1 0 0 1 35 190)" x="82.500000" y="-10.000000" text-anchor="middle" font-size="16.000000px" >
Density
</text>

</g>

</g>

<g id="id0000000213" >
<g id="id0000000214" >
<clipPath id="id0000000214clipper" >
<polygon points="235,190 235,285 400,285 400,190 " id="id0000000333" class="rectangle" />
</clipPath>

<g clip-path="url(#id0000000214clipper)" id="id0000000216" >
<g id="id0000000334" >
<polygon points="235,285 235,284.827 251.5,284.827 251.5,285 " fill="#1f77b4" stroke-width="0.000000" id="id0000000335" fill-opacity="1.000000" class="rectangle" />
<polygon points="251.5,285 251.5,284.308 268,284.308 268,285 " fill="#1f77b4" stroke-width="0.000000" id="id0000000336" fill-opacity="1.000000" class="rectangle" />
<polygon points="268,285 268,280.505 284.5,280.505 284.5,285 " fill="#1f77b4" stroke-width="0.000000" id="id0000000337" fill-opacity="1.000000" class="rectangle" />
<polygon points="284.5,285 284.5,269.439 301,269.439 301,285 " fill="#1f77b4" stroke-width="0.000000" id="id0000000338" fill-opacity="1.000000" class="rectangle" />
<polygon points="301,285 301,243.85 317.5,243.85 317.5,285 " fill="#1f77b4" stroke-width="0.000000" id="id0000000339" fill-opacity="1.000000" class="rectangle" />
<polygon points="317.5,285 317.5,218.433 334,218.433 334,285 " fill="#1f77b4" stroke-width="0.000000" id="id0000000340" fill-opacity="1.000000" class="rectangle" />
<polygon points="334,285 334,204.515 350.5,204.515 350.5,285 " fill="#1f77b4" stroke-width="0.000000" id="id0000000341" fill-opacity="1.000000" class="rectangle" />
<polygon points="350.5,285 350.5,199.587 367,199.587 367,285 " fill="#1f77b4" stroke-width="0.000000" id="id0000000342" fill-opacity="1.000000" class="rectangle" />
<polygon points="367,285 367,198.723 383.5,198.723 383.5,285 " fill="#1f77b4" stroke-width="0.000000" id="id0000000343" fill-opacity="1.000000" class="rectangle" />
<polygon points="383.5,285 383.5,198.636 400,198.636 400,285 " fill="#1f77b4" stroke-width="0.000000" id="id0000000344" fill-opacity="1.000000" class="rectangle" />
</g>

</g>

<polygon points="235,190 235,285 400,285 400,190 " stroke="black" stroke-width="1.000000" fill="none" id="id0000000345" pointer-events="none" class="rectangle" />
<polyline points="235.868,285 235.868,288 " fill="none" stroke-width="1.000000" stroke="black" id="id0000000346" class="line" />
<text id="id0000000347" transform="matrix(1 0 0 1 235 190)" x="0.868396" y="100.000000" dominant-baseline="hanging" text-anchor="middle" font-size="10.000000px" >
-3
</text>

<polyline points="267.729,285 267.729,288 " fill="none" stroke-width="1.000000" stroke="black" id="id0000000348" class="line" />
<text id="id0000000349" transform="matrix(1 0 0 1 235 190)" x="32.729473" y="100.000000" dominant-baseline="hanging" text-anchor="middle" font-size="10.000000px" >
0
</text>

<polyline points="299.591,285 299.591,288 " fill="none" stroke-width="1.000000" stroke="black" id="id0000000350" class="line" />
<text id="id0000000351" transform="matrix(1 0 0 1 235 190)" x="64.590546" y="100.000000" dominant-baseline="hanging" text-anchor="middle" font-size="10.000000px" >
3
</text>

<polyline points="331.452,285 331.452,288 " fill="none" stroke-width="1.000000" stroke="black" id="id0000000352" class="line" />
<text id="id0000000353" transform="matrix(1 0 0 1 235 190)" x="96.451622" y="100.000000" dominant-baseline="hanging" text-anchor="middle" font-size="10.000000px" >
6
</text>

<polyline points="363.313,285 363.313,288 " fill="none" stroke-width="1.000000" stroke="black" id="id0000000354" class="line" />
<text id="id0000000355" transform="matrix(1 0 0 1 235 190)" x="128.312698" y="100.000000" dominant-baseline="hanging" text-anchor="middle" font-size="10.000000px" >
9
</text>

<polyline points="395.174,285 395.174,288 " fill="none" stroke-width="1.000000" stroke="black" id="id0000000356" class="line" />
<text id="id0000000357" transform="matrix(1 0 0 1 235 190)" x="160.173767" y="100.000000" dominant-baseline="hanging" text-anchor="middle" font-size="10.000000px" >
12
</text>

<polyline points="232,285 235,285 " fill="none" stroke-width="1.000000" stroke="black" id="id0000000358" class="line" />
<text id="id0000000359" transform="matrix(1 0 0 1 235 190)" x="-5.000000" y="95.000000" dominant-baseline="middle" text-anchor="end" font-size="10.000000px" >
0
</text>

<polyline points="232,267.71 235,267.71 " fill="none" stroke-width="1.000000" stroke="black" id="id0000000360" class="line" />
<text id="id0000000361" transform="matrix(1 0 0 1 235 190)" x="-5.000000" y="77.709984" dominant-baseline="middle" text-anchor="end" font-size="10.000000px" >
0.2
</text>

<polyline points="232,250.42 235,250.42 " fill="none" stroke-width="1.000000" stroke="black" id="id0000000362" class="line" />
<text id="id0000000363" transform="matrix(1 0 0 1 235 190)" x="-5.000000" y="60.419964" dominant-baseline="middle" text-anchor="end" font-size="10.000000px" >
0.4
</text>

<polyline points="232,233.13 235,233.13 " fill="none" stroke-width="1.000000" stroke="black" id="id0000000364" class="line" />
<text id="id0000000365" transform="matrix(1 0 0 1 235 190)" x="-5.000000" y="43.129944" dominant-baseline="middle" text-anchor="end" font-size="10.000000px" >
0.6
</text>

<polyline points="232,215.84 235,215.84 " fill="none" stroke-width="1.000000" stroke="black" id="id0000000366" class="line" />
<text id="id0000000367" transform="matrix(1 0 0 1 235 190)" x="-5.000000" y="25.839928" dominant-baseline="middle" text-anchor="end" font-size="10.000000px" >
0.8
</text>

<polyline points="232,198.55 235,198.55 " fill="none" stroke-width="1.000000" stroke="black" id="id0000000368" class="line" />
<text id="id0000000369" transform="matrix(1 0 0 1 235 190)" x="-5.000000" y="8.549911" dominant-baseline="middle" text-anchor="end" font-size="10.000000px" >
1
</text>

<text id="id0000000370" transform="matrix(1 0 0 1 235 190)" x="82.500000" y="-10.000000" text-anchor="middle" font-size="16.000000px" >
Density Cumulative.
</text>

</g>

</g>


</g>

</svg>
