<svg viewBox="0 0 200 150" height="100%" width="100%" xmlns:xlink="http://www.w3.org/1999/xlink" xmlns="http://www.w3.org/2000/svg" id="id0000000197" >
<g id="id0000000198" >
<clipPath id="id0000000198clipper" >
<polygon points="30,5 30,130 195,130 195,5 " id="id0000000201" class="rectangle" />
</clipPath>

<g clip-path="url(#id0000000198clipper)" id="id0000000200" >
<g id="id0000000202" >
<polygon points="30,130 30,125.455 63,125.455 63,130 " fill="#1f77b4" stroke-width="0.000000" id="id0000000203" fill-opacity="1.000000" class="rectangle" />
<polygon points="63,130 63,107.273 96,107.273 96,130 " fill="#1f77b4" stroke-width="0.000000" id="id0000000204" fill-opacity="1.000000" class="rectangle" />
<polygon points="96,130 96,16.3636 129,16.3636 129,130 " fill="#1f77b4" stroke-width="0.000000" id="id0000000205" fill-opacity="1.000000" class="rectangle" />
<polygon points="129,130 129,107.273 162,107.273 162,130 " fill="#1f77b4" stroke-width="0.000000" id="id0000000206" fill-opacity="1.000000" class="rectangle" />
<polygon points="162,130 162,125.455 195,125.455 195,130 " fill="#1f77b4" stroke-width="0.000000" id="id0000000207" fill-opacity="1.000000" class="rectangle" />
</g>

</g>

<polygon points="30,5 30,130 195,130 195,5 " stroke="black" stroke-width="1.000000" fill="none" id="id0000000208" pointer-events="none" class="rectangle" />
<polyline points="30,130 30,133 " fill="none" stroke-width="1.000000" stroke="black" id="id0000000209" class="line" />
<text id="id0000000210" transform="matrix(1 0 0 1 30 5)" x="0.000000" y="130.000000" dominant-baseline="hanging" text-anchor="middle" font-size="10.000000px" >
0
</text>

<polyline points="50.625,130 50.625,133 " fill="none" stroke-width="1.000000" stroke="black" id="id0000000211" class="line" />
<text id="id0000000212" transform="matrix(1 0 0 1 30 5)" x="20.625000" y="130.000000" dominant-baseline="hanging" text-anchor="middle" font-size="10.000000px" >
0.5
</text>

<polyline points="71.25,130 71.25,133 " fill="none" stroke-width="1.000000" stroke="black" id="id0000000213" class="line" />
<text id="id0000000214" transform="matrix(1 0 0 1 30 5)" x="41.250000" y="130.000000" dominant-baseline="hanging" text-anchor="middle" font-size="10.000000px" >
1
</text>

<polyline points="91.875,130 91.875,133 " fill="none" stroke-width="1.000000" stroke="black" id="id0000000215" class="line" />
<text id="id0000000216" transform="matrix(1 0 0 1 30 5)" x="61.875000" y="130.000000" dominant-baseline="hanging" text-anchor="middle" font-size="10.000000px" >
1.5
</text>

<polyline points="112.5,130 112.5,133 " fill="none" stroke-width="1.000000" stroke="black" id="id0000000217" class="line" />
<text id="id0000000218" transform="matrix(1 0 0 1 30 5)" x="82.500000" y="130.000000" dominant-baseline="hanging" text-anchor="middle" font-size="10.000000px" >
2
</text>

<polyline points="133.125,130 133.125,133 " fill="none" stroke-width="1.000000" stroke="black" id="id0000000219" class="line" />
<text id="id0000000220" transform="matrix(1 0 0 1 30 5)" x="103.125000" y="130.000000" dominant-baseline="hanging" text-anchor="middle" font-size="10.000000px" >
2.5
</text>

<polyline points="153.75,130 153.75,133 " fill="none" stroke-width="1.000000" stroke="black" id="id0000000221" class="line" />
<text id="id0000000222" transform="matrix(1 0 0 1 30 5)" x="123.750000" y="130.000000" dominant-baseline="hanging" text-anchor="middle" font-size="10.000000px" >
3
</text>

<polyline points="174.375,130 174.375,133 " fill="none" stroke-width="1.000000" stroke="black" id="id0000000223" class="line" />
<text id="id0000000224" transform="matrix(1 0 0 1 30 5)" x="144.375000" y="130.000000" dominant-baseline="hanging" text-anchor="middle" font-size="10.000000px" >
3.5
</text>

<polyline points="195,130 195,133 " fill="none" stroke-width="1.000000" stroke="black" id="id0000000225" class="line" />
<text id="id0000000226" transform="matrix(1 0 0 1 30 5)" x="165.000000" y="130.000000" dominant-baseline="hanging" text-anchor="middle" font-size="10.000000px" >
4
</text>

<polyline points="27,130 30,130 " fill="none" stroke-width="1.000000" stroke="black" id="id0000000227" class="line" />
<text id="id0000000228" transform="matrix(1 0 0 1 30 5)" x="-5.000000" y="125.000000" dominant-baseline="middle" text-anchor="end" font-size="10.000000px" >
0
</text>

<polyline points="27,107.273 30,107.273 " fill="none" stroke-width="1.000000" stroke="black" id="id0000000229" class="line" />
<text id="id0000000230" transform="matrix(1 0 0 1 30 5)" x="-5.000000" y="102.272728" dominant-baseline="middle" text-anchor="end" font-size="10.000000px" >
1
</text>

<polyline points="27,84.5455 30,84.5455 " fill="none" stroke-width="1.000000" stroke="black" id="id0000000231" class="line" />
<text id="id0000000232" transform="matrix(1 0 0 1 30 5)" x="-5.000000" y="79.545456" dominant-baseline="middle" text-anchor="end" font-size="10.000000px" >
2
</text>

<polyline points="27,61.8182 30,61.8182 " fill="none" stroke-width="1.000000" stroke="black" id="id0000000233" class="line" />
<text id="id0000000234" transform="matrix(1 0 0 1 30 5)" x="-5.000000" y="56.818184" dominant-baseline="middle" text-anchor="end" font-size="10.000000px" >
3
</text>

<polyline points="27,39.0909 30,39.0909 " fill="none" stroke-width="1.000000" stroke="black" id="id0000000235" class="line" />
<text id="id0000000236" transform="matrix(1 0 0 1 30 5)" x="-5.000000" y="34.090912" dominant-baseline="middle" text-anchor="end" font-size="10.000000px" >
4
</text>

<polyline points="27,16.3636 30,16.3636 " fill="none" stroke-width="1.000000" stroke="black" id="id0000000237" class="line" />
<text id="id0000000238" transform="matrix(1 0 0 1 30 5)" x="-5.000000" y="11.363640" dominant-baseline="middle" text-anchor="end" font-size="10.000000px" >
5
</text>


</g>

</svg>
