<svg viewBox="0 0 200 150" height="100%" width="100%" xmlns:xlink="http://www.w3.org/1999/xlink" xmlns="http://www.w3.org/2000/svg" id="id0000000645" >
<g id="id0000000646" >
<clipPath id="id0000000646clipper" >
<polygon points="30,5 30,130 195,130 195,5 " id="id0000000649" class="rectangle" />
</clipPath>

<g clip-path="url(#id0000000646clipper)" id="id0000000648" >
<g id="id0000000650" >
<polygon points="30,130 30,130 38.25,130 38.25,130 " fill="blue" stroke-width="0.000000" id="id0000000651" fill-opacity="0.500000" class="rectangle" />
<polygon points="38.25,130 38.25,130 46.5,130 46.5,130 " fill="blue" stroke-width="0.000000" id="id0000000652" fill-opacity="0.500000" class="rectangle" />
<polygon points="46.5,130 46.5,130 54.75,130 54.75,130 " fill="blue" stroke-width="0.000000" id="id0000000653" fill-opacity="0.500000" class="rectangle" />
<polygon points="54.75,130 54.75,130 63,130 63,130 " fill="blue" stroke-width="0.000000" id="id0000000654" fill-opacity="0.500000" class="rectangle" />
<polygon points="63,130 63,130 71.25,130 71.25,130 " fill="blue" stroke-width="0.000000" id="id0000000655" fill-opacity="0.500000" class="rectangle" />
<polygon points="71.25,130 71.25,130 79.5,130 79.5,130 " fill="blue" stroke-width="0.000000" id="id0000000656" fill-opacity="0.500000" class="rectangle" />
<polygon points="79.5,130 79.5,130 87.75,130 87.75,130 " fill="blue" stroke-width="0.000000" id="id0000000657" fill-opacity="0.500000" class="rectangle" />
<polygon points="87.75,130 87.75,130 96,130 96,130 " fill="blue" stroke-width="0.000000" id="id0000000658" fill-opacity="0.500000" class="rectangle" />
<polygon points="96,130 96,129.466 104.25,129.466 104.25,130 " fill="blue" stroke-width="0.000000" id="id0000000659" fill-opacity="0.500000" class="rectangle" />
<polygon points="104.25,130 104.25,128.933 112.5,128.933 112.5,130 " fill="blue" stroke-width="0.000000" id="id0000000660" fill-opacity="0.500000" class="rectangle" />
<polygon points="112.5,130 112.5,121.464 120.75,121.464 120.75,130 " fill="blue" stroke-width="0.000000" id="id0000000661" fill-opacity="0.500000" class="rectangle" />
<polygon points="120.75,130 120.75,102.258 129,102.258 129,130 " fill="blue" stroke-width="0.000000" id="id0000000662" fill-opacity="0.500000" class="rectangle" />
<polygon points="129,130 129,84.1187 137.25,84.1187 137.25,130 " fill="blue" stroke-width="0.000000" id="id0000000663" fill-opacity="0.500000" class="rectangle" />
<polygon points="137.25,130 137.25,52.6419 145.5,52.6419 145.5,130 " fill="blue" stroke-width="0.000000" id="id0000000664" fill-opacity="0.500000" class="rectangle" />
<polygon points="145.5,130 145.5,16.3636 153.75,16.3636 153.75,130 " fill="blue" stroke-width="0.000000" id="id0000000665" fill-opacity="0.500000" class="rectangle" />
<polygon points="153.75,130 153.75,31.8353 162,31.8353 162,130 " fill="blue" stroke-width="0.000000" id="id0000000666" fill-opacity="0.500000" class="rectangle" />
<polygon points="162,130 162,52.1084 170.25,52.1084 170.25,130 " fill="blue" stroke-width="0.000000" id="id0000000667" fill-opacity="0.500000" class="rectangle" />
<polygon points="170.25,130 170.25,83.5851 178.5,83.5851 178.5,130 " fill="blue" stroke-width="0.000000" id="id0000000668" fill-opacity="0.500000" class="rectangle" />
<polygon points="178.5,130 178.5,108.66 186.75,108.66 186.75,130 " fill="blue" stroke-width="0.000000" id="id0000000669" fill-opacity="0.500000" class="rectangle" />
<polygon points="186.75,130 186.75,118.796 195,118.796 195,130 " fill="blue" stroke-width="0.000000" id="id0000000670" fill-opacity="0.500000" class="rectangle" />
</g>

<g id="id0000000671" >
<polygon points="30,130 30,116.129 38.25,116.129 38.25,130 " fill="#CC00AA" stroke-width="0.000000" id="id0000000672" fill-opacity="0.500000" class="rectangle" />
<polygon points="38.25,130 38.25,113.461 46.5,113.461 46.5,130 " fill="#CC00AA" stroke-width="0.000000" id="id0000000673" fill-opacity="0.500000" class="rectangle" />
<polygon points="46.5,130 46.5,105.992 54.75,105.992 54.75,130 " fill="#CC00AA" stroke-width="0.000000" id="id0000000674" fill-opacity="0.500000" class="rectangle" />
<polygon points="54.75,130 54.75,104.925 63,104.925 63,130 " fill="#CC00AA" stroke-width="0.000000" id="id0000000675" fill-opacity="0.500000" class="rectangle" />
<polygon points="63,130 63,92.6547 71.25,92.6547 71.25,130 " fill="#CC00AA" stroke-width="0.000000" id="id0000000676" fill-opacity="0.500000" class="rectangle" />
<polygon points="71.25,130 71.25,87.3197 79.5,87.3197 79.5,130 " fill="#CC00AA" stroke-width="0.000000" id="id0000000677" fill-opacity="0.500000" class="rectangle" />
<polygon points="79.5,130 79.5,86.7862 87.75,86.7862 87.75,130 " fill="#CC00AA" stroke-width="0.000000" id="id0000000678" fill-opacity="0.500000" class="rectangle" />
<polygon points="87.75,130 87.75,81.9846 96,81.9846 96,130 " fill="#CC00AA" stroke-width="0.000000" id="id0000000679" fill-opacity="0.500000" class="rectangle" />
<polygon points="96,130 96,73.4486 104.25,73.4486 104.25,130 " fill="#CC00AA" stroke-width="0.000000" id="id0000000680" fill-opacity="0.500000" class="rectangle" />
<polygon points="104.25,130 104.25,84.6522 112.5,84.6522 112.5,130 " fill="#CC00AA" stroke-width="0.000000" id="id0000000681" fill-opacity="0.500000" class="rectangle" />
<polygon points="112.5,130 112.5,85.1857 120.75,85.1857 120.75,130 " fill="#CC00AA" stroke-width="0.000000" id="id0000000682" fill-opacity="0.500000" class="rectangle" />
<polygon points="120.75,130 120.75,101.191 129,101.191 129,130 " fill="#CC00AA" stroke-width="0.000000" id="id0000000683" fill-opacity="0.500000" class="rectangle" />
<polygon points="129,130 129,99.0568 137.25,99.0568 137.25,130 " fill="#CC00AA" stroke-width="0.000000" id="id0000000684" fill-opacity="0.500000" class="rectangle" />
<polygon points="137.25,130 137.25,105.459 145.5,105.459 145.5,130 " fill="#CC00AA" stroke-width="0.000000" id="id0000000685" fill-opacity="0.500000" class="rectangle" />
<polygon points="145.5,130 145.5,110.26 153.75,110.26 153.75,130 " fill="#CC00AA" stroke-width="0.000000" id="id0000000686" fill-opacity="0.500000" class="rectangle" />
<polygon points="153.75,130 153.75,121.464 162,121.464 162,130 " fill="#CC00AA" stroke-width="0.000000" id="id0000000687" fill-opacity="0.500000" class="rectangle" />
<polygon points="162,130 162,126.799 170.25,126.799 170.25,130 " fill="#CC00AA" stroke-width="0.000000" id="id0000000688" fill-opacity="0.500000" class="rectangle" />
<polygon points="170.25,130 170.25,126.265 178.5,126.265 178.5,130 " fill="#CC00AA" stroke-width="0.000000" id="id0000000689" fill-opacity="0.500000" class="rectangle" />
<polygon points="178.5,130 178.5,128.933 186.75,128.933 186.75,130 " fill="#CC00AA" stroke-width="0.000000" id="id0000000690" fill-opacity="0.500000" class="rectangle" />
<polygon points="186.75,130 186.75,127.332 195,127.332 195,130 " fill="#CC00AA" stroke-width="0.000000" id="id0000000691" fill-opacity="0.500000" class="rectangle" />
</g>

</g>

<polygon points="30,5 30,130 195,130 195,5 " stroke="black" stroke-width="1.000000" fill="none" id="id0000000692" pointer-events="none" class="rectangle" />
<polyline points="46.5,130 46.5,133 " fill="none" stroke-width="1.000000" stroke="black" id="id0000000693" class="line" />
<text id="id0000000694" transform="matrix(1 0 0 1 30 5)" x="16.500000" y="130.000000" dominant-baseline="hanging" text-anchor="middle" font-size="10.000000px" >
-8
</text>

<polyline points="79.5,130 79.5,133 " fill="none" stroke-width="1.000000" stroke="black" id="id0000000695" class="line" />
<text id="id0000000696" transform="matrix(1 0 0 1 30 5)" x="49.500000" y="130.000000" dominant-baseline="hanging" text-anchor="middle" font-size="10.000000px" >
-4
</text>

<polyline points="112.5,130 112.5,133 " fill="none" stroke-width="1.000000" stroke="black" id="id0000000697" class="line" />
<text id="id0000000698" transform="matrix(1 0 0 1 30 5)" x="82.500000" y="130.000000" dominant-baseline="hanging" text-anchor="middle" font-size="10.000000px" >
0
</text>

<polyline points="145.5,130 145.5,133 " fill="none" stroke-width="1.000000" stroke="black" id="id0000000699" class="line" />
<text id="id0000000700" transform="matrix(1 0 0 1 30 5)" x="115.500000" y="130.000000" dominant-baseline="hanging" text-anchor="middle" font-size="10.000000px" >
4
</text>

<polyline points="178.5,130 178.5,133 " fill="none" stroke-width="1.000000" stroke="black" id="id0000000701" class="line" />
<text id="id0000000702" transform="matrix(1 0 0 1 30 5)" x="148.500000" y="130.000000" dominant-baseline="hanging" text-anchor="middle" font-size="10.000000px" >
8
</text>

<polyline points="27,130 30,130 " fill="none" stroke-width="1.000000" stroke="black" id="id0000000703" class="line" />
<text id="id0000000704" transform="matrix(1 0 0 1 30 5)" x="-5.000000" y="125.000000" dominant-baseline="middle" text-anchor="end" font-size="10.000000px" >
0
</text>

<polyline points="27,105.459 30,105.459 " fill="none" stroke-width="1.000000" stroke="black" id="id0000000705" class="line" />
<text id="id0000000706" transform="matrix(1 0 0 1 30 5)" x="-5.000000" y="100.458817" dominant-baseline="middle" text-anchor="end" font-size="10.000000px" >
46
</text>

<polyline points="27,80.9176 30,80.9176 " fill="none" stroke-width="1.000000" stroke="black" id="id0000000707" class="line" />
<text id="id0000000708" transform="matrix(1 0 0 1 30 5)" x="-5.000000" y="75.917633" dominant-baseline="middle" text-anchor="end" font-size="10.000000px" >
92
</text>

<polyline points="27,56.3764 30,56.3764 " fill="none" stroke-width="1.000000" stroke="black" id="id0000000709" class="line" />
<text id="id0000000710" transform="matrix(1 0 0 1 30 5)" x="-5.000000" y="51.376442" dominant-baseline="middle" text-anchor="end" font-size="10.000000px" >
138
</text>

<polyline points="27,31.8353 30,31.8353 " fill="none" stroke-width="1.000000" stroke="black" id="id0000000711" class="line" />
<text id="id0000000712" transform="matrix(1 0 0 1 30 5)" x="-5.000000" y="26.835258" dominant-baseline="middle" text-anchor="end" font-size="10.000000px" >
184
</text>

<polyline points="27,7.29407 30,7.29407 " fill="none" stroke-width="1.000000" stroke="black" id="id0000000713" class="line" />
<text id="id0000000714" transform="matrix(1 0 0 1 30 5)" x="-5.000000" y="2.294067" dominant-baseline="middle" text-anchor="end" font-size="10.000000px" >
230
</text>


</g>

</svg>
